<?xml version="1.0" encoding="UTF-8" standalone="no"?>
<!-- Generator: Adobe Illustrator 13.0.0, SVG Export Plug-In . SVG Version: 6.00 Build 14948)  -->

<svg
   version="1.1"
   x="0px"
   y="0px"
   width="387.53763"
   height="133.78584"
   viewBox="0 0 387.53763 133.78585"
   enable-background="new 0 0 373.831 120.104"
   xml:space="preserve"
   id="svg2"
   inkscape:version="1.1 (c68e22c387, 2021-05-23)"
   sodipodi:docname="chailovelogo.svg"
   inkscape:export-filename="E:\ES-DE\EmulationStation-DE-2.0.0-x64_Portable\.emulationstation\themes\coinops-es-de\chailove\images\logo.png"
   inkscape:export-xdpi="96"
   inkscape:export-ydpi="96"
   xmlns:inkscape="http://www.inkscape.org/namespaces/inkscape"
   xmlns:sodipodi="http://sodipodi.sourceforge.net/DTD/sodipodi-0.dtd"
   xmlns="http://www.w3.org/2000/svg"
   xmlns:svg="http://www.w3.org/2000/svg"
   xmlns:rdf="http://www.w3.org/1999/02/22-rdf-syntax-ns#"
   xmlns:cc="http://creativecommons.org/ns#"
   xmlns:dc="http://purl.org/dc/elements/1.1/"><metadata
     id="metadata59"><rdf:RDF><cc:Work
         rdf:about=""><dc:format>image/svg+xml</dc:format><dc:type
           rdf:resource="http://purl.org/dc/dcmitype/StillImage" /></cc:Work></rdf:RDF></metadata><defs
     id="defs57" /><sodipodi:namedview
     pagecolor="#000000"
     bordercolor="#666666"
     borderopacity="1"
     objecttolerance="10"
     gridtolerance="10"
     guidetolerance="10"
     inkscape:pageopacity="0"
     inkscape:pageshadow="2"
     inkscape:window-width="2560"
     inkscape:window-height="1377"
     id="namedview55"
     showgrid="false"
     inkscape:zoom="2.1790248"
     inkscape:cx="154.42688"
     inkscape:cy="92.93148"
     inkscape:window-x="-8"
     inkscape:window-y="-8"
     inkscape:window-maximized="1"
     inkscape:current-layer="svg2"
     inkscape:pagecheckerboard="true"
     fit-margin-top="0"
     fit-margin-left="0"
     fit-margin-right="0"
     fit-margin-bottom="0" /><path
     style="fill:#ffffff;stroke:#000000;stroke-width:0.210645;stroke-miterlimit:4;stroke-dasharray:none;stroke-opacity:0"
     d="m 337.9722,25.4592 c -13.27041,-0.319993 -26.10136,6.027276 -35.31092,15.321863 -15.94528,16.604685 -20.26311,43.469722 -9.65347,64.027537 6.25836,13.00673 17.99072,23.48353 32.16211,26.92126 9.63023,2.58024 19.76249,1.92054 29.58516,1.10876 8.39846,-0.90087 13.6517,-11.62152 8.64779,-18.59705 -2.6918,-4.68375 -8.50126,-5.25237 -13.33311,-4.65183 -10.24132,0.84937 -22.15023,0.90537 -29.96052,-6.87049 -4.67959,-4.989224 -8.28379,-11.452299 -8.98571,-18.323671 -0.46078,-6.430532 -0.12644,-13.076753 3.05649,-18.8543 4.1751,-9.347521 13.38565,-16.739252 23.9087,-16.708485 10.01051,-0.302608 21.4845,4.334782 25.34283,14.199658 1.16387,5.506252 -3.60655,9.783503 -7.73443,12.471534 -6.57947,4.422768 -14.55222,5.597422 -21.74407,8.566223 -7.62582,3.457638 -7.71497,15.24811 -0.83806,19.548061 4.13722,3.42008 9.66716,2.26359 14.32962,0.80759 14.38951,-3.97341 29.43184,-11.200725 36.67872,-24.985195 6.57779,-12.254866 2.77,-27.746159 -6.34781,-37.6342 C 367.85718,30.830213 352.75537,24.577055 337.9722,25.4592 Z"
     id="path3140" /><path
     style="display:inline;fill:#ffffff;stroke:#000000;stroke-width:0.210645;stroke-miterlimit:4;stroke-dasharray:none;stroke-opacity:0"
     d="m 371.23858,102.07748 c -8.72323,-0.10837 -15.67628,8.81469 -13.99171,17.25076 1.09335,9.05052 12.01309,15.02949 20.14143,10.69053 9.64512,-4.35156 10.89055,-19.26339 2.25875,-25.27561 -2.40645,-1.7879 -5.41333,-2.73231 -8.40847,-2.66568 z"
     id="path3101" /><path
     style="fill:#ffffff;stroke:#000000;stroke-width:0.210645;stroke-miterlimit:4;stroke-dasharray:none;stroke-opacity:0"
     d="m 185.77808,24.841629 c -8.00558,-0.04677 -14.56611,9.04835 -11.10015,16.512189 8.3357,20.696759 17.39741,41.144243 27.80623,60.890022 6.04622,10.51592 11.81074,22.4855 22.95398,28.47789 8.9665,5.29679 20.94727,3.02172 28.10247,-4.28739 9.7062,-9.639 16.06108,-21.99858 22.66102,-33.827482 8.26233,-16.145987 15.85008,-32.647611 22.95321,-49.332205 2.38321,-5.019548 2.10663,-11.63803 -2.54199,-15.289595 -5.17315,-4.963346 -15.04997,-3.566603 -17.62364,3.466108 -11.18037,23.11499 -20.75571,46.731863 -34.4836,68.476912 -2.40618,3.465012 -4.72491,7.330012 -8.2794,9.671402 -8.10713,-7.42588 -12.31594,-17.936352 -17.35094,-27.475619 -8.32189,-16.728533 -15.66658,-33.858042 -23.31913,-50.812523 -1.88361,-3.650014 -5.49513,-6.617911 -9.77806,-6.469709 z"
     id="path2984" /><path
     style="display:inline;fill:#ffffff;stroke:#000000;stroke-width:0.210645;stroke-miterlimit:4;stroke-dasharray:none;stroke-opacity:0"
     d="m 145.95055,0.11905875 c -9.67484,0.1725616 -17.91918,9.78432925 -16.06043,19.39747525 1.22347,9.363669 11.30591,16.167813 20.44618,13.679786 9.72458,-1.888386 15.80955,-13.579732 11.55638,-22.582135 -2.67346,-6.1632622 -9.10197,-10.79433675 -15.94213,-10.49512625 z"
     id="path2904" /><path
     style="fill:#ffffff;stroke:#000000;stroke-width:0.210645;stroke-miterlimit:4;stroke-dasharray:none;stroke-opacity:0"
     d="m 132.93764,25.144589 c -18.48181,-0.09497 -37.093299,9.721901 -45.926152,26.238264 -12.493987,22.210471 -8.55018,53.324307 11.293871,70.023597 10.244741,8.73224 23.926991,13.17798 37.351741,12.12055 19.54751,-0.31086 38.44556,-12.74718 45.85416,-30.95043 4.40193,-9.611969 5.25897,-20.364183 4.22917,-30.774427 C 184.14834,53.867351 172.535,37.035587 155.87547,29.908118 148.69162,26.688854 140.80305,25.099866 132.93764,25.144589 Z m 0.60143,23.687309 c 10.75876,-0.09621 21.8266,5.755109 26.05901,15.972598 5.69295,12.557089 3.27414,29.005813 -7.07026,38.444484 -7.44862,6.17469 -17.94806,7.85332 -27.25649,6.00541 -11.48239,-2.44693 -19.81951,-13.003902 -21.33624,-24.381964 -1.63664,-9.890588 1.34351,-20.731444 8.23458,-28.092771 5.55981,-5.549869 13.64095,-8.025529 21.3694,-7.947757 z"
     id="path2943" /><path
     style="display:inline;fill:#ffffff;stroke:#000000;stroke-width:0.210645;stroke-miterlimit:4;stroke-dasharray:none;stroke-opacity:0"
     d="m 120.81836,0.43367055 c -9.75853,-0.0627037 -17.93153,9.66748145 -16.19758,19.27557345 0.99652,9.422328 11.05457,16.292502 20.19073,13.940619 9.30953,-1.837093 15.13337,-12.451731 12.20981,-21.367608 C 134.97734,5.3756101 128.06603,0.18431725 120.81836,0.43367055 Z"
     id="path2748" /><path
     style="display:inline;fill:#ffffff;stroke:#000000;stroke-width:0.210645;stroke-miterlimit:4;stroke-dasharray:none;stroke-opacity:0"
     d="M 17.048461,24.689253 C 11.343825,24.575499 7.1763282,29.369696 5.7905575,34.51751 0.52043515,49.965135 -1.3483366,66.726861 1.2989329,82.876799 4.5564923,101.23086 15.689189,118.6232 32.6361,127.06067 c 9.944125,5.23189 21.320488,7.19862 32.481109,6.44337 7.120456,-0.50229 14.932093,-0.33839 21.147635,-4.31707 5.535449,-3.91479 6.026829,-12.37321 1.552447,-17.27765 -4.200572,-5.25248 -11.545091,-3.42379 -17.217312,-2.44078 -7.037887,0.88528 -14.158077,0.87028 -21.102861,-1.03526 C 39.171745,105.51637 30.811113,97.386005 27.067636,87.407248 21.131136,72.36191 23.797335,55.609383 28.505349,40.624205 30.310835,35.92396 29.423526,30.007982 24.972017,27.104862 22.69317,25.458699 19.85562,24.606939 17.048461,24.689253 Z"
     id="path2709" /><g
     id="Layer_10"
     style="display:inline"
     transform="translate(6.8132699,6.9419218)" /><g
     id="Layer_9"
     style="display:inline"
     transform="translate(6.8132699,6.9419218)"><circle
       cx="114.279"
       cy="10.335"
       r="10"
       id="circle6"
       style="display:inline;fill:#0080e8" /><circle
       cx="139.612"
       cy="10"
       r="10"
       id="circle8"
       style="display:inline;fill:#0080e8" /></g><g
     id="Layer_2"
     style="display:inline"
     transform="translate(6.8132699,6.9419218)" /><g
     id="Layer_1"
     style="display:inline"
     transform="translate(6.8132699,6.9419218)" /><g
     id="Layer_3"
     style="display:inline"
     transform="translate(6.8132699,6.9419218)"><g
       id="g13"><g
         id="g15"><path
           fill="none"
           d="m 126.419,29.906 c -55.287,0 -55.475,85.041 -0.353,85.041 55.04,0 55.854,-85.041 0.353,-85.041"
           id="path17" /><path
           d="m 126.419,24.906 c -16.061,0.162 -30.552,7.196 -39.236,20.915 -7.67,12.116 -9.111,27.837 -5.282,41.478 4.06,14.461 14.838,25.804 29.094,30.463 15.53,5.076 33.615,1.679 46.006,-8.884 14.374,-12.252 18.58,-33.677 13.679,-51.324 -5.627,-20.263 -23.637,-32.441 -44.261,-32.648 -6.451,-0.065 -6.445,9.935 0,10 14.639,0.147 27.712,7.472 33.298,21.396 5.004,12.474 3.672,27.057 -3.529,38.379 -8.21,12.908 -24.446,17.367 -38.892,14.402 C 103.223,106.194 93.794,95.09 90.733,81.426 88.358,70.821 90.469,59.316 96.258,50.172 c 6.572,-10.381 18.226,-15.146 30.161,-15.266 6.445,-0.065 6.452,-10.065 0,-10 z"
           id="path19"
           style="fill:#0080e8" /></g></g><g
       id="g21"><g
         id="g23"><path
           fill="none"
           d="m 178.397,29.906 c 48.716,110.468 51.349,116.265 104.041,0"
           id="path25" /><path
           d="m 174.08,32.43 c 9.586,21.736 18.656,43.999 30.382,64.701 5.241,9.255 12.593,21.893 24.465,22.801 11.569,0.885 20.021,-12.921 25.149,-21.195 12.939,-20.876 22.563,-43.995 32.68,-66.306 2.642,-5.825 -5.975,-10.913 -8.635,-5.047 -9.592,21.154 -18.926,42.655 -30.574,62.786 -3.169,5.476 -6.566,10.959 -10.974,15.536 -1.543,1.604 -2.545,2.424 -4.268,3.411 -1.201,0.688 -2.065,0.857 -3.379,0.815 -0.582,-0.051 -0.556,-0.041 0.08,0.027 -0.424,-0.069 -0.837,-0.193 -1.248,-0.316 -0.165,-0.049 -0.753,-0.289 -1.728,-0.876 -1.604,-0.966 -2.992,-2.424 -4.532,-4.152 -4.226,-4.744 -7.359,-10.551 -10.383,-16.096 -10.744,-19.703 -19.356,-40.625 -28.401,-61.135 -2.597,-5.891 -11.211,-0.797 -8.634,5.046 z"
           id="path27"
           style="fill:#0080e8" /></g></g></g><g
     id="Layer_4"
     style="display:inline"
     transform="translate(6.8132699,6.9419218)" /><g
     id="Layer_5"
     style="display:inline"
     transform="translate(6.8132699,6.9419218)" /><g
     id="Layer_6"
     style="display:inline"
     transform="translate(6.8132699,6.9419218)"><g
       id="g32"><g
         id="g34"><path
           fill="none"
           d="m 332.958,87.255 c 57.148,-12.938 36.661,-53.914 3.234,-57.148 -33.427,-3.234 -51.756,33.427 -40.974,59.305 10.782,25.879 32.349,26.958 51.756,24.801"
           id="path36" /><path
           d="m 334.288,92.076 c 16.119,-3.771 37.565,-12.266 39.429,-31.426 1.37,-14.087 -9.762,-25.941 -21.77,-31.407 -17.438,-7.938 -37.938,-4.605 -51.258,9.353 -13.145,13.773 -17.356,35.85 -9.787,53.338 4.761,10.999 12.667,20.207 24.025,24.604 10.208,3.952 21.323,3.826 32.048,2.674 6.342,-0.682 6.408,-10.688 0,-10 -9.54,1.025 -19.151,1.334 -28.321,-1.903 -10.214,-3.605 -17.066,-13.445 -20.092,-23.452 -5.278,-17.456 3.682,-39.335 20.828,-46.488 13.844,-5.774 32.803,-1.287 41.323,11.511 9.107,13.679 -4.028,24.854 -16.167,29.692 -4.179,1.665 -8.544,2.838 -12.917,3.862 -6.278,1.468 -3.615,11.11 2.659,9.642 z"
           id="path38"
           style="fill:#0080e8" /></g></g></g><g
     id="Layer_7"
     style="display:inline"
     transform="translate(6.8132699,6.9419218)" /><g
     id="Layer_8"
     style="display:inline"
     transform="translate(6.8132699,6.9419218)"><g
       id="g42"
       style="display:inline"><g
         id="g44"><path
           fill="none"
           d="m 10.822,29.224 c -19.854,55.69 12.757,96.622 61.59,83.698"
           id="path46" /><path
           d="m 6,27.895 c -8.2,23.498 -9.661,51.774 6.323,72.444 14.666,18.965 39.169,23.091 61.417,17.404 6.244,-1.596 3.594,-11.24 -2.658,-9.643 C 52.395,112.876 31.634,109.789 19.553,93.436 6.14,75.279 8.629,50.654 15.643,30.553 17.773,24.448 8.111,21.847 6,27.895 Z"
           id="path48"
           style="fill:#0080e8" /></g></g><g
       id="g50"
       style="display:inline"><path
         d="m 364.519,100.526 c 5.073,0 9.115,4.124 9.115,9.28 0,5.238 -4.042,9.32 -9.156,9.32 -5.073,0 -9.197,-4.082 -9.197,-9.32 0,-5.156 4.124,-9.28 9.197,-9.28 z m -0.041,1.443 c -4.083,0 -7.424,3.506 -7.424,7.837 0,4.412 3.341,7.877 7.465,7.877 4.125,0.041 7.424,-3.465 7.424,-7.836 0,-4.372 -3.299,-7.878 -7.424,-7.878 z m -1.732,13.239 h -1.649 v -10.352 c 0.866,-0.124 1.69,-0.248 2.928,-0.248 1.567,0 2.599,0.33 3.218,0.783 0.618,0.454 0.948,1.155 0.948,2.146 0,1.36 -0.907,2.186 -2.021,2.516 v 0.083 c 0.907,0.164 1.525,0.989 1.731,2.516 0.248,1.608 0.495,2.227 0.66,2.557 h -1.732 c -0.247,-0.33 -0.494,-1.278 -0.701,-2.639 -0.247,-1.32 -0.907,-1.815 -2.227,-1.815 h -1.155 z m 0,-5.732 h 1.196 c 1.361,0 2.516,-0.495 2.516,-1.773 0,-0.908 -0.659,-1.814 -2.516,-1.814 -0.536,0 -0.907,0.041 -1.196,0.082 z"
         id="path52"
         style="fill:#0080e8" /></g></g><g
     id="Layer_11"
     style="display:inline"
     transform="translate(6.8132699,6.9419218)" /></svg>
