<?xml version="1.0" encoding="UTF-8" standalone="no"?>
<!-- Generator: Adobe Illustrator 13.0.0, SVG Export Plug-In . SVG Version: 6.00 Build 14948)  -->

<svg
   version="1.2"
   id="Layer_3"
   x="0px"
   y="0px"
   width="155"
   height="350.26001"
   viewBox="0 0 154.99999 350.26"
   xml:space="preserve"
   inkscape:version="1.2.2 (732a01da63, 2022-12-09)"
   sodipodi:docname="adam.svg"
   xmlns:inkscape="http://www.inkscape.org/namespaces/inkscape"
   xmlns:sodipodi="http://sodipodi.sourceforge.net/DTD/sodipodi-0.dtd"
   xmlns="http://www.w3.org/2000/svg"
   xmlns:svg="http://www.w3.org/2000/svg"
   xmlns:rdf="http://www.w3.org/1999/02/22-rdf-syntax-ns#"
   xmlns:cc="http://creativecommons.org/ns#"
   xmlns:dc="http://purl.org/dc/elements/1.1/"
   xmlns:ns0="&amp;#38;#38;ns_sfw;"><defs
     id="defs30" /><sodipodi:namedview
     pagecolor="#000000"
     bordercolor="#666666"
     borderopacity="1"
     objecttolerance="10"
     gridtolerance="10"
     guidetolerance="10"
     inkscape:pageopacity="0"
     inkscape:pageshadow="2"
     inkscape:window-width="1920"
     inkscape:window-height="1009"
     id="namedview28"
     showgrid="false"
     inkscape:zoom="2.4210586"
     inkscape:cx="286.44495"
     inkscape:cy="175.13"
     inkscape:window-x="-8"
     inkscape:window-y="-8"
     inkscape:window-maximized="1"
     inkscape:current-layer="Layer_3"
     showguides="true"
     inkscape:guide-bbox="true"
     inkscape:showpageshadow="0"
     inkscape:pagecheckerboard="1"
     inkscape:deskcolor="#d1d1d1"><sodipodi:guide
       position="284.1732,267.23846"
       orientation="1,0"
       id="guide4186"
       inkscape:locked="false" /><sodipodi:guide
       position="400.23813,250.30372"
       orientation="0,1"
       id="guide4188"
       inkscape:locked="false" /></sodipodi:namedview><metadata
     id="metadata55"><rdf:RDF><cc:Work
         rdf:about=""><dc:format>image/svg+xml</dc:format><dc:type
           rdf:resource="http://purl.org/dc/dcmitype/StillImage" /></cc:Work></rdf:RDF><ns0:sfw><ns0:slices /><ns0:sliceSourceBounds
         x="-7231"
         y="-7652"
         width="16383"
         height="16383"
         bottomLeftOrigin="true" /></ns0:sfw></metadata><path
     style="fill:#f4f4f4"
     inkscape:connector-curvature="0"
     id="path3"
     d="m 2.38202,342.85419 c 0,2.56269 2.09408,4.65618 4.65558,4.65618 h 140.19121 c 2.5627,0 4.63823,-2.09349 4.63823,-4.65618 V 8.1596059 c 0,-2.5626962 -2.07553,-4.6388272 -4.63823,-4.6388272 H 7.0376 c -2.5621,0 -4.65558,2.0767295 -4.65558,4.6400241 z m 1.12873,0 V 8.1596059 c 0,-1.9534424 1.57461,-3.5100918 3.52685,-3.5100918 h 140.19121 c 1.95285,0 3.50949,1.5572479 3.50949,3.5100918 V 342.85419 c 0,1.95344 -1.55844,3.52745 -3.51009,3.52745 H 7.037 c -1.95224,-6e-4 -3.52685,-1.57461 -3.52625,-3.52745 z" /><path
     style="fill:#f4f4f4"
     inkscape:connector-curvature="0"
     d="m 4.80901,140.30641 h 7.20632 0.56436 v -1.17449 -38.33521 -1.17449 H 12.01533 4.80901 v 2.34898 l 5.91114,-0.0777 v 35.98747 l -5.91114,0.0777 z"
     id="path3358"
     sodipodi:nodetypes="ccccccccccccc" /><path
     style="color:#000000;font-style:normal;font-variant:normal;font-weight:normal;font-stretch:normal;font-size:medium;line-height:normal;font-family:sans-serif;text-indent:0;text-align:start;text-decoration:none;text-decoration-line:none;text-decoration-style:solid;text-decoration-color:#000000;letter-spacing:normal;word-spacing:normal;text-transform:none;writing-mode:lr-tb;direction:ltr;baseline-shift:baseline;text-anchor:start;white-space:normal;clip-rule:nonzero;display:inline;overflow:visible;visibility:visible;opacity:1;isolation:auto;mix-blend-mode:normal;color-interpolation:sRGB;color-interpolation-filters:linearRGB;solid-color:#000000;solid-opacity:1;fill:#f4f4f4;fill-opacity:1;fill-rule:nonzero;stroke:none;stroke-width:3.07403;stroke-linecap:butt;stroke-linejoin:miter;stroke-miterlimit:4;stroke-dasharray:none;stroke-dashoffset:0;stroke-opacity:1;color-rendering:auto;image-rendering:auto;shape-rendering:auto;text-rendering:auto;enable-background:accumulate"
     d="m 13.14893,329.28863 c 0,4.97828 4.03635,9.01462 9.01462,9.01462 h 21.38636 c 4.97827,0 9.01462,-4.03634 9.01462,-9.01462 v -20.11224 c 0,-4.97828 -4.03635,-9.01463 -9.01462,-9.01463 H 22.16355 c -4.97827,0 -9.01462,4.03635 -9.01462,9.01463 z m 1.83986,0 v -20.11224 c 0,-3.99088 3.18389,-7.17476 7.17476,-7.17476 h 21.38636 c 3.99087,0 7.17475,3.18388 7.17475,7.17476 v 20.11224 c 0,3.99087 -3.18388,7.17476 -7.17475,7.17476 H 22.16355 c -3.99087,0 -7.17476,-3.18389 -7.17476,-7.17476 z"
     id="rect4179-31"
     inkscape:connector-curvature="0" /><path
     style="fill:#f4f4f4"
     inkscape:connector-curvature="0"
     d="m 149.59107,140.22685 h -7.20631 -0.56437 v -1.17449 -38.3352 -1.174501 h 0.56437 7.20631 v 2.348981 l -5.91113,-0.0777 v 35.98748 l 5.91113,0.0777 z"
     id="path3358-3"
     sodipodi:nodetypes="ccccccccccccc" /><path
     style="color:#000000;font-style:normal;font-variant:normal;font-weight:normal;font-stretch:normal;font-size:medium;line-height:normal;font-family:sans-serif;text-indent:0;text-align:start;text-decoration:none;text-decoration-line:none;text-decoration-style:solid;text-decoration-color:#000000;letter-spacing:normal;word-spacing:normal;text-transform:none;writing-mode:lr-tb;direction:ltr;baseline-shift:baseline;text-anchor:start;white-space:normal;clip-rule:nonzero;display:inline;overflow:visible;visibility:visible;opacity:1;isolation:auto;mix-blend-mode:normal;color-interpolation:sRGB;color-interpolation-filters:linearRGB;solid-color:#000000;solid-opacity:1;fill:#f4f4f4;fill-opacity:1;fill-rule:nonzero;stroke:none;stroke-width:3.07403;stroke-linecap:butt;stroke-linejoin:miter;stroke-miterlimit:4;stroke-dasharray:none;stroke-dashoffset:0;stroke-opacity:1;color-rendering:auto;image-rendering:auto;shape-rendering:auto;text-rendering:auto;enable-background:accumulate"
     d="m 102.51411,330.39613 c 0,4.97828 4.03635,9.01462 9.01462,9.01462 h 21.38635 c 4.97828,0 9.01462,-4.03634 9.01462,-9.01462 v -20.11224 c 0,-4.97827 -4.03634,-9.01462 -9.01462,-9.01462 h -21.38635 c -4.97827,0 -9.01462,4.03635 -9.01462,9.01462 z m 1.83986,0 v -20.11224 c 0,-3.99088 3.18388,-7.17476 7.17476,-7.17476 h 21.38635 c 3.99088,0 7.17476,3.18388 7.17476,7.17476 v 20.11224 c 0,3.99087 -3.18388,7.17476 -7.17476,7.17476 h -21.38635 c -3.99088,0 -7.17476,-3.18389 -7.17476,-7.17476 z"
     id="rect4179-31-1"
     inkscape:connector-curvature="0" /><path
     style="color:#000000;font-style:normal;font-variant:normal;font-weight:normal;font-stretch:normal;font-size:medium;line-height:normal;font-family:sans-serif;text-indent:0;text-align:start;text-decoration:none;text-decoration-line:none;text-decoration-style:solid;text-decoration-color:#000000;letter-spacing:normal;word-spacing:normal;text-transform:none;writing-mode:lr-tb;direction:ltr;baseline-shift:baseline;text-anchor:start;white-space:normal;clip-rule:nonzero;display:inline;overflow:visible;visibility:visible;opacity:1;isolation:auto;mix-blend-mode:normal;color-interpolation:sRGB;color-interpolation-filters:linearRGB;solid-color:#000000;solid-opacity:1;fill:#f4f4f4;fill-opacity:1;fill-rule:nonzero;stroke:none;stroke-width:3.07403;stroke-linecap:butt;stroke-linejoin:miter;stroke-miterlimit:4;stroke-dasharray:none;stroke-dashoffset:0;stroke-opacity:1;color-rendering:auto;image-rendering:auto;shape-rendering:auto;text-rendering:auto;enable-background:accumulate"
     d="m 102.76131,286.72012 c 0,4.97828 4.03634,9.01462 9.01462,9.01462 h 21.38635 c 4.97827,0 9.01462,-4.03634 9.01462,-9.01462 v -20.11224 c 0,-4.97827 -4.03635,-9.01462 -9.01462,-9.01462 h -21.38635 c -4.97828,0 -9.01462,4.03635 -9.01462,9.01462 z m 1.83986,0 v -20.11224 c 0,-3.99087 3.18388,-7.17476 7.17476,-7.17476 h 21.38635 c 3.99087,0 7.17476,3.18389 7.17476,7.17476 v 20.11224 c 0,3.99087 -3.18389,7.17476 -7.17476,7.17476 h -21.38635 c -3.99088,0 -7.17476,-3.18389 -7.17476,-7.17476 z"
     id="rect4179-31-1-5"
     inkscape:connector-curvature="0" /><path
     style="color:#000000;font-style:normal;font-variant:normal;font-weight:normal;font-stretch:normal;font-size:medium;line-height:normal;font-family:sans-serif;text-indent:0;text-align:start;text-decoration:none;text-decoration-line:none;text-decoration-style:solid;text-decoration-color:#000000;letter-spacing:normal;word-spacing:normal;text-transform:none;writing-mode:lr-tb;direction:ltr;baseline-shift:baseline;text-anchor:start;white-space:normal;clip-rule:nonzero;display:inline;overflow:visible;visibility:visible;opacity:1;isolation:auto;mix-blend-mode:normal;color-interpolation:sRGB;color-interpolation-filters:linearRGB;solid-color:#000000;solid-opacity:1;fill:#f4f4f4;fill-opacity:1;fill-rule:nonzero;stroke:none;stroke-width:3.07403;stroke-linecap:butt;stroke-linejoin:miter;stroke-miterlimit:4;stroke-dasharray:none;stroke-dashoffset:0;stroke-opacity:1;color-rendering:auto;image-rendering:auto;shape-rendering:auto;text-rendering:auto;enable-background:accumulate"
     d="m 103.00851,242.64079 c 0,4.97829 4.03635,9.01463 9.01462,9.01463 h 21.38635 c 4.97828,0 9.01462,-4.03634 9.01462,-9.01463 v -20.11224 c 0,-4.97827 -4.03634,-9.01462 -9.01462,-9.01462 h -21.38635 c -4.97827,0 -9.01462,4.03635 -9.01462,9.01462 z m 1.83986,0 v -20.11224 c 0,-3.99087 3.18388,-7.17476 7.17476,-7.17476 h 21.38635 c 3.99088,0 7.17476,3.18389 7.17476,7.17476 v 20.11224 c 0,3.99088 -3.18388,7.17477 -7.17476,7.17477 h -21.38635 c -3.99088,0 -7.17476,-3.18389 -7.17476,-7.17477 z"
     id="rect4179-31-1-57"
     inkscape:connector-curvature="0" /><path
     style="color:#000000;font-style:normal;font-variant:normal;font-weight:normal;font-stretch:normal;font-size:medium;line-height:normal;font-family:sans-serif;text-indent:0;text-align:start;text-decoration:none;text-decoration-line:none;text-decoration-style:solid;text-decoration-color:#000000;letter-spacing:normal;word-spacing:normal;text-transform:none;writing-mode:lr-tb;direction:ltr;baseline-shift:baseline;text-anchor:start;white-space:normal;clip-rule:nonzero;display:inline;overflow:visible;visibility:visible;opacity:1;isolation:auto;mix-blend-mode:normal;color-interpolation:sRGB;color-interpolation-filters:linearRGB;solid-color:#000000;solid-opacity:1;fill:#f4f4f4;fill-opacity:1;fill-rule:nonzero;stroke:none;stroke-width:3.07403;stroke-linecap:butt;stroke-linejoin:miter;stroke-miterlimit:4;stroke-dasharray:none;stroke-dashoffset:0;stroke-opacity:1;color-rendering:auto;image-rendering:auto;shape-rendering:auto;text-rendering:auto;enable-background:accumulate"
     d="m 103.00851,200.12272 c 0,4.97828 4.03635,9.01463 9.01462,9.01463 h 21.38635 c 4.97828,0 9.01462,-4.03635 9.01462,-9.01463 v -20.11223 c 0,-4.97828 -4.03634,-9.01463 -9.01462,-9.01463 h -21.38635 c -4.97827,0 -9.01462,4.03635 -9.01462,9.01463 z m 1.83986,0 v -20.11223 c 0,-3.99088 3.18388,-7.17476 7.17476,-7.17476 h 21.38635 c 3.99088,0 7.17476,3.18388 7.17476,7.17476 v 20.11223 c 0,3.99088 -3.18388,7.17476 -7.17476,7.17476 h -21.38635 c -3.99088,0 -7.17476,-3.18388 -7.17476,-7.17476 z"
     id="rect4179-31-1-6"
     inkscape:connector-curvature="0" /><path
     style="color:#000000;font-style:normal;font-variant:normal;font-weight:normal;font-stretch:normal;font-size:medium;line-height:normal;font-family:sans-serif;text-indent:0;text-align:start;text-decoration:none;text-decoration-line:none;text-decoration-style:solid;text-decoration-color:#000000;letter-spacing:normal;word-spacing:normal;text-transform:none;writing-mode:lr-tb;direction:ltr;baseline-shift:baseline;text-anchor:start;white-space:normal;clip-rule:nonzero;display:inline;overflow:visible;visibility:visible;opacity:1;isolation:auto;mix-blend-mode:normal;color-interpolation:sRGB;color-interpolation-filters:linearRGB;solid-color:#000000;solid-opacity:1;fill:#f4f4f4;fill-opacity:1;fill-rule:nonzero;stroke:none;stroke-width:3.07403;stroke-linecap:butt;stroke-linejoin:miter;stroke-miterlimit:4;stroke-dasharray:none;stroke-dashoffset:0;stroke-opacity:1;color-rendering:auto;image-rendering:auto;shape-rendering:auto;text-rendering:auto;enable-background:accumulate"
     d="m 58.51285,200.12272 c 0,4.97828 4.03635,9.01463 9.01462,9.01463 h 21.38635 c 4.97828,0 9.01462,-4.03635 9.01462,-9.01463 v -20.11223 c 0,-4.97828 -4.03634,-9.01463 -9.01462,-9.01463 H 67.52747 c -4.97827,0 -9.01462,4.03635 -9.01462,9.01463 z m 1.83986,0 v -20.11223 c 0,-3.99088 3.18389,-7.17476 7.17476,-7.17476 h 21.38635 c 3.99088,0 7.17476,3.18388 7.17476,7.17476 v 20.11223 c 0,3.99088 -3.18388,7.17476 -7.17476,7.17476 H 67.52747 c -3.99087,0 -7.17476,-3.18388 -7.17476,-7.17476 z"
     id="rect4179-31-1-3"
     inkscape:connector-curvature="0" /><path
     style="color:#000000;font-style:normal;font-variant:normal;font-weight:normal;font-stretch:normal;font-size:medium;line-height:normal;font-family:sans-serif;text-indent:0;text-align:start;text-decoration:none;text-decoration-line:none;text-decoration-style:solid;text-decoration-color:#000000;letter-spacing:normal;word-spacing:normal;text-transform:none;writing-mode:lr-tb;direction:ltr;baseline-shift:baseline;text-anchor:start;white-space:normal;clip-rule:nonzero;display:inline;overflow:visible;visibility:visible;opacity:1;isolation:auto;mix-blend-mode:normal;color-interpolation:sRGB;color-interpolation-filters:linearRGB;solid-color:#000000;solid-opacity:1;fill:#f4f4f4;fill-opacity:1;fill-rule:nonzero;stroke:none;stroke-width:3.07403;stroke-linecap:butt;stroke-linejoin:miter;stroke-miterlimit:4;stroke-dasharray:none;stroke-dashoffset:0;stroke-opacity:1;color-rendering:auto;image-rendering:auto;shape-rendering:auto;text-rendering:auto;enable-background:accumulate"
     d="m 58.76005,242.3936 c 0,4.97828 4.03634,9.01462 9.01462,9.01462 h 21.38635 c 4.97827,0 9.01462,-4.03634 9.01462,-9.01462 v -20.11224 c 0,-4.97827 -4.03635,-9.01462 -9.01462,-9.01462 H 67.77467 c -4.97828,0 -9.01462,4.03635 -9.01462,9.01462 z m 1.83986,0 v -20.11224 c 0,-3.99087 3.18388,-7.17476 7.17476,-7.17476 h 21.38635 c 3.99087,0 7.17476,3.18389 7.17476,7.17476 v 20.11224 c 0,3.99088 -3.18389,7.17476 -7.17476,7.17476 H 67.77467 c -3.99088,0 -7.17476,-3.18388 -7.17476,-7.17476 z"
     id="rect4179-31-1-4"
     inkscape:connector-curvature="0" /><path
     style="color:#000000;font-style:normal;font-variant:normal;font-weight:normal;font-stretch:normal;font-size:medium;line-height:normal;font-family:sans-serif;text-indent:0;text-align:start;text-decoration:none;text-decoration-line:none;text-decoration-style:solid;text-decoration-color:#000000;letter-spacing:normal;word-spacing:normal;text-transform:none;writing-mode:lr-tb;direction:ltr;baseline-shift:baseline;text-anchor:start;white-space:normal;clip-rule:nonzero;display:inline;overflow:visible;visibility:visible;opacity:1;isolation:auto;mix-blend-mode:normal;color-interpolation:sRGB;color-interpolation-filters:linearRGB;solid-color:#000000;solid-opacity:1;fill:#f4f4f4;fill-opacity:1;fill-rule:nonzero;stroke:none;stroke-width:3.07403;stroke-linecap:butt;stroke-linejoin:miter;stroke-miterlimit:4;stroke-dasharray:none;stroke-dashoffset:0;stroke-opacity:1;color-rendering:auto;image-rendering:auto;shape-rendering:auto;text-rendering:auto;enable-background:accumulate"
     d="m 58.76005,286.47292 c 0,4.97829 4.03634,9.01462 9.01462,9.01462 h 21.38635 c 4.97827,0 9.01462,-4.03633 9.01462,-9.01462 v -20.11224 c 0,-4.97827 -4.03635,-9.01462 -9.01462,-9.01462 H 67.77467 c -4.97828,0 -9.01462,4.03635 -9.01462,9.01462 z m 1.83986,0 v -20.11224 c 0,-3.99087 3.18388,-7.17476 7.17476,-7.17476 h 21.38635 c 3.99087,0 7.17476,3.18389 7.17476,7.17476 v 20.11224 c 0,3.99088 -3.18389,7.17476 -7.17476,7.17476 H 67.77467 c -3.99088,0 -7.17476,-3.18388 -7.17476,-7.17476 z"
     id="rect4179-31-1-8"
     inkscape:connector-curvature="0" /><path
     style="color:#000000;font-style:normal;font-variant:normal;font-weight:normal;font-stretch:normal;font-size:medium;line-height:normal;font-family:sans-serif;text-indent:0;text-align:start;text-decoration:none;text-decoration-line:none;text-decoration-style:solid;text-decoration-color:#000000;letter-spacing:normal;word-spacing:normal;text-transform:none;writing-mode:lr-tb;direction:ltr;baseline-shift:baseline;text-anchor:start;white-space:normal;clip-rule:nonzero;display:inline;overflow:visible;visibility:visible;opacity:1;isolation:auto;mix-blend-mode:normal;color-interpolation:sRGB;color-interpolation-filters:linearRGB;solid-color:#000000;solid-opacity:1;fill:#f4f4f4;fill-opacity:1;fill-rule:nonzero;stroke:none;stroke-width:3.07403;stroke-linecap:butt;stroke-linejoin:miter;stroke-miterlimit:4;stroke-dasharray:none;stroke-dashoffset:0;stroke-opacity:1;color-rendering:auto;image-rendering:auto;shape-rendering:auto;text-rendering:auto;enable-background:accumulate"
     d="m 58.51285,330.14893 c 0,4.97828 4.03635,9.01462 9.01462,9.01462 h 21.38635 c 4.97828,0 9.01462,-4.03634 9.01462,-9.01462 v -20.11224 c 0,-4.97827 -4.03634,-9.01462 -9.01462,-9.01462 H 67.52747 c -4.97827,0 -9.01462,4.03635 -9.01462,9.01462 z m 1.83986,0 v -20.11224 c 0,-3.99087 3.18389,-7.17476 7.17476,-7.17476 h 21.38635 c 3.99088,0 7.17476,3.18389 7.17476,7.17476 v 20.11224 c 0,3.99088 -3.18388,7.17476 -7.17476,7.17476 H 67.52747 c -3.99087,0 -7.17476,-3.18388 -7.17476,-7.17476 z"
     id="rect4179-31-1-2"
     inkscape:connector-curvature="0" /><path
     style="color:#000000;font-style:normal;font-variant:normal;font-weight:normal;font-stretch:normal;font-size:medium;line-height:normal;font-family:sans-serif;text-indent:0;text-align:start;text-decoration:none;text-decoration-line:none;text-decoration-style:solid;text-decoration-color:#000000;letter-spacing:normal;word-spacing:normal;text-transform:none;writing-mode:lr-tb;direction:ltr;baseline-shift:baseline;text-anchor:start;white-space:normal;clip-rule:nonzero;display:inline;overflow:visible;visibility:visible;opacity:1;isolation:auto;mix-blend-mode:normal;color-interpolation:sRGB;color-interpolation-filters:linearRGB;solid-color:#000000;solid-opacity:1;fill:#f4f4f4;fill-opacity:1;fill-rule:nonzero;stroke:none;stroke-width:3.07403;stroke-linecap:butt;stroke-linejoin:miter;stroke-miterlimit:4;stroke-dasharray:none;stroke-dashoffset:0;stroke-opacity:1;color-rendering:auto;image-rendering:auto;shape-rendering:auto;text-rendering:auto;enable-background:accumulate"
     d="m 14.01718,286.22572 c 0,4.97828 4.03635,9.01463 9.01463,9.01463 h 21.38635 c 4.97827,0 9.01462,-4.03635 9.01462,-9.01463 v -20.11224 c 0,-4.97827 -4.03635,-9.01462 -9.01462,-9.01462 H 23.03181 c -4.97828,0 -9.01463,4.03635 -9.01463,9.01462 z m 1.83987,0 v -20.11224 c 0,-3.99087 3.18388,-7.17475 7.17476,-7.17475 h 21.38635 c 3.99087,0 7.17476,3.18388 7.17476,7.17475 v 20.11224 c 0,3.99088 -3.18389,7.17476 -7.17476,7.17476 H 23.03181 c -3.99088,0 -7.17476,-3.18388 -7.17476,-7.17476 z"
     id="rect4179-31-1-64"
     inkscape:connector-curvature="0" /><path
     style="color:#000000;font-style:normal;font-variant:normal;font-weight:normal;font-stretch:normal;font-size:medium;line-height:normal;font-family:sans-serif;text-indent:0;text-align:start;text-decoration:none;text-decoration-line:none;text-decoration-style:solid;text-decoration-color:#000000;letter-spacing:normal;word-spacing:normal;text-transform:none;writing-mode:lr-tb;direction:ltr;baseline-shift:baseline;text-anchor:start;white-space:normal;clip-rule:nonzero;display:inline;overflow:visible;visibility:visible;opacity:1;isolation:auto;mix-blend-mode:normal;color-interpolation:sRGB;color-interpolation-filters:linearRGB;solid-color:#000000;solid-opacity:1;fill:#f4f4f4;fill-opacity:1;fill-rule:nonzero;stroke:none;stroke-width:3.07403;stroke-linecap:butt;stroke-linejoin:miter;stroke-miterlimit:4;stroke-dasharray:none;stroke-dashoffset:0;stroke-opacity:1;color-rendering:auto;image-rendering:auto;shape-rendering:auto;text-rendering:auto;enable-background:accumulate"
     d="m 14.01719,242.3936 c 0,4.97828 4.03634,9.01462 9.01462,9.01462 h 21.38635 c 4.97827,0 9.01462,-4.03634 9.01462,-9.01462 v -20.11224 c 0,-4.97828 -4.03635,-9.01463 -9.01462,-9.01463 H 23.03181 c -4.97828,0 -9.01462,4.03635 -9.01462,9.01463 z m 1.83986,0 v -20.11224 c 0,-3.99088 3.18388,-7.17476 7.17476,-7.17476 h 21.38635 c 3.99087,0 7.17476,3.18388 7.17476,7.17476 v 20.11224 c 0,3.99087 -3.18389,7.17475 -7.17476,7.17475 H 23.03181 c -3.99088,0 -7.17476,-3.18388 -7.17476,-7.17475 z"
     id="rect4179-31-1-84"
     inkscape:connector-curvature="0" /><path
     style="color:#000000;font-style:normal;font-variant:normal;font-weight:normal;font-stretch:normal;font-size:medium;line-height:normal;font-family:sans-serif;text-indent:0;text-align:start;text-decoration:none;text-decoration-line:none;text-decoration-style:solid;text-decoration-color:#000000;letter-spacing:normal;word-spacing:normal;text-transform:none;writing-mode:lr-tb;direction:ltr;baseline-shift:baseline;text-anchor:start;white-space:normal;clip-rule:nonzero;display:inline;overflow:visible;visibility:visible;opacity:1;isolation:auto;mix-blend-mode:normal;color-interpolation:sRGB;color-interpolation-filters:linearRGB;solid-color:#000000;solid-opacity:1;fill:#f4f4f4;fill-opacity:1;fill-rule:nonzero;stroke:none;stroke-width:3.07403;stroke-linecap:butt;stroke-linejoin:miter;stroke-miterlimit:4;stroke-dasharray:none;stroke-dashoffset:0;stroke-opacity:1;color-rendering:auto;image-rendering:auto;shape-rendering:auto;text-rendering:auto;enable-background:accumulate"
     d="m 13.52279,200.12272 c 0,4.97828 4.03635,9.01463 9.01462,9.01463 h 21.38635 c 4.97828,0 9.01463,-4.03635 9.01463,-9.01463 v -20.11224 c 0,-4.97827 -4.03635,-9.01462 -9.01463,-9.01462 H 22.53741 c -4.97827,0 -9.01462,4.03635 -9.01462,9.01462 z m 1.83986,0 v -20.11224 c 0,-3.99088 3.18389,-7.17476 7.17476,-7.17476 h 21.38635 c 3.99088,0 7.17476,3.18388 7.17476,7.17476 v 20.11224 c 0,3.99088 -3.18388,7.17476 -7.17476,7.17476 H 22.53741 c -3.99087,0 -7.17476,-3.18388 -7.17476,-7.17476 z"
     id="rect4179-31-1-50"
     inkscape:connector-curvature="0" /><path
     style="color:#000000;font-style:normal;font-variant:normal;font-weight:normal;font-stretch:normal;font-size:medium;line-height:normal;font-family:sans-serif;text-indent:0;text-align:start;text-decoration:none;text-decoration-line:none;text-decoration-style:solid;text-decoration-color:#000000;letter-spacing:normal;word-spacing:normal;text-transform:none;writing-mode:lr-tb;direction:ltr;baseline-shift:baseline;text-anchor:start;white-space:normal;clip-rule:nonzero;display:inline;overflow:visible;visibility:visible;opacity:1;isolation:auto;mix-blend-mode:normal;color-interpolation:sRGB;color-interpolation-filters:linearRGB;solid-color:#000000;solid-opacity:1;fill:#f3f3f3;fill-opacity:0.866667;fill-rule:nonzero;stroke:none;stroke-width:1.83086;stroke-linecap:butt;stroke-linejoin:miter;stroke-miterlimit:4;stroke-dasharray:none;stroke-dashoffset:0;stroke-opacity:1;color-rendering:auto;image-rendering:auto;shape-rendering:auto;text-rendering:auto;enable-background:accumulate"
     d="m 77.97852,9.3261719 c -22.21257,0 -40.24024,18.0257191 -40.24024,40.2382811 0,22.212562 18.02767,40.240235 40.24024,40.240235 22.21256,0 40.23828,-18.027673 40.23828,-40.240235 0,-22.212562 -18.02572,-40.2382811 -40.23828,-40.2382811 z m 0,1.8300781 c 21.22309,0 38.4082,17.185111 38.4082,38.408203 0,21.223092 -17.18511,38.408203 -38.4082,38.408203 -21.2231,0 -38.40821,-17.185111 -38.40821,-38.408203 0,-21.223092 17.18511,-38.408203 38.40821,-38.408203 z"
     id="path4165"
     inkscape:connector-curvature="0" /><path
     style="color:#000000;font-style:normal;font-variant:normal;font-weight:normal;font-stretch:normal;font-size:medium;line-height:normal;font-family:sans-serif;text-indent:0;text-align:start;text-decoration:none;text-decoration-line:none;text-decoration-style:solid;text-decoration-color:#000000;letter-spacing:normal;word-spacing:normal;text-transform:none;writing-mode:lr-tb;direction:ltr;baseline-shift:baseline;text-anchor:start;white-space:normal;clip-rule:nonzero;display:inline;overflow:visible;visibility:visible;opacity:1;isolation:auto;mix-blend-mode:normal;color-interpolation:sRGB;color-interpolation-filters:linearRGB;solid-color:#000000;solid-opacity:1;fill:#f3f3f3;fill-opacity:0.866667;fill-rule:nonzero;stroke:none;stroke-width:1.5556;stroke-linecap:butt;stroke-linejoin:miter;stroke-miterlimit:4;stroke-dasharray:none;stroke-dashoffset:0;stroke-opacity:1;color-rendering:auto;image-rendering:auto;shape-rendering:auto;text-rendering:auto;enable-background:accumulate"
     d="m 78.35547,14.998047 c -18.87299,0 -34.18945,15.316463 -34.18945,34.189453 0,18.87299 15.31646,34.189453 34.18945,34.189453 18.87299,0 34.18945,-15.316463 34.18945,-34.189453 0,-18.87299 -15.31646,-34.189453 -34.18945,-34.189453 z m 0,1.554687 c 18.03228,0 32.63476,14.602484 32.63476,32.634766 0,18.032282 -14.60248,32.632812 -32.63476,32.632812 -18.03228,0 -32.63281,-14.60053 -32.63281,-32.632812 0,-18.032282 14.60053,-32.634766 32.63281,-32.634766 z"
     id="path4165-7"
     inkscape:connector-curvature="0" /><path
     style="color:#000000;font-style:normal;font-variant:normal;font-weight:normal;font-stretch:normal;font-size:medium;line-height:normal;font-family:sans-serif;text-indent:0;text-align:start;text-decoration:none;text-decoration-line:none;text-decoration-style:solid;text-decoration-color:#000000;letter-spacing:normal;word-spacing:normal;text-transform:none;writing-mode:lr-tb;direction:ltr;baseline-shift:baseline;text-anchor:start;white-space:normal;clip-rule:nonzero;display:inline;overflow:visible;visibility:visible;opacity:1;isolation:auto;mix-blend-mode:normal;color-interpolation:sRGB;color-interpolation-filters:linearRGB;solid-color:#000000;solid-opacity:1;fill:#f3f3f3;fill-opacity:0.866667;fill-rule:evenodd;stroke:none;stroke-width:1.5;stroke-linecap:butt;stroke-linejoin:miter;stroke-miterlimit:4;stroke-dasharray:none;stroke-dashoffset:0;stroke-opacity:1;color-rendering:auto;image-rendering:auto;shape-rendering:auto;text-rendering:auto;enable-background:accumulate"
     d="m 15.39062,99.207031 v 1.499999 h 121.09766 v 44.95508 h 9.08984 l 0.41016,112.07227 -0.41211,33.45507 v 51.63672 h 1.5 v -51.62695 l 0.41211,-33.45703 -0.41601,-113.58008 h -9.08399 V 99.207031 Z"
     id="path4184"
     inkscape:connector-curvature="0" /></svg>
