<?xml version="1.0" encoding="UTF-8" standalone="no"?>
<!-- Generator: Adobe Illustrator 13.0.0, SVG Export Plug-In . SVG Version: 6.00 Build 14948)  -->

<svg
   version="1.1"
   id="Layer_3"
   x="0px"
   y="0px"
   width="350"
   height="350.26001"
   viewBox="0 0 349.99999 350.26"
   enable-background="new 0 0 598.189 350.26"
   xml:space="preserve"
   sodipodi:docname="ags.svg"
   inkscape:version="1.2.2 (732a01da63, 2022-12-09)"
   xmlns:inkscape="http://www.inkscape.org/namespaces/inkscape"
   xmlns:sodipodi="http://sodipodi.sourceforge.net/DTD/sodipodi-0.dtd"
   xmlns="http://www.w3.org/2000/svg"
   xmlns:svg="http://www.w3.org/2000/svg"><defs
   id="defs13" /><sodipodi:namedview
   id="namedview11"
   pagecolor="#000000"
   bordercolor="#111111"
   borderopacity="1"
   inkscape:showpageshadow="0"
   inkscape:pageopacity="0"
   inkscape:pagecheckerboard="1"
   inkscape:deskcolor="#d1d1d1"
   showgrid="false"
   inkscape:zoom="2.0445042"
   inkscape:cx="299.58363"
   inkscape:cy="175.10357"
   inkscape:window-width="1920"
   inkscape:window-height="1009"
   inkscape:window-x="-8"
   inkscape:window-y="-8"
   inkscape:window-maximized="1"
   inkscape:current-layer="Layer_3" />
<path
   fill="#f4f4f4"
   d="m 149.694,335.893 c -9.292,-1.254 -16.413,-8.771 -23.026,-17.755 v 0 c -6.609,-9.034 -12.749,-19.825 -19.404,-28.344 v 0 c -3.337,-4.287 -10.311,-15.482 -19.251,-30.418 v 0 C 79.09,244.46 68.28,225.898 57.524,207.194 v 0 C 36.009,169.775 14.737,131.837 9.216,121.341 v 0 c -0.749,-1.434 -1.18,-2.268 -1.411,-2.849 v 0 l 1.868,-0.719 1.866,-0.717 c 0.071,0.218 1.029,2.108 2.511,4.848 v 0 c 1.499,2.784 3.591,6.599 6.148,11.219 v 0 c 5.117,9.238 12.099,21.687 19.947,35.542 v 0 c 15.696,27.713 34.857,61.061 49.495,85.63 v 0 c 9.739,16.356 17.551,28.915 20.777,33.033 v 0 c 6.905,8.856 13.055,19.68 19.478,28.445 v 0 c 6.418,8.814 13.072,15.283 20.295,16.146 v 0 c 0.379,0.047 0.845,0.076 1.383,0.076 v 0 c 7.037,0.042 25.024,-4.686 45.034,-11.24 v 0 c 20.075,-6.548 42.464,-14.905 59.221,-22.072 v 0 c 11.146,-4.759 19.885,-9.078 23.461,-11.732 v 0 c 4.268,-3.148 6.838,-5.991 8.37,-8.934 v 0 c 1.53,-2.945 2.103,-6.096 2.106,-10.112 v 0 c 0.011,-6.603 -1.644,-15.375 -2.805,-27.897 v 0 C 284.442,212.687 261.125,74.419 258.582,58.761 v 0 c -1.87,-11.978 -1.623,-23.052 -5.079,-28.273 v 0 c -1.121,-1.746 -2.482,-2.909 -4.597,-3.628 v 0 c -6.931,-2.322 -18.682,-3.609 -32.979,-3.599 v 0 c -29.925,-0.006 -71.189,5.492 -105.598,17.157 v 0 C 84.911,49.029 62.593,61.551 45.815,73.02 v 0 C 29.065,84.446 17.736,94.981 14.653,99.067 v 0 c -1.989,2.606 -3.375,4.532 -4.203,6.071 v 0 c -0.828,1.553 -1.119,2.626 -1.127,3.891 v 0 c -0.017,1.748 0.708,4.14 2.215,8.028 v 0 l -1.866,0.717 -1.868,0.719 C 6.295,114.54 5.337,111.815 5.323,109.029 v 0 c -0.011,-1.998 0.568,-3.887 1.61,-5.792 v 0 c 1.042,-1.92 2.526,-3.949 4.538,-6.592 v 0 C 15.166,91.83 26.513,81.389 43.559,69.718 v 0 C 60.58,58.088 83.185,45.396 109.045,36.632 v 0 C 144.01,24.79 185.528,19.267 215.927,19.26 v 0 c 14.556,0.01 26.519,1.245 34.243,3.807 v 0 c 2.973,0.975 5.213,2.884 6.714,5.284 v 0 c 1.512,2.4 2.375,5.241 2.987,8.362 v 0 c 1.205,6.24 1.408,13.728 2.66,21.41 v 0 c 2.542,15.703 25.842,153.747 28.411,181.52 v 0 c 1.134,12.354 2.812,21.026 2.823,28.265 v 0 c 0.003,4.384 -0.653,8.306 -2.562,11.961 v 0 c -1.903,3.655 -4.978,6.94 -9.543,10.305 v 0 c -6.316,4.616 -22.945,11.988 -42.725,19.693 v 0 c -19.737,7.67 -42.42,15.512 -60.242,20.576 v 0 c -11.918,3.371 -21.529,5.532 -27.122,5.555 v 0 c -0.675,-10e-4 -1.294,-0.036 -1.877,-0.105 z"
   id="path2" />
<path
   fill="#f4f4f4"
   d="m 290.459,250.971 c 6.034,-0.586 9.69,-3.927 12.979,-8.401 v 0 c 3.263,-4.452 5.781,-9.89 9.484,-13.861 v 0 l 0.17,-0.181 0.21,-0.132 c 10.298,-6.587 16.627,-13.463 20.468,-21.313 v 0 c 3.839,-7.854 5.216,-16.815 5.216,-27.631 v 0 c 0.005,-14.542 -2.508,-32.337 -4.563,-54.714 v 0 c -1.547,-16.899 -6.021,-27.033 -11.958,-32.905 v 0 c -5.929,-5.866 -13.529,-7.821 -22.195,-7.834 v 0 c -10.693,-0.013 -22.73,3.095 -33.827,5.227 v 0 l -0.752,-3.929 c 10.928,-2.08 23.142,-5.288 34.579,-5.298 v 0 c 9.221,-0.015 18.125,2.159 25.01,8.995 v 0 c 6.88,6.831 11.532,17.974 13.128,35.38 v 0 c 2.037,22.277 4.573,40.085 4.579,55.08 v 0 c 0,11.135 -1.412,20.772 -5.622,29.386 v 0 c -4.177,8.562 -11.089,15.981 -21.697,22.79 v 0 c -3.005,3.248 -5.54,8.512 -8.994,13.295 v 0 c -3.492,4.85 -8.313,9.35 -15.838,10.034 v 0 z"
   id="path4" />
<path
   fill="#f4f4f4"
   d="m 283.188,212.673 c 1.442,-5.841 6.715,-9.383 12.3,-12.494 v 0 c 5.641,-3.088 11.938,-5.766 16.043,-8.856 v 0 c 2.762,-2.068 4.376,-4.154 4.681,-6.437 v 0 c 0.692,-5.048 1.528,-12.293 1.528,-20.486 v 0 c 0.005,-11.601 -1.686,-25.069 -7.686,-36.817 v 0 c -2.718,-5.329 -5.39,-8.73 -7.795,-10.737 v 0 c -2.418,-2.011 -4.496,-2.657 -6.351,-2.666 v 0 c -3.271,-0.038 -6.377,2.296 -8.353,4.83 v 0 c -2.275,2.875 -3.366,4.691 -5.427,6.327 v 0 c -2.072,1.604 -4.639,2.598 -9.547,4.097 v 0 l -1.166,-3.824 c 4.839,-1.466 6.932,-2.38 8.25,-3.425 v 0 c 1.33,-1.013 2.359,-2.588 4.744,-5.646 v 0 c 2.42,-3.062 6.346,-6.321 11.498,-6.358 v 0 c 2.869,-0.008 5.952,1.103 8.917,3.597 v 0 c 2.977,2.493 5.903,6.337 8.791,11.987 v 0 c 6.416,12.589 8.118,26.659 8.123,38.635 v 0 c 0,8.464 -0.862,15.896 -1.567,21.03 v 0 c -0.396,2.881 -1.971,5.268 -4.021,7.227 v 0 c -2.063,1.973 -4.642,3.611 -7.411,5.148 v 0 c -5.53,3.055 -11.883,5.743 -16.249,8.934 v 0 c -2.93,2.128 -4.842,4.368 -5.406,6.845 v 0 z m -10.607,-83.238 c 10e-4,0 0.002,0 0.002,-0.001 v 0 0.001 z"
   id="path6" />
<path
   fill="#f4f4f4"
   d="m 138.404,327.919 c 0.09,-3.85 2.727,-7.681 6.76,-11.716 v 0 c 4.071,-3.998 9.731,-8.042 16.38,-11.414 v 0 c 16.733,-8.437 79.148,-29.74 101.657,-33.458 v 0 c 5.059,-0.827 9.442,-1.222 13.145,-1.224 v 0 c 4.305,0.009 7.68,0.51 10.229,1.639 v 0 c 2.519,1.052 4.432,3.223 4.394,5.893 v 0 c -0.033,2.466 -1.343,4.767 -3.499,7.179 v 0 l -2.968,-2.682 c 1.853,-2.026 2.498,-3.661 2.467,-4.497 v 0 c -0.04,-0.803 -0.302,-1.397 -2.026,-2.242 v 0 c -1.693,-0.769 -4.629,-1.297 -8.596,-1.286 v 0 c -3.417,-0.003 -7.604,0.368 -12.499,1.169 v 0 c -21.566,3.488 -84.595,24.985 -100.495,33.078 v 0 c -6.311,3.193 -11.675,7.052 -15.384,10.697 v 0 c -3.751,3.61 -5.656,7.169 -5.566,8.864 v 0 c 0.05,0.863 0.206,1.206 0.987,1.756 v 0 0.002 l -2.142,3.378 c -1.832,-1.105 -2.892,-3.137 -2.844,-5.136 z"
   id="path8" />
</svg>
