<?xml version="1.0" encoding="UTF-8" standalone="no"?>
<!-- Generator: Adobe Illustrator 13.0.0, SVG Export Plug-In . SVG Version: 6.00 Build 14948)  -->

<svg
   version="1.2"
   id="Layer_3"
   x="0px"
   y="0px"
   width="250"
   height="350.26001"
   viewBox="0 0 249.99999 350.26"
   xml:space="preserve"
   sodipodi:docname="amiga.svg"
   inkscape:version="1.2.2 (732a01da63, 2022-12-09)"
   xmlns:inkscape="http://www.inkscape.org/namespaces/inkscape"
   xmlns:sodipodi="http://sodipodi.sourceforge.net/DTD/sodipodi-0.dtd"
   xmlns="http://www.w3.org/2000/svg"
   xmlns:svg="http://www.w3.org/2000/svg"
   xmlns:rdf="http://www.w3.org/1999/02/22-rdf-syntax-ns#"
   xmlns:cc="http://creativecommons.org/ns#"
   xmlns:dc="http://purl.org/dc/elements/1.1/"
   xmlns:ns="&amp;ns_sfw;"><defs
   id="defs282" /><sodipodi:namedview
   id="namedview280"
   pagecolor="#000000"
   bordercolor="#111111"
   borderopacity="1"
   inkscape:showpageshadow="0"
   inkscape:pageopacity="0"
   inkscape:pagecheckerboard="1"
   inkscape:deskcolor="#d1d1d1"
   showgrid="false"
   inkscape:zoom="2.0445042"
   inkscape:cx="299.58363"
   inkscape:cy="175.10357"
   inkscape:window-width="1920"
   inkscape:window-height="1009"
   inkscape:window-x="-8"
   inkscape:window-y="-8"
   inkscape:window-maximized="1"
   inkscape:current-layer="Layer_3" />
<metadata
   id="metadata55">
	<rdf:RDF>
		<cc:Work
   rdf:about="">
			<dc:format>image/svg+xml</dc:format>
			<dc:type
   rdf:resource="http://purl.org/dc/dcmitype/StillImage" />
			
		</cc:Work>
	</rdf:RDF>
	<ns:sfw>
		<ns:slices />
		<ns:sliceSourceBounds
   x="843.021"
   y="371.557"
   width="232.228"
   height="337.912"
   bottomLeftOrigin="true" />
	</ns:sfw>
</metadata>
<path
   id="line3"
   fill="#f4f4f4"
   d="m 71.026,35.035 v 1.544 h 109.522 v -1.544 z" />
<path
   id="path5"
   fill="#f4f4f4"
   d="m 12.994,91.859 v 206.096 c 0,22.536 18.268,40.828 40.804,40.828 h 143.837 c 22.533,0 40.827,-18.292 40.827,-40.828 V 91.983 h -1.545 v 205.972 c 0,21.703 -17.583,39.284 -39.282,39.284 H 53.798 c -21.703,0 -39.261,-17.581 -39.261,-39.28 V 91.863 h -1.544 z" />
<path
   id="path7"
   fill="#f4f4f4"
   d="m 49.309,128.537 c -10.8,0 -19.569,8.769 -19.569,19.569 v 154.478 c 0,10.801 8.769,19.569 19.569,19.569 H 202.15 c 10.536,0 19.081,-8.361 19.497,-18.797 h 0.072 v -0.772 -154.478 c 0,-10.8 -8.771,-19.569 -19.57,-19.569 z m 0,1.544 H 202.15 c 9.966,0 18.024,8.06 18.024,18.025 v 153.706 0.772 c 0,9.967 -8.058,18.025 -18.024,18.025 H 49.309 c -9.965,0 -18.025,-8.059 -18.025,-18.025 V 148.106 c -10e-4,-9.965 8.06,-18.025 18.025,-18.025 z" />
<path
   id="circle9"
   fill="#f4f4f4"
   d="m 53.29,31.367 c -24.114,0 -43.675,19.561 -43.675,43.675 0,24.115 19.561,43.675 43.676,43.675 24.115,0 43.675,-19.56 43.675,-43.675 0,-24.115 -19.56,-43.675 -43.676,-43.675 z m 0,1.545 c 23.279,0 42.13,18.851 42.13,42.13 0,23.28 -18.851,42.131 -42.13,42.131 -23.28,0 -42.13,-18.851 -42.13,-42.131 0,-23.28 18.85,-42.13 42.13,-42.13 z" />
<path
   id="circle11"
   fill="#f4f4f4"
   d="m 198.169,31.367 c -24.114,0 -43.675,19.561 -43.675,43.675 0,24.115 19.561,43.675 43.675,43.675 24.112,0 43.674,-19.56 43.674,-43.675 0,-24.115 -19.562,-43.675 -43.674,-43.675 z m 0,1.545 c 23.279,0 42.13,18.851 42.13,42.13 0,23.28 -18.851,42.131 -42.13,42.131 -23.28,0 -42.131,-18.851 -42.131,-42.131 0,-23.28 18.851,-42.13 42.131,-42.13 z" />
<path
   id="path13"
   fill="#f4f4f4"
   d="m 9.615,75.621 v 223.778 c 0,24.114 19.561,43.674 43.675,43.674 h 144.874 c 24.111,0 43.673,-19.56 43.673,-43.674 V 76.825 h -1.543 v 222.574 c 0,23.28 -18.854,42.131 -42.13,42.131 H 53.29 c -23.277,0 -42.129,-18.849 -42.129,-42.128 V 75.622 H 9.617 Z" />
<path
   id="circle15"
   fill="#f4f4f4"
   d="m 125.727,181.669 c -32.917,0 -59.627,26.709 -59.627,59.625 0,32.916 26.709,59.625 59.627,59.625 32.915,0 59.6,-26.709 59.6,-59.625 0,-32.916 -26.685,-59.625 -59.6,-59.625 z m 0,1.544 c 32.08,0 58.055,25.999 58.055,58.081 0,32.082 -25.975,58.08 -58.055,58.08 -32.084,0 -58.083,-25.998 -58.083,-58.08 0,-32.082 25.999,-58.081 58.083,-58.081 z" />
<path
   id="circle17"
   fill="#f4f4f4"
   d="m 125.727,198.54 c -23.608,0 -42.76,19.151 -42.76,42.76 0,23.605 19.152,42.757 42.76,42.757 23.605,0 42.757,-19.151 42.757,-42.757 -0.001,-23.609 -19.152,-42.76 -42.757,-42.76 z m 0,1.544 c 22.771,0 41.213,18.443 41.213,41.216 0,22.771 -18.442,41.213 -41.213,41.213 -22.774,0 -41.215,-18.441 -41.215,-41.213 -0.001,-22.773 18.44,-41.216 41.215,-41.216 z" />
<g
   id="g19"
   transform="translate(-172)">
	<path
   fill="#f4f4f4"
   d="m 220.186,198.782 c -3.588,0 -6.495,-2.908 -6.495,-6.494 v 0 l -0.001,-42.093 c 0.001,-3.586 2.908,-6.492 6.496,-6.494 v 0 h 42.09 c 3.585,0.002 6.492,2.909 6.494,6.494 v 0 c -0.019,3.645 -2.441,5.818 -2.475,5.861 v 0 L 226.8,195.551 h 0.28 l -1.652,1.368 c -1.083,0.938 -2.217,1.866 -5.018,1.866 v 0 c -0.074,0 -0.15,-0.002 -0.224,-0.003 z m -4.952,-48.587 v 42.093 c 0.004,2.734 2.216,4.945 4.951,4.951 v 0 c 2.732,-0.052 3.012,-0.524 4.228,-1.487 v 0 l 40.817,-40.815 c -0.003,-0.002 0.1,-0.089 0.288,-0.305 v 0 c 0.188,-0.216 0.442,-0.541 0.696,-0.956 v 0 c 0.509,-0.834 1.013,-2.025 1.011,-3.481 v 0 c -0.005,-2.731 -2.217,-4.943 -4.949,-4.949 v 0 h -42.09 c -2.735,0.006 -4.947,2.216 -4.952,4.949 z m 10.246,46.675 -0.545,-0.547 z"
   id="path258" />
	<path
   fill="#f4f4f4"
   d="m 370.031,196.919 0.493,-0.596 0.545,-0.547 -0.545,0.547 -0.493,0.596 L 370,196.892 329.189,156.08 c -0.06,-0.065 -2.482,-2.239 -2.501,-5.882 v 0 c 0,-3.587 2.906,-6.494 6.495,-6.496 v 0 h 42.093 c 3.584,0.002 6.49,2.907 6.49,6.496 v 0 l 0.002,42.093 c -0.002,3.585 -2.908,6.492 -6.492,6.492 v 0 c -0.078,0.001 -0.15,0.003 -0.222,0.003 v 0 c -2.803,-0.001 -3.942,-0.928 -5.023,-1.867 z m 5.245,0.318 c 2.73,-0.004 4.941,-2.215 4.948,-4.947 v 0 l -0.003,-42.093 c -0.004,-2.735 -2.213,-4.946 -4.945,-4.951 v 0 h -42.093 c -2.736,0.005 -4.945,2.216 -4.949,4.951 v 0 c -0.008,2.174 1.138,3.783 1.706,4.434 v 0 c 0.187,0.216 0.286,0.306 0.315,0.331 v 0 l 40.789,40.791 c 1.217,0.962 1.496,1.435 4.232,1.484 z"
   id="path260" />
</g>
<path
   id="circle25"
   fill="#f4f4f4"
   d="m 53.29,42.998 c -17.683,0 -32.021,14.361 -32.021,32.044 0,17.684 14.337,32.044 32.021,32.044 17.684,0 32.044,-14.36 32.044,-32.044 0,-17.684 -14.36,-32.044 -32.044,-32.044 z m 0,1.544 c 16.848,0 30.5,13.652 30.5,30.5 0,16.848 -13.652,30.5 -30.5,30.5 -16.849,0 -30.475,-13.652 -30.475,-30.5 0,-16.848 13.625,-30.5 30.475,-30.5 z" />
<path
   id="circle27"
   fill="#f4f4f4"
   d="m 198.169,42.998 c -17.684,0 -32.046,14.361 -32.046,32.044 0,17.684 14.362,32.044 32.046,32.044 17.684,0 32.021,-14.36 32.021,-32.044 0,-17.684 -14.336,-32.044 -32.021,-32.044 z m 0,1.544 c 16.849,0 30.475,13.652 30.475,30.5 0,16.848 -13.626,30.5 -30.475,30.5 -16.85,0 -30.5,-13.652 -30.5,-30.5 0,-16.848 13.65,-30.5 30.5,-30.5 z" />
<path
   id="line29"
   fill="#f4f4f4"
   d="m 54.618,31.392 v 1.544 h 139.351 v -1.544 z" />
<path
   id="rect31"
   fill="#f4f4f4"
   d="m 117.332,5.162 v 0.772 5.454 0.771 h 0.772 15.395 0.772 V 11.388 5.934 5.162 h -0.772 -15.395 z m 1.543,1.544 h 13.851 v 3.909 h -13.851 z" />
<path
   id="rect33"
   fill="#f4f4f4"
   d="m 116.922,15.345 v 0.772 5.454 0.771 h 0.772 16.215 0.772 v -0.771 -5.454 -0.772 h -0.772 -16.215 z m 1.545,1.544 h 14.671 v 3.91 h -14.671 z" />
<path
   id="polyline35"
   fill="#f4f4f4"
   d="m 116.513,25.527 v 0.773 5.453 h 1.545 v -4.681 h 15.467 v 4.681 h 1.545 V 26.3 25.528 h -0.772 -17.012 -0.773 z" />
<g
   id="g37"
   transform="translate(-172)">
	<polygon
   fill="#f4f4f4"
   points="291.881,11.4 293.425,11.4 293.425,16.031 291.881,16.031 "
   id="polygon269" />
	<polygon
   fill="#f4f4f4"
   points="302.164,11.4 303.71,11.4 303.71,15.895 302.164,15.895 "
   id="polygon271" />
</g>
<g
   id="g43"
   transform="translate(-172)">
	<polygon
   fill="#f4f4f4"
   points="291.881,21.719 293.425,21.719 293.425,26.35 291.881,26.35 "
   id="polygon274" />
	<polygon
   fill="#f4f4f4"
   points="302.164,21.718 303.71,21.718 303.71,26.215 302.164,26.215 "
   id="polygon276" />
</g>
</svg>
