<?xml version="1.0" encoding="UTF-8" standalone="no"?>
<svg
   viewBox="0 0 391.985 175.611"
   version="1.1"
   id="svg221"
   sodipodi:docname="amigacd32.svg"
   width="391.98499"
   height="175.61099"
   inkscape:version="1.2.2 (732a01da63, 2022-12-09)"
   xmlns:inkscape="http://www.inkscape.org/namespaces/inkscape"
   xmlns:sodipodi="http://sodipodi.sourceforge.net/DTD/sodipodi-0.dtd"
   xmlns="http://www.w3.org/2000/svg"
   xmlns:svg="http://www.w3.org/2000/svg">
  <defs
     id="defs225" />
  <sodipodi:namedview
     id="namedview223"
     pagecolor="#000000"
     bordercolor="#111111"
     borderopacity="1"
     inkscape:showpageshadow="0"
     inkscape:pageopacity="0"
     inkscape:pagecheckerboard="1"
     inkscape:deskcolor="#d1d1d1"
     showgrid="false"
     inkscape:zoom="1.1018468"
     inkscape:cx="0"
     inkscape:cy="280.43827"
     inkscape:window-width="1920"
     inkscape:window-height="1009"
     inkscape:window-x="-8"
     inkscape:window-y="-8"
     inkscape:window-maximized="1"
     inkscape:current-layer="g556" />
  <linearGradient
     id="a"
     gradientUnits="userSpaceOnUse"
     x1="-103.2"
     y1="191.201"
     x2="272.81201"
     y2="191.201"
     gradientTransform="rotate(90,84.806,193.992)">
    <stop
       offset="0"
       stop-color="#545454"
       id="stop4" />
    <stop
       offset="1"
       stop-color="#3b3b3b"
       id="stop6" />
  </linearGradient>
  <linearGradient
     id="b"
     gradientUnits="userSpaceOnUse"
     x1="220.71899"
     y1="175.07899"
     x2="211.724"
     y2="151.093"
     gradientTransform="rotate(90,84.806,193.992)">
    <stop
       offset="0"
       stop-color="#383838"
       id="stop21" />
    <stop
       offset="1"
       stop-color="#242424"
       id="stop23" />
  </linearGradient>
  <linearGradient
     id="c"
     gradientUnits="userSpaceOnUse"
     x1="227.092"
     y1="206.174"
     x2="222.295"
     y2="186.386"
     gradientTransform="rotate(90,84.806,193.992)">
    <stop
       offset="0"
       stop-color="#383838"
       id="stop36" />
    <stop
       offset="1"
       stop-color="#242424"
       id="stop38" />
  </linearGradient>
  <g
     id="g556"
     transform="rotate(-90,106.15785,59.748204)"
     style="fill:none;stroke:#ffffff;stroke-opacity:1">
    <path
       d="m -6,149.992 c 0,34.746 4.617,72.765 9.373,102.105 3.828,23.618 7.704,41.346 9.666,49.258 3.324,13.403 7.295,24.796 8.095,26.235 2.114,3.8 5.734,7.211 8.845,10.194 7.499,7.192 18.889,6.146 18.889,6.146 0,0 13.492,-1.499 34.78,-4.797 21.288,-3.298 52.883,-15.591 52.883,-15.591 0,0 7.082,-1.799 13.079,-8.095 2.145,-2.253 8.178,-8.899 8.178,-16.341 v -28.933 -35.83 c 0,-5.697 -6.074,-9.002 -7.878,-10.044 -2.017,-1.165 -6.439,-2.906 -10.56,-2.249 -7.543,1.203 -15.884,6.182 -19.393,7.346 -4.155,1.378 -11.633,3.458 -14.909,4.358 a 1.517,1.517 0 0 1 -1.9,-1.208 c -1.376,-8.054 -7.207,-44.429 -7.207,-82.554 0,-38.125 5.831,-74.5 7.207,-82.554 a 1.517,1.517 0 0 1 1.9,-1.208 c 3.276,0.899 10.754,2.98 14.909,4.357 3.509,1.163 11.85,6.143 19.393,7.346 4.121,0.657 8.543,-1.083 10.56,-2.249 1.804,-1.042 7.878,-4.348 7.878,-10.044 V 29.81 0.877 c 0,-7.441 -6.032,-14.088 -8.178,-16.341 -5.997,-6.296 -13.079,-8.095 -13.079,-8.095 0,0 -31.594,-12.293 -52.882,-15.591 -21.288,-3.298 -34.78,-4.797 -34.78,-4.797 0,0 -11.39,-1.046 -18.89,6.147 -3.111,2.983 -6.731,6.394 -8.845,10.194 -0.8,1.439 -4.772,12.832 -8.095,26.235 C 11.077,6.541 7.202,24.269 3.373,47.887 -1.383,77.228 -6,115.246 -6,149.992 Z"
       fill="#323333"
       id="path2"
       style="fill:none;stroke:#ffffff;stroke-opacity:1" />
    <path
       d="m 141.247,310.051 c 7.526,-4.797 9.864,-15.291 9.864,-15.291 l 1.396,-23.986 0.196,-29.683 c 0,0 -0.393,-5.697 -4.59,-8.395 -4.197,-2.698 -8.292,-1.499 -8.292,-1.499 0,0 -9.749,3.419 -20.548,7.062 -7.033,2.372 -14.072,3.732 -20.032,5.531 -1.929,0.582 -5.106,-24.998 -7.045,-49.184 -1.817,-22.663 -2.549,-44.613 -2.549,-44.613 0,0 0.732,-21.95 2.549,-44.613 1.939,-24.186 5.116,-49.766 7.045,-49.184 5.96,1.799 12.999,3.158 20.032,5.531 10.799,3.643 20.548,7.062 20.548,7.062 0,0 4.095,1.199 8.292,-1.499 4.198,-2.698 4.59,-8.395 4.59,-8.395 L 152.507,29.212 151.111,5.226 c 0,0 -2.337,-10.494 -9.864,-15.291 -7.527,-4.797 -64.486,-22.894 -95.976,-22.894 -3.093,0 -8.698,0.878 -10.794,7.302 -6.535,20.024 -12.264,49.214 -15.291,67.162 -0.162,0.96 -0.327,1.945 -0.492,2.942 l -0.696,4.235 c -4.007,24.7 -8.706,59.604 -8.706,101.311 0,41.707 4.699,76.612 8.706,101.311 l 0.696,4.235 0.492,2.942 c 3.027,17.947 8.757,47.138 15.291,67.162 2.096,6.423 7.701,7.302 10.794,7.302 31.49,-10e-4 88.449,-18.097 95.976,-22.894 z m -44.17,-70.352 1.327,3.982 m -55.29,6.985 c 3.306,-0.245 6.781,-0.565 10.333,-0.98 m 0,-199.387 a 245.879,245.879 0 0 0 -10.333,-0.98"
       fill="#444544"
       id="path11"
       style="fill:none;stroke:#ffffff;stroke-opacity:1" />
    <circle
       cx="96.536003"
       cy="12.125999"
       r="26.311001"
       fill="#636363"
       id="circle15"
       style="fill:none;stroke:#ffffff;stroke-opacity:1" />
    <path
       d="m 157.789,0.877 h 2.916 c 0.839,0.029 1.326,0.438 1.349,1.349 l 0.648,58.617 c -0.07,0.963 -0.508,1.533 -1.373,1.649 h -3.541 V 0.877 Z m 0,298.23 h 2.916 c 0.839,-0.029 1.326,-0.438 1.349,-1.349 l 0.648,-58.616 c -0.07,-0.963 -0.508,-1.533 -1.373,-1.649 h -3.541 v 61.614 z"
       fill="#232423"
       id="path19"
       style="fill:none;stroke:#ffffff;stroke-opacity:1" />
    <path
       d="m 115.6,311.338 c 6.755,0 12.231,-5.476 12.231,-12.231 a 12.19,12.19 0 0 0 -0.957,-4.749 l -9.303,-31.218 c 0,-6.755 -5.476,-12.231 -12.23,-12.231 -6.754,0 -12.23,5.476 -12.23,12.231 0,1.843 0.419,3.584 1.149,5.151 l -0.008,0.008 9.244,32.549 0.012,-0.003 c 0.846,5.929 5.929,10.493 12.092,10.493 z"
       fill="url(#b)"
       id="path26"
       style="fill:none;stroke:#ffffff;stroke-opacity:1" />
    <circle
       cx="105.341"
       cy="263.14001"
       r="10.174"
       fill="#47deba"
       id="circle30"
       style="fill:none;stroke:#ffffff;stroke-opacity:1" />
    <circle
       cx="115.6"
       cy="299.10699"
       r="9.9069996"
       fill="#ffdf46"
       id="circle34"
       style="fill:none;stroke:#ffffff;stroke-opacity:1" />
    <path
       d="m 80.107,322.131 c 6.755,0 12.23,-5.476 12.23,-12.231 0,-2.039 -0.506,-3.957 -1.388,-5.647 l 0.004,-0.002 -6.844,-25.503 c 0.556,-1.58 0.861,-3.278 0.861,-5.048 0,-8.404 -6.813,-15.216 -15.216,-15.216 -8.403,0 -15.216,6.813 -15.216,15.216 0,4.807 2.231,9.09 5.711,11.879 l 7.776,26.137 c 0.173,1.16 0.505,2.265 0.98,3.294 l 0.02,0.067 0.01,-0.005 c 1.951,4.167 6.169,7.059 11.072,7.059 z"
       fill="url(#c)"
       id="path41"
       style="fill:none;stroke:#ffffff;stroke-opacity:1" />
    <circle
       cx="80.107002"
       cy="309.901"
       r="9.9069996"
       fill="#4a9be4"
       id="circle45"
       style="fill:none;stroke:#ffffff;stroke-opacity:1" />
    <circle
       cx="69.754997"
       cy="273.70099"
       r="12.698"
       fill="#ff5853"
       id="circle49"
       style="fill:none;stroke:#ffffff;stroke-opacity:1" />
    <g
       id="g145"
       style="fill:none;stroke:#ffffff;stroke-opacity:1"
       transform="translate(-6,-44)">
      <circle
         cx="106.739"
         cy="37.532001"
         r="4.461"
         fill="#232423"
         stroke="#131413"
         stroke-width="0.6"
         stroke-miterlimit="10"
         id="circle143"
         style="fill:none;stroke:#ffffff;stroke-opacity:1" />
    </g>
    <g
       id="g149"
       style="fill:none;stroke:#ffffff;stroke-opacity:1"
       transform="translate(-6,-44)">
      <circle
         cx="120.897"
         cy="61.181999"
         r="4.461"
         fill="#232423"
         stroke="#131413"
         stroke-width="0.6"
         stroke-miterlimit="10"
         id="circle147"
         style="fill:none;stroke:#ffffff;stroke-opacity:1" />
    </g>
    <g
       id="g153"
       style="fill:none;stroke:#ffffff;stroke-opacity:1"
       transform="translate(-6,-44)">
      <circle
         cx="96.682999"
         cy="76.285004"
         r="4.461"
         fill="#232423"
         stroke="#131413"
         stroke-width="0.6"
         stroke-miterlimit="10"
         id="circle151"
         style="fill:none;stroke:#ffffff;stroke-opacity:1" />
    </g>
    <g
       id="g157"
       style="fill:none;stroke:#ffffff;stroke-opacity:1"
       transform="translate(-6,-44)">
      <circle
         cx="81.598999"
         cy="51.957001"
         r="4.461"
         fill="#232423"
         stroke="#131413"
         stroke-width="0.6"
         stroke-miterlimit="10"
         id="circle155"
         style="fill:none;stroke:#ffffff;stroke-opacity:1" />
    </g>
    <path
       d="m 18.194,46.88 c 3.368,-0.182 12.436,0.205 20.65,0.615 4.398,0.22 8.553,0.427 11.784,0.535 8.836,0.297 44.584,7.113 47.911,8.777 l -0.371,1.609 C 95.328,56.996 60.066,50.147 50.567,49.828 47.322,49.719 43.16,49.512 38.754,49.292 30.585,48.885 21.17,48.524 17.895,48.702 Z"
       fill="#323333"
       id="path159"
       style="fill:none;stroke:#ffffff;stroke-opacity:1" />
    <path
       d="m 3.287,48.418 c 0.09,-0.006 9.862,-0.667 14.907,-0.939 L 17.896,49.3 C 12.863,49.572 3.085,50.232 2.995,50.238 Z"
       fill="#1e1f1f"
       id="path165"
       style="fill:none;stroke:#ffffff;stroke-opacity:1" />
    <path
       d="m 18.194,253.105 c 3.368,0.182 12.436,-0.205 20.65,-0.615 4.398,-0.22 8.553,-0.427 11.784,-0.535 8.836,-0.297 44.584,-7.113 47.911,-8.777 l -0.371,-1.609 c -2.84,1.42 -38.102,8.269 -47.601,8.588 -3.245,0.109 -7.407,0.316 -11.813,0.536 -8.169,0.407 -17.584,0.768 -20.859,0.59 z"
       fill="#323333"
       id="path169"
       style="fill:none;stroke:#ffffff;stroke-opacity:1" />
    <path
       d="m 3.287,251.566 c 0.09,0.006 9.862,0.667 14.907,0.939 l -0.298,-1.821 C 12.863,250.412 3.085,249.752 2.995,249.746 Z"
       fill="#1e1f1f"
       id="path175"
       style="fill:none;stroke:#ffffff;stroke-opacity:1" />
    <path
       d="m 43.114,49.319 c -2.922,15.757 -8.937,53.872 -8.937,100.674 0,46.802 6.015,84.917 8.937,100.674 l 1.165,-0.187 c -2.934,-15.865 -8.903,-53.862 -8.903,-100.487 0,-46.625 5.968,-84.622 8.903,-100.487 z"
       fill="#585959"
       id="path179"
       style="fill:none;stroke:#ffffff;stroke-opacity:1" />
    <path
       d="m 53.447,249.686 c -2.568,-15.722 -8.776,-58.035 -8.776,-99.694 0,-41.659 6.208,-83.972 8.776,-99.694 h -1.199 c -2.568,15.722 -8.776,58.035 -8.776,99.694 0,41.659 6.208,83.972 8.776,99.694 z"
       fill="#2f3030"
       id="path181"
       style="fill:none;stroke:#ffffff;stroke-opacity:1" />
    <g
       id="g187"
       style="fill:none;stroke:#ffffff;stroke-opacity:1"
       transform="translate(-6,-44)">
      <path
         d="m 53.688,263.176 c 0,1.698 -1.144,3.175 -2.662,3.436 -0.458,0.079 -0.901,0.08 -1.357,0.005 -1.389,-0.231 -2.488,-1.474 -2.672,-3.024 a 597.935,597.935 0 0 1 -3.376,-39.99 3.61,3.61 0 0 1 1.58,-3.206 c 0.895,-0.6 1.967,-0.715 2.942,-0.315 l 0.092,0.038 c 1.13,0.481 1.909,1.668 1.986,3.023 0.713,12.611 1.871,25.935 3.442,39.602 0.017,0.142 0.025,0.288 0.025,0.431 m 1.2,0 c 0,-0.211 -0.012,-0.424 -0.037,-0.637 -1.337,-11.634 -2.625,-25.208 -3.433,-39.498 -0.113,-1.998 -1.279,-3.811 -3.076,-4.577 l -0.113,-0.047 c -3.388,-1.389 -7.01,1.293 -7.01,4.988 0,0.095 0.002,0.192 0.007,0.288 a 600.36,600.36 0 0 0 3.386,40.111 c 0.272,2.297 1.942,4.218 4.164,4.587 a 5.84,5.84 0 0 0 1.956,-0.006 c 2.455,-0.422 4.156,-2.695 4.156,-5.209 z"
         fill="#1e1f1f"
         id="path185"
         style="fill:none;stroke:#ffffff;stroke-opacity:1" />
    </g>
    <path
       d="m 53.447,48.842 v 1.456 l -10.333,-0.98 v -1.013 c 0,10e-4 4.122,-0.257 10.333,0.537 z m 0,202.3 v -1.456 l -10.333,0.98 v 1.013 c 0,0 4.122,0.258 10.333,-0.537 z"
       fill="#282929"
       id="path189"
       style="fill:none;stroke:#ffffff;stroke-opacity:1" />
  </g>
</svg>
