<?xml version="1.0" encoding="UTF-8" standalone="no"?>
<svg
   viewBox="0 0 28 33.5"
   width="56"
   height="67"
   version="1.1"
   id="svg13"
   sodipodi:docname="android.svg"
   inkscape:version="1.2.2 (732a01da63, 2022-12-09)"
   xmlns:inkscape="http://www.inkscape.org/namespaces/inkscape"
   xmlns:sodipodi="http://sodipodi.sourceforge.net/DTD/sodipodi-0.dtd"
   xmlns:xlink="http://www.w3.org/1999/xlink"
   xmlns="http://www.w3.org/2000/svg"
   xmlns:svg="http://www.w3.org/2000/svg">
  <sodipodi:namedview
     id="namedview15"
     pagecolor="#ffffff"
     bordercolor="#111111"
     borderopacity="1"
     inkscape:showpageshadow="0"
     inkscape:pageopacity="0"
     inkscape:pagecheckerboard="1"
     inkscape:deskcolor="#d1d1d1"
     showgrid="false"
     inkscape:zoom="9.4465047"
     inkscape:cx="48.854049"
     inkscape:cy="42.343704"
     inkscape:window-width="1920"
     inkscape:window-height="1009"
     inkscape:window-x="-8"
     inkscape:window-y="-8"
     inkscape:window-maximized="1"
     inkscape:current-layer="svg13" />
  <g
     fill="#a4c639"
     id="g8"
     style="fill:none;stroke:#ffffff;stroke-width:0.25;stroke-dasharray:none;stroke-opacity:1"
     transform="translate(-2,1)">
    <path
       d="m 10.45,0.234 1.44,2.57 C 9.215,4.14 7.365,6.7 7.365,9.692 h 17.27 c 0,-2.98 -1.85,-5.55 -4.523,-6.888 l 1.44,-2.57 c 0,0 0.103,-0.103 -0.103,-0.206 -0.103,-0.103 -0.206,0.103 -0.206,0.103 L 19.7,2.702 A 9.35,9.35 0 0 0 15.896,1.88 9.35,9.35 0 0 0 12.092,2.702 l -1.54,-2.57 c 0,0 -0.102,-0.102 -0.206,-0.102 a 0.36,0.36 0 0 0 0.103,0.206 z M 11.9,5.27 c 0.4,0 0.822,0.4 0.822,0.822 0,0.422 -0.4,0.822 -0.822,0.822 A 0.81,0.81 0 0 1 11.078,6.092 0.81,0.81 0 0 1 11.9,5.27 Z m 8.224,0 c 0.4,0 0.822,0.4 0.822,0.822 0,0.422 -0.4,0.822 -0.822,0.822 A 0.81,0.81 0 0 1 19.302,6.092 0.81,0.81 0 0 1 20.124,5.27 Z M 7.262,10.72 v 13.16 c 0,0.617 0.822,1.542 1.44,1.542 h 2.056 v 4.523 c 0,1.13 0.822,2.056 1.85,2.056 1.028,0 1.85,-0.925 1.85,-2.056 V 25.42 h 2.98 v 4.523 c 0,1.13 0.822,2.056 1.85,2.056 1.028,0 1.85,-0.925 1.85,-2.056 V 25.42 h 2.056 c 0.617,0 1.44,-0.822 1.44,-1.542 V 10.72 Z"
       id="path2"
       style="fill:none;stroke:#ffffff;stroke-width:0.25;stroke-dasharray:none;stroke-opacity:1" />
    <use
       xlink:href="#A"
       id="use4"
       style="fill:none;stroke:#ffffff;stroke-width:0.25;stroke-dasharray:none;stroke-opacity:1" />
    <use
       xlink:href="#A"
       x="23.233999"
       id="use6"
       style="fill:none;stroke:#ffffff;stroke-width:0.25;stroke-dasharray:none;stroke-opacity:1" />
  </g>
  <defs
     id="defs11">
    <path
       id="A"
       d="m 4.383,10.412 c 1.028,0 1.85,0.925 1.85,2.056 v 7.813 c 0,1.13 -0.822,2.056 -1.85,2.056 -1.028,0 -1.85,-0.925 -1.85,-2.056 v -7.813 c 0,-1.13 0.822,-2.056 1.85,-2.056 z" />
  </defs>
</svg>
