<?xml version="1.0" encoding="UTF-8" standalone="no"?>
<!-- Generator: Adobe Illustrator 13.0.0, SVG Export Plug-In . SVG Version: 6.00 Build 14948)  -->

<svg
   version="1.2"
   id="Layer_3"
   x="0px"
   y="0px"
   width="170"
   height="350.26001"
   viewBox="0 0 169.99999 350.26"
   xml:space="preserve"
   sodipodi:docname="arcadia.svg"
   inkscape:version="1.2.2 (732a01da63, 2022-12-09)"
   xmlns:inkscape="http://www.inkscape.org/namespaces/inkscape"
   xmlns:sodipodi="http://sodipodi.sourceforge.net/DTD/sodipodi-0.dtd"
   xmlns="http://www.w3.org/2000/svg"
   xmlns:svg="http://www.w3.org/2000/svg"
   xmlns:rdf="http://www.w3.org/1999/02/22-rdf-syntax-ns#"
   xmlns:cc="http://creativecommons.org/ns#"
   xmlns:dc="http://purl.org/dc/elements/1.1/"
   xmlns:ns="&amp;ns_sfw;"><defs
   id="defs65" /><sodipodi:namedview
   id="namedview63"
   pagecolor="#000000"
   bordercolor="#111111"
   borderopacity="1"
   inkscape:showpageshadow="0"
   inkscape:pageopacity="0"
   inkscape:pagecheckerboard="1"
   inkscape:deskcolor="#d1d1d1"
   showgrid="false"
   inkscape:zoom="2.0445042"
   inkscape:cx="299.58363"
   inkscape:cy="175.10357"
   inkscape:window-width="1920"
   inkscape:window-height="1009"
   inkscape:window-x="-8"
   inkscape:window-y="-8"
   inkscape:window-maximized="1"
   inkscape:current-layer="Layer_3" />
<metadata
   id="metadata55">
	<rdf:RDF>
		<cc:Work
   rdf:about="">
			<dc:format>image/svg+xml</dc:format>
			<dc:type
   rdf:resource="http://purl.org/dc/dcmitype/StillImage" />
			
		</cc:Work>
	</rdf:RDF>
	<ns:sfw>
		<ns:slices />
		<ns:sliceSourceBounds
   x="890.89"
   y="-7652"
   width="141.737"
   height="16383"
   bottomLeftOrigin="true" />
	</ns:sfw>
</metadata>
<path
   id="path3"
   fill="#f4f4f4"
   d="m 17.999,19.117 c -2.48,0 -4.514,2.011 -4.514,4.492 v 308.506 c 0,2.479 2.034,4.491 4.514,4.491 h 132.707 c 2.227,0 3.999,-1.646 4.358,-3.772 h 0.157 V 332.115 23.608 c 0,-2.48 -2.036,-4.492 -4.516,-4.492 H 17.999 Z m 0,1.437 h 132.707 c 1.701,0 3.078,1.351 3.078,3.054 v 307.788 0.719 c 0,1.701 -1.374,3.054 -3.078,3.054 H 17.999 c -1.702,0 -3.076,-1.351 -3.076,-3.054 V 23.608 c 0,-1.703 1.374,-3.054 3.076,-3.054 z" />
<path
   id="path5"
   fill="#f4f4f4"
   d="m 35.517,56.173 c -8.753,0 -15.855,7.124 -15.855,15.878 v 123.545 c 0,8.751 7.102,15.877 15.855,15.877 h 97.673 c 8.751,0 15.855,-7.125 15.855,-15.877 V 194.877 72.051 c 0,-8.753 -7.104,-15.878 -15.855,-15.878 z m 0,1.437 h 97.673 c 7.976,0 14.418,6.464 14.418,14.44 v 123.545 c 0,7.976 -6.443,14.439 -14.418,14.439 H 35.517 c -7.978,0 -14.418,-6.464 -14.418,-14.439 V 72.051 c 0,-7.977 6.442,-14.441 14.418,-14.441 z" />
<path
   id="path7"
   fill="#f4f4f4"
   d="m 42.097,65.335 c -5.231,0 -9.479,4.269 -9.479,9.5 v 114.382 c 0,5.231 4.247,9.499 9.479,9.499 h 84.507 c 5.229,0 9.478,-4.268 9.478,-9.499 V 74.835 c 0,-5.231 -4.247,-9.5 -9.478,-9.5 z m 0,1.438 h 84.507 c 4.454,0 8.04,3.608 8.04,8.063 v 114.382 c 0,4.455 -3.586,8.062 -8.04,8.062 H 42.097 c -4.454,0 -8.041,-3.606 -8.041,-8.062 V 74.835 c 0,-4.454 3.586,-8.062 8.041,-8.062 z" />
<path
   id="circle9"
   fill="#f4f4f4"
   d="m 84.363,216.409 c -28.234,0 -51.138,22.903 -51.138,51.137 0,28.234 22.903,51.138 51.138,51.138 28.235,0 51.137,-22.904 51.137,-51.138 0,-28.234 -22.902,-51.137 -51.137,-51.137 z m 0,1.438 c 27.456,0 49.7,22.242 49.7,49.699 0,27.458 -22.244,49.7 -49.7,49.7 -27.458,0 -49.7,-22.242 -49.7,-49.7 0,-27.457 22.243,-49.699 49.7,-49.699 z" />
<path
   id="circle11"
   fill="#f4f4f4"
   d="m 84.363,230.739 c -20.64,0 -37.393,16.754 -37.393,37.393 0,20.64 16.753,37.393 37.393,37.393 20.64,0 37.37,-16.753 37.37,-37.393 0,-20.64 -16.73,-37.393 -37.37,-37.393 z m 0,1.438 c 19.862,0 35.933,16.092 35.933,35.955 0,19.862 -16.07,35.956 -35.933,35.956 -19.864,0 -35.956,-16.094 -35.956,-35.956 0.003,-19.864 16.095,-35.955 35.958,-35.955 z" />
<path
   id="path13"
   fill="#f4f4f4"
   d="m 27.409,16.22 c -0.83,0 -1.527,0.676 -1.527,1.505 v 1.976 h 1.437 v -1.976 c 0,-0.05 0.04,-0.067 0.09,-0.067 h 113.886 c 0.05,0 0.09,0.017 0.09,0.067 v 2.088 h 1.437 V 17.725 C 142.831,16.896 142.133,16.22 141.3,16.22 H 27.419 Z" />
<g
   id="g15"
   transform="translate(-216)">
	<g
   id="g17">
		<path
   fill="#f4f4f4"
   d="m 258.635,99.395 c -2.16,0 -3.908,-1.75 -3.908,-3.908 v 0 -19.129 c 0,-2.158 1.748,-3.906 3.908,-3.906 v 0 h 20.327 c 2.158,0 3.909,1.748 3.909,3.906 v 0 19.13 h -0.002 c -0.001,2.157 -1.749,3.904 -3.906,3.906 v 0 h -20.328 z m -2.47,-23.037 v 19.128 c 0.002,1.364 1.106,2.468 2.47,2.47 v 0 h 20.327 c 1.362,-0.002 2.468,-1.106 2.47,-2.47 v 0 -19.128 c -0.002,-1.362 -1.108,-2.468 -2.47,-2.47 v 0 h -20.327 c -1.364,0.002 -2.468,1.106 -2.47,2.47 z m 25.318,19.395 0.662,-0.265 z"
   id="path9" />
		<path
   id="circle21"
   fill="#f4f4f4"
   d="m 268.809,75.374 c -5.818,0 -10.555,4.737 -10.555,10.556 0,5.819 4.737,10.556 10.555,10.556 5.818,0 10.533,-4.737 10.533,-10.556 0,-5.818 -4.715,-10.556 -10.533,-10.556 z m 0,1.438 c 5.042,0 9.095,4.077 9.095,9.118 0,5.041 -4.054,9.118 -9.095,9.118 -5.041,0 -9.118,-4.077 -9.118,-9.118 0,-5.041 4.077,-9.118 9.118,-9.118 z" />
	</g>
	<g
   id="g23">
		<path
   fill="#f4f4f4"
   d="m 290.19,99.395 c -2.158,0 -3.907,-1.749 -3.907,-3.907 v 0 -19.129 c 0,-2.158 1.749,-3.907 3.907,-3.907 v 0 h 20.329 c 2.156,0 3.906,1.749 3.906,3.907 v 0 20.665 l -0.238,-0.199 c -0.547,1.5 -1.985,2.57 -3.671,2.57 v 0 z m -2.469,-23.036 v 19.128 c 0.002,1.364 1.106,2.467 2.469,2.47 v 0 h 20.326 c 1.362,-0.002 2.466,-1.106 2.47,-2.47 v 0 -1.532 l 0.002,0.001 V 76.359 c -0.002,-1.365 -1.105,-2.469 -2.469,-2.472 v 0 H 290.19 c -1.363,0.003 -2.467,1.107 -2.469,2.472 z m 25.523,19.681 0.46,-0.55 z"
   id="path14" />
		<path
   id="circle27"
   fill="#f4f4f4"
   d="m 300.363,75.374 c -5.819,0 -10.556,4.737 -10.556,10.556 0,5.819 4.737,10.556 10.556,10.556 5.817,0 10.532,-4.737 10.532,-10.556 0.001,-5.818 -4.714,-10.556 -10.532,-10.556 z m 0,1.438 c 5.041,0 9.096,4.077 9.096,9.118 0,5.041 -4.056,9.118 -9.096,9.118 -5.042,0 -9.118,-4.077 -9.118,-9.118 0,-5.041 4.076,-9.118 9.118,-9.118 z" />
	</g>
	<g
   id="g29">
		<path
   fill="#f4f4f4"
   d="m 321.744,99.395 c -2.156,0 -3.905,-1.749 -3.905,-3.908 v 0 -19.127 c 0,-2.159 1.747,-3.908 3.905,-3.908 v 0 h 20.328 c 2.156,0 3.908,1.749 3.908,3.908 v 0 19.127 0.002 0 c -0.002,2.158 -1.752,3.906 -3.908,3.906 v 0 z M 319.273,76.36 v 19.127 c 0.004,1.365 1.108,2.469 2.471,2.471 v 0 h 20.328 c 1.362,-0.002 2.467,-1.106 2.471,-2.471 v 0 -19.127 c -0.004,-1.365 -1.108,-2.469 -2.471,-2.471 v 0 h -20.328 c -1.364,0.002 -2.467,1.106 -2.471,2.471 z"
   id="path18" />
		<path
   id="circle33"
   fill="#f4f4f4"
   d="m 331.915,75.374 c -5.817,0 -10.555,4.737 -10.555,10.556 0,5.819 4.737,10.556 10.555,10.556 5.818,0 10.533,-4.737 10.533,-10.556 0,-5.818 -4.715,-10.556 -10.533,-10.556 z m 0,1.438 c 5.042,0 9.097,4.077 9.097,9.118 0,5.041 -4.055,9.118 -9.097,9.118 -5.041,0 -9.117,-4.077 -9.117,-9.118 0,-5.041 4.076,-9.118 9.117,-9.118 z" />
	</g>
</g>
<g
   id="g35"
   transform="translate(-216)">
	<g
   id="g37">
		<path
   fill="#f4f4f4"
   d="m 258.635,130.44 c -2.16,0 -3.908,-1.748 -3.908,-3.907 v 0 -19.13 c 0,-2.159 1.75,-3.909 3.908,-3.909 v 0 h 20.327 c 2.158,0.002 3.909,1.748 3.909,3.909 v 0 20.868 l -0.282,-0.282 c -0.577,1.437 -1.982,2.451 -3.626,2.451 v 0 z m -2.47,-23.037 v 19.13 c 0.002,1.365 1.106,2.468 2.47,2.471 v 0 h 20.327 c 1.362,-0.002 2.468,-1.106 2.47,-2.471 v 0 -19.13 c -0.002,-1.365 -1.108,-2.468 -2.47,-2.47 v 0 h -20.327 c -1.366,0.002 -2.468,1.106 -2.47,2.47 z m 25.477,19.639 0.509,-0.509 z"
   id="path23" />
		<path
   id="circle41"
   fill="#f4f4f4"
   d="m 268.809,106.411 c -5.818,0 -10.555,4.737 -10.555,10.556 0,5.819 4.737,10.556 10.555,10.556 5.818,0 10.533,-4.737 10.533,-10.556 0,-5.818 -4.715,-10.556 -10.533,-10.556 z m 0,1.438 c 5.042,0 9.095,4.077 9.095,9.118 0,5.041 -4.054,9.119 -9.095,9.119 -5.041,0 -9.118,-4.077 -9.118,-9.119 0,-5.041 4.077,-9.118 9.118,-9.118 z" />
	</g>
	<g
   id="g43">
		<path
   fill="#f4f4f4"
   d="m 290.19,130.441 c -2.158,0 -3.907,-1.75 -3.907,-3.907 v 0 -19.132 c 0,-2.159 1.749,-3.907 3.907,-3.907 v 0 h 20.329 c 2.156,0 3.906,1.749 3.906,3.907 v 0 20.129 l -0.122,-0.041 c -0.426,1.695 -1.962,2.949 -3.787,2.951 v 0 z m -2.469,-23.039 v 19.132 c 0.002,1.363 1.106,2.467 2.469,2.469 v 0 h 20.326 c 1.362,-0.002 2.466,-1.106 2.47,-2.469 v 0 -0.997 h 0.002 v -18.136 c -0.002,-1.363 -1.105,-2.467 -2.469,-2.469 v 0 H 290.19 c -1.363,0.003 -2.467,1.107 -2.469,2.47 z m 25.756,19.812 0.229,-0.679 z"
   id="path27" />
		<path
   id="circle47"
   fill="#f4f4f4"
   d="m 300.363,106.411 c -5.819,0 -10.556,4.737 -10.556,10.556 0,5.819 4.737,10.556 10.556,10.556 5.817,0 10.532,-4.737 10.532,-10.556 0.001,-5.818 -4.714,-10.556 -10.532,-10.556 z m 0,1.438 c 5.041,0 9.096,4.077 9.096,9.118 0,5.041 -4.056,9.119 -9.096,9.119 -5.042,0 -9.118,-4.077 -9.118,-9.119 0,-5.041 4.076,-9.118 9.118,-9.118 z" />
	</g>
	<g
   id="g49">
		<path
   fill="#f4f4f4"
   d="m 321.744,130.441 c -2.156,0 -3.905,-1.749 -3.905,-3.908 v 0 -19.131 c 0,-2.159 1.747,-3.908 3.905,-3.908 v 0 h 20.328 c 2.156,0.002 3.908,1.749 3.908,3.908 v 0 19.131 0.002 0 c -0.002,2.158 -1.752,3.906 -3.908,3.906 v 0 z m -2.471,-23.039 v 19.131 c 0.004,1.365 1.108,2.469 2.471,2.471 v 0 h 20.328 c 1.362,-0.002 2.467,-1.106 2.471,-2.471 v 0 -19.131 c -0.004,-1.363 -1.108,-2.467 -2.471,-2.471 v 0 h -20.328 c -1.364,0.005 -2.467,1.107 -2.471,2.471 z"
   id="path31" />
		<path
   id="circle53"
   fill="#f4f4f4"
   d="m 331.915,106.411 c -5.817,0 -10.555,4.737 -10.555,10.556 0,5.819 4.737,10.556 10.555,10.556 5.818,0 10.533,-4.737 10.533,-10.556 0,-5.818 -4.715,-10.556 -10.533,-10.556 z m 0,1.438 c 5.042,0 9.097,4.077 9.097,9.118 0,5.041 -4.055,9.119 -9.097,9.119 -5.041,0 -9.117,-4.077 -9.117,-9.119 0,-5.041 4.076,-9.118 9.117,-9.118 z" />
	</g>
</g>
<g
   id="g55"
   transform="translate(-216)">
	<g
   id="g57">
		<path
   fill="#f4f4f4"
   d="m 257.778,161.486 c -2.159,0 -3.908,-1.749 -3.908,-3.906 v 0 -19.132 c 0,-2.157 1.749,-3.906 3.908,-3.906 v 0 h 20.327 c 2.159,0 3.908,1.747 3.908,3.906 v 0 19.132 0.086 l -10e-4,0.005 c -0.05,2.115 -1.78,3.815 -3.907,3.815 v 0 z m -2.471,-23.038 v 19.132 c 0.002,1.363 1.106,2.467 2.471,2.469 v 0 h 20.327 c 1.363,-0.002 2.467,-1.106 2.469,-2.469 v 0 -0.09 l 0.002,-0.008 v -19.034 c -0.004,-1.365 -1.106,-2.467 -2.471,-2.469 v 0 h -20.327 c -1.364,0.002 -2.468,1.106 -2.471,2.469 z"
   id="path36" />
		<path
   id="circle61"
   fill="#f4f4f4"
   d="m 267.933,137.472 c -5.818,0 -10.533,4.716 -10.533,10.533 0,5.818 4.715,10.556 10.533,10.556 5.818,0 10.556,-4.737 10.556,-10.556 0,-5.818 -4.737,-10.533 -10.556,-10.533 z m 0,1.437 c 5.042,0 9.119,4.054 9.119,9.095 0,5.042 -4.077,9.119 -9.119,9.119 -5.041,0 -9.095,-4.077 -9.095,-9.119 0,-5.041 4.054,-9.095 9.095,-9.095 z" />
	</g>
	<g
   id="g63">
		<path
   fill="#f4f4f4"
   d="m 289.333,161.486 c -2.158,0 -3.907,-1.749 -3.907,-3.907 v 0 -19.132 c 0,-2.158 1.749,-3.905 3.907,-3.907 v 0 h 20.328 c 2.156,0.002 3.904,1.749 3.904,3.907 v 0 19.13 0.002 c 0,2.158 -1.746,3.907 -3.904,3.907 v 0 z m -2.472,-23.039 v 19.132 c 0.004,1.363 1.108,2.467 2.472,2.472 v 0 h 20.328 c 1.363,-0.004 2.468,-1.108 2.47,-2.472 v 0 -0.002 -19.13 c -0.002,-1.363 -1.106,-2.467 -2.47,-2.469 v 0 h -20.328 c -1.363,0.002 -2.467,1.106 -2.472,2.469 z"
   id="path40" />
		<path
   id="circle67"
   fill="#f4f4f4"
   d="m 299.487,137.472 c -5.818,0 -10.533,4.715 -10.533,10.533 0,5.819 4.715,10.556 10.533,10.556 5.819,0 10.556,-4.737 10.556,-10.556 0,-5.819 -4.737,-10.533 -10.556,-10.533 z m 0,1.437 c 5.042,0 9.119,4.054 9.119,9.095 0,5.042 -4.076,9.119 -9.119,9.119 -5.042,0 -9.096,-4.076 -9.096,-9.119 0,-5.041 4.054,-9.095 9.096,-9.095 z" />
	</g>
	<g
   id="g69">
		<path
   fill="#f4f4f4"
   d="m 320.881,161.486 c -2.158,0 -3.905,-1.749 -3.905,-3.905 v 0 -19.133 c 0,-2.158 1.747,-3.905 3.905,-3.905 v 0 h 20.328 c 2.158,0 3.907,1.747 3.907,3.905 v 0 19.131 0.002 c 0,2.156 -1.749,3.905 -3.907,3.905 v 0 z m -2.469,-23.039 v 19.133 c 0.002,1.362 1.104,2.466 2.469,2.469 v 0 h 20.328 c 1.364,-0.002 2.469,-1.106 2.471,-2.469 v 0 -0.002 -19.131 c -0.002,-1.364 -1.106,-2.466 -2.471,-2.468 v 0 h -20.328 c -1.364,0.002 -2.467,1.106 -2.469,2.468 z"
   id="path44" />
		<path
   id="circle73"
   fill="#f4f4f4"
   d="m 331.039,137.472 c -5.818,0 -10.532,4.716 -10.532,10.533 0,5.818 4.715,10.556 10.532,10.556 5.817,0 10.557,-4.737 10.557,-10.556 0,-5.818 -4.739,-10.533 -10.557,-10.533 z m 0,1.437 c 5.041,0 9.119,4.054 9.119,9.095 0,5.042 -4.077,9.119 -9.119,9.119 -5.041,0 -9.095,-4.077 -9.095,-9.119 0,-5.041 4.054,-9.095 9.095,-9.095 z" />
	</g>
</g>
<g
   id="g75"
   transform="translate(-216)">
	<g
   id="g77">
		<path
   fill="#f4f4f4"
   d="m 257.779,192.532 c -2.159,0 -3.908,-1.749 -3.908,-3.906 v 0 -19.132 c 0,-2.157 1.749,-3.908 3.908,-3.908 v 0 h 20.326 c 2.159,0 3.908,1.749 3.908,3.908 v 0 19.132 0.04 0.002 c -0.024,2.136 -1.763,3.864 -3.908,3.864 v 0 z m -2.47,-23.038 v 19.132 c 0.002,1.364 1.104,2.467 2.47,2.469 v 0 h 20.326 c 1.364,-0.002 2.468,-1.106 2.47,-2.469 v 0 -0.004 -19.128 c -0.002,-1.364 -1.104,-2.468 -2.47,-2.472 v 0 h -20.326 c -1.364,0.004 -2.468,1.108 -2.47,2.472 z"
   id="path49" />
		<path
   id="circle81"
   fill="#f4f4f4"
   d="m 267.933,168.511 c -5.818,0 -10.533,4.737 -10.533,10.555 0,5.817 4.715,10.532 10.533,10.532 5.818,0 10.556,-4.715 10.556,-10.532 0,-5.818 -4.737,-10.555 -10.556,-10.555 z m 0,1.437 c 5.042,0 9.119,4.076 9.119,9.118 0,5.041 -4.077,9.095 -9.119,9.095 -5.041,0 -9.095,-4.054 -9.095,-9.095 0,-5.041 4.054,-9.118 9.095,-9.118 z" />
	</g>
	<g
   id="g83">
		<path
   fill="#f4f4f4"
   d="m 289.333,192.532 c -2.157,0 -3.906,-1.749 -3.906,-3.906 v 0 -19.132 c 0,-2.157 1.747,-3.908 3.906,-3.908 v 0 h 20.328 c 2.158,0 3.907,1.749 3.907,3.908 v 0 19.128 0.004 c 0,2.155 -1.747,3.906 -3.907,3.906 v 0 z m -2.471,-23.038 v 19.132 c 0.002,1.364 1.106,2.467 2.47,2.469 v 0 h 20.328 c 1.363,-0.002 2.468,-1.106 2.47,-2.469 v 0 -0.004 -19.128 c -0.002,-1.364 -1.106,-2.468 -2.47,-2.472 v 0 h -20.328 c -1.364,0.004 -2.468,1.108 -2.47,2.472 z"
   id="path53" />
		<path
   id="circle87"
   fill="#f4f4f4"
   d="m 299.487,168.511 c -5.818,0 -10.533,4.736 -10.533,10.555 0,5.818 4.715,10.532 10.533,10.532 5.819,0 10.556,-4.715 10.556,-10.532 0,-5.818 -4.737,-10.555 -10.556,-10.555 z m 0,1.437 c 5.042,0 9.119,4.076 9.119,9.118 0,5.041 -4.076,9.095 -9.119,9.095 -5.042,0 -9.096,-4.054 -9.096,-9.095 0,-5.042 4.054,-9.118 9.096,-9.118 z" />
	</g>
	<g
   id="g89">
		<path
   fill="#f4f4f4"
   d="m 320.881,192.531 c -2.158,0 -3.905,-1.747 -3.905,-3.905 v 0 -19.133 c 0,-2.156 1.747,-3.907 3.905,-3.907 v 0 h 20.328 c 2.158,0 3.907,1.751 3.907,3.907 v 0 19.129 0.004 c 0,2.156 -1.749,3.905 -3.907,3.905 v 0 z m -2.469,-23.038 v 19.133 c 0.002,1.364 1.104,2.466 2.469,2.471 v 0 h 20.328 c 1.364,-0.005 2.469,-1.108 2.471,-2.471 v 0 -0.004 -19.129 c -0.002,-1.362 -1.106,-2.468 -2.471,-2.47 v 0 h -20.328 c -1.362,0.001 -2.467,1.107 -2.469,2.47 z"
   id="path57" />
		<path
   id="circle93"
   fill="#f4f4f4"
   d="m 331.039,168.511 c -5.818,0 -10.532,4.737 -10.532,10.555 0,5.817 4.715,10.532 10.532,10.532 5.817,0 10.557,-4.715 10.557,-10.532 0,-5.818 -4.739,-10.555 -10.557,-10.555 z m 0,1.437 c 5.041,0 9.119,4.076 9.119,9.118 0,5.041 -4.077,9.095 -9.119,9.095 -5.041,0 -9.095,-4.054 -9.095,-9.095 0,-5.041 4.054,-9.118 9.095,-9.118 z" />
	</g>
</g>
</svg>
