<?xml version="1.0" encoding="UTF-8" standalone="no"?>
<svg
   id="Calque_1"
   data-name="Calque 1"
   width="456.89"
   height="720"
   viewBox="0 0 456.89 720"
   version="1.1"
   sodipodi:docname="arduboy.svg"
   inkscape:version="1.2.2 (732a01da63, 2022-12-09)"
   xmlns:inkscape="http://www.inkscape.org/namespaces/inkscape"
   xmlns:sodipodi="http://sodipodi.sourceforge.net/DTD/sodipodi-0.dtd"
   xmlns="http://www.w3.org/2000/svg"
   xmlns:svg="http://www.w3.org/2000/svg">
  <sodipodi:namedview
     id="namedview1557"
     pagecolor="#000000"
     bordercolor="#111111"
     borderopacity="1"
     inkscape:showpageshadow="0"
     inkscape:pageopacity="0"
     inkscape:pagecheckerboard="1"
     inkscape:deskcolor="#d1d1d1"
     showgrid="false"
     inkscape:zoom="1.1875"
     inkscape:cx="31.578947"
     inkscape:cy="186.94737"
     inkscape:window-width="1920"
     inkscape:window-height="1009"
     inkscape:window-x="-8"
     inkscape:window-y="-8"
     inkscape:window-maximized="1"
     inkscape:current-layer="Calque_1" />
  <defs
     id="defs1161">
    <style
       id="style1103">
      .cls-1, .cls-2, .cls-3, .cls-4, .cls-5 {
        fill: #fff;
      }

      .cls-6 {
        fill: #575757;
      }

      .cls-7, .cls-8, .cls-9, .cls-2, .cls-10, .cls-11, .cls-12, .cls-5, .cls-13 {
        stroke-miterlimit: 10;
      }

      .cls-7, .cls-14, .cls-15 {
        fill: #d9d9d9;
      }

      .cls-7, .cls-12 {
        stroke: #1d1d1b;
        stroke-width: .5px;
      }

      .cls-16 {
        fill: #cac8c8;
      }

      .cls-8, .cls-13 {
        fill: none;
        stroke: #fff;
      }

      .cls-17 {
        fill: #e0d68c;
      }

      .cls-9 {
        stroke: #fcc84f;
      }

      .cls-9, .cls-11 {
        fill: #f7f5ca;
        stroke-width: 3px;
      }

      .cls-2 {
        stroke: #b1b1b1;
      }

      .cls-2, .cls-5 {
        opacity: .49;
        stroke-width: 2px;
      }

      .cls-18, .cls-14 {
        opacity: .65;
      }

      .cls-19 {
        fill: #e1e1e1;
      }

      .cls-3 {
        opacity: .57;
      }

      .cls-20 {
        fill: #9d802f;
      }

      .cls-10 {
        fill: #e63737;
        stroke: #af2f2e;
        stroke-width: 5px;
      }

      .cls-11 {
        stroke: #fff4bd;
      }

      .cls-21 {
        fill: #303031;
      }

      .cls-22 {
        fill: #f7cf61;
      }

      .cls-23 {
        fill: #e4e4e4;
      }

      .cls-24 {
        fill: #6f6f6e;
      }

      .cls-25 {
        opacity: .76;
      }

      .cls-4 {
        opacity: .53;
      }

      .cls-26 {
        fill: #b48d29;
      }

      .cls-27 {
        fill: url(#Dégradé_sans_nom_214);
      }

      .cls-27, .cls-28 {
        opacity: .5;
      }

      .cls-28 {
        fill: url(#Dégradé_sans_nom_229);
      }

      .cls-29 {
        fill: #4a494a;
      }

      .cls-12 {
        fill: #d5ab36;
      }

      .cls-5 {
        stroke: #868686;
      }

      .cls-30 {
        fill: #806721;
      }

      .cls-13 {
        stroke-width: .25px;
      }

      .cls-31 {
        fill: #c6c6c5;
      }
    </style>
    <linearGradient
       id="Dégradé_sans_nom_229"
       data-name="Dégradé sans nom 229"
       x1="417.91"
       y1="361.78"
       x2="446.04"
       y2="361.78"
       gradientUnits="userSpaceOnUse">
      <stop
         offset="0"
         stop-color="#0f0f0f"
         stop-opacity=".69"
         id="stop1105" />
      <stop
         offset=".06"
         stop-color="#fff"
         stop-opacity=".69"
         id="stop1107" />
      <stop
         offset=".22"
         stop-color="#8a8a8a"
         stop-opacity=".69"
         id="stop1109" />
      <stop
         offset=".47"
         stop-color="#cfcfcf"
         stop-opacity=".69"
         id="stop1111" />
      <stop
         offset=".73"
         stop-color="#525252"
         stop-opacity=".69"
         id="stop1113" />
      <stop
         offset=".78"
         stop-color="#565656"
         stop-opacity=".69"
         id="stop1115" />
      <stop
         offset=".83"
         stop-color="#646464"
         stop-opacity=".69"
         id="stop1117" />
      <stop
         offset=".86"
         stop-color="#7b7b7b"
         stop-opacity=".69"
         id="stop1119" />
      <stop
         offset=".9"
         stop-color="#9b9b9b"
         stop-opacity=".69"
         id="stop1121" />
      <stop
         offset=".93"
         stop-color="#c6c6c6"
         stop-opacity=".69"
         id="stop1123" />
      <stop
         offset=".96"
         stop-color="#f9f9f9"
         stop-opacity=".69"
         id="stop1125" />
      <stop
         offset=".96"
         stop-color="#fff"
         stop-opacity=".69"
         id="stop1127" />
      <stop
         offset="1"
         stop-color="#212121"
         stop-opacity=".69"
         id="stop1129" />
    </linearGradient>
    <linearGradient
       id="Dégradé_sans_nom_214"
       data-name="Dégradé sans nom 214"
       x1="8.22"
       y1="361.78"
       x2="36.35"
       y2="361.78"
       gradientUnits="userSpaceOnUse">
      <stop
         offset="0"
         stop-color="#0f0f0f"
         id="stop1132" />
      <stop
         offset=".06"
         stop-color="#fff"
         id="stop1134" />
      <stop
         offset=".22"
         stop-color="#8a8a8a"
         id="stop1136" />
      <stop
         offset=".47"
         stop-color="#cfcfcf"
         id="stop1138" />
      <stop
         offset=".73"
         stop-color="#525252"
         id="stop1140" />
      <stop
         offset=".78"
         stop-color="#545454"
         id="stop1142" />
      <stop
         offset=".81"
         stop-color="#5e5e5e"
         id="stop1144" />
      <stop
         offset=".84"
         stop-color="#6e6e6e"
         id="stop1146" />
      <stop
         offset=".87"
         stop-color="#858585"
         id="stop1148" />
      <stop
         offset=".9"
         stop-color="#a2a2a2"
         id="stop1150" />
      <stop
         offset=".93"
         stop-color="#c6c6c6"
         id="stop1152" />
      <stop
         offset=".95"
         stop-color="#efefef"
         id="stop1154" />
      <stop
         offset=".96"
         stop-color="#fff"
         id="stop1156" />
      <stop
         offset="1"
         stop-color="#212121"
         id="stop1158" />
    </linearGradient>
  </defs>
  <path
     class="cls-13"
     d="M417.91,12.62H36.35c-15.54,0-28.13,12.59-28.13,28.13V682.81c0,15.54,12.59,28.13,28.13,28.13H417.91c15.54,0,28.13-12.59,28.13-28.13V40.75c0-15.54-12.59-28.13-28.13-28.13Zm15.16,674.27c0,6.96-5.64,12.61-12.61,12.61H32.23c-6.96,0-12.61-5.64-12.61-12.61V37.31c0-6.96,5.64-12.61,12.61-12.61H420.47c6.96,0,12.61,5.64,12.61,12.61V686.89Z"
     id="path1175"
     style="fill:none;stroke:#ffffff;stroke-opacity:1;stroke-width:4.2;stroke-dasharray:none" />
  <path
     class="cls-14"
     d="M417.91,12.62H36.35c-15.54,0-28.13,12.59-28.13,28.13V682.81c0,15.54,12.59,28.13,28.13,28.13H417.91c15.54,0,28.13-12.59,28.13-28.13V40.75c0-15.54-12.59-28.13-28.13-28.13Zm15.16,674.27c0,6.96-5.64,12.61-12.61,12.61H32.23c-6.96,0-12.61-5.64-12.61-12.61V37.31c0-6.96,5.64-12.61,12.61-12.61H420.47c6.96,0,12.61,5.64,12.61,12.61V686.89Z"
     id="path1177"
     style="fill:none;stroke:#ffffff;stroke-opacity:1;stroke-width:4.2;stroke-dasharray:none" />
  <path
     class="cls-28"
     d="M417.91,710.94c15.54,0,28.13-12.59,28.13-28.13V40.75c0-15.54-12.59-28.13-28.13-28.13m2.56,12.08c6.96,0,12.61,5.64,12.61,12.61V686.89c0,6.96-5.64,12.61-12.61,12.61"
     id="path1179"
     style="fill:none;stroke:#ffffff;stroke-opacity:1;stroke-width:4.2;stroke-dasharray:none" />
  <path
     class="cls-27"
     d="M36.35,12.62c-15.54,0-28.13,12.59-28.13,28.13V682.81c0,15.54,12.59,28.13,28.13,28.13m-4.12-11.45c-6.96,0-12.61-5.64-12.61-12.61V37.31c0-6.96,5.64-12.61,12.61-12.61"
     id="path1181"
     style="fill:none;stroke:#ffffff;stroke-opacity:1;stroke-width:4.2;stroke-dasharray:none" />
  <rect
     class="cls-15"
     x="19.63"
     y="24.7"
     width="413.45"
     height="674.79"
     rx="12.61"
     ry="12.61"
     id="rect1183"
     style="fill:none;stroke:#ffffff;stroke-opacity:1;stroke-width:4.2;stroke-dasharray:none" />
  <g
     id="g1191"
     style="fill:none;stroke:#ffffff;stroke-opacity:1;stroke-width:4.2;stroke-dasharray:none">
    <rect
       class="cls-1"
       x="80.77"
       y="58.57"
       width="289.51"
       height="231.21"
       id="rect1187"
       style="fill:none;stroke:#ffffff;stroke-opacity:1;stroke-width:4.2;stroke-dasharray:none" />
    <path
       class="cls-1"
       d="M73.03,289.78V58c0-3.07,2.53-5.56,5.66-5.56H372.35c3.13,0,5.66,2.49,5.66,5.56v231.78h49.79V37.13c0-3.32-2.69-6.02-6.02-6.02H31.31c-3.32,0-6.02,2.69-6.02,6.02v252.65h47.73Z"
       id="path1189"
       style="fill:none;stroke:#ffffff;stroke-opacity:1;stroke-width:4.2;stroke-dasharray:none" />
  </g>
  <path
     class="cls-21"
     d="M85.44,65.78H366.7c1.04,0,1.89,.85,1.89,1.89V215.44c0,5.46-4.43,9.89-9.89,9.89H93.44c-5.46,0-9.89-4.43-9.89-9.89V67.67c0-1.04,.85-1.89,1.89-1.89Z"
     id="path1193"
     style="fill:none;stroke:#ffffff;stroke-opacity:1;stroke-width:4.2;stroke-dasharray:none" />
  <g
     id="g1217"
     style="fill:none;stroke:#ffffff;stroke-opacity:1;stroke-width:4.2;stroke-dasharray:none">
    <circle
       class="cls-10"
       cx="303.11"
       cy="473.48"
       r="33"
       id="circle1211"
       style="fill:none;stroke:#ffffff;stroke-opacity:1;stroke-width:4.2;stroke-dasharray:none" />
    <circle
       class="cls-10"
       cx="378"
       cy="440.28"
       r="33"
       id="circle1213"
       style="fill:none;stroke:#ffffff;stroke-opacity:1;stroke-width:4.2;stroke-dasharray:none" />
    <path
       class="cls-2"
       d="M420.47,438.62c-.84-22.03-18.79-39.98-40.81-40.81-24.23-.92-44.16,18.45-44.16,42.47,0,.05,0,.09,0,.14,0,1.97-2.29,3-3.75,1.67-8.02-7.32-18.86-11.62-30.71-11.05-22.45,1.06-40.39,19.89-40.43,42.37-.04,23.51,19,42.58,42.5,42.58s42.5-19.03,42.5-42.5c0-.04,0-.09,0-.13,0-1.98,2.3-3,3.76-1.66,7.55,6.89,17.6,11.09,28.63,11.09,24.02,0,43.39-19.93,42.47-44.16Zm-40.44,34.6c-9.28,.56-17.79-2.73-24.1-8.42-3.37-3.04-8.16-3.94-12.31-2.09l-.47,.21c-4.32,1.92-6.99,6.23-7.04,10.96-.02,1.78-.19,3.59-.51,5.42-2.62,14.7-15.02,25.96-29.91,27.09-20.2,1.53-36.92-15.13-35.49-35.3,1.16-16.37,14.51-29.56,30.89-30.54,9.28-.56,17.79,2.73,24.1,8.42,3.37,3.04,8.16,3.94,12.31,2.09l.47-.21c4.32-1.92,6.99-6.23,7.04-10.96,.02-1.78,.19-3.59,.51-5.42,2.62-14.7,15.02-25.96,29.91-27.09,20.2-1.53,36.92,15.13,35.49,35.3-1.16,16.37-14.51,29.56-30.89,30.54Z"
       id="path1215"
       style="fill:none;stroke:#ffffff;stroke-opacity:1;stroke-width:4.2;stroke-dasharray:none;opacity:1" />
  </g>
  <path
     class="cls-5"
     d="M208.72,399.32h-33.9v-34.65c0-12.06-9.78-21.84-21.84-21.84h-44.92c-12.06,0-21.84,9.78-21.84,21.84v34.65H52.39c-12.06,0-21.84,9.78-21.84,21.84v44.7c0,12.06,9.78,21.84,21.84,21.84h33.83v33.3c0,12.06,9.78,21.84,21.84,21.84h44.92c12.06,0,21.84-9.78,21.84-21.84v-33.3h33.9c12.06,0,21.84-9.78,21.84-21.84v-44.7c0-12.06-9.78-21.84-21.84-21.84Zm5.41,65.69c0,5.7-4.62,10.32-10.32,10.32h-40.75v40.75c0,5.7-4.62,10.32-10.32,10.32h-44.36c-5.7,0-10.32-4.62-10.32-10.32v-40.75H57.31c-5.7,0-10.32-4.62-10.32-10.32v-44.36c0-5.7,4.62-10.32,10.32-10.32h40.75v-40.75c0-5.7,4.62-10.32,10.32-10.32h44.36c5.7,0,10.32,4.62,10.32,10.32v40.75h40.75c5.7,0,10.32,4.62,10.32,10.32v44.36Z"
     id="path1227"
     style="fill:none;stroke:#ffffff;stroke-opacity:1;stroke-width:4.2;stroke-dasharray:none;opacity:1" />
  <rect
     class="cls-19"
     x="104"
     y="80.22"
     width="243.72"
     height="128.37"
     id="rect1517"
     style="fill:none;stroke:#ffffff;stroke-opacity:1;stroke-width:4.2;stroke-dasharray:none" />
  <rect
     class="cls-31"
     x="72.89"
     y="371.73"
     width=".62"
     height=".62"
     id="rect1554"
     style="fill:none;stroke:#ffffff;stroke-opacity:1;stroke-width:4.2;stroke-dasharray:none" />
</svg>
