<?xml version="1.0" encoding="UTF-8" standalone="no"?>
<!-- Generator: Adobe Illustrator 13.0.0, SVG Export Plug-In . SVG Version: 6.00 Build 14948)  -->

<svg
   version="1.2"
   id="Layer_3"
   x="0px"
   y="0px"
   width="300"
   height="330"
   viewBox="0 0 299.99999 329.99999"
   xml:space="preserve"
   sodipodi:docname="atarixe.svg"
   inkscape:version="1.2.2 (732a01da63, 2022-12-09)"
   xmlns:inkscape="http://www.inkscape.org/namespaces/inkscape"
   xmlns:sodipodi="http://sodipodi.sourceforge.net/DTD/sodipodi-0.dtd"
   xmlns="http://www.w3.org/2000/svg"
   xmlns:svg="http://www.w3.org/2000/svg"
   xmlns:rdf="http://www.w3.org/1999/02/22-rdf-syntax-ns#"
   xmlns:cc="http://creativecommons.org/ns#"
   xmlns:dc="http://purl.org/dc/elements/1.1/"
   xmlns:ns="&amp;ns_sfw;"><defs
   id="defs94" /><sodipodi:namedview
   id="namedview92"
   pagecolor="#000000"
   bordercolor="#111111"
   borderopacity="1"
   inkscape:showpageshadow="0"
   inkscape:pageopacity="0"
   inkscape:pagecheckerboard="1"
   inkscape:deskcolor="#d1d1d1"
   showgrid="false"
   inkscape:zoom="2.0445042"
   inkscape:cx="299.58363"
   inkscape:cy="175.10357"
   inkscape:window-width="1920"
   inkscape:window-height="1009"
   inkscape:window-x="-8"
   inkscape:window-y="-8"
   inkscape:window-maximized="1"
   inkscape:current-layer="Layer_3" />
<metadata
   id="metadata55">
	<rdf:RDF>
		<cc:Work
   rdf:about="">
			<dc:format>image/svg+xml</dc:format>
			<dc:type
   rdf:resource="http://purl.org/dc/dcmitype/StillImage" />
			
		</cc:Work>
	</rdf:RDF>
	<ns:sfw>
		<ns:slices />
		<ns:sliceSourceBounds
   x="818.479"
   y="376.415"
   width="285.368"
   height="315.489"
   bottomLeftOrigin="true" />
	</ns:sfw>
</metadata>
<path
   fill="#f4f4f4"
   d="M 32.867,324.215 C 18.622,324.213 7.075,312.666 7.073,298.421 v 0 V 34.52 C 7.075,20.275 18.622,8.728 32.867,8.726 v 0 h 233.782 c 14.245,0.002 25.792,11.549 25.792,25.794 v 0 263.901 c 0,14.245 -11.547,25.792 -25.792,25.794 v 0 z M 9.074,34.52 v 263.901 c 0.023,13.141 10.653,23.769 23.793,23.792 v 0 h 233.782 c 13.141,-0.023 23.769,-10.651 23.792,-23.792 v 0 V 34.52 C 290.418,21.38 279.79,10.751 266.649,10.728 v 0 H 32.867 C 19.727,10.751 9.097,21.379 9.074,34.52 Z"
   id="path3" />
<path
   fill="#f4f4f4"
   d="m 36.237,180.302 c -0.002,-18.663 4.614,-36.214 12.452,-51.807 v 0 c 1.128,-2.507 1.585,-4.7 1.585,-6.701 v 0 c 0.006,-4.4 -2.233,-8.056 -5.031,-11.888 v 0 c -2.818,-3.89 -8.196,-8.733 -16.787,-19.029 v 0 C 22.709,83.989 18.971,75.237 18.971,65.516 v 0 c 0.002,-21.345 17.305,-38.648 38.65,-38.65 v 0 c 14.664,0.002 27.068,8.356 33.937,20.142 v 0 c 5.403,9.333 10.979,18.705 17.652,21.122 v 0 c 3.67,1.366 6.47,1.841 9.08,1.841 v 0 c 2.415,0 4.694,-0.412 7.348,-0.967 v 0 c 7.914,-1.655 16.112,-2.651 24.546,-2.651 v 0 c 62.933,0.002 113.949,51.019 113.949,113.949 v 0 c 0,62.933 -51.017,113.949 -113.949,113.949 v 0 c -62.931,0 -113.947,-51.017 -113.947,-113.949 z m 14.257,-50.946 c -7.722,15.35 -12.257,32.598 -12.257,50.945 v 0 c 0,30.918 12.529,58.898 32.788,79.16 v 0 c 20.263,20.261 48.244,32.788 79.16,32.788 v 0 c 30.918,0 58.898,-12.527 79.16,-32.788 v 0 c 20.261,-20.262 32.788,-48.244 32.788,-79.16 v 0 c 0,-30.916 -12.527,-58.896 -32.788,-79.16 v 0 C 209.083,80.882 181.101,68.353 150.185,68.353 v 0 c -8.277,0 -16.335,0.976 -24.136,2.607 v 0 c -2.677,0.56 -5.11,1.011 -7.757,1.011 v 0 c -2.862,0 -5.942,-0.537 -9.778,-1.968 v 0 C 100.743,67.034 95.298,57.307 89.832,48.014 v 0 C 83.266,36.768 71.501,28.864 57.623,28.867 v 0 c -10.125,0 -19.279,4.099 -25.915,10.734 v 0 c -6.635,6.635 -10.734,15.79 -10.734,25.914 v 0 c 0,9.201 3.529,17.495 9.019,24.081 v 0 c 8.535,10.235 13.81,14.944 16.868,19.133 v 0 c 2.825,3.879 5.409,7.941 5.413,13.064 v 0 c 0.002,2.311 -0.535,4.803 -1.761,7.523 v 0 l -0.911,-0.41 z"
   id="path5" />
<path
   fill="#f4f4f4"
   d="m 55.704,180.271 c 0.002,-52.179 42.301,-94.479 94.482,-94.479 v 0 c 52.181,0 94.479,42.301 94.481,94.479 v 0 c -0.002,52.181 -42.301,94.481 -94.481,94.483 v 0 C 98.004,274.752 55.706,232.451 55.704,180.271 Z M 84.792,114.877 C 68.053,131.616 57.705,154.729 57.705,180.27 v 0 c 0,25.541 10.349,48.656 27.087,65.396 v 0 c 16.737,16.736 39.852,27.088 65.394,27.088 v 0 c 25.541,0 48.656,-10.352 65.393,-27.088 v 0 c 16.737,-16.739 27.088,-39.854 27.088,-65.396 v 0 c 0,-25.541 -10.351,-48.654 -27.088,-65.393 v 0 C 198.843,98.14 175.727,87.789 150.186,87.789 v 0 c -25.542,0.001 -48.657,10.352 -65.394,27.088 z"
   id="path7" />
<path
   fill="#f4f4f4"
   d="m 103.271,180.271 c 0,-25.909 21.004,-46.912 46.914,-46.914 v 0 c 25.911,0.002 46.915,21.005 46.915,46.914 v 0 c 0,25.911 -21.004,46.914 -46.915,46.916 v 0 c -25.911,-0.002 -46.914,-21.005 -46.914,-46.916 z m 15.155,-31.759 c -8.13,8.132 -13.153,19.354 -13.155,31.759 v 0 c 0.002,12.407 5.025,23.629 13.155,31.761 v 0 c 8.13,8.128 19.354,13.153 31.759,13.153 v 0 c 12.405,0 23.627,-5.025 31.76,-13.153 v 0 c 8.13,-8.132 13.155,-19.355 13.155,-31.761 v 0 c 0,-12.405 -5.025,-23.627 -13.155,-31.759 v 0 c -8.133,-8.128 -19.354,-13.154 -31.76,-13.154 v 0 c -12.405,0 -23.629,5.026 -31.759,13.154 z"
   id="path9" />
<path
   fill="#f4f4f4"
   d="m 68.989,180.271 c 0,-44.844 36.353,-81.195 81.196,-81.197 v 0 c 44.845,0.002 81.195,36.353 81.197,81.197 v 0 c -0.002,44.844 -36.353,81.196 -81.197,81.196 v 0 c -44.844,0.001 -81.196,-36.352 -81.196,-81.196 z m 25.197,-56 c -14.334,14.336 -23.197,34.128 -23.197,56 v 0 c 0,21.873 8.863,41.664 23.197,55.999 v 0 c 14.333,14.334 34.128,23.197 55.999,23.197 v 0 c 21.873,0 41.665,-8.863 56.001,-23.197 v 0 c 14.332,-14.335 23.194,-34.128 23.194,-55.999 v 0 c 0,-21.873 -8.862,-41.665 -23.194,-56 v 0 C 191.85,109.937 172.058,101.074 150.185,101.074 v 0 c -21.873,0 -41.666,8.863 -55.999,23.197 z"
   id="path11" />
<path
   fill="#f4f4f4"
   d="m 81.354,180.271 c 0.002,-38.014 30.817,-68.829 68.831,-68.832 v 0 c 38.013,0.002 68.83,30.817 68.83,68.832 v 0 c 0,38.013 -30.817,68.83 -68.83,68.83 v 0 c -38.014,0.001 -68.829,-30.817 -68.831,-68.83 z m 21.575,-47.256 c -12.095,12.098 -19.574,28.799 -19.574,47.257 v 0 c 0,18.458 7.479,35.158 19.574,47.255 v 0 c 12.097,12.096 28.797,19.574 47.256,19.576 v 0 c 18.458,-0.002 35.158,-7.48 47.256,-19.576 v 0 c 12.095,-12.097 19.573,-28.799 19.575,-47.255 v 0 c -0.002,-18.458 -7.48,-35.159 -19.575,-47.257 v 0 c -12.098,-12.095 -28.8,-19.574 -47.256,-19.574 v 0 c -18.458,0 -35.159,7.478 -47.256,19.574 z"
   id="path13" />
<path
   fill="#f4f4f4"
   d="m 91.394,180.271 c 0.002,-32.469 26.322,-58.791 58.791,-58.791 v 0 c 32.469,0 58.789,26.322 58.789,58.791 v 0 h 0.002 c -0.002,32.469 -26.322,58.79 -58.791,58.79 v 0 c -32.469,0.001 -58.789,-26.321 -58.791,-58.79 z m 18.635,-40.156 C 99.75,150.394 93.395,164.586 93.395,180.271 v 0 c 0,15.686 6.354,29.877 16.634,40.156 v 0 c 10.279,10.278 24.471,16.634 40.156,16.634 v 0 c 15.686,0 29.877,-6.355 40.156,-16.634 v 0 c 10.279,-10.279 16.634,-24.471 16.634,-40.156 v 0 c 0,-15.686 -6.354,-29.877 -16.634,-40.156 v 0 C 180.062,129.836 165.87,123.481 150.185,123.481 v 0 c -15.685,0 -29.877,6.355 -40.156,16.634 z"
   id="path15" />
<path
   fill="#f4f4f4"
   d="M 29.625,64.292 C 29.627,48.795 42.187,36.235 57.684,36.233 v 0 c 15.498,0.002 28.059,12.562 28.059,28.059 v 0 c 0,15.497 -12.562,28.059 -28.059,28.059 v 0 C 42.186,92.351 29.626,79.79 29.625,64.292 Z m 2,0 C 31.65,78.684 43.292,90.325 57.683,90.35 v 0 C 72.075,90.326 83.716,78.684 83.743,64.292 v 0 C 83.716,49.9 72.075,38.259 57.683,38.234 v 0 C 43.292,38.259 31.65,49.901 31.625,64.292 Z"
   id="path17" />
<path
   fill="#f4f4f4"
   d="m 136.464,214.397 v -1.001 l 0.708,-0.708 -0.708,0.708 v 1.001 h -0.414 l -19.99,-19.992 v -28.271 l 19.99,-19.988 h 28.269 l 19.992,19.988 v 28.272 l -19.99,19.99 h -27.857 z m 27.027,-2.001 18.819,-18.82 v -26.61 l -18.819,-18.818 h -26.613 l -18.817,18.816 v 26.612 l 18.819,18.82 z"
   id="path19" />
<path
   fill="#f4f4f4"
   d="m 140.8,180.271 c 0,-5.185 4.2,-9.387 9.384,-9.387 v 0 c 5.186,0 9.389,4.202 9.389,9.387 v 0 c 0,5.186 -4.203,9.386 -9.389,9.386 v 0 C 145,189.656 140.8,185.456 140.8,180.271 Z m 1.999,0 c 0.008,4.08 3.307,7.379 7.385,7.387 v 0 c 4.08,-0.008 7.381,-3.307 7.39,-7.387 v 0 c -0.009,-4.079 -3.31,-7.38 -7.39,-7.388 v 0 c -4.078,0.008 -7.377,3.308 -7.385,7.388 z"
   id="path21" />
<rect
   x="92.404297"
   y="107.54787"
   transform="rotate(-14.999329)"
   fill="#f4f4f4"
   width="11.998641"
   height="6.1218171"
   id="rect23"
   style="stroke-width:0.99997" />
<rect
   x="53.928661"
   y="121.4044"
   transform="rotate(-25.004433)"
   fill="#f4f4f4"
   width="12.00033"
   height="6.1221685"
   id="rect25"
   style="stroke-width:1.00003" />
<rect
   x="13.615149"
   y="128.35719"
   transform="rotate(-35.002816)"
   fill="#f4f4f4"
   width="11.998651"
   height="6.1218219"
   id="rect27"
   style="stroke-width:0.999971" />
<rect
   x="-27.276638"
   y="128.2187"
   transform="rotate(-45)"
   fill="#f4f4f4"
   width="11.998884"
   height="6.1219416"
   id="rect29"
   style="stroke-width:0.99999" />
<rect
   x="-67.530365"
   y="120.97972"
   transform="rotate(-54.997184)"
   fill="#f4f4f4"
   width="11.998651"
   height="6.1218219"
   id="rect31"
   style="stroke-width:0.999971" />
<rect
   x="-105.90815"
   y="106.83874"
   transform="rotate(-65.00076)"
   fill="#f4f4f4"
   width="11.998822"
   height="6.1219096"
   id="rect33"
   style="stroke-width:0.999985" />
<rect
   x="-141.26308"
   y="86.269043"
   transform="rotate(-75.000671)"
   fill="#f4f4f4"
   width="11.998641"
   height="6.1218171"
   id="rect35"
   style="stroke-width:0.99997" />
<polygon
   fill="#f4f4f4"
   points="201.759,179.639 200.713,191.593 189.503,191.181 195.155,184.876 195.661,179.104 "
   id="polygon37"
   transform="translate(-150,-14)" />
<polygon
   fill="#f4f4f4"
   points="200.713,196.952 201.759,208.906 195.661,209.44 195.081,202.818 189.503,197.303 "
   id="polygon39"
   transform="translate(-150,-14)" />
<rect
   x="-219.00482"
   y="-7.044632"
   transform="rotate(-104.99933)"
   fill="#f4f4f4"
   width="11.999641"
   height="6.1218171"
   id="rect41"
   style="stroke-width:0.99997" />
<rect
   x="-232.86276"
   y="-45.515289"
   transform="rotate(-114.99924)"
   fill="#f4f4f4"
   width="11.998822"
   height="6.1219096"
   id="rect43"
   style="stroke-width:0.999985" />
<rect
   x="-239.8091"
   y="-85.848053"
   transform="rotate(-125.00282)"
   fill="#f4f4f4"
   width="11.998651"
   height="6.1208215"
   id="rect45"
   style="stroke-width:0.999971" />
<rect
   x="-239.67868"
   y="-126.7205"
   transform="rotate(-135)"
   fill="#f4f4f4"
   width="11.998884"
   height="6.1219416"
   id="rect47"
   style="stroke-width:0.99999" />
<rect
   x="-232.40427"
   y="-167.00475"
   transform="rotate(-145.00516)"
   fill="#f4f4f4"
   width="11.998945"
   height="6.1219726"
   id="rect49"
   style="stroke-width:0.999995" />
<rect
   x="-218.2948"
   y="-205.37361"
   transform="rotate(-155.00076)"
   fill="#f4f4f4"
   width="11.998822"
   height="6.1199093"
   id="rect51"
   style="stroke-width:0.999985" />
<rect
   x="-197.73544"
   y="-240.71629"
   transform="rotate(-165.00067)"
   fill="#f4f4f4"
   width="11.999641"
   height="6.1218171"
   id="rect53"
   style="stroke-width:0.99997" />
<polygon
   fill="#f4f4f4"
   points="285.553,292.699 297.506,293.745 297.37,303.272 291.31,299.348 285.019,298.798 "
   id="polygon55"
   transform="translate(-150,-14)" />
<polygon
   fill="#f4f4f4"
   points="302.866,293.745 314.82,292.699 315.354,298.798 309.128,299.342 303.003,303.272 "
   id="polygon57"
   transform="translate(-150,-14)" />
<rect
   x="-104.42073"
   y="-318.46161"
   transform="rotate(165.00067)"
   fill="#f4f4f4"
   width="11.999641"
   height="6.1208167"
   id="rect59"
   style="stroke-width:0.99997" />
<rect
   x="-65.936684"
   y="-332.30856"
   transform="rotate(155.00076)"
   fill="#f4f4f4"
   width="11.999823"
   height="6.1219096"
   id="rect61"
   style="stroke-width:0.999985" />
<rect
   x="-25.605745"
   y="-339.25348"
   transform="rotate(145.00047)"
   fill="#f4f4f4"
   width="12.000633"
   height="6.1213231"
   id="rect63"
   style="stroke-width:1.00005" />
<rect
   x="15.270433"
   y="-339.12097"
   transform="rotate(135)"
   fill="#f4f4f4"
   width="11.999885"
   height="6.1219416"
   id="rect65"
   style="stroke-width:0.99999" />
<rect
   x="55.54689"
   y="-331.85767"
   transform="rotate(124.99953)"
   fill="#f4f4f4"
   width="12.000633"
   height="6.1223235"
   id="rect67"
   style="stroke-width:1.00005" />
<rect
   x="93.924049"
   y="-317.75735"
   transform="rotate(114.99405)"
   fill="#f4f4f4"
   width="11.999315"
   height="6.1216512"
   id="rect69"
   style="stroke-width:0.999943" />
<rect
   x="129.25252"
   y="-297.18573"
   transform="rotate(104.99933)"
   fill="#f4f4f4"
   width="11.998641"
   height="6.1218171"
   id="rect71"
   style="stroke-width:0.99997" />
<polygon
   fill="#f4f4f4"
   points="398.613,208.905 399.659,196.952 410.136,197.303 405.271,203.037 404.711,209.439 "
   id="polygon73"
   transform="translate(-150,-14)" />
<polygon
   fill="#f4f4f4"
   points="399.659,191.592 398.612,179.639 404.712,179.104 405.197,184.657 410.38,191.304 "
   id="polygon75"
   transform="translate(-150,-14)" />
<rect
   x="207.0195"
   y="-203.85153"
   transform="rotate(74.995137)"
   fill="#f4f4f4"
   width="11.998952"
   height="6.1229758"
   id="rect77"
   style="stroke-width:0.999996" />
<rect
   x="220.84128"
   y="-165.37274"
   transform="rotate(65.00076)"
   fill="#f4f4f4"
   width="11.998822"
   height="6.1219096"
   id="rect79"
   style="stroke-width:0.999985" />
<rect
   x="227.83478"
   y="-125.07425"
   transform="rotate(55.00047)"
   fill="#f4f4f4"
   width="12.000633"
   height="6.1233234"
   id="rect81"
   style="stroke-width:1.00005" />
<rect
   x="227.66666"
   y="-84.177147"
   transform="rotate(45)"
   fill="#f4f4f4"
   width="11.998884"
   height="6.1229415"
   id="rect83"
   style="stroke-width:0.99999" />
<rect
   x="220.42677"
   y="-43.899807"
   transform="rotate(34.994837)"
   fill="#f4f4f4"
   width="12.000946"
   height="6.1229725"
   id="rect85"
   style="stroke-width:0.999995" />
<rect
   x="206.29892"
   y="-5.5475826"
   transform="rotate(24.99924)"
   fill="#f4f4f4"
   width="11.998822"
   height="6.1219096"
   id="rect87"
   style="stroke-width:0.999985" />
<rect
   x="185.71854"
   y="29.804794"
   transform="rotate(14.999329)"
   fill="#f4f4f4"
   width="11.998641"
   height="6.122817"
   id="rect89"
   style="stroke-width:0.99997" />
</svg>
