<?xml version="1.0" encoding="UTF-8" standalone="no"?>
<!-- Generator: Adobe Illustrator 13.0.0, SVG Export Plug-In . SVG Version: 6.00 Build 14948)  -->

<svg
   version="1.2"
   id="Layer_3"
   x="0px"
   y="0px"
   width="170"
   height="350.26001"
   viewBox="0 0 169.99999 350.26"
   xml:space="preserve"
   sodipodi:docname="atari5200.svg"
   inkscape:version="1.2.2 (732a01da63, 2022-12-09)"
   xmlns:inkscape="http://www.inkscape.org/namespaces/inkscape"
   xmlns:sodipodi="http://sodipodi.sourceforge.net/DTD/sodipodi-0.dtd"
   xmlns="http://www.w3.org/2000/svg"
   xmlns:svg="http://www.w3.org/2000/svg"
   xmlns:rdf="http://www.w3.org/1999/02/22-rdf-syntax-ns#"
   xmlns:cc="http://creativecommons.org/ns#"
   xmlns:dc="http://purl.org/dc/elements/1.1/"
   xmlns:ns="&amp;ns_sfw;"><defs
   id="defs49" /><sodipodi:namedview
   id="namedview47"
   pagecolor="#000000"
   bordercolor="#111111"
   borderopacity="1"
   inkscape:showpageshadow="0"
   inkscape:pageopacity="0"
   inkscape:pagecheckerboard="1"
   inkscape:deskcolor="#d1d1d1"
   showgrid="false"
   inkscape:zoom="2.0445042"
   inkscape:cx="299.58363"
   inkscape:cy="175.10357"
   inkscape:window-width="1920"
   inkscape:window-height="1009"
   inkscape:window-x="-8"
   inkscape:window-y="-8"
   inkscape:window-maximized="1"
   inkscape:current-layer="Layer_3" />
<metadata
   id="metadata55">
	<rdf:RDF>
		<cc:Work
   rdf:about="">
			<dc:format>image/svg+xml</dc:format>
			<dc:type
   rdf:resource="http://purl.org/dc/dcmitype/StillImage" />
			
		</cc:Work>
	</rdf:RDF>
	<ns:sfw>
		<ns:slices />
		<ns:sliceSourceBounds
   x="885.921"
   y="373.476"
   width="147.01"
   height="330.375"
   bottomLeftOrigin="true" />
	</ns:sfw>
</metadata>
<path
   id="polyline3"
   inkscape:connector-curvature="0"
   fill="#eaeaea"
   d="m 16.53,10.779 v 0.924 l 1.099,189.347 h 1.849 l -1.1,-188.447 h 135.508 l -1.1,188.447 h 1.823 l 1.1,-189.347 V 10.779 H 154.81 17.455 Z" />
<path
   id="polyline5"
   inkscape:connector-curvature="0"
   fill="#eaeaea"
   d="m 19.453,200.949 -1.823,0.2 15.39,137.706 0.099,0.825 h 0.825 34.375 v -1.823 H 34.742 Z" />
<path
   id="polyline7"
   inkscape:connector-curvature="0"
   fill="#eaeaea"
   d="m 152.787,200.949 -15.29,136.908 h -33.526 v 1.823 h 34.353 0.823 l 0.075,-0.825 15.389,-137.706 z" />
<path
   id="path9"
   inkscape:connector-curvature="0"
   fill="#eaeaea"
   d="m 43.461,222.86 c -1.159,0 -2.148,0.928 -2.148,2.099 v 18.013 c 0,1.169 0.989,2.098 2.148,2.098 H 67.47 c 0.804,0 1.406,-0.507 1.774,-1.175 h 0.375 v -0.923 -18.013 c 0,-1.171 -0.964,-2.099 -2.124,-2.099 z m 0,1.824 h 24.034 c 0.199,0 0.3,0.126 0.3,0.275 v 17.088 0.925 c 0,0.147 -0.125,0.274 -0.325,0.274 H 43.461 c -0.2,0 -0.324,-0.127 -0.324,-0.274 v -18.013 c 0,-0.149 0.125,-0.275 0.324,-0.275 z" />
<g
   id="g11"
   transform="translate(-212)">
	<path
   id="path13"
   fill="none"
   stroke="#eaeaea"
   stroke-width="1.8313"
   d="m 273.416,45.92 c 0,0.463 -0.386,0.836 -0.862,0.836 h -25.279 c -0.477,0 -0.864,-0.373 -0.864,-0.836 V 26.702 c 0,-0.463 0.386,-0.836 0.864,-0.836 h 25.279 c 0.476,0 0.862,0.374 0.862,0.836 z" />
	<path
   id="path15"
   fill="none"
   stroke="#eaeaea"
   stroke-width="1.8313"
   d="m 311.629,45.92 c 0,0.463 -0.387,0.836 -0.864,0.836 h -25.278 c -0.476,0 -0.862,-0.373 -0.862,-0.836 V 26.702 c 0,-0.463 0.386,-0.836 0.862,-0.836 h 25.278 c 0.478,0 0.864,0.374 0.864,0.836 z" />
	<path
   id="path17"
   fill="none"
   stroke="#eaeaea"
   stroke-width="1.8313"
   d="m 349.843,45.92 c 0,0.463 -0.387,0.836 -0.863,0.836 H 323.7 c -0.476,0 -0.864,-0.373 -0.864,-0.836 V 26.702 c 0,-0.463 0.389,-0.836 0.864,-0.836 h 25.279 c 0.477,0 0.863,0.374 0.863,0.836 V 45.92 Z" />
</g>
<path
   id="path19"
   inkscape:connector-curvature="0"
   fill="#eaeaea"
   d="m 74.466,222.86 c -1.16,0 -2.149,0.928 -2.149,2.099 v 18.013 c 0,1.169 0.989,2.098 2.149,2.098 h 24.033 c 0.804,0 1.383,-0.51 1.749,-1.175 h 0.4 v -0.923 -18.013 c 0,-1.169 -0.99,-2.099 -2.149,-2.099 z m 0,1.824 h 24.033 c 0.199,0 0.301,0.125 0.301,0.275 v 17.088 0.925 c 0,0.148 -0.102,0.274 -0.301,0.274 H 74.466 c -0.2,0 -0.326,-0.127 -0.326,-0.274 v -18.013 c 0.001,-0.149 0.126,-0.275 0.326,-0.275 z" />
<path
   id="path21"
   inkscape:connector-curvature="0"
   fill="#eaeaea"
   d="m 104.87,222.86 c -1.159,0 -2.147,0.93 -2.147,2.099 v 18.013 c 0,1.167 0.988,2.098 2.147,2.098 h 24.033 c 1.159,0 2.124,-0.931 2.124,-2.098 v -18.013 c 0,-1.169 -0.965,-2.099 -2.124,-2.099 z m 0,1.824 h 24.033 c 0.197,0 0.299,0.125 0.299,0.275 v 18.013 c 0,0.148 -0.102,0.274 -0.299,0.274 H 104.87 c -0.201,0 -0.325,-0.126 -0.325,-0.274 v -18.013 c 0,-0.15 0.124,-0.275 0.325,-0.275 z" />
<path
   id="path23"
   inkscape:connector-curvature="0"
   fill="#eaeaea"
   d="m 43.461,250.217 c -1.159,0 -2.148,0.928 -2.148,2.098 v 18.013 c 0,1.17 0.989,2.1 2.148,2.1 H 67.47 c 0.806,0 1.409,-0.528 1.774,-1.199 h 0.375 v -0.9 -18.013 c 0,-1.17 -0.964,-2.098 -2.124,-2.098 H 43.461 Z m 0,1.823 h 24.034 c 0.199,0 0.3,0.126 0.3,0.274 v 17.089 0.924 c 0,0.15 -0.125,0.274 -0.325,0.274 H 43.461 c -0.2,0 -0.324,-0.124 -0.324,-0.274 v -18.013 c 0,-0.148 0.125,-0.274 0.324,-0.274 z" />
<path
   id="path25"
   inkscape:connector-curvature="0"
   fill="#eaeaea"
   d="m 74.466,250.217 c -1.16,0 -2.149,0.928 -2.149,2.098 v 18.013 c 0,1.17 0.989,2.1 2.149,2.1 h 24.033 c 0.806,0 1.385,-0.531 1.749,-1.199 h 0.4 v -0.9 -18.013 c 0,-1.168 -0.99,-2.098 -2.149,-2.098 H 74.466 Z m 0,1.823 h 24.033 c 0.199,0 0.301,0.125 0.301,0.274 v 17.089 0.924 c 0,0.151 -0.102,0.274 -0.301,0.274 H 74.466 c -0.2,0 -0.326,-0.124 -0.326,-0.274 v -18.013 c 0.001,-0.148 0.126,-0.274 0.326,-0.274 z" />
<path
   id="path27"
   inkscape:connector-curvature="0"
   fill="#eaeaea"
   d="m 104.87,250.217 c -1.159,0 -2.147,0.93 -2.147,2.098 v 18.013 c 0,1.169 0.988,2.1 2.147,2.1 h 24.033 c 1.159,0 2.124,-0.931 2.124,-2.1 v -18.013 c 0,-1.168 -0.965,-2.098 -2.124,-2.098 z m 0,1.823 h 24.033 c 0.197,0 0.299,0.125 0.299,0.274 v 18.013 c 0,0.151 -0.102,0.274 -0.299,0.274 H 104.87 c -0.201,0 -0.325,-0.123 -0.325,-0.274 v -18.013 c 0,-0.149 0.124,-0.274 0.325,-0.274 z" />
<path
   id="path29"
   inkscape:connector-curvature="0"
   fill="#eaeaea"
   d="m 43.461,275.474 c -1.159,0 -2.148,0.953 -2.148,2.124 v 17.988 c 0,1.168 0.989,2.122 2.148,2.122 H 67.47 c 0.804,0 1.406,-0.533 1.774,-1.198 h 0.375 v -0.924 -17.988 c 0,-1.171 -0.964,-2.124 -2.124,-2.124 z m 0,1.823 h 24.034 c 0.199,0 0.3,0.152 0.3,0.301 v 17.089 0.899 c 0,0.149 -0.125,0.274 -0.325,0.274 H 43.461 c -0.2,0 -0.324,-0.125 -0.324,-0.274 v -17.988 c 0,-0.149 0.125,-0.301 0.324,-0.301 z" />
<path
   id="path31"
   inkscape:connector-curvature="0"
   fill="#eaeaea"
   d="m 74.466,275.474 c -1.16,0 -2.149,0.953 -2.149,2.124 v 17.988 c 0,1.168 0.989,2.122 2.149,2.122 h 24.033 c 0.804,0 1.383,-0.534 1.749,-1.198 h 0.4 v -0.924 -17.988 c 0,-1.169 -0.99,-2.124 -2.149,-2.124 z m 0,1.823 h 24.033 c 0.199,0 0.301,0.151 0.301,0.301 v 17.089 0.899 c 0,0.15 -0.102,0.274 -0.301,0.274 H 74.466 c -0.2,0 -0.326,-0.125 -0.326,-0.274 v -17.988 c 0.001,-0.149 0.126,-0.301 0.326,-0.301 z" />
<path
   id="path33"
   inkscape:connector-curvature="0"
   fill="#eaeaea"
   d="m 104.87,275.474 c -1.159,0 -2.147,0.955 -2.147,2.124 v 17.988 c 0,1.168 0.988,2.122 2.147,2.122 h 24.033 c 1.159,0 2.124,-0.954 2.124,-2.122 v -17.988 c 0,-1.169 -0.965,-2.124 -2.124,-2.124 z m 0,1.823 h 24.033 c 0.197,0 0.299,0.151 0.299,0.301 v 17.988 c 0,0.15 -0.102,0.274 -0.299,0.274 H 104.87 c -0.201,0 -0.325,-0.124 -0.325,-0.274 v -17.988 c 0,-0.15 0.124,-0.301 0.325,-0.301 z" />
<path
   id="path35"
   inkscape:connector-curvature="0"
   fill="#eaeaea"
   d="m 43.461,300.382 c -1.159,0 -2.148,0.956 -2.148,2.124 v 17.988 c 0,1.169 0.989,2.098 2.148,2.098 H 67.47 c 0.804,0 1.406,-0.509 1.774,-1.175 h 0.375 v -0.923 -17.988 c 0,-1.168 -0.964,-2.124 -2.124,-2.124 z m 0,1.824 h 24.034 c 0.199,0 0.3,0.15 0.3,0.3 v 17.063 0.926 c 0,0.148 -0.125,0.274 -0.325,0.274 H 43.461 c -0.2,0 -0.324,-0.126 -0.324,-0.274 v -17.988 c 0,-0.151 0.125,-0.301 0.324,-0.301 z" />
<path
   id="path37"
   inkscape:connector-curvature="0"
   fill="#eaeaea"
   d="m 74.466,300.382 c -1.16,0 -2.149,0.956 -2.149,2.124 v 17.988 c 0,1.169 0.989,2.098 2.149,2.098 h 24.033 c 0.804,0 1.383,-0.512 1.749,-1.175 h 0.4 v -0.923 -17.988 c 0,-1.168 -0.99,-2.124 -2.149,-2.124 z m 0,1.824 h 24.033 c 0.199,0 0.301,0.148 0.301,0.3 v 17.063 0.926 c 0,0.148 -0.102,0.274 -0.301,0.274 H 74.466 c -0.2,0 -0.326,-0.126 -0.326,-0.274 v -17.988 c 0.001,-0.151 0.126,-0.301 0.326,-0.301 z" />
<path
   id="path39"
   inkscape:connector-curvature="0"
   fill="#eaeaea"
   d="m 104.87,300.382 c -1.159,0 -2.147,0.956 -2.147,2.124 v 17.988 c 0,1.168 0.988,2.098 2.147,2.098 h 24.033 c 1.159,0 2.124,-0.93 2.124,-2.098 v -17.988 c 0,-1.168 -0.965,-2.124 -2.124,-2.124 z m 0,1.824 h 24.033 c 0.197,0 0.299,0.148 0.299,0.3 v 17.988 c 0,0.148 -0.102,0.274 -0.299,0.274 H 104.87 c -0.201,0 -0.325,-0.126 -0.325,-0.274 v -17.988 c 0,-0.152 0.124,-0.3 0.325,-0.3 z" />
<path
   id="rect41"
   inkscape:connector-curvature="0"
   fill="#eaeaea"
   d="m 67.271,325.766 v 0.924 13.541 0.924 h 0.899 35.902 0.923 v -0.924 -13.541 -0.924 H 104.072 68.17 Z m 1.824,1.823 h 34.051 v 11.717 H 69.095 Z" />
<path
   id="line47"
   inkscape:connector-curvature="0"
   fill="#eaeaea"
   d="m 18.729,180.712 v 1.851 h 135.158 v -1.851 z" />
<path
   id="line49"
   inkscape:connector-curvature="0"
   fill="#eaeaea"
   d="m 18.729,201.224 v 1.85 h 135.158 v -1.85 z" />
<g
   id="g51"
   transform="translate(-212)">
	<path
   fill="#eaeaea"
   d="m 300.526,149.218 c -0.037,-0.545 -0.481,-0.97 -1.026,-0.97 v 0 c -0.547,0 -0.988,0.425 -1.025,0.97 v 0 l -0.062,0.91 -0.91,-0.056 c -4.301,-0.268 -8.371,-1.399 -12.036,-3.22 v 0 l -0.819,-0.406 0.404,-0.817 c 0.076,-0.155 0.111,-0.314 0.111,-0.469 v 0 c -0.002,-0.361 -0.182,-0.699 -0.514,-0.891 v 0 c -0.165,-0.095 -0.333,-0.136 -0.508,-0.136 v 0 c -0.336,0 -0.667,0.165 -0.867,0.466 v 0 l -0.508,0.761 -0.762,-0.507 c -3.486,-2.324 -6.482,-5.321 -8.808,-8.807 v 0 l -0.506,-0.761 0.76,-0.508 c 0.301,-0.2 0.466,-0.533 0.466,-0.869 v 0 c 0,-0.173 -0.042,-0.344 -0.136,-0.507 v 0 c -0.194,-0.334 -0.533,-0.512 -0.894,-0.514 v 0 c -0.157,0 -0.312,0.035 -0.462,0.109 v 0 l -0.821,0.407 -0.407,-0.819 c -1.82,-3.666 -2.949,-7.735 -3.217,-12.036 v 0 l -0.058,-0.91 0.91,-0.06 c 0.545,-0.037 0.97,-0.481 0.97,-1.025 v 0 c 0,-0.547 -0.425,-0.991 -0.97,-1.028 v 0 l -0.91,-0.062 0.058,-0.91 c 0.266,-4.301 1.397,-8.369 3.217,-12.034 v 0 l 0.407,-0.817 0.817,0.405 c 0.15,0.074 0.31,0.109 0.466,0.109 v 0 c 0.361,-0.002 0.702,-0.182 0.892,-0.512 v 0 c 0.097,-0.167 0.138,-0.338 0.138,-0.512 v 0 c 0,-0.334 -0.165,-0.667 -0.464,-0.865 v 0 l -0.764,-0.508 0.508,-0.761 c 2.324,-3.488 5.32,-6.485 8.806,-8.809 v 0 l 0.762,-0.51 0.51,0.764 c 0.198,0.299 0.528,0.466 0.865,0.466 v 0 c 0.175,0 0.347,-0.043 0.51,-0.136 v 0 c 0.33,-0.192 0.512,-0.532 0.512,-0.892 v 0 c 0,-0.159 -0.033,-0.315 -0.107,-0.464 v 0 l -0.406,-0.821 0.819,-0.407 c 3.665,-1.82 7.735,-2.949 12.034,-3.219 v 0 l 0.91,-0.058 0.062,0.913 c 0.04,0.544 0.481,0.972 1.028,0.97 v 0 c 0.542,0.002 0.989,-0.425 1.026,-0.97 v 0 l 0.06,-0.91 0.91,0.056 c 4.301,0.27 8.371,1.399 12.036,3.219 v 0 l 0.827,0.411 -0.419,0.825 c -0.071,0.143 -0.106,0.295 -0.106,0.456 v 0 c 0.002,0.359 0.182,0.698 0.514,0.89 v 0 c 0.161,0.095 0.336,0.138 0.51,0.138 v 0 c 0.338,-0.002 0.666,-0.167 0.866,-0.466 v 0 l 0.508,-0.764 0.764,0.51 c 3.484,2.324 6.48,5.321 8.805,8.806 v 0 l 0.51,0.764 -0.766,0.508 c -0.3,0.198 -0.465,0.528 -0.465,0.867 v 0 c 0,0.171 0.042,0.343 0.141,0.51 v 0 c 0.188,0.331 0.526,0.51 0.89,0.512 v 0 c 0.159,0 0.315,-0.035 0.466,-0.109 v 0 l 0.817,-0.405 0.409,0.817 c 1.82,3.666 2.949,7.733 3.217,12.034 v 0 l 0.059,0.912 -0.91,0.06 c -0.545,0.035 -0.971,0.48 -0.971,1.028 v 0 c 0,0.544 0.424,0.988 0.971,1.025 v 0 l 0.908,0.06 -0.057,0.912 c -0.268,4.301 -1.396,8.369 -3.217,12.034 v 0 l -0.409,0.821 -0.819,-0.409 c -0.152,-0.076 -0.305,-0.109 -0.464,-0.109 v 0 c -0.361,0.002 -0.697,0.18 -0.892,0.512 v 0 l -0.793,-0.456 0.789,0.464 c -0.093,0.159 -0.135,0.326 -0.135,0.501 v 0 c 0,0.334 0.167,0.667 0.469,0.867 v 0 l 0.764,0.507 -0.508,0.764 c -2.326,3.486 -5.322,6.482 -8.809,8.807 v 0 l -0.762,0.505 -0.507,-0.757 c -0.205,-0.306 -0.533,-0.468 -0.867,-0.468 v 0 c -0.171,0 -0.345,0.041 -0.514,0.138 v 0 c -0.33,0.19 -0.508,0.528 -0.512,0.892 v 0 c 0,0.155 0.035,0.312 0.111,0.464 v 0 l 0.406,0.819 -0.819,0.409 c -3.663,1.82 -7.733,2.949 -12.034,3.217 v 0 l -0.912,0.056 z m -3.668,-1.031 c 0.429,-1.036 1.445,-1.77 2.642,-1.77 v 0 c 1.197,0 2.213,0.732 2.642,1.77 v 0 c 3.509,-0.308 6.837,-1.223 9.886,-2.642 v 0 c -0.017,-0.127 -0.025,-0.255 -0.025,-0.382 v 0 c -0.002,-0.982 0.51,-1.951 1.431,-2.479 v 0 c 0.445,-0.258 0.94,-0.384 1.426,-0.384 v 0 c 0.63,0 1.246,0.21 1.749,0.598 v 0 c 2.809,-1.977 5.26,-4.428 7.238,-7.236 v 0 c -0.39,-0.503 -0.6,-1.122 -0.6,-1.753 v 0 c 0,-0.478 0.122,-0.975 0.386,-1.423 v 0 l -0.002,-10e-4 c 0.528,-0.917 1.494,-1.432 2.479,-1.43 v 0 c 0.127,0 0.255,0.008 0.383,0.026 v 0 c 1.418,-3.05 2.334,-6.38 2.644,-9.887 v 0 c -1.037,-0.43 -1.77,-1.446 -1.77,-2.642 v 0 c 0,-1.197 0.732,-2.215 1.77,-2.645 v 0 c -0.31,-3.507 -1.226,-6.838 -2.645,-9.888 v 0 c -0.128,0.017 -0.255,0.026 -0.382,0.026 v 0 c -0.984,0.002 -1.95,-0.512 -2.477,-1.426 v 0 c -0.26,-0.448 -0.386,-0.943 -0.386,-1.426 v 0 c 0,-0.63 0.209,-1.248 0.598,-1.751 v 0 c -1.979,-2.809 -4.43,-5.26 -7.237,-7.238 v 0 c -0.503,0.387 -1.121,0.596 -1.75,0.596 v 0 c -0.485,0 -0.98,-0.124 -1.424,-0.382 v 0 c -0.919,-0.528 -1.433,-1.494 -1.431,-2.477 v 0 c 0,-0.127 0.009,-0.255 0.025,-0.383 v 0 c -3.05,-1.418 -6.381,-2.334 -9.888,-2.643 v 0 c -0.429,1.036 -1.443,1.77 -2.64,1.771 v 0 c -1.199,-0.001 -2.214,-0.736 -2.644,-1.771 v 0 c -3.509,0.309 -6.838,1.225 -9.889,2.644 v 0 c 0.017,0.127 0.025,0.255 0.025,0.382 v 0 c 0.002,0.982 -0.512,1.946 -1.428,2.477 v 0 c -0.448,0.258 -0.941,0.384 -1.426,0.382 v 0 c -0.629,0 -1.247,-0.209 -1.75,-0.596 v 0 c -2.808,1.978 -5.259,4.43 -7.236,7.239 v 0 c 0.387,0.503 0.596,1.12 0.596,1.749 v 0 c 0,0.485 -0.126,0.979 -0.384,1.426 v 0 c -0.528,0.918 -1.494,1.43 -2.479,1.428 v 0 c -0.127,0 -0.254,-0.009 -0.381,-0.026 v 0 c -1.418,3.05 -2.335,6.38 -2.643,9.888 v 0 c 1.036,0.429 1.768,1.447 1.77,2.645 v 0 c 0,1.196 -0.733,2.212 -1.769,2.642 v 0 c 0.309,3.507 1.225,6.837 2.643,9.887 v 0 c 0.127,-0.018 0.254,-0.026 0.381,-0.026 v 0 c 0.984,-0.002 1.948,0.512 2.48,1.43 v 0 c 0.258,0.448 0.382,0.941 0.382,1.424 v 0 c 0,0.631 -0.209,1.248 -0.597,1.751 v 0 c 1.978,2.808 4.428,5.26 7.237,7.238 v 0 c 0.503,-0.388 1.121,-0.598 1.751,-0.598 v 0 c 0.481,0 0.978,0.124 1.426,0.384 v 0 c 0.916,0.528 1.428,1.495 1.426,2.477 v 0 c 0,0.128 -0.009,0.256 -0.026,0.384 v 0 c 3.056,1.416 6.386,2.333 9.893,2.641 z"
   id="path26" />
</g>
<path
   id="circle55"
   inkscape:connector-curvature="0"
   fill="#eaeaea"
   d="m 87.507,65.167 c -29.471,0 -53.389,23.917 -53.389,53.389 0,29.471 23.917,53.388 53.389,53.388 29.473,0 53.364,-23.917 53.364,-53.388 0,-29.472 -23.892,-53.389 -53.364,-53.389 z m 0,1.824 c 28.482,0 51.539,23.083 51.539,51.565 0,28.481 -23.057,51.54 -51.539,51.54 -28.481,0 -51.565,-23.059 -51.565,-51.54 0,-28.482 23.083,-51.565 51.565,-51.565 z" />
<path
   id="circle57"
   inkscape:connector-curvature="0"
   fill="#eaeaea"
   d="m 87.507,71.938 c -25.729,0 -46.619,20.889 -46.619,46.618 0,25.729 20.89,46.593 46.619,46.593 25.729,0 46.593,-20.865 46.593,-46.593 0,-25.729 -20.864,-46.618 -46.593,-46.618 z m 0,1.848 c 24.74,0 44.769,20.03 44.769,44.77 0,24.739 -20.028,44.769 -44.769,44.769 -24.74,0 -44.794,-20.03 -44.794,-44.769 -10e-4,-24.74 20.054,-44.77 44.794,-44.77 z" />
<path
   id="circle59"
   inkscape:connector-curvature="0"
   fill="#eaeaea"
   d="m 87.507,95.671 c -12.631,0 -22.909,10.253 -22.909,22.885 0,12.631 10.278,22.884 22.909,22.884 12.631,0 22.885,-10.253 22.885,-22.884 0,-12.632 -10.254,-22.885 -22.885,-22.885 z m 0,1.824 c 11.643,0 21.061,9.419 21.061,21.062 0,11.642 -9.418,21.06 -21.061,21.06 -11.641,0 -21.061,-9.418 -21.061,-21.06 0,-11.643 9.42,-21.062 21.061,-21.062 z" />
<path
   id="rect61"
   inkscape:connector-curvature="0"
   fill="#eaeaea"
   d="m 23.925,15.426 v 0.899 42.971 0.924 h 0.925 122.566 0.925 V 59.296 16.326 15.427 H 147.416 24.85 23.925 Z m 1.824,1.824 H 146.491 V 58.396 H 25.749 Z" />
<path
   id="rect63"
   inkscape:connector-curvature="0"
   fill="#eaeaea"
   d="m 28.747,20.173 v 0.924 30.279 0.924 h 0.924 112.923 0.924 V 51.376 21.097 20.173 H 142.594 29.671 Z m 1.823,1.848 h 111.1 V 50.452 H 30.57 Z" />
<path
   id="line65"
   inkscape:connector-curvature="0"
   fill="#eaeaea"
   d="m 17.929,10.905 -0.95,1.574 7.496,4.646 0.974,-1.574 z" />
<path
   id="line67"
   inkscape:connector-curvature="0"
   fill="#eaeaea"
   d="m 25.474,15.675 -1.273,1.299 4.821,4.772 1.273,-1.299 z" />
<path
   id="line69"
   inkscape:connector-curvature="0"
   fill="#eaeaea"
   d="m 154.312,10.929 -7.395,4.622 0.975,1.549 7.395,-4.621 z" />
<path
   id="line71"
   inkscape:connector-curvature="0"
   fill="#eaeaea"
   d="m 146.566,15.701 -4.621,4.747 1.299,1.299 4.647,-4.772 z" />
<path
   id="line73"
   inkscape:connector-curvature="0"
   fill="#eaeaea"
   d="m 143.37,50.902 -1.575,0.95 4.646,7.794 1.574,-0.925 z" />
<path
   id="line75"
   inkscape:connector-curvature="0"
   fill="#eaeaea"
   d="m 28.872,50.902 -4.821,7.919 1.574,0.975 4.822,-7.944 z" />
<path
   id="path77"
   inkscape:connector-curvature="0"
   fill="#eaeaea"
   d="m 154.711,32.115 v 1.823 h 2.024 c 0.311,0 0.557,0.059 0.698,0.201 0.145,0.141 0.387,0.529 0.227,1.699 -0.112,0.805 -0.235,2.784 -0.375,5.545 -0.142,2.762 -0.301,6.217 -0.45,9.668 -0.297,6.905 -0.566,13.886 -0.65,15.065 -0.094,1.311 -0.157,2.444 -0.399,3.123 -0.239,0.679 -0.425,0.965 -1.45,1.074 l 0.201,1.799 c 1.54,-0.165 2.572,-1.119 2.973,-2.248 0.4,-1.131 0.411,-2.371 0.499,-3.624 0.101,-1.385 0.354,-8.19 0.651,-15.09 0.148,-3.45 0.31,-6.917 0.449,-9.668 0.141,-2.751 0.277,-4.874 0.35,-5.396 0.205,-1.484 -0.064,-2.588 -0.726,-3.248 -0.658,-0.66 -1.483,-0.724 -1.997,-0.724 h -2.025 z" />
<path
   id="path79"
   inkscape:connector-curvature="0"
   fill="#eaeaea"
   d="m 15.306,32.115 c -0.514,0 -1.339,0.064 -1.999,0.724 -0.659,0.66 -0.929,1.763 -0.724,3.248 0.072,0.523 0.21,2.645 0.35,5.396 0.141,2.752 0.302,6.219 0.449,9.668 0.298,6.9 0.552,13.705 0.649,15.09 0.09,1.253 0.1,2.493 0.501,3.624 0.4,1.129 1.432,2.083 2.973,2.248 l 0.2,-1.799 c -1.024,-0.109 -1.209,-0.396 -1.449,-1.074 -0.241,-0.679 -0.306,-1.812 -0.4,-3.123 -0.083,-1.179 -0.351,-8.16 -0.649,-15.065 -0.148,-3.452 -0.31,-6.907 -0.45,-9.668 -0.141,-2.761 -0.264,-4.741 -0.375,-5.545 -0.161,-1.169 0.083,-1.558 0.225,-1.699 0.142,-0.142 0.389,-0.201 0.699,-0.201 h 2.023 v -1.823 h -2.023 z" />
<rect
   x="54.129997"
   y="330.36099"
   fill="#f4f4f4"
   width="10.518"
   height="3.747"
   id="rect42" />
<rect
   x="107.38"
   y="330.36099"
   fill="#f4f4f4"
   width="10.518"
   height="3.747"
   id="rect44" />
</svg>
