<?xml version="1.0" encoding="UTF-8" standalone="no"?>
<!-- Generator: Adobe Illustrator 13.0.0, SVG Export Plug-In . SVG Version: 6.00 Build 14948)  -->

<svg
   version="1.2"
   id="Layer_3"
   x="0px"
   y="0px"
   width="400"
   height="310"
   viewBox="0 0 400.00002 310.00001"
   xml:space="preserve"
   sodipodi:docname="atarijaguar.svg"
   inkscape:version="1.2.2 (732a01da63, 2022-12-09)"
   xmlns:inkscape="http://www.inkscape.org/namespaces/inkscape"
   xmlns:sodipodi="http://sodipodi.sourceforge.net/DTD/sodipodi-0.dtd"
   xmlns="http://www.w3.org/2000/svg"
   xmlns:svg="http://www.w3.org/2000/svg"
   xmlns:ns="&amp;ns_sfw;"><defs
   id="defs107" /><sodipodi:namedview
   id="namedview105"
   pagecolor="#000000"
   bordercolor="#111111"
   borderopacity="1"
   inkscape:showpageshadow="0"
   inkscape:pageopacity="0"
   inkscape:pagecheckerboard="1"
   inkscape:deskcolor="#d1d1d1"
   showgrid="false"
   inkscape:zoom="2.0444976"
   inkscape:cx="299.09549"
   inkscape:cy="175.10415"
   inkscape:window-width="1920"
   inkscape:window-height="1009"
   inkscape:window-x="-8"
   inkscape:window-y="-8"
   inkscape:window-maximized="1"
   inkscape:current-layer="Layer_3" />
<metadata
   id="metadata2">
	<ns:sfw>
		<ns:slices />
		<ns:sliceSourceBounds
   height="297.403"
   width="383.113"
   y="396.43"
   x="768.302"
   bottomLeftOrigin="true" />
	</ns:sfw>
</metadata>
<path
   fill="#f4f4f4"
   d="m 324.144,303.612 -1.441,-0.251 0.758,-1.251 c 13.222,-21.773 27.552,-66.131 28.189,-93.506 v 0 c 0.088,-3.7 0.128,-7.365 0.128,-10.954 v 0 c 0.013,-23.146 -1.756,-43.25 -3.42,-48.734 v 0 c -0.987,-3.296 -2.014,-5.638 -3.955,-7.171 v 0 c -1.938,-1.54 -5.016,-2.451 -10.42,-2.449 v 0 H 62.928 c -5.404,-0.002 -8.484,0.909 -10.419,2.449 v 0 c -1.942,1.533 -2.968,3.875 -3.955,7.171 v 0 c -1.666,5.486 -3.436,25.592 -3.423,48.734 v 0 c 0,3.587 0.04,7.251 0.13,10.954 v 0 c 0.638,27.375 14.968,71.732 28.19,93.506 v 0 l 0.759,1.251 -1.445,0.251 c -2.293,0.397 -5.602,0.585 -9.414,0.585 v 0 c -9.54,-0.009 -22.083,-1.172 -28.77,-3.632 v 0 l -0.429,-0.159 -0.158,-0.428 C 24.05,273.461 6.894,233.87 6.898,177.98 v 0 c 0,-11.465 0.722,-23.616 2.373,-36.48 v 0 C 18.9,65.869 58.414,27.95 119.131,19.971 v 0 l 0.263,1.981 C 59.445,29.972 20.959,66.719 11.255,141.754 v 0 c -1.641,12.78 -2.356,24.843 -2.356,36.226 v 0 c 0.004,55.184 16.81,94.281 26.805,120.862 v 0 c 6.306,2.2 18.513,3.366 27.647,3.355 v 0 c 2.958,0.002 5.607,-0.119 7.619,-0.35 v 0 C 57.754,279.232 43.948,236.076 43.262,208.651 v 0 c -0.09,-3.721 -0.13,-7.4 -0.132,-11.002 v 0 c 0.013,-23.313 1.708,-43.25 3.507,-49.309 v 0 c 1.014,-3.37 2.154,-6.196 4.628,-8.165 v 0 c 2.482,-1.958 6.069,-2.882 11.663,-2.882 v 0 h 271.055 c 5.594,0 9.183,0.924 11.661,2.882 v 0 c 2.476,1.969 3.616,4.794 4.63,8.165 v 0 c 1.795,6.057 3.492,25.993 3.505,49.309 v 0 c -0.002,3.604 -0.042,7.283 -0.131,11.002 v 0 c -0.683,27.425 -14.491,70.581 -27.707,93.196 v 0 c 2.01,0.23 4.661,0.352 7.619,0.35 v 0 c 9.132,0.011 21.34,-1.155 27.647,-3.355 v 0 c 9.993,-26.583 26.801,-65.679 26.805,-120.862 v 0 c -0.002,-11.381 -0.717,-23.445 -2.355,-36.226 v 0 C 375.952,66.719 337.467,29.971 277.517,21.952 v 0 h 0.002 l 0.261,-1.981 C 338.497,27.95 378.011,65.869 387.64,141.5 v 0 c 1.651,12.866 2.371,25.015 2.371,36.48 v 0 c 0.004,55.888 -17.151,95.479 -27.094,121.998 v 0 l -0.162,0.43 -0.427,0.157 c -6.688,2.46 -19.23,3.623 -28.769,3.634 v 0 c -3.814,-0.002 -7.122,-0.19 -9.415,-0.587 z"
   id="path4" />
<path
   fill="#f4f4f4"
   d="m 126.596,37.129 c -4.97,-0.002 -9,-4.029 -9,-9.001 v 0 -4.167 c 0.004,-2.669 1.702,-5.061 4.619,-7.075 v 0 c 2.935,-2.03 7.187,-3.797 12.767,-5.288 v 0 C 146.138,8.627 162.619,6.797 184.26,6.794 v 0 h 28.388 c 32.481,0.027 53.269,4.063 62.045,10.091 v 0 c 2.917,2.014 4.615,4.405 4.621,7.075 v 0 4.167 c -0.002,4.972 -4.029,8.999 -9.001,9.001 v 0 -1 -1 c 3.867,-0.006 6.994,-3.135 7,-7 v 0 -4.167 c 0.006,-1.748 -1.11,-3.585 -3.76,-5.431 v 0 c -2.632,-1.829 -6.703,-3.552 -12.144,-4.999 v 0 C 250.524,10.627 234.173,8.792 212.647,8.794 v 0 h -28.388 c -32.269,-0.027 -52.98,4.188 -60.906,9.736 v 0 c -2.649,1.846 -3.764,3.683 -3.76,5.431 v 0 4.167 c 0.008,3.865 3.135,6.994 7,7 v 0 h 143.718 v 1 1 H 126.596 Z"
   id="path6" />
<path
   fill="#f4f4f4"
   d="m 247.731,51.711 h -98.553 c -4.73,0.002 -7.707,-0.77 -9.727,-1.719 v 0 c -2.004,-0.942 -3.076,-2.068 -3.703,-2.423 v 0 c -1.865,-1.132 -6.858,-5.497 -8.229,-6.688 v 0 c -1.189,-1.062 -2.892,-1.971 -3.778,-4.317 v 0 l 1.874,-0.703 c 0.616,1.651 1.745,2.242 3.221,3.514 v 0 c 1.297,1.143 6.47,5.611 7.941,6.478 v 0 c 1.037,0.645 1.801,1.521 3.524,2.328 v 0 c 1.709,0.801 4.356,1.529 8.876,1.531 v 0 h 98.553 c 4.521,-0.002 7.17,-0.73 8.877,-1.531 v 0 c 1.726,-0.807 2.487,-1.683 3.526,-2.328 v 0 c 1.469,-0.865 6.642,-5.335 7.938,-6.478 v 0 c 1.477,-1.272 2.605,-1.863 3.222,-3.514 v 0 h 0.002 l 1.871,0.701 c -0.884,2.348 -2.587,3.257 -3.777,4.319 v 0 c -1.371,1.19 -6.364,5.555 -8.228,6.688 v 0 c -0.628,0.355 -1.7,1.481 -3.704,2.423 v 0 c -2.019,0.949 -4.989,1.72 -9.708,1.719 v 0 c -0.004,0 -0.011,0 -0.018,0 z"
   id="path8" />
<path
   fill="#f4f4f4"
   d="M 231.981,66.044 H 164.93 c -11.387,0.01 -17.476,-6.718 -25.099,-15.772 v 0 l 1.528,-1.29 c 7.712,9.116 13.124,15.052 23.571,15.062 v 0 h 67.052 c 10.447,-0.01 15.857,-5.946 23.569,-15.062 v 0 l 0.002,0.002 1.527,1.288 c -7.617,9.047 -13.701,15.772 -25.072,15.772 v 0 c -0.008,0 -0.018,0 -0.027,0 z"
   id="path10" />
<path
   fill="#f4f4f4"
   d="m 156.146,64.84 1.401,-1.426 c 4.628,4.533 14.829,12.121 33.465,12.131 v 0 l 14.887,-0.002 c 18.636,-0.008 28.837,-7.596 33.466,-12.129 v 0 h 0.002 l 1.4,1.426 c -4.872,4.802 -15.67,12.713 -34.868,12.703 v 0 l -14.887,0.002 C 171.814,77.554 161.016,69.642 156.146,64.84 Z"
   id="path12" />
<path
   fill="#f4f4f4"
   d="m 47.928,133.962 c -5.875,-0.004 -12.802,-1.37 -18.338,-5.589 v 0 c -5.545,-4.215 -9.554,-11.331 -9.538,-22.335 v 0 c 0,-4.264 0.59,-9.118 1.905,-14.642 v 0 l 1.945,0.464 c -1.286,5.398 -1.851,10.099 -1.851,14.178 v 0 c 0.017,10.54 3.72,16.885 8.752,20.745 v 0 c 5.039,3.856 11.55,5.182 17.125,5.18 v 0 H 348.76 c 5.574,0.002 12.084,-1.323 17.124,-5.18 v 0 c 5.03,-3.86 8.733,-10.208 8.75,-20.745 v 0 c 0,-4.079 -0.564,-8.78 -1.848,-14.178 v 0 h 0.002 l 1.945,-0.464 c 1.311,5.524 1.9,10.378 1.902,14.642 v 0 c 0.017,11.004 -3.992,18.12 -9.537,22.335 v 0 c -5.539,4.22 -12.466,5.585 -18.339,5.589 v 0 z"
   id="path14" />
<path
   fill="#f4f4f4"
   d="m 284.623,302.96 h -1.001 V 166.629 c -0.007,-3.867 -3.136,-6.994 -7,-7.002 v 0 H 120.288 c -3.865,0.008 -6.991,3.135 -7,7.002 v 0 136.333 h -1 C 98.594,302.96 72.635,302.96 72.596,302.96 v 0 -1.999 c 0.039,0 24.777,0 38.693,0 v 0 -134.332 c 0,-4.972 4.028,-9.001 8.999,-9.001 v 0 h 156.334 c 4.971,0 8.999,4.028 9.001,9.001 v 0 134.332 c 15.938,0 38.639,0 38.639,0 v 0 2.001 c 0,-0.002 -23.666,-0.002 -39.639,-0.002 z m -212.027,0 v 0.002 z"
   id="path16" />
<polygon
   fill="#f4f4f4"
   points="384.263,311.128 384.263,313.127 212.263,313.127 212.263,311.128 "
   id="polygon18"
   transform="translate(-100,-14)" />
<g
   id="g26"
   transform="translate(-100,-14)">
	<path
   fill="#f4f4f4"
   d="m 240.763,200.961 v -0.999 -1.002 h 19.167 c 3.083,-0.004 5.576,-2.499 5.583,-5.582 v 0 c -0.006,-3.084 -2.5,-5.579 -5.583,-5.583 v 0 h -19.167 c -3.085,0.004 -5.579,2.499 -5.584,5.583 v 0 c 0.006,3.083 2.501,5.578 5.584,5.582 v 0 1.002 0.999 c -4.19,0 -7.583,-3.397 -7.585,-7.583 v 0 c 0.002,-4.188 3.396,-7.583 7.585,-7.583 v 0 h 19.167 c 4.188,0 7.581,3.395 7.583,7.583 v 0 c -0.002,4.186 -3.395,7.583 -7.583,7.583 v 0 z"
   id="path20" />
	<path
   fill="#f4f4f4"
   d="m 288.845,200.961 v -0.999 -1.002 l 19.167,0.002 c 3.083,-0.006 5.578,-2.501 5.582,-5.584 v 0 c -0.004,-3.084 -2.499,-5.579 -5.582,-5.583 v 0 h -19.167 c -3.083,0.004 -5.579,2.499 -5.583,5.583 v 0 c 0.004,3.083 2.5,5.578 5.583,5.582 v 0 1.002 0.999 c -4.188,0 -7.583,-3.397 -7.583,-7.583 v 0 c 0,-4.188 3.395,-7.583 7.583,-7.583 v 0 h 19.167 c 4.188,0 7.583,3.395 7.583,7.583 v 0 c 0,4.186 -3.395,7.583 -7.583,7.583 v 0 z"
   id="path22" />
	<path
   fill="#f4f4f4"
   d="m 336.927,200.962 v -1.001 -1.001 l 19.168,0.002 c 3.083,-0.006 5.578,-2.5 5.584,-5.584 v 0 c -0.006,-3.085 -2.499,-5.579 -5.584,-5.584 v 0 h -19.168 c -3.081,0.005 -5.576,2.499 -5.582,5.584 v 0 c 0.006,3.084 2.501,5.578 5.582,5.582 v 0 1.001 1.001 c -4.188,-0.002 -7.582,-3.396 -7.582,-7.584 v 0 c 0,-4.189 3.395,-7.583 7.582,-7.585 v 0 l 19.168,0.002 c 4.189,0 7.583,3.394 7.583,7.583 v 0 c 0,4.188 -3.394,7.582 -7.583,7.584 v 0 z"
   id="path24" />
</g>
<g
   id="g34"
   transform="translate(-100,-14)">
	<path
   fill="#f4f4f4"
   d="m 240.762,232.518 v -1.002 -0.999 h 19.168 c 3.083,-0.005 5.577,-2.501 5.582,-5.584 v 0 c -0.004,-3.084 -2.499,-5.577 -5.582,-5.583 v 0 h -19.168 c -3.083,0.006 -5.577,2.499 -5.583,5.583 v 0 c 0.006,3.083 2.5,5.579 5.583,5.584 v 0 0.999 1.002 c -4.188,-0.002 -7.583,-3.396 -7.583,-7.585 v 0 c 0,-4.188 3.395,-7.583 7.583,-7.583 v 0 h 19.168 c 4.188,0 7.582,3.396 7.583,7.583 v 0 c -0.002,4.188 -3.395,7.583 -7.583,7.585 v 0 z"
   id="path28" />
	<path
   fill="#f4f4f4"
   d="m 288.844,232.518 v -1.002 -0.999 h 19.167 c 3.083,-0.005 5.577,-2.501 5.582,-5.584 v 0 c -0.005,-3.084 -2.499,-5.577 -5.582,-5.583 v 0 h -19.167 c -3.083,0.006 -5.577,2.499 -5.583,5.583 v 0 c 0.006,3.083 2.5,5.579 5.583,5.584 v 0 0.999 1.002 c -4.188,-0.002 -7.581,-3.396 -7.583,-7.585 v 0 c 0.002,-4.188 3.395,-7.583 7.583,-7.583 v 0 h 19.167 c 4.188,0 7.584,3.396 7.584,7.583 v 0 c 0,4.188 -3.396,7.583 -7.584,7.585 v 0 z"
   id="path30" />
	<path
   fill="#f4f4f4"
   d="m 336.927,232.517 v -0.999 -1.001 h 19.168 c 3.083,-0.006 5.578,-2.501 5.584,-5.584 v 0 c -0.006,-3.083 -2.499,-5.577 -5.584,-5.582 v 0 h -19.168 c -3.081,0.005 -5.576,2.499 -5.582,5.582 v 0 c 0.006,3.083 2.501,5.578 5.582,5.584 v 0 1.001 0.999 c -4.188,0 -7.582,-3.396 -7.582,-7.584 v 0 c 0,-4.188 3.395,-7.583 7.582,-7.583 v 0 h 19.168 c 4.189,0 7.583,3.396 7.583,7.583 v 0 c 0,4.188 -3.394,7.584 -7.583,7.584 v 0 z"
   id="path32" />
</g>
<g
   id="g42"
   transform="translate(-100,-14)">
	<path
   fill="#f4f4f4"
   d="m 240.762,264.073 v -1.001 -1 h 19.167 c 3.084,-0.006 5.578,-2.5 5.584,-5.584 v 0 c -0.006,-3.084 -2.5,-5.577 -5.584,-5.582 v 0 h -19.167 c -3.084,0.005 -5.578,2.498 -5.583,5.582 v 0 c 0.006,3.084 2.5,5.578 5.583,5.584 v 0 1 1.001 c -4.189,-0.002 -7.583,-3.397 -7.583,-7.585 v 0 c 0,-4.188 3.394,-7.583 7.583,-7.583 v 0 h 19.167 c 4.189,0 7.583,3.396 7.583,7.583 v 0 c 0,4.188 -3.394,7.583 -7.583,7.585 v 0 z"
   id="path36" />
	<path
   fill="#f4f4f4"
   d="m 288.846,264.073 v -1.001 -1 h 19.166 c 3.082,-0.006 5.578,-2.5 5.582,-5.584 v 0 c -0.004,-3.084 -2.498,-5.577 -5.582,-5.582 v 0 h -19.166 c -3.084,0.005 -5.578,2.498 -5.583,5.582 v 0 c 0.006,3.084 2.5,5.578 5.583,5.584 v 0 1 1.001 c -4.189,-0.002 -7.583,-3.397 -7.585,-7.585 v 0 c 0.002,-4.188 3.396,-7.583 7.585,-7.583 v 0 h 19.166 c 4.188,0 7.583,3.396 7.583,7.583 v 0 c 0,4.188 -3.394,7.583 -7.583,7.585 v 0 z"
   id="path38" />
	<path
   fill="#f4f4f4"
   d="m 336.927,264.073 v -1.001 -1 h 19.169 c 3.082,-0.006 5.577,-2.5 5.582,-5.584 v 0 c -0.005,-3.084 -2.498,-5.577 -5.582,-5.582 v 0 h -19.169 c -3.082,0.005 -5.577,2.498 -5.581,5.582 v 0 c 0.004,3.084 2.499,5.578 5.581,5.584 v 0 1 1.001 c -4.188,-0.002 -7.581,-3.397 -7.583,-7.585 v 0 c 0.002,-4.188 3.396,-7.583 7.583,-7.583 v 0 h 19.169 c 4.188,0 7.583,3.396 7.583,7.583 v 0 c 0,4.188 -3.394,7.583 -7.583,7.585 v 0 z"
   id="path40" />
</g>
<g
   id="g50"
   transform="translate(-100,-14)">
	<path
   fill="#f4f4f4"
   d="m 240.762,295.628 v -1.001 -1.001 h 19.167 c 3.083,-0.005 5.578,-2.499 5.583,-5.582 v 0 c -0.004,-3.084 -2.499,-5.578 -5.583,-5.583 v 0 h -19.167 c -3.083,0.005 -5.578,2.499 -5.584,5.583 v 0 c 0.006,3.083 2.501,5.577 5.584,5.582 v 0 1.001 1.001 c -4.188,-0.002 -7.583,-3.397 -7.584,-7.584 v 0 c 0.002,-4.189 3.396,-7.583 7.584,-7.585 v 0 h 19.167 c 4.189,0.002 7.583,3.396 7.583,7.585 v 0 c 0,4.187 -3.394,7.582 -7.583,7.584 v 0 z"
   id="path44" />
	<path
   fill="#f4f4f4"
   d="m 288.846,295.628 v -1.001 -1.001 l 19.166,0.002 c 3.083,-0.007 5.578,-2.501 5.582,-5.584 v 0 c -0.004,-3.084 -2.499,-5.578 -5.582,-5.583 v 0 h -19.166 c -3.083,0.005 -5.578,2.499 -5.584,5.583 v 0 c 0.006,3.083 2.501,5.577 5.584,5.582 v 0 1.001 1.001 c -4.189,-0.002 -7.583,-3.397 -7.585,-7.584 v 0 c 0.002,-4.189 3.396,-7.583 7.585,-7.585 v 0 l 19.166,0.002 c 4.188,0 7.583,3.394 7.583,7.583 v 0 c 0,4.187 -3.395,7.582 -7.583,7.584 v 0 z"
   id="path46" />
	<path
   fill="#f4f4f4"
   d="m 336.927,295.628 v -1.001 -1.001 l 19.168,0.002 c 3.083,-0.007 5.578,-2.501 5.583,-5.584 v 0 c -0.005,-3.084 -2.5,-5.578 -5.583,-5.583 v 0 h -19.168 c -3.081,0.005 -5.576,2.499 -5.583,5.583 v 0 c 0.007,3.083 2.502,5.577 5.583,5.582 v 0 1.001 1.001 c -4.187,-0.002 -7.581,-3.397 -7.583,-7.584 v 0 c 0.002,-4.189 3.396,-7.583 7.583,-7.585 v 0 l 19.168,0.002 c 4.189,0 7.583,3.394 7.585,7.583 v 0 c -0.002,4.187 -3.396,7.582 -7.585,7.584 v 0 z"
   id="path48" />
</g>
<path
   fill="#f4f4f4"
   d="m 164.768,116.721 c -1.564,-1.396 -2.365,-3.341 -2.363,-5.284 v 0 c -0.002,-1.678 0.595,-3.372 1.801,-4.719 v 0 l 13.216,-14.789 c 1.396,-1.563 3.341,-2.364 5.283,-2.364 v 0 c 1.676,0 3.368,0.596 4.717,1.801 v 0 c 1.565,1.398 2.366,3.343 2.364,5.285 v 0 c 0,1.678 -0.596,3.368 -1.801,4.717 v 0 l -13.214,14.789 -0.745,-0.665 0.745,0.667 c -1.398,1.563 -3.343,2.361 -5.286,2.361 v 0 c -1.677,0.001 -3.37,-0.594 -4.717,-1.799 z m 14.145,-23.459 -13.216,14.791 c -0.869,0.972 -1.292,2.175 -1.292,3.384 v 0 c 0,1.4 0.571,2.785 1.696,3.792 v 0 c 0.971,0.867 2.177,1.29 3.384,1.292 v 0 c 1.4,-0.002 2.786,-0.571 3.794,-1.695 v 0 l -0.001,-10e-4 13.216,-14.789 c 0.867,-0.973 1.292,-2.177 1.292,-3.384 v 0 c -0.002,-1.402 -0.571,-2.786 -1.696,-3.792 v 0 c -0.973,-0.871 -2.177,-1.292 -3.384,-1.294 v 0 c -1.401,0.002 -2.788,0.571 -3.793,1.696 z"
   id="path52" />
<path
   fill="#f4f4f4"
   d="m 198.485,118.52 c -1.678,0.002 -3.37,-0.596 -4.717,-1.799 v 0 c -1.564,-1.397 -2.366,-3.343 -2.364,-5.286 v 0 c -0.002,-1.675 0.596,-3.369 1.801,-4.717 v 0 L 206.42,91.93 c 1.397,-1.564 3.341,-2.366 5.284,-2.366 v 0 c 1.675,0 3.364,0.596 4.717,1.803 v 0 c 1.563,1.397 2.365,3.341 2.363,5.284 v 0 c 0,1.678 -0.596,3.368 -1.801,4.717 v 0 l -13.214,14.79 c -1.397,1.562 -3.337,2.361 -5.278,2.361 v 0 c -0.001,10e-4 -0.003,10e-4 -0.006,10e-4 z m 9.428,-25.258 -13.215,14.79 c -0.87,0.973 -1.292,2.176 -1.294,3.383 v 0 c 0.002,1.401 0.573,2.786 1.698,3.794 v 0 c 0.971,0.868 2.174,1.292 3.384,1.292 v 0 c 1.401,-0.002 2.786,-0.571 3.794,-1.696 v 0 l 13.213,-14.788 c 0.867,-0.975 1.292,-2.178 1.294,-3.386 v 0 c -0.002,-1.401 -0.57,-2.786 -1.695,-3.792 v 0 c -0.976,-0.87 -2.179,-1.292 -3.386,-1.294 v 0 c -1.402,0.003 -2.787,0.572 -3.793,1.697 z"
   id="path54" />
<path
   fill="#f4f4f4"
   d="m 51.094,81.711 c 0.002,-24.439 19.813,-44.25 44.251,-44.25 v 0 c 24.439,0 44.25,19.811 44.25,44.25 v 0 c 0,24.438 -19.811,44.25 -44.25,44.251 v 0 C 70.907,125.96 51.097,106.149 51.094,81.711 Z M 65.47,51.835 C 57.823,59.484 53.096,70.041 53.096,81.71 v 0 c 0,11.67 4.727,22.226 12.374,29.875 v 0 c 7.649,7.647 18.206,12.374 29.875,12.374 v 0 c 11.67,0 22.226,-4.727 29.875,-12.374 v 0 c 7.647,-7.649 12.374,-18.206 12.374,-29.875 v 0 c 0,-11.67 -4.727,-22.226 -12.374,-29.875 v 0 C 117.571,44.188 107.014,39.461 95.345,39.461 v 0 c -11.669,0 -22.225,4.727 -29.875,12.374 z"
   id="path56" />
<path
   fill="#f4f4f4"
   d="m 63.262,81.711 c 0,-17.719 14.365,-32.081 32.083,-32.083 v 0 c 17.719,0.002 32.083,14.365 32.083,32.083 v 0 c 0,17.721 -14.365,32.083 -32.083,32.083 v 0 c -17.718,0 -32.083,-14.362 -32.083,-32.083 z m 1.999,0 c 0.03,16.615 13.469,30.054 30.084,30.084 v 0 c 16.615,-0.031 30.054,-13.469 30.083,-30.084 v 0 C 125.4,65.096 111.961,51.657 95.345,51.628 v 0 C 78.73,51.657 65.292,65.096 65.261,81.711 Z"
   id="path58" />
<path
   fill="#f4f4f4"
   d="m 244.095,128.295 v -0.002 -0.998 -1.002 h 29.083 c 1.879,0 3.536,-0.923 4.544,-2.336 v 0 l 8.411,-12.101 c 0.709,-0.918 1.129,-2.062 1.129,-3.311 v 0 c 0,-2.128 -1.225,-3.966 -3.034,-4.868 v 0 l -18.97,-10.076 c -1.14,-0.622 -2.44,-0.975 -3.829,-0.975 v 0 c -2.717,0 -5.11,1.351 -6.574,3.44 v 0 l -15.238,20.657 c -0.847,1.015 -1.354,2.312 -1.354,3.737 v 0 c 0.004,3.222 2.61,5.828 5.832,5.832 v 0 1.002 0.998 c -4.325,0 -7.833,-3.506 -7.833,-7.832 v 0 c 0,-1.906 0.686,-3.665 1.783,-4.974 v 0 L 253.23,94.897 c 1.807,-2.58 4.808,-4.271 8.199,-4.271 v 0 c 1.729,0 3.365,0.441 4.776,1.212 v 0 l 18.937,10.06 c 2.44,1.212 4.119,3.735 4.121,6.647 v 0 c 0,1.704 -0.579,3.282 -1.519,4.493 v 0 l -8.387,12.07 c -1.372,1.926 -3.633,3.186 -6.18,3.186 v 0 h -29.082 z"
   id="path60" />
<path
   fill="#f4f4f4"
   d="m 249.887,110.46 c 0,-7.663 6.212,-13.873 13.876,-13.875 v 0 c 7.661,0.002 13.873,6.212 13.875,13.875 v 0 c -0.002,7.663 -6.214,13.875 -13.875,13.877 v 0 c -7.664,-0.002 -13.876,-6.214 -13.876,-13.877 z m 2,0 c 0.013,6.559 5.317,11.864 11.876,11.876 v 0 c 6.557,-0.013 11.862,-5.318 11.874,-11.876 v 0 c -0.012,-6.559 -5.317,-11.861 -11.874,-11.874 v 0 c -6.559,0.013 -11.864,5.315 -11.876,11.874 z"
   id="path62" />
<path
   fill="#f4f4f4"
   d="m 275.031,81.377 c 0.002,-7.664 6.214,-13.874 13.877,-13.875 v 0 c 7.661,0.002 13.873,6.212 13.875,13.875 v 0 c -0.002,7.663 -6.214,13.875 -13.875,13.875 v 0 c -7.663,0 -13.875,-6.211 -13.877,-13.875 z m 2.002,0 c 0.011,6.56 5.315,11.864 11.875,11.875 v 0 c 6.558,-0.01 11.862,-5.315 11.873,-11.875 v 0 C 300.77,74.819 295.466,69.515 288.908,69.502 v 0 c -6.559,0.013 -11.864,5.317 -11.875,11.875 z"
   id="path64" />
<path
   fill="#f4f4f4"
   d="m 301.913,55.631 c 0,-7.663 6.212,-13.875 13.875,-13.875 v 0 c 7.663,0 13.874,6.211 13.876,13.875 v 0 c -0.002,7.663 -6.213,13.875 -13.876,13.875 v 0 c -7.663,-0.001 -13.875,-6.212 -13.875,-13.875 z m 2.001,0 c 0.011,6.558 5.315,11.863 11.874,11.875 v 0 c 6.558,-0.012 11.862,-5.317 11.875,-11.875 v 0 C 327.65,49.073 322.346,43.768 315.788,43.756 v 0 c -6.559,0.012 -11.863,5.317 -11.874,11.875 z"
   id="path66" />
<path
   fill="#f4f4f4"
   d="m 288.24,98.704 -19.599,-10.65 c -1.974,-1.176 -3.297,-3.335 -3.297,-5.801 v 0 c 0,-1.861 0.756,-3.553 1.953,-4.75 v 0 l 10.79,-11.523 c 1.777,-1.907 4.32,-3.102 7.132,-3.102 v 0 c 1.987,0 3.846,0.597 5.388,1.623 v 0 l 18.311,9.407 -0.457,0.89 0.457,-0.89 0.046,0.025 0.039,0.025 c 2.085,1.342 3.467,3.691 3.467,6.357 v 0 c 0,2.376 -1.099,4.501 -2.813,5.884 v 0 l -9.973,10.45 c -1.67,1.974 -4.175,3.229 -6.964,3.229 v 0 c -1.631,-0.001 -3.169,-0.43 -4.48,-1.174 z m -8.691,-31.359 -10.813,11.549 c -0.86,0.863 -1.39,2.044 -1.39,3.359 v 0 c -0.003,1.736 0.929,3.251 2.286,4.063 v 0 l 19.579,10.64 c 1.036,0.588 2.229,0.921 3.51,0.923 v 0 c 2.183,-0.002 4.127,-0.979 5.478,-2.568 v 0 l 10.111,-10.596 0.052,-0.04 c 1.286,-1.021 2.107,-2.591 2.107,-4.36 v 0 c 0.002,-1.945 -0.995,-3.651 -2.507,-4.649 v 0 l -18.371,-9.44 -0.048,-0.031 c -1.236,-0.832 -2.718,-1.315 -4.323,-1.315 v 0 c -2.241,-10e-4 -4.25,0.945 -5.671,2.465 z"
   id="path68" />
<path
   fill="#f4f4f4"
   d="m 318.546,74.314 c -1.629,-0.092 -3.141,-0.608 -4.407,-1.424 v 0 L 295.173,61.149 c -1.805,-1.217 -2.978,-3.283 -2.978,-5.591 v 0 c 0,-0.124 0.002,-0.259 0.013,-0.385 v 0 c 0.104,-1.859 0.957,-3.507 2.219,-4.632 v 0 l 11.421,-10.898 c 1.758,-1.683 4.142,-2.71 6.737,-2.71 v 0 c 0.182,0 0.372,0.004 0.56,0.017 v 0 c 1.979,0.111 3.794,0.808 5.273,1.914 v 0 l 17.764,10.435 -0.506,0.862 0.506,-0.862 0.048,0.027 0.036,0.025 c 1.895,1.382 3.111,3.622 3.111,6.114 v 0 c 0,0.145 -0.002,0.282 -0.009,0.431 v 0 c -0.135,2.371 -1.352,4.434 -3.143,5.718 v 0 L 325.68,71.48 c -1.667,1.758 -4.029,2.846 -6.612,2.846 v 0 c -0.174,0.001 -0.348,-0.003 -0.522,-0.012 z M 307.229,41.088 295.783,52.009 c -0.909,0.813 -1.503,1.964 -1.581,3.3 v 0 c -0.004,0.067 -0.008,0.15 -0.008,0.249 v 0 c 0,1.62 0.826,3.074 2.063,3.912 v 0 l 18.949,11.729 c 1.003,0.644 2.175,1.045 3.445,1.116 v 0 c 0.139,0.009 0.278,0.013 0.416,0.013 v 0 c 2.017,0 3.856,-0.847 5.205,-2.265 v 0 l 10.687,-10.005 0.059,-0.04 c 1.343,-0.949 2.253,-2.467 2.351,-4.218 v 0 c 0.007,-0.121 0.009,-0.232 0.009,-0.334 v 0 c 0,-1.825 -0.885,-3.461 -2.271,-4.48 v 0 l -17.783,-10.445 -0.049,-0.036 c -1.189,-0.901 -2.641,-1.468 -4.253,-1.56 v 0 c -0.142,-0.008 -0.286,-0.013 -0.437,-0.013 v 0 c -2.063,0 -3.952,0.816 -5.356,2.156 z"
   id="path70" />
<path
   fill="#f4f4f4"
   d="m 85.722,109.34 -0.051,-0.018 -0.047,-0.021 c -0.967,-0.366 -1.788,-1.578 -1.696,-3.257 v 0 -12.323 c -0.055,-0.374 -0.11,-0.572 -0.583,-0.595 v 0 H 71.012 c -0.901,-0.008 -1.542,-0.041 -2.18,-0.378 v 0 c -0.654,-0.357 -0.95,-0.977 -1.15,-1.514 v 0 c -1.03,-2.987 -1.588,-6.193 -1.585,-9.523 v 0 c -0.002,-3.347 0.562,-6.567 1.61,-9.597 v 0 c 0.123,-0.323 0.355,-0.921 0.964,-1.313 v 0 c 0.601,-0.38 1.318,-0.503 2.341,-0.507 v 0 h 12.302 c 0.293,0.003 0.491,-0.02 0.6,-0.04 v 0 c 0.008,-0.083 0.015,-0.214 0.014,-0.377 v 0 -12.5 c -0.033,-2.47 2.031,-3.381 2.345,-3.478 v 0 l 0.045,-0.018 0.047,-0.017 c 2.83,-0.911 5.85,-1.403 8.979,-1.403 v 0 c 3.468,0 6.796,0.603 9.883,1.712 v 0 l 0.059,0.021 0.055,0.029 c 0.441,0.204 1.001,0.603 1.22,1.232 v 0 c 0.207,0.595 0.192,1.116 0.2,1.922 v 0 12.531 c -10e-4,0.163 0.012,0.279 0.024,0.349 v 0 c 0.008,10e-4 0.017,0.003 0.027,0.005 v 0 c 0.114,0.021 0.321,0.033 0.595,0.033 v 0 h 12.271 c 0.846,0.006 1.391,0.022 1.933,0.19 v 0 c 0.558,0.143 1.052,0.697 1.2,1.144 v 0 c 1.154,3.145 1.784,6.542 1.784,10.083 v 0 c 0,3.408 -0.584,6.685 -1.676,9.776 v 0 c -0.171,0.45 -0.499,1.067 -1.156,1.361 v 0 c -0.625,0.268 -1.202,0.268 -2.084,0.278 v 0 h -12.302 c -0.207,-0.004 -0.441,0.058 -0.513,0.11 v 0 c -0.062,0.07 -0.078,-0.004 -0.103,0.296 v 0 12.511 c -0.006,0.644 -0.006,1.208 -0.253,1.816 v 0 c -0.251,0.617 -0.77,1.079 -1.369,1.403 v 0 l -0.076,0.043 -0.084,0.029 c -3.018,1.054 -6.262,1.625 -9.636,1.625 v 0 c -3.367,0.001 -6.608,-0.569 -9.621,-1.62 z m 9.623,-0.38 c 3.112,0 6.1,-0.52 8.883,-1.48 v 0 c 0.353,-0.212 0.39,-0.297 0.436,-0.394 v 0 c 0.055,-0.11 0.104,-0.435 0.098,-1.042 v 0 -12.511 c -0.024,-0.856 0.439,-1.632 1.02,-1.978 v 0 c 0.572,-0.36 1.144,-0.423 1.596,-0.427 v 0 l 12.302,-0.002 c 0.461,0.002 0.794,-0.012 0.999,-0.041 v 0 c 0.159,-0.02 0.221,-0.041 0.242,-0.05 v 0 h -0.001 c 0.018,-0.019 0.076,-0.119 0.13,-0.26 v 0 c 1.001,-2.834 1.545,-5.884 1.545,-9.063 v 0 c 0,-3.299 -0.585,-6.458 -1.64,-9.337 v 0 c -0.142,-0.039 -0.568,-0.086 -1.275,-0.081 v 0 h -12.271 c -0.627,-0.016 -1.216,0.01 -1.864,-0.431 v 0 c -0.656,-0.496 -0.789,-1.265 -0.782,-1.955 v 0 -12.531 c 0.013,-0.788 -0.042,-1.151 -0.069,-1.22 v 0 0 c -0.009,-0.011 -0.071,-0.056 -0.201,-0.125 v 0 c -2.859,-1.018 -5.936,-1.571 -9.146,-1.571 v 0 c -2.895,0 -5.679,0.449 -8.294,1.285 v 0 c -0.373,0.197 -1.091,0.376 -1.123,1.631 v 0 12.5 c -0.014,0.527 0.024,1.169 -0.54,1.794 v 0 c -0.604,0.572 -1.281,0.609 -2.074,0.623 v 0 H 71.014 c -0.852,-0.006 -1.195,0.137 -1.248,0.182 v 0 c -0.045,0.035 -0.062,0.028 -0.18,0.325 v 0 c -0.964,2.791 -1.489,5.787 -1.489,8.911 v 0 c 0,3.107 0.521,6.091 1.465,8.839 v 0 c 0.178,0.443 0.219,0.435 0.239,0.447 v 0 c 0.037,0.037 0.404,0.139 1.213,0.129 v 0 l 12.333,0.002 c 0.787,-0.01 1.506,0.331 1.943,0.846 v 0 c 0.443,0.511 0.638,1.138 0.64,1.747 v 0 12.323 c 0.092,1.378 0.171,1.188 0.528,1.433 v 0 c 2.785,0.961 5.771,1.482 8.887,1.482 z"
   id="path72" />
<g
   id="g78"
   transform="translate(-100,-14)">
	<path
   fill="#f4f4f4"
   d="m 204.761,118.598 c 0.002,-7.433 6.027,-13.458 13.46,-13.458 v 0 1.999 c -6.329,0.012 -11.447,5.131 -11.46,11.459 v 0 z"
   id="path74" />
	<path
   fill="#f4f4f4"
   d="m 183.969,118.598 c -0.01,-6.329 -5.128,-11.447 -11.458,-11.458 v 0 -2.002 c 7.434,0.002 13.458,6.027 13.458,13.46 v 0 z"
   id="path76" />
</g>
<g
   id="g84"
   transform="translate(-100,-14)">
	<path
   fill="#f4f4f4"
   d="m 204.761,72.826 h 0.002 1.999 c 0.012,6.329 5.13,11.446 11.46,11.458 v 0 2.001 C 210.788,86.283 204.763,80.26 204.761,72.826 Z"
   id="path80" />
	<path
   fill="#f4f4f4"
   d="m 172.511,84.285 c 6.329,-0.012 11.447,-5.13 11.459,-11.458 v 0 h 1.999 c 0,7.433 -6.025,13.458 -13.458,13.459 v 0 z"
   id="path82" />
</g>
<circle
   fill="#f4f4f4"
   cx="95.345993"
   cy="44.627998"
   r="2.9170001"
   id="circle86" />
<circle
   fill="#f4f4f4"
   cx="69.123993"
   cy="55.488998"
   r="1.7920001"
   id="circle88" />
<circle
   fill="#f4f4f4"
   cx="58.261993"
   cy="81.710999"
   r="2.9170001"
   id="circle90" />
<circle
   fill="#f4f4f4"
   cx="95.345001"
   cy="118.795"
   r="2.9170001"
   id="circle92" />
<circle
   fill="#f4f4f4"
   cx="132.429"
   cy="81.711998"
   r="2.9170001"
   id="circle94" />
<circle
   fill="#f4f4f4"
   cx="69.123993"
   cy="107.933"
   r="1.7920001"
   id="circle96" />
<circle
   fill="#f4f4f4"
   cx="121.567"
   cy="107.934"
   r="1.7920001"
   id="circle98" />
<circle
   fill="#f4f4f4"
   cx="121.56799"
   cy="55.489998"
   r="1.7920001"
   id="circle100" />
<path
   fill="#f4f4f4"
   d="m 69.956,153.878 v -1.001 -0.999 h 257 c 2.002,-0.004 3.621,-1.624 3.625,-3.625 v 0 c -0.004,-2.003 -1.623,-3.623 -3.625,-3.627 v 0 h -257 c -2.001,0.004 -3.623,1.624 -3.625,3.627 v 0 c 0.002,2.001 1.624,3.621 3.625,3.625 v 0 0.999 1.001 c -3.106,-0.002 -5.624,-2.52 -5.624,-5.625 v 0 c 0,-3.106 2.518,-5.624 5.624,-5.626 v 0 h 257 c 3.106,0.002 5.624,2.52 5.624,5.626 v 0 c 0,3.105 -2.518,5.623 -5.624,5.625 v 0 z"
   id="path102" />
</svg>
