<?xml version="1.0" encoding="UTF-8" standalone="no"?>
<!-- Generator: Adobe Illustrator 13.0.0, SVG Export Plug-In . SVG Version: 6.00 Build 14948)  -->

<svg
   version="1.2"
   id="Layer_3"
   x="0px"
   y="0px"
   width="598.18903"
   height="230"
   viewBox="0 0 598.189 229.99999"
   xml:space="preserve"
   sodipodi:docname="atari7800.svg"
   inkscape:version="1.2.2 (732a01da63, 2022-12-09)"
   xmlns:inkscape="http://www.inkscape.org/namespaces/inkscape"
   xmlns:sodipodi="http://sodipodi.sourceforge.net/DTD/sodipodi-0.dtd"
   xmlns="http://www.w3.org/2000/svg"
   xmlns:svg="http://www.w3.org/2000/svg"
   xmlns:rdf="http://www.w3.org/1999/02/22-rdf-syntax-ns#"
   xmlns:cc="http://creativecommons.org/ns#"
   xmlns:dc="http://purl.org/dc/elements/1.1/"
   xmlns:ns="&amp;ns_sfw;"><defs
   id="defs46" /><sodipodi:namedview
   id="namedview44"
   pagecolor="#000000"
   bordercolor="#111111"
   borderopacity="1"
   inkscape:showpageshadow="0"
   inkscape:pageopacity="0"
   inkscape:pagecheckerboard="1"
   inkscape:deskcolor="#d1d1d1"
   showgrid="false"
   inkscape:zoom="2.0445042"
   inkscape:cx="299.58363"
   inkscape:cy="175.10357"
   inkscape:window-width="1920"
   inkscape:window-height="1009"
   inkscape:window-x="-8"
   inkscape:window-y="-8"
   inkscape:window-maximized="1"
   inkscape:current-layer="Layer_3" />
<metadata
   id="metadata55">
	<rdf:RDF>
		<cc:Work
   rdf:about="">
			<dc:format>image/svg+xml</dc:format>
			<dc:type
   rdf:resource="http://purl.org/dc/dcmitype/StillImage" />
			
		</cc:Work>
	</rdf:RDF>
	<ns:sfw>
		<ns:slices />
		<ns:sliceSourceBounds
   x="668.378"
   y="444.268"
   width="596.243"
   height="218.469"
   bottomLeftOrigin="true" />
	</ns:sfw>
</metadata>
<path
   id="polyline3"
   fill="#f4f4f4"
   d="m 402.45784,2.493271 -0.313,0.531 -6,9.281 1.688,1.094 5.656,-8.781 91.5,9.906 3.375,8.188 1.844,-0.75 -3.594,-8.75 -0.219,-0.563 -0.594,-0.063 -92.719,-10.031 z" />
<path
   id="polygon5"
   fill="#f4f4f4"
   d="m 393.61384,9.055271 -380.782001,20.875 -0.406,0.031 -0.281,0.313 -9.8130003,11.531 -0.25,0.281 v 0.375 49.594 39.343999 49.594 0.375 l 0.25,0.281 9.8130003,11.531 0.281,0.313 0.406,0.031 380.782001,20.875 0.375,0.031 0.313,-0.25 17.656,-13.813 78.625,-5.813 12.656,11.469 0.406,0.375 0.5,-0.125 5.906,-1.469 0.313,-0.094 0.188,-0.25 7.625,-8.813 0.125,-0.156 0.063,-0.188 4.906,-14.719 0.063,-0.156 v -0.188 -4.156 -1 h -0.531 v -0.594 h 0.531 v -1 -59.091 -5.344 -59.093999 -1 h -0.531 v -0.594 h 0.531 v -1 -4.156 -0.156 l -0.063,-0.156 -4.906,-14.75 -0.063,-0.188 -0.125,-0.125 -7.625,-8.844 -0.188,-0.25 -0.313,-0.094 -5.906,-1.469 -0.5,-0.125 -0.406,0.375 -12.688,11.5 -78.594,-5.844 -17.656,-13.813 -0.313,-0.219 h -0.374 z m -0.25,2.031 17.625,13.75 0.25,0.188 0.281,0.031 79.313,5.875 0.406,0.031 0.344,-0.281 12.625,-11.438 5.094,1.313 7.219,8.406 4.813,14.469 v 2.938 h -0.531 v 1 2.594 1 h 0.531 v 58.093999 5.344 58.094 h -0.531 v 1 2.594 1 h 0.531 v 2.938 l -4.813,14.438 -7.25,8.469 -5.063,1.281 -12.625,-11.438 -0.344,-0.281 -0.406,0.031 -79.313,5.875 -0.281,0.031 -0.25,0.188 -17.625,13.75 -379.969001,-20.815 -9.3130003,-10.938 v -49.218 -39.343999 -49.219 l 9.3130003,-10.937 z" />
<path
   id="polyline7"
   fill="#f4f4f4"
   d="m 498.36384,200.74327 -3.375,8.188 -91.5,9.906 -5.656,-8.781 -1.688,1.094 6,9.313 0.313,0.5 0.625,-0.063 92.719,-10.031 0.594,-0.063 0.219,-0.563 3.594,-8.75 z" />
<path
   id="polyline9"
   fill="#f4f4f4"
   d="m 396.80084,42.430271 -386.594001,5.25 h -0.094 -0.1250003 l -5.969,1.5 -0.781,0.188 v 0.781 41.5 40.155999 41.5 0.813 l 0.781,0.188 5.969,1.469 0.1250003,0.031 h 0.094 l 386.594001,5.25 h 0.031 l 125,-3.969 -0.063,-2 -124.938,3.969 h -0.063 l -386.438001,-5.25 -5.0940003,-1.281 v -40.719 -40.156999 -40.719 l 5.0940003,-1.25 386.438001,-5.25 h 0.063 l 124.938,3.938 0.063,-2 -125,-3.938 z" />
<path
   id="polyline11"
   fill="#f4f4f4"
   d="m 268.98784,45.743271 -1.031,0.031 -257.781001,3.187 h -0.125 l -0.1250003,0.031 -5.906,1.719 0.563,1.906 5.6250003,-1.656 h 0.063 l 256.719001,-3.188 v 37.906 52.093999 37.906 l -256.719001,-3.188 h -0.063 l -5.6250003,-1.656 -0.563,1.906 5.906,1.719 0.1250003,0.031 h 0.125 l 257.781001,3.188 1.031,0.031 v -1.031 -38.906 -52.093999 -38.905 z" />
<g
   id="g13"
   transform="translate(-4.8911613,-49.400729)">
	<path
   fill="#f4f4f4"
   d="m 281.418,226.729 -7.46,-7.463 0.002,-32.573 v -4.283 l 9.912,-0.002 v -1.219 h -9.912 v -4.119 l 9.912,-0.002 v -1.22 h -9.912 v -4.763 h 9.91 v -1.222 h -9.91 v -4.853 h 9.912 v -1.224 h -9.912 v -4.393 h 9.912 v -1.224 h -9.912 v -4.208 l 9.91,-0.002 v -1.219 h -9.91 v -4.579 h 9.91 v -1.222 h -9.91 v -4.578 h 9.91 v -1.222 h -9.91 v -4.396 h 9.91 v -1.222 h -9.912 v -32.532 l 7.46,-7.458 h 110.2 l 8.32,8.316 v 31.674 h -10.957 v 1.222 h 10.955 v 4.396 h -10.955 v 1.222 h 10.955 v 4.578 h -10.955 v 1.222 h 10.955 v 4.579 h -10.955 v 1.221 h 10.955 v 4.208 h -10.955 v 1.224 h 10.955 v 4.393 h -10.955 v 1.224 h 10.955 v 4.853 h -10.955 v 1.222 h 10.955 v 4.763 l -10.955,-0.002 v 1.224 h 10.955 v 4.119 h -10.955 v 1.221 h 10.957 v 5.021 30.979 l -8.32,8.32 h -110.2 z m -5.459,-40.037 v 31.745 l 6.287,6.289 H 390.79 l 7.146,-7.148 v -30.148 -3.021 h -10.955 v -4.222 -1.002 h 10.955 v -0.116 h -10.955 v -5.223 h 10.957 v -0.762 h -10.957 v -5.222 h 10.957 v -0.853 h -10.957 v -5.224 h 10.957 v -0.394 h -10.957 v -5.223 h 10.955 v -0.208 h -10.955 v -5.221 h 10.955 v -0.579 h -10.955 v -5.222 l 10.955,-0.002 v -0.577 h -10.955 v -5.221 l 10.957,-0.002 v -0.394 h -10.957 v -5.222 h 10.955 V 104.676 L 390.79,97.53 H 282.247 l -6.289,6.287 v 29.704 h 9.912 v 5.222 h -9.912 v 0.396 h 9.912 v 5.221 h -9.912 v 0.579 h 9.912 v 5.222 h -9.912 v 0.579 h 9.912 v 5.221 h -9.912 v 0.208 h 9.912 v 5.223 h -9.912 v 0.394 h 9.912 v 5.224 h -9.912 v 0.853 h 9.912 v 5.222 h -9.912 v 0.762 h 9.912 v 5.223 h -9.912 v 0.116 h 9.912 v 5.224 h -9.912 z"
   id="path8" />
</g>
<g
   id="g17"
   transform="translate(-4.8911613,-49.400729)">
	<path
   fill="#f4f4f4"
   d="m 401.804,95.75 8.444,0.234 v 128.288 l -7.418,0.184 -0.025,-0.999 0.025,0.999 -1.026,0.023 z m 2.002,126.681 4.44,-0.109 V 97.929 l -4.44,-0.125 z m 7.021,-126.428 7.982,0.222 v 127.833 l -6.956,0.174 -0.025,-0.999 0.025,0.999 -1.026,0.025 z m 2.002,126.204 3.982,-0.1 V 98.17 l -3.982,-0.112 z m 6.559,-125.965 7.985,0.222 v 127.38 l -6.959,0.175 -0.025,-0.998 0.025,0.998 -1.026,0.025 z m 2.002,125.751 3.983,-0.101 V 98.411 l -3.983,-0.112 z m 6.561,-125.511 7.982,0.222 V 223.63 l -6.958,0.174 -0.023,-0.999 0.023,0.999 -1.024,0.025 z m 2,125.298 3.982,-0.099 V 98.651 l -3.982,-0.112 z m 6.562,-125.059 7.986,0.224 v 126.472 l -6.961,0.176 -0.025,-1.001 0.025,1.001 -1.025,0.025 z m 2.001,124.845 3.983,-0.101 V 98.89 l -3.983,-0.112 z m 6.561,-124.604 7.984,0.224 v 126.018 l -6.958,0.173 -0.025,-0.999 0.025,0.999 -1.026,0.023 z m 2.002,124.39 3.98,-0.099 V 99.131 l -3.98,-0.112 z m 6.56,-124.149 7.984,0.222 V 222.99 l -6.958,0.174 -0.025,-0.999 0.025,0.999 -1.026,0.025 z m 2.002,123.936 3.982,-0.1 V 99.369 l -3.982,-0.112 z m 6.56,-123.696 7.984,0.222 v 125.112 l -6.96,0.173 -0.023,-0.999 0.023,0.999 -1.024,0.025 z m 2,123.484 3.985,-0.101 V 99.61 l -3.985,-0.109 z m 6.56,-123.245 7.984,0.222 v 124.66 l -6.959,0.174 -0.024,-0.999 0.024,0.999 -1.025,0.025 z m 2.002,123.032 3.982,-0.099 V 99.849 l -3.982,-0.112 z m 6.562,-122.793 7.984,0.224 v 124.206 l -6.96,0.173 -0.025,-0.998 0.025,0.998 -1.024,0.025 z m 1.998,122.577 3.984,-0.099 v -120.31 l -3.984,-0.112 z m 6.564,-122.336 7.984,0.222 v 123.754 l -6.96,0.173 -0.023,-0.999 0.023,0.999 -1.024,0.023 z m 2,122.123 3.984,-0.099 V 100.33 l -3.984,-0.112 z m 6.562,-121.883 7.982,0.222 v 123.3 l -6.958,0.174 -0.023,-0.999 0.023,0.999 -1.024,0.025 z m 2,121.67 3.983,-0.1 V 100.571 l -3.983,-0.112 z m 6.562,-121.431 7.982,0.222 V 221.71 l -6.958,0.175 -0.025,-0.999 0.025,0.999 -1.024,0.023 z m 1.998,121.217 3.984,-0.099 V 100.81 l -3.984,-0.112 z M 513.569,99.91 v -1.029 l 8.447,0.234 v 122.369 l -8.447,0.21 z m 2,119.734 4.445,-0.107 V 101.063 l -4.443,-0.125 z m -1.026,-118.735 0.027,-0.999 z"
   id="path11" />
</g>
<path
   id="line21"
   fill="#f4f4f4"
   d="m 385.61384,46.399271 -20.438,19.594 1.406,1.438 20.438,-19.563 z" />
<path
   id="line23"
   fill="#f4f4f4"
   d="m 277.61284,46.399271 -1.344,1.469 21.157,19.563 1.375,-1.469 z" />
<path
   id="line25"
   fill="#f4f4f4"
   d="m 297.42584,156.02427 -21.157,19.563 1.344,1.469 21.188,-19.563 z" />
<path
   id="line27"
   fill="#f4f4f4"
   d="m 366.58284,156.02427 -1.406,1.438 20.438,19.594 1.406,-1.438 z" />
<path
   id="line29"
   fill="#f4f4f4"
   d="m 393.23884,54.274271 -16.844,23.156 1.625,1.188 16.844,-23.156 z" />
<path
   id="line31"
   fill="#f4f4f4"
   d="m 270.92584,53.493271 -1.719,1.031 15.531,25.219 1.719,-1.031 z" />
<path
   id="line33"
   fill="#f4f4f4"
   d="m 284.73784,143.71127 -15.531,25.219 1.719,1.031 15.531,-25.219 z" />
<path
   id="line35"
   fill="#f4f4f4"
   d="m 378.01984,144.83627 -1.625,1.188 16.844,23.156 1.625,-1.188 z" />
<path
   id="circle37"
   fill="#f4f4f4"
   d="m 331.45784,63.305271 c -26.879,0 -48.688,21.809 -48.688,48.687999 0,26.878 21.809,48.688 48.688,48.688 26.877,0 48.688,-21.81 48.688,-48.688 -0.001,-26.878999 -21.811,-48.687999 -48.688,-48.687999 z m 0,2 c 25.797,0 46.688,20.89 46.688,46.687999 0,25.797 -20.891,46.688 -46.688,46.688 -25.798,0 -46.688,-20.891 -46.688,-46.688 0,-25.797999 20.89,-46.687999 46.688,-46.687999 z" />
<g
   id="g39"
   transform="translate(-4.8911613,-49.400729)">
	<path
   fill="#f4f4f4"
   d="m 352.864,207.148 -0.347,-1.938 c 13.755,-5.082 24.455,-16.47 28.612,-30.646 v 0 l 1.961,0.283 v 20.393 l -11.911,11.909 h -18.315 z m 4.868,-2.001 12.619,-0.002 10.737,-10.737 v -13.829 c -4.596,10.721 -12.923,19.455 -23.356,24.568 z m -55.143,2.001 -13.103,-13.109 V 174.52 l 1.962,-0.274 c 4.09,14.324 14.843,25.842 28.701,30.963 v 0 l -0.348,1.938 h -17.212 z m -11.101,-13.936 11.934,11.937 h 11.514 C 304.432,200 296.063,191.178 291.487,180.355 v 0 z m -1.962,-18.417 0.961,-0.274 z m -0.04,-26.505 v -19.658 -0.415 L 302.59,115.11 h 18.825 l 0.313,1.95 c -14.615,4.81 -26.038,16.642 -30.281,31.504 v 0 z m 2,-5.832 c 4.747,-11.226 13.578,-20.294 24.639,-25.348 v 0 H 303.42 l -11.934,11.936 z m 59.452,-25.398 0.313,-1.95 h 19.515 v 0.999 l -0.708,0.708 0.708,-0.708 v -0.999 h 0.413 l 11.909,11.909 v 20.948 l -1.959,0.28 c -4.313,-14.714 -15.681,-26.414 -30.191,-31.187 z m 30.152,25.176 -10e-4,-14.387 -10.737,-10.74 h -13.809 c 10.986,5.02 19.777,14.005 24.547,25.127 z"
   id="path23" />
</g>
<path
   fill="#f4f4f4"
   d="M 522.20184,124.80227"
   id="path26" />
<path
   id="line45"
   fill="#f4f4f4"
   d="m 529.48884,123.80527 v 2 h 6.5 v -2 z" />
<path
   id="line47"
   fill="#f4f4f4"
   d="m 542.95784,123.80527 v 2 h 6.5 v -2 z" />
<path
   id="line49"
   fill="#f4f4f4"
   d="m 556.42584,123.80527 v 2 h 6.5 v -2 z" />
<path
   id="line51"
   fill="#f4f4f4"
   d="m 569.92584,123.80527 v 2 h 6.531 v -2 z" />
<path
   id="line53"
   fill="#f4f4f4"
   d="m 583.36384,123.80527 v 2 h 6.531 v -2 z" />
<path
   id="line55"
   fill="#f4f4f4"
   d="m 583.51984,105.58627 v 2 h 6.375 v -2 z" />
<path
   id="line57"
   fill="#f4f4f4"
   d="m 570.01984,105.58627 v 2 h 6.5 v -2 z" />
<path
   id="line59"
   fill="#f4f4f4"
   d="m 556.45784,105.58627 v 2 h 6.594 v -2 z" />
<path
   id="line61"
   fill="#f4f4f4"
   d="m 542.98884,105.58627 v 2 h 6.563 v -2 z" />
<path
   id="line63"
   fill="#f4f4f4"
   d="m 529.55084,105.58627 v 2 h 6.469 v -2 z" />
<path
   fill="#f4f4f4"
   d="M 522.20184,106.57527"
   id="path38" />
<g
   id="g67"
   transform="translate(-4.8911613,-49.400729)">
	<path
   fill="#f4f4f4"
   d="m 526.091,147.933 9.241,0.405 v 33.498 l -8.196,0.362 -0.043,-1 0.043,1 -1.045,0.045 z m 2.002,32.219 5.239,-0.231 v -29.668 l -5.239,-0.23 z m 11.748,-31.613 8.964,0.396 v 32.303 l -7.921,0.352 -0.043,-0.997 0.043,0.997 -1.043,0.047 z m 1.998,31.007 4.966,-0.22 v -28.479 l -4.966,-0.22 z m 11.473,-30.415 8.966,0.396 v 31.118 l -7.923,0.352 -0.043,-0.999 0.043,0.999 -1.043,0.045 z m 1.998,29.82 4.968,-0.22 v -27.289 l -4.968,-0.22 z m 11.472,-29.223 8.968,0.395 v 29.93 l -7.923,0.35 -0.043,-0.997 0.043,0.997 -1.045,0.047 z m 2.002,28.628 4.966,-0.218 v -26.102 l -4.966,-0.22 z m 11.469,-28.035 8.968,0.396 v 28.739 l -7.923,0.352 -0.043,-0.998 0.043,0.998 -1.045,0.047 z m 2.002,27.443 4.966,-0.22 V 152.63 l -4.966,-0.22 z m 11.472,-25.804 v -1.045 l 9.489,0.418 v 27.508 l -9.489,0.418 z m 1.999,25.208 5.488,-0.24 v -23.68 l -5.488,-0.242 z m -1.044,-24.208 0.045,-1 z"
   id="path40" />
</g>
</svg>
