<?xml version="1.0" encoding="UTF-8" standalone="no"?>
<!-- Generator: Adobe Illustrator 13.0.0, SVG Export Plug-In . SVG Version: 6.00 Build 14948)  -->

<svg
   version="1.2"
   id="Layer_3"
   x="0px"
   y="0px"
   width="547.18903"
   height="282.26001"
   viewBox="0 0 547.189 282.26"
   xml:space="preserve"
   sodipodi:docname="atarist.svg"
   inkscape:version="1.2.2 (732a01da63, 2022-12-09)"
   xmlns:inkscape="http://www.inkscape.org/namespaces/inkscape"
   xmlns:sodipodi="http://sodipodi.sourceforge.net/DTD/sodipodi-0.dtd"
   xmlns="http://www.w3.org/2000/svg"
   xmlns:svg="http://www.w3.org/2000/svg"
   xmlns:rdf="http://www.w3.org/1999/02/22-rdf-syntax-ns#"
   xmlns:cc="http://creativecommons.org/ns#"
   xmlns:dc="http://purl.org/dc/elements/1.1/"
   xmlns:ns="&amp;ns_sfw;"><defs
   id="defs158" /><sodipodi:namedview
   id="namedview156"
   pagecolor="#000000"
   bordercolor="#111111"
   borderopacity="1"
   inkscape:showpageshadow="0"
   inkscape:pageopacity="0"
   inkscape:pagecheckerboard="1"
   inkscape:deskcolor="#d1d1d1"
   showgrid="false"
   inkscape:zoom="2.0445042"
   inkscape:cx="299.58363"
   inkscape:cy="175.10357"
   inkscape:window-width="1920"
   inkscape:window-height="1009"
   inkscape:window-x="-8"
   inkscape:window-y="-8"
   inkscape:window-maximized="1"
   inkscape:current-layer="Layer_3" />
<metadata
   id="metadata55">
	<rdf:RDF>
		<cc:Work
   rdf:about="">
			<dc:format>image/svg+xml</dc:format>
			<dc:type
   rdf:resource="http://purl.org/dc/dcmitype/StillImage" />
			
		</cc:Work>
	</rdf:RDF>
	<ns:sfw>
		<ns:slices />
		<ns:sliceSourceBounds
   x="689.569"
   y="401.668"
   width="533.74"
   height="268.797"
   bottomLeftOrigin="true" />
	</ns:sfw>
</metadata>
<path
   id="path3"
   fill="#f4f4f4"
   d="m 41.483774,116.99706 -0.255,0.255 c 0,0 -15.638,15.388 -17.58,17.382 -0.785,0.804 -1.243,1.449 -1.5,1.925 -0.256,0.476 -0.311,0.905 -0.311,0.905 l -0.028,0.057 v 0.058 2.095 0.906 h 0.906 336.108996 0.906 v -0.906 -2.039 c -0.002,-0.002 -0.019,0.016 0.113,-0.226 0.164,-0.303 0.502,-0.824 1.188,-1.529 1.795,-1.841 17.552,-17.325 17.552,-17.325 l 1.585,-1.557 h -2.208 -336.109996 -0.367 z m 0.764,1.812 H 375.72477 c -2.341,2.302 -14.228,14.011 -15.994,15.825 -0.784,0.804 -1.216,1.449 -1.472,1.925 -0.257,0.476 -0.34,0.905 -0.34,0.905 v 0.057 0.058 1.188 H 23.619774 v -1.075 c 0,0 -0.022,0.019 0.142,-0.283 0.164,-0.303 0.502,-0.824 1.189,-1.529 1.767,-1.814 16.85,-16.631 17.297,-17.071 z" />
<path
   id="path5"
   fill="#f4f4f4"
   d="m 74.830774,117.25206 c 0,0 -15.638,15.388 -17.58,17.382 -0.785,0.804 -1.215,1.449 -1.472,1.925 -0.257,0.476 -0.339,0.905 -0.339,0.905 v 0.057 0.058 2.095 h 1.812 v -2.039 c -10e-4,-0.002 -0.017,0.016 0.113,-0.226 0.164,-0.303 0.501,-0.824 1.189,-1.529 1.792,-1.84 17.552,-17.325 17.552,-17.325 z" />
<path
   id="path7"
   fill="#f4f4f4"
   d="m 108.43277,117.25206 c 0,0 -15.608996,15.388 -17.550996,17.382 -0.785,0.804 -1.244,1.449 -1.5,1.925 -0.257,0.476 -0.34,0.905 -0.34,0.905 v 0.057 0.058 2.095 h 1.813 v -1.981 c 0,0 -0.051,0.019 0.113,-0.283 0.164,-0.303 0.501,-0.824 1.189,-1.529 1.792,-1.84 17.551996,-17.325 17.551996,-17.325 z" />
<path
   id="path9"
   fill="#f4f4f4"
   d="m 142.03577,117.25206 c 0,0 -15.609,15.388 -17.551,17.382 -0.785,0.804 -1.243,1.449 -1.5,1.925 -0.257,0.476 -0.34,0.905 -0.34,0.905 v 0.057 0.058 2.095 h 1.813 v -1.981 c 0,0 -0.022,0.019 0.141,-0.283 0.164,-0.303 0.502,-0.824 1.189,-1.529 1.792,-1.84 17.523,-17.325 17.523,-17.325 z" />
<path
   id="path11"
   fill="#f4f4f4"
   d="m 175.66677,117.25206 c 0,0 -15.638,15.388 -17.58,17.382 -0.785,0.804 -1.244,1.449 -1.5,1.925 -0.257,0.476 -0.312,0.905 -0.312,0.905 l -0.029,0.057 v 0.058 2.095 h 1.812 v -1.981 c 0,0 -0.022,0.019 0.142,-0.283 0.164,-0.303 0.501,-0.824 1.189,-1.529 1.792,-1.84 17.551,-17.325 17.551,-17.325 z" />
<path
   id="path13"
   fill="#f4f4f4"
   d="m 209.26977,117.25206 c 0,0 -15.639,15.389 -17.58,17.382 -0.784,0.804 -1.215,1.449 -1.472,1.925 -0.257,0.476 -0.339,0.905 -0.339,0.905 v 0.057 0.058 2.095 h 1.812 v -2.039 c -0.002,-0.002 -0.018,0.016 0.113,-0.226 0.163,-0.303 0.502,-0.824 1.189,-1.529 1.794,-1.841 17.551,-17.325 17.551,-17.325 z" />
<path
   id="path15"
   fill="#f4f4f4"
   d="m 242.87177,117.25206 c 0,0 -15.609,15.388 -17.551,17.382 -0.785,0.804 -1.243,1.449 -1.5,1.925 -0.257,0.476 -0.339,0.905 -0.339,0.905 v 0.057 0.058 2.095 h 1.812 v -2.039 c -0.002,-0.002 -0.018,0.016 0.113,-0.226 0.164,-0.303 0.501,-0.824 1.189,-1.529 1.792,-1.84 17.551,-17.325 17.551,-17.325 z" />
<path
   id="path17"
   fill="#f4f4f4"
   d="m 276.47377,117.25206 c 0,0 -15.609,15.388 -17.551,17.382 -0.783,0.804 -1.243,1.449 -1.5,1.925 -0.257,0.476 -0.34,0.905 -0.34,0.905 v 0.057 0.058 2.095 h 1.812 v -1.981 c 0,0 -0.021,0.019 0.142,-0.283 0.163,-0.303 0.501,-0.824 1.189,-1.529 1.794,-1.841 17.522,-17.325 17.522,-17.325 z" />
<path
   id="path19"
   fill="#f4f4f4"
   d="m 310.10477,117.25206 c 0,0 -15.637,15.388 -17.58,17.382 -0.783,0.804 -1.243,1.449 -1.5,1.925 -0.257,0.476 -0.312,0.905 -0.312,0.905 l -0.028,0.057 v 0.058 2.095 h 1.812 v -1.981 c 0,0 -0.021,0.019 0.142,-0.283 0.164,-0.303 0.502,-0.824 1.188,-1.529 1.793,-1.84 17.523,-17.325 17.523,-17.325 z" />
<path
   id="path21"
   fill="#f4f4f4"
   d="m 343.70677,117.25206 c 0,0 -15.637,15.388 -17.579,17.382 -0.784,0.804 -1.214,1.449 -1.473,1.925 -0.256,0.476 -0.34,0.905 -0.34,0.905 l -0.027,0.057 v 0.058 2.095 h 1.812 v -1.981 c 0,0 -0.021,0.019 0.142,-0.283 0.164,-0.303 0.503,-0.824 1.189,-1.529 1.791,-1.84 17.551,-17.325 17.551,-17.325 z" />
<path
   id="path23"
   fill="#f4f4f4"
   d="m 110.44377,6.6210581 c 0,0 -2.852,-0.229 -5.464,2.208 -0.007,0.007 -0.188,0.161 -0.198,0.169 -0.283,-0.681 -0.678,-1.321 -1.331,-1.783 -0.545,-0.385 -1.279,-0.588 -2.039,-0.453 -0.759,0.135 -1.508996,0.563 -2.264996,1.274 l -0.085,0.084 c -0.668,0.626 -5.747,5.2409999 -13.022,11.8329999 -7.324,6.637 -16.839,15.246 -26.271,23.78 -18.863,17.068 -37.396,33.829 -37.396,33.829 l -1.755,1.585 h 2.378 5.832 0.34 l 0.255,-0.255 c 0,0 18.606,-16.634 37.509,-33.546 9.451,-8.456 18.989,-16.976 26.299,-23.524 7.310996,-6.549 12.329996,-11.071 12.993996,-11.691 h 0.029 c 2.111,-1.9579999 3.991,-1.6989999 3.991,-1.6989999 z m -8.72,1.925 c 0.295,-0.052 0.463,-0.012 0.68,0.142 0.367,0.259 0.691,0.997 0.877,1.6699999 -1.469,1.331 -4.914996,4.444 -11.266996,10.135 -7.31,6.548 -16.848,15.069 -26.299,23.525 -18.774,16.796 -37.005,33.096 -37.254,33.319 h -3.143 c 1.593,-1.44 17.676,-15.991 35.669,-32.272 9.431,-8.535 18.946,-17.142 26.271,-23.78 7.325,-6.637 12.406,-11.259 13.134996,-11.9459999 0.586,-0.55 1.036,-0.74 1.331,-0.793 z" />
<path
   id="path25"
   fill="#f4f4f4"
   d="m 118.70977,6.6210581 c 0,0 -2.824,-0.229 -5.435,2.208 -0.008,0.007 -0.188,0.161 -0.199,0.169 -0.282,-0.681 -0.677,-1.321 -1.33,-1.783 -0.545,-0.385 -1.308,-0.588 -2.066,-0.453 -0.759,0.135 -1.481,0.563 -2.236,1.274 -0.61,0.574 -5.811,5.2809999 -13.134996,11.9169999 -7.325,6.637 -16.839,15.246 -26.271,23.78 -18.863,17.068 -37.396,33.829 -37.396,33.829 l -1.726,1.585 h 2.349 5.832 0.34 l 0.254,-0.255 c 0,0 18.607,-16.634 37.51,-33.546 9.451,-8.456 18.988,-16.976 26.298996,-23.524 7.31,-6.549 12.329,-11.071 12.994,-11.691 l 0.113,-0.085 c 2.07,-1.8589999 3.906,-1.6139999 3.906,-1.6139999 z m -8.691,1.925 c 0.295,-0.052 0.463,-0.012 0.679,0.142 0.365,0.258 0.662,1.001 0.85,1.6699999 -1.475,1.337 -4.923,4.452 -11.267,10.135 -7.309996,6.548 -16.819996,15.069 -26.270996,23.525 -18.774,16.796 -37.005,33.096 -37.255,33.319 h -3.17 c 1.593,-1.44 17.676,-15.991 35.669,-32.272 9.431,-8.535 18.945,-17.142 26.271,-23.78 7.323996,-6.637 12.404996,-11.259 13.134996,-11.9459999 0.585,-0.55 1.063,-0.74 1.359,-0.793 z" />
<path
   id="path27"
   fill="#f4f4f4"
   d="m 127.00377,6.6210581 c 0,0 -2.852,-0.229 -5.463,2.208 -0.008,0.007 -0.188,0.161 -0.198,0.169 -0.283,-0.681 -0.677,-1.321 -1.331,-1.783 -0.545,-0.385 -1.279,-0.588 -2.039,-0.453 -0.759,0.135 -1.509,0.563 -2.264,1.274 -0.611,0.574 -5.783,5.2809999 -13.107,11.9169999 -7.323996,6.637 -16.838996,15.246 -26.270996,23.78 -18.862,17.068 -37.396,33.829 -37.396,33.829 l -1.755,1.585 h 2.35 5.86 0.34 l 0.255,-0.255 c 0,0 18.607,-16.634 37.509,-33.546 9.451,-8.456 18.959996,-16.976 26.270996,-23.524 7.311,-6.549 12.358,-11.071 13.022,-11.691 2.119,-1.9779999 4.02,-1.6989999 4.02,-1.6989999 z m -8.719,1.925 c 0.295,-0.052 0.463,-0.012 0.68,0.142 0.367,0.259 0.691,0.997 0.877,1.6699999 -1.469,1.331 -4.915,4.444 -11.267,10.135 -7.31,6.548 -16.847996,15.069 -26.298996,23.525 -18.773,16.796 -37.005,33.096 -37.254,33.319 h -3.142 c 1.593,-1.44 17.676,-15.991 35.669,-32.272 9.431,-8.535 18.946,-17.142 26.270996,-23.78 7.085,-6.42 11.731,-10.639 12.711,-11.5499999 l 0.424,-0.396 c 0.584,-0.55 1.035,-0.74 1.33,-0.793 z" />
<path
   id="path29"
   fill="#f4f4f4"
   d="m 135.26977,6.6210581 c 0,0 -2.824,-0.229 -5.435,2.208 -0.008,0.007 -0.188,0.161 -0.198,0.169 -0.283,-0.681 -0.677,-1.321 -1.331,-1.783 -0.545,-0.385 -1.308,-0.588 -2.066,-0.453 -0.759,0.135 -1.509,0.563 -2.265,1.274 -0.61,0.574 -5.782,5.2809999 -13.107,11.9169999 -7.324,6.637 -16.838996,15.246 -26.269996,23.78 -18.862,17.068 -37.396,33.829 -37.396,33.829 l -1.727,1.585 h 2.349 5.832 0.34 l 0.255,-0.255 c 0,0 18.607,-16.634 37.509,-33.546 9.450996,-8.456 18.988996,-16.976 26.298996,-23.524 7.31,-6.549 12.329,-11.071 12.994,-11.691 2.119,-1.9779999 4.02,-1.6989999 4.02,-1.6989999 z m -8.718,1.925 c 0.295,-0.052 0.491,-0.012 0.707,0.142 0.373,0.263 0.666,1.017 0.85,1.6979999 -1.481,1.342 -4.931,4.43 -11.267,10.106 -7.31,6.548 -16.82,15.069 -26.270996,23.525 -18.774,16.796 -37.005,33.096 -37.254,33.319 h -3.17 c 1.593,-1.44 17.676,-15.991 35.669,-32.272 9.431,-8.535 18.944996,-17.142 26.270996,-23.78 7.325,-6.637 12.405,-11.259 13.135,-11.9459999 0.583,-0.549 1.034,-0.739 1.33,-0.792 z" />
<path
   id="path31"
   fill="#f4f4f4"
   d="m 143.56477,6.6210581 c 0,0 -2.853,-0.229 -5.464,2.208 -0.008,0.007 -0.188,0.161 -0.198,0.169 -0.283,-0.681 -0.677,-1.321 -1.331,-1.783 -0.545,-0.385 -1.279,-0.588 -2.038,-0.453 -0.759,0.135 -1.509,0.563 -2.265,1.274 -0.61,0.574 -5.783,5.2809999 -13.107,11.9169999 -7.324,6.637 -16.839,15.246 -26.270996,23.78 -18.863,17.068 -37.396,33.829 -37.396,33.829 l -1.755,1.585 h 2.35 5.832 0.368 l 0.255,-0.255 c 0,0 18.607,-16.634 37.508996,-33.546 9.451,-8.456 18.96,-16.976 26.271,-23.524 7.311,-6.548 12.357,-11.071 13.021,-11.691 2.119,-1.9779999 3.992,-1.6989999 3.992,-1.6989999 z m -8.72,1.925 c 0.295,-0.052 0.463,-0.012 0.68,0.142 0.365,0.258 0.662,1.001 0.849,1.6699999 -1.475,1.337 -4.922,4.452 -11.267,10.135 -7.31,6.548 -16.82,15.069 -26.270996,23.525 -18.774,16.796 -37.005,33.096 -37.255,33.319 h -3.141 c 1.594,-1.441 17.648,-15.991 35.641,-32.272 9.431996,-8.535 18.973996,-17.142 26.298996,-23.78 7.086,-6.42 11.731,-10.639 12.711,-11.5499999 l 0.424,-0.396 c 0.585,-0.55 1.035,-0.74 1.33,-0.793 z" />
<path
   id="path33"
   fill="#f4f4f4"
   d="m 151.83077,6.6210581 c 0,0 -2.823,-0.229 -5.435,2.208 -0.009,0.008 -0.215,0.188 -0.227,0.198 -0.283,-0.691 -0.669,-1.344 -1.331,-1.812 -0.545,-0.385 -1.279,-0.588 -2.038,-0.453 -0.759,0.135 -1.509,0.563 -2.265,1.274 -0.61,0.574 -5.782,5.2809999 -13.107,11.9169999 -7.324,6.637 -16.839,15.246 -26.271,23.78 -18.860996,17.068 -37.395996,33.829 -37.395996,33.829 l -1.727,1.585 h 2.35 5.832 0.34 l 0.255,-0.255 c 0,0 18.606,-16.634 37.508996,-33.546 9.452,-8.456 18.989,-16.976 26.299,-23.524 7.31,-6.549 12.329,-11.071 12.994,-11.691 2.119,-1.9779999 4.02,-1.6989999 4.02,-1.6989999 z m -8.719,1.925 c 0.295,-0.052 0.462,-0.012 0.679,0.142 0.372,0.263 0.694,1.017 0.877,1.6979999 -1.481,1.342 -4.931,4.43 -11.267,10.106 -7.31,6.548 -16.848,15.069 -26.299,23.525 -18.772996,16.796 -37.003996,33.096 -37.253996,33.319 h -3.142 c 1.593,-1.44 17.676,-15.991 35.668996,-32.272 9.431,-8.535 18.945,-17.142 26.271,-23.78 7.325,-6.637 12.405,-11.259 13.135,-11.9459999 0.585,-0.549 1.035,-0.739 1.331,-0.792 z" />
<path
   id="path35"
   fill="#f4f4f4"
   d="m 160.09677,6.6210581 c 0,0 -2.824,-0.229 -5.435,2.208 -0.008,0.007 -0.188,0.161 -0.198,0.169 -0.283,-0.681 -0.678,-1.321 -1.331,-1.783 -0.545,-0.385 -1.279,-0.588 -2.039,-0.453 -0.759,0.135 -1.509,0.563 -2.265,1.274 -0.61,0.574 -5.811,5.2809999 -13.135,11.9169999 -7.325,6.637 -16.839,15.246 -26.271,23.78 -18.861996,17.068 -37.367996,33.829 -37.367996,33.829 l -1.755,1.585 h 2.349 5.832 0.34 l 0.283,-0.255 c 0,0 18.579,-16.634 37.480996,-33.546 9.451,-8.456 18.988,-16.976 26.299,-23.524 7.311,-6.548 12.358,-11.072 13.022,-11.691 2.119,-1.9779999 3.992,-1.6989999 3.992,-1.6989999 z m -8.691,1.925 c 0.295,-0.052 0.463,-0.012 0.68,0.142 0.364,0.258 0.661,1.001 0.849,1.6699999 -1.475,1.337 -4.922,4.452 -11.267,10.135 -7.31,6.548 -16.82,15.069 -26.271,23.525 -18.773996,16.796 -37.004996,33.096 -37.253996,33.319 h -3.143 c 1.593,-1.441 17.649,-15.991 35.640996,-32.272 9.431,-8.535 18.946,-17.142 26.271,-23.78 7.085,-6.42 11.76,-10.639 12.739,-11.5499999 l 0.425,-0.396 c 0.585,-0.55 1.036,-0.74 1.33,-0.793 z" />
<path
   id="path37"
   fill="#f4f4f4"
   d="m 168.39177,6.6210581 c 0,0 -2.853,-0.229 -5.464,2.208 -0.008,0.007 -0.188,0.161 -0.198,0.169 -0.283,-0.681 -0.677,-1.321 -1.331,-1.783 -0.545,-0.385 -1.279,-0.588 -2.038,-0.453 -0.759,0.135 -1.509,0.563 -2.265,1.274 -0.611,0.574 -5.783,5.2809999 -13.107,11.9169999 -7.324,6.637 -16.839,15.246 -26.271,23.78 -18.860996,17.068 -37.395996,33.829 -37.395996,33.829 l -1.755,1.585 h 2.378 5.832 0.339 l 0.255,-0.255 c 0,0 18.606996,-16.634 37.508996,-33.546 9.452,-8.456 18.961,-16.976 26.271,-23.524 7.311,-6.549 12.358,-11.071 13.022,-11.691 2.119,-1.9779999 4.02,-1.6989999 4.02,-1.6989999 z m -8.719,1.925 c 0.295,-0.052 0.462,-0.012 0.679,0.142 0.367,0.259 0.691,0.997 0.877,1.6699999 -1.469,1.331 -4.915,4.444 -11.267,10.135 -7.31,6.548 -16.848,15.069 -26.299,23.525 -18.773,16.796 -37.004996,33.096 -37.253996,33.319 h -3.142 c 1.593,-1.44 17.675996,-15.991 35.668996,-32.272 9.432,-8.535 18.946,-17.142 26.271,-23.78 7.325,-6.637 12.405,-11.259 13.135,-11.9459999 0.585,-0.55 1.035,-0.74 1.331,-0.793 z" />
<path
   id="path39"
   fill="#f4f4f4"
   d="m 176.60077,6.6210581 c 0,0 -2.853,-0.229 -5.464,2.208 -0.008,0.007 -0.188,0.161 -0.198,0.169 -0.283,-0.681 -0.677,-1.321 -1.331,-1.783 -0.545,-0.385 -1.279,-0.588 -2.038,-0.453 -0.759,0.135 -1.509,0.563 -2.265,1.274 -0.61,0.574 -5.811,5.2809999 -13.135,11.9169999 -7.324,6.637 -16.811,15.246 -26.242,23.78 -18.862,17.068 -37.395996,33.829 -37.395996,33.829 l -1.755,1.585 h 2.35 5.832 0.339 l 0.283,-0.255 c 0,0 18.606996,-16.634 37.508996,-33.546 9.451,-8.456 18.96,-16.976 26.271,-23.524 7.311,-6.549 12.358,-11.072 13.022,-11.691 2.118,-1.9779999 3.991,-1.6989999 3.991,-1.6989999 z m -8.719,1.925 c 0.296,-0.052 0.463,-0.012 0.68,0.142 0.365,0.258 0.662,1.001 0.85,1.6699999 -1.476,1.337 -4.923,4.452 -11.267,10.135 -7.31,6.548 -16.82,15.069 -26.271,23.525 -18.773,16.796 -37.004996,33.096 -37.253996,33.319 h -3.142 c 1.593,-1.441 17.647996,-15.991 35.640996,-32.272 9.431,-8.535 18.946,-17.142 26.271,-23.78 7.325,-6.637 12.434,-11.259 13.164,-11.9459999 0.582,-0.55 1.032,-0.74 1.328,-0.793 z" />
<path
   id="path41"
   fill="#f4f4f4"
   d="m 184.86677,6.6210581 c 0,0 -2.852,-0.229 -5.463,2.208 -0.008,0.007 -0.188,0.161 -0.199,0.169 -0.283,-0.681 -0.677,-1.321 -1.331,-1.783 -0.545,-0.385 -1.279,-0.588 -2.038,-0.453 -0.759,0.135 -1.509,0.563 -2.264,1.274 -0.611,0.574 -5.783,5.2809999 -13.107,11.9169999 -7.325,6.637 -16.839,15.246 -26.271,23.78 -18.862,17.068 -37.395996,33.829 -37.395996,33.829 l -1.727,1.585 h 2.35 5.830996 0.34 l 0.254,-0.255 c 0,0 18.607,-16.634 37.509,-33.546 9.451,-8.456 18.989,-16.976 26.299,-23.524 7.31,-6.548 12.33,-11.071 12.994,-11.691 2.119,-1.9779999 4.02,-1.6989999 4.02,-1.6989999 z m -8.719,1.925 c 0.295,-0.052 0.462,-0.012 0.679,0.142 0.367,0.259 0.691,0.997 0.877,1.6699999 -1.469,1.331 -4.915,4.444 -11.267,10.135 -7.31,6.548 -16.848,15.069 -26.298,23.525 -18.774,16.796 -37.005,33.096 -37.255,33.319 h -3.141996 c 1.592996,-1.44 17.675996,-15.991 35.668996,-32.272 9.431,-8.535 18.945,-17.142 26.271,-23.78 7.325,-6.637 12.406,-11.259 13.135,-11.9459999 0.586,-0.55 1.036,-0.74 1.331,-0.793 z" />
<path
   id="path43"
   fill="#f4f4f4"
   d="m 193.13377,6.6210581 c 0,0 -2.824,-0.229 -5.436,2.208 -0.008,0.007 -0.188,0.161 -0.198,0.169 -0.284,-0.681 -0.678,-1.321 -1.331,-1.783 -0.545,-0.385 -1.308,-0.588 -2.067,-0.453 -0.759,0.135 -1.48,0.563 -2.236,1.274 -0.61,0.574 -5.811,5.2809999 -13.135,11.9169999 -7.324,6.637 -16.839,15.246 -26.271,23.78 -18.862,17.068 -37.367,33.829 -37.367,33.829 l -1.755,1.585 h 2.35 5.832 0.339 l 0.255,-0.255 c 0,0 18.607,-16.634 37.509,-33.546 9.451,-8.456 18.989,-16.976 26.299,-23.524 7.311,-6.549 12.358,-11.071 13.022,-11.691 2.118,-1.9779999 3.991,-1.6989999 3.991,-1.6989999 z m -8.691,1.925 c 0.295,-0.052 0.462,-0.012 0.679,0.142 0.365,0.258 0.662,1.001 0.85,1.6699999 -1.475,1.337 -4.923,4.452 -11.267,10.135 -7.31,6.548 -16.82,15.069 -26.271,23.525 -18.773,16.796 -37.005,33.096 -37.254,33.319 h -3.171 c 1.593,-1.44 17.676,-15.991 35.669,-32.272 9.431,-8.535 18.946,-17.142 26.271,-23.78 7.085,-6.42 11.76,-10.639 12.739,-11.5499999 l 0.424,-0.396 c 0.585,-0.55 1.035,-0.74 1.331,-0.793 z" />
<path
   id="path45"
   fill="#f4f4f4"
   d="m 201.42777,6.6210581 c 0,0 -2.852,-0.229 -5.463,2.208 -0.008,0.007 -0.188,0.161 -0.199,0.169 -0.283,-0.681 -0.677,-1.321 -1.331,-1.783 -0.545,-0.385 -1.279,-0.588 -2.038,-0.453 -0.759,0.135 -1.51,0.563 -2.265,1.274 -0.61,0.574 -5.783,5.2809999 -13.106,11.9169999 -7.325,6.637 -16.839,15.246 -26.271,23.78 -18.863,17.068 -37.396,33.829 -37.396,33.829 l -1.755,1.585 h 2.35 5.86 0.339 l 0.254,-0.255 c 0,0 18.607,-16.634 37.51,-33.546 9.451,-8.456 18.96,-16.976 26.271,-23.524 7.31,-6.549 12.357,-11.071 13.022,-11.691 2.119,-1.9779999 4.02,-1.6989999 4.02,-1.6989999 z m -8.719,1.925 c 0.295,-0.052 0.462,-0.012 0.679,0.142 0.368,0.259 0.691,0.997 0.878,1.6699999 -1.47,1.331 -4.915,4.444 -11.267,10.135 -7.31,6.548 -16.848,15.069 -26.298,23.525 -18.774,16.796 -37.005,33.096 -37.255,33.319 h -3.142 c 1.593,-1.44 17.676,-15.991 35.669,-32.272 9.432,-8.535 18.945,-17.142 26.271,-23.78 7.325,-6.637 12.406,-11.259 13.135,-11.9459999 0.584,-0.55 1.034,-0.74 1.33,-0.793 z" />
<path
   id="path47"
   fill="#f4f4f4"
   d="m 209.69377,6.6210581 c 0,0 -2.824,-0.229 -5.436,2.208 -0.007,0.007 -0.188,0.161 -0.198,0.169 -0.284,-0.681 -0.678,-1.321 -1.331,-1.783 -0.545,-0.385 -1.308,-0.588 -2.067,-0.453 -0.759,0.135 -1.48,0.563 -2.236,1.274 -0.61,0.574 -5.811,5.2809999 -13.135,11.9169999 -7.324,6.637 -16.839,15.246 -26.271,23.78 -18.863,17.068 -37.396,33.829 -37.396,33.829 l -1.727,1.585 h 2.35 5.832 0.34 l 0.255,-0.255 c 0,0 18.606,-16.634 37.509,-33.546 9.452,-8.456 18.989,-16.976 26.299,-23.524 7.311,-6.549 12.33,-11.071 12.994,-11.691 2.119,-1.9779999 4.02,-1.6989999 4.02,-1.6989999 z m -8.691,1.925 c 0.295,-0.052 0.463,-0.012 0.68,0.142 0.365,0.258 0.661,1.001 0.849,1.6699999 -1.475,1.337 -4.923,4.452 -11.267,10.135 -7.31,6.548 -16.819,15.069 -26.271,23.525 -18.774,16.796 -37.004,33.096 -37.254,33.319 h -3.171 c 1.593,-1.44 17.676,-15.991 35.669,-32.272 9.431,-8.535 18.946,-17.142 26.271,-23.78 7.325,-6.637 12.406,-11.259 13.135,-11.9459999 0.585,-0.55 1.064,-0.74 1.359,-0.793 z" />
<path
   id="path49"
   fill="#f4f4f4"
   d="m 217.98877,6.6210581 c 0,0 -2.852,-0.229 -5.463,2.208 -0.008,0.007 -0.188,0.161 -0.198,0.169 -0.283,-0.681 -0.678,-1.321 -1.331,-1.783 -0.545,-0.385 -1.279,-0.588 -2.038,-0.453 -0.759,0.135 -1.509,0.563 -2.265,1.274 -0.609,0.574 -5.782,5.2809999 -13.106,11.9169999 -7.325,6.637 -16.839,15.246 -26.271,23.78 -18.863,17.068 -37.396,33.829 -37.396,33.829 l -1.755,1.585 h 2.35 5.832 0.368 l 0.254,-0.255 c 0,0 18.607,-16.634 37.51,-33.546 9.451,-8.456 18.96,-16.976 26.271,-23.524 7.31,-6.549 12.357,-11.071 13.022,-11.691 2.118,-1.9779999 4.02,-1.6989999 4.02,-1.6989999 z m -8.719,1.925 c 0.295,-0.052 0.462,-0.012 0.679,0.142 0.367,0.259 0.691,0.997 0.877,1.6699999 -1.469,1.331 -4.916,4.444 -11.267,10.135 -7.31,6.548 -16.849,15.069 -26.299,23.525 -18.773,16.796 -37.004,33.096 -37.254,33.319 h -3.143 c 1.593,-1.44 17.677,-15.991 35.669,-32.272 9.431,-8.535 18.945,-17.142 26.271,-23.78 7.324,-6.637 12.405,-11.259 13.135,-11.9459999 0.586,-0.55 1.036,-0.74 1.332,-0.793 z" />
<path
   id="path51"
   fill="#f4f4f4"
   d="m 226.25477,6.6210581 c 0,0 -2.824,-0.229 -5.435,2.208 -0.009,0.008 -0.215,0.188 -0.227,0.198 -0.283,-0.691 -0.669,-1.344 -1.331,-1.812 -0.545,-0.385 -1.279,-0.588 -2.038,-0.453 -0.759,0.135 -1.509,0.563 -2.265,1.274 -0.611,0.574 -5.783,5.2809999 -13.107,11.9169999 -7.324,6.637 -16.839,15.246 -26.271,23.78 -18.862,17.068 -37.396,33.829 -37.396,33.829 l -1.727,1.585 h 2.35 5.832 0.339 l 0.255,-0.255 c 0,0 18.607,-16.634 37.509,-33.546 9.452,-8.456 18.989,-16.976 26.299,-23.524 7.311,-6.549 12.33,-11.071 12.994,-11.691 2.119,-1.9779999 4.02,-1.6989999 4.02,-1.6989999 z m -8.72,1.925 c 0.295,-0.052 0.462,-0.012 0.68,0.142 0.373,0.263 0.694,1.017 0.877,1.6979999 -1.482,1.342 -4.931,4.43 -11.267,10.106 -7.31,6.548 -16.849,15.069 -26.299,23.525 -18.773,16.796 -37.005,33.096 -37.255,33.319 h -3.142 c 1.593,-1.44 17.676,-15.991 35.669,-32.272 9.432,-8.535 18.946,-17.142 26.271,-23.78 7.325,-6.637 12.406,-11.259 13.135,-11.9459999 0.586,-0.549 1.036,-0.739 1.331,-0.792 z" />
<path
   id="path53"
   fill="#f4f4f4"
   d="m 234.52077,6.6210581 c 0,0 -2.824,-0.229 -5.435,2.208 -0.008,0.007 -0.188,0.161 -0.198,0.169 -0.283,-0.681 -0.678,-1.321 -1.331,-1.783 -0.545,-0.385 -1.279,-0.588 -2.038,-0.453 -0.759,0.135 -1.509,0.563 -2.265,1.274 -0.61,0.574 -5.811,5.2809999 -13.135,11.9169999 -7.325,6.637 -16.84,15.246 -26.271,23.78 -18.862,17.068 -37.368,33.829 -37.368,33.829 l -1.755,1.585 h 2.35 5.832 0.34 l 0.283,-0.255 c 0,0 18.579,-16.634 37.481,-33.546 9.451,-8.456 18.988,-16.976 26.299,-23.524 7.31,-6.549 12.357,-11.071 13.022,-11.691 2.118,-1.9779999 3.992,-1.6989999 3.992,-1.6989999 z m -8.691,1.925 c 0.295,-0.052 0.462,-0.012 0.679,0.142 0.365,0.258 0.662,1.001 0.849,1.6699999 -1.475,1.337 -4.922,4.452 -11.267,10.135 -7.31,6.548 -16.82,15.069 -26.271,23.525 -18.773,16.796 -37.004,33.096 -37.254,33.319 h -3.142 c 1.593,-1.441 17.647,-15.991 35.641,-32.272 9.431,-8.535 18.945,-17.142 26.271,-23.78 7.085,-6.42 11.759,-10.639 12.739,-11.5499999 l 0.425,-0.396 c 0.584,-0.55 1.035,-0.74 1.33,-0.793 z" />
<path
   id="path55"
   fill="#f4f4f4"
   d="m 242.89977,6.6210581 c 0,0 -2.853,-0.229 -5.464,2.208 -0.007,0.007 -0.188,0.161 -0.198,0.169 -0.283,-0.681 -0.677,-1.321 -1.331,-1.783 -0.545,-0.385 -1.279,-0.588 -2.038,-0.453 -0.759,0.135 -1.509,0.563 -2.265,1.274 -0.61,0.574 -5.782,5.2809999 -13.106,11.9169999 -7.325,6.637 -16.839,15.246 -26.271,23.78 -18.863,17.068 -37.396,33.829 -37.396,33.829 l -1.755,1.585 h 2.35 5.832 0.369 l 0.254,-0.255 c 0,0 18.607,-16.634 37.509,-33.546 9.451,-8.456 18.96,-16.976 26.27,-23.524 7.311,-6.549 12.358,-11.072 13.022,-11.691 2.118,-1.9779999 4.02,-1.6989999 4.02,-1.6989999 z m -8.719,1.925 c 0.295,-0.052 0.462,-0.012 0.679,0.142 0.367,0.259 0.691,0.997 0.877,1.6699999 -1.47,1.332 -4.915,4.444 -11.267,10.135 -7.31,6.548 -16.848,15.069 -26.299,23.525 -18.773,16.796 -37.004,33.096 -37.254,33.319 h -3.142 c 1.592,-1.44 17.676,-15.991 35.669,-32.272 9.431,-8.535 18.945,-17.142 26.271,-23.78 7.085,-6.42 11.731,-10.639 12.71,-11.5499999 l 0.425,-0.396 c 0.585,-0.55 1.036,-0.74 1.331,-0.793 z" />
<path
   id="path57"
   fill="#f4f4f4"
   d="m 251.16577,6.6210581 c 0,0 -2.824,-0.229 -5.435,2.208 -0.009,0.008 -0.215,0.188 -0.227,0.198 -0.283,-0.69 -0.67,-1.345 -1.33,-1.812 -0.546,-0.385 -1.28,-0.588 -2.039,-0.453 -0.759,0.135 -1.509,0.563 -2.265,1.274 -0.61,0.574 -5.783,5.2809999 -13.107,11.9169999 -7.325,6.637 -16.839,15.246 -26.271,23.78 -18.862,17.068 -37.396,33.829 -37.396,33.829 l -1.726,1.585 h 2.35 5.832 0.339 l 0.255,-0.255 c 0,0 18.607,-16.634 37.509,-33.546 9.451,-8.456 18.989,-16.976 26.299,-23.524 7.311,-6.549 12.329,-11.071 12.994,-11.691 2.119,-1.9779999 4.02,-1.6989999 4.02,-1.6989999 z m -8.718,1.925 c 0.295,-0.052 0.491,-0.012 0.708,0.142 0.372,0.263 0.665,1.017 0.85,1.6979999 -1.481,1.341 -4.931,4.43 -11.267,10.106 -7.31,6.548 -16.849,15.069 -26.299,23.525 -18.774,16.796 -36.977,33.096 -37.227,33.319 h -3.17 c 1.593,-1.44 17.677,-15.991 35.669,-32.272 9.431,-8.535 18.946,-17.142 26.271,-23.78 7.325,-6.637 12.405,-11.259 13.135,-11.9459999 0.584,-0.549 1.034,-0.739 1.33,-0.792 z" />
<path
   id="path59"
   fill="#f4f4f4"
   d="m 259.46077,6.6210581 c 0,0 -2.851,-0.229 -5.463,2.208 -0.008,0.007 -0.188,0.161 -0.198,0.169 -0.284,-0.681 -0.677,-1.321 -1.331,-1.783 -0.545,-0.385 -1.279,-0.588 -2.038,-0.453 -0.759,0.135 -1.509,0.563 -2.265,1.274 -0.611,0.574 -5.783,5.2809999 -13.107,11.9169999 -7.324,6.637 -16.839,15.246 -26.271,23.78 -18.862,17.068 -37.396,33.829 -37.396,33.829 l -1.755,1.585 h 2.35 5.832 0.339 l 0.283,-0.255 c 0,0 18.607,-16.634 37.509,-33.546 9.452,-8.456 18.96,-16.976 26.271,-23.524 7.311,-6.549 12.358,-11.072 13.022,-11.691 2.12,-1.9789999 3.991,-1.6989999 3.991,-1.6989999 z m -8.719,1.925 c 0.295,-0.052 0.462,-0.012 0.679,0.142 0.365,0.258 0.662,1.001 0.85,1.6699999 -1.476,1.337 -4.923,4.452 -11.267,10.135 -7.31,6.548 -16.82,15.069 -26.271,23.525 -18.773,16.796 -37.004,33.096 -37.254,33.319 h -3.142 c 1.593,-1.441 17.647,-15.991 35.641,-32.272 9.431,-8.535 18.946,-17.142 26.271,-23.78 7.085,-6.42 11.76,-10.639 12.739,-11.5499999 l 0.425,-0.396 c 0.583,-0.55 1.033,-0.74 1.329,-0.793 z" />
<path
   id="path61"
   fill="#f4f4f4"
   d="m 267.72577,6.6210581 c 0,0 -2.851,-0.229 -5.463,2.208 -0.008,0.007 -0.188,0.161 -0.198,0.169 -0.283,-0.681 -0.677,-1.321 -1.33,-1.783 -0.546,-0.385 -1.28,-0.588 -2.039,-0.453 -0.759,0.135 -1.509,0.563 -2.265,1.274 -0.61,0.574 -5.783,5.2809999 -13.107,11.9169999 -7.325,6.637 -16.839,15.246 -26.271,23.78 -18.863,17.068 -37.396,33.829 -37.396,33.829 l -1.727,1.585 h 2.349 5.832 0.339 l 0.255,-0.255 c 0,0 18.607,-16.634 37.509,-33.546 9.451,-8.456 18.988,-16.976 26.299,-23.524 7.311,-6.548 12.329,-11.071 12.994,-11.691 2.119,-1.9779999 4.02,-1.6989999 4.02,-1.6989999 z m -8.718,1.925 c 0.295,-0.053 0.462,-0.012 0.679,0.142 0.367,0.259 0.691,0.997 0.877,1.6699999 -1.468,1.331 -4.915,4.444 -11.267,10.135 -7.31,6.548 -16.849,15.069 -26.299,23.525 -18.774,16.796 -37.005,33.096 -37.254,33.319 h -3.142 c 1.593,-1.44 17.676,-15.991 35.669,-32.272 9.431,-8.535 18.946,-17.142 26.271,-23.78 7.325,-6.637 12.405,-11.259 13.135,-11.9459999 0.585,-0.55 1.036,-0.74 1.331,-0.793 z" />
<path
   id="path63"
   fill="#f4f4f4"
   d="m 275.99277,6.6210581 c 0,0 -2.822,-0.229 -5.436,2.208 -0.007,0.007 -0.188,0.161 -0.198,0.169 -0.283,-0.681 -0.677,-1.321 -1.331,-1.783 -0.545,-0.385 -1.307,-0.588 -2.066,-0.453 -0.759,0.135 -1.481,0.563 -2.236,1.274 -0.61,0.574 -5.811,5.2809999 -13.135,11.9169999 -7.324,6.637 -16.839,15.246 -26.271,23.78 -18.862,17.068 -37.368,33.829 -37.368,33.829 l -1.755,1.585 h 2.35 5.832 0.339 l 0.255,-0.255 c 0,0 18.607,-16.634 37.509,-33.546 9.451,-8.456 18.988,-16.976 26.299,-23.524 7.31,-6.549 12.358,-11.072 13.021,-11.691 2.12,-1.9789999 3.992,-1.6989999 3.992,-1.6989999 z m -8.691,1.925 c 0.296,-0.052 0.464,-0.012 0.68,0.142 0.366,0.258 0.662,1.001 0.85,1.6699999 -1.476,1.337 -4.922,4.452 -11.267,10.135 -7.31,6.548 -16.82,15.069 -26.271,23.525 -18.773,16.796 -37.005,33.096 -37.254,33.319 h -3.142 c 1.593,-1.441 17.648,-15.991 35.641,-32.272 9.431,-8.535 18.946,-17.142 26.271,-23.78 7.085,-6.42 11.759,-10.639 12.739,-11.5499999 l 0.425,-0.396 c 0.582,-0.55 1.033,-0.74 1.328,-0.793 z" />
<path
   id="path65"
   fill="#f4f4f4"
   d="m 284.28677,6.6210581 c 0,0 -2.813,-0.223 -5.406,2.151 l -0.057,0.057 c -0.007,0.007 -0.188,0.161 -0.198,0.169 -0.283,-0.681 -0.677,-1.321 -1.331,-1.783 -0.545,-0.385 -1.278,-0.588 -2.038,-0.453 -0.759,0.135 -1.508,0.563 -2.264,1.274 -0.61,0.574 -5.783,5.2809999 -13.107,11.9169999 -7.325,6.637 -16.839,15.246 -26.271,23.78 -18.863,17.068 -37.396,33.829 -37.396,33.829 l -1.755,1.585 h 2.349 5.86 0.34 l 0.255,-0.255 c 0,0 18.607,-16.634 37.509,-33.546 9.451,-8.456 18.96,-16.976 26.271,-23.524 7.31,-6.549 12.358,-11.071 13.021,-11.691 2.12,-1.9779999 4.02,-1.6989999 4.02,-1.6989999 z m -8.719,1.925 c 0.295,-0.053 0.463,-0.012 0.68,0.142 0.368,0.259 0.691,0.997 0.877,1.6699999 -1.468,1.331 -4.915,4.444 -11.266,10.135 -7.31,6.548 -16.848,15.069 -26.299,23.525 -18.773,16.796 -37.005,33.096 -37.254,33.319 h -3.142 c 1.593,-1.44 17.676,-15.991 35.669,-32.272 9.431,-8.535 18.945,-17.142 26.271,-23.78 7.325,-6.637 12.406,-11.259 13.135,-11.9459999 0.584,-0.55 1.034,-0.74 1.329,-0.793 z" />
<path
   id="path67"
   fill="#f4f4f4"
   d="m 292.55277,6.6210581 c 0,0 -2.824,-0.229 -5.435,2.208 -0.008,0.007 -0.188,0.161 -0.199,0.169 -0.283,-0.681 -0.677,-1.321 -1.33,-1.783 -0.545,-0.385 -1.308,-0.588 -2.066,-0.453 -0.76,0.135 -1.481,0.563 -2.236,1.274 -0.61,0.574 -5.811,5.2809999 -13.136,11.9169999 -7.324,6.637 -16.839,15.246 -26.27,23.78 -18.862,17.068 -37.396,33.829 -37.396,33.829 l -1.727,1.585 h 2.35 5.832 0.339 l 0.255,-0.255 c 0,0 18.607,-16.634 37.509,-33.546 9.451,-8.456 18.989,-16.976 26.298,-23.524 7.311,-6.549 12.33,-11.071 12.994,-11.691 2.119,-1.9779999 4.02,-1.6989999 4.02,-1.6989999 z m -8.69,1.925 c 0.295,-0.052 0.463,-0.012 0.679,0.142 0.366,0.258 0.662,1.001 0.85,1.6699999 -1.474,1.336 -4.922,4.452 -11.267,10.135 -7.309,6.548 -16.819,15.069 -26.27,23.525 -18.773,16.796 -37.005,33.096 -37.254,33.319 h -3.17 c 1.593,-1.44 17.676,-15.991 35.669,-32.272 9.431,-8.535 18.946,-17.142 26.27,-23.78 7.325,-6.637 12.406,-11.259 13.135,-11.9459999 0.585,-0.55 1.062,-0.74 1.358,-0.793 z" />
<path
   id="path69"
   fill="#f4f4f4"
   d="m 300.84777,6.6210581 c 0,0 -2.853,-0.229 -5.465,2.208 -0.006,0.007 -0.188,0.161 -0.197,0.169 -0.283,-0.681 -0.678,-1.321 -1.331,-1.783 -0.544,-0.385 -1.279,-0.588 -2.038,-0.453 -0.759,0.135 -1.509,0.563 -2.265,1.274 -0.61,0.574 -5.782,5.2809999 -13.106,11.9169999 -7.324,6.637 -16.839,15.246 -26.271,23.78 -18.862,17.068 -37.396,33.829 -37.396,33.829 l -1.755,1.585 h 2.35 5.832 0.368 l 0.255,-0.255 c 0,0 18.607,-16.634 37.509,-33.546 9.451,-8.456 18.96,-16.976 26.271,-23.524 7.311,-6.549 12.358,-11.071 13.021,-11.691 2.12,-1.9779999 4.021,-1.6989999 4.021,-1.6989999 z m -8.719,1.925 c 0.296,-0.052 0.464,-0.012 0.68,0.142 0.368,0.259 0.692,0.997 0.878,1.6699999 -1.469,1.331 -4.915,4.444 -11.268,10.135 -7.309,6.548 -16.848,15.069 -26.298,23.525 -18.774,16.796 -37.005,33.096 -37.255,33.319 h -3.142 c 1.593,-1.44 17.676,-15.991 35.669,-32.272 9.432,-8.535 18.945,-17.142 26.27,-23.78 7.086,-6.42 11.732,-10.639 12.711,-11.5499999 l 0.425,-0.396 c 0.585,-0.55 1.035,-0.74 1.33,-0.793 z" />
<path
   id="path71"
   fill="#f4f4f4"
   d="m 309.02877,6.6210581 c 0,0 -2.824,-0.229 -5.436,2.208 -0.007,0.007 -0.188,0.161 -0.198,0.169 -0.283,-0.681 -0.677,-1.321 -1.33,-1.783 -0.545,-0.385 -1.308,-0.588 -2.066,-0.453 -0.758,0.135 -1.481,0.563 -2.237,1.274 -0.609,0.574 -5.81,5.2809999 -13.135,11.9169999 -7.324,6.637 -16.838,15.246 -26.27,23.78 -18.862,17.068 -37.396,33.829 -37.396,33.829 l -1.727,1.585 h 2.35 5.832 0.34 l 0.254,-0.255 c 0,0 18.607,-16.634 37.51,-33.546 9.451,-8.456 18.989,-16.976 26.298,-23.524 7.312,-6.549 12.33,-11.071 12.994,-11.691 2.119,-1.9779999 4.02,-1.6989999 4.02,-1.6989999 z m -8.69,1.925 c 0.295,-0.052 0.463,-0.012 0.679,0.142 0.366,0.258 0.662,1.001 0.85,1.6699999 -1.476,1.337 -4.923,4.452 -11.268,10.135 -7.308,6.548 -16.818,15.069 -26.269,23.525 -18.774,16.796 -37.005,33.096 -37.255,33.319 h -3.17 c 1.593,-1.44 17.676,-15.991 35.669,-32.272 9.432,-8.535 18.945,-17.142 26.269,-23.78 7.325,-6.637 12.407,-11.259 13.136,-11.9459999 0.585,-0.55 1.063,-0.74 1.359,-0.793 z" />
<path
   id="path73"
   fill="#f4f4f4"
   d="m 317.32377,6.6210581 c 0,0 -2.853,-0.229 -5.464,2.208 -0.007,0.007 -0.188,0.161 -0.198,0.169 -0.283,-0.681 -0.677,-1.321 -1.331,-1.783 -0.544,-0.385 -1.279,-0.588 -2.037,-0.453 -0.76,0.135 -1.51,0.563 -2.266,1.274 -0.609,0.574 -5.781,5.2809999 -13.106,11.9169999 -7.323,6.637 -16.838,15.246 -26.271,23.78 -18.862,17.068 -37.396,33.829 -37.396,33.829 l -1.755,1.585 h 2.35 5.832 0.368 l 0.255,-0.255 c 0,0 18.607,-16.634 37.508,-33.546 9.452,-8.456 18.96,-16.976 26.271,-23.524 7.311,-6.548 12.358,-11.072 13.022,-11.691 2.117,-1.9779999 4.019,-1.6989999 4.019,-1.6989999 z m -8.719,1.925 c 0.295,-0.052 0.463,-0.012 0.679,0.142 0.368,0.259 0.692,0.997 0.878,1.6699999 -1.469,1.332 -4.916,4.444 -11.268,10.135 -7.309,6.548 -16.847,15.069 -26.299,23.525 -18.772,16.796 -37.004,33.096 -37.254,33.319 h -3.142 c 1.593,-1.44 17.676,-15.991 35.668,-32.272 9.432,-8.535 18.945,-17.142 26.271,-23.78 7.087,-6.42 11.732,-10.639 12.711,-11.5499999 l 0.425,-0.396 c 0.585,-0.55 1.035,-0.74 1.331,-0.793 z" />
<path
   id="path75"
   fill="#f4f4f4"
   d="m 325.59077,6.6210581 c 0,0 -2.822,-0.229 -5.437,2.208 -0.008,0.008 -0.214,0.188 -0.226,0.198 -0.283,-0.69 -0.669,-1.345 -1.331,-1.812 -0.544,-0.385 -1.279,-0.588 -2.038,-0.453 -0.759,0.135 -1.51,0.563 -2.265,1.274 -0.61,0.574 -5.782,5.2809999 -13.106,11.9169999 -7.323,6.637 -16.839,15.246 -26.271,23.78 -18.861,17.068 -37.395,33.829 -37.395,33.829 l -1.727,1.585 h 2.35 5.832 0.339 l 0.255,-0.255 c 0,0 18.607,-16.634 37.508,-33.546 9.452,-8.456 18.99,-16.976 26.299,-23.524 7.311,-6.549 12.331,-11.072 12.993,-11.691 2.121,-1.9789999 4.021,-1.6989999 4.021,-1.6989999 z m -8.721,1.925 c 0.296,-0.053 0.493,-0.012 0.709,0.142 0.371,0.263 0.664,1.017 0.85,1.6979999 -1.481,1.342 -4.932,4.43 -11.268,10.106 -7.309,6.548 -16.848,15.069 -26.299,23.525 -18.773,16.796 -36.977,33.096 -37.226,33.319 h -3.17 c 1.593,-1.44 17.676,-15.991 35.668,-32.272 9.432,-8.535 18.945,-17.142 26.271,-23.78 7.325,-6.637 12.406,-11.259 13.135,-11.9459999 0.586,-0.549 1.035,-0.739 1.33,-0.792 z" />
<path
   id="path77"
   fill="#f4f4f4"
   d="m 333.88377,6.6210581 c 0,0 -2.851,-0.229 -5.463,2.208 -0.008,0.007 -0.188,0.161 -0.198,0.169 -0.283,-0.681 -0.678,-1.321 -1.33,-1.783 -0.546,-0.385 -1.279,-0.588 -2.039,-0.453 -0.759,0.135 -1.509,0.563 -2.265,1.274 -0.61,0.574 -5.782,5.2809999 -13.106,11.9169999 -7.325,6.637 -16.839,15.246 -26.271,23.78 -18.862,17.068 -37.396,33.829 -37.396,33.829 l -1.755,1.585 h 2.35 5.832 0.339 l 0.283,-0.255 c 0,0 18.607,-16.634 37.509,-33.546 9.451,-8.456 18.959,-16.976 26.271,-23.524 7.311,-6.549 12.358,-11.072 13.021,-11.691 2.12,-1.9789999 3.992,-1.6989999 3.992,-1.6989999 z m -8.719,1.925 c 0.296,-0.052 0.464,-0.012 0.68,0.142 0.364,0.258 0.661,1.001 0.849,1.6699999 -1.476,1.337 -4.921,4.452 -11.267,10.135 -7.309,6.548 -16.819,15.069 -26.27,23.525 -18.773,16.796 -37.005,33.096 -37.255,33.319 h -3.142 c 1.593,-1.441 17.648,-15.991 35.641,-32.272 9.432,-8.535 18.974,-17.142 26.299,-23.78 7.085,-6.42 11.732,-10.639 12.71,-11.5499999 l 0.425,-0.396 c 0.586,-0.55 1.035,-0.74 1.33,-0.793 z" />
<path
   id="path79"
   fill="#f4f4f4"
   d="m 342.14977,6.6210581 c 0,0 -2.853,-0.229 -5.463,2.208 -0.008,0.007 -0.188,0.161 -0.198,0.169 -0.283,-0.681 -0.678,-1.321 -1.33,-1.783 -0.546,-0.385 -1.28,-0.588 -2.039,-0.453 -0.759,0.135 -1.509,0.563 -2.265,1.274 -0.61,0.575 -5.782,5.2809999 -13.107,11.9169999 -7.325,6.637 -16.838,15.246 -26.271,23.78 -18.862,17.068 -37.395,33.829 -37.395,33.829 l -1.727,1.585 h 2.35 5.832 0.34 l 0.254,-0.255 c 0,0 18.607,-16.634 37.508,-33.546 9.452,-8.456 18.99,-16.976 26.299,-23.524 7.312,-6.549 12.331,-11.071 12.994,-11.691 2.119,-1.9779999 4.02,-1.6989999 4.02,-1.6989999 z m -8.719,1.925 c 0.295,-0.052 0.464,-0.012 0.679,0.142 0.368,0.259 0.692,0.997 0.878,1.6699999 -1.469,1.331 -4.915,4.444 -11.267,10.135 -7.309,6.548 -16.848,15.069 -26.299,23.525 -18.773,16.796 -37.004,33.096 -37.254,33.319 h -3.142 c 1.593,-1.44 17.676,-15.991 35.667,-32.272 9.434,-8.535 18.947,-17.142 26.271,-23.78 7.324,-6.637 12.406,-11.26 13.135,-11.9459999 0.587,-0.55 1.037,-0.74 1.332,-0.793 z" />
<path
   id="path81"
   fill="#f4f4f4"
   d="m 350.41677,6.6210581 c 0,0 -2.822,-0.229 -5.436,2.208 -0.007,0.007 -0.188,0.161 -0.198,0.169 -0.283,-0.681 -0.677,-1.321 -1.331,-1.783 -0.544,-0.385 -1.279,-0.588 -2.037,-0.453 -0.76,0.135 -1.51,0.563 -2.265,1.274 -0.611,0.574 -5.811,5.2809999 -13.136,11.9169999 -7.323,6.637 -16.839,15.246 -26.271,23.78 -18.861,17.068 -37.367,33.829 -37.367,33.829 l -1.755,1.585 h 2.35 5.831 0.339 l 0.255,-0.255 c 0,0 18.607,-16.634 37.509,-33.546 9.452,-8.456 18.988,-16.976 26.299,-23.524 7.311,-6.548 12.358,-11.072 13.022,-11.691 2.119,-1.9789999 3.991,-1.6989999 3.991,-1.6989999 z m -8.692,1.925 c 0.296,-0.052 0.464,-0.012 0.68,0.142 0.366,0.258 0.662,1.001 0.85,1.6699999 -1.476,1.337 -4.923,4.452 -11.268,10.135 -7.309,6.548 -16.818,15.069 -26.271,23.525 -18.773,16.796 -37.005,33.096 -37.254,33.319 h -3.142 c 1.593,-1.441 17.649,-15.991 35.64,-32.272 9.433,-8.535 18.946,-17.142 26.271,-23.78 7.086,-6.42 11.761,-10.639 12.739,-11.5499999 l 0.425,-0.396 c 0.585,-0.55 1.035,-0.74 1.33,-0.793 z" />
<path
   id="path83"
   fill="#f4f4f4"
   d="m 358.71177,6.6210581 c 0,0 -2.853,-0.229 -5.465,2.208 -0.007,0.007 -0.188,0.161 -0.197,0.169 -0.283,-0.681 -0.678,-1.321 -1.331,-1.783 -0.544,-0.385 -1.279,-0.588 -2.038,-0.453 -0.76,0.135 -1.51,0.563 -2.265,1.274 -0.608,0.574 -5.782,5.2809999 -13.106,11.9169999 -7.323,6.637 -16.839,15.246 -26.271,23.78 -18.863,17.068 -37.396,33.829 -37.396,33.829 l -1.755,1.585 h 2.35 5.86 0.339 l 0.255,-0.255 c 0,0 18.607,-16.634 37.51,-33.546 9.45,-8.456 18.959,-16.976 26.271,-23.524 7.311,-6.549 12.357,-11.072 13.021,-11.691 2.118,-1.9779999 4.021,-1.6989999 4.021,-1.6989999 z m -8.72,1.925 c 0.296,-0.053 0.463,-0.012 0.679,0.142 0.369,0.259 0.692,0.997 0.879,1.6699999 -1.47,1.332 -4.915,4.444 -11.268,10.135 -7.31,6.548 -16.848,15.069 -26.299,23.525 -18.774,16.796 -37.005,33.096 -37.254,33.319 h -3.142 c 1.593,-1.44 17.677,-15.991 35.669,-32.272 9.432,-8.535 18.945,-17.142 26.271,-23.78 7.325,-6.637 12.406,-11.259 13.136,-11.9459999 0.584,-0.55 1.034,-0.74 1.329,-0.793 z" />
<path
   id="path85"
   fill="#f4f4f4"
   d="m 366.97677,6.6210581 c 0,0 -2.822,-0.229 -5.436,2.208 -0.007,0.007 -0.188,0.161 -0.198,0.169 -0.283,-0.681 -0.678,-1.321 -1.33,-1.783 -0.545,-0.385 -1.308,-0.588 -2.066,-0.453 -0.76,0.135 -1.481,0.563 -2.237,1.274 -0.61,0.574 -5.81,5.2809999 -13.135,11.9169999 -7.322,6.637 -16.838,15.246 -26.271,23.78 -18.862,17.068 -37.396,33.829 -37.396,33.829 l -1.727,1.585 h 2.349 5.832 0.34 l 0.255,-0.255 c 0,0 18.607,-16.634 37.509,-33.546 9.451,-8.456 18.988,-16.976 26.3,-23.524 7.311,-6.549 12.329,-11.072 12.993,-11.691 2.119,-1.9789999 4.019,-1.6989999 4.019,-1.6989999 z m -8.691,1.925 c 0.296,-0.053 0.464,-0.012 0.68,0.142 0.365,0.258 0.662,1.001 0.85,1.6699999 -1.476,1.337 -4.922,4.452 -11.268,10.135 -7.309,6.548 -16.818,15.069 -26.271,23.525 -18.771,16.796 -37.004,33.096 -37.254,33.319 h -3.171 c 1.594,-1.44 17.678,-15.991 35.67,-32.272 9.432,-8.535 18.945,-17.142 26.27,-23.78 7.325,-6.637 12.407,-11.259 13.135,-11.9459999 0.586,-0.55 1.064,-0.74 1.359,-0.793 z" />
<path
   id="path87"
   fill="#f4f4f4"
   d="m 375.01577,6.6210581 c 0,0 -2.824,-0.229 -5.435,2.208 -0.008,0.007 -0.188,0.161 -0.198,0.169 -0.283,-0.681 -0.678,-1.321 -1.33,-1.783 -0.546,-0.385 -1.309,-0.588 -2.067,-0.453 -0.758,0.135 -1.48,0.563 -2.236,1.274 -0.61,0.575 -5.811,5.2809999 -13.136,11.9169999 -7.324,6.637 -16.838,15.246 -26.271,23.78 -18.862,17.068 -37.367,33.829 -37.367,33.829 l -1.755,1.585 h 2.35 5.832 0.34 l 0.255,-0.255 c 0,0 18.607,-16.634 37.508,-33.546 9.452,-8.456 18.99,-16.976 26.299,-23.524 7.312,-6.549 12.331,-11.071 12.994,-11.691 2.119,-1.9779999 4.02,-1.6989999 4.02,-1.6989999 z m -8.69,1.925 c 0.296,-0.052 0.464,-0.012 0.68,0.142 0.364,0.258 0.661,1.001 0.849,1.6699999 -1.476,1.337 -4.922,4.452 -11.267,10.135 -7.309,6.548 -16.819,15.069 -26.271,23.525 -18.773,16.796 -37.004,33.096 -37.254,33.319 h -3.171 c 1.594,-1.44 17.678,-15.991 35.669,-32.272 9.433,-8.535 18.946,-17.142 26.271,-23.78 7.325,-6.637 12.435,-11.26 13.163,-11.9459999 0.587,-0.55 1.035,-0.74 1.331,-0.793 z" />
<path
   id="path89"
   fill="#f4f4f4"
   d="m 383.31077,6.6210581 c 0,0 -2.853,-0.229 -5.463,2.208 -0.008,0.007 -0.188,0.161 -0.199,0.169 -0.282,-0.681 -0.678,-1.321 -1.33,-1.783 -0.545,-0.385 -1.279,-0.588 -2.038,-0.453 -0.759,0.135 -1.509,0.563 -2.265,1.274 -0.611,0.574 -5.782,5.2809999 -13.107,11.9169999 -7.325,6.637 -16.838,15.246 -26.271,23.78 -18.862,17.068 -37.396,33.829 -37.396,33.829 l -1.755,1.585 h 2.35 5.831 0.368 l 0.255,-0.255 c 0,0 18.607,-16.634 37.509,-33.546 9.452,-8.456 18.96,-16.976 26.271,-23.524 7.311,-6.548 12.358,-11.072 13.022,-11.691 2.117,-1.9779999 4.02,-1.6989999 4.02,-1.6989999 z m -8.718,1.925 c 0.295,-0.052 0.464,-0.012 0.679,0.142 0.368,0.259 0.692,0.997 0.878,1.6699999 -1.469,1.332 -4.915,4.444 -11.267,10.135 -7.31,6.548 -16.848,15.069 -26.299,23.525 -18.774,16.796 -37.006,33.096 -37.255,33.319 h -3.142 c 1.594,-1.44 17.677,-15.991 35.668,-32.272 9.434,-8.535 18.946,-17.142 26.271,-23.78 7.087,-6.42 11.732,-10.639 12.712,-11.5499999 l 0.424,-0.396 c 0.584,-0.55 1.035,-0.74 1.331,-0.793 z" />
<path
   id="path91"
   fill="#f4f4f4"
   d="m 391.57677,6.6210581 c 0,0 -2.823,-0.229 -5.436,2.208 -0.006,0.007 -0.188,0.161 -0.197,0.169 -0.283,-0.681 -0.678,-1.321 -1.331,-1.783 -0.544,-0.385 -1.307,-0.588 -2.066,-0.453 -0.752,0.134 -1.487,0.575 -2.236,1.274 -0.007,0.006 -0.021,-0.007 -0.028,0 -0.621,0.584 -5.79,5.2889999 -13.106,11.9169999 -7.325,6.637 -16.839,15.246 -26.271,23.78 -18.862,17.068 -37.396,33.829 -37.396,33.829 l -1.728,1.585 h 2.35 5.832 0.339 l 0.255,-0.255 c 0,0 18.607,-16.634 37.51,-33.546 9.452,-8.456 18.988,-16.976 26.299,-23.524 7.311,-6.548 12.33,-11.072 12.993,-11.691 2.118,-1.9779999 4.021,-1.6989999 4.021,-1.6989999 z m -8.719,1.925 c 0.296,-0.052 0.492,-0.012 0.708,0.142 0.371,0.263 0.665,1.017 0.849,1.6979999 -1.48,1.342 -4.931,4.43 -11.267,10.106 -7.31,6.548 -16.818,15.069 -26.271,23.525 -18.773,16.796 -37.005,33.096 -37.254,33.319 h -3.171 c 1.594,-1.44 17.677,-15.991 35.669,-32.272 9.432,-8.535 18.945,-17.142 26.271,-23.78 7.325,-6.637 12.406,-11.26 13.136,-11.9459999 0.585,-0.549 1.035,-0.739 1.33,-0.792 z" />
<path
   id="path93"
   fill="#f4f4f4"
   d="m 399.87177,6.6210581 c 0,0 -2.852,-0.229 -5.464,2.208 -0.007,0.007 -0.188,0.161 -0.198,0.169 -0.283,-0.681 -0.678,-1.321 -1.33,-1.783 -0.545,-0.385 -1.279,-0.588 -2.038,-0.453 -0.76,0.135 -1.51,0.563 -2.265,1.274 -0.61,0.574 -5.782,5.2809999 -13.106,11.9169999 -7.325,6.637 -16.839,15.246 -26.271,23.78 -18.863,17.068 -37.396,33.829 -37.396,33.829 l -1.756,1.585 h 2.35 5.832 0.368 l 0.255,-0.255 c 0,0 18.607,-16.634 37.51,-33.546 9.45,-8.456 18.959,-16.976 26.271,-23.524 7.311,-6.549 12.357,-11.072 13.021,-11.691 2.118,-1.9779999 4.021,-1.6989999 4.021,-1.6989999 z m -8.719,1.925 c 0.296,-0.052 0.463,-0.012 0.679,0.142 0.367,0.258 0.662,1.001 0.85,1.6699999 -1.476,1.337 -4.922,4.452 -11.267,10.135 -7.31,6.548 -16.819,15.069 -26.271,23.525 -18.773,16.796 -37.004,33.096 -37.253,33.319 h -3.144 c 1.595,-1.44 17.678,-15.991 35.67,-32.272 9.432,-8.535 18.945,-17.142 26.271,-23.78 7.086,-6.42 11.731,-10.639 12.71,-11.5499999 l 0.426,-0.396 c 0.584,-0.55 1.034,-0.74 1.329,-0.793 z" />
<path
   id="path95"
   fill="#f4f4f4"
   d="m 408.13777,6.6210581 c 0,0 -2.824,-0.229 -5.436,2.208 -0.009,0.008 -0.214,0.188 -0.227,0.198 -0.283,-0.691 -0.669,-1.344 -1.33,-1.812 -0.546,-0.385 -1.28,-0.588 -2.038,-0.453 -0.76,0.135 -1.51,0.563 -2.266,1.274 -0.609,0.574 -5.782,5.2809999 -13.106,11.9169999 -7.325,6.637 -16.838,15.246 -26.271,23.78 -18.862,17.068 -37.396,33.829 -37.396,33.829 l -1.727,1.585 h 2.35 5.832 0.34 l 0.255,-0.255 c 0,0 18.607,-16.634 37.509,-33.546 9.451,-8.456 18.987,-16.976 26.298,-23.524 7.312,-6.549 12.331,-11.072 12.995,-11.691 2.117,-1.9779999 4.019,-1.6989999 4.019,-1.6989999 z m -8.719,1.925 c 0.295,-0.052 0.464,-0.012 0.68,0.142 0.373,0.263 0.695,1.017 0.878,1.6979999 -1.481,1.342 -4.931,4.43 -11.268,10.106 -7.309,6.548 -16.847,15.069 -26.299,23.525 -18.774,16.796 -37.005,33.096 -37.255,33.319 h -3.142 c 1.595,-1.44 17.678,-15.991 35.669,-32.272 9.433,-8.535 18.946,-17.142 26.271,-23.78 7.325,-6.637 12.407,-11.259 13.136,-11.9459999 0.586,-0.549 1.034,-0.739 1.33,-0.792 z" />
<path
   id="path97"
   fill="#f4f4f4"
   d="m 416.40377,6.6210581 c 0,0 -2.822,-0.229 -5.435,2.208 -0.007,0.007 -0.188,0.161 -0.198,0.169 -0.283,-0.681 -0.679,-1.321 -1.331,-1.783 -0.545,-0.385 -1.279,-0.588 -2.039,-0.453 -0.758,0.135 -1.508,0.563 -2.264,1.274 -0.611,0.574 -5.811,5.2809999 -13.136,11.9169999 -7.324,6.637 -16.838,15.246 -26.271,23.78 -18.862,17.068 -37.367,33.829 -37.367,33.829 l -1.755,1.585 h 2.35 5.831 0.34 l 0.283,-0.255 c 0,0 18.579,-16.634 37.48,-33.546 9.452,-8.456 18.988,-16.976 26.299,-23.524 7.311,-6.548 12.359,-11.072 13.022,-11.691 2.119,-1.9789999 3.991,-1.6989999 3.991,-1.6989999 z m -8.69,1.925 c 0.295,-0.053 0.464,-0.012 0.68,0.142 0.364,0.258 0.661,1.001 0.85,1.6699999 -1.477,1.337 -4.923,4.452 -11.268,10.135 -7.309,6.548 -16.818,15.069 -26.271,23.525 -18.772,16.796 -37.005,33.096 -37.255,33.319 h -3.142 c 1.594,-1.441 17.648,-15.991 35.641,-32.272 9.433,-8.535 18.945,-17.142 26.271,-23.78 7.325,-6.637 12.434,-11.259 13.163,-11.9459999 0.586,-0.55 1.035,-0.74 1.331,-0.793 z" />
<path
   id="path99"
   fill="#f4f4f4"
   d="m 424.69777,6.6210581 c 0,0 -2.85,-0.229 -5.463,2.208 -0.008,0.007 -0.188,0.161 -0.199,0.169 -0.281,-0.681 -0.677,-1.321 -1.329,-1.783 -0.546,-0.385 -1.279,-0.588 -2.039,-0.453 -0.759,0.135 -1.509,0.563 -2.264,1.274 -0.611,0.574 -5.782,5.2809999 -13.107,11.9169999 -7.325,6.637 -16.839,15.246 -26.271,23.78 -18.862,17.068 -37.396,33.829 -37.396,33.829 l -1.754,1.585 h 2.378 5.831 0.339 l 0.255,-0.255 c 0,0 18.608,-16.634 37.51,-33.546 9.451,-8.456 18.959,-16.976 26.271,-23.524 7.311,-6.549 12.358,-11.072 13.021,-11.691 2.12,-1.9789999 4.021,-1.6989999 4.021,-1.6989999 z m -8.719,1.925 c 0.296,-0.052 0.464,-0.012 0.68,0.142 0.368,0.259 0.691,0.997 0.877,1.6699999 -1.468,1.332 -4.914,4.444 -11.266,10.135 -7.311,6.548 -16.848,15.069 -26.299,23.525 -18.774,16.796 -37.005,33.096 -37.255,33.319 h -3.143 c 1.594,-1.44 17.677,-15.991 35.67,-32.272 9.432,-8.535 18.945,-17.142 26.271,-23.78 7.325,-6.637 12.405,-11.259 13.135,-11.9459999 0.586,-0.55 1.035,-0.74 1.33,-0.793 z" />
<path
   id="path101"
   fill="#f4f4f4"
   d="m 432.96477,6.6210581 c 0,0 -2.823,-0.229 -5.436,2.208 -0.007,0.007 -0.188,0.161 -0.198,0.169 -0.283,-0.681 -0.677,-1.321 -1.33,-1.783 -0.545,-0.385 -1.307,-0.588 -2.066,-0.453 -0.759,0.135 -1.481,0.563 -2.236,1.274 -0.61,0.575 -5.811,5.2809999 -13.136,11.9169999 -7.324,6.637 -16.838,15.246 -26.271,23.78 -18.861,17.068 -37.367,33.829 -37.367,33.829 l -1.756,1.585 h 2.351 5.832 0.339 l 0.255,-0.255 c 0,0 18.608,-16.634 37.509,-33.546 9.452,-8.456 18.99,-16.976 26.299,-23.524 7.312,-6.549 12.33,-11.071 12.994,-11.691 2.119,-1.9779999 4.02,-1.6989999 4.02,-1.6989999 z m -8.691,1.925 c 0.296,-0.052 0.463,-0.012 0.679,0.142 0.367,0.258 0.662,1.001 0.85,1.6699999 -1.476,1.337 -4.922,4.452 -11.267,10.135 -7.31,6.548 -16.819,15.069 -26.271,23.525 -18.772,16.796 -37.004,33.096 -37.253,33.319 h -3.171 c 1.592,-1.44 17.677,-15.991 35.668,-32.272 9.433,-8.535 18.946,-17.142 26.271,-23.78 7.324,-6.637 12.435,-11.26 13.164,-11.9459999 0.585,-0.55 1.035,-0.74 1.33,-0.793 z" />
<path
   id="path103"
   fill="#f4f4f4"
   d="m 441.17477,6.6210581 c 0,0 -2.853,-0.229 -5.464,2.208 -0.007,0.007 -0.188,0.161 -0.198,0.169 -0.282,-0.681 -0.678,-1.321 -1.33,-1.783 -0.545,-0.385 -1.279,-0.588 -2.039,-0.453 -0.758,0.135 -1.508,0.563 -2.264,1.274 -0.611,0.574 -5.782,5.2809999 -13.107,11.9169999 -7.325,6.637 -16.839,15.246 -26.271,23.78 -18.862,17.068 -37.396,33.829 -37.396,33.829 l -1.755,1.585 h 2.378 5.831 0.339 l 0.255,-0.255 c 0,0 18.608,-16.634 37.51,-33.546 9.452,-8.456 18.988,-16.976 26.299,-23.524 7.311,-6.548 12.33,-11.072 12.993,-11.691 2.119,-1.9779999 4.021,-1.6989999 4.021,-1.6989999 z m -8.719,1.925 c 0.295,-0.052 0.464,-0.012 0.68,0.142 0.367,0.259 0.691,0.997 0.877,1.6699999 -1.469,1.332 -4.915,4.444 -11.267,10.135 -7.31,6.548 -16.848,15.069 -26.299,23.525 -18.774,16.796 -37.005,33.096 -37.255,33.319 h -3.143 c 1.595,-1.44 17.677,-15.991 35.67,-32.272 9.432,-8.535 18.945,-17.142 26.27,-23.78 7.325,-6.637 12.406,-11.259 13.136,-11.9459999 0.585,-0.55 1.035,-0.74 1.331,-0.793 z" />
<path
   id="path105"
   fill="#f4f4f4"
   d="m 449.43977,6.6210581 c 0,0 -2.823,-0.229 -5.436,2.208 -0.007,0.007 -0.188,0.161 -0.197,0.169 -0.283,-0.681 -0.678,-1.321 -1.331,-1.783 -0.544,-0.385 -1.307,-0.588 -2.066,-0.453 -0.759,0.135 -1.481,0.563 -2.236,1.274 -0.61,0.575 -5.811,5.2809999 -13.135,11.9169999 -7.325,6.637 -16.839,15.246 -26.271,23.78 -18.862,17.068 -37.367,33.829 -37.367,33.829 l -1.756,1.585 h 2.35 5.832 0.339 l 0.255,-0.255 c 0,0 18.607,-16.634 37.51,-33.546 9.451,-8.456 18.988,-16.976 26.299,-23.524 7.311,-6.548 12.357,-11.072 13.021,-11.691 2.118,-1.9779999 3.992,-1.6989999 3.992,-1.6989999 z m -8.69,1.925 c 0.296,-0.052 0.463,-0.012 0.679,0.142 0.365,0.258 0.662,1.001 0.85,1.6699999 -1.475,1.337 -4.922,4.452 -11.266,10.135 -7.311,6.548 -16.82,15.069 -26.271,23.525 -18.773,16.796 -37.005,33.096 -37.254,33.319 h -3.171 c 1.592,-1.44 17.677,-15.991 35.669,-32.272 9.432,-8.535 18.945,-17.142 26.271,-23.78 7.325,-6.637 12.435,-11.26 13.164,-11.9459999 0.584,-0.55 1.034,-0.74 1.329,-0.793 z" />
<path
   id="path107"
   fill="#f4f4f4"
   d="m 457.73477,6.6210581 c 0,0 -2.853,-0.229 -5.464,2.208 -0.007,0.007 -0.188,0.161 -0.198,0.169 -0.283,-0.681 -0.678,-1.321 -1.33,-1.783 -0.545,-0.385 -1.279,-0.588 -2.038,-0.453 -0.76,0.135 -1.51,0.563 -2.266,1.274 -0.609,0.574 -5.781,5.2809999 -13.106,11.9169999 -7.324,6.637 -16.838,15.246 -26.271,23.78 -18.862,17.068 -37.396,33.829 -37.396,33.829 l -1.755,1.585 h 2.35 5.86 0.34 l 0.255,-0.255 c 0,0 18.607,-16.634 37.509,-33.546 9.451,-8.456 18.96,-16.976 26.271,-23.524 7.312,-6.549 12.358,-11.072 13.022,-11.691 2.117,-1.9779999 4.021,-1.6989999 4.021,-1.6989999 z m -8.719,1.925 c 0.295,-0.052 0.463,-0.012 0.679,0.142 0.368,0.259 0.692,0.997 0.878,1.6699999 -1.469,1.332 -4.915,4.444 -11.268,10.135 -7.309,6.548 -16.847,15.069 -26.299,23.525 -18.773,16.796 -37.004,33.096 -37.254,33.319 h -3.142 c 1.594,-1.44 17.677,-15.991 35.669,-32.272 9.432,-8.535 18.945,-17.142 26.27,-23.78 7.087,-6.42 11.732,-10.639 12.711,-11.5499999 l 0.426,-0.396 c 0.585,-0.55 1.034,-0.74 1.33,-0.793 z" />
<path
   id="path109"
   fill="#f4f4f4"
   d="m 466.00177,6.6210581 c 0,0 -2.824,-0.229 -5.436,2.208 -0.007,0.007 -0.188,0.161 -0.198,0.169 -0.283,-0.681 -0.678,-1.321 -1.33,-1.783 -0.546,-0.385 -1.309,-0.588 -2.066,-0.453 -0.76,0.135 -1.481,0.563 -2.237,1.274 -0.609,0.575 -5.811,5.2809999 -13.135,11.9169999 -7.325,6.637 -16.839,15.246 -26.271,23.78 -18.862,17.068 -37.396,33.829 -37.396,33.829 l -1.727,1.585 h 2.35 5.832 0.34 l 0.254,-0.255 c 0,0 18.607,-16.634 37.51,-33.546 9.451,-8.456 18.987,-16.976 26.298,-23.524 7.311,-6.548 12.331,-11.072 12.995,-11.691 2.117,-1.9779999 4.019,-1.6989999 4.019,-1.6989999 z m -8.692,1.925 c 0.295,-0.052 0.464,-0.012 0.68,0.142 0.364,0.258 0.661,1.001 0.85,1.6699999 -1.477,1.337 -4.923,4.452 -11.268,10.135 -7.309,6.548 -16.818,15.069 -26.271,23.525 -18.774,16.796 -37.005,33.096 -37.255,33.319 h -3.17 c 1.593,-1.44 17.677,-15.991 35.669,-32.272 9.433,-8.535 18.945,-17.142 26.271,-23.78 7.325,-6.637 12.407,-11.26 13.136,-11.9459999 0.585,-0.55 1.062,-0.74 1.358,-0.793 z" />
<path
   id="path111"
   fill="#f4f4f4"
   d="m 474.29577,6.6210581 c 0,0 -2.852,-0.229 -5.464,2.208 -0.007,0.007 -0.188,0.161 -0.197,0.169 -0.283,-0.681 -0.679,-1.321 -1.331,-1.783 -0.545,-0.385 -1.279,-0.588 -2.039,-0.453 -0.758,0.135 -1.508,0.563 -2.264,1.274 -0.611,0.575 -5.782,5.2809999 -13.107,11.9169999 -7.325,6.637 -16.839,15.246 -26.271,23.78 -18.862,17.068 -37.396,33.829 -37.396,33.829 l -1.755,1.585 h 2.35 5.831 0.367 l 0.256,-0.255 c 0,0 18.607,-16.634 37.509,-33.546 9.452,-8.456 18.96,-16.976 26.271,-23.524 7.311,-6.548 12.359,-11.071 13.021,-11.691 2.12,-1.9779999 4.021,-1.6989999 4.021,-1.6989999 z m -8.72,1.925 c 0.296,-0.052 0.465,-0.012 0.681,0.142 0.367,0.259 0.691,0.997 0.877,1.6699999 -1.469,1.331 -4.915,4.444 -11.267,10.135 -7.309,6.548 -16.847,15.069 -26.299,23.525 -18.774,16.796 -37.005,33.096 -37.255,33.319 h -3.143 c 1.594,-1.44 17.678,-15.991 35.67,-32.272 9.432,-8.535 18.945,-17.142 26.271,-23.78 7.325,-6.637 12.405,-11.26 13.135,-11.9459999 0.586,-0.55 1.035,-0.74 1.33,-0.793 z" />
<path
   id="path113"
   fill="#f4f4f4"
   d="m 482.56077,6.6210581 c 0,0 -2.823,-0.229 -5.435,2.208 -0.01,0.008 -0.214,0.188 -0.228,0.198 -0.282,-0.691 -0.668,-1.344 -1.329,-1.812 -0.546,-0.385 -1.279,-0.588 -2.039,-0.453 -0.759,0.135 -1.509,0.563 -2.265,1.274 -0.61,0.574 -5.782,5.2809999 -13.107,11.9169999 -7.324,6.637 -16.838,15.246 -26.27,23.78 -18.862,17.068 -37.396,33.829 -37.396,33.829 l -1.727,1.585 h 2.35 5.832 0.339 l 0.255,-0.255 c 0,0 18.608,-16.634 37.51,-33.546 9.451,-8.456 18.987,-16.976 26.299,-23.524 7.311,-6.549 12.329,-11.072 12.993,-11.691 2.118,-1.9779999 4.021,-1.6989999 4.021,-1.6989999 z m -8.718,1.925 c 0.296,-0.052 0.464,-0.012 0.68,0.142 0.373,0.263 0.695,1.017 0.877,1.6979999 -1.48,1.342 -4.931,4.43 -11.266,10.106 -7.31,6.548 -16.849,15.069 -26.299,23.525 -18.774,16.796 -37.005,33.096 -37.255,33.319 h -3.143 c 1.594,-1.44 17.677,-15.991 35.67,-32.272 9.432,-8.535 18.945,-17.142 26.271,-23.78 7.324,-6.637 12.405,-11.259 13.135,-11.9459999 0.585,-0.549 1.035,-0.739 1.33,-0.792 z" />
<path
   id="path115"
   fill="#f4f4f4"
   d="m 490.82777,6.6210581 c 0,0 -2.824,-0.229 -5.435,2.208 -0.008,0.007 -0.188,0.161 -0.199,0.169 -0.283,-0.681 -0.677,-1.321 -1.33,-1.783 -0.545,-0.385 -1.279,-0.588 -2.038,-0.453 -0.76,0.135 -1.51,0.563 -2.266,1.274 -0.609,0.575 -5.81,5.2809999 -13.135,11.9169999 -7.325,6.637 -16.838,15.246 -26.271,23.78 -18.862,17.068 -37.367,33.829 -37.367,33.829 l -1.756,1.585 h 2.351 5.832 0.339 l 0.283,-0.255 c 0,0 18.58,-16.634 37.48,-33.546 9.452,-8.456 18.988,-16.976 26.299,-23.524 7.311,-6.548 12.358,-11.072 13.022,-11.691 2.117,-1.9779999 3.991,-1.6989999 3.991,-1.6989999 z m -8.691,1.925 c 0.295,-0.052 0.463,-0.012 0.679,0.142 0.364,0.258 0.662,1.001 0.85,1.6699999 -1.476,1.337 -4.923,4.452 -11.267,10.135 -7.31,6.548 -16.819,15.069 -26.271,23.525 -18.773,16.796 -37.004,33.096 -37.254,33.319 h -3.142 c 1.594,-1.441 17.648,-15.991 35.64,-32.272 9.433,-8.535 18.945,-17.142 26.271,-23.78 7.325,-6.637 12.436,-11.26 13.164,-11.9459999 0.585,-0.55 1.035,-0.74 1.33,-0.793 z" />
<path
   id="path117"
   fill="#f4f4f4"
   d="m 499.12277,6.6210581 c 0,0 -2.853,-0.229 -5.464,2.208 -0.007,0.007 -0.188,0.161 -0.198,0.169 -0.283,-0.681 -0.677,-1.321 -1.331,-1.783 -0.544,-0.385 -1.279,-0.588 -2.037,-0.453 -0.76,0.135 -1.51,0.563 -2.266,1.274 -0.609,0.574 -5.781,5.2809999 -13.106,11.9169999 -7.325,6.637 -16.839,15.246 -26.271,23.78 -18.863,17.068 -37.396,33.829 -37.396,33.829 l -1.756,1.585 h 2.378 5.831 0.341 l 0.254,-0.255 c 0,0 18.607,-16.634 37.51,-33.546 9.451,-8.456 18.96,-16.976 26.271,-23.524 7.311,-6.548 12.358,-11.072 13.022,-11.691 2.117,-1.9779999 4.02,-1.6989999 4.02,-1.6989999 z m -8.72,1.925 c 0.296,-0.052 0.464,-0.012 0.68,0.142 0.368,0.259 0.692,0.997 0.878,1.6699999 -1.469,1.332 -4.915,4.444 -11.268,10.135 -7.309,6.548 -16.847,15.069 -26.299,23.525 -18.774,16.796 -37.005,33.096 -37.254,33.319 h -3.142 c 1.594,-1.44 17.676,-15.991 35.668,-32.272 9.432,-8.535 18.945,-17.142 26.271,-23.78 7.325,-6.637 12.406,-11.259 13.136,-11.9459999 0.585,-0.55 1.035,-0.74 1.33,-0.793 z" />
<path
   id="path119"
   fill="#f4f4f4"
   d="m 507.47277,6.6210581 c 0,0 -2.823,-0.229 -5.436,2.208 -0.009,0.008 -0.214,0.188 -0.226,0.198 -0.283,-0.69 -0.67,-1.345 -1.331,-1.812 -0.545,-0.385 -1.279,-0.588 -2.039,-0.453 -0.758,0.135 -1.508,0.563 -2.264,1.274 -0.609,0.574 -5.782,5.2809999 -13.107,11.9169999 -7.323,6.637 -16.839,15.246 -26.271,23.78 -18.862,17.068 -37.396,33.829 -37.396,33.829 l -1.727,1.585 h 2.35 5.831 0.341 l 0.254,-0.255 c 0,0 18.607,-16.634 37.509,-33.546 9.452,-8.456 18.99,-16.976 26.299,-23.524 7.311,-6.549 12.331,-11.071 12.994,-11.691 2.12,-1.9779999 4.02,-1.6989999 4.02,-1.6989999 z m -8.718,1.925 c 0.295,-0.053 0.492,-0.012 0.708,0.142 0.371,0.263 0.665,1.017 0.849,1.6979999 -1.48,1.342 -4.932,4.43 -11.267,10.106 -7.309,6.548 -16.848,15.069 -26.299,23.525 -18.774,16.796 -36.977,33.096 -37.227,33.319 h -3.17 c 1.595,-1.44 17.677,-15.991 35.669,-32.272 9.432,-8.535 18.945,-17.142 26.271,-23.78 7.325,-6.637 12.406,-11.259 13.135,-11.9459999 0.586,-0.549 1.035,-0.739 1.331,-0.792 z" />
<path
   id="path121"
   fill="#f4f4f4"
   d="m 515.73877,6.6210581 c 0,0 -2.823,-0.229 -5.435,2.208 -0.007,0.007 -0.188,0.161 -0.198,0.169 -0.283,-0.681 -0.678,-1.321 -1.331,-1.783 -0.544,-0.385 -1.278,-0.588 -2.038,-0.453 -0.758,0.135 -1.51,0.563 -2.264,1.274 -0.611,0.574 -5.811,5.2809999 -13.136,11.9169999 -7.325,6.637 -16.811,15.246 -26.242,23.78 -18.862,17.068 -37.396,33.829 -37.396,33.829 l -1.756,1.585 h 2.35 5.832 0.339 l 0.283,-0.255 c 0,0 18.608,-16.634 37.51,-33.546 9.452,-8.456 18.962,-16.976 26.271,-23.524 7.311,-6.549 12.358,-11.071 13.021,-11.691 2.12,-1.9779999 3.992,-1.6989999 3.992,-1.6989999 z m -8.69,1.925 c 0.296,-0.052 0.464,-0.012 0.68,0.142 0.364,0.258 0.661,1.001 0.849,1.6699999 -1.475,1.337 -4.921,4.452 -11.266,10.135 -7.31,6.548 -16.82,15.069 -26.271,23.525 -18.774,16.796 -37.006,33.096 -37.255,33.319 h -3.143 c 1.594,-1.441 17.649,-15.991 35.641,-32.272 9.433,-8.535 18.946,-17.142 26.271,-23.78 7.324,-6.637 12.434,-11.259 13.163,-11.9459999 l 0.113,-0.085 c 0.511,-0.445 0.949,-0.66 1.218,-0.708 z" />
<path
   id="path123"
   fill="#f4f4f4"
   d="m 99.685774,6.5080581 c -1.52,-0.02 -3.448,0.028 -5.549,0.028 h -80.34 c -0.653,0 -1.337,0.009 -2.01,0.396 -0.672,0.387 -1.104,1.225 -1.104,2.18 0,-0.031 -0.026,0.424 -0.057,1.0469999 -0.03,0.623 -0.084,1.484 -0.142,2.576 -0.115,2.184 -0.256,5.24 -0.453,8.861 -0.3949998,7.241 -0.9459998,16.779 -1.4719998,26.299 -0.525,9.52 -1.05,19.009 -1.443,26.186 -0.198,3.588 -0.338,6.611 -0.453,8.748 -0.058,1.068 -0.11,1.922 -0.142,2.519 -0.016,0.299 -0.021,0.511 -0.029,0.68 -0.007,0.169 -0.028,0.219 -0.028,0.34 0,0.308 -0.106,1.116 0.142,1.953 0.124,0.418 0.357,0.859 0.792,1.189 0.435,0.33 1.028,0.51 1.67,0.51 H 535.38277 c 2.113,0 3.117,-0.104 3.879,-0.708 0.38,-0.302 0.596,-0.82 0.622,-1.161 0.028,-0.34 -0.028,-0.546 -0.028,-0.623 0,-0.158 0.012,-0.166 0,-0.34 -0.008,-0.174 -0.037,-0.425 -0.056,-0.736 -0.04,-0.623 -0.098,-1.514 -0.171,-2.633 -0.143,-2.239 -0.348,-5.376 -0.594,-9.144 -0.492,-7.535 -1.125,-17.535 -1.783,-27.488 -1.313,-19.907 -2.633,-39.7169999 -2.633,-39.7169999 l -0.057,-0.85 h -0.85 -9.682 -0.113 c -0.172,-0.013 -2.82,-0.151 -5.35,2.208 -0.008,0.007 -0.188,0.161 -0.199,0.169 -0.283,-0.681 -0.677,-1.321 -1.33,-1.783 -0.545,-0.385 -1.279,-0.588 -2.038,-0.453 -0.759,0.135 -1.51,0.563 -2.265,1.274 -0.61,0.575 -5.782,5.2809999 -13.107,11.9169999 -7.324,6.637 -16.838,15.246 -26.27,23.78 -18.862,17.068 -37.396,33.829 -37.396,33.829 l -1.727,1.585 h 2.349 5.832 0.34 l 0.255,-0.255 c 0,0 18.608,-16.634 37.51,-33.546 9.451,-8.456 18.989,-16.976 26.299,-23.524 7.311,-6.549 12.329,-11.071 12.993,-11.691 2.119,-1.9779999 4.021,-1.6989999 4.021,-1.6989999 h 0.057 0.027 8.946 c 0.055,0.82 1.29,19.4149999 2.575,38.8959999 0.656,9.953 1.292,19.925 1.783,27.459 0.246,3.767 0.452,6.906 0.595,9.144 0.073,1.118 0.131,2.013 0.17,2.633 0.02,0.31 0.048,0.566 0.057,0.736 0.011,0.169 0,0.338 0,0.227 0,0.223 0.022,0.299 0.028,0.368 -0.045,0.018 -0.76,0.312 -2.689,0.312 H 9.0697742 c -0.357,0 -0.498,-0.09 -0.566,-0.142 -0.068,-0.052 -0.123,-0.095 -0.169,-0.255 -0.095,-0.32 -0.057,-0.91 -0.057,-1.444 0,0.068 0.021,-0.062 0.028,-0.227 0.008,-0.165 0.013,-0.41 0.029,-0.708 0.03,-0.595 0.055,-1.452 0.113,-2.52 0.115,-2.135 0.284,-5.131 0.481,-8.719 0.394,-7.176 0.918,-16.694 1.4429998,-26.214 0.526,-9.52 1.05,-19.057 1.444,-26.299 0.197,-3.621 0.367,-6.646 0.481,-8.832 0.057,-1.093 0.11,-1.978 0.142,-2.605 0.031,-0.6259999 0.057,-0.9299999 0.057,-1.1319999 0,-0.557 0.066,-0.547 0.198,-0.623 0.131,-0.076 0.535,-0.142 1.104,-0.142 h 80.34 c 2.118,0 4.073,-0.048 5.549,-0.028 0.736996,0.009 1.361996,0.044 1.811996,0.084 0.45,0.041 0.773,0.174 0.623,0.085 l 0.906,-1.557 c -0.486,-0.286 -0.851,-0.292 -1.387,-0.339 -0.537,-0.044 -1.195,-0.07 -1.954996,-0.081 z m 415.628996,2.038 c 0.295,-0.052 0.463,-0.012 0.679,0.142 0.368,0.259 0.692,0.997 0.878,1.6699999 -1.469,1.331 -4.915,4.444 -11.268,10.135 -7.309,6.548 -16.847,15.069 -26.298,23.525 -18.773,16.796 -37.005,33.096 -37.254,33.319 h -3.143 c 1.594,-1.44 17.677,-15.991 35.669,-32.272 9.432,-8.535 18.945,-17.142 26.27,-23.78 7.325,-6.637 12.407,-11.26 13.137,-11.9459999 0.585,-0.55 1.035,-0.74 1.33,-0.793 z" />
<path
   id="rect125"
   fill="#f4f4f4"
   d="m 6.1537742,92.935058 v 0.906 46.030002 0.906 h 0.906 531.6949958 0.906 v -0.906 -46.030002 -0.906 h -0.906 H 7.0597742 Z m 1.812,1.811 H 537.84877 V 138.96506 H 7.9657742 Z" />
<path
   id="rect127"
   fill="#f4f4f4"
   d="m 6.1537742,141.34306 v 0.905 132.146 0.906 h 0.906 531.6949958 0.906 v -0.906 -132.146 -0.905 h -0.906 H 7.0597742 Z m 1.812,1.811 H 537.84877 v 130.334 H 7.9657742 Z" />
<path
   id="line129"
   fill="#f4f4f4"
   d="m 7.3427742,88.943058 v 4.727 h 1.812 v -4.727 z" />
<path
   id="line131"
   fill="#f4f4f4"
   d="m 7.3427742,139.73006 v 2.519 h 1.812 v -2.519 z" />
<path
   id="line133"
   fill="#f4f4f4"
   d="m 536.57477,89.028058 v 4.728 h 1.812 v -4.728 z" />
<path
   id="line135"
   fill="#f4f4f4"
   d="m 536.57477,139.81406 v 2.521 h 1.812 v -2.521 z" />
<path
   id="polygon137"
   fill="#f4f4f4"
   d="m 419.68777,102.70106 -0.255,0.283 -11.975,11.975 -1.558,1.557 h 2.181 105.449 0.396 l 0.283,-0.311 10.813,-11.975 1.359,-1.529 h -2.038 -104.258 z m 0.764,1.812 h 101.883 l -9.228,10.191 h -102.846 z" />
<path
   id="path139"
   fill="#f4f4f4"
   d="m 22.374774,152.07106 c -0.665,0 -1.217,0.554 -1.217,1.218 v 20.1 c 0,0.662 0.555,1.217 1.217,1.217 h 20.099 c 0.665,0 1.217,-0.553 1.217,-1.217 v -20.1 c 0,-0.663 -0.555,-1.218 -1.217,-1.218 z m 0.594,1.812 h 18.91 v 18.911 h -18.91 z" />
<path
   id="path141"
   fill="#f4f4f4"
   d="m 44.058774,152.07106 c -0.664,0 -1.217,0.554 -1.217,1.218 v 20.1 c 0,0.662 0.555,1.217 1.217,1.217 h 20.1 c 0.664,0 1.246,-0.553 1.246,-1.217 v -20.1 c 0,-0.663 -0.584,-1.218 -1.246,-1.218 z m 0.595,1.812 h 18.938 v 18.911 h -18.938 z" />
<path
   id="path143"
   fill="#f4f4f4"
   d="m 65.771774,152.07106 c -0.664,0 -1.246,0.554 -1.246,1.218 v 20.1 c 0,0.662 0.584,1.217 1.246,1.217 h 20.099 c 0.665,0 1.217,-0.553 1.217,-1.217 v -20.1 c 0,-0.663 -0.555,-1.218 -1.217,-1.218 z m 0.567,1.812 h 18.938 v 18.911 h -18.938 z" />
<path
   id="path145"
   fill="#f4f4f4"
   d="m 87.456774,152.07106 c -0.665,0 -1.217,0.554 -1.217,1.218 v 20.1 c 0,0.662 0.555,1.217 1.217,1.217 h 20.098996 c 0.665,0 1.217,-0.553 1.217,-1.217 v -20.1 c 0,-0.663 -0.556,-1.218 -1.217,-1.218 z m 0.595,1.812 h 18.909996 v 18.911 H 88.051774 Z" />
<path
   id="path147"
   fill="#f4f4f4"
   d="m 109.14077,152.07106 c -0.664,0 -1.217,0.554 -1.217,1.218 v 20.1 c 0,0.662 0.556,1.217 1.217,1.217 h 20.1 c 0.664,0 1.217,-0.553 1.217,-1.217 v -20.1 c 0,-0.663 -0.556,-1.218 -1.217,-1.218 z m 0.595,1.812 h 18.911 v 18.911 h -18.911 z" />
<path
   id="path149"
   fill="#f4f4f4"
   d="m 130.85377,152.07106 c -0.663,0 -1.246,0.554 -1.246,1.218 v 20.1 c 0,0.665 0.584,1.217 1.246,1.217 h 20.099 c 0.665,0 1.217,-0.553 1.217,-1.217 v -20.1 c 0,-0.663 -0.555,-1.218 -1.217,-1.218 z m 0.566,1.812 h 18.938 v 18.911 h -18.938 z" />
<path
   id="path151"
   fill="#f4f4f4"
   d="m 152.53877,152.07106 c -0.665,0 -1.217,0.554 -1.217,1.218 v 20.1 c 0,0.662 0.555,1.217 1.217,1.217 h 20.099 c 0.665,0 1.217,-0.553 1.217,-1.217 v -20.1 c 0,-0.663 -0.556,-1.218 -1.217,-1.218 z m 0.595,1.812 h 18.91 v 18.911 h -18.91 z" />
<path
   id="path153"
   fill="#f4f4f4"
   d="m 174.22277,152.07106 c -0.664,0 -1.217,0.554 -1.217,1.218 v 20.1 c 0,0.662 0.555,1.217 1.217,1.217 h 20.099 c 0.664,0 1.217,-0.553 1.217,-1.217 v -20.1 c 0,-0.663 -0.556,-1.218 -1.217,-1.218 z m 0.595,1.812 h 18.911 v 18.911 h -18.911 z" />
<path
   id="path155"
   fill="#f4f4f4"
   d="m 195.90677,152.07106 c -0.663,0 -1.217,0.554 -1.217,1.218 v 20.1 c 0,0.665 0.556,1.217 1.217,1.217 h 20.128 c 0.663,0 1.217,-0.553 1.217,-1.217 v -20.1 c 0,-0.663 -0.557,-1.218 -1.217,-1.218 z m 0.595,1.812 h 18.938 v 18.911 h -18.938 z" />
<path
   id="path157"
   fill="#f4f4f4"
   d="m 217.62077,152.07106 c -0.665,0 -1.218,0.554 -1.218,1.218 v 20.1 c 0,0.662 0.556,1.217 1.218,1.217 h 20.099 c 0.663,0 1.218,-0.553 1.218,-1.217 v -20.1 c 0,-0.666 -0.556,-1.218 -1.218,-1.218 z m 0.594,1.812 h 18.91 v 18.911 h -18.91 z" />
<path
   id="path159"
   fill="#f4f4f4"
   d="m 239.30477,152.07106 c -0.663,0 -1.217,0.554 -1.217,1.218 v 20.1 c 0,0.665 0.555,1.217 1.217,1.217 h 20.1 c 0.663,0 1.217,-0.553 1.217,-1.217 v -20.1 c 0,-0.666 -0.556,-1.218 -1.217,-1.218 z m 0.595,1.812 h 18.91 v 18.911 h -18.91 z" />
<path
   id="path161"
   fill="#f4f4f4"
   d="m 260.98977,152.07106 c -0.664,0 -1.217,0.554 -1.217,1.218 v 20.1 c 0,0.665 0.555,1.217 1.217,1.217 h 20.098 c 0.664,0 1.246,-0.556 1.246,-1.217 v -20.1 c 0,-0.663 -0.584,-1.218 -1.246,-1.218 z m 0.594,1.812 h 18.938 v 18.911 h -18.938 z" />
<path
   id="path163"
   fill="#f4f4f4"
   d="m 282.70177,152.07106 c -0.662,0 -1.245,0.554 -1.245,1.218 v 20.1 c 0,0.665 0.583,1.217 1.245,1.217 h 20.099 c 0.664,0 1.218,-0.556 1.218,-1.217 v -20.1 c 0,-0.663 -0.556,-1.218 -1.218,-1.218 z m 0.566,1.812 h 18.938 v 18.911 h -18.938 z" />
<path
   id="path165"
   fill="#f4f4f4"
   d="m 54.363774,173.67206 c -0.664,0 -1.217,0.553 -1.217,1.217 v 20.1 c 0,0.662 0.555,1.217 1.217,1.217 h 20.099 c 0.663,0 1.246,-0.556 1.246,-1.217 v -0.906 h -0.029 v -19.193 c 0,-0.66 -0.558,-1.217 -1.217,-1.217 h -20.099 z m 0.594,1.812 h 18.911 v 18.91 h -18.911 z" />
<path
   id="path167"
   fill="#f4f4f4"
   d="m 22.516774,173.67206 c -0.665,0 -1.217,0.553 -1.217,1.217 v 20.1 c 0,0.662 0.555,1.217 1.217,1.217 h 30.205 c 0.665,0 1.217,-0.553 1.217,-1.217 v -20.1 c 0,-0.662 -0.555,-1.217 -1.217,-1.217 z m 0.594,1.812 h 29.017 v 18.91 h -29.017 z" />
<path
   id="path169"
   fill="#f4f4f4"
   d="m 76.076774,173.67206 c -0.663,0 -1.246,0.556 -1.246,1.217 v 20.1 c 0,0.659 0.585,1.217 1.246,1.217 h 20.099 c 0.665,0 1.217,-0.553 1.217,-1.217 v -20.1 c 0,-0.662 -0.556,-1.217 -1.217,-1.217 z m 0.566,1.812 h 18.938 v 18.91 h -18.938 z" />
<path
   id="path171"
   fill="#f4f4f4"
   d="m 97.760774,173.67206 c -0.665,0 -1.217,0.553 -1.217,1.217 v 20.1 c 0,0.662 0.556,1.217 1.217,1.217 h 20.098996 c 0.665,0 1.218,-0.553 1.218,-1.217 v -20.1 c 0,-0.662 -0.556,-1.217 -1.218,-1.217 z m 0.595,1.812 h 18.909996 v 18.91 H 98.355774 Z" />
<path
   id="path173"
   fill="#f4f4f4"
   d="m 119.44577,173.67206 c -0.665,0 -1.217,0.553 -1.217,1.217 v 20.1 c 0,0.662 0.556,1.217 1.217,1.217 h 20.1 c 0.664,0 1.217,-0.553 1.217,-1.217 v -20.1 c 0,-0.662 -0.556,-1.217 -1.217,-1.217 z m 0.594,1.812 h 18.91 v 18.91 h -18.91 z" />
<path
   id="path175"
   fill="#f4f4f4"
   d="m 141.12977,173.67206 c -0.664,0 -1.217,0.553 -1.217,1.217 v 20.1 c 0,0.662 0.556,1.217 1.217,1.217 h 20.127 c 0.665,0 1.217,-0.553 1.217,-1.217 v -20.1 c 0,-0.662 -0.555,-1.217 -1.217,-1.217 z m 0.595,1.812 h 18.938 v 18.91 h -18.938 z" />
<path
   id="path177"
   fill="#f4f4f4"
   d="m 162.84277,173.67206 c -0.663,0 -1.217,0.553 -1.217,1.217 v 20.1 c 0,0.662 0.557,1.217 1.217,1.217 h 20.099 c 0.665,0 1.218,-0.553 1.218,-1.217 v -20.1 c 0,-0.662 -0.556,-1.217 -1.218,-1.217 z m 0.595,1.812 h 18.91 v 18.91 h -18.91 z" />
<path
   id="path179"
   fill="#f4f4f4"
   d="m 184.52777,173.67206 c -0.665,0 -1.217,0.553 -1.217,1.217 v 20.1 c 0,0.662 0.556,1.217 1.217,1.217 h 20.1 c 0.279,0 0.528,-0.147 0.736,-0.312 h 0.481 v -0.905 -20.1 c 0,-0.662 -0.556,-1.217 -1.217,-1.217 z m 0.594,1.812 h 18.911 v 18.599 0.312 h -18.911 z" />
<path
   id="path181"
   fill="#f4f4f4"
   d="m 206.21177,173.67206 c -0.665,0 -1.217,0.553 -1.217,1.217 v 20.1 c 0,0.662 0.556,1.217 1.217,1.217 h 20.099 c 0.663,0 1.246,-0.553 1.246,-1.217 v -20.1 c 0,-0.666 -0.583,-1.217 -1.246,-1.217 z m 0.594,1.812 h 18.938 v 18.91 h -18.938 z" />
<path
   id="path183"
   fill="#f4f4f4"
   d="m 227.92477,173.67206 c -0.665,0 -1.246,0.553 -1.246,1.217 v 20.1 c 0,0.662 0.584,1.217 1.246,1.217 h 20.099 c 0.665,0 1.217,-0.553 1.217,-1.217 v -20.1 c 0,-0.666 -0.554,-1.217 -1.217,-1.217 z m 0.566,1.812 h 18.938 v 18.91 h -18.938 z" />
<path
   id="path185"
   fill="#f4f4f4"
   d="m 249.60977,173.67206 c -0.664,0 -1.217,0.553 -1.217,1.217 v 20.1 c 0,0.666 0.555,1.217 1.217,1.217 h 20.099 c 0.664,0 1.217,-0.553 1.217,-1.217 v -20.1 c 0,-0.666 -0.556,-1.217 -1.217,-1.217 z m 0.594,1.812 h 18.91 v 18.91 h -18.91 z" />
<path
   id="path187"
   fill="#f4f4f4"
   d="m 271.29277,173.67206 c -0.662,0 -1.217,0.556 -1.217,1.217 v 20.1 c 0,0.662 0.556,1.217 1.217,1.217 h 20.099 c 0.664,0 1.246,-0.556 1.246,-1.217 v -20.1 c 0,-0.662 -0.584,-1.217 -1.246,-1.217 z m 0.595,1.812 h 18.939 v 18.91 h -18.939 z" />
<path
   id="path189"
   fill="#f4f4f4"
   d="m 59.827774,195.24306 c -0.665,0 -1.218,0.552 -1.218,1.217 v 20.099 c 0,0.663 0.556,1.218 1.218,1.218 h 20.099 c 0.664,0 1.246,-0.556 1.246,-1.218 v -0.905 -19.193 c 0,-0.66 -0.586,-1.217 -1.246,-1.217 h -20.099 z m 0.594,1.812 h 18.938 v 18.91 h -18.938 z" />
<path
   id="path191"
   fill="#f4f4f4"
   d="m 22.629774,195.24306 c -0.664,0 -1.217,0.552 -1.217,1.217 v 20.099 c 0,0.663 0.556,1.218 1.217,1.218 h 35.556 c 0.664,0 1.217,-0.553 1.217,-1.218 v -20.099 c 0,-0.663 -0.556,-1.217 -1.217,-1.217 z m 0.594,1.812 h 34.367 v 18.91 h -34.367 z" />
<path
   id="path193"
   fill="#f4f4f4"
   d="m 81.539774,195.24306 c -0.664,0 -1.246,0.552 -1.246,1.217 v 20.099 c 0,0.663 0.584,1.218 1.246,1.218 h 20.099996 c 0.664,0 1.217,-0.553 1.217,-1.218 v -20.099 c 0,-0.663 -0.556,-1.217 -1.217,-1.217 z m 0.567,1.812 h 18.937996 v 18.91 H 82.106774 Z" />
<path
   id="path195"
   fill="#f4f4f4"
   d="m 103.22477,195.24306 c -0.665,0 -1.217,0.552 -1.217,1.217 v 20.099 c 0,0.663 0.556,1.218 1.217,1.218 h 20.099 c 0.664,0 1.217,-0.553 1.217,-1.218 v -20.099 c 0,-0.663 -0.555,-1.217 -1.217,-1.217 z m 0.594,1.812 h 18.911 v 18.91 h -18.911 z" />
<path
   id="path197"
   fill="#f4f4f4"
   d="m 124.90877,195.24306 c -0.665,0 -1.217,0.552 -1.217,1.217 v 20.099 c 0,0.663 0.556,1.218 1.217,1.218 h 20.099 c 0.665,0 1.246,-0.553 1.246,-1.218 v -20.099 c 0,-0.663 -0.584,-1.217 -1.246,-1.217 z m 0.595,1.812 h 18.938 v 18.91 h -18.938 z" />
<path
   id="path199"
   fill="#f4f4f4"
   d="m 146.62177,195.24306 c -0.665,0 -1.246,0.552 -1.246,1.217 v 20.099 c 0,0.663 0.583,1.218 1.246,1.218 h 20.099 c 0.664,0 1.217,-0.553 1.217,-1.218 v -20.099 c 0,-0.663 -0.556,-1.217 -1.217,-1.217 z m 0.566,1.812 h 18.939 v 18.91 h -18.939 z" />
<path
   id="path201"
   fill="#f4f4f4"
   d="m 168.30577,195.24306 c -0.663,0 -1.217,0.552 -1.217,1.217 v 20.099 c 0,0.663 0.558,1.218 1.217,1.218 h 20.1 c 0.663,0 1.217,-0.553 1.217,-1.218 v -20.099 c 0,-0.666 -0.556,-1.217 -1.217,-1.217 z m 0.595,1.812 h 18.91 v 18.91 h -18.91 z" />
<path
   id="path203"
   fill="#f4f4f4"
   d="m 189.99077,195.24306 c -0.665,0 -1.217,0.552 -1.217,1.217 v 20.099 c 0,0.663 0.555,1.218 1.217,1.218 h 20.099 c 0.665,0 1.217,-0.553 1.217,-1.218 v -20.099 c 0,-0.663 -0.555,-1.217 -1.217,-1.217 z m 0.595,1.812 h 18.91 v 18.91 h -18.91 z" />
<path
   id="path205"
   fill="#f4f4f4"
   d="m 211.67577,195.24306 c -0.665,0 -1.217,0.552 -1.217,1.217 v 20.099 c 0,0.663 0.555,1.218 1.217,1.218 h 20.128 c 0.663,0 1.217,-0.553 1.217,-1.218 v -20.099 c 0,-0.666 -0.556,-1.217 -1.217,-1.217 z m 0.594,1.812 h 18.938 v 18.91 h -18.938 z" />
<path
   id="path207"
   fill="#f4f4f4"
   d="m 233.38777,195.24306 c -0.664,0 -1.217,0.552 -1.217,1.217 v 20.099 c 0,0.663 0.556,1.218 1.217,1.218 h 20.099 c 0.664,0 1.217,-0.553 1.217,-1.218 v -20.099 c 0,-0.666 -0.555,-1.217 -1.217,-1.217 z m 0.595,1.812 h 18.911 v 18.91 h -18.911 z" />
<path
   id="path209"
   fill="#f4f4f4"
   d="m 255.07277,195.24306 c -0.664,0 -1.218,0.552 -1.218,1.217 v 20.099 c 0,0.667 0.556,1.218 1.218,1.218 h 20.098 c 0.664,0 1.217,-0.556 1.217,-1.218 v -20.099 c 0,-0.663 -0.555,-1.217 -1.217,-1.217 z m 0.595,1.812 h 18.91 v 18.91 h -18.91 z" />
<path
   id="path211"
   fill="#f4f4f4"
   d="m 70.980774,216.81406 c -0.663,0 -1.217,0.584 -1.217,1.246 v 20.1 c 0,0.66 0.557,1.217 1.217,1.217 h 20.1 c 0.278,0 0.501,-0.15 0.708,-0.312 h 0.509 v -0.905 -20.1 c 0,-0.663 -0.555,-1.246 -1.217,-1.246 z m 0.594,1.812 h 18.911 v 18.627 0.312 h -18.911 z" />
<path
   id="path213"
   fill="#f4f4f4"
   d="m 22.516774,216.81406 c -0.665,0 -1.217,0.582 -1.217,1.246 v 20.1 c 0,0.662 0.555,1.217 1.217,1.217 h 46.907 c 0.665,0 1.217,-0.554 1.217,-1.217 v -0.906 -19.193 c 0,-0.663 -0.555,-1.246 -1.217,-1.246 h -46.907 z m 0.594,1.812 h 45.719 v 18.938 h -45.719 z" />
<path
   id="path215"
   fill="#f4f4f4"
   d="m 92.665774,216.81406 c -0.665,0 -1.218,0.582 -1.218,1.246 v 20.1 c 0,0.662 0.556,1.217 1.218,1.217 h 20.098996 c 0.665,0 1.246,-0.554 1.246,-1.217 v -20.1 c 0,-0.663 -0.584,-1.246 -1.246,-1.246 z m 0.595,1.812 h 18.937996 v 18.938 H 93.260774 Z" />
<path
   id="path217"
   fill="#f4f4f4"
   d="m 114.34977,216.81406 c -0.665,0 -1.217,0.582 -1.217,1.246 v 20.1 c 0,0.662 0.556,1.217 1.217,1.217 h 20.127 c 0.664,0 1.217,-0.554 1.217,-1.217 v -20.1 c 0,-0.663 -0.556,-1.246 -1.217,-1.246 z m 0.595,1.812 h 18.939 v 18.938 h -18.939 z" />
<path
   id="path219"
   fill="#f4f4f4"
   d="m 136.06277,216.81406 c -0.663,0 -1.217,0.584 -1.217,1.246 v 20.1 c 0,0.662 0.556,1.217 1.217,1.217 h 20.1 c 0.665,0 1.217,-0.554 1.217,-1.217 v -20.1 c 0,-0.663 -0.556,-1.246 -1.217,-1.246 z m 0.594,1.812 h 18.91 v 18.938 h -18.91 z" />
<path
   id="path221"
   fill="#f4f4f4"
   d="m 157.74777,216.81406 c -0.664,0 -1.218,0.582 -1.218,1.246 v 20.1 c 0,0.665 0.556,1.217 1.218,1.217 h 20.099 c 0.665,0 1.217,-0.554 1.217,-1.217 v -20.1 c 0,-0.663 -0.555,-1.246 -1.217,-1.246 z m 0.594,1.812 h 18.91 v 18.938 h -18.91 z" />
<path
   id="path223"
   fill="#f4f4f4"
   d="m 179.43177,216.81406 c -0.665,0 -1.217,0.582 -1.217,1.246 v 20.1 c 0,0.662 0.555,1.217 1.217,1.217 h 20.128 c 0.664,0 1.217,-0.554 1.217,-1.217 v -20.1 c 0,-0.663 -0.556,-1.246 -1.217,-1.246 z m 0.595,1.812 h 18.938 v 18.938 h -18.938 z" />
<path
   id="path225"
   fill="#f4f4f4"
   d="m 201.14477,216.81406 c -0.663,0 -1.217,0.584 -1.217,1.246 v 20.1 c 0,0.662 0.556,1.217 1.217,1.217 h 20.099 c 0.665,0 1.217,-0.554 1.217,-1.217 v -20.1 c 0,-0.663 -0.555,-1.246 -1.217,-1.246 z m 0.594,1.812 h 18.911 v 18.938 h -18.911 z" />
<path
   id="path227"
   fill="#f4f4f4"
   d="m 222.82877,216.81406 c -0.665,0 -1.217,0.582 -1.217,1.246 v 20.1 c 0,0.662 0.556,1.217 1.217,1.217 h 20.099 c 0.663,0 1.217,-0.554 1.217,-1.217 v -20.1 c 0,-0.666 -0.556,-1.246 -1.217,-1.246 z m 0.595,1.812 h 18.91 v 18.938 h -18.91 z" />
<path
   id="path229"
   fill="#f4f4f4"
   d="m 47.031774,238.44206 c -0.665,0 -1.217,0.553 -1.217,1.217 v 20.1 c 0,0.664 0.553,1.217 1.217,1.217 h 31.14 c 0.668,0 1.217,-0.551 1.217,-1.217 v -20.1 c 0,-0.662 -0.556,-1.217 -1.217,-1.217 z m 0.594,1.812 h 29.951 v 18.91 h -29.951 z" />
<path
   id="path231"
   fill="#f4f4f4"
   d="m 277.23877,238.44206 c -0.663,0 -1.217,0.556 -1.217,1.217 v 20.1 c 0,0.664 0.554,1.217 1.217,1.217 h 31.139 c 0.668,0 1.218,-0.551 1.218,-1.217 v -20.1 c 0,-0.666 -0.556,-1.217 -1.218,-1.217 z m 0.594,1.812 h 29.951 v 18.91 h -29.951 z" />
<path
   id="path233"
   fill="#f4f4f4"
   d="m 79.812774,238.44206 c -0.664,0 -1.217,0.553 -1.217,1.217 v 20.1 c 0,0.664 0.553,1.217 1.217,1.217 H 275.59577 c 0.278,0 0.5,-0.149 0.708,-0.312 h 0.51 v -0.905 -20.1 c 0,-0.662 -0.556,-1.217 -1.217,-1.217 z m 0.595,1.812 H 275.00177 v 18.599 0.312 H 80.407774 Z" />
<path
   id="path235"
   fill="#f4f4f4"
   d="m 266.22577,216.81406 c -0.664,0 -1.245,0.582 -1.245,1.246 v 20.1 c 0,0.665 0.583,1.217 1.245,1.217 h 20.099 c 0.666,0 1.218,-0.554 1.218,-1.217 v -20.1 c 0,-0.666 -0.554,-1.246 -1.218,-1.246 z m 0.567,1.812 h 18.938 v 18.938 h -18.938 z" />
<path
   id="path237"
   fill="#f4f4f4"
   d="m 287.96777,216.81406 c -0.663,0 -1.218,0.582 -1.218,1.246 v 20.1 c 0,0.665 0.555,1.217 1.218,1.217 h 31.14 c 0.665,0 1.217,-0.554 1.217,-1.217 v -20.1 c 0,-0.666 -0.553,-1.246 -1.217,-1.246 z m 0.593,1.812 h 29.951 v 18.938 h -29.951 z" />
<path
   id="path239"
   fill="#f4f4f4"
   d="m 244.48577,216.81406 c -0.665,0 -1.217,0.582 -1.217,1.246 v 20.1 c 0,0.665 0.554,1.217 1.217,1.217 h 20.127 c 0.663,0 1.217,-0.554 1.217,-1.217 v -20.1 c 0,-0.666 -0.556,-1.246 -1.217,-1.246 z m 0.594,1.812 h 18.938 v 18.938 h -18.938 z" />
<path
   id="path241"
   fill="#f4f4f4"
   d="m 276.75677,195.24306 c -0.664,0 -1.217,0.552 -1.217,1.217 v 20.099 c 0,0.667 0.555,1.218 1.217,1.218 h 20.099 c 0.664,0 1.245,-0.556 1.245,-1.218 v -20.099 c 0,-0.663 -0.583,-1.217 -1.245,-1.217 z m 0.595,1.812 h 18.938 v 18.91 h -18.938 z" />
<path
   id="path243"
   fill="#f4f4f4"
   d="m 336.43177,195.24306 c -0.662,0 -1.246,0.555 -1.246,1.217 v 20.099 c 0,0.663 0.584,1.218 1.246,1.218 h 20.099 c 0.664,0 1.218,-0.556 1.218,-1.218 v -20.099 c 0,-0.663 -0.556,-1.217 -1.218,-1.217 z m 0.567,1.812 h 18.938 v 18.91 h -18.938 z" />
<path
   id="path245"
   fill="#f4f4f4"
   d="m 314.74677,173.67206 c -0.661,0 -1.217,0.556 -1.217,1.217 v 20.1 c 0,0.175 0.011,0.148 0,0.255 h -14.805 c -0.662,0 -1.219,0.552 -1.219,1.217 v 20.099 c 0,0.667 0.557,1.218 1.219,1.218 h 36.206 c 0.31,0 0.575,-0.116 0.792,-0.312 h 0.426 v -0.906 -41.67 c 0,-0.666 -0.556,-1.217 -1.218,-1.217 h -20.184 z m 0.595,1.812 h 18.996 v 40.17 0.312 h -35.019 v -18.91 h 14.692 c 0.209,0 0.494,-0.054 0.735,-0.227 0.242,-0.173 0.381,-0.417 0.454,-0.623 0.146,-0.41 0.141,-0.745 0.141,-1.217 v -19.505 z" />
<path
   id="path247"
   fill="#f4f4f4"
   d="m 293.00577,173.67206 c -0.661,0 -1.245,0.556 -1.245,1.217 v 20.1 c 0,0.662 0.584,1.217 1.245,1.217 h 20.101 c 0.662,0 1.217,-0.556 1.217,-1.217 v -20.1 c 0,-0.662 -0.556,-1.217 -1.217,-1.217 z m 0.566,1.812 h 18.939 v 18.91 h -18.939 z" />
<path
   id="path249"
   fill="#f4f4f4"
   d="m 336.40377,173.67206 c -0.664,0 -1.218,0.553 -1.218,1.217 v 20.1 c 0,0.666 0.554,1.217 1.218,1.217 h 20.099 c 0.664,0 1.218,-0.556 1.218,-1.217 v -20.1 c 0,-0.662 -0.556,-1.217 -1.218,-1.217 z m 0.595,1.812 h 18.909 v 18.91 h -18.909 z" />
<path
   id="path251"
   fill="#f4f4f4"
   d="m 366.69377,173.67206 c -0.664,0 -1.246,0.553 -1.246,1.217 v 20.1 c 0,0.666 0.582,1.217 1.246,1.217 h 20.1 c 0.663,0 1.218,-0.553 1.218,-1.217 v -20.1 c 0,-0.666 -0.557,-1.217 -1.218,-1.217 z m 0.567,1.812 h 18.938 v 18.91 h -18.938 z" />
<path
   id="path253"
   fill="#f4f4f4"
   d="m 388.63377,173.67206 c -0.664,0 -1.217,0.556 -1.217,1.217 v 20.1 c 0,0.662 0.555,1.217 1.217,1.217 h 20.099 c 0.664,0 1.246,-0.553 1.246,-1.217 v -20.1 c 0,-0.666 -0.584,-1.217 -1.246,-1.217 z m 0.594,1.812 h 18.938 v 18.91 h -18.938 z" />
<path
   id="path255"
   fill="#f4f4f4"
   d="m 410.59977,173.67206 c -0.662,0 -1.217,0.556 -1.217,1.217 v 20.1 c 0,0.662 0.556,1.217 1.217,1.217 h 20.101 c 0.662,0 1.217,-0.556 1.217,-1.217 v -20.1 c 0,-0.662 -0.557,-1.217 -1.217,-1.217 z m 0.595,1.812 h 18.911 v 18.91 h -18.911 z" />
<path
   id="path257"
   fill="#f4f4f4"
   d="m 366.69377,195.32706 c -0.664,0 -1.246,0.582 -1.246,1.246 v 20.1 c 0,0.665 0.582,1.217 1.246,1.217 h 20.1 c 0.663,0 1.218,-0.554 1.218,-1.217 v -20.1 c 0,-0.666 -0.557,-1.246 -1.218,-1.246 z m 0.567,1.812 h 18.938 v 18.939 h -18.938 z" />
<path
   id="path259"
   fill="#f4f4f4"
   d="m 388.63377,195.32706 c -0.664,0 -1.217,0.584 -1.217,1.246 v 20.1 c 0,0.662 0.555,1.217 1.217,1.217 h 20.099 c 0.664,0 1.246,-0.554 1.246,-1.217 v -20.1 c 0,-0.666 -0.584,-1.246 -1.246,-1.246 z m 0.594,1.812 h 18.938 v 18.939 h -18.938 z" />
<path
   id="path261"
   fill="#f4f4f4"
   d="m 410.59977,195.32706 c -0.662,0 -1.217,0.584 -1.217,1.246 v 20.1 c 0,0.662 0.556,1.217 1.217,1.217 h 20.101 c 0.662,0 1.217,-0.556 1.217,-1.217 v -20.1 c 0,-0.662 -0.557,-1.246 -1.217,-1.246 z m 0.595,1.812 h 18.911 v 18.939 h -18.911 z" />
<path
   id="path263"
   fill="#f4f4f4"
   d="m 439.84377,173.67206 c -0.663,0 -1.217,0.553 -1.217,1.217 v 20.1 c 0,0.666 0.555,1.217 1.217,1.217 h 20.099 c 0.664,0 1.219,-0.553 1.219,-1.217 v -20.1 c 0,-0.666 -0.557,-1.217 -1.219,-1.217 z m 0.594,1.812 h 18.91 v 18.91 h -18.91 z" />
<path
   id="path265"
   fill="#f4f4f4"
   d="m 461.81077,173.67206 c -0.661,0 -1.217,0.556 -1.217,1.217 v 20.1 c 0,0.662 0.557,1.217 1.217,1.217 h 20.1 c 0.663,0 1.217,-0.553 1.217,-1.217 v -20.1 c 0,-0.666 -0.556,-1.217 -1.217,-1.217 z m 0.595,1.812 h 18.91 v 18.91 h -18.91 z" />
<path
   id="path267"
   fill="#f4f4f4"
   d="m 483.75077,173.67206 c -0.662,0 -1.218,0.556 -1.218,1.217 v 20.1 c 0,0.662 0.558,1.217 1.218,1.217 h 20.1 c 0.663,0 1.245,-0.553 1.245,-1.217 v -20.1 c 0,-0.666 -0.584,-1.217 -1.245,-1.217 z m 0.593,1.812 h 18.939 v 18.91 h -18.939 z" />
<path
   id="path269"
   fill="#f4f4f4"
   d="m 505.51977,173.67206 c -0.664,0 -1.218,0.553 -1.218,1.217 v 20.1 c 0,0.666 0.556,1.217 1.218,1.217 h 20.1 c 0.663,0 1.217,-0.553 1.217,-1.217 v -20.1 c 0,-0.666 -0.556,-1.217 -1.217,-1.217 z m 0.594,1.812 h 18.91 v 18.91 h -18.91 z" />
<path
   id="path271"
   fill="#f4f4f4"
   d="m 439.84377,151.90206 c -0.665,0 -1.217,0.553 -1.217,1.217 v 20.1 c 0,0.664 0.555,1.217 1.217,1.217 h 20.099 c 0.664,0 1.219,-0.555 1.219,-1.217 v -20.1 c 0,-0.666 -0.553,-1.217 -1.219,-1.217 z m 0.594,1.812 h 18.91 v 18.91 h -18.91 z" />
<path
   id="path273"
   fill="#f4f4f4"
   d="m 461.81077,151.90206 c -0.663,0 -1.217,0.556 -1.217,1.217 v 20.1 c 0,0.66 0.557,1.217 1.217,1.217 h 20.1 c 0.663,0 1.217,-0.555 1.217,-1.217 v -20.1 c 0,-0.666 -0.552,-1.217 -1.217,-1.217 z m 0.595,1.812 h 18.91 v 18.91 h -18.91 z" />
<path
   id="path275"
   fill="#f4f4f4"
   d="m 483.75077,151.90206 c -0.664,0 -1.218,0.556 -1.218,1.217 v 20.1 c 0,0.66 0.558,1.217 1.218,1.217 h 20.1 c 0.663,0 1.245,-0.555 1.245,-1.217 v -20.1 c 0,-0.666 -0.58,-1.217 -1.245,-1.217 z m 0.593,1.812 h 18.939 v 18.91 h -18.939 z" />
<path
   id="path277"
   fill="#f4f4f4"
   d="m 505.51977,151.90206 c -0.666,0 -1.218,0.553 -1.218,1.217 v 20.1 c 0,0.664 0.556,1.217 1.218,1.217 h 20.1 c 0.663,0 1.217,-0.555 1.217,-1.217 v -20.1 c 0,-0.666 -0.552,-1.217 -1.217,-1.217 z m 0.594,1.812 h 18.91 v 18.91 h -18.91 z" />
<path
   id="path279"
   fill="#f4f4f4"
   d="m 439.84377,195.32706 c -0.663,0 -1.217,0.582 -1.217,1.246 v 20.1 c 0,0.665 0.555,1.217 1.217,1.217 h 20.099 c 0.664,0 1.219,-0.554 1.219,-1.217 v -20.1 c 0,-0.666 -0.557,-1.246 -1.219,-1.246 z m 0.594,1.812 h 18.91 v 18.939 h -18.91 z" />
<path
   id="path281"
   fill="#f4f4f4"
   d="m 461.81077,195.32706 c -0.661,0 -1.217,0.584 -1.217,1.246 v 20.1 c 0,0.662 0.557,1.217 1.217,1.217 h 20.1 c 0.663,0 1.217,-0.554 1.217,-1.217 v -20.1 c 0,-0.666 -0.556,-1.246 -1.217,-1.246 z m 0.595,1.812 h 18.91 v 18.939 h -18.91 z" />
<path
   id="path283"
   fill="#f4f4f4"
   d="m 483.75077,195.32706 c -0.662,0 -1.218,0.584 -1.218,1.246 v 20.1 c 0,0.662 0.558,1.217 1.218,1.217 h 20.1 c 0.663,0 1.245,-0.554 1.245,-1.217 v -20.1 c 0,-0.666 -0.584,-1.246 -1.245,-1.246 z m 0.593,1.812 h 18.939 v 18.939 h -18.939 z" />
<path
   id="path285"
   fill="#f4f4f4"
   d="m 505.51977,195.32706 c -0.664,0 -1.218,0.582 -1.218,1.246 v 20.1 c 0,0.665 0.556,1.217 1.218,1.217 h 20.1 c 0.663,0 1.217,-0.554 1.217,-1.217 v -20.1 c 0,-0.666 -0.556,-1.246 -1.217,-1.246 z m 0.594,1.812 h 18.91 v 18.939 h -18.91 z" />
<path
   id="path287"
   fill="#f4f4f4"
   d="m 439.84377,217.01306 c -0.663,0 -1.217,0.552 -1.217,1.217 v 20.127 c 0,0.668 0.554,1.218 1.217,1.218 h 20.099 c 0.668,0 1.219,-0.551 1.219,-1.218 v -20.127 c 0,-0.666 -0.557,-1.217 -1.219,-1.217 z m 0.594,1.811 h 18.91 v 18.938 h -18.91 z" />
<path
   id="path289"
   fill="#f4f4f4"
   d="m 461.81077,217.01306 c -0.661,0 -1.217,0.555 -1.217,1.217 v 20.127 c 0,0.665 0.554,1.218 1.217,1.218 h 20.1 c 0.667,0 1.217,-0.551 1.217,-1.218 v -20.127 c 0,-0.666 -0.556,-1.217 -1.217,-1.217 z m 0.595,1.811 h 18.91 v 18.938 h -18.91 z" />
<path
   id="path291"
   fill="#f4f4f4"
   d="m 483.75077,217.01306 c -0.662,0 -1.218,0.555 -1.218,1.217 v 20.127 c 0,0.665 0.554,1.218 1.218,1.218 h 20.1 c 0.666,0 1.245,-0.551 1.245,-1.218 v -20.127 c 0,-0.666 -0.584,-1.217 -1.245,-1.217 z m 0.593,1.811 h 18.939 v 18.938 h -18.939 z" />
<path
   id="path293"
   fill="#f4f4f4"
   d="m 505.51977,217.01306 c -0.664,0 -1.218,0.552 -1.218,1.217 v 41.868 c 0,0.667 0.556,1.218 1.218,1.218 h 20.1 c 0.663,0 1.217,-0.553 1.217,-1.218 v -41.868 c 0,-0.666 -0.556,-1.217 -1.217,-1.217 z m 0.594,1.811 h 18.91 v 40.68 h -18.91 z" />
<path
   id="path295"
   fill="#f4f4f4"
   d="m 439.84377,238.69606 c -0.665,0 -1.217,0.554 -1.217,1.217 v 20.101 c 0,0.664 0.555,1.245 1.217,1.245 h 41.868 c 0.662,0 1.219,-0.586 1.219,-1.245 v -20.101 c 0,-0.661 -0.555,-1.217 -1.219,-1.217 z m 0.594,1.812 h 40.68 v 18.939 h -40.68 z" />
<path
   id="path297"
   fill="#f4f4f4"
   d="m 483.75077,238.69606 c -0.664,0 -1.218,0.557 -1.218,1.217 v 20.101 c 0,0.66 0.558,1.245 1.218,1.245 h 20.1 c 0.663,0 1.245,-0.583 1.245,-1.245 v -20.101 c 0,-0.665 -0.58,-1.217 -1.245,-1.217 z m 0.593,1.812 h 18.939 v 18.939 h -18.939 z" />
<path
   id="path299"
   fill="#f4f4f4"
   d="m 304.38577,152.07106 c -0.662,0 -1.217,0.554 -1.217,1.218 v 20.1 c 0,0.665 0.555,1.217 1.217,1.217 h 20.101 c 0.663,0 1.217,-0.553 1.217,-1.217 v -20.1 c 0,-0.666 -0.555,-1.218 -1.217,-1.218 z m 0.595,1.812 h 18.91 v 18.911 h -18.91 z" />
<path
   id="path301"
   fill="#f4f4f4"
   d="m 326.38277,152.07106 c -0.662,0 -1.218,0.557 -1.218,1.218 v 20.1 c 0,0.662 0.556,1.217 1.218,1.217 h 29.865 c 0.662,0 1.245,-0.556 1.245,-1.217 v -20.1 c 0,-0.663 -0.585,-1.218 -1.245,-1.218 z m 0.593,1.812 h 28.705 v 18.911 h -28.705 z" />
<path
   id="path303"
   fill="#f4f4f4"
   d="m 366.66577,152.07106 c -0.664,0 -1.218,0.557 -1.218,1.218 v 20.1 c 0,0.662 0.556,1.217 1.218,1.217 h 30.517 c 0.664,0 1.217,-0.556 1.217,-1.217 v -20.1 c 0,-0.663 -0.555,-1.218 -1.217,-1.218 z m 0.595,1.812 h 29.327 v 18.911 h -29.327 z" />
<path
   id="path305"
   fill="#f4f4f4"
   d="m 399.61777,152.07106 c -0.664,0 -1.219,0.557 -1.219,1.218 v 20.1 c 0,0.662 0.557,1.217 1.219,1.217 h 30.828 c 0.662,0 1.217,-0.556 1.217,-1.217 v -20.1 c 0,-0.663 -0.556,-1.218 -1.217,-1.218 z m 0.594,1.812 h 29.64 v 18.911 h -29.64 z" />
</svg>
