<?xml version="1.0" encoding="UTF-8" standalone="no"?>
<!-- Generator: Adobe Illustrator 13.0.0, SVG Export Plug-In . SVG Version: 6.00 Build 14948)  -->

<svg
   version="1.2"
   id="Layer_4"
   x="0px"
   y="0px"
   width="430"
   height="350.26001"
   viewBox="0 0 429.99998 350.26"
   xml:space="preserve"
   sodipodi:docname="bbcmicro.svg"
   inkscape:version="1.2.2 (732a01da63, 2022-12-09)"
   xmlns:inkscape="http://www.inkscape.org/namespaces/inkscape"
   xmlns:sodipodi="http://sodipodi.sourceforge.net/DTD/sodipodi-0.dtd"
   xmlns="http://www.w3.org/2000/svg"
   xmlns:svg="http://www.w3.org/2000/svg"><defs
   id="defs479" /><sodipodi:namedview
   id="namedview477"
   pagecolor="#000000"
   bordercolor="#111111"
   borderopacity="1"
   inkscape:showpageshadow="0"
   inkscape:pageopacity="0"
   inkscape:pagecheckerboard="1"
   inkscape:deskcolor="#d1d1d1"
   showgrid="false"
   inkscape:zoom="2.0445042"
   inkscape:cx="299.58363"
   inkscape:cy="175.10357"
   inkscape:window-width="1920"
   inkscape:window-height="1009"
   inkscape:window-x="-8"
   inkscape:window-y="-8"
   inkscape:window-maximized="1"
   inkscape:current-layer="Layer_4" />
<g
   id="g6"
   transform="translate(-76)">
	<path
   fill="#f4f4f4"
   d="m 192.498,221.686 c -0.763,0 -1.375,-0.62 -1.377,-1.377 v 0 -17.392 c 0.002,-0.757 0.614,-1.379 1.377,-1.379 v 0 h 18.336 c 0.759,0.002 1.375,0.614 1.377,1.379 v 0 17.392 c -0.002,0.765 -0.618,1.375 -1.377,1.377 v 0 z m 17.714,-1.999 v -16.149 h -17.089 v 16.149 z"
   id="path2" />
	<path
   fill="#f4f4f4"
   d="m 196.769,217.415 c -1.387,0 -2.507,-1.122 -2.507,-2.506 v 0 -9.293 c 0,-1.387 1.122,-2.507 2.507,-2.509 v 0 l 9.795,0.002 c 1.384,0 2.506,1.12 2.506,2.507 v 0 9.293 c 0,1.384 -1.122,2.506 -2.506,2.508 v 0 z m -0.508,-11.799 v 9.293 c 0.002,0.28 0.229,0.506 0.508,0.506 v 0 l 9.795,0.002 c 0.279,-0.002 0.506,-0.228 0.508,-0.508 v 0 -9.293 c -0.002,-0.281 -0.228,-0.507 -0.508,-0.507 v 0 l -9.795,-0.002 c -0.281,0.002 -0.506,0.228 -0.508,0.509 z"
   id="path4" />
</g>
<g
   id="g12"
   transform="translate(-76)">
	<path
   fill="#f4f4f4"
   d="m 212.447,221.686 c -0.761,-0.002 -1.375,-0.616 -1.377,-1.377 v 0 -17.392 c 0,-0.761 0.616,-1.379 1.377,-1.379 v 0 h 18.336 c 0.763,0.002 1.375,0.614 1.377,1.379 v 0 17.392 c -0.002,0.765 -0.616,1.375 -1.377,1.377 v 0 z m 17.714,-1.999 v -16.149 h -17.09 v 16.149 z"
   id="path8" />
	<path
   fill="#f4f4f4"
   d="m 216.718,217.415 c -1.385,0 -2.507,-1.122 -2.507,-2.506 v 0 -9.293 c 0,-1.387 1.122,-2.507 2.507,-2.509 v 0 l 9.794,0.002 c 1.385,0.002 2.504,1.122 2.507,2.507 v 0 9.293 c 0,1.384 -1.12,2.506 -2.507,2.508 v 0 z m -0.508,-11.799 v 9.293 c 0.002,0.28 0.227,0.506 0.508,0.506 v 0 l 9.794,0.002 c 0.281,-0.002 0.506,-0.228 0.508,-0.508 v 0 -9.293 c -0.002,-0.283 -0.227,-0.507 -0.508,-0.507 v 0 l -9.794,-0.002 c -0.281,0.002 -0.506,0.228 -0.508,0.509 z"
   id="path10" />
</g>
<g
   id="g18"
   transform="translate(-76)">
	<path
   fill="#f4f4f4"
   d="m 232.396,221.686 c -0.761,-0.002 -1.375,-0.616 -1.377,-1.377 v 0 -17.392 c 0,-0.761 0.616,-1.379 1.377,-1.379 v 0 h 18.337 c 0.763,0 1.375,0.622 1.377,1.379 v 0 17.392 c -0.002,0.757 -0.614,1.377 -1.377,1.377 v 0 z m 17.712,-1.999 V 203.538 H 233.02 v 16.149 z"
   id="path14" />
	<path
   fill="#f4f4f4"
   d="m 236.667,217.415 c -1.386,0 -2.506,-1.122 -2.506,-2.506 v 0 -9.293 c 0,-1.385 1.122,-2.507 2.506,-2.509 v 0 l 9.795,0.002 c 1.385,0 2.506,1.12 2.506,2.507 v 0 9.293 c 0,1.384 -1.122,2.506 -2.506,2.508 v 0 z m -0.506,-11.799 v 9.293 c 0,0.28 0.227,0.506 0.506,0.506 v 0 l 9.795,0.002 c 0.279,-0.002 0.506,-0.228 0.508,-0.508 v 0 -9.293 c -0.002,-0.281 -0.227,-0.507 -0.508,-0.507 v 0 l -9.795,-0.002 c -0.281,0.002 -0.506,0.226 -0.506,0.509 z"
   id="path16" />
</g>
<g
   id="g24"
   transform="translate(-76)">
	<path
   fill="#f4f4f4"
   d="m 252.346,221.685 c -0.763,0 -1.375,-0.618 -1.377,-1.375 v 0 l 0.002,-17.394 c 0,-0.757 0.612,-1.377 1.375,-1.379 v 0 l 18.334,0.002 c 0.763,0 1.377,0.62 1.377,1.377 v 0 17.394 c 0,0.757 -0.616,1.375 -1.377,1.377 v 0 z m 17.713,-1.999 v -16.147 h -17.088 v 16.147 z"
   id="path20" />
	<path
   fill="#f4f4f4"
   d="m 256.615,217.416 c -1.384,0 -2.504,-1.122 -2.504,-2.509 v 0 -9.292 c 0,-1.385 1.122,-2.507 2.504,-2.507 v 0 h 9.797 c 1.384,0 2.506,1.122 2.506,2.507 v 0 9.292 c 0,1.385 -1.12,2.509 -2.506,2.509 v 0 z m -0.506,-11.801 v 9.292 c 0.002,0.281 0.229,0.509 0.506,0.509 v 0 h 9.797 c 0.279,0 0.506,-0.226 0.506,-0.509 v 0 -9.292 c 0,-0.281 -0.225,-0.507 -0.506,-0.507 v 0 h -9.797 c -0.279,0 -0.504,0.226 -0.506,0.507 z"
   id="path22" />
</g>
<g
   id="g30"
   transform="translate(-76)">
	<path
   fill="#f4f4f4"
   d="m 272.294,221.686 c -0.763,-0.002 -1.375,-0.616 -1.377,-1.377 v 0 l 0.002,-17.392 c 0,-0.761 0.612,-1.377 1.375,-1.379 v 0 h 18.336 c 0.761,0.002 1.375,0.614 1.377,1.379 v 0 17.392 c -0.002,0.765 -0.618,1.375 -1.377,1.377 v 0 z m 17.715,-1.999 v -16.149 h -17.09 v 16.149 z"
   id="path26" />
	<path
   fill="#f4f4f4"
   d="m 276.564,217.416 c -1.385,0 -2.507,-1.122 -2.507,-2.509 v 0 -9.292 c 0,-1.385 1.125,-2.507 2.507,-2.507 v 0 h 9.797 c 1.384,0 2.506,1.122 2.506,2.507 v 0 9.292 c 0,1.387 -1.12,2.509 -2.506,2.509 v 0 z m -0.506,-11.801 v 9.292 c 0,0.281 0.227,0.509 0.506,0.509 v 0 h 9.797 c 0.279,0 0.506,-0.228 0.508,-0.509 v 0 -9.292 c -0.002,-0.281 -0.228,-0.507 -0.508,-0.507 v 0 h -9.797 c -0.279,0 -0.506,0.226 -0.506,0.507 z"
   id="path28" />
</g>
<g
   id="g36"
   transform="translate(-76)">
	<path
   fill="#f4f4f4"
   d="m 292.246,221.686 c -0.763,-0.002 -1.377,-0.616 -1.379,-1.377 v 0 l 0.002,-17.392 c 0,-0.761 0.614,-1.379 1.377,-1.379 v 0 h 18.334 c 0.763,0.002 1.375,0.618 1.377,1.379 v 0 17.392 h -0.002 c 0,0.761 -0.612,1.375 -1.375,1.377 v 0 z m 17.709,-1.999 0.002,-16.149 h -17.089 v 16.149 z"
   id="path32" />
	<path
   fill="#f4f4f4"
   d="m 296.515,217.415 c -1.385,0 -2.507,-1.122 -2.507,-2.506 v 0 -9.293 c 0,-1.387 1.122,-2.507 2.507,-2.509 v 0 l 9.797,0.002 c 1.384,0 2.506,1.12 2.506,2.507 v 0 9.293 c 0,1.384 -1.122,2.506 -2.506,2.508 v 0 z m -0.509,-11.799 v 9.293 c 0.002,0.28 0.229,0.506 0.508,0.506 v 0 l 9.797,0.002 c 0.278,-0.002 0.506,-0.228 0.506,-0.508 v 0 -9.293 c 0,-0.281 -0.228,-0.507 -0.506,-0.507 v 0 l -9.797,-0.002 c -0.281,0.002 -0.506,0.228 -0.508,0.509 z"
   id="path34" />
</g>
<g
   id="g42"
   transform="translate(-76)">
	<path
   fill="#f4f4f4"
   d="m 312.195,221.685 c -0.761,0 -1.379,-0.614 -1.379,-1.375 v 0 -17.394 c 0.002,-0.761 0.618,-1.377 1.379,-1.379 v 0 l 18.335,0.002 c 0.761,0 1.375,0.616 1.377,1.377 v 0 17.394 h -0.002 c 0,0.761 -0.614,1.375 -1.375,1.377 v 0 z m 17.71,-1.999 0.002,-16.147 h -17.09 l -0.002,16.147 z"
   id="path38" />
	<path
   fill="#f4f4f4"
   d="m 316.463,217.415 c -1.384,0 -2.506,-1.122 -2.506,-2.506 v 0 -9.293 c 0.002,-1.385 1.122,-2.505 2.506,-2.509 v 0 l 9.797,0.002 c 1.383,0 2.507,1.12 2.507,2.507 v 0 9.293 c -0.002,1.386 -1.122,2.506 -2.507,2.508 v 0 z m -0.506,-11.799 v 9.293 c 0,0.28 0.226,0.506 0.506,0.506 v 0 l 9.797,0.002 c 0.277,-0.002 0.507,-0.229 0.507,-0.508 v 0 -9.293 c 0,-0.281 -0.228,-0.507 -0.507,-0.507 v 0 l -9.797,-0.002 c -0.28,0.002 -0.506,0.226 -0.506,0.509 z"
   id="path40" />
</g>
<g
   id="g48"
   transform="translate(-76)">
	<path
   fill="#f4f4f4"
   d="m 332.143,221.685 c -0.764,0 -1.374,-0.618 -1.376,-1.376 v 0 -17.393 c 0.002,-0.757 0.612,-1.378 1.376,-1.378 v 0 h 18.336 c 0.762,0.002 1.374,0.615 1.378,1.378 v 0 17.393 h -0.002 c -0.002,0.766 -0.614,1.374 -1.376,1.376 v 0 z m 17.712,-1.999 v -16.148 h -17.088 l -0.002,16.148 z"
   id="path44" />
	<path
   fill="#f4f4f4"
   d="m 336.413,217.416 c -1.384,0 -2.507,-1.121 -2.507,-2.507 v 0 -9.294 c 0,-1.386 1.123,-2.507 2.507,-2.507 v 0 h 9.795 c 1.386,0 2.507,1.123 2.507,2.507 v 0 9.294 c 0,1.384 -1.121,2.507 -2.507,2.507 v 0 z m -0.509,-11.801 v 9.294 c 0.002,0.279 0.229,0.507 0.509,0.507 v 0 h 9.795 c 0.279,0 0.507,-0.226 0.507,-0.507 v 0 -9.294 c 0,-0.281 -0.226,-0.507 -0.507,-0.507 v 0 h -9.795 c -0.281,0 -0.507,0.228 -0.509,0.507 z"
   id="path46" />
</g>
<g
   id="g54"
   transform="translate(-76)">
	<path
   fill="#f4f4f4"
   d="m 352.092,221.686 c -0.761,0 -1.375,-0.618 -1.377,-1.376 v 0 -17.393 c 0.002,-0.757 0.614,-1.377 1.377,-1.379 v 0 h 18.335 c 0.761,0.002 1.377,0.618 1.379,1.379 v 0 17.393 h -0.002 c 0,0.762 -0.616,1.376 -1.377,1.376 v 0 z m 17.713,-2 V 203.54 l -17.089,-0.002 -0.002,16.148 z"
   id="path50" />
	<path
   fill="#f4f4f4"
   d="m 356.362,217.416 c -1.387,0 -2.506,-1.123 -2.506,-2.508 v 0 -9.293 c 0,-1.385 1.121,-2.507 2.506,-2.507 v 0 h 9.797 c 1.383,0.003 2.504,1.122 2.506,2.507 v 0 9.293 c -0.002,1.385 -1.121,2.508 -2.506,2.508 v 0 z m -0.508,-11.801 v 9.293 c 0.002,0.281 0.229,0.508 0.508,0.508 v 0 h 9.797 c 0.279,0 0.506,-0.227 0.506,-0.508 v 0 -9.293 c 0,-0.282 -0.225,-0.506 -0.506,-0.506 v 0 l -9.797,-0.002 c -0.281,0.002 -0.506,0.226 -0.508,0.508 z"
   id="path52" />
</g>
<g
   id="g60"
   transform="translate(-76)">
	<path
   fill="#f4f4f4"
   d="m 372.042,221.686 c -0.761,0 -1.376,-0.615 -1.379,-1.376 v 0 l 0.003,-17.394 c 0,-0.761 0.615,-1.376 1.376,-1.376 v 0 h 18.337 c 0.764,0 1.374,0.619 1.374,1.376 v 0 17.394 c 0,0.757 -0.61,1.376 -1.374,1.376 v 0 z m 17.711,-2 0.002,-16.148 h -17.092 v 16.148 z"
   id="path56" />
	<path
   fill="#f4f4f4"
   d="m 376.312,217.415 c -1.385,0 -2.507,-1.122 -2.507,-2.507 v 0 -9.292 c 0,-1.386 1.122,-2.508 2.507,-2.508 v 0 h 9.797 c 1.384,0 2.506,1.122 2.506,2.508 v 0 9.292 c 0,1.385 -1.122,2.507 -2.506,2.509 v 0 z m -0.508,-11.799 v 9.292 c 0.003,0.281 0.229,0.508 0.508,0.508 v 0 h 9.797 c 0.278,0 0.505,-0.227 0.507,-0.508 v 0 -9.292 c -0.002,-0.282 -0.229,-0.507 -0.507,-0.507 v 0 l -9.797,-0.002 c -0.279,0.002 -0.505,0.227 -0.508,0.509 z"
   id="path58" />
</g>
<g
   id="g66"
   transform="translate(-76)">
	<path
   fill="#f4f4f4"
   d="m 391.991,221.686 c -0.765,-0.002 -1.375,-0.615 -1.377,-1.376 v 0 -17.394 c 0,-0.76 0.612,-1.377 1.377,-1.377 v 0 h 18.336 c 0.761,0 1.375,0.617 1.377,1.377 v 0 17.394 h -0.002 c 0,0.761 -0.614,1.374 -1.375,1.376 v 0 z m 17.711,-1.999 0.002,-16.149 h -17.09 v 16.149 z"
   id="path62" />
	<path
   fill="#f4f4f4"
   d="m 396.262,217.416 c -1.387,0 -2.504,-1.125 -2.506,-2.507 v 0 -9.293 c 0.002,-1.384 1.119,-2.507 2.506,-2.509 v 0 l 9.796,0.002 c 1.384,0 2.506,1.121 2.506,2.507 v 0 9.293 c 0,1.384 -1.122,2.507 -2.506,2.507 v 0 z m -0.508,-11.8 v 9.293 c 0.002,0.281 0.227,0.507 0.508,0.507 v 0 h 9.796 c 0.277,0 0.506,-0.228 0.506,-0.507 v 0 -9.293 c 0,-0.281 -0.227,-0.507 -0.506,-0.507 v 0 l -9.796,-0.002 c -0.282,0.002 -0.506,0.226 -0.508,0.509 z"
   id="path64" />
</g>
<g
   id="g72"
   transform="translate(-76)">
	<path
   fill="#f4f4f4"
   d="m 148.229,241.729 c -0.76,0 -1.376,-0.613 -1.376,-1.376 v 0 -17.393 c 0,-0.763 0.616,-1.378 1.376,-1.378 v 0 h 18.336 c 0.758,0 1.374,0.611 1.376,1.378 v 0 17.393 c -0.002,0.768 -0.62,1.374 -1.376,1.376 v 0 z m 17.712,-2 v -16.147 h -17.088 v 16.147 z"
   id="path68" />
	<path
   fill="#f4f4f4"
   d="m 152.499,237.459 c -1.386,0 -2.506,-1.122 -2.506,-2.506 v 0 -9.293 c 0,-1.386 1.121,-2.509 2.506,-2.509 v 0 h 9.796 c 1.386,0 2.506,1.123 2.506,2.509 v 0 9.293 c 0,1.384 -1.121,2.506 -2.506,2.508 v 0 z m -0.507,-11.799 v 9.293 c 0,0.277 0.229,0.507 0.507,0.507 v 0 h 9.796 c 0.28,0 0.507,-0.228 0.507,-0.507 v 0 -9.293 c 0,-0.281 -0.228,-0.507 -0.507,-0.507 v 0 l -9.796,-0.003 c -0.278,0.003 -0.507,0.231 -0.507,0.51 z"
   id="path70" />
</g>
<g
   id="g78"
   transform="translate(-76)">
	<path
   fill="#f4f4f4"
   d="m 168.179,241.728 c -0.756,0 -1.376,-0.608 -1.378,-1.374 v 0 l 0.002,-17.395 c 0,-0.765 0.62,-1.376 1.376,-1.378 v 0 l 18.335,0.002 c 0.758,0 1.376,0.618 1.378,1.376 v 0 17.395 h -0.002 c 0,0.759 -0.618,1.374 -1.376,1.374 v 0 z m 17.711,-2 v -16.145 l -17.088,-0.002 -0.002,16.146 h 17.09 z"
   id="path74" />
	<path
   fill="#f4f4f4"
   d="m 172.449,237.459 c -1.386,0 -2.507,-1.122 -2.507,-2.506 v 0 -9.293 c 0,-1.386 1.121,-2.509 2.507,-2.509 v 0 h 9.795 c 1.386,0 2.507,1.123 2.507,2.509 v 0 9.293 c 0,1.384 -1.121,2.506 -2.507,2.508 v 0 z m -0.508,-11.799 v 9.293 c 0.002,0.279 0.23,0.507 0.508,0.507 v 0 h 9.795 c 0.278,0 0.506,-0.228 0.508,-0.507 v 0 -9.293 c -0.002,-0.281 -0.23,-0.507 -0.508,-0.507 v 0 l -9.795,-0.003 c -0.278,0.003 -0.506,0.229 -0.508,0.51 z"
   id="path76" />
</g>
<g
   id="g84"
   transform="translate(-76)">
	<path
   fill="#f4f4f4"
   d="m 188.128,241.728 c -0.758,0 -1.376,-0.615 -1.378,-1.374 v 0 l 0.002,-17.395 c 0,-0.758 0.618,-1.376 1.376,-1.378 v 0 l 18.336,0.002 c 0.756,0 1.374,0.615 1.376,1.376 v 0 17.395 c 0,0.763 -0.62,1.374 -1.376,1.374 v 0 z m 17.712,-2 v -16.145 l -17.088,-0.002 -0.002,16.146 h 17.09 z"
   id="path80" />
	<path
   fill="#f4f4f4"
   d="m 192.399,237.459 c -1.388,0 -2.506,-1.122 -2.508,-2.506 v 0 -9.293 c 0.002,-1.386 1.121,-2.509 2.508,-2.509 v 0 h 9.796 c 1.386,0 2.504,1.125 2.504,2.509 v 0 9.293 c 0,1.382 -1.119,2.506 -2.504,2.508 v 0 z m -0.507,-11.799 v 9.293 c 0,0.279 0.228,0.507 0.507,0.507 v 0 h 9.796 c 0.278,0 0.503,-0.228 0.505,-0.507 v 0 -9.293 c -0.002,-0.281 -0.228,-0.507 -0.505,-0.507 v 0 l -9.796,-0.003 c -0.279,0.003 -0.507,0.229 -0.507,0.51 z"
   id="path82" />
</g>
<g
   id="g90"
   transform="translate(-76)">
	<path
   fill="#f4f4f4"
   d="m 208.078,241.729 c -0.761,-0.002 -1.376,-0.617 -1.376,-1.376 v 0 -17.393 c 0,-0.758 0.615,-1.376 1.376,-1.378 v 0 h 18.335 c 0.759,0.002 1.376,0.615 1.376,1.378 v 0 17.393 c 0,0.763 -0.62,1.374 -1.376,1.376 v 0 z m 17.711,-2 v -16.147 h -17.087 v 16.147 z"
   id="path86" />
	<path
   fill="#f4f4f4"
   d="m 212.346,237.46 c -1.386,-0.002 -2.504,-1.124 -2.507,-2.508 v 0 -9.293 c 0.002,-1.384 1.121,-2.506 2.507,-2.506 v 0 h 9.798 c 1.384,0 2.506,1.12 2.506,2.506 v 0 9.293 c 0,1.386 -1.123,2.506 -2.506,2.508 v 0 z m -0.506,-11.801 v 9.293 c 0,0.279 0.23,0.507 0.506,0.509 v 0 h 9.798 c 0.277,-0.002 0.505,-0.229 0.507,-0.509 v 0 -9.293 c -0.002,-0.279 -0.23,-0.508 -0.507,-0.508 v 0 h -9.798 c -0.276,0 -0.506,0.229 -0.506,0.508 z"
   id="path88" />
</g>
<g
   id="g96"
   transform="translate(-76)">
	<path
   fill="#f4f4f4"
   d="m 228.025,241.729 c -0.758,0 -1.374,-0.613 -1.376,-1.376 v 0 -17.393 c 0,-0.763 0.618,-1.378 1.376,-1.378 v 0 h 18.338 c 0.756,0.002 1.374,0.615 1.376,1.378 v 0 17.393 c -0.002,0.763 -0.62,1.374 -1.376,1.376 v 0 z m 17.714,-2 v -16.147 h -17.09 v 16.147 z"
   id="path92" />
	<path
   fill="#f4f4f4"
   d="m 232.297,237.459 c -1.386,0 -2.506,-1.122 -2.506,-2.506 v 0 -9.293 c 0,-1.386 1.121,-2.509 2.506,-2.509 v 0 h 9.796 c 1.386,0 2.506,1.123 2.506,2.509 v 0 9.293 c 0,1.384 -1.121,2.506 -2.506,2.508 v 0 z M 231.79,225.66 v 9.293 c 0,0.279 0.228,0.507 0.507,0.507 v 0 h 9.796 c 0.278,0 0.505,-0.228 0.508,-0.507 v 0 -9.293 c -0.002,-0.281 -0.23,-0.507 -0.508,-0.507 v 0 l -9.796,-0.003 c -0.279,0.003 -0.507,0.229 -0.507,0.51 z"
   id="path94" />
</g>
<g
   id="g102"
   transform="translate(-76)">
	<path
   fill="#f4f4f4"
   d="m 247.976,241.729 c -0.756,-0.002 -1.376,-0.613 -1.376,-1.376 v 0 -17.393 c 0,-0.763 0.62,-1.376 1.376,-1.378 v 0 h 18.337 c 0.759,0.002 1.374,0.62 1.376,1.378 v 0 17.393 h -0.002 c 0,0.759 -0.615,1.374 -1.374,1.376 v 0 z m 17.711,-2 0.002,-16.147 h -17.09 v 16.147 z"
   id="path98" />
	<path
   fill="#f4f4f4"
   d="m 252.245,237.459 c -1.386,0 -2.506,-1.122 -2.506,-2.506 v 0 -9.293 c 0,-1.386 1.121,-2.509 2.506,-2.509 v 0 h 9.796 c 1.386,0 2.506,1.123 2.506,2.509 v 0 9.293 c 0,1.384 -1.121,2.506 -2.506,2.508 v 0 z m -0.508,-11.799 v 9.293 c 0.002,0.279 0.23,0.507 0.508,0.507 v 0 h 9.796 c 0.279,0 0.507,-0.228 0.507,-0.507 v 0 -9.293 c 0,-0.281 -0.228,-0.507 -0.507,-0.507 v 0 l -9.796,-0.003 c -0.278,0.003 -0.505,0.229 -0.508,0.51 z"
   id="path100" />
</g>
<g
   id="g108"
   transform="translate(-76)">
	<path
   fill="#f4f4f4"
   d="m 267.925,241.729 c -0.758,-0.002 -1.376,-0.613 -1.378,-1.376 v 0 l 0.002,-17.393 c 0,-0.763 0.618,-1.376 1.376,-1.378 v 0 h 18.336 c 0.76,0.002 1.374,0.62 1.376,1.378 v 0 17.393 c -0.002,0.759 -0.618,1.374 -1.376,1.376 v 0 z m 17.712,-2 v -16.147 h -17.088 l -0.002,16.147 z"
   id="path104" />
	<path
   fill="#f4f4f4"
   d="m 272.195,237.459 c -1.386,0 -2.504,-1.122 -2.506,-2.506 v 0 -9.293 c 0.002,-1.386 1.121,-2.509 2.506,-2.509 v 0 h 9.796 c 1.386,0 2.507,1.123 2.507,2.509 v 0 9.293 c 0,1.384 -1.121,2.506 -2.507,2.508 v 0 z m -0.506,-11.799 v 9.293 c 0,0.279 0.228,0.507 0.505,0.507 v 0 h 9.796 c 0.278,0 0.505,-0.228 0.508,-0.507 v 0 -9.293 c -0.002,-0.281 -0.23,-0.507 -0.508,-0.507 v 0 l -9.796,-0.003 c -0.277,0.003 -0.505,0.229 -0.505,0.51 z"
   id="path106" />
</g>
<g
   id="g114"
   transform="translate(-76)">
	<path
   fill="#f4f4f4"
   d="m 287.874,241.729 c -0.759,0 -1.374,-0.613 -1.376,-1.376 v 0 -17.393 c 0,-0.763 0.618,-1.378 1.376,-1.378 v 0 h 18.335 c 0.756,0.002 1.376,0.611 1.378,1.378 v 0 17.393 c -0.002,0.768 -0.622,1.376 -1.378,1.376 v 0 z m 17.713,-2 v -16.147 h -17.09 v 16.147 z"
   id="path110" />
	<path
   fill="#f4f4f4"
   d="m 292.145,237.459 c -1.386,0 -2.506,-1.122 -2.508,-2.506 v 0 -9.293 c 0.002,-1.386 1.123,-2.509 2.508,-2.509 v 0 h 9.795 c 1.386,0 2.507,1.123 2.507,2.509 v 0 9.293 c 0,1.384 -1.121,2.506 -2.507,2.508 v 0 z m -0.507,-11.799 v 9.293 c 0,0.277 0.228,0.507 0.507,0.507 v 0 h 9.795 c 0.277,0 0.506,-0.228 0.508,-0.507 v 0 -9.293 c -0.002,-0.281 -0.23,-0.507 -0.508,-0.507 v 0 l -9.795,-0.003 c -0.28,0.003 -0.507,0.231 -0.507,0.51 z"
   id="path112" />
</g>
<g
   id="g120"
   transform="translate(-76)">
	<path
   fill="#f4f4f4"
   d="m 307.823,241.729 c -0.757,-0.002 -1.376,-0.617 -1.378,-1.376 v 0 l 0.002,-17.393 c 0,-0.76 0.617,-1.376 1.376,-1.378 v 0 h 18.335 c 0.761,0.002 1.374,0.62 1.377,1.378 v 0 17.393 c -0.003,0.759 -0.616,1.374 -1.377,1.376 v 0 z m 17.712,-2 v -16.147 h -17.088 l -0.002,16.147 z"
   id="path116" />
	<path
   fill="#f4f4f4"
   d="m 312.095,237.459 c -1.388,0 -2.509,-1.122 -2.509,-2.506 v 0 -9.293 c 0,-1.386 1.121,-2.509 2.509,-2.509 v 0 h 9.794 c 1.386,0 2.507,1.123 2.507,2.509 v 0 9.293 c 0,1.384 -1.121,2.506 -2.507,2.508 v 0 z m -0.51,-11.799 v 9.293 c 0.002,0.279 0.229,0.507 0.51,0.507 v 0 h 9.794 c 0.279,0 0.508,-0.229 0.508,-0.507 v 0 -9.293 c 0,-0.279 -0.229,-0.507 -0.508,-0.507 v 0 l -9.794,-0.003 c -0.282,0.003 -0.508,0.229 -0.51,0.51 z"
   id="path118" />
</g>
<g
   id="g126"
   transform="translate(-76)">
	<path
   fill="#f4f4f4"
   d="m 327.774,241.728 c -0.755,0 -1.379,-0.608 -1.381,-1.374 v 0 l 0.002,-17.395 c 0,-0.767 0.622,-1.376 1.379,-1.378 v 0 l 18.335,0.002 c 0.759,0 1.374,0.615 1.376,1.376 v 0 17.395 h -0.002 c 0,0.761 -0.615,1.374 -1.374,1.374 v 0 z m 17.709,-2 0.002,-16.145 -17.09,-0.002 -0.002,16.146 h 17.09 z"
   id="path122" />
	<path
   fill="#f4f4f4"
   d="m 332.043,237.459 c -1.386,0 -2.507,-1.124 -2.507,-2.506 v 0 -9.293 c 0,-1.384 1.121,-2.509 2.507,-2.509 v 0 h 9.796 c 1.386,0 2.506,1.123 2.506,2.509 v 0 9.293 c 0,1.384 -1.12,2.506 -2.506,2.508 v 0 z m -0.508,-11.799 v 9.293 c 0.002,0.279 0.228,0.507 0.508,0.507 v 0 h 9.796 c 0.277,0 0.505,-0.228 0.507,-0.507 v 0 -9.293 c -0.002,-0.281 -0.229,-0.507 -0.507,-0.507 v 0 l -9.796,-0.003 c -0.28,0.003 -0.506,0.229 -0.508,0.51 z"
   id="path124" />
</g>
<g
   id="g132"
   transform="translate(-76)">
	<path
   fill="#f4f4f4"
   d="m 347.723,241.729 c -0.759,-0.002 -1.378,-0.613 -1.378,-1.374 v 0 -17.395 c 0.002,-0.763 0.619,-1.376 1.378,-1.376 v 0 h 18.336 c 0.758,0 1.374,0.613 1.376,1.376 v 0 17.395 h -0.002 c 0,0.761 -0.616,1.374 -1.374,1.374 v 0 z m 17.71,-2 0.001,-16.146 h -17.089 v 16.146 z"
   id="path128" />
	<path
   fill="#f4f4f4"
   d="m 351.993,237.458 c -1.387,0 -2.508,-1.12 -2.508,-2.505 v 0 -9.294 c 0,-1.386 1.121,-2.507 2.508,-2.509 v 0 l 9.795,0.002 c 1.386,0 2.507,1.123 2.507,2.507 v 0 9.294 c 0,1.385 -1.121,2.505 -2.507,2.508 v 0 z m -0.51,-11.799 v 9.294 c 0.002,0.277 0.229,0.506 0.51,0.506 v 0 l 9.795,0.002 c 0.279,-0.002 0.506,-0.23 0.508,-0.508 v 0 -9.294 c -0.002,-0.279 -0.229,-0.507 -0.508,-0.507 v 0 l -9.795,-0.003 c -0.28,0.003 -0.508,0.231 -0.51,0.51 z"
   id="path130" />
</g>
<g
   id="g138"
   transform="translate(-76)">
	<path
   fill="#f4f4f4"
   d="m 367.577,241.728 c -0.761,0 -1.376,-0.613 -1.378,-1.374 v 0 l 0.002,-17.395 c 0,-0.762 0.615,-1.377 1.376,-1.377 v 0 h 18.335 c 0.759,0.002 1.376,0.615 1.378,1.377 v 0 17.395 h -0.002 c 0,0.763 -0.619,1.374 -1.376,1.374 v 0 z m 17.712,-1.999 V 223.582 H 368.2 v 16.147 z"
   id="path134" />
	<path
   fill="#f4f4f4"
   d="m 371.847,237.459 c -1.386,0 -2.507,-1.122 -2.507,-2.506 v 0 -9.293 c 0,-1.385 1.121,-2.507 2.507,-2.509 v 0 h 9.798 c 1.384,0.002 2.503,1.124 2.505,2.509 v 0 9.293 c -0.002,1.384 -1.121,2.506 -2.505,2.506 v 0 z M 371.34,225.66 v 9.293 c 0,0.279 0.229,0.507 0.507,0.507 v 0 h 9.798 c 0.276,0 0.505,-0.228 0.505,-0.507 v 0 -9.293 c 0,-0.28 -0.229,-0.509 -0.505,-0.509 v 0 h -9.798 c -0.279,0 -0.507,0.229 -0.507,0.509 z"
   id="path136" />
</g>
<g
   id="g144"
   transform="translate(-76)">
	<path
   fill="#f4f4f4"
   d="m 387.527,241.728 c -0.76,0 -1.375,-0.615 -1.377,-1.375 v 0 -17.393 c 0.002,-0.758 0.617,-1.377 1.377,-1.379 v 0 l 18.334,0.002 c 0.756,0 1.377,0.614 1.379,1.377 v 0 17.393 h -0.002 c 0,0.763 -0.621,1.375 -1.377,1.377 v 0 z m 17.711,-1.999 v -16.146 l -17.088,-0.002 v 16.146 z"
   id="path140" />
	<path
   fill="#f4f4f4"
   d="m 391.797,237.46 c -1.387,0 -2.507,-1.124 -2.507,-2.507 v 0 -9.293 c 0,-1.385 1.12,-2.509 2.507,-2.509 v 0 h 9.797 c 1.385,0.002 2.505,1.124 2.505,2.509 v 0 9.293 c 0,1.383 -1.12,2.505 -2.505,2.507 v 0 z m -0.508,-11.8 v 9.293 c 0.002,0.279 0.229,0.506 0.508,0.506 v 0 l 9.797,0.002 c 0.276,-0.002 0.506,-0.229 0.506,-0.508 v 0 -9.293 c 0,-0.281 -0.229,-0.508 -0.506,-0.508 v 0 l -9.797,-0.002 c -0.279,0.002 -0.506,0.229 -0.508,0.51 z"
   id="path142" />
</g>
<g
   id="g150"
   transform="translate(-76)">
	<path
   fill="#f4f4f4"
   d="m 407.477,241.728 c -0.758,0 -1.378,-0.611 -1.378,-1.376 v 0 -17.393 c 0.002,-0.762 0.618,-1.376 1.378,-1.376 v 0 h 18.337 c 0.758,0 1.371,0.612 1.376,1.376 v 0 17.393 h -0.003 c -0.002,0.767 -0.615,1.374 -1.373,1.376 v 0 z m 17.71,-1.999 0.002,-16.147 h -17.09 v 16.147 z"
   id="path146" />
	<path
   fill="#f4f4f4"
   d="m 411.747,237.459 c -1.388,0 -2.508,-1.123 -2.508,-2.507 v 0 -9.292 c 0,-1.386 1.12,-2.509 2.508,-2.509 v 0 h 9.793 c 1.387,0 2.507,1.123 2.509,2.509 v 0 9.292 c -0.002,1.384 -1.122,2.507 -2.509,2.509 v 0 z m -0.509,-11.799 v 9.292 c 0,0.28 0.228,0.508 0.509,0.508 v 0 h 9.793 c 0.28,0 0.508,-0.229 0.51,-0.508 v 0 -9.292 c -0.002,-0.279 -0.229,-0.509 -0.51,-0.509 v 0 h -9.793 c -0.281,0 -0.509,0.228 -0.509,0.509 z"
   id="path148" />
</g>
<g
   id="g156"
   transform="translate(-76)">
	<path
   fill="#f4f4f4"
   d="m 427.426,241.729 c -0.758,-0.002 -1.378,-0.613 -1.378,-1.375 v 0 -17.395 c 0.003,-0.762 0.618,-1.375 1.378,-1.377 v 0 h 18.336 c 0.758,0.002 1.375,0.615 1.377,1.377 v 0 17.395 h -0.002 c 0,0.762 -0.619,1.373 -1.375,1.375 v 0 z m 17.712,-2 v -16.147 h -17.089 l -0.002,16.147 z"
   id="path152" />
	<path
   fill="#f4f4f4"
   d="m 431.695,237.459 c -1.387,0 -2.506,-1.123 -2.506,-2.506 v 0 -9.294 c 0,-1.385 1.119,-2.506 2.506,-2.509 v 0 l 9.796,0.003 c 1.385,0 2.506,1.121 2.506,2.506 v 0 9.294 c 0,1.383 -1.121,2.506 -2.506,2.508 v 0 z m -0.507,-11.8 v 9.294 c 0.002,0.277 0.229,0.506 0.508,0.506 v 0 l 9.796,0.002 c 0.276,-0.002 0.506,-0.23 0.506,-0.508 v 0 -9.294 c 0,-0.28 -0.229,-0.509 -0.506,-0.509 v 0 h -9.796 c -0.279,0 -0.507,0.229 -0.508,0.509 z"
   id="path154" />
</g>
<g
   id="g162"
   transform="translate(-76)">
	<path
   fill="#f4f4f4"
   d="m 447.375,241.729 c -0.759,-0.002 -1.376,-0.616 -1.378,-1.376 v 0 -17.393 c 0.002,-0.759 0.619,-1.376 1.378,-1.378 v 0 h 18.334 c 0.76,0.002 1.375,0.619 1.377,1.378 v 0 17.393 c -0.002,0.76 -0.617,1.374 -1.377,1.376 v 0 z m 17.711,-2 v -16.148 h -17.088 l -0.002,16.148 z"
   id="path158" />
	<path
   fill="#f4f4f4"
   d="m 451.644,237.46 c -1.387,-0.002 -2.505,-1.124 -2.505,-2.508 v 0 -9.293 c 0,-1.384 1.118,-2.506 2.505,-2.508 v 0 h 9.798 c 1.386,0 2.506,1.124 2.506,2.508 v 0 9.293 c 0,1.384 -1.12,2.508 -2.506,2.508 v 0 z m -0.506,-11.801 v 9.293 c 0,0.281 0.229,0.508 0.506,0.508 v 0 h 9.798 c 0.278,0 0.505,-0.227 0.507,-0.508 v 0 -9.293 c -0.002,-0.28 -0.229,-0.507 -0.507,-0.51 v 0 h -9.798 c -0.278,0.003 -0.506,0.23 -0.506,0.51 z"
   id="path160" />
</g>
<g
   id="g168"
   transform="translate(-76)">
	<path
   fill="#f4f4f4"
   d="m 148.229,261.771 c -0.762,0 -1.373,-0.612 -1.377,-1.373 v 0 l 0.002,-17.395 c 0,-0.763 0.619,-1.374 1.375,-1.376 v 0 h 27.378 c 0.754,0.002 1.375,0.617 1.377,1.376 v 0 17.395 h -0.002 c 0,0.759 -0.615,1.373 -1.375,1.373 v 0 z m 26.755,-1.999 v -16.146 h -26.131 v 16.146 z"
   id="path164" />
	<path
   fill="#f4f4f4"
   d="m 152.499,257.502 c -1.383,0 -2.506,-1.119 -2.508,-2.506 v 0 l 0.002,-9.293 c 0,-1.387 1.124,-2.508 2.506,-2.508 v 0 h 18.838 c 1.385,0 2.506,1.121 2.508,2.508 v 0 9.293 h -0.002 c 0,1.385 -1.121,2.506 -2.506,2.508 v 0 z m -0.507,-11.799 v 9.293 c 0,0.278 0.229,0.506 0.507,0.506 v 0 l 18.838,0.003 c 0.28,-0.003 0.506,-0.23 0.508,-0.509 v 0 h -0.002 l 0.002,-9.293 c -0.002,-0.282 -0.228,-0.506 -0.508,-0.506 v 0 l -18.838,-0.003 c -0.28,0.003 -0.507,0.229 -0.507,0.509 z"
   id="path166" />
</g>
<g
   id="g174"
   transform="translate(-76)">
	<path
   fill="#f4f4f4"
   d="m 177.222,261.771 c -0.76,0 -1.375,-0.606 -1.379,-1.373 v 0 l 0.002,-17.395 c 0,-0.767 0.623,-1.374 1.377,-1.376 v 0 h 18.336 c 0.754,0.002 1.375,0.609 1.375,1.376 v 0 17.395 c -0.004,0.765 -0.615,1.371 -1.375,1.373 v 0 z m 17.713,-1.999 v -16.146 h -17.092 v 16.146 z"
   id="path170" />
	<path
   fill="#f4f4f4"
   d="m 181.493,257.502 c -1.387,0 -2.508,-1.121 -2.508,-2.506 v 0 -9.293 c 0,-1.387 1.124,-2.508 2.508,-2.508 v 0 h 9.792 c 1.385,0.002 2.506,1.121 2.508,2.508 v 0 9.293 c 0,1.385 -1.121,2.506 -2.508,2.508 v 0 z m -0.509,-11.799 v 9.293 c 0,0.278 0.227,0.506 0.509,0.506 v 0 l 9.792,0.003 c 0.283,-0.003 0.507,-0.229 0.509,-0.509 v 0 -9.293 c 0,-0.282 -0.226,-0.506 -0.509,-0.506 v 0 l -9.792,-0.003 c -0.283,0.003 -0.509,0.227 -0.509,0.509 z"
   id="path172" />
</g>
<g
   id="g180"
   transform="translate(-76)">
	<path
   fill="#f4f4f4"
   d="m 197.17,261.771 c -0.761,0 -1.377,-0.614 -1.377,-1.373 v 0 -17.395 c 0.002,-0.759 0.623,-1.374 1.377,-1.376 v 0 h 18.336 c 0.756,0.002 1.375,0.617 1.375,1.376 v 0 17.395 c 0,0.759 -0.613,1.373 -1.375,1.373 v 0 z m 17.711,-1.999 0.002,-16.146 h -17.09 v 16.146 z"
   id="path176" />
	<path
   fill="#f4f4f4"
   d="m 201.44,257.503 c -1.385,0 -2.506,-1.121 -2.508,-2.506 v 0 l 0.002,-9.295 c 0,-1.385 1.121,-2.506 2.506,-2.506 v 0 h 9.797 c 1.383,0 2.504,1.121 2.506,2.506 v 0 9.295 c -0.002,1.385 -1.121,2.504 -2.506,2.506 v 0 z m -0.506,-11.801 v 9.295 c 0,0.278 0.227,0.506 0.507,0.506 v 0 h 9.797 c 0.278,0 0.504,-0.228 0.506,-0.506 v 0 h -0.002 l 0.002,-9.295 c -0.002,-0.28 -0.229,-0.507 -0.506,-0.507 v 0 h -9.797 c -0.281,0 -0.507,0.227 -0.507,0.507 z"
   id="path178" />
</g>
<g
   id="g186"
   transform="translate(-76)">
	<path
   fill="#f4f4f4"
   d="m 217.12,261.772 c -0.765,-0.003 -1.375,-0.613 -1.377,-1.376 v 0 -17.393 c 0.002,-0.763 0.621,-1.376 1.377,-1.378 v 0 l 18.336,0.002 c 0.754,0 1.374,0.615 1.375,1.376 v 0 17.393 c 0,0.759 -0.613,1.376 -1.375,1.376 v 0 z m 17.711,-1.999 v -16.146 h -17.087 v 16.145 z"
   id="path182" />
	<path
   fill="#f4f4f4"
   d="m 221.39,257.502 c -1.385,0 -2.506,-1.121 -2.508,-2.506 v 0 -9.293 c 0,-1.387 1.123,-2.508 2.508,-2.508 v 0 h 9.794 c 1.385,0.002 2.504,1.123 2.508,2.508 v 0 9.293 h -0.002 c 0,1.385 -1.121,2.506 -2.506,2.508 v 0 z m -0.507,-11.799 -0.002,9.293 c 0.002,0.278 0.229,0.506 0.509,0.506 v 0 l 9.794,0.003 c 0.28,-0.003 0.507,-0.229 0.507,-0.509 v 0 -9.293 c 0,-0.282 -0.224,-0.506 -0.507,-0.506 v 0 l -9.794,-0.003 c -0.28,0.003 -0.507,0.227 -0.507,0.509 z"
   id="path184" />
</g>
<g
   id="g192"
   transform="translate(-76)">
	<path
   fill="#f4f4f4"
   d="m 237.068,261.772 c -0.76,0 -1.375,-0.617 -1.377,-1.376 v 0 l 0.002,-17.393 c 0,-0.761 0.621,-1.376 1.375,-1.378 v 0 l 18.336,0.002 c 0.754,0 1.375,0.611 1.375,1.376 v 0 17.393 c -0.002,0.763 -0.615,1.376 -1.375,1.376 v 0 z m 17.713,-1.999 v -16.146 h -17.09 v 16.145 z"
   id="path188" />
	<path
   fill="#f4f4f4"
   d="m 241.338,257.502 c -1.385,0 -2.506,-1.121 -2.506,-2.506 v 0 -9.293 c 0,-1.387 1.121,-2.508 2.506,-2.508 v 0 h 9.797 c 1.383,0 2.506,1.121 2.506,2.508 v 0 9.293 c -0.002,1.385 -1.123,2.506 -2.506,2.508 v 0 z m -0.506,-11.799 v 9.293 c 0,0.278 0.226,0.506 0.506,0.506 v 0 l 9.797,0.003 c 0.278,-0.003 0.505,-0.23 0.507,-0.509 v 0 h -0.002 l 0.002,-9.293 c -0.002,-0.282 -0.229,-0.506 -0.507,-0.506 v 0 l -9.797,-0.003 c -0.28,0.003 -0.506,0.227 -0.506,0.509 z"
   id="path190" />
</g>
<g
   id="g198"
   transform="translate(-76)">
	<path
   fill="#f4f4f4"
   d="m 257.018,261.771 c -0.761,0 -1.375,-0.61 -1.377,-1.373 v 0 -17.395 c 0.002,-0.763 0.623,-1.374 1.377,-1.376 v 0 h 18.336 c 0.756,0.002 1.375,0.613 1.375,1.376 v 0 17.395 c -0.002,0.761 -0.613,1.373 -1.375,1.373 v 0 z m 17.711,-1.999 0.002,-16.146 h -17.09 v 16.146 z"
   id="path194" />
	<path
   fill="#f4f4f4"
   d="m 261.29,257.502 c -1.387,0 -2.509,-1.121 -2.509,-2.506 v 0 -9.293 c 0,-1.387 1.124,-2.508 2.509,-2.508 v 0 h 9.794 c 1.385,0.002 2.504,1.123 2.506,2.508 v 0 9.293 c 0,1.385 -1.121,2.506 -2.506,2.508 v 0 z m -0.509,-11.799 v 9.293 c 0,0.278 0.228,0.506 0.509,0.506 v 0 l 9.794,0.003 c 0.28,-0.003 0.504,-0.229 0.507,-0.509 v 0 -9.293 c 0,-0.282 -0.227,-0.506 -0.507,-0.506 v 0 l -9.794,-0.003 c -0.283,0.003 -0.509,0.227 -0.509,0.509 z"
   id="path196" />
</g>
<g
   id="g204"
   transform="translate(-76)">
	<path
   fill="#f4f4f4"
   d="m 276.969,261.771 c -0.763,0 -1.375,-0.61 -1.377,-1.373 v 0 -17.395 c 0,-0.763 0.621,-1.374 1.377,-1.376 v 0 h 18.334 c 0.754,0.002 1.375,0.613 1.377,1.376 v 0 17.395 c -0.002,0.763 -0.617,1.373 -1.377,1.373 v 0 z m 17.711,-1.999 v -16.146 h -17.09 v 16.146 z"
   id="path200" />
	<path
   fill="#f4f4f4"
   d="m 281.238,257.502 c -1.387,0 -2.506,-1.121 -2.506,-2.506 v 0 -9.293 c 0,-1.385 1.122,-2.508 2.506,-2.508 v 0 h 9.795 c 1.385,0 2.508,1.121 2.508,2.508 v 0 9.293 c -0.002,1.385 -1.124,2.506 -2.508,2.508 v 0 z m -0.507,-11.799 v 9.293 c 0,0.28 0.226,0.506 0.506,0.506 v 0 l 9.795,0.003 c 0.28,-0.003 0.507,-0.23 0.509,-0.509 v 0 h -0.002 l 0.002,-9.293 c -0.002,-0.282 -0.227,-0.506 -0.509,-0.506 v 0 l -9.795,-0.003 c -0.279,0.003 -0.506,0.227 -0.506,0.509 z"
   id="path202" />
</g>
<g
   id="g210"
   transform="translate(-76)">
	<path
   fill="#f4f4f4"
   d="m 296.917,261.771 c -0.762,0 -1.375,-0.61 -1.377,-1.373 v 0 -17.395 c 0.002,-0.763 0.624,-1.374 1.377,-1.376 v 0 h 18.336 c 0.755,0.002 1.373,0.613 1.376,1.376 v 0 17.395 c -0.003,0.763 -0.615,1.373 -1.376,1.373 v 0 z m 17.711,-1.999 0.002,-16.146 h -17.089 v 16.146 z"
   id="path206" />
	<path
   fill="#f4f4f4"
   d="m 301.186,257.503 c -1.385,-0.002 -2.504,-1.121 -2.506,-2.506 v 0 l 0.002,-9.295 c 0,-1.385 1.122,-2.506 2.504,-2.506 v 0 h 9.797 c 1.385,0 2.506,1.121 2.506,2.506 v 0 9.295 c 0,1.383 -1.121,2.506 -2.506,2.506 v 0 z m -0.505,-11.801 -0.002,9.295 c 0.002,0.278 0.229,0.506 0.507,0.506 v 0 h 9.797 c 0.278,0 0.507,-0.228 0.507,-0.506 v 0 -9.295 c 0,-0.282 -0.227,-0.507 -0.507,-0.507 v 0 h -9.797 c -0.279,0 -0.505,0.227 -0.505,0.507 z"
   id="path208" />
</g>
<g
   id="g216"
   transform="translate(-76)">
	<path
   fill="#f4f4f4"
   d="m 316.866,261.772 c -0.763,0 -1.375,-0.613 -1.379,-1.376 v 0 l 0.002,-17.393 c 0,-0.765 0.621,-1.376 1.377,-1.378 v 0 l 18.335,0.002 c 0.754,0 1.375,0.611 1.377,1.376 v 0 17.393 h -0.002 c -0.002,0.763 -0.615,1.376 -1.375,1.376 v 0 z m 17.711,-1.999 v -16.146 h -17.088 l -0.002,16.145 z"
   id="path212" />
	<path
   fill="#f4f4f4"
   d="m 321.137,257.502 c -1.385,0 -2.508,-1.119 -2.51,-2.506 v 0 l 0.002,-9.293 c 0,-1.387 1.123,-2.508 2.508,-2.508 v 0 h 9.795 c 1.383,0 2.507,1.121 2.507,2.508 v 0 9.293 c -0.003,1.387 -1.124,2.506 -2.507,2.508 v 0 z m -0.509,-11.799 v 9.293 c 0,0.278 0.229,0.506 0.509,0.506 v 0 l 9.795,0.003 c 0.278,-0.003 0.507,-0.23 0.507,-0.509 v 0 -9.293 c 0,-0.28 -0.227,-0.506 -0.507,-0.506 v 0 l -9.795,-0.003 c -0.283,0.003 -0.509,0.229 -0.509,0.509 z"
   id="path214" />
</g>
<g
   id="g222"
   transform="translate(-76)">
	<path
   fill="#f4f4f4"
   d="m 336.815,261.772 c -0.759,0 -1.376,-0.613 -1.378,-1.376 v 0 -17.393 c 0.002,-0.765 0.625,-1.376 1.378,-1.378 v 0 l 18.336,0.002 c 0.754,0 1.373,0.615 1.375,1.376 v 0 17.393 c 0,0.759 -0.614,1.376 -1.375,1.376 v 0 z m 17.711,-1.999 v -16.146 h -17.088 l -0.002,16.145 z"
   id="path218" />
	<path
   fill="#f4f4f4"
   d="m 341.086,257.502 c -1.385,0 -2.507,-1.121 -2.509,-2.506 v 0 l 0.002,-9.293 c 0.002,-1.385 1.122,-2.506 2.507,-2.508 v 0 h 9.795 c 1.385,0 2.506,1.121 2.508,2.508 v 0 9.293 h -0.002 c 0,1.385 -1.121,2.506 -2.506,2.508 v 0 z m -0.507,-11.799 -0.002,9.293 c 0.002,0.28 0.227,0.506 0.509,0.506 v 0 l 9.795,0.003 c 0.277,-0.003 0.506,-0.23 0.509,-0.509 v 0 h -0.003 l 0.003,-9.293 c -0.003,-0.282 -0.229,-0.506 -0.509,-0.506 v 0 l -9.795,-0.003 c -0.282,0.003 -0.507,0.227 -0.507,0.509 z"
   id="path220" />
</g>
<g
   id="g228"
   transform="translate(-76)">
	<path
   fill="#f4f4f4"
   d="m 356.764,261.772 c -0.763,0 -1.376,-0.617 -1.376,-1.376 v 0 -17.393 c 0,-0.761 0.619,-1.376 1.376,-1.378 v 0 l 18.338,0.002 c 0.757,0 1.371,0.617 1.374,1.376 v 0 17.393 c -0.003,0.759 -0.611,1.373 -1.374,1.376 v 0 z m 17.711,-1.999 0.002,-16.146 h -17.088 l -0.002,16.145 z"
   id="path224" />
	<path
   fill="#f4f4f4"
   d="m 361.034,257.502 c -1.385,0 -2.506,-1.119 -2.508,-2.506 v 0 l 0.002,-9.293 c 0,-1.387 1.123,-2.508 2.506,-2.508 v 0 h 9.797 c 1.383,0 2.507,1.121 2.507,2.508 v 0 9.293 c 0,1.385 -1.122,2.506 -2.507,2.508 v 0 z m -0.507,-11.799 v 9.293 c 0,0.278 0.229,0.506 0.507,0.506 v 0 l 9.797,0.003 c 0.278,-0.003 0.505,-0.23 0.507,-0.509 v 0 h -0.002 l 0.002,-9.293 c -0.002,-0.282 -0.229,-0.506 -0.507,-0.506 v 0 l -9.797,-0.003 c -0.278,0.003 -0.507,0.229 -0.507,0.509 z"
   id="path226" />
</g>
<g
   id="g234"
   transform="translate(-76)">
	<path
   fill="#f4f4f4"
   d="m 376.619,261.772 c -0.764,0 -1.375,-0.616 -1.377,-1.375 v 0 l 0.002,-17.396 c 0,-0.759 0.62,-1.372 1.375,-1.375 v 0 h 18.337 c 0.753,0.003 1.375,0.61 1.377,1.375 v 0 17.396 h -0.002 c -0.004,0.765 -0.615,1.372 -1.375,1.375 v 0 z m 17.713,-1.999 v -16.147 h -17.089 v 16.147 z"
   id="path230" />
	<path
   fill="#f4f4f4"
   d="m 380.891,257.502 c -1.387,0 -2.508,-1.121 -2.508,-2.506 v 0 -9.293 c 0.002,-1.385 1.123,-2.505 2.508,-2.508 v 0 h 9.797 c 1.383,0 2.503,1.121 2.505,2.508 v 0 9.293 h -0.002 c 0,1.385 -1.12,2.506 -2.503,2.508 v 0 z m -0.507,-11.799 -0.002,9.293 c 0.002,0.279 0.227,0.506 0.509,0.506 v 0 l 9.797,0.002 c 0.276,-0.002 0.503,-0.229 0.505,-0.508 v 0 h -0.002 l 0.002,-9.293 c -0.002,-0.282 -0.229,-0.507 -0.505,-0.507 v 0 l -9.797,-0.002 c -0.283,0.002 -0.507,0.227 -0.507,0.509 z"
   id="path232" />
</g>
<g
   id="g240"
   transform="translate(-76)">
	<path
   fill="#f4f4f4"
   d="m 396.568,261.771 c -0.763,0 -1.376,-0.615 -1.376,-1.374 v 0 -17.396 c 0.002,-0.759 0.622,-1.374 1.376,-1.376 v 0 l 18.336,0.002 c 0.75,0 1.376,0.611 1.378,1.374 v 0 17.396 h -0.002 c 0,0.763 -0.617,1.374 -1.376,1.376 v 0 z m 17.712,-1.998 0.002,-16.146 -17.09,-0.002 v 16.146 z"
   id="path236" />
	<path
   fill="#f4f4f4"
   d="m 400.84,257.502 c -1.387,0 -2.508,-1.121 -2.508,-2.505 v 0 -9.295 c 0,-1.386 1.124,-2.508 2.508,-2.508 v 0 h 9.795 c 1.384,0 2.505,1.124 2.507,2.508 v 0 9.295 h -0.002 c 0,1.384 -1.119,2.505 -2.505,2.507 v 0 z m -0.507,-11.8 -0.002,9.295 c 0.002,0.277 0.229,0.506 0.509,0.506 v 0 h 9.795 c 0.279,0 0.506,-0.227 0.506,-0.506 v 0 -9.295 c 0,-0.281 -0.227,-0.506 -0.506,-0.506 v 0 h -9.795 c -0.281,0 -0.507,0.225 -0.507,0.506 z"
   id="path238" />
</g>
<g
   id="g246"
   transform="translate(-76)">
	<path
   fill="#f4f4f4"
   d="m 416.519,261.772 c -0.762,-0.002 -1.376,-0.612 -1.378,-1.375 v 0 -17.395 c 0.002,-0.763 0.623,-1.373 1.378,-1.376 v 0 h 18.335 c 0.755,0.003 1.375,0.613 1.377,1.376 v 0 17.395 h -0.002 c -0.002,0.761 -0.612,1.373 -1.375,1.375 v 0 z m 17.71,-2 0.002,-16.146 h -17.09 v 16.146 z"
   id="path242" />
	<path
   fill="#f4f4f4"
   d="m 420.788,257.502 c -1.386,0 -2.508,-1.12 -2.508,-2.505 v 0 -9.294 c 0,-1.386 1.124,-2.508 2.508,-2.508 v 0 h 9.795 c 1.385,0 2.507,1.122 2.51,2.508 v 0 9.294 h -0.003 c 0,1.385 -1.122,2.505 -2.507,2.507 v 0 z m -0.508,-11.799 v 9.294 c 0,0.277 0.228,0.505 0.508,0.505 v 0 l 9.795,0.003 c 0.28,-0.003 0.508,-0.23 0.508,-0.508 v 0 -9.294 c 0,-0.282 -0.226,-0.508 -0.508,-0.508 v 0 h -9.795 c -0.282,0 -0.508,0.226 -0.508,0.508 z"
   id="path244" />
</g>
<g
   id="g252"
   transform="translate(-76)">
	<path
   fill="#f4f4f4"
   d="m 436.467,261.772 c -0.761,-0.002 -1.374,-0.613 -1.378,-1.376 v 0 l 0.002,-17.393 c 0,-0.765 0.622,-1.375 1.376,-1.377 v 0 h 18.336 c 0.754,0.002 1.376,0.612 1.378,1.377 v 0 17.393 h -0.002 c -0.002,0.763 -0.613,1.374 -1.376,1.376 v 0 z m 17.713,-1.998 v -16.148 h -17.09 v 16.148 z"
   id="path248" />
	<path
   fill="#f4f4f4"
   d="m 440.738,257.503 c -1.387,0 -2.507,-1.122 -2.509,-2.507 v 0 l 0.002,-9.293 c 0.002,-1.384 1.12,-2.505 2.507,-2.509 v 0 l 9.794,0.002 c 1.384,0 2.507,1.12 2.509,2.507 v 0 9.293 h -0.002 c 0,1.387 -1.123,2.507 -2.507,2.507 v 0 z m -0.507,-11.8 -0.002,9.293 c 0.002,0.278 0.227,0.507 0.509,0.507 v 0 h 9.794 c 0.28,0 0.507,-0.229 0.509,-0.507 v 0 h -0.002 l 0.002,-9.293 c -0.002,-0.28 -0.229,-0.507 -0.509,-0.507 v 0 l -9.794,-0.002 c -0.282,0.002 -0.507,0.227 -0.507,0.509 z"
   id="path250" />
</g>
<g
   id="g258"
   transform="translate(-76)">
	<path
   fill="#f4f4f4"
   d="m 456.417,261.772 c -0.763,-0.002 -1.376,-0.613 -1.378,-1.375 v 0 -17.395 c 0.002,-0.763 0.623,-1.376 1.378,-1.376 v 0 h 18.335 c 0.756,0 1.375,0.616 1.377,1.376 v 0 17.395 h -0.002 c 0,0.758 -0.613,1.373 -1.375,1.375 v 0 z m 17.711,-1.999 V 243.627 H 457.04 l -0.002,16.146 z"
   id="path254" />
	<path
   fill="#f4f4f4"
   d="m 460.688,257.502 c -1.386,0 -2.507,-1.121 -2.509,-2.504 v 0 l 0.002,-9.295 c 0.002,-1.386 1.121,-2.504 2.507,-2.509 v 0 l 9.796,0.002 c 1.384,0 2.505,1.121 2.505,2.507 v 0 9.295 c 0,1.383 -1.121,2.504 -2.505,2.506 v 0 z m -0.508,-11.799 v 9.295 c 0,0.278 0.227,0.504 0.508,0.504 v 0 l 9.796,0.002 c 0.277,-0.002 0.504,-0.228 0.506,-0.506 v 0 h -0.002 l 0.002,-9.295 c -0.002,-0.283 -0.227,-0.508 -0.506,-0.508 v 0 h -9.796 c -0.284,0 -0.508,0.225 -0.508,0.508 z"
   id="path256" />
</g>
<g
   id="g264"
   transform="translate(-76)">
	<path
   fill="#f4f4f4"
   d="m 142.203,281.816 c -0.76,-0.002 -1.376,-0.612 -1.379,-1.377 v 0 -17.394 c 0.002,-0.765 0.619,-1.375 1.379,-1.377 v 0 h 18.335 c 0.76,0.002 1.375,0.617 1.376,1.377 v 0 17.394 c -0.002,0.763 -0.616,1.375 -1.376,1.377 v 0 z m 17.71,-2 v -16.147 h -17.089 v 16.147 z"
   id="path260" />
	<path
   fill="#f4f4f4"
   d="m 146.471,277.545 c -1.384,-0.002 -2.504,-1.121 -2.506,-2.506 v 0 -9.292 c 0,-1.386 1.12,-2.51 2.506,-2.51 v 0 h 9.795 c 1.386,0 2.506,1.124 2.508,2.51 v 0 9.292 c 0,1.385 -1.124,2.506 -2.508,2.509 v 0 z m -0.506,-11.798 v 9.292 c 0,0.281 0.225,0.506 0.506,0.506 v 0 l 9.795,0.002 c 0.281,-0.002 0.508,-0.227 0.508,-0.508 v 0 -9.292 c 0,-0.283 -0.229,-0.51 -0.508,-0.51 v 0 h -9.795 c -0.28,0 -0.506,0.227 -0.506,0.51 z"
   id="path262" />
</g>
<g
   id="g270"
   transform="translate(-76)">
	<path
   fill="#f4f4f4"
   d="m 162.15,281.815 c -0.76,0 -1.375,-0.617 -1.376,-1.375 v 0 -17.394 c 0.002,-0.76 0.616,-1.377 1.376,-1.377 v 0 h 18.337 c 0.762,0.003 1.374,0.614 1.374,1.377 v 0 17.394 c 0,0.76 -0.612,1.372 -1.374,1.375 v 0 z m 17.713,-1.998 v -16.149 h -17.089 v 16.149 z"
   id="path266" />
	<path
   fill="#f4f4f4"
   d="m 166.421,277.546 c -1.384,0 -2.508,-1.121 -2.508,-2.506 v 0 -9.294 c 0.002,-1.386 1.122,-2.508 2.508,-2.508 v 0 h 9.797 c 1.384,0 2.504,1.122 2.504,2.508 v 0 9.294 c 0,1.385 -1.122,2.506 -2.504,2.506 v 0 z m -0.508,-11.8 v 9.294 c 0,0.279 0.227,0.506 0.508,0.506 v 0 h 9.797 c 0.277,0 0.504,-0.227 0.506,-0.506 v 0 -9.294 c -0.002,-0.28 -0.231,-0.508 -0.506,-0.51 v 0 h -9.797 c -0.279,0.002 -0.508,0.23 -0.508,0.51 z"
   id="path268" />
</g>
<g
   id="g276"
   transform="translate(-76)">
	<path
   fill="#f4f4f4"
   d="m 182.1,281.815 c -0.765,-0.003 -1.375,-0.615 -1.377,-1.375 v 0 -17.394 c 0.002,-0.763 0.612,-1.374 1.377,-1.377 v 0 h 18.335 c 0.762,0 1.376,0.617 1.378,1.377 v 0 17.394 h -0.002 c 0,0.758 -0.614,1.375 -1.376,1.375 v 0 z m 17.712,-1.998 v -16.149 h -17.087 l -0.002,16.149 z"
   id="path272" />
	<path
   fill="#f4f4f4"
   d="m 186.371,277.545 c -1.384,0 -2.508,-1.121 -2.508,-2.506 v 0 -9.292 c 0,-1.386 1.122,-2.508 2.508,-2.51 v 0 h 9.796 c 1.386,0 2.506,1.124 2.506,2.51 v 0 9.292 c -0.002,1.385 -1.122,2.504 -2.506,2.509 v 0 z m -0.508,-11.798 v 9.292 c 0,0.281 0.227,0.506 0.508,0.506 v 0 l 9.796,0.002 c 0.281,-0.002 0.506,-0.227 0.506,-0.508 v 0 -9.292 c 0,-0.283 -0.227,-0.51 -0.506,-0.51 v 0 h -9.796 c -0.279,0 -0.508,0.227 -0.508,0.51 z"
   id="path274" />
</g>
<g
   id="g282"
   transform="translate(-76)">
	<path
   fill="#f4f4f4"
   d="m 202.05,281.815 c -0.762,0 -1.376,-0.617 -1.378,-1.375 v 0 -17.394 c 0.002,-0.76 0.616,-1.377 1.378,-1.377 v 0 h 18.335 c 0.762,0.003 1.375,0.61 1.377,1.377 v 0 17.394 c -0.002,0.765 -0.615,1.372 -1.377,1.375 v 0 z m 17.713,-1.998 v -16.149 h -17.089 l -0.002,16.149 z"
   id="path278" />
	<path
   fill="#f4f4f4"
   d="m 206.32,277.545 c -1.384,0 -2.508,-1.121 -2.508,-2.506 v 0 -9.292 c 0.002,-1.386 1.122,-2.508 2.508,-2.51 v 0 h 9.795 c 1.386,0 2.506,1.124 2.506,2.51 v 0 9.292 c -0.002,1.385 -1.122,2.504 -2.506,2.509 v 0 z m -0.508,-11.798 v 9.292 c 0,0.281 0.227,0.506 0.508,0.506 v 0 l 9.795,0.002 c 0.281,-0.002 0.506,-0.227 0.506,-0.508 v 0 -9.292 c 0,-0.283 -0.227,-0.51 -0.506,-0.51 v 0 h -9.795 c -0.279,0 -0.508,0.227 -0.508,0.51 z"
   id="path280" />
</g>
<g
   id="g288"
   transform="translate(-76)">
	<path
   fill="#f4f4f4"
   d="m 222,281.815 c -0.762,0 -1.376,-0.615 -1.379,-1.375 v 0 l 0.002,-17.394 c 0,-0.763 0.614,-1.377 1.376,-1.377 v 0 h 18.335 c 0.762,0.003 1.375,0.614 1.376,1.377 v 0 17.394 c -0.002,0.76 -0.614,1.372 -1.376,1.375 v 0 z m 17.709,-1.998 0.002,-16.149 h -17.089 v 16.149 z"
   id="path284" />
	<path
   fill="#f4f4f4"
   d="m 226.269,277.545 c -1.384,0 -2.508,-1.121 -2.508,-2.506 v 0 -9.292 c 0.002,-1.386 1.122,-2.508 2.508,-2.51 v 0 h 9.795 c 1.386,0.002 2.506,1.124 2.506,2.51 v 0 9.292 c 0,1.385 -1.122,2.506 -2.506,2.509 v 0 z m -0.508,-11.798 v 9.292 c 0,0.281 0.227,0.506 0.508,0.506 v 0 l 9.795,0.002 c 0.279,-0.002 0.506,-0.227 0.506,-0.508 v 0 -9.292 c 0,-0.283 -0.229,-0.51 -0.506,-0.51 v 0 h -9.795 c -0.279,0 -0.508,0.227 -0.508,0.51 z"
   id="path286" />
</g>
<g
   id="g294"
   transform="translate(-76)">
	<path
   fill="#f4f4f4"
   d="m 241.948,281.815 c -0.762,0 -1.376,-0.615 -1.378,-1.375 v 0 l 0.002,-17.394 c 0,-0.763 0.614,-1.377 1.376,-1.377 v 0 h 18.335 c 0.765,0.003 1.375,0.614 1.377,1.377 v 0 17.394 c -0.002,0.76 -0.612,1.372 -1.377,1.375 v 0 z m 17.711,-1.998 0.002,-16.149 h -17.089 v 16.149 z"
   id="path290" />
	<path
   fill="#f4f4f4"
   d="m 246.217,277.546 c -1.384,0 -2.506,-1.124 -2.506,-2.506 v 0 -9.294 c 0,-1.384 1.12,-2.508 2.506,-2.508 v 0 h 9.798 c 1.384,0 2.504,1.122 2.506,2.508 v 0 9.294 c -0.002,1.385 -1.124,2.506 -2.506,2.506 v 0 z m -0.506,-11.8 v 9.294 c 0,0.281 0.227,0.506 0.505,0.506 v 0 h 9.798 c 0.279,0 0.504,-0.227 0.506,-0.506 v 0 -9.294 c -0.002,-0.28 -0.229,-0.508 -0.506,-0.51 v 0 h -9.798 c -0.276,0.002 -0.505,0.23 -0.505,0.51 z"
   id="path292" />
</g>
<g
   id="g300"
   transform="translate(-76)">
	<path
   fill="#f4f4f4"
   d="m 261.897,281.815 c -0.765,0 -1.375,-0.621 -1.376,-1.375 v 0 -17.394 c 0.002,-0.756 0.612,-1.377 1.376,-1.377 v 0 h 18.335 c 0.762,0 1.376,0.614 1.378,1.377 v 0 17.394 h -0.002 c 0,0.76 -0.614,1.375 -1.376,1.375 v 0 z m 17.712,-1.998 v -16.149 h -17.087 l -0.002,16.149 z"
   id="path296" />
	<path
   fill="#f4f4f4"
   d="m 266.167,277.545 c -1.384,0 -2.506,-1.121 -2.506,-2.506 v 0 -9.292 c 0,-1.386 1.12,-2.508 2.506,-2.51 v 0 h 9.796 c 1.386,0 2.506,1.124 2.506,2.51 v 0 9.292 c -0.002,1.385 -1.122,2.504 -2.506,2.509 v 0 z m -0.506,-11.798 v 9.292 c 0,0.281 0.227,0.506 0.506,0.506 v 0 l 9.796,0.002 c 0.281,-0.002 0.505,-0.227 0.505,-0.508 v 0 -9.292 c 0,-0.283 -0.227,-0.51 -0.505,-0.51 v 0 h -9.796 c -0.277,0 -0.506,0.227 -0.506,0.51 z"
   id="path298" />
</g>
<g
   id="g306"
   transform="translate(-76)">
	<path
   fill="#f4f4f4"
   d="m 281.847,281.816 c -0.762,-0.002 -1.375,-0.612 -1.378,-1.377 v 0 -17.394 c 0.004,-0.765 0.616,-1.375 1.378,-1.377 v 0 h 18.334 c 0.759,0.002 1.375,0.612 1.377,1.377 v 0 17.394 c -0.002,0.765 -0.618,1.375 -1.377,1.377 v 0 z m 17.713,-2 v -16.147 h -17.09 v 16.147 z"
   id="path302" />
	<path
   fill="#f4f4f4"
   d="m 286.116,277.545 c -1.382,0 -2.506,-1.119 -2.506,-2.506 v 0 -9.292 c 0,-1.388 1.122,-2.508 2.506,-2.51 v 0 h 9.798 c 1.384,0.002 2.504,1.124 2.506,2.51 v 0 9.292 c 0,1.385 -1.124,2.506 -2.506,2.509 v 0 z m -0.508,-11.798 v 9.292 c 0.002,0.279 0.227,0.506 0.508,0.506 v 0 l 9.798,0.002 c 0.279,-0.002 0.505,-0.227 0.505,-0.508 v 0 -9.292 c 0,-0.283 -0.229,-0.51 -0.505,-0.51 v 0 h -9.798 c -0.279,0 -0.506,0.23 -0.508,0.51 z"
   id="path304" />
</g>
<g
   id="g312"
   transform="translate(-76)">
	<path
   fill="#f4f4f4"
   d="m 301.796,281.816 c -0.76,-0.002 -1.376,-0.619 -1.379,-1.377 v 0 l 0.003,-17.394 c 0,-0.758 0.616,-1.375 1.376,-1.377 v 0 h 18.335 c 0.763,0 1.375,0.619 1.377,1.377 v 0 17.394 h -0.002 c 0,0.758 -0.612,1.377 -1.375,1.377 v 0 z m 17.71,-2 0.002,-16.147 h -17.089 l -0.002,16.147 z"
   id="path308" />
	<path
   fill="#f4f4f4"
   d="m 306.065,277.545 c -1.385,0 -2.507,-1.121 -2.507,-2.506 v 0 -9.292 c 0,-1.386 1.12,-2.51 2.507,-2.51 v 0 h 9.797 c 1.385,0.002 2.505,1.124 2.505,2.51 v 0 9.292 c 0,1.385 -1.122,2.506 -2.505,2.509 v 0 z m -0.507,-11.798 v 9.292 c 0,0.281 0.227,0.506 0.508,0.506 v 0 l 9.797,0.002 c 0.279,-0.002 0.506,-0.227 0.506,-0.508 v 0 -9.292 c 0,-0.283 -0.229,-0.51 -0.506,-0.51 v 0 h -9.797 c -0.28,0 -0.508,0.227 -0.508,0.51 z"
   id="path310" />
</g>
<g
   id="g318"
   transform="translate(-76)">
	<path
   fill="#f4f4f4"
   d="m 321.745,281.816 c -0.761,-0.002 -1.377,-0.619 -1.379,-1.377 v 0 l 0.002,-17.394 c 0,-0.758 0.616,-1.375 1.377,-1.377 v 0 h 18.335 c 0.765,0.002 1.374,0.617 1.376,1.377 v 0 17.394 c -0.002,0.763 -0.611,1.375 -1.376,1.377 v 0 z m 17.71,-2 0.002,-16.147 h -17.089 v 16.147 z"
   id="path314" />
	<path
   fill="#f4f4f4"
   d="m 326.015,277.545 c -1.385,-0.002 -2.505,-1.121 -2.507,-2.506 v 0 -9.292 c 0,-1.386 1.12,-2.51 2.507,-2.51 v 0 h 9.795 c 1.387,0 2.509,1.124 2.509,2.51 v 0 9.292 c 0,1.385 -1.124,2.506 -2.509,2.509 v 0 z m -0.509,-11.798 v 9.292 c 0.003,0.281 0.228,0.506 0.509,0.506 v 0 l 9.795,0.002 c 0.281,-0.002 0.508,-0.227 0.508,-0.508 v 0 -9.292 c 0,-0.283 -0.229,-0.51 -0.508,-0.51 v 0 h -9.795 c -0.28,0 -0.506,0.227 -0.509,0.51 z"
   id="path316" />
</g>
<g
   id="g324"
   transform="translate(-76)">
	<path
   fill="#f4f4f4"
   d="m 341.693,281.815 c -0.761,0 -1.375,-0.615 -1.377,-1.375 v 0 -17.394 c 0.002,-0.763 0.616,-1.377 1.377,-1.377 v 0 h 18.337 c 0.76,0 1.374,0.614 1.376,1.377 v 0 17.394 c -0.002,0.76 -0.616,1.375 -1.376,1.375 v 0 z m 17.712,-1.998 0.002,-16.149 h -17.09 l -0.002,16.149 z"
   id="path320" />
	<path
   fill="#f4f4f4"
   d="m 345.963,277.545 c -1.384,0 -2.504,-1.119 -2.506,-2.506 v 0 -9.292 c 0.002,-1.386 1.12,-2.508 2.506,-2.51 v 0 h 9.796 c 1.387,0 2.508,1.122 2.508,2.51 v 0 9.292 c 0,1.387 -1.124,2.506 -2.508,2.509 v 0 z m -0.506,-11.798 v 9.292 c 0,0.279 0.229,0.506 0.506,0.506 v 0 l 9.796,0.002 c 0.281,-0.002 0.508,-0.229 0.51,-0.508 v 0 -9.292 c -0.002,-0.28 -0.23,-0.51 -0.51,-0.51 v 0 h -9.796 c -0.275,0 -0.506,0.227 -0.506,0.51 z"
   id="path322" />
</g>
<g
   id="g330"
   transform="translate(-76)">
	<path
   fill="#f4f4f4"
   d="m 361.548,281.815 c -0.764,0 -1.374,-0.619 -1.376,-1.375 v 0 l 0.002,-17.394 c 0,-0.758 0.61,-1.377 1.374,-1.377 v 0 h 18.337 c 0.759,0 1.375,0.61 1.377,1.377 v 0 17.394 c -0.002,0.765 -0.618,1.375 -1.377,1.375 v 0 z m 17.713,-1.998 0.002,-16.149 h -17.09 v 16.149 z"
   id="path326" />
	<path
   fill="#f4f4f4"
   d="m 365.82,277.545 c -1.384,0 -2.508,-1.119 -2.508,-2.506 v 0 -9.292 c 0,-1.388 1.122,-2.508 2.508,-2.51 v 0 h 9.796 c 1.385,0 2.504,1.124 2.504,2.51 v 0 9.292 c 0,1.385 -1.119,2.506 -2.504,2.509 v 0 z m -0.509,-11.798 v 9.292 c 0.002,0.279 0.228,0.506 0.51,0.506 v 0 l 9.796,0.002 c 0.279,-0.002 0.504,-0.227 0.506,-0.508 v 0 -9.292 c -0.002,-0.283 -0.229,-0.51 -0.506,-0.51 v 0 h -9.796 c -0.281,0 -0.508,0.23 -0.51,0.51 z"
   id="path328" />
</g>
<g
   id="g336"
   transform="translate(-76)">
	<path
   fill="#f4f4f4"
   d="m 381.498,281.816 c -0.762,0 -1.374,-0.619 -1.377,-1.377 v 0 -17.394 c 0.003,-0.758 0.615,-1.377 1.377,-1.377 v 0 h 18.335 c 0.76,0 1.377,0.614 1.379,1.377 v 0 17.394 h -0.002 c 0,0.763 -0.617,1.377 -1.377,1.377 v 0 z m 17.712,-2 v -16.147 h -17.087 l -0.002,16.147 z"
   id="path332" />
	<path
   fill="#f4f4f4"
   d="m 385.77,277.545 c -1.386,-0.002 -2.506,-1.121 -2.508,-2.506 v 0 -9.292 c 0,-1.386 1.12,-2.51 2.508,-2.51 v 0 h 9.796 c 1.387,0.002 2.506,1.124 2.506,2.51 v 0 9.292 c 0,1.385 -1.122,2.506 -2.506,2.509 v 0 z m -0.508,-11.798 v 9.292 c 0,0.281 0.225,0.506 0.508,0.506 v 0 l 9.796,0.002 c 0.279,-0.002 0.506,-0.227 0.506,-0.508 v 0 -9.292 c 0,-0.283 -0.229,-0.51 -0.506,-0.51 v 0 h -9.796 c -0.281,0 -0.508,0.227 -0.508,0.51 z"
   id="path334" />
</g>
<g
   id="g342"
   transform="translate(-76)">
	<path
   fill="#f4f4f4"
   d="m 401.448,281.816 c -0.758,0 -1.377,-0.611 -1.379,-1.377 v 0 -17.393 c 0.002,-0.768 0.621,-1.377 1.379,-1.377 v 0 h 18.338 c 0.763,0 1.372,0.618 1.374,1.377 v 0 17.393 h -0.002 c 0,0.758 -0.609,1.375 -1.372,1.377 v 0 z m 17.71,-1.998 0.002,-16.149 h -17.091 v 16.149 z"
   id="path338" />
	<path
   fill="#f4f4f4"
   d="m 405.718,277.546 c -1.385,-0.002 -2.505,-1.122 -2.507,-2.507 v 0 -9.292 c 0,-1.385 1.119,-2.509 2.507,-2.511 v 0 l 9.794,0.002 c 1.387,0 2.509,1.122 2.509,2.509 v 0 9.292 c 0,1.387 -1.124,2.507 -2.509,2.507 v 0 z m -0.507,-11.799 v 9.292 c 0,0.281 0.225,0.507 0.507,0.507 v 0 h 9.794 c 0.281,0 0.509,-0.228 0.509,-0.507 v 0 -9.292 c 0,-0.281 -0.229,-0.509 -0.509,-0.509 v 0 l -9.794,-0.002 c -0.28,0.002 -0.507,0.228 -0.507,0.511 z"
   id="path340" />
</g>
<g
   id="g348"
   transform="translate(-76)">
	<path
   fill="#f4f4f4"
   d="m 421.396,281.817 c -0.762,-0.003 -1.375,-0.617 -1.378,-1.378 v 0 l 0.003,-17.394 c 0,-0.761 0.613,-1.375 1.375,-1.377 v 0 h 37.173 c 0.761,0.002 1.375,0.611 1.38,1.377 v 0 17.394 h -0.003 c -0.002,0.766 -0.616,1.375 -1.377,1.378 v 0 z m 36.551,-2 V 263.67 l -35.927,-0.002 -0.002,16.147 z"
   id="path344" />
	<path
   fill="#f4f4f4"
   d="m 425.667,277.547 c -1.383,0 -2.506,-1.121 -2.506,-2.507 v 0 -9.293 c 0,-1.387 1.121,-2.508 2.506,-2.51 v 0 H 454.3 c 1.386,0 2.507,1.123 2.507,2.51 v 0 9.293 c 0,1.383 -1.124,2.507 -2.507,2.507 v 0 z m -0.507,-11.8 v 9.293 c 0,0.279 0.228,0.505 0.507,0.505 v 0 H 454.3 c 0.281,0 0.508,-0.226 0.508,-0.505 v 0 -9.293 c 0,-0.282 -0.229,-0.509 -0.508,-0.511 v 0 h -28.633 c -0.276,0.002 -0.507,0.231 -0.507,0.511 z"
   id="path346" />
</g>
<g
   id="g354"
   transform="translate(-76)">
	<path
   fill="#f4f4f4"
   d="m 142.202,301.858 c -0.758,0 -1.377,-0.611 -1.377,-1.376 v 0 -17.394 c 0.002,-0.767 0.622,-1.376 1.377,-1.376 v 0 h 18.335 c 0.758,0.002 1.376,0.614 1.376,1.376 v 0 17.394 c 0,0.762 -0.618,1.376 -1.376,1.378 v 0 z m 17.711,-1.998 v -16.147 h -17.089 v 16.146 z"
   id="path350" />
	<path
   fill="#f4f4f4"
   d="m 146.472,297.589 c -1.387,0 -2.508,-1.122 -2.508,-2.506 v 0 -9.293 c 0,-1.386 1.121,-2.508 2.508,-2.508 v 0 h 9.794 c 1.385,0 2.506,1.122 2.508,2.508 v 0 9.293 c 0,1.384 -1.123,2.506 -2.508,2.508 v 0 z m -0.509,-11.799 v 9.293 c 0.002,0.28 0.228,0.507 0.509,0.507 v 0 h 9.794 c 0.28,0 0.507,-0.227 0.507,-0.507 v 0 -9.293 c 0,-0.28 -0.227,-0.507 -0.507,-0.507 v 0 l -9.794,-0.003 c -0.281,0.003 -0.507,0.23 -0.509,0.51 z"
   id="path352" />
</g>
<g
   id="g360"
   transform="translate(-76)">
	<path
   fill="#f4f4f4"
   d="m 211.335,321.902 c -0.762,0 -1.375,-0.617 -1.377,-1.375 v 0 -17.394 c 0.002,-0.76 0.615,-1.377 1.377,-1.379 v 0 l 159.243,0.002 c 0.762,0 1.375,0.617 1.377,1.377 v 0 17.394 c -0.002,0.758 -0.615,1.375 -1.377,1.377 v 0 z m 158.62,-1.999 v -16.146 l -157.996,-0.002 v 16.148 z"
   id="path356" />
	<path
   fill="#f4f4f4"
   d="m 215.605,317.633 c -1.385,0 -2.506,-1.121 -2.506,-2.508 v 0 -9.292 c 0,-1.385 1.121,-2.506 2.506,-2.508 v 0 l 150.703,0.002 c 1.384,0 2.505,1.121 2.505,2.506 v 0 9.292 c 0,1.387 -1.121,2.508 -2.505,2.508 v 0 z m -0.506,-11.8 v 9.292 c 0,0.28 0.228,0.509 0.506,0.509 v 0 h 150.703 c 0.277,0 0.506,-0.229 0.508,-0.509 v 0 -9.292 c -0.002,-0.278 -0.23,-0.507 -0.508,-0.507 v 0 H 215.605 c -0.278,0 -0.506,0.229 -0.506,0.507 z"
   id="path358" />
</g>
<g
   id="g366"
   transform="translate(-76)">
	<path
   fill="#f4f4f4"
   d="m 162.152,301.859 c -0.76,-0.002 -1.377,-0.618 -1.377,-1.376 v 0 -17.393 c 0,-0.76 0.62,-1.376 1.377,-1.376 v 0 h 28.128 c 0.756,0 1.378,0.611 1.378,1.376 v 0 17.394 c 0,0.762 -0.62,1.374 -1.378,1.376 v 0 h -28.128 z m 27.506,-2 v -16.147 h -26.884 v 16.147 z"
   id="path362" />
	<path
   fill="#f4f4f4"
   d="m 166.419,297.589 c -1.383,0 -2.506,-1.12 -2.506,-2.506 v 0 -9.293 c 0,-1.388 1.123,-2.508 2.506,-2.508 v 0 h 19.593 c 1.385,0 2.506,1.122 2.506,2.508 v 0 9.293 c 0,1.384 -1.121,2.506 -2.506,2.508 v 0 z m -0.506,-11.799 v 9.293 c 0,0.28 0.228,0.507 0.507,0.507 v 0 h 19.593 c 0.279,0 0.507,-0.227 0.507,-0.507 v 0 -9.293 c 0,-0.28 -0.228,-0.507 -0.507,-0.507 v 0 L 166.42,285.28 c -0.28,0.003 -0.507,0.23 -0.507,0.51 z"
   id="path364" />
</g>
<g
   id="g372"
   transform="translate(-76)">
	<path
   fill="#f4f4f4"
   d="m 191.896,301.859 c -0.758,-0.002 -1.375,-0.618 -1.377,-1.376 v 0 -17.393 c 0.002,-0.76 0.62,-1.376 1.377,-1.376 v 0 h 18.335 c 0.76,0.002 1.374,0.609 1.376,1.376 v 0 17.394 c -0.002,0.762 -0.616,1.374 -1.376,1.376 v 0 h -18.335 z m 17.711,-2 v -16.147 h -17.089 v 16.147 z"
   id="path368" />
	<path
   fill="#f4f4f4"
   d="m 196.165,297.589 c -1.383,0 -2.506,-1.12 -2.508,-2.506 v 0 -9.293 c 0.002,-1.388 1.125,-2.508 2.508,-2.508 v 0 h 9.796 c 1.385,0 2.506,1.122 2.506,2.508 v 0 9.293 c 0,1.384 -1.121,2.506 -2.506,2.508 v 0 z m -0.507,-11.799 v 9.293 c 0,0.28 0.228,0.507 0.507,0.507 v 0 h 9.796 c 0.28,0 0.507,-0.227 0.507,-0.507 v 0 -9.293 c 0,-0.28 -0.227,-0.507 -0.507,-0.507 v 0 l -9.796,-0.003 c -0.279,0.003 -0.507,0.23 -0.507,0.51 z"
   id="path370" />
</g>
<g
   id="g378"
   transform="translate(-76)">
	<path
   fill="#f4f4f4"
   d="m 211.846,301.858 c -0.76,0 -1.377,-0.614 -1.377,-1.376 v 0 -17.394 c 0,-0.762 0.62,-1.374 1.377,-1.376 v 0 h 18.333 c 0.758,0.002 1.375,0.614 1.378,1.376 v 0 17.394 c -0.002,0.762 -0.62,1.376 -1.378,1.378 v 0 z m 17.712,-1.998 v -16.147 h -17.089 v 16.146 z"
   id="path374" />
	<path
   fill="#f4f4f4"
   d="m 216.115,297.589 c -1.386,0 -2.506,-1.122 -2.506,-2.506 v 0 -9.293 c 0,-1.386 1.121,-2.508 2.506,-2.508 v 0 h 9.796 c 1.386,0 2.506,1.122 2.506,2.508 v 0 9.293 c 0,1.384 -1.12,2.506 -2.506,2.508 v 0 z m -0.508,-11.799 v 9.293 c 0.002,0.28 0.228,0.507 0.507,0.507 v 0 h 9.796 c 0.28,0 0.505,-0.227 0.507,-0.507 v 0 -9.293 c -0.002,-0.28 -0.228,-0.507 -0.507,-0.507 v 0 l -9.796,-0.003 c -0.279,0.003 -0.505,0.23 -0.507,0.51 z"
   id="path376" />
</g>
<g
   id="g384"
   transform="translate(-76)">
	<path
   fill="#f4f4f4"
   d="m 231.794,301.859 c -0.76,-0.002 -1.376,-0.62 -1.378,-1.376 v 0 l 0.002,-17.394 c 0,-0.76 0.616,-1.376 1.376,-1.376 v 0 h 18.335 c 0.758,0 1.375,0.611 1.375,1.376 v 0 17.394 c 0,0.76 -0.618,1.374 -1.375,1.376 v 0 z m 17.712,-2 v -16.147 h -17.087 l -0.002,16.147 z"
   id="path380" />
	<path
   fill="#f4f4f4"
   d="m 236.064,297.589 c -1.386,0 -2.506,-1.122 -2.506,-2.506 v 0 -9.293 c 0,-1.386 1.12,-2.508 2.506,-2.508 v 0 h 9.796 c 1.386,0 2.506,1.122 2.506,2.508 v 0 9.293 c 0,1.384 -1.121,2.506 -2.506,2.508 v 0 z m -0.507,-11.799 v 9.293 c 0.002,0.28 0.228,0.507 0.507,0.507 v 0 h 9.796 c 0.278,0 0.505,-0.227 0.505,-0.507 v 0 -9.293 c 0,-0.28 -0.228,-0.507 -0.505,-0.507 v 0 l -9.796,-0.003 c -0.28,0.003 -0.505,0.23 -0.507,0.51 z"
   id="path382" />
</g>
<g
   id="g390"
   transform="translate(-76)">
	<path
   fill="#f4f4f4"
   d="m 251.744,301.859 c -0.76,0 -1.376,-0.616 -1.378,-1.376 v 0 l 0.002,-17.394 c 0,-0.765 0.616,-1.376 1.376,-1.376 v 0 h 18.335 c 0.755,0 1.375,0.607 1.377,1.376 v 0 17.394 c -0.002,0.765 -0.622,1.374 -1.377,1.376 v 0 z m 17.713,-2 v -16.147 h -17.089 l -0.002,16.147 z"
   id="path386" />
	<path
   fill="#f4f4f4"
   d="m 256.015,297.589 c -1.388,0 -2.508,-1.122 -2.508,-2.506 v 0 -9.293 c 0,-1.386 1.12,-2.508 2.508,-2.508 v 0 h 9.794 c 1.385,0 2.506,1.122 2.506,2.508 v 0 9.293 c 0,1.384 -1.121,2.506 -2.506,2.508 v 0 z m -0.509,-11.799 v 9.293 c 0,0.28 0.227,0.507 0.509,0.507 v 0 h 9.794 c 0.279,0 0.505,-0.227 0.507,-0.507 v 0 -9.293 c -0.002,-0.28 -0.228,-0.507 -0.507,-0.507 v 0 l -9.794,-0.003 c -0.282,0.003 -0.509,0.23 -0.509,0.51 z"
   id="path388" />
</g>
<g
   id="g396"
   transform="translate(-76)">
	<path
   fill="#f4f4f4"
   d="m 271.694,301.858 c -0.76,0 -1.376,-0.618 -1.378,-1.376 v 0 -17.394 c 0.002,-0.76 0.62,-1.374 1.378,-1.376 v 0 h 18.335 c 0.755,0.002 1.374,0.616 1.375,1.376 v 0 17.394 c -0.002,0.758 -0.618,1.376 -1.375,1.378 v 0 z m 17.711,-1.998 v -16.147 h -17.089 v 16.146 z"
   id="path392" />
	<path
   fill="#f4f4f4"
   d="m 275.962,297.589 c -1.385,0 -2.506,-1.122 -2.506,-2.506 v 0 -9.293 c 0,-1.386 1.121,-2.508 2.506,-2.508 v 0 h 9.796 c 1.385,0 2.506,1.122 2.506,2.508 v 0 9.293 c 0,1.384 -1.121,2.506 -2.506,2.508 v 0 z m -0.506,-11.799 v 9.293 c 0,0.28 0.227,0.507 0.507,0.507 v 0 h 9.796 c 0.279,0 0.505,-0.227 0.507,-0.507 v 0 -9.293 c -0.002,-0.28 -0.228,-0.507 -0.507,-0.507 v 0 l -9.796,-0.003 c -0.28,0.003 -0.507,0.23 -0.507,0.51 z"
   id="path394" />
</g>
<g
   id="g402"
   transform="translate(-76)">
	<path
   fill="#f4f4f4"
   d="m 291.642,301.859 c -0.76,-0.002 -1.374,-0.62 -1.375,-1.376 v 0 -17.393 c 0.002,-0.76 0.618,-1.376 1.375,-1.376 v 0 h 18.338 c 0.757,0 1.373,0.616 1.375,1.376 v 0 17.394 h -0.002 c 0,0.756 -0.616,1.374 -1.373,1.376 v 0 h -18.338 z m 17.711,-2 0.002,-16.147 h -17.088 v 16.147 z"
   id="path398" />
	<path
   fill="#f4f4f4"
   d="m 295.914,297.589 c -1.386,0 -2.508,-1.12 -2.508,-2.506 v 0 -9.293 c 0,-1.388 1.123,-2.508 2.508,-2.508 v 0 h 9.794 c 1.383,0 2.506,1.12 2.506,2.508 v 0 9.293 c 0,1.386 -1.123,2.506 -2.506,2.508 v 0 z m -0.509,-11.799 v 9.293 c 0,0.28 0.228,0.507 0.509,0.507 v 0 h 9.794 c 0.279,0 0.507,-0.227 0.507,-0.507 v 0 -9.293 c 0,-0.28 -0.228,-0.507 -0.507,-0.507 v 0 l -9.794,-0.003 c -0.282,0.003 -0.509,0.23 -0.509,0.51 z"
   id="path400" />
</g>
<g
   id="g408"
   transform="translate(-76)">
	<path
   fill="#f4f4f4"
   d="m 311.592,301.858 c -0.758,0 -1.378,-0.614 -1.38,-1.376 v 0 l 0.002,-17.394 c 0,-0.762 0.62,-1.374 1.378,-1.376 v 0 h 18.335 c 0.756,0 1.374,0.609 1.378,1.376 v 0 17.394 h -0.002 c 0,0.765 -0.62,1.376 -1.376,1.378 v 0 z m 17.711,-1.998 0.002,-16.147 h -17.091 l -0.002,16.146 z"
   id="path404" />
	<path
   fill="#f4f4f4"
   d="m 315.86,297.589 c -1.383,0 -2.506,-1.12 -2.506,-2.506 v 0 -9.293 c 0,-1.388 1.123,-2.508 2.506,-2.508 v 0 h 9.797 c 1.386,0 2.506,1.122 2.506,2.508 v 0 9.293 c 0,1.384 -1.12,2.506 -2.506,2.508 v 0 z m -0.506,-11.799 v 9.293 c 0,0.28 0.228,0.507 0.507,0.507 v 0 h 9.797 c 0.279,0 0.507,-0.227 0.507,-0.507 v 0 -9.293 c 0,-0.28 -0.228,-0.507 -0.507,-0.507 v 0 l -9.797,-0.003 c -0.28,0.003 -0.507,0.23 -0.507,0.51 z"
   id="path406" />
</g>
<g
   id="g414"
   transform="translate(-76)">
	<path
   fill="#f4f4f4"
   d="m 331.541,301.858 c -0.76,0 -1.376,-0.614 -1.378,-1.376 v 0 -17.394 c 0,-0.762 0.62,-1.374 1.378,-1.376 v 0 h 18.335 c 0.756,0.002 1.374,0.616 1.376,1.376 v 0 17.394 c -0.002,0.758 -0.618,1.376 -1.376,1.378 v 0 z m 17.711,-1.998 v -16.147 h -17.089 v 16.146 z"
   id="path410" />
	<path
   fill="#f4f4f4"
   d="m 335.811,297.589 c -1.386,0 -2.506,-1.12 -2.506,-2.506 v 0 -9.293 c 0,-1.388 1.12,-2.506 2.506,-2.508 v 0 h 9.796 c 1.384,0 2.506,1.122 2.506,2.508 v 0 9.293 c 0,1.384 -1.122,2.506 -2.506,2.508 v 0 z m -0.508,-11.799 v 9.293 c 0,0.28 0.229,0.507 0.508,0.507 v 0 h 9.796 c 0.279,0 0.505,-0.227 0.507,-0.507 v 0 -9.293 c -0.002,-0.28 -0.228,-0.507 -0.507,-0.507 v 0 l -9.796,-0.003 c -0.279,0.003 -0.508,0.23 -0.508,0.51 z"
   id="path412" />
</g>
<g
   id="g420"
   transform="translate(-76)">
	<path
   fill="#f4f4f4"
   d="m 351.489,301.859 c -0.761,-0.002 -1.374,-0.62 -1.376,-1.376 v 0 -17.393 c 0.002,-0.76 0.615,-1.376 1.376,-1.376 v 0 h 18.337 c 0.756,0 1.374,0.616 1.376,1.376 v 0 17.394 c -0.002,0.758 -0.618,1.374 -1.376,1.376 v 0 h -18.337 z m 17.713,-2 v -16.147 h -17.089 v 16.147 z"
   id="path416" />
	<path
   fill="#f4f4f4"
   d="m 355.759,297.59 c -1.386,0 -2.502,-1.124 -2.504,-2.508 v 0 -9.293 c 0,-1.384 1.118,-2.506 2.504,-2.506 v 0 h 9.798 c 1.384,0 2.504,1.12 2.506,2.506 v 0 9.293 c -0.002,1.386 -1.122,2.506 -2.506,2.508 v 0 z m -0.505,-11.801 v 9.293 c 0,0.282 0.227,0.507 0.505,0.509 v 0 h 9.798 c 0.277,-0.002 0.505,-0.229 0.507,-0.509 v 0 -9.293 c -0.002,-0.277 -0.229,-0.507 -0.507,-0.507 v 0 h -9.798 c -0.279,0 -0.505,0.227 -0.505,0.507 z"
   id="path418" />
</g>
<g
   id="g426"
   transform="translate(-76)">
	<path
   fill="#f4f4f4"
   d="m 371.346,301.859 c -0.76,-0.002 -1.377,-0.616 -1.377,-1.376 v 0 -17.393 c 0,-0.765 0.619,-1.376 1.377,-1.376 v 0 h 18.336 c 0.758,0 1.373,0.616 1.376,1.376 v 0 17.394 h -0.003 c 0,0.756 -0.615,1.374 -1.373,1.376 v 0 h -18.336 z m 17.71,-2 0.002,-16.147 h -17.09 v 16.147 z"
   id="path422" />
	<path
   fill="#f4f4f4"
   d="m 375.615,297.589 c -1.386,0 -2.506,-1.122 -2.506,-2.506 v 0 -9.293 c 0,-1.386 1.12,-2.508 2.506,-2.508 v 0 h 9.796 c 1.384,0 2.506,1.122 2.506,2.508 v 0 9.293 c 0,1.384 -1.122,2.506 -2.506,2.508 v 0 z m -0.508,-11.799 v 9.293 c 0,0.28 0.228,0.507 0.508,0.507 v 0 h 9.796 c 0.277,0 0.505,-0.227 0.507,-0.507 v 0 -9.293 c -0.002,-0.28 -0.229,-0.507 -0.507,-0.507 v 0 l -9.796,-0.003 c -0.28,0.003 -0.508,0.23 -0.508,0.51 z"
   id="path424" />
</g>
<g
   id="g432"
   transform="translate(-76)">
	<path
   fill="#f4f4f4"
   d="m 391.295,301.859 c -0.76,-0.002 -1.378,-0.618 -1.378,-1.376 v 0 -17.393 c 0,-0.76 0.62,-1.376 1.378,-1.376 v 0 h 27.377 c 0.76,0 1.374,0.616 1.376,1.376 v 0 17.394 c -0.002,0.756 -0.616,1.374 -1.376,1.376 v 0 h -27.377 z m 26.753,-2 v -16.147 h -26.131 v 16.147 z"
   id="path428" />
	<path
   fill="#f4f4f4"
   d="m 395.564,297.589 c -1.384,0 -2.508,-1.12 -2.508,-2.506 v 0 -9.293 c 0.002,-1.388 1.124,-2.508 2.508,-2.508 v 0 h 18.839 c 1.384,0.002 2.504,1.12 2.506,2.508 v 0 9.293 c -0.002,1.386 -1.122,2.506 -2.506,2.508 v 0 z m -0.506,-11.799 v 9.293 c 0,0.28 0.227,0.507 0.507,0.507 v 0 h 18.839 c 0.277,0 0.505,-0.227 0.507,-0.507 v 0 -9.293 c -0.002,-0.28 -0.229,-0.507 -0.507,-0.507 v 0 l -18.839,-0.003 c -0.281,0.003 -0.507,0.23 -0.507,0.51 z"
   id="path430" />
</g>
<g
   id="g438"
   transform="translate(-76)">
	<path
   fill="#f4f4f4"
   d="m 420.286,301.858 c -0.759,0 -1.376,-0.614 -1.378,-1.376 v 0 -17.392 c 0,-0.766 0.619,-1.376 1.378,-1.376 v 0 h 18.335 c 0.757,0 1.374,0.608 1.378,1.376 v 0 17.392 h -0.002 c 0,0.766 -0.617,1.376 -1.376,1.376 v 0 z m 17.712,-1.999 v -16.147 h -17.089 l -0.002,16.147 z"
   id="path434" />
	<path
   fill="#f4f4f4"
   d="m 424.556,297.59 c -1.386,0 -2.506,-1.123 -2.506,-2.507 v 0 -9.294 c 0,-1.386 1.12,-2.506 2.506,-2.508 v 0 l 9.796,0.002 c 1.384,0 2.506,1.122 2.506,2.506 v 0 9.294 c 0,1.384 -1.122,2.507 -2.506,2.507 v 0 z m -0.508,-11.801 v 9.294 c 0.002,0.28 0.229,0.506 0.508,0.506 v 0 l 9.796,0.002 c 0.28,-0.002 0.506,-0.228 0.506,-0.508 v 0 -9.294 c 0,-0.28 -0.226,-0.506 -0.506,-0.506 v 0 l -9.796,-0.002 c -0.28,0.002 -0.506,0.231 -0.508,0.508 z"
   id="path436" />
</g>
<g
   id="g444"
   transform="translate(-76)">
	<path
   fill="#f4f4f4"
   d="m 440.234,301.858 c -0.759,0 -1.375,-0.614 -1.377,-1.375 v 0 -17.395 c 0,-0.763 0.62,-1.375 1.377,-1.377 v 0 l 18.335,0.002 c 0.757,0 1.375,0.608 1.38,1.375 v 0 17.395 h -0.003 c 0,0.765 -0.62,1.375 -1.377,1.377 v 0 z m 17.713,-1.998 v -16.146 l -17.091,-0.002 v 16.146 z"
   id="path440" />
	<path
   fill="#f4f4f4"
   d="m 444.506,297.589 c -1.385,0 -2.508,-1.121 -2.508,-2.506 v 0 -9.293 c 0,-1.388 1.123,-2.507 2.508,-2.509 v 0 l 9.794,0.002 c 1.386,0 2.507,1.121 2.507,2.507 v 0 9.293 c 0,1.385 -1.121,2.506 -2.507,2.508 v 0 z m -0.509,-11.799 v 9.293 c 0,0.278 0.229,0.507 0.509,0.507 v 0 h 9.794 c 0.281,0 0.508,-0.227 0.508,-0.507 v 0 -9.293 c 0,-0.279 -0.227,-0.508 -0.508,-0.508 v 0 h -9.794 c -0.28,0 -0.509,0.229 -0.509,0.508 z"
   id="path442" />
</g>
<path
   fill="#f4f4f4"
   d="M 33.052,191.111 33.05,176.039 c 0.002,-1.453 1.178,-2.631 2.633,-2.631 v 0 c 1.455,0 2.633,1.177 2.633,2.631 v 0 15.072 c 0,1.455 -1.179,2.631 -2.633,2.633 v 0 c -1.454,-0.002 -2.631,-1.178 -2.631,-2.633 z m 1.999,-15.072 v 15.072 c 0.002,0.348 0.285,0.631 0.633,0.631 v 0 c 0.35,0 0.632,-0.283 0.634,-0.631 v 0 l -0.002,-15.072 c 0,-0.347 -0.282,-0.63 -0.632,-0.63 v 0 c -0.349,0 -0.631,0.281 -0.633,0.63 z"
   id="path446" />
<path
   fill="#f4f4f4"
   d="m 39.771,191.11 v -15.07 c 0,-1.455 1.179,-2.631 2.633,-2.631 v 0 c 1.453,0 2.631,1.176 2.631,2.631 v 0 15.07 c 0,1.454 -1.178,2.633 -2.631,2.633 v 0 c -1.455,0 -2.633,-1.179 -2.633,-2.633 z m 1.998,-15.07 v 15.07 c 0.002,0.351 0.284,0.633 0.635,0.633 v 0 c 0.348,0 0.63,-0.282 0.632,-0.633 v 0 l -0.002,-15.07 c 0,-0.349 -0.282,-0.632 -0.63,-0.632 v 0 c -0.351,0 -0.633,0.283 -0.635,0.632 z"
   id="path448" />
<path
   fill="#f4f4f4"
   d="m 46.488,191.111 v -15.072 c 0,-1.453 1.179,-2.631 2.633,-2.631 v 0 c 1.455,0 2.631,1.179 2.633,2.631 v 0 15.072 c 0,1.455 -1.181,2.631 -2.633,2.633 v 0 c -1.454,-0.002 -2.633,-1.178 -2.633,-2.633 z m 2.001,-15.072 v 15.072 c 0,0.348 0.282,0.631 0.632,0.631 v 0 c 0.351,0 0.633,-0.283 0.633,-0.631 v 0 -15.072 c 0,-0.349 -0.284,-0.63 -0.633,-0.63 v 0 c -0.35,0 -0.632,0.281 -0.632,0.63 z"
   id="path450" />
<path
   fill="#f4f4f4"
   d="m 53.208,191.111 v -15.072 c 0,-1.453 1.179,-2.631 2.633,-2.631 v 0 c 1.455,0 2.631,1.179 2.631,2.631 v 0 15.072 c 0,1.455 -1.179,2.631 -2.631,2.633 v 0 c -1.455,-0.002 -2.633,-1.178 -2.633,-2.633 z m 1.999,-15.072 v 15.072 c 0.002,0.348 0.284,0.631 0.634,0.631 v 0 c 0.348,0 0.631,-0.283 0.633,-0.631 v 0 -15.072 c -0.002,-0.349 -0.285,-0.63 -0.633,-0.63 v 0 c -0.35,0 -0.633,0.281 -0.634,0.63 z"
   id="path452" />
<path
   fill="#f4f4f4"
   d="m 59.928,191.11 -0.002,-15.07 c 0.002,-1.455 1.179,-2.631 2.633,-2.631 v 0 c 1.455,0 2.631,1.176 2.633,2.631 v 0 15.07 c -0.002,1.454 -1.179,2.633 -2.633,2.633 v 0 c -1.455,0 -2.631,-1.179 -2.631,-2.633 z m 1.999,-15.07 v 15.07 c 0,0.351 0.284,0.633 0.632,0.633 v 0 c 0.348,0 0.633,-0.282 0.633,-0.633 v 0 -15.07 c 0,-0.349 -0.285,-0.632 -0.633,-0.632 v 0 c -0.348,0 -0.632,0.283 -0.632,0.632 z"
   id="path454" />
<path
   fill="#f4f4f4"
   d="m 66.645,191.11 v -15.07 c 0,-1.455 1.179,-2.631 2.633,-2.631 v 0 c 1.455,0 2.631,1.176 2.631,2.631 v 0 15.07 c 0,1.454 -1.177,2.633 -2.631,2.633 v 0 c -1.454,0 -2.633,-1.179 -2.633,-2.633 z m 2.001,-15.07 v 15.07 c 0,0.351 0.282,0.633 0.632,0.633 v 0 c 0.35,0 0.633,-0.282 0.633,-0.633 v 0 -15.07 c 0,-0.349 -0.283,-0.632 -0.633,-0.632 v 0 c -0.35,0 -0.632,0.283 -0.632,0.632 z"
   id="path456" />
<path
   fill="#f4f4f4"
   d="m 73.364,191.11 v -15.07 c 0,-1.455 1.179,-2.631 2.633,-2.631 v 0 c 1.453,0 2.631,1.176 2.631,2.631 v 0 15.07 c 0,1.454 -1.179,2.633 -2.631,2.633 v 0 c -1.454,0 -2.633,-1.179 -2.633,-2.633 z m 1.999,-15.07 v 15.07 c 0.002,0.351 0.285,0.633 0.635,0.633 v 0 c 0.348,0 0.63,-0.282 0.632,-0.633 v 0 -15.07 c -0.002,-0.349 -0.284,-0.632 -0.632,-0.632 v 0 c -0.351,0 -0.633,0.283 -0.635,0.632 z"
   id="path458" />
<path
   fill="#f4f4f4"
   d="M 23.757,330.882 V 167.88 h 383.028 v 162.001 1 H 23.757 Z m 382.028,-1 v -1.001 z M 25.756,328.881 h 379.028 v -159 H 25.756 Z"
   id="path460" />
<path
   fill="#f4f4f4"
   d="m 24.322,200.055 v -31.388 h 6.522 v 30.388 1 z m 5.523,-1 v -1.002 z m -3.522,-28.386 v 27.384 h 2.522 v -27.386 z"
   id="path462" />
<path
   fill="#f4f4f4"
   d="m 399.478,200.147 v -31.386 h 6.521 v 30.386 1 z m 5.522,-1 v -1 z m -3.521,-1 h 2.519 v -27.385 h -2.519 z"
   id="path464" />
<polygon
   fill="#f4f4f4"
   points="100.664,201.089 100.664,199.091 481.472,199.091 481.472,201.089 "
   id="polygon466"
   transform="translate(-76)" />
<path
   fill="#f4f4f4"
   d="m 74.622,321.549 c 0,-2.297 1.859,-4.156 4.154,-4.158 v 0 c 2.294,0.002 4.156,1.861 4.156,4.158 v 0 c 0,2.294 -1.861,4.153 -4.156,4.153 v 0 c -2.297,0 -4.154,-1.859 -4.154,-4.153 z m 1.999,0 c 0.002,1.187 0.965,2.149 2.154,2.152 v 0 c 1.189,-0.003 2.154,-0.966 2.156,-2.152 v 0 c -0.002,-1.193 -0.967,-2.154 -2.156,-2.159 v 0 c -1.191,0.005 -2.152,0.965 -2.154,2.159 z"
   id="path468" />
<path
   fill="#f4f4f4"
   d="m 95.248,321.549 c 0,-2.297 1.859,-4.156 4.154,-4.158 v 0 c 2.297,0.002 4.156,1.861 4.156,4.158 v 0 h 0.002 c -0.002,2.294 -1.861,4.153 -4.158,4.153 v 0 c -2.295,0 -4.154,-1.859 -4.154,-4.153 z m 1.999,0 c 0.002,1.187 0.965,2.149 2.154,2.152 v 0 c 1.191,-0.003 2.154,-0.966 2.156,-2.152 v 0 c -0.002,-1.193 -0.965,-2.154 -2.156,-2.159 v 0 c -1.189,0.005 -2.152,0.965 -2.154,2.159 z"
   id="path470" />
<path
   fill="#f4f4f4"
   d="m 115.876,321.549 c 0,-2.297 1.859,-4.156 4.154,-4.156 v 0 c 2.294,0 4.156,1.857 4.156,4.156 v 0 c 0,2.294 -1.861,4.151 -4.156,4.153 v 0 c -2.295,0 -4.154,-1.859 -4.154,-4.153 z m 1.999,0 c 0.002,1.187 0.965,2.149 2.154,2.154 v 0 c 1.189,-0.005 2.154,-0.968 2.156,-2.154 v 0 c -0.002,-1.191 -0.967,-2.154 -2.156,-2.159 v 0 c -1.189,0.005 -2.152,0.965 -2.154,2.159 z"
   id="path472" />
<path
   fill="#f4f4f4"
   d="M 0.941,338.385 V 155.808 L 12.245,14.897 c 0.031,-3.438 2.829,-6.214 6.276,-6.216 v 0 h 393.501 c 3.455,0.002 6.256,2.793 6.272,6.245 v 0 l 11.301,140.933 -0.997,0.08 0.997,-0.08 0.004,0.051 -0.002,182.476 c 0,3.467 -2.81,6.274 -6.271,6.274 v 0 L 7.218,344.662 c -3.467,-0.003 -6.274,-2.81 -6.277,-6.277 z M 14.245,14.956 v 0.038 L 2.942,155.877 v 182.507 c 0.004,2.362 1.916,4.27 4.276,4.276 v 0 l 416.108,-0.002 c 2.358,-0.005 4.268,-1.912 4.271,-4.274 v 0 -182.418 L 416.295,14.987 v -0.032 c -0.005,-2.36 -1.914,-4.27 -4.272,-4.274 v 0 H 18.521 c -2.362,0.005 -4.272,1.916 -4.276,4.275 z"
   id="path474" />
</svg>
