<?xml version="1.0" encoding="UTF-8" standalone="no"?>
<!-- Generator: Adobe Illustrator 13.0.0, SVG Export Plug-In . SVG Version: 6.00 Build 14948)  -->

<svg
   version="1.2"
   id="Layer_3"
   x="0px"
   y="0px"
   width="530"
   height="260"
   viewBox="0 0 529.99998 259.99999"
   xml:space="preserve"
   sodipodi:docname="c64.svg"
   inkscape:version="1.2.2 (732a01da63, 2022-12-09)"
   xmlns:inkscape="http://www.inkscape.org/namespaces/inkscape"
   xmlns:sodipodi="http://sodipodi.sourceforge.net/DTD/sodipodi-0.dtd"
   xmlns="http://www.w3.org/2000/svg"
   xmlns:svg="http://www.w3.org/2000/svg"
   xmlns:rdf="http://www.w3.org/1999/02/22-rdf-syntax-ns#"
   xmlns:cc="http://creativecommons.org/ns#"
   xmlns:dc="http://purl.org/dc/elements/1.1/"
   xmlns:ns="&amp;ns_sfw;"><defs
   id="defs106" /><sodipodi:namedview
   id="namedview104"
   pagecolor="#000000"
   bordercolor="#111111"
   borderopacity="1"
   inkscape:showpageshadow="0"
   inkscape:pageopacity="0"
   inkscape:pagecheckerboard="1"
   inkscape:deskcolor="#d1d1d1"
   showgrid="false"
   inkscape:zoom="2.0445042"
   inkscape:cx="299.58363"
   inkscape:cy="175.10357"
   inkscape:window-width="1920"
   inkscape:window-height="1009"
   inkscape:window-x="-8"
   inkscape:window-y="-8"
   inkscape:window-maximized="1"
   inkscape:current-layer="Layer_3" />
<metadata
   id="metadata55">
	<rdf:RDF>
		<cc:Work
   rdf:about="">
			<dc:format>image/svg+xml</dc:format>
			<dc:type
   rdf:resource="http://purl.org/dc/dcmitype/StillImage" />
			
		</cc:Work>
	</rdf:RDF>
	<ns:sfw>
		<ns:slices />
		<ns:sliceSourceBounds
   x="698.288"
   y="403.434"
   width="519.465"
   height="255.457"
   bottomLeftOrigin="true" />
	</ns:sfw>
</metadata>
<path
   fill="#f4f4f4"
   d="M 42.188,19.341"
   id="path3" />
<path
   id="path5"
   fill="#f4f4f4"
   d="m 179.423,29.913 c -0.312,0.022 -0.585,0.214 -0.71,0.5 -0.508,1.122 -1.285,2.126 -2.263,2.894 -0.365,0.289 -0.426,0.818 -0.137,1.183 0.289,0.364 0.818,0.426 1.183,0.137 0.002,-0.001 0.005,-0.003 0.006,-0.005 1.185,-0.928 2.138,-2.119 2.762,-3.499 0.206,-0.417 0.035,-0.921 -0.382,-1.127 -0.143,-0.071 -0.301,-0.1 -0.459,-0.083 z" />
<path
   id="path7"
   fill="#f4f4f4"
   d="m 42.186,20.389 c -3.877,0 -7.049,3.146 -7.049,7.023 0,3.877 3.172,7.05 7.049,7.05 h 129.955 c 3.878,0 7.05,-3.172 7.05,-7.05 0,-3.878 -3.171,-7.023 -7.05,-7.023 z m 0,1.684 h 129.955 c 2.968,0 5.367,2.372 5.367,5.34 0,2.968 -2.398,5.367 -5.367,5.367 H 42.186 c -2.968,0 -5.367,-2.399 -5.367,-5.367 0,-2.969 2.399,-5.34 5.367,-5.34 z" />
<path
   id="polyline9"
   fill="#f4f4f4"
   d="m 179.347,29.965 c -0.465,0.041 -0.809,0.451 -0.768,0.917 0.042,0.466 0.452,0.809 0.917,0.768 0.003,0 0.006,0 0.009,-10e-4 h 48.244 73.498 138.575 c 0.464,0.006 0.847,-0.365 0.854,-0.83 0.006,-0.464 -0.366,-0.847 -0.831,-0.854 -0.007,0 -0.015,0 -0.022,0 H 301.247 227.749 179.505 c -0.052,-0.005 -0.106,-0.005 -0.158,0 z" />
<path
   id="polyline11"
   fill="#f4f4f4"
   d="m 180.004,28.176 c -0.465,0.021 -0.826,0.415 -0.805,0.879 0.021,0.464 0.414,0.825 0.88,0.804 0.001,0 0.002,0 0.003,0 h 47.666 73.498 138.003 c 0.464,0.007 0.846,-0.365 0.854,-0.83 0.006,-0.464 -0.366,-0.847 -0.83,-0.854 -0.009,0 -0.016,0 -0.023,0 H 301.246 227.748 180.082 c -0.026,-0.001 -0.052,-0.001 -0.078,10e-4 z" />
<path
   id="polygon13"
   fill="#f4f4f4"
   d="m 5.542,37.121 c -0.393,0.088 -0.667,0.44 -0.658,0.841 v 1.763 c 0,0.465 0.376,0.842 0.842,0.842 h 222.021 145.232 150.31 c 0.465,0 0.842,-0.377 0.842,-0.842 v -1.763 c 0,-0.465 -0.377,-0.841 -0.842,-0.841 H 372.979 227.747 5.726 c -0.061,-0.007 -0.123,-0.007 -0.184,0 z m 1.026,1.684 h 221.179 145.232 149.468 v 0.079 H 372.979 227.747 6.568 Z" />
<path
   fill="#f4f4f4"
   d="M 468.223,19.341"
   id="path10" />
<path
   id="polyline17"
   fill="#f4f4f4"
   d="m 42.107,34.989 c -0.465,0.021 -0.825,0.415 -0.804,0.88 0.021,0.465 0.415,0.825 0.879,0.804 10e-4,0 0.002,0 0.003,0 H 172.14 c 0.009,0 0.018,0 0.026,0 h 0.5 0.026 55.058 73.498 145.394 0.026 0.499 c 0.009,0 0.019,0 0.026,0 h 21.045 c 0.464,0.006 0.848,-0.365 0.854,-0.83 0.007,-0.465 -0.364,-0.847 -0.829,-0.854 -0.01,0 -0.017,0 -0.024,0 h -21.02 -0.026 -0.499 c -0.008,0 -0.018,0 -0.026,0 H 301.249 227.751 172.667 172.141 172.115 42.193 c -0.026,-10e-4 -0.053,-10e-4 -0.079,0 z" />
<path
   id="polyline19"
   fill="#f4f4f4"
   d="m 176.821,33.174 c -0.465,0.042 -0.809,0.451 -0.768,0.917 0.041,0.465 0.451,0.808 0.917,0.768 0.003,0 0.006,0 0.009,-0.001 h 50.77 73.498 141.1 c 0.465,0.007 0.847,-0.365 0.854,-0.83 0.006,-0.465 -0.365,-0.847 -0.829,-0.854 -0.009,0 -0.017,0 -0.024,0 h -141.1 -73.498 -50.77 c -0.053,-0.005 -0.105,-0.005 -0.159,0 z" />
<path
   id="path21"
   fill="#f4f4f4"
   d="m 439.796,29.913 c -0.466,0.011 -0.834,0.397 -0.822,0.862 0.003,0.121 0.031,0.24 0.085,0.348 0.624,1.378 1.577,2.57 2.763,3.499 0.361,0.292 0.893,0.236 1.184,-0.125 0.292,-0.362 0.236,-0.893 -0.126,-1.185 -0.002,-0.002 -0.004,-0.003 -0.006,-0.005 -0.978,-0.767 -1.754,-1.771 -2.263,-2.894 -0.14,-0.317 -0.462,-0.516 -0.809,-0.5 z" />
<path
   id="path23"
   fill="#f4f4f4"
   d="m 180.004,25.151 -0.079,0.026 c -0.447,0.093 -0.738,0.524 -0.657,0.973 0.072,0.412 0.104,0.828 0.104,1.263 0,0.493 -0.039,0.982 -0.131,1.447 -0.129,0.447 0.128,0.916 0.576,1.045 0.447,0.13 0.915,-0.128 1.045,-0.575 0.014,-0.05 0.024,-0.102 0.03,-0.153 0.114,-0.572 0.157,-1.158 0.157,-1.763 0,-0.199 -0.04,-0.382 -0.053,-0.579 h 46.746 73.498 137.075 c -0.012,0.196 -0.052,0.379 -0.052,0.579 0,0.605 0.068,1.216 0.184,1.789 0.03,0.464 0.431,0.816 0.894,0.787 0.464,-0.03 0.816,-0.43 0.787,-0.894 -0.005,-0.081 -0.021,-0.16 -0.05,-0.236 -0.092,-0.464 -0.135,-0.954 -0.135,-1.447 0,-0.434 0.033,-0.849 0.105,-1.262 0.08,-0.451 -0.216,-0.884 -0.665,-0.973 l -0.075,-0.026 c -0.063,-0.007 -0.123,-0.007 -0.186,0 H 301.23 227.732 180.171 c -0.062,-0.007 -0.123,-0.007 -0.184,0 h 0.017 z" />
<path
   id="path25"
   fill="#f4f4f4"
   d="m 177.184,20.312 c -0.464,-0.022 -0.859,0.336 -0.881,0.8 -0.016,0.342 0.176,0.66 0.487,0.804 0.009,0 0.018,0 0.026,0 0.849,0.721 1.53,1.619 1.973,2.657 0.171,0.41 0.632,0.618 1.053,0.473 h 47.902 73.498 138.263 c 0.412,0.129 0.856,-0.075 1.026,-0.473 0.445,-1.044 1.145,-1.935 1.999,-2.657 0.422,-0.196 0.604,-0.696 0.409,-1.118 -0.145,-0.311 -0.462,-0.503 -0.805,-0.486 h -140.898 -73.497 -50.56 z m 1.999,1.683 h 48.561 73.499 138.894 c -0.326,0.424 -0.596,0.888 -0.842,1.368 H 301.242 227.743 180.024 c -0.247,-0.48 -0.514,-0.944 -0.841,-1.368 z" />
<path
   id="path27"
   fill="#f4f4f4"
   d="M 5.62,18.549 C 5.197,18.602 4.881,18.964 4.884,19.39 v 1.763 c 0,0.465 0.376,0.842 0.842,0.842 h 29.383 c -0.321,0.419 -0.571,0.895 -0.815,1.368 H 5.726 c -0.465,0 -0.842,0.377 -0.842,0.842 v 1.789 c 0,0.465 0.376,0.842 0.842,0.842 H 33.32 c -0.013,0.196 -0.053,0.38 -0.053,0.578 0,0.259 0.057,0.51 0.079,0.764 H 5.726 c -0.465,0 -0.841,0.376 -0.842,0.841 v 1.789 c 0,0.465 0.376,0.842 0.842,0.842 h 28.646 c 0.29,0.541 0.611,1.055 1,1.526 H 5.725 c -0.465,0 -0.842,0.376 -0.842,0.841 0,0.009 0,0.019 0,0.027 l 0.052,1.815 c 0.015,0.455 0.387,0.816 0.842,0.816 H 42.29 c 0.465,0.006 0.847,-0.365 0.854,-0.83 0.007,-0.465 -0.365,-0.847 -0.83,-0.854 -0.008,0 -0.016,0 -0.024,0 H 6.594 v -0.132 h 30.777 0.053 c 0.293,-0.006 0.563,-0.166 0.71,-0.421 0.222,-0.368 0.131,-0.844 -0.21,-1.105 -0.01,-0.007 -0.016,-0.019 -0.026,-0.026 -0.96,-0.748 -1.749,-1.698 -2.263,-2.789 -0.008,-0.018 -0.017,-0.036 -0.026,-0.053 -0.003,-0.007 0.003,-0.02 0,-0.026 -0.008,-0.009 -0.016,-0.018 -0.025,-0.026 -0.007,-0.027 -0.016,-0.054 -0.026,-0.08 L 35.531,30.308 C 35.323,29.985 34.922,29.845 34.558,29.966 H 6.568 v -0.105 h 27.489 c 0.265,0.075 0.55,0.017 0.764,-0.158 l 0.025,-0.026 c 0.271,-0.223 0.375,-0.589 0.263,-0.921 -0.008,-0.009 -0.017,-0.018 -0.026,-0.025 -0.077,-0.424 -0.131,-0.868 -0.131,-1.316 0,-0.441 0.03,-0.871 0.105,-1.289 0.073,-0.46 -0.241,-0.891 -0.7,-0.963 -0.038,-0.006 -0.077,-0.009 -0.115,-0.01 H 34.058 6.568 v -0.106 h 28.015 0.185 c 0.33,-0.002 0.628,-0.197 0.762,-0.5 0.458,-1.059 1.174,-1.984 2.052,-2.709 0.358,-0.296 0.408,-0.827 0.111,-1.185 -0.123,-0.148 -0.292,-0.249 -0.48,-0.288 L 37.135,20.339 C 37.074,20.323 37.012,20.314 36.95,20.313 H 6.568 v -0.079 h 34.434 132.059 54.69 73.498 145.022 23.123 53.059 v 0.079 H 473.47 c -0.062,0.001 -0.124,0.011 -0.185,0.026 l -0.104,0.026 c -0.453,0.104 -0.736,0.556 -0.631,1.01 0.042,0.182 0.144,0.345 0.288,0.463 0.879,0.725 1.568,1.65 2.025,2.709 0.139,0.311 0.45,0.508 0.79,0.5 0.009,0 0.018,0 0.025,0 h 0.079 46.693 v 0.106 h -46.114 -0.157 c -0.465,0.008 -0.835,0.391 -0.826,0.856 0,0.04 0.004,0.079 0.009,0.117 h -0.026 c 0.075,0.419 0.132,0.848 0.132,1.289 0,0.448 -0.055,0.892 -0.132,1.316 -0.003,0.018 -0.022,0.035 -0.026,0.052 0,0.009 0,0.018 0,0.026 -0.088,0.316 0.015,0.654 0.264,0.868 l 0.026,0.026 c 0.22,0.183 0.516,0.243 0.788,0.158 h 46.063 v 0.105 h -46.615 c -0.355,-0.108 -0.741,0.031 -0.946,0.342 l -0.026,0.026 c -0.019,0.025 -0.036,0.052 -0.053,0.08 -0.009,0.017 -0.019,0.035 -0.026,0.053 -0.514,1.112 -1.285,2.082 -2.263,2.841 -0.008,0.008 -0.017,0.017 -0.026,0.026 -0.374,0.274 -0.457,0.8 -0.183,1.176 0.008,0.011 0.017,0.022 0.026,0.034 0.158,0.2 0.401,0.316 0.657,0.316 h 0.105 49.323 v 0.131 h -54.296 c -0.465,-0.006 -0.847,0.365 -0.854,0.83 -0.006,0.465 0.365,0.847 0.83,0.854 0.009,0 0.016,0 0.023,0 h 55.11 c 0.456,0 0.829,-0.361 0.843,-0.815 l 0.052,-1.815 c 0.015,-0.465 -0.35,-0.853 -0.814,-0.868 -0.009,0 -0.018,0 -0.027,0 h -48.243 c 0.388,-0.471 0.709,-0.985 1,-1.526 h 47.245 c 0.464,0 0.841,-0.377 0.841,-0.842 V 29.02 c 0,-0.464 -0.377,-0.842 -0.841,-0.842 h -46.22 c 0.021,-0.253 0.079,-0.504 0.079,-0.763 0,-0.198 -0.041,-0.383 -0.053,-0.578 h 46.193 c 0.464,0 0.841,-0.377 0.841,-0.842 v -1.789 c 0,-0.465 -0.377,-0.842 -0.841,-0.842 h -47.166 c -0.244,-0.473 -0.495,-0.949 -0.816,-1.368 h 47.982 c 0.465,0 0.841,-0.377 0.841,-0.842 v -1.763 c 0,-0.464 -0.376,-0.841 -0.841,-0.841 H 469.392 446.27 301.247 227.75 173.06 41.001 5.725 C 5.69,18.545 5.655,18.545 5.62,18.549 Z" />
<path
   id="path29"
   fill="#f4f4f4"
   d="m 447.187,20.389 c -3.879,0 -7.025,3.146 -7.025,7.023 0,3.877 3.146,7.05 7.025,7.05 h 21.044 c 3.878,0 7.023,-3.172 7.023,-7.05 0,-3.878 -3.146,-7.023 -7.023,-7.023 z m 0,1.684 h 21.044 c 2.968,0 5.34,2.372 5.34,5.34 0,2.968 -2.372,5.367 -5.34,5.367 h -21.044 c -2.968,0 -5.341,-2.399 -5.341,-5.367 0,-2.969 2.373,-5.34 5.341,-5.34 z" />
<path
   id="path31"
   fill="#f4f4f4"
   d="m 8.672,1.739 c -2.06,0 -3.735,1.676 -3.735,3.735 v 11.575 c 0,0.465 0.377,0.842 0.842,0.842 h 517.724 c 0.464,0 0.841,-0.377 0.841,-0.842 V 5.474 c 0,-2.06 -1.677,-3.735 -3.735,-3.735 H 8.668 Z m 0,1.683 h 511.94 c 1.149,0 2.052,0.902 2.052,2.052 V 16.207 H 6.625 V 5.474 c 0,-1.149 0.902,-2.052 2.052,-2.052 z" />
<path
   id="path33"
   fill="#f4f4f4"
   d="m 5.594,41.803 c -0.392,0.087 -0.667,0.44 -0.658,0.842 v 210.816 c 0,2.06 1.676,3.735 3.735,3.735 h 511.94 c 2.059,0 3.735,-1.676 3.735,-3.735 l -0.01,-210.816 c 0,-0.465 -0.377,-0.842 -0.841,-0.842 H 5.774 c -0.061,-0.007 -0.123,-0.007 -0.184,0 z m 1.026,1.684 h 516.039 v 209.974 c 0,1.149 -0.902,2.053 -2.052,2.053 H 8.668 c -1.151,0 -2.052,-0.903 -2.052,-2.053 z" />
<path
   id="path35"
   fill="#f4f4f4"
   d="m 29.506,90.491 c -1.555,0 -2.815,1.285 -2.815,2.841 v 17.494 c 0,1.555 1.259,2.84 2.815,2.84 h 17.493 c 1.555,0 2.841,-1.285 2.841,-2.84 V 93.332 c 0,-1.556 -1.286,-2.841 -2.841,-2.841 z m 0,1.684 h 17.493 c 0.646,0 1.157,0.511 1.157,1.158 v 17.494 c 0,0.645 -0.512,1.157 -1.157,1.157 H 29.506 c -0.646,0 -1.132,-0.514 -1.132,-1.157 V 93.333 c 0.001,-0.647 0.486,-1.158 1.132,-1.158 z" />
<path
   id="path37"
   fill="#f4f4f4"
   d="m 54.208,90.491 c -1.555,0 -2.841,1.285 -2.841,2.841 v 17.494 c 0,1.554 1.285,2.84 2.841,2.84 h 17.466 c 1.555,0 2.841,-1.285 2.841,-2.84 V 93.332 c 0,-1.556 -1.287,-2.841 -2.841,-2.841 z m 0,1.684 h 17.466 c 0.646,0 1.158,0.511 1.158,1.158 v 17.494 c 0,0.645 -0.512,1.157 -1.158,1.157 H 54.208 c -0.647,0 -1.158,-0.513 -1.158,-1.157 V 93.333 c 0,-0.647 0.512,-1.158 1.158,-1.158 z" />
<path
   id="path39"
   fill="#f4f4f4"
   d="m 78.882,90.491 c -1.555,0 -2.842,1.285 -2.842,2.841 v 17.494 c 0,1.555 1.286,2.84 2.842,2.84 h 17.493 c 1.424,0 2.546,-1.097 2.736,-2.472 0.009,-0.018 0.018,-0.035 0.027,-0.053 0,-0.009 -0.001,-0.018 0,-0.026 0.009,-0.025 0.019,-0.052 0.025,-0.079 0.014,-0.051 0.022,-0.104 0.027,-0.157 0.009,-0.018 0.018,-0.036 0.026,-0.053 V 93.332 c 0,-1.556 -1.286,-2.841 -2.841,-2.841 z m 0,1.684 h 17.493 c 0.646,0 1.158,0.511 1.158,1.158 v 17.335 c -0.002,0.036 -0.002,0.07 0,0.105 -0.01,0.018 -0.019,0.035 -0.026,0.053 0,0.645 -0.486,1.157 -1.131,1.157 H 78.883 c -0.645,0 -1.158,-0.513 -1.158,-1.157 V 93.332 c 0,-0.645 0.511,-1.157 1.157,-1.157 z" />
<path
   id="path41"
   fill="#f4f4f4"
   d="m 103.553,90.491 c -1.555,0 -2.815,1.285 -2.815,2.841 v 17.494 c 0,1.555 1.26,2.84 2.815,2.84 h 17.493 c 1.555,0 2.841,-1.285 2.841,-2.84 V 93.332 c 0,-1.556 -1.287,-2.841 -2.841,-2.841 z m 0,1.684 h 17.493 c 0.646,0 1.158,0.511 1.158,1.158 v 17.494 c 0,0.645 -0.512,1.157 -1.158,1.157 h -17.493 c -0.645,0 -1.131,-0.514 -1.131,-1.157 V 93.333 c 0,-0.647 0.485,-1.158 1.131,-1.158 z" />
<path
   id="path43"
   fill="#f4f4f4"
   d="m 128.259,90.491 c -1.555,0 -2.841,1.285 -2.841,2.841 v 17.494 c 0,1.555 1.286,2.84 2.841,2.84 h 17.467 c 1.555,0 2.84,-1.285 2.84,-2.84 V 93.332 c 0,-1.556 -1.286,-2.841 -2.84,-2.841 z m 0,1.684 h 17.467 c 0.645,0 1.157,0.511 1.157,1.158 v 17.494 c 0,0.645 -0.512,1.157 -1.157,1.157 h -17.467 c -0.645,0 -1.158,-0.514 -1.158,-1.157 V 93.333 c 0.001,-0.647 0.512,-1.158 1.158,-1.158 z" />
<path
   id="path45"
   fill="#f4f4f4"
   d="m 152.932,90.491 c -1.555,0 -2.842,1.285 -2.842,2.841 v 17.494 c 0,1.555 1.287,2.84 2.842,2.84 h 17.493 c 1.555,0 2.814,-1.285 2.814,-2.84 V 93.332 c 0,-1.556 -1.26,-2.841 -2.814,-2.841 z m 0,1.684 h 17.493 c 0.645,0 1.13,0.511 1.13,1.158 v 17.494 c 0,0.645 -0.485,1.157 -1.13,1.157 h -17.493 c -0.645,0 -1.158,-0.514 -1.158,-1.157 V 93.333 c 0,-0.647 0.513,-1.158 1.158,-1.158 z" />
<path
   id="path47"
   fill="#f4f4f4"
   d="m 177.604,90.491 c -1.555,0 -2.814,1.285 -2.814,2.841 v 17.494 c 0,1.555 1.259,2.84 2.814,2.84 h 17.494 c 1.554,0 2.84,-1.285 2.84,-2.84 V 93.332 c 0,-1.556 -1.286,-2.841 -2.84,-2.841 z m 0,1.684 h 17.494 c 0.645,0 1.157,0.511 1.157,1.158 v 17.494 c 0,0.645 -0.512,1.157 -1.157,1.157 h -17.494 c -0.646,0 -1.131,-0.514 -1.131,-1.157 V 93.333 c 10e-4,-0.647 0.486,-1.158 1.131,-1.158 z" />
<path
   id="path49"
   fill="#f4f4f4"
   d="m 202.311,90.491 c -1.555,0 -2.841,1.285 -2.841,2.841 v 17.494 c 0,1.555 1.286,2.84 2.841,2.84 h 17.467 c 1.554,0 2.84,-1.285 2.84,-2.84 V 93.332 c 0,-1.556 -1.286,-2.841 -2.84,-2.841 z m 0,1.684 h 17.467 c 0.645,0 1.157,0.511 1.157,1.158 v 17.494 c 0,0.645 -0.513,1.157 -1.157,1.157 h -17.467 c -0.645,0 -1.158,-0.514 -1.158,-1.157 V 93.333 c 0,-0.647 0.513,-1.158 1.158,-1.158 z" />
<path
   id="path51"
   fill="#f4f4f4"
   d="m 226.983,90.491 c -1.555,0 -2.841,1.285 -2.841,2.841 v 17.494 c 0,1.555 1.285,2.84 2.841,2.84 h 17.493 c 1.555,0 2.815,-1.285 2.815,-2.84 V 93.332 c 0,-1.556 -1.26,-2.841 -2.815,-2.841 z m 0,1.684 h 17.493 c 0.646,0 1.132,0.511 1.132,1.158 v 17.494 c 0,0.645 -0.487,1.157 -1.132,1.157 h -17.493 c -0.645,0 -1.157,-0.514 -1.157,-1.157 V 93.333 c 0,-0.647 0.512,-1.158 1.157,-1.158 z" />
<path
   id="path53"
   fill="#f4f4f4"
   d="m 251.656,90.491 c -1.555,0 -2.841,1.285 -2.841,2.841 v 17.494 c 0,1.554 1.285,2.84 2.841,2.84 h 17.493 c 1.555,0 2.841,-1.285 2.841,-2.84 V 93.332 c 0,-1.556 -1.285,-2.841 -2.841,-2.841 z m 0,1.684 h 17.493 c 0.645,0 1.157,0.511 1.157,1.158 v 17.494 c 0,0.645 -0.513,1.157 -1.157,1.157 h -17.493 c -0.646,0 -1.157,-0.513 -1.157,-1.157 V 93.333 c 0,-0.647 0.512,-1.158 1.157,-1.158 z" />
<path
   id="path55"
   fill="#f4f4f4"
   d="m 276.363,90.491 c -1.557,0 -2.842,1.285 -2.842,2.841 v 17.494 c 0,1.554 1.285,2.84 2.842,2.84 h 17.466 c 1.555,0 2.841,-1.284 2.841,-2.84 V 93.332 c 0,-1.556 -1.285,-2.841 -2.841,-2.841 z m 0,1.684 h 17.466 c 0.646,0 1.158,0.511 1.158,1.158 v 17.494 c 0,0.644 -0.514,1.157 -1.158,1.157 h -17.466 c -0.647,0 -1.157,-0.513 -1.157,-1.157 V 93.333 c 0,-0.647 0.511,-1.158 1.157,-1.158 z" />
<path
   id="path57"
   fill="#f4f4f4"
   d="m 301.035,90.491 c -1.555,0 -2.841,1.285 -2.841,2.841 v 17.494 c 0,1.554 1.285,2.84 2.841,2.84 h 17.494 c 1.554,0 2.813,-1.285 2.813,-2.84 V 93.332 c 0,-1.556 -1.259,-2.841 -2.813,-2.841 z m 0,1.684 h 17.494 c 0.644,0 1.131,0.511 1.131,1.158 v 17.494 c 0,0.645 -0.487,1.157 -1.131,1.157 h -17.494 c -0.646,0 -1.157,-0.513 -1.157,-1.157 V 93.333 c 0,-0.647 0.514,-1.158 1.157,-1.158 z" />
<path
   id="path59"
   fill="#f4f4f4"
   d="m 325.708,90.491 c -1.555,0 -2.814,1.285 -2.814,2.841 v 17.494 c 0,1.554 1.259,2.84 2.814,2.84 h 17.494 c 1.554,0 2.839,-1.284 2.839,-2.84 V 93.332 c 0,-1.556 -1.284,-2.841 -2.839,-2.841 z m 0,1.684 h 17.494 c 0.644,0 1.156,0.511 1.156,1.158 v 17.494 c 0,0.644 -0.513,1.157 -1.156,1.157 h -17.494 c -0.645,0 -1.132,-0.513 -1.132,-1.157 V 93.333 c 0,-0.647 0.487,-1.158 1.132,-1.158 z" />
<path
   id="path61"
   fill="#f4f4f4"
   d="m 350.415,90.491 c -1.555,0 -2.842,1.285 -2.842,2.841 v 17.492 c 0,1.554 1.286,2.841 2.842,2.841 h 17.466 c 1.555,0 2.842,-1.286 2.842,-2.841 10e-4,-0.026 10e-4,-0.053 0,-0.079 V 93.33 c 0,-1.556 -1.286,-2.841 -2.842,-2.841 z m 0,1.684 h 17.466 c 0.647,0 1.157,0.511 1.157,1.158 v 17.492 c 0,0.646 -0.511,1.157 -1.157,1.157 h -17.466 c -0.646,0 -1.158,-0.513 -1.158,-1.157 V 93.332 c 0,-0.647 0.514,-1.158 1.158,-1.157 z" />
<path
   id="path63"
   fill="#f4f4f4"
   d="m 67.15,114.903 c -1.555,0 -2.841,1.285 -2.841,2.841 v 17.492 c 0,1.555 1.286,2.815 2.841,2.815 h 17.493 c 1.422,0 2.542,-1.075 2.736,-2.446 0.01,-0.019 0.018,-0.034 0.026,-0.053 0.001,-0.009 -0.001,-0.019 0,-0.026 0.01,-0.025 0.019,-0.051 0.027,-0.076 0.014,-0.052 0.022,-0.105 0.026,-0.161 0.009,-0.015 0.019,-0.032 0.026,-0.05 v -17.493 c 0,-1.554 -1.286,-2.84 -2.841,-2.84 H 67.15 Z m 0,1.683 h 17.493 c 0.646,0 1.158,0.514 1.158,1.158 v 17.335 c -0.001,0.025 -0.001,0.052 0,0.077 -0.011,0.028 -0.019,0.057 -0.026,0.086 0,0.645 -0.486,1.131 -1.131,1.131 H 67.15 c -0.646,0 -1.158,-0.487 -1.158,-1.127 v -17.495 c 0,-0.645 0.512,-1.157 1.158,-1.157 z" />
<path
   id="path65"
   fill="#f4f4f4"
   d="m 29.506,114.903 c -1.555,0 -2.815,1.285 -2.815,2.841 v 17.492 c 0,1.557 1.259,2.815 2.815,2.815 h 30.12 c 1.555,0 2.841,-1.259 2.841,-2.815 v -17.492 c 0,-1.555 -1.285,-2.841 -2.841,-2.841 z m 0,1.683 h 30.12 c 0.646,0 1.157,0.514 1.157,1.158 v 17.492 c 0,0.646 -0.512,1.133 -1.157,1.133 h -30.12 c -0.646,0 -1.132,-0.488 -1.132,-1.133 v -17.492 c 0.001,-0.645 0.486,-1.158 1.132,-1.158 z" />
<path
   id="path67"
   fill="#f4f4f4"
   d="m 91.827,114.903 c -1.555,0 -2.84,1.285 -2.84,2.841 v 17.492 c 0,1.557 1.285,2.815 2.84,2.815 h 17.494 c 1.555,0 2.841,-1.259 2.841,-2.815 v -17.492 c 0,-1.555 -1.286,-2.841 -2.841,-2.841 z m 0,1.683 h 17.494 c 0.645,0 1.157,0.514 1.157,1.158 v 17.492 c 0,0.646 -0.512,1.133 -1.157,1.133 H 91.827 c -0.645,0 -1.157,-0.488 -1.157,-1.133 v -17.492 c 0,-0.645 0.511,-1.158 1.157,-1.158 z" />
<path
   id="path69"
   fill="#f4f4f4"
   d="m 116.524,114.903 c -1.555,0 -2.84,1.285 -2.84,2.841 v 17.492 c 0,1.557 1.286,2.815 2.84,2.815 h 17.468 c 1.555,0 2.841,-1.259 2.841,-2.815 v -17.492 c 0,-1.555 -1.286,-2.841 -2.841,-2.841 z m 0,1.683 h 17.468 c 0.645,0 1.157,0.514 1.157,1.158 v 17.492 c 0,0.646 -0.512,1.133 -1.157,1.133 h -17.468 c -0.645,0 -1.157,-0.488 -1.157,-1.133 v -17.492 c 0,-0.645 0.512,-1.158 1.157,-1.158 z" />
<path
   id="path71"
   fill="#f4f4f4"
   d="m 141.197,114.903 c -1.554,0 -2.84,1.285 -2.84,2.841 v 17.492 c 0,1.557 1.286,2.815 2.84,2.815 h 17.494 c 1.555,0 2.814,-1.259 2.814,-2.815 v -17.492 c 0,-1.555 -1.259,-2.841 -2.814,-2.841 z m 0,1.683 h 17.494 c 0.646,0 1.131,0.514 1.131,1.158 v 17.492 c 0,0.646 -0.485,1.133 -1.131,1.133 h -17.494 c -0.645,0 -1.157,-0.488 -1.157,-1.133 v -17.492 c 0,-0.645 0.512,-1.158 1.157,-1.158 z" />
<path
   id="path73"
   fill="#f4f4f4"
   d="m 165.878,114.903 c -1.555,0 -2.815,1.285 -2.815,2.841 v 17.492 c 0,1.556 1.259,2.815 2.815,2.815 h 17.494 c 1.555,0 2.841,-1.259 2.841,-2.815 v -17.492 c 0,-1.555 -1.286,-2.841 -2.841,-2.841 z m 0,1.683 h 17.494 c 0.645,0 1.157,0.514 1.157,1.158 v 17.492 c 0,0.646 -0.512,1.133 -1.157,1.133 h -17.494 c -0.646,0 -1.131,-0.488 -1.131,-1.133 v -17.492 c 0,-0.645 0.486,-1.158 1.131,-1.158 z" />
<path
   id="path75"
   fill="#f4f4f4"
   d="m 190.576,114.903 c -1.555,0 -2.841,1.285 -2.841,2.841 v 17.492 c 0,1.557 1.285,2.815 2.841,2.815 h 17.468 c 1.554,0 2.841,-1.259 2.841,-2.815 v -17.492 c 0,-1.555 -1.286,-2.841 -2.841,-2.841 z m 0,1.683 h 17.468 c 0.645,0 1.157,0.514 1.157,1.158 v 17.492 c 0,0.646 -0.514,1.133 -1.157,1.133 h -17.468 c -0.645,0 -1.158,-0.488 -1.158,-1.133 v -17.492 c 0,-0.645 0.513,-1.158 1.158,-1.158 z" />
<path
   id="path77"
   fill="#f4f4f4"
   d="m 215.249,114.903 c -1.555,0 -2.841,1.285 -2.841,2.841 v 17.492 c 0,1.557 1.286,2.815 2.841,2.815 h 17.493 c 1.555,0 2.815,-1.259 2.815,-2.815 v -17.492 c 0,-1.555 -1.259,-2.841 -2.815,-2.841 z m 0,1.683 h 17.493 c 0.645,0 1.131,0.514 1.131,1.158 v 17.492 c 0,0.646 -0.486,1.133 -1.131,1.133 h -17.493 c -0.645,0 -1.158,-0.488 -1.158,-1.133 v -17.492 c 0,-0.645 0.513,-1.158 1.158,-1.158 z" />
<path
   id="path79"
   fill="#f4f4f4"
   d="m 239.922,114.903 c -1.555,0 -2.841,1.285 -2.841,2.841 v 17.492 c 0,1.557 1.286,2.815 2.841,2.815 h 17.494 c 1.554,0 2.841,-1.259 2.841,-2.815 v -17.492 c 0,-1.555 -1.286,-2.841 -2.841,-2.841 z m 0,1.683 h 17.494 c 0.645,0 1.157,0.514 1.157,1.158 v 17.492 c 0,0.646 -0.512,1.133 -1.157,1.133 h -17.494 c -0.646,0 -1.158,-0.488 -1.158,-1.133 v -17.492 c 0,-0.645 0.512,-1.158 1.158,-1.158 z" />
<path
   id="path81"
   fill="#f4f4f4"
   d="m 264.628,114.903 c -1.555,0 -2.842,1.285 -2.842,2.841 v 17.492 c 0,1.557 1.286,2.815 2.842,2.815 h 17.466 c 1.555,0 2.842,-1.258 2.842,-2.815 v -17.492 c 0,-1.555 -1.286,-2.841 -2.842,-2.841 z m 0,1.683 h 17.466 c 0.646,0 1.159,0.514 1.159,1.158 v 17.492 c 0,0.645 -0.515,1.133 -1.159,1.133 h -17.466 c -0.645,0 -1.158,-0.488 -1.158,-1.133 v -17.492 c 10e-4,-0.645 0.513,-1.158 1.158,-1.158 z" />
<path
   id="path83"
   fill="#f4f4f4"
   d="m 289.301,114.903 c -1.555,0 -2.842,1.285 -2.842,2.841 v 17.492 c 0,1.556 1.286,2.815 2.842,2.815 h 17.493 c 1.555,0 2.814,-1.259 2.814,-2.815 v -17.492 c 0,-1.555 -1.258,-2.841 -2.814,-2.841 z m 0,1.683 h 17.493 c 0.646,0 1.131,0.514 1.131,1.158 v 17.492 c 0,0.646 -0.486,1.133 -1.131,1.133 h -17.493 c -0.646,0 -1.157,-0.488 -1.157,-1.133 v -17.492 c 0,-0.645 0.511,-1.158 1.157,-1.158 z" />
<path
   id="path85"
   fill="#f4f4f4"
   d="m 313.974,114.903 c -1.554,0 -2.842,1.285 -2.842,2.841 v 17.492 c 0,1.557 1.286,2.815 2.842,2.815 h 17.493 c 1.556,0 2.841,-1.258 2.841,-2.815 v -17.492 c 0,-1.555 -1.285,-2.841 -2.841,-2.841 z m 0,1.683 h 17.493 c 0.645,0 1.158,0.514 1.158,1.158 v 17.492 c 0,0.645 -0.514,1.133 -1.158,1.133 h -17.493 c -0.645,0 -1.158,-0.488 -1.158,-1.133 v -17.492 c -10e-4,-0.645 0.514,-1.158 1.158,-1.158 z" />
<path
   id="path87"
   fill="#f4f4f4"
   d="m 338.68,114.903 c -1.554,0 -2.842,1.285 -2.842,2.841 v 17.492 c 0,1.556 1.287,2.815 2.842,2.815 h 17.468 c 1.554,0 2.84,-1.259 2.84,-2.815 v -17.492 c 0,-1.555 -1.285,-2.841 -2.84,-2.841 z m 0,1.683 h 17.468 c 0.645,0 1.157,0.514 1.157,1.158 v 17.492 c 0,0.646 -0.514,1.133 -1.157,1.133 H 338.68 c -0.646,0 -1.157,-0.488 -1.157,-1.133 v -17.492 c -0.001,-0.645 0.511,-1.158 1.157,-1.158 z" />
<path
   id="path89"
   fill="#f4f4f4"
   d="m 363.352,114.903 c -1.554,0 -2.839,1.285 -2.839,2.841 v 17.492 c 0,1.556 1.284,2.815 2.839,2.815 h 17.495 c 1.554,0 2.813,-1.258 2.813,-2.815 v -17.492 c 0,-1.555 -1.259,-2.841 -2.813,-2.841 z m 0,1.683 h 17.495 c 0.644,0 1.131,0.514 1.131,1.158 v 17.492 c 0,0.645 -0.487,1.133 -1.131,1.133 h -17.495 c -0.646,0 -1.155,-0.488 -1.155,-1.133 v -17.492 c -10e-4,-0.645 0.509,-1.158 1.155,-1.158 z" />
<path
   id="path91"
   fill="#f4f4f4"
   d="m 450.638,114.903 c -1.555,0 -2.842,1.285 -2.842,2.841 v 17.492 c 0,1.556 1.286,2.815 2.842,2.815 h 31.75 c 1.555,0 2.842,-1.258 2.842,-2.815 v -17.492 c 0,-1.555 -1.286,-2.841 -2.842,-2.841 z m 0,1.683 h 31.75 c 0.646,0 1.158,0.514 1.158,1.158 v 17.492 c 0,0.645 -0.514,1.133 -1.158,1.133 h -31.75 c -0.647,0 -1.157,-0.488 -1.157,-1.133 v -17.492 c -10e-4,-0.645 0.51,-1.158 1.157,-1.158 z" />
<path
   id="path93"
   fill="#f4f4f4"
   d="m 387.814,114.903 c -1.553,0 -2.842,1.285 -2.842,2.841 v 17.492 c 0,1.557 1.286,2.815 2.842,2.815 h 29.437 c 1.555,0 2.842,-1.259 2.842,-2.815 v -17.492 c 0,-1.555 -1.286,-2.841 -2.842,-2.841 z m 0,1.683 h 29.437 c 0.646,0 1.157,0.514 1.157,1.158 v 17.492 c 0,0.646 -0.511,1.133 -1.157,1.133 h -29.437 c -0.645,0 -1.157,-0.488 -1.157,-1.133 v -17.492 c 0,-0.645 0.514,-1.158 1.157,-1.158 z" />
<path
   id="path95"
   fill="#f4f4f4"
   d="m 375.087,90.491 c -1.556,0 -2.841,1.285 -2.841,2.841 v 17.494 c 0,1.554 1.285,2.84 2.841,2.84 h 17.493 c 1.554,0 2.815,-1.284 2.815,-2.84 V 93.332 c 0,-1.556 -1.261,-2.841 -2.815,-2.841 z m 0,1.684 h 17.493 c 0.646,0 1.131,0.511 1.131,1.158 v 17.494 c 0,0.644 -0.486,1.157 -1.131,1.157 h -17.493 c -0.646,0 -1.157,-0.513 -1.157,-1.157 V 93.333 c 0,-0.647 0.512,-1.158 1.157,-1.158 z" />
<path
   id="path97"
   fill="#f4f4f4"
   d="m 22.877,139.314 c -1.555,0 -2.841,1.285 -2.841,2.842 v 17.467 c 0,1.555 1.286,2.841 2.841,2.841 H 40.37 c 1.555,0 2.815,-1.286 2.815,-2.841 v -17.467 c 0,-1.557 -1.26,-2.842 -2.815,-2.842 z m 0,1.684 H 40.37 c 0.646,0 1.131,0.514 1.131,1.158 v 17.467 c 0,0.646 -0.485,1.157 -1.131,1.157 H 22.877 c -0.646,0 -1.158,-0.512 -1.158,-1.157 v -17.467 c 10e-4,-0.646 0.512,-1.158 1.158,-1.158 z" />
<path
   id="path99"
   fill="#f4f4f4"
   d="m 47.553,139.314 c -1.555,0 -2.841,1.285 -2.841,2.842 v 17.467 c 0,1.555 1.286,2.841 2.841,2.841 h 17.492 c 1.556,0 2.841,-1.286 2.841,-2.841 v -17.467 c 0,-1.557 -1.286,-2.842 -2.841,-2.842 z m 0,1.684 h 17.492 c 0.646,0 1.158,0.514 1.158,1.158 v 17.467 c 0,0.646 -0.512,1.157 -1.158,1.157 H 47.553 c -0.646,0 -1.158,-0.512 -1.158,-1.157 v -17.467 c 0,-0.646 0.511,-1.158 1.158,-1.158 z" />
<path
   id="path101"
   fill="#f4f4f4"
   d="m 72.227,139.314 c -1.555,0 -2.815,1.285 -2.815,2.842 v 17.467 c 0,1.555 1.26,2.841 2.815,2.841 H 89.72 c 1.417,0 2.562,-1.082 2.762,-2.446 0.01,-0.026 0.019,-0.052 0.026,-0.079 0.038,-0.101 0.055,-0.208 0.052,-0.315 v -17.467 c 0,-1.557 -1.286,-2.842 -2.841,-2.842 H 72.227 Z m 0,1.684 H 89.72 c 0.646,0 1.157,0.514 1.157,1.158 v 17.335 c -10e-4,0.027 -10e-4,0.054 0,0.08 v 0.052 c 0,0.646 -0.512,1.157 -1.157,1.157 H 72.227 c -0.646,0 -1.131,-0.512 -1.131,-1.157 v -17.467 c 0,-0.646 0.485,-1.158 1.131,-1.158 z" />
<path
   id="path103"
   fill="#f4f4f4"
   d="m 96.928,139.314 c -1.554,0 -2.84,1.285 -2.84,2.842 v 17.467 c 0,1.555 1.285,2.841 2.84,2.841 h 17.493 c 1.555,0 2.814,-1.286 2.814,-2.841 v -17.467 c 0,-1.557 -1.26,-2.842 -2.814,-2.842 z m 0,1.684 h 17.493 c 0.646,0 1.131,0.514 1.131,1.158 v 17.467 c 0,0.646 -0.485,1.157 -1.131,1.157 H 96.928 c -0.645,0 -1.158,-0.512 -1.158,-1.157 v -17.467 c 0.001,-0.646 0.512,-1.158 1.158,-1.158 z" />
<path
   id="path105"
   fill="#f4f4f4"
   d="m 121.601,139.314 c -1.554,0 -2.84,1.285 -2.84,2.842 v 17.467 c 0,1.555 1.285,2.841 2.84,2.841 h 17.493 c 1.555,0 2.841,-1.286 2.841,-2.841 v -17.467 c 0,-1.557 -1.286,-2.842 -2.841,-2.842 z m 0,1.684 h 17.493 c 0.646,0 1.157,0.514 1.157,1.158 v 17.467 c 0,0.646 -0.512,1.157 -1.157,1.157 h -17.493 c -0.645,0 -1.157,-0.512 -1.157,-1.157 v -17.467 c 0,-0.646 0.511,-1.158 1.157,-1.158 z" />
<path
   id="path107"
   fill="#f4f4f4"
   d="m 146.282,139.314 c -1.555,0 -2.815,1.285 -2.815,2.842 v 17.467 c 0,1.555 1.259,2.841 2.815,2.841 h 17.493 c 1.555,0 2.842,-1.286 2.842,-2.841 v -17.467 c 0,-1.557 -1.287,-2.842 -2.842,-2.842 z m 0,1.684 h 17.493 c 0.646,0 1.158,0.514 1.158,1.158 v 17.467 c 0,0.646 -0.513,1.157 -1.158,1.157 h -17.493 c -0.646,0 -1.131,-0.512 -1.131,-1.157 v -17.467 c -0.001,-0.646 0.485,-1.158 1.131,-1.158 z" />
<path
   id="path109"
   fill="#f4f4f4"
   d="m 170.98,139.314 c -1.554,0 -2.841,1.285 -2.841,2.842 v 17.467 c 0,1.555 1.286,2.841 2.841,2.841 h 17.493 c 1.555,0 2.815,-1.286 2.815,-2.841 v -17.467 c 0,-1.557 -1.26,-2.842 -2.815,-2.842 z m 0,1.684 h 17.493 c 0.646,0 1.131,0.514 1.131,1.158 v 17.467 c 0,0.646 -0.486,1.157 -1.131,1.157 H 170.98 c -0.646,0 -1.158,-0.512 -1.158,-1.157 v -17.467 c 0,-0.646 0.513,-1.158 1.158,-1.158 z" />
<path
   id="path111"
   fill="#f4f4f4"
   d="m 195.653,139.314 c -1.555,0 -2.842,1.285 -2.842,2.842 v 17.467 c 0,1.555 1.285,2.841 2.842,2.841 h 17.493 c 1.555,0 2.84,-1.286 2.84,-2.841 v -17.467 c 0,-1.557 -1.285,-2.842 -2.84,-2.842 z m 0,1.684 h 17.493 c 0.646,0 1.157,0.514 1.157,1.158 v 17.467 c 0,0.646 -0.512,1.157 -1.157,1.157 h -17.493 c -0.647,0 -1.158,-0.512 -1.158,-1.157 v -17.467 c 0,-0.646 0.51,-1.158 1.158,-1.158 z" />
<path
   id="path113"
   fill="#f4f4f4"
   d="m 220.325,139.314 c -1.554,0 -2.814,1.285 -2.814,2.842 v 17.467 c 0,1.555 1.259,2.841 2.814,2.841 h 17.493 c 1.555,0 2.841,-1.286 2.841,-2.841 v -17.467 c 0,-1.557 -1.286,-2.842 -2.841,-2.842 z m 0,1.684 h 17.493 c 0.645,0 1.157,0.514 1.157,1.158 v 17.467 c 0,0.646 -0.512,1.157 -1.157,1.157 h -17.493 c -0.646,0 -1.131,-0.512 -1.131,-1.157 v -17.467 c 0,-0.646 0.486,-1.158 1.131,-1.158 z" />
<path
   id="path115"
   fill="#f4f4f4"
   d="m 245.032,139.314 c -1.555,0 -2.842,1.285 -2.842,2.842 v 17.467 c 0,1.555 1.287,2.841 2.842,2.841 h 17.493 c 1.554,0 2.814,-1.286 2.814,-2.841 v -17.467 c 0,-1.556 -1.26,-2.842 -2.814,-2.842 z m 0,1.684 h 17.493 c 0.645,0 1.131,0.513 1.131,1.158 v 17.467 c 0,0.646 -0.487,1.157 -1.131,1.157 h -17.493 c -0.646,0 -1.158,-0.512 -1.158,-1.157 v -17.467 c 0,-0.646 0.511,-1.158 1.158,-1.158 z" />
<path
   id="path117"
   fill="#f4f4f4"
   d="m 269.704,139.314 c -1.554,0 -2.841,1.285 -2.841,2.842 v 17.467 c 0,1.555 1.286,2.841 2.841,2.841 h 17.493 c 1.554,0 2.841,-1.286 2.841,-2.841 v -17.467 c 0,-1.557 -1.286,-2.842 -2.841,-2.842 z m 0,1.684 h 17.493 c 0.646,0 1.157,0.514 1.157,1.158 v 17.467 c 0,0.646 -0.514,1.157 -1.157,1.157 h -17.493 c -0.646,0 -1.157,-0.512 -1.157,-1.157 v -17.467 c 0,-0.646 0.511,-1.158 1.157,-1.158 z" />
<path
   id="path119"
   fill="#f4f4f4"
   d="m 294.376,139.314 c -1.553,0 -2.813,1.285 -2.813,2.842 v 17.467 c 0,1.555 1.259,2.841 2.813,2.841 h 17.494 c 1.554,0 2.842,-1.286 2.842,-2.841 v -17.467 c 0,-1.557 -1.287,-2.842 -2.842,-2.842 z m 0,1.684 h 17.494 c 0.646,0 1.157,0.514 1.157,1.158 v 17.467 c 0,0.646 -0.514,1.157 -1.157,1.157 h -17.494 c -0.645,0 -1.13,-0.512 -1.13,-1.157 v -17.467 c 0,-0.646 0.486,-1.158 1.13,-1.158 z" />
<path
   id="path121"
   fill="#f4f4f4"
   d="m 319.084,139.314 c -1.556,0 -2.842,1.285 -2.842,2.842 v 17.467 c 0,1.555 1.284,2.841 2.842,2.841 h 17.493 c 1.554,0 2.814,-1.286 2.814,-2.841 v -17.467 c 0,-1.557 -1.26,-2.842 -2.814,-2.842 z m 0,1.684 h 17.493 c 0.645,0 1.13,0.514 1.13,1.158 v 17.467 c 0,0.646 -0.486,1.157 -1.13,1.157 h -17.493 c -0.646,0 -1.159,-0.512 -1.159,-1.157 v -17.467 c 0,-0.646 0.513,-1.158 1.159,-1.158 z" />
<path
   id="path123"
   fill="#f4f4f4"
   d="m 343.756,139.314 c -1.554,0 -2.841,1.285 -2.841,2.842 v 17.467 c 0,1.555 1.285,2.841 2.841,2.841 h 17.492 c 1.555,0 2.842,-1.286 2.842,-2.841 v -17.467 c 0,-1.556 -1.286,-2.842 -2.842,-2.842 z m 0,1.684 h 17.492 c 0.646,0 1.157,0.513 1.157,1.158 v 17.467 c 0,0.646 -0.512,1.157 -1.157,1.157 h -17.492 c -0.646,0 -1.158,-0.512 -1.158,-1.157 v -17.467 c 0,-0.646 0.513,-1.158 1.158,-1.158 z" />
<path
   id="path125"
   fill="#f4f4f4"
   d="m 450.638,139.314 c -1.555,0 -2.842,1.285 -2.842,2.842 v 17.467 c 0,1.555 1.286,2.841 2.842,2.841 h 31.75 c 1.555,0 2.842,-1.286 2.842,-2.841 v -17.467 c 0,-1.557 -1.286,-2.842 -2.842,-2.842 z m 0,1.684 h 31.75 c 0.646,0 1.158,0.514 1.158,1.158 v 17.467 c 0,0.646 -0.514,1.157 -1.158,1.157 h -31.75 c -0.647,0 -1.157,-0.512 -1.157,-1.157 v -17.467 c -10e-4,-0.646 0.51,-1.158 1.157,-1.158 z" />
<path
   id="path127"
   fill="#f4f4f4"
   d="m 369.11,139.314 c -1.555,0 -2.841,1.285 -2.841,2.842 v 17.467 c 0,1.555 1.285,2.841 2.841,2.841 h 41.063 c 1.554,0 2.814,-1.286 2.814,-2.841 v -17.467 c 0,-1.557 -1.261,-2.842 -2.814,-2.842 z m 0,1.684 h 41.063 c 0.646,0 1.132,0.514 1.132,1.158 v 17.467 c 0,0.646 -0.488,1.157 -1.132,1.157 H 369.11 c -0.646,0 -1.157,-0.512 -1.157,-1.157 v -17.467 c 0,-0.646 0.512,-1.158 1.157,-1.158 z" />
<path
   id="path129"
   fill="#f4f4f4"
   d="m 22.877,163.727 c -1.555,0 -2.841,1.26 -2.841,2.814 v 17.494 c 0,1.555 1.286,2.84 2.841,2.84 H 40.37 c 1.555,0 2.815,-1.284 2.815,-2.84 v -17.494 c 0,-1.555 -1.26,-2.814 -2.815,-2.814 z m 0,1.683 H 40.37 c 0.646,0 1.131,0.486 1.131,1.131 v 17.494 c 0,0.645 -0.485,1.157 -1.131,1.157 H 22.877 c -0.646,0 -1.158,-0.514 -1.158,-1.157 v -17.494 c 10e-4,-0.646 0.512,-1.131 1.158,-1.131 z" />
<path
   id="path131"
   fill="#f4f4f4"
   d="m 47.553,163.727 c -1.555,0 -2.841,1.26 -2.841,2.814 v 17.494 c 0,1.555 1.286,2.84 2.841,2.84 h 29.436 c 1.416,0 2.561,-1.083 2.762,-2.445 0,-0.009 0,-0.019 0,-0.026 0.003,-0.02 0.024,-0.034 0.026,-0.053 0.032,-0.084 0.049,-0.173 0.053,-0.263 0,-0.019 0,-0.036 0,-0.053 v -17.494 c 0,-1.555 -1.286,-2.814 -2.841,-2.814 z m 0,1.683 h 29.436 c 0.645,0 1.158,0.486 1.158,1.131 v 17.441 0.053 c 0,0.645 -0.513,1.157 -1.158,1.157 H 47.553 c -0.646,0 -1.158,-0.513 -1.158,-1.157 v -17.494 c 0,-0.646 0.511,-1.131 1.158,-1.131 z" />
<path
   id="path133"
   fill="#f4f4f4"
   d="m 84.196,163.727 c -1.555,0 -2.841,1.26 -2.841,2.814 v 17.494 c 0,1.555 1.286,2.84 2.841,2.84 h 17.493 c 1.555,0 2.814,-1.284 2.814,-2.84 v -17.494 c 0,-1.555 -1.259,-2.814 -2.814,-2.814 z m 0,1.683 h 17.493 c 0.645,0 1.131,0.486 1.131,1.131 v 17.494 c 0,0.645 -0.486,1.157 -1.131,1.157 H 84.196 c -0.646,0 -1.158,-0.514 -1.158,-1.157 v -17.494 c 0.001,-0.646 0.512,-1.131 1.158,-1.131 z" />
<path
   id="path135"
   fill="#f4f4f4"
   d="m 108.873,163.727 c -1.555,0 -2.841,1.26 -2.841,2.814 v 17.494 c 0,1.555 1.286,2.84 2.841,2.84 h 17.493 c 1.555,0 2.841,-1.284 2.841,-2.84 v -17.494 c 0,-1.555 -1.286,-2.814 -2.841,-2.814 z m 0,1.683 h 17.493 c 0.646,0 1.158,0.486 1.158,1.131 v 17.494 c 0,0.645 -0.512,1.157 -1.158,1.157 h -17.493 c -0.645,0 -1.158,-0.514 -1.158,-1.157 v -17.494 c 0,-0.646 0.512,-1.131 1.158,-1.131 z" />
<path
   id="path137"
   fill="#f4f4f4"
   d="m 133.571,163.727 c -1.555,0 -2.841,1.26 -2.841,2.814 v 17.494 c 0,1.555 1.286,2.84 2.841,2.84 h 17.467 c 1.555,0 2.841,-1.284 2.841,-2.84 v -17.494 c 0,-1.555 -1.286,-2.814 -2.841,-2.814 z m 0,1.683 h 17.467 c 0.646,0 1.158,0.485 1.158,1.131 v 17.494 c 0,0.645 -0.512,1.157 -1.158,1.157 h -17.467 c -0.646,0 -1.158,-0.514 -1.158,-1.157 v -17.494 c 0,-0.646 0.512,-1.131 1.158,-1.131 z" />
<path
   id="path139"
   fill="#f4f4f4"
   d="m 90.404,188.113 c -1.554,0 -2.841,1.284 -2.841,2.841 v 17.493 c 0,1.555 1.286,2.842 2.841,2.842 h 217.702 c 1.555,0 2.841,-1.286 2.841,-2.842 v -17.493 c 0,-1.555 -1.286,-2.841 -2.841,-2.841 z m 0,1.684 h 217.702 c 0.646,0 1.157,0.512 1.157,1.157 v 17.493 c 0,0.646 -0.513,1.157 -1.157,1.157 H 90.404 c -0.645,0 -1.157,-0.512 -1.157,-1.157 v -17.493 c 0,-0.646 0.511,-1.157 1.157,-1.157 z" />
<path
   id="path141"
   fill="#f4f4f4"
   d="m 158.244,163.727 c -1.555,0 -2.841,1.26 -2.841,2.814 v 17.494 c 0,1.554 1.285,2.84 2.841,2.84 h 17.493 c 1.555,0 2.815,-1.284 2.815,-2.84 v -17.494 c 0,-1.555 -1.26,-2.814 -2.815,-2.814 z m 0,1.683 h 17.493 c 0.646,0 1.132,0.486 1.132,1.131 v 17.494 c 0,0.645 -0.486,1.157 -1.132,1.157 h -17.493 c -0.646,0 -1.158,-0.513 -1.158,-1.157 v -17.494 c 0,-0.646 0.511,-1.131 1.158,-1.131 z" />
<path
   id="path143"
   fill="#f4f4f4"
   d="m 182.925,163.727 c -1.555,0 -2.841,1.26 -2.841,2.814 v 17.494 c 0,1.555 1.286,2.84 2.841,2.84 h 17.493 c 1.555,0 2.841,-1.284 2.841,-2.84 v -17.494 c 0,-1.555 -1.285,-2.814 -2.841,-2.814 z m 0,1.683 h 17.493 c 0.647,0 1.158,0.485 1.158,1.131 v 17.494 c 0,0.645 -0.512,1.157 -1.158,1.157 h -17.493 c -0.646,0 -1.158,-0.514 -1.158,-1.157 v -17.494 c 0,-0.646 0.512,-1.131 1.158,-1.131 z" />
<path
   id="path145"
   fill="#f4f4f4"
   d="m 207.623,163.727 c -1.554,0 -2.841,1.26 -2.841,2.814 v 17.494 c 0,1.554 1.286,2.84 2.841,2.84 h 17.466 c 1.555,0 2.841,-1.284 2.841,-2.84 v -17.494 c 0,-1.555 -1.286,-2.814 -2.841,-2.814 z m 0,1.683 h 17.466 c 0.646,0 1.158,0.486 1.158,1.131 v 17.494 c 0,0.645 -0.512,1.157 -1.158,1.157 h -17.466 c -0.646,0 -1.158,-0.513 -1.158,-1.157 v -17.494 c 0,-0.646 0.513,-1.131 1.158,-1.131 z" />
<path
   id="path147"
   fill="#f4f4f4"
   d="m 232.295,163.727 c -1.555,0 -2.841,1.26 -2.841,2.814 v 17.494 c 0,1.555 1.286,2.84 2.841,2.84 h 17.493 c 1.555,0 2.815,-1.284 2.815,-2.84 v -17.494 c 0,-1.555 -1.26,-2.814 -2.815,-2.814 z m 0,1.683 h 17.493 c 0.646,0 1.131,0.485 1.131,1.131 v 17.494 c 0,0.645 -0.485,1.157 -1.131,1.157 h -17.493 c -0.645,0 -1.158,-0.514 -1.158,-1.157 v -17.494 c 0.001,-0.646 0.512,-1.131 1.158,-1.131 z" />
<path
   id="path149"
   fill="#f4f4f4"
   d="m 256.976,163.727 c -1.553,0 -2.84,1.26 -2.84,2.814 v 17.494 c 0,1.554 1.286,2.84 2.84,2.84 h 17.494 c 1.555,0 2.841,-1.284 2.841,-2.84 v -17.494 c 0,-1.555 -1.286,-2.814 -2.841,-2.814 z m 0,1.683 h 17.494 c 0.646,0 1.157,0.486 1.157,1.131 v 17.494 c 0,0.645 -0.513,1.157 -1.157,1.157 h -17.494 c -0.645,0 -1.157,-0.513 -1.157,-1.157 v -17.494 c 0,-0.646 0.513,-1.131 1.157,-1.131 z" />
<path
   id="path151"
   fill="#f4f4f4"
   d="m 281.674,163.727 c -1.554,0 -2.841,1.259 -2.841,2.814 v 17.494 c 0,1.555 1.286,2.84 2.841,2.84 h 17.468 c 1.555,0 2.841,-1.284 2.841,-2.84 v -17.494 c 0,-1.555 -1.286,-2.814 -2.841,-2.814 z m 0,1.683 h 17.468 c 0.646,0 1.157,0.486 1.157,1.131 v 17.494 c 0,0.645 -0.513,1.157 -1.157,1.157 h -17.468 c -0.646,0 -1.156,-0.514 -1.156,-1.157 v -17.494 c 0,-0.646 0.511,-1.131 1.156,-1.131 z" />
<path
   id="path153"
   fill="#f4f4f4"
   d="m 306.347,163.727 c -1.554,0 -2.842,1.259 -2.842,2.814 v 17.494 c 0,1.555 1.287,2.84 2.842,2.84 h 17.493 c 1.555,0 2.813,-1.284 2.813,-2.84 v -17.494 c 0,-1.555 -1.258,-2.814 -2.813,-2.814 z m 0,1.683 h 17.493 c 0.646,0 1.132,0.486 1.132,1.131 v 17.494 c 0,0.645 -0.487,1.157 -1.132,1.157 h -17.493 c -0.646,0 -1.157,-0.514 -1.157,-1.157 v -17.494 c -10e-4,-0.646 0.512,-1.131 1.157,-1.131 z" />
<path
   id="path155"
   fill="#f4f4f4"
   d="m 331.02,163.727 c -1.554,0 -2.842,1.259 -2.842,2.814 v 17.494 c 0,1.555 1.286,2.84 2.842,2.84 h 30.436 c 1.556,0 2.841,-1.284 2.841,-2.84 v -17.494 c 0,-1.555 -1.285,-2.814 -2.841,-2.814 z m 0,1.683 h 30.436 c 0.646,0 1.157,0.486 1.157,1.131 v 17.494 c 0,0.645 -0.513,1.157 -1.157,1.157 H 331.02 c -0.646,0 -1.157,-0.514 -1.157,-1.157 v -17.494 c -10e-4,-0.646 0.512,-1.131 1.157,-1.131 z" />
<path
   id="path157"
   fill="#f4f4f4"
   d="m 368.008,163.727 c -1.554,0 -2.842,1.26 -2.842,2.814 v 17.494 c 0,1.554 1.287,2.84 2.842,2.84 h 17.467 c 1.554,0 2.841,-1.284 2.841,-2.84 v -17.494 c 0,-1.555 -1.286,-2.814 -2.841,-2.814 z m 0,1.683 h 17.467 c 0.646,0 1.157,0.485 1.157,1.131 v 17.494 c 0,0.645 -0.512,1.157 -1.157,1.157 h -17.467 c -0.646,0 -1.157,-0.513 -1.157,-1.157 v -17.494 c 0,-0.646 0.512,-1.131 1.157,-1.131 z" />
<path
   id="path159"
   fill="#f4f4f4"
   d="m 450.638,163.727 c -1.555,0 -2.842,1.26 -2.842,2.814 v 17.494 c 0,1.554 1.286,2.84 2.842,2.84 h 31.75 c 1.555,0 2.842,-1.284 2.842,-2.84 v -17.494 c 0,-1.555 -1.286,-2.814 -2.842,-2.814 z m 0,1.683 h 31.75 c 0.646,0 1.158,0.486 1.158,1.131 v 17.494 c 0,0.645 -0.514,1.157 -1.158,1.157 h -31.75 c -0.647,0 -1.157,-0.513 -1.157,-1.157 v -17.494 c -10e-4,-0.646 0.51,-1.131 1.157,-1.131 z" />
<path
   id="path161"
   fill="#f4f4f4"
   d="m 392.681,163.727 c -1.554,0 -2.842,1.26 -2.842,2.814 v 17.494 c 0,1.554 1.285,2.84 2.842,2.84 h 17.493 c 1.554,0 2.814,-1.284 2.814,-2.84 v -17.494 c 0,-1.555 -1.261,-2.814 -2.814,-2.814 z m 0,1.683 h 17.493 c 0.646,0 1.132,0.486 1.132,1.131 v 17.494 c 0,0.645 -0.488,1.157 -1.132,1.157 h -17.493 c -0.646,0 -1.158,-0.513 -1.158,-1.157 v -17.494 c -0.001,-0.646 0.511,-1.131 1.158,-1.131 z" />
<path
   id="path163"
   fill="#f4f4f4"
   d="m 399.76,90.491 c -1.555,0 -2.841,1.285 -2.841,2.841 v 17.494 c 0,1.555 1.285,2.84 2.841,2.84 h 17.493 c 1.555,0 2.842,-1.285 2.842,-2.84 V 93.332 c 0,-1.556 -1.287,-2.841 -2.842,-2.841 z m 0,1.684 h 17.493 c 0.647,0 1.157,0.511 1.157,1.158 v 17.494 c 0,0.645 -0.511,1.157 -1.157,1.157 H 399.76 c -0.646,0 -1.157,-0.514 -1.157,-1.157 V 93.333 c 0,-0.646 0.512,-1.158 1.157,-1.158 z" />
<path
   id="path165"
   fill="#f4f4f4"
   d="m 450.638,90.491 c -1.555,0 -2.842,1.285 -2.842,2.841 v 17.494 c 0,1.554 1.286,2.84 2.842,2.84 h 31.75 c 1.555,0 2.842,-1.284 2.842,-2.84 V 93.332 c 0,-1.556 -1.286,-2.841 -2.842,-2.841 z m 0,1.684 h 31.75 c 0.646,0 1.158,0.511 1.158,1.158 v 17.494 c 0,0.644 -0.514,1.157 -1.158,1.157 h -31.75 c -0.647,0 -1.157,-0.513 -1.157,-1.157 V 93.333 c -10e-4,-0.647 0.51,-1.158 1.157,-1.158 z" />
<path
   id="polygon167"
   fill="#f4f4f4"
   d="m 24.666,87.73 c -0.434,0.041 -0.764,0.406 -0.763,0.841 v 47.982 h -5.787 c -0.465,0 -0.842,0.377 -0.842,0.843 v 52.11 c 0,0.465 0.376,0.841 0.842,0.841 h 66.238 v 23.07 c 0,0.466 0.377,0.843 0.842,0.843 h 227.466 c 0.465,0 0.843,-0.377 0.843,-0.843 V 190.032 H 414.94 c 0.466,0 0.842,-0.377 0.842,-0.842 v -47.98 h 6.444 c 0.466,0 0.843,-0.377 0.843,-0.842 V 88.572 c 0,-0.465 -0.377,-0.841 -0.843,-0.841 H 24.744 C 24.718,87.729 24.691,87.729 24.666,87.73 Z m 0.92,1.684 h 395.799 v 50.112 h -6.446 c -0.463,0 -0.841,0.376 -0.841,0.842 v 47.98 H 312.663 c -0.465,0 -0.841,0.378 -0.841,0.843 v 23.386 H 86.038 v -23.07 c 0,-0.465 -0.377,-0.842 -0.842,-0.842 H 18.958 v -50.427 h 5.788 c 0.465,0 0.841,-0.378 0.841,-0.842 z" />
<path
   id="rect169"
   fill="#f4f4f4"
   d="m 446.219,88.235 c -0.424,0.054 -0.741,0.416 -0.737,0.842 v 99.617 c 0,0.465 0.377,0.842 0.842,0.842 h 40.168 c 0.466,0 0.843,-0.377 0.843,-0.842 V 89.077 c 0,-0.465 -0.377,-0.842 -0.843,-0.842 h -40.168 c -0.036,-0.002 -0.072,-0.002 -0.105,0 z m 0.946,1.684 h 38.485 v 97.934 h -38.485 z" />
<path
   id="path171"
   fill="#f4f4f4"
   d="m 13.802,79 c -2.105,0 -3.84,1.709 -3.84,3.814 v 137.472 c 0,2.106 1.734,3.841 3.84,3.841 h 502.411 c 2.104,0 3.813,-1.734 3.813,-3.841 V 82.813 c 0,-2.105 -1.709,-3.813 -3.813,-3.813 z m 0,1.683 h 502.411 c 1.195,0 2.13,0.935 2.13,2.13 v 137.472 c 0,1.196 -0.935,2.158 -2.13,2.158 H 13.802 c -1.196,0 -2.157,-0.962 -2.157,-2.158 V 82.813 c 0,-1.196 0.96,-2.13 2.157,-2.13 z" />
<path
   id="line173"
   fill="#f4f4f4"
   d="m 522.29,38.857 c -0.465,0 -0.842,0.376 -0.842,0.841 0,0.009 0,0.018 0,0.027 v 2.92 c -0.008,0.465 0.364,0.847 0.83,0.854 0.463,0.006 0.847,-0.366 0.853,-0.83 0,-0.008 0,-0.016 0,-0.024 v -2.92 c 0.016,-0.465 -0.351,-0.854 -0.814,-0.867 -0.009,-10e-4 -0.018,-10e-4 -0.027,-10e-4 z" />
<path
   id="line175"
   fill="#f4f4f4"
   d="m 522.29,34.91 c -0.465,0 -0.842,0.377 -0.842,0.841 0,0.009 0,0.018 0,0.027 v 2.105 c -0.008,0.465 0.364,0.846 0.83,0.853 0.463,0.007 0.847,-0.365 0.853,-0.83 0,-0.008 0,-0.016 0,-0.023 v -2.105 c 0.016,-0.465 -0.351,-0.854 -0.814,-0.868 -0.009,0 -0.018,0 -0.027,0 z" />
<path
   id="line177"
   fill="#f4f4f4"
   d="m 522.188,29.859 c -0.423,0.054 -0.737,0.415 -0.735,0.842 v 3.288 c -0.006,0.465 0.364,0.847 0.83,0.854 0.465,0.006 0.848,-0.365 0.854,-0.83 0,-0.008 0,-0.016 0,-0.024 v -3.288 c 0.004,-0.465 -0.37,-0.845 -0.835,-0.848 -0.038,0 -0.076,10e-4 -0.114,0.006 z" />
<path
   id="line179"
   fill="#f4f4f4"
   d="m 522.29,24.993 c -0.465,0 -0.842,0.377 -0.842,0.842 0,0.009 0,0.017 0,0.026 v 3.156 c -0.008,0.465 0.364,0.848 0.83,0.854 0.463,0.007 0.847,-0.365 0.853,-0.83 0,-0.008 0,-0.016 0,-0.024 v -3.156 c 0.016,-0.465 -0.351,-0.854 -0.814,-0.868 -0.009,0 -0.018,0 -0.027,0 z" />
<path
   id="line181"
   fill="#f4f4f4"
   d="m 522.188,20.389 c -0.432,0.055 -0.752,0.432 -0.735,0.868 v 2.946 c -0.006,0.465 0.364,0.848 0.83,0.854 0.465,0.007 0.848,-0.365 0.854,-0.83 0,-0.008 0,-0.016 0,-0.024 v -2.946 c 0.019,-0.464 -0.344,-0.855 -0.808,-0.874 -0.048,-10e-4 -0.095,0 -0.141,0.006 z" />
<path
   id="line183"
   fill="#f4f4f4"
   d="m 522.29,16.208 c -0.465,0 -0.842,0.376 -0.842,0.841 0,0.009 0,0.018 0,0.026 v 2.315 c -0.008,0.465 0.364,0.848 0.83,0.854 0.463,0.007 0.847,-0.365 0.853,-0.83 0,-0.009 0,-0.016 0,-0.024 v -2.315 c 0.016,-0.465 -0.351,-0.853 -0.814,-0.867 -0.009,0 -0.018,0 -0.027,0 z" />
<path
   id="line185"
   fill="#f4f4f4"
   d="m 6.2,16.208 c -0.424,0.053 -0.74,0.415 -0.737,0.841 v 2.368 c -0.007,0.465 0.365,0.847 0.83,0.854 0.465,0.006 0.847,-0.365 0.854,-0.83 0,-0.008 0,-0.016 0,-0.024 V 17.049 C 7.15,16.584 6.776,16.205 6.312,16.201 6.274,16.2 6.236,16.203 6.2,16.208 Z" />
<path
   id="line187"
   fill="#f4f4f4"
   d="m 6.12,20.363 c -0.391,0.087 -0.667,0.44 -0.657,0.842 v 2.999 c -0.007,0.465 0.365,0.847 0.83,0.854 0.465,0.007 0.847,-0.365 0.854,-0.83 0,-0.009 0,-0.016 0,-0.024 V 21.205 C 7.159,20.74 6.791,20.353 6.326,20.343 6.256,20.341 6.188,20.348 6.12,20.363 Z" />
<path
   id="line189"
   fill="#f4f4f4"
   d="m 6.12,25.388 c -0.391,0.088 -0.667,0.44 -0.657,0.842 v 2.736 c -0.007,0.465 0.365,0.847 0.83,0.854 0.465,0.007 0.847,-0.365 0.854,-0.829 0,-0.008 0,-0.017 0,-0.024 V 26.231 C 7.159,25.766 6.791,25.381 6.326,25.369 6.256,25.366 6.188,25.374 6.12,25.388 Z" />
<path
   id="line191"
   fill="#f4f4f4"
   d="m 6.12,29.913 c -0.391,0.088 -0.667,0.44 -0.657,0.841 v 3.078 c -0.007,0.465 0.365,0.848 0.83,0.854 0.465,0.007 0.847,-0.365 0.854,-0.83 0,-0.008 0,-0.016 0,-0.024 V 30.754 C 7.159,30.29 6.791,29.903 6.326,29.893 6.256,29.891 6.188,29.897 6.12,29.913 Z" />
<path
   id="line193"
   fill="#f4f4f4"
   d="m 6.12,35.016 c -0.391,0.088 -0.667,0.44 -0.657,0.842 v 2.131 c -0.007,0.465 0.365,0.847 0.83,0.854 0.465,0.006 0.847,-0.366 0.854,-0.83 0,-0.008 0,-0.016 0,-0.024 V 35.858 C 7.159,35.393 6.791,35.007 6.326,34.996 6.256,34.995 6.188,35.001 6.12,35.016 Z" />
<path
   id="line195"
   fill="#f4f4f4"
   d="m 6.2,39.119 c -0.424,0.054 -0.74,0.415 -0.737,0.842 v 2.5 c -0.007,0.465 0.365,0.846 0.83,0.854 0.465,0.006 0.847,-0.365 0.854,-0.831 0,-0.008 0,-0.016 0,-0.023 v -2.5 C 7.15,39.497 6.776,39.115 6.312,39.112 c -0.038,0 -0.076,0.002 -0.112,0.007 z" />
<path
   id="circle197"
   fill="#f4f4f4"
   d="m 467.337,22.6 c -2.715,0 -4.944,2.203 -4.944,4.919 0,2.716 2.229,4.945 4.944,4.945 2.719,0 4.946,-2.229 4.946,-4.945 0,-2.717 -2.227,-4.919 -4.946,-4.919 z m 0,1.683 c 1.808,0 3.262,1.429 3.262,3.236 0,1.807 -1.454,3.262 -3.262,3.262 -1.806,0 -3.261,-1.455 -3.261,-3.262 0,-1.807 1.455,-3.236 3.261,-3.236 z" />
</svg>
