<?xml version="1.0" encoding="UTF-8" standalone="no"?>
<!-- Generator: Adobe Illustrator 13.0.0, SVG Export Plug-In . SVG Version: 6.00 Build 14948)  -->

<svg
   version="1.2"
   id="Layer_3"
   x="0px"
   y="0px"
   width="580.18903"
   height="259.26001"
   viewBox="0 0 580.189 259.26"
   xml:space="preserve"
   sodipodi:docname="pc.svg"
   inkscape:version="1.2.2 (732a01da63, 2022-12-09)"
   xmlns:inkscape="http://www.inkscape.org/namespaces/inkscape"
   xmlns:sodipodi="http://sodipodi.sourceforge.net/DTD/sodipodi-0.dtd"
   xmlns="http://www.w3.org/2000/svg"
   xmlns:svg="http://www.w3.org/2000/svg"
   xmlns:rdf="http://www.w3.org/1999/02/22-rdf-syntax-ns#"
   xmlns:cc="http://creativecommons.org/ns#"
   xmlns:dc="http://purl.org/dc/elements/1.1/"
   xmlns:ns0="&amp;ns_sfw;"><defs
   id="defs3256" /><sodipodi:namedview
   id="namedview3254"
   pagecolor="#000000"
   bordercolor="#111111"
   borderopacity="1"
   inkscape:showpageshadow="0"
   inkscape:pageopacity="0"
   inkscape:pagecheckerboard="1"
   inkscape:deskcolor="#d1d1d1"
   showgrid="false"
   inkscape:zoom="2.0445042"
   inkscape:cx="299.58363"
   inkscape:cy="175.10357"
   inkscape:window-width="1920"
   inkscape:window-height="1009"
   inkscape:window-x="-8"
   inkscape:window-y="-8"
   inkscape:window-maximized="1"
   inkscape:current-layer="Layer_3" />
<metadata
   id="metadata55">
	<rdf:RDF>
		<cc:Work
   rdf:about="">
			<dc:format>image/svg+xml</dc:format>
			<dc:type
   rdf:resource="http://purl.org/dc/dcmitype/StillImage" />
			
		</cc:Work>
	</rdf:RDF>
	<ns0:sfw>
		<ns0:slices />
		<ns0:sliceSourceBounds
   x="-7231"
   y="-7652"
   width="16383"
   height="16383"
   bottomLeftOrigin="true" />
	</ns0:sfw>
</metadata>
<path
   id="circle3"
   fill="#f4f4f4"
   d="m 114.456,42.856 c -39.209,0 -71.001,31.792 -71.001,71.001 0,39.209 31.792,71.031 71.001,71.031 39.208,0 71.031,-31.822 71.031,-71.031 0,-39.209 -31.823,-71.001 -71.031,-71.001 z m 0,1.891 c 38.187,0 69.14,30.923 69.14,69.11 0,38.187 -30.953,69.14 -69.14,69.14 -38.187,0 -69.11,-30.953 -69.11,-69.14 -10e-4,-38.187 30.923,-69.11 69.11,-69.11 z" />
<path
   id="circle5"
   fill="#f4f4f4"
   d="m 114.456,58.279 c -30.683,0 -55.548,24.896 -55.548,55.578 0,30.682 24.866,55.578 55.548,55.578 30.682,0 55.578,-24.896 55.578,-55.578 0,-30.682 -24.896,-55.578 -55.578,-55.578 z m 0,1.891 c 29.66,0 53.687,24.026 53.687,53.687 0,29.66 -24.026,53.687 -53.687,53.687 -29.661,0 -53.657,-24.026 -53.657,-53.687 C 60.798,84.197 84.795,60.17 114.456,60.17 Z" />
<path
   id="circle7"
   fill="#f4f4f4"
   d="m 114.456,100.738 c -7.234,0 -13.119,5.885 -13.119,13.119 0,7.234 5.885,13.119 13.119,13.119 7.234,0 13.119,-5.884 13.119,-13.119 0,-7.235 -5.885,-13.119 -13.119,-13.119 z m 0,1.891 c 6.212,0 11.228,5.016 11.228,11.228 0,6.212 -5.016,11.228 -11.228,11.228 -6.212,0 -11.228,-5.016 -11.228,-11.228 0,-6.212 5.015,-11.228 11.228,-11.228 z" />
<path
   id="circle9"
   fill="#f4f4f4"
   d="m 491.119,55.532 c -2.552,0 -4.639,2.087 -4.639,4.639 0,2.552 2.087,4.639 4.639,4.639 2.553,0 4.64,-2.087 4.64,-4.639 0,-2.552 -2.087,-4.639 -4.64,-4.639 z m 0,1.891 c 1.529,0 2.748,1.218 2.748,2.748 0,1.53 -1.219,2.748 -2.748,2.748 -1.53,0 -2.747,-1.218 -2.747,-2.748 0,-1.53 1.217,-2.748 2.747,-2.748 z" />
<path
   id="circle11"
   fill="#f4f4f4"
   d="m 505.656,46.579 c -2.552,0 -4.668,2.087 -4.668,4.639 0,2.552 2.116,4.639 4.668,4.639 2.553,0 4.64,-2.087 4.64,-4.639 0,-2.552 -2.087,-4.639 -4.64,-4.639 z m 0,1.891 c 1.529,0 2.748,1.218 2.748,2.748 0,1.53 -1.219,2.748 -2.748,2.748 -1.53,0 -2.777,-1.218 -2.777,-2.748 0,-1.53 1.247,-2.748 2.777,-2.748 z" />
<path
   id="circle13"
   fill="#f4f4f4"
   d="m 525.275,58.22 c -2.552,0 -4.639,2.087 -4.639,4.639 0,2.552 2.087,4.639 4.639,4.639 2.553,0 4.64,-2.087 4.64,-4.639 0,-2.552 -2.087,-4.639 -4.64,-4.639 z m 0,1.891 c 1.529,0 2.748,1.218 2.748,2.748 0,1.53 -1.219,2.748 -2.748,2.748 -1.53,0 -2.747,-1.218 -2.747,-2.748 0,-1.53 1.217,-2.748 2.747,-2.748 z" />
<path
   id="circle15"
   fill="#f4f4f4"
   d="m 541.763,73.969 c -2.552,0 -4.639,2.087 -4.639,4.639 0,2.551 2.087,4.639 4.639,4.639 2.553,0 4.639,-2.087 4.639,-4.639 -0.001,-2.552 -2.087,-4.639 -4.639,-4.639 z m 0,1.891 c 1.529,0 2.748,1.218 2.748,2.748 0,1.53 -1.219,2.748 -2.748,2.748 -1.531,0 -2.748,-1.218 -2.748,-2.748 0,-1.53 1.216,-2.748 2.748,-2.748 z" />
<path
   id="circle17"
   fill="#f4f4f4"
   d="m 554.32,93.027 c -2.552,0 -4.639,2.117 -4.639,4.668 0,2.551 2.087,4.639 4.639,4.639 2.552,0 4.639,-2.087 4.639,-4.639 0,-2.551 -2.087,-4.668 -4.639,-4.668 z m 0,1.89 c 1.529,0 2.748,1.248 2.748,2.778 0,1.53 -1.219,2.748 -2.748,2.748 -1.531,0 -2.748,-1.218 -2.748,-2.748 0,-1.53 1.217,-2.778 2.748,-2.778 z" />
<path
   id="circle19"
   fill="#f4f4f4"
   d="m 562.239,114.448 c -2.553,0 -4.64,2.087 -4.64,4.639 0,2.552 2.087,4.639 4.64,4.639 2.552,0 4.639,-2.087 4.639,-4.639 0,-2.552 -2.087,-4.639 -4.639,-4.639 z m 0,1.891 c 1.528,0 2.747,1.218 2.747,2.748 0,1.53 -1.219,2.748 -2.747,2.748 -1.531,0 -2.748,-1.218 -2.748,-2.748 0,-1.53 1.217,-2.748 2.748,-2.748 z" />
<path
   id="circle21"
   fill="#f4f4f4"
   d="m 565.135,137.081 c -2.553,0 -4.64,2.088 -4.64,4.639 0,2.551 2.087,4.64 4.64,4.64 2.552,0 4.639,-2.089 4.639,-4.64 0,-2.551 -2.087,-4.639 -4.639,-4.639 z m 0,1.891 c 1.528,0 2.747,1.219 2.747,2.748 0,1.53 -1.219,2.748 -2.747,2.748 -1.531,0 -2.748,-1.218 -2.748,-2.748 0,-1.53 1.217,-2.748 2.748,-2.748 z" />
<path
   id="circle23"
   fill="#f4f4f4"
   d="m 562.889,159.773 c -2.552,0 -4.639,2.087 -4.639,4.639 0,2.551 2.087,4.64 4.639,4.64 2.553,0 4.639,-2.089 4.639,-4.64 -10e-4,-2.552 -2.087,-4.639 -4.639,-4.639 z m 0,1.892 c 1.529,0 2.748,1.217 2.748,2.747 0,1.529 -1.219,2.748 -2.748,2.748 -1.53,0 -2.748,-1.219 -2.748,-2.748 0,-1.53 1.217,-2.747 2.748,-2.747 z" />
<path
   id="circle25"
   fill="#f4f4f4"
   d="m 555.562,181.402 c -2.553,0 -4.639,2.086 -4.639,4.639 0,2.55 2.086,4.639 4.639,4.639 2.552,0 4.639,-2.089 4.639,-4.639 -10e-4,-2.553 -2.088,-4.639 -4.639,-4.639 z m 0,1.891 c 1.529,0 2.748,1.217 2.748,2.748 0,1.528 -1.219,2.748 -2.748,2.748 -1.531,0 -2.748,-1.22 -2.748,-2.748 -10e-4,-1.531 1.216,-2.748 2.748,-2.748 z" />
<path
   id="circle27"
   fill="#f4f4f4"
   d="m 543.595,200.814 c -2.552,0 -4.639,2.087 -4.639,4.639 0,2.55 2.087,4.639 4.639,4.639 2.552,0 4.639,-2.089 4.639,-4.639 -0.001,-2.552 -2.088,-4.639 -4.639,-4.639 z m 0,1.891 c 1.529,0 2.748,1.217 2.748,2.748 0,1.529 -1.219,2.748 -2.748,2.748 -1.531,0 -2.748,-1.219 -2.748,-2.748 0,-1.531 1.216,-2.748 2.748,-2.748 z" />
<path
   id="circle29"
   fill="#f4f4f4"
   d="m 527.551,217.035 c -2.552,0 -4.639,2.087 -4.639,4.64 0,2.55 2.087,4.639 4.639,4.639 2.552,0 4.639,-2.089 4.639,-4.639 -0.001,-2.553 -2.087,-4.64 -4.639,-4.64 z m 0,1.892 c 1.529,0 2.748,1.217 2.748,2.748 0,1.528 -1.219,2.747 -2.748,2.747 -1.531,0 -2.748,-1.219 -2.748,-2.747 0,-1.531 1.217,-2.748 2.748,-2.748 z" />
<path
   id="circle31"
   fill="#f4f4f4"
   d="m 508.257,229.238 c -2.553,0 -4.639,2.087 -4.639,4.639 0,2.551 2.086,4.64 4.639,4.64 2.552,0 4.639,-2.089 4.639,-4.64 0,-2.552 -2.087,-4.639 -4.639,-4.639 z m 0,1.891 c 1.529,0 2.748,1.218 2.748,2.748 0,1.529 -1.219,2.748 -2.748,2.748 -1.531,0 -2.748,-1.219 -2.748,-2.748 0,-1.53 1.217,-2.748 2.748,-2.748 z" />
<path
   id="circle33"
   fill="#f4f4f4"
   d="m 509.113,63.687 c -2.552,0 -4.639,2.087 -4.639,4.639 0,2.552 2.087,4.639 4.639,4.639 2.553,0 4.639,-2.087 4.639,-4.639 0,-2.552 -2.086,-4.639 -4.639,-4.639 z m 0,1.891 c 1.529,0 2.748,1.218 2.748,2.748 0,1.53 -1.219,2.748 -2.748,2.748 -1.53,0 -2.748,-1.218 -2.748,-2.748 0,-1.531 1.218,-2.748 2.748,-2.748 z" />
<path
   id="circle35"
   fill="#f4f4f4"
   d="m 524.803,75.683 c -2.552,0 -4.639,2.087 -4.639,4.639 0,2.552 2.087,4.639 4.639,4.639 2.552,0 4.639,-2.087 4.639,-4.639 -10e-4,-2.552 -2.088,-4.639 -4.639,-4.639 z m 0,1.891 c 1.529,0 2.748,1.218 2.748,2.748 0,1.53 -1.219,2.748 -2.748,2.748 -1.53,0 -2.748,-1.218 -2.748,-2.748 0,-1.53 1.217,-2.748 2.748,-2.748 z" />
<path
   id="circle37"
   fill="#f4f4f4"
   d="m 537.39,90.87 c -2.552,0 -4.639,2.087 -4.639,4.639 0,2.551 2.087,4.639 4.639,4.639 2.553,0 4.639,-2.087 4.639,-4.639 -10e-4,-2.552 -2.087,-4.639 -4.639,-4.639 z m 0,1.891 c 1.529,0 2.748,1.218 2.748,2.748 0,1.53 -1.219,2.748 -2.748,2.748 -1.53,0 -2.748,-1.218 -2.748,-2.748 0,-1.53 1.217,-2.748 2.748,-2.748 z" />
<path
   id="circle39"
   fill="#f4f4f4"
   d="m 546.225,108.539 c -2.552,0 -4.639,2.087 -4.639,4.639 0,2.552 2.087,4.639 4.639,4.639 2.552,0 4.639,-2.087 4.639,-4.639 0,-2.552 -2.088,-4.639 -4.639,-4.639 z m 0,1.891 c 1.528,0 2.748,1.218 2.748,2.748 0,1.53 -1.22,2.748 -2.748,2.748 -1.531,0 -2.748,-1.218 -2.748,-2.748 0,-1.531 1.216,-2.748 2.748,-2.748 z" />
<path
   id="circle41"
   fill="#f4f4f4"
   d="m 550.863,127.715 c -2.552,0 -4.639,2.087 -4.639,4.639 0,2.552 2.087,4.639 4.639,4.639 2.552,0 4.639,-2.087 4.639,-4.639 0,-2.552 -2.087,-4.639 -4.639,-4.639 z m 0,1.89 c 1.529,0 2.748,1.218 2.748,2.748 0,1.53 -1.219,2.748 -2.748,2.748 -1.531,0 -2.748,-1.218 -2.748,-2.748 0,-1.529 1.217,-2.748 2.748,-2.748 z" />
<path
   id="circle43"
   fill="#f4f4f4"
   d="m 551.1,147.452 c -2.552,0 -4.639,2.087 -4.639,4.639 0,2.551 2.087,4.64 4.639,4.64 2.552,0 4.639,-2.089 4.639,-4.64 -10e-4,-2.552 -2.088,-4.639 -4.639,-4.639 z m 0,1.892 c 1.529,0 2.748,1.217 2.748,2.747 0,1.529 -1.219,2.748 -2.748,2.748 -1.531,0 -2.748,-1.219 -2.748,-2.748 0,-1.53 1.216,-2.747 2.748,-2.747 z" />
<path
   id="circle45"
   fill="#f4f4f4"
   d="m 546.845,166.717 c -2.552,0 -4.639,2.087 -4.639,4.64 0,2.55 2.087,4.668 4.639,4.668 2.553,0 4.639,-2.118 4.639,-4.668 -0.001,-2.553 -2.087,-4.64 -4.639,-4.64 z m 0,1.891 c 1.529,0 2.748,1.217 2.748,2.748 0,1.528 -1.219,2.777 -2.748,2.777 -1.531,0 -2.748,-1.249 -2.748,-2.777 0,-1.531 1.216,-2.748 2.748,-2.748 z" />
<path
   id="circle47"
   fill="#f4f4f4"
   d="m 538.395,184.563 c -2.552,0 -4.639,2.087 -4.639,4.639 0,2.551 2.087,4.639 4.639,4.639 2.552,0 4.639,-2.088 4.639,-4.639 -10e-4,-2.552 -2.088,-4.639 -4.639,-4.639 z m 0,1.891 c 1.529,0 2.748,1.218 2.748,2.748 0,1.529 -1.219,2.748 -2.748,2.748 -1.531,0 -2.748,-1.219 -2.748,-2.748 -0.001,-1.53 1.216,-2.748 2.748,-2.748 z" />
<path
   id="circle49"
   fill="#f4f4f4"
   d="m 526.133,200.046 c -2.553,0 -4.64,2.087 -4.64,4.639 0,2.551 2.087,4.64 4.64,4.64 2.552,0 4.639,-2.089 4.639,-4.64 -0.001,-2.552 -2.087,-4.639 -4.639,-4.639 z m 0,1.891 c 1.528,0 2.747,1.218 2.747,2.748 0,1.529 -1.219,2.748 -2.747,2.748 -1.531,0 -2.748,-1.219 -2.748,-2.748 0,-1.531 1.217,-2.748 2.748,-2.748 z" />
<path
   id="circle51"
   fill="#f4f4f4"
   d="m 510.709,212.367 c -2.552,0 -4.639,2.087 -4.639,4.639 0,2.551 2.087,4.639 4.639,4.639 2.552,0 4.639,-2.088 4.639,-4.639 0,-2.552 -2.087,-4.639 -4.639,-4.639 z m 0,1.891 c 1.529,0 2.748,1.217 2.748,2.748 0,1.529 -1.219,2.748 -2.748,2.748 -1.531,0 -2.748,-1.219 -2.748,-2.748 0,-1.531 1.217,-2.748 2.748,-2.748 z" />
<path
   id="circle53"
   fill="#f4f4f4"
   d="m 492.922,220.906 c -2.552,0 -4.639,2.087 -4.639,4.639 0,2.551 2.087,4.639 4.639,4.639 2.552,0 4.639,-2.088 4.639,-4.639 0,-2.552 -2.087,-4.639 -4.639,-4.639 z m 0,1.891 c 1.529,0 2.748,1.217 2.748,2.748 0,1.529 -1.219,2.748 -2.748,2.748 -1.531,0 -2.748,-1.219 -2.748,-2.748 0,-1.531 1.217,-2.748 2.748,-2.748 z" />
<path
   id="circle55"
   fill="#f4f4f4"
   d="m 88.897,25.837 c -2.552,0 -4.639,2.117 -4.639,4.668 0,2.551 2.087,4.639 4.639,4.639 2.552,0 4.639,-2.087 4.639,-4.639 0,-2.552 -2.087,-4.668 -4.639,-4.668 z m 0,1.891 c 1.53,0 2.748,1.248 2.748,2.777 0,1.529 -1.218,2.748 -2.748,2.748 -1.53,0 -2.748,-1.218 -2.748,-2.748 0,-1.53 1.218,-2.777 2.748,-2.777 z" />
<path
   id="circle57"
   fill="#f4f4f4"
   d="m 74.36,16.884 c -2.552,0 -4.639,2.087 -4.639,4.639 0,2.552 2.087,4.639 4.639,4.639 2.552,0 4.639,-2.087 4.639,-4.639 0,-2.551 -2.087,-4.639 -4.639,-4.639 z m 0,1.891 c 1.53,0 2.748,1.218 2.748,2.748 0,1.53 -1.218,2.748 -2.748,2.748 -1.53,0 -2.748,-1.218 -2.748,-2.748 0,-1.53 1.218,-2.748 2.748,-2.748 z" />
<path
   id="circle59"
   fill="#f4f4f4"
   d="m 54.741,28.526 c -2.552,0 -4.639,2.087 -4.639,4.639 0,2.552 2.087,4.639 4.639,4.639 2.552,0 4.639,-2.087 4.639,-4.639 0,-2.552 -2.087,-4.639 -4.639,-4.639 z m 0,1.891 c 1.53,0 2.748,1.218 2.748,2.748 0,1.53 -1.218,2.748 -2.748,2.748 -1.53,0 -2.748,-1.218 -2.748,-2.748 0,-1.53 1.218,-2.748 2.748,-2.748 z" />
<path
   id="circle61"
   fill="#f4f4f4"
   d="m 38.254,44.274 c -2.552,0 -4.639,2.087 -4.639,4.639 0,2.552 2.087,4.639 4.639,4.639 2.552,0 4.639,-2.087 4.639,-4.639 0,-2.552 -2.087,-4.639 -4.639,-4.639 z m 0,1.891 c 1.53,0 2.748,1.218 2.748,2.748 0,1.53 -1.218,2.748 -2.748,2.748 -1.53,0 -2.748,-1.218 -2.748,-2.748 0,-1.53 1.218,-2.748 2.748,-2.748 z" />
<path
   id="circle63"
   fill="#f4f4f4"
   d="m 25.696,63.361 c -2.552,0 -4.639,2.087 -4.639,4.639 0,2.552 2.087,4.639 4.639,4.639 2.552,0 4.639,-2.087 4.639,-4.639 0,-2.552 -2.087,-4.639 -4.639,-4.639 z m 0,1.891 c 1.53,0 2.748,1.218 2.748,2.748 0,1.53 -1.218,2.748 -2.748,2.748 -1.53,0 -2.748,-1.218 -2.748,-2.748 0,-1.53 1.219,-2.748 2.748,-2.748 z" />
<path
   id="circle65"
   fill="#f4f4f4"
   d="m 17.778,84.753 c -2.552,0 -4.639,2.087 -4.639,4.639 0,2.551 2.087,4.639 4.639,4.639 2.552,0 4.639,-2.087 4.639,-4.639 0,-2.551 -2.087,-4.639 -4.639,-4.639 z m 0,1.892 c 1.53,0 2.748,1.218 2.748,2.748 0,1.53 -1.218,2.748 -2.748,2.748 -1.53,0 -2.748,-1.218 -2.748,-2.748 0,-1.531 1.218,-2.748 2.748,-2.748 z" />
<path
   id="circle67"
   fill="#f4f4f4"
   d="m 14.882,107.386 c -2.552,0 -4.639,2.087 -4.639,4.639 0,2.552 2.087,4.639 4.639,4.639 2.552,0 4.639,-2.087 4.639,-4.639 0,-2.552 -2.087,-4.639 -4.639,-4.639 z m 0,1.891 c 1.53,0 2.748,1.218 2.748,2.748 0,1.53 -1.218,2.748 -2.748,2.748 -1.53,0 -2.748,-1.218 -2.748,-2.748 0,-1.53 1.219,-2.748 2.748,-2.748 z" />
<path
   id="circle69"
   fill="#f4f4f4"
   d="m 17.128,130.079 c -2.552,0 -4.639,2.087 -4.639,4.639 0,2.551 2.087,4.639 4.639,4.639 2.552,0 4.639,-2.088 4.639,-4.639 0,-2.552 -2.087,-4.639 -4.639,-4.639 z m 0,1.891 c 1.53,0 2.748,1.218 2.748,2.748 0,1.529 -1.218,2.748 -2.748,2.748 -1.53,0 -2.748,-1.219 -2.748,-2.748 0,-1.53 1.218,-2.748 2.748,-2.748 z" />
<path
   id="circle71"
   fill="#f4f4f4"
   d="m 24.456,151.707 c -2.552,0 -4.668,2.087 -4.668,4.639 0,2.551 2.117,4.64 4.668,4.64 2.551,0 4.639,-2.089 4.639,-4.64 -10e-4,-2.552 -2.088,-4.639 -4.639,-4.639 z m 0,1.892 c 1.53,0 2.748,1.217 2.748,2.747 0,1.529 -1.218,2.748 -2.748,2.748 -1.53,0 -2.777,-1.219 -2.777,-2.748 -10e-4,-1.531 1.247,-2.747 2.777,-2.747 z" />
<path
   id="circle73"
   fill="#f4f4f4"
   d="m 36.422,171.119 c -2.552,0 -4.639,2.087 -4.639,4.64 0,2.55 2.087,4.639 4.639,4.639 2.552,0 4.639,-2.089 4.639,-4.639 0,-2.553 -2.087,-4.64 -4.639,-4.64 z m 0,1.892 c 1.53,0 2.748,1.217 2.748,2.748 0,1.528 -1.218,2.748 -2.748,2.748 -1.53,0 -2.748,-1.22 -2.748,-2.748 0,-1.531 1.218,-2.748 2.748,-2.748 z" />
<path
   id="circle75"
   fill="#f4f4f4"
   d="m 52.466,187.341 c -2.552,0 -4.639,2.087 -4.639,4.639 0,2.551 2.087,4.669 4.639,4.669 2.552,0 4.639,-2.118 4.639,-4.669 0,-2.552 -2.087,-4.639 -4.639,-4.639 z m 0,1.89 c 1.53,0 2.748,1.218 2.748,2.748 0,1.529 -1.218,2.777 -2.748,2.777 -1.53,0 -2.748,-1.248 -2.748,-2.777 0,-1.53 1.218,-2.748 2.748,-2.748 z" />
<path
   id="circle77"
   fill="#f4f4f4"
   d="m 71.76,199.544 c -2.552,0 -4.639,2.087 -4.639,4.639 0,2.55 2.087,4.639 4.639,4.639 2.551,0 4.639,-2.089 4.639,-4.639 0,-2.552 -2.087,-4.639 -4.639,-4.639 z m 0,1.891 c 1.53,0 2.748,1.217 2.748,2.748 0,1.529 -1.218,2.748 -2.748,2.748 -1.53,0 -2.748,-1.219 -2.748,-2.748 0,-1.532 1.218,-2.748 2.748,-2.748 z" />
<path
   id="circle79"
   fill="#f4f4f4"
   d="m 70.903,33.992 c -2.552,0 -4.639,2.087 -4.639,4.639 0,2.552 2.087,4.639 4.639,4.639 2.552,0 4.639,-2.087 4.639,-4.639 0,-2.552 -2.087,-4.639 -4.639,-4.639 z m 0,1.891 c 1.53,0 2.748,1.218 2.748,2.748 0,1.53 -1.218,2.748 -2.748,2.748 -1.53,0 -2.748,-1.218 -2.748,-2.748 0,-1.53 1.218,-2.748 2.748,-2.748 z" />
<path
   id="circle81"
   fill="#f4f4f4"
   d="m 55.214,45.988 c -2.552,0 -4.639,2.087 -4.639,4.639 0,2.552 2.087,4.639 4.639,4.639 2.552,0 4.639,-2.087 4.639,-4.639 0,-2.552 -2.087,-4.639 -4.639,-4.639 z m 0,1.891 c 1.53,0 2.748,1.218 2.748,2.748 0,1.53 -1.218,2.748 -2.748,2.748 -1.53,0 -2.748,-1.218 -2.748,-2.748 0,-1.53 1.218,-2.748 2.748,-2.748 z" />
<path
   id="circle83"
   fill="#f4f4f4"
   d="m 42.627,61.175 c -2.552,0 -4.639,2.087 -4.639,4.639 0,2.552 2.087,4.668 4.639,4.668 2.552,0 4.639,-2.117 4.639,-4.668 0,-2.551 -2.087,-4.639 -4.639,-4.639 z m 0,1.891 c 1.53,0 2.748,1.218 2.748,2.748 0,1.53 -1.218,2.777 -2.748,2.777 -1.53,0 -2.748,-1.248 -2.748,-2.777 0,-1.529 1.218,-2.748 2.748,-2.748 z" />
<path
   id="circle85"
   fill="#f4f4f4"
   d="m 33.792,78.844 c -2.552,0 -4.639,2.087 -4.639,4.639 0,2.552 2.087,4.639 4.639,4.639 2.551,0 4.639,-2.087 4.639,-4.639 0,-2.552 -2.087,-4.639 -4.639,-4.639 z m 0,1.891 c 1.53,0 2.748,1.218 2.748,2.748 0,1.53 -1.218,2.748 -2.748,2.748 -1.53,0 -2.748,-1.218 -2.748,-2.748 0,-1.53 1.218,-2.748 2.748,-2.748 z" />
<path
   id="circle87"
   fill="#f4f4f4"
   d="m 29.153,98.02 c -2.552,0 -4.639,2.087 -4.639,4.639 0,2.551 2.087,4.639 4.639,4.639 2.552,0 4.639,-2.087 4.639,-4.639 0,-2.552 -2.087,-4.639 -4.639,-4.639 z m 0,1.891 c 1.53,0 2.748,1.218 2.748,2.748 0,1.53 -1.218,2.748 -2.748,2.748 -1.53,0 -2.748,-1.218 -2.748,-2.748 10e-4,-1.53 1.219,-2.748 2.748,-2.748 z" />
<path
   id="circle89"
   fill="#f4f4f4"
   d="m 28.917,117.757 c -2.552,0 -4.639,2.087 -4.639,4.639 0,2.551 2.087,4.639 4.639,4.639 2.552,0 4.639,-2.087 4.639,-4.639 0,-2.551 -2.087,-4.639 -4.639,-4.639 z m 0,1.891 c 1.53,0 2.748,1.218 2.748,2.748 0,1.53 -1.218,2.748 -2.748,2.748 -1.53,0 -2.748,-1.218 -2.748,-2.748 0,-1.53 1.218,-2.748 2.748,-2.748 z" />
<path
   id="circle91"
   fill="#f4f4f4"
   d="m 33.172,137.052 c -2.551,0 -4.639,2.088 -4.639,4.639 0,2.551 2.087,4.639 4.639,4.639 2.552,0 4.639,-2.088 4.639,-4.639 0,-2.551 -2.088,-4.639 -4.639,-4.639 z m 0,1.89 c 1.529,0 2.748,1.219 2.748,2.748 0,1.529 -1.219,2.748 -2.748,2.748 -1.529,0 -2.748,-1.219 -2.748,-2.748 0,-1.529 1.219,-2.748 2.748,-2.748 z" />
<path
   id="circle93"
   fill="#f4f4f4"
   d="m 41.622,154.869 c -2.551,0 -4.639,2.087 -4.639,4.639 0,2.55 2.087,4.639 4.639,4.639 2.552,0 4.639,-2.089 4.639,-4.639 0,-2.552 -2.087,-4.639 -4.639,-4.639 z m 0,1.891 c 1.53,0 2.748,1.217 2.748,2.748 0,1.529 -1.218,2.748 -2.748,2.748 -1.53,0 -2.748,-1.219 -2.748,-2.748 10e-4,-1.531 1.218,-2.748 2.748,-2.748 z" />
<path
   id="circle95"
   fill="#f4f4f4"
   d="m 53.884,170.352 c -2.552,0 -4.639,2.087 -4.639,4.639 0,2.55 2.087,4.639 4.639,4.639 2.552,0 4.639,-2.089 4.639,-4.639 0,-2.553 -2.087,-4.639 -4.639,-4.639 z m 0,1.89 c 1.53,0 2.748,1.217 2.748,2.748 0,1.529 -1.218,2.748 -2.748,2.748 -1.53,0 -2.748,-1.219 -2.748,-2.748 0,-1.531 1.218,-2.748 2.748,-2.748 z" />
<path
   id="circle97"
   fill="#f4f4f4"
   d="m 69.308,182.673 c -2.552,0 -4.639,2.086 -4.639,4.639 0,2.55 2.087,4.639 4.639,4.639 2.552,0 4.639,-2.089 4.639,-4.639 0,-2.553 -2.088,-4.639 -4.639,-4.639 z m 0,1.89 c 1.53,0 2.748,1.217 2.748,2.748 0,1.529 -1.218,2.748 -2.748,2.748 -1.53,0 -2.748,-1.219 -2.748,-2.748 0,-1.531 1.218,-2.748 2.748,-2.748 z" />
<path
   id="circle99"
   fill="#f4f4f4"
   d="m 87.095,191.212 c -2.551,0 -4.639,2.086 -4.639,4.639 0,2.55 2.087,4.639 4.639,4.639 2.552,0 4.639,-2.089 4.639,-4.639 0,-2.553 -2.088,-4.639 -4.639,-4.639 z m 0,1.891 c 1.53,0 2.748,1.217 2.748,2.748 0,1.529 -1.218,2.748 -2.748,2.748 -1.53,0 -2.748,-1.219 -2.748,-2.748 0,-1.532 1.218,-2.748 2.748,-2.748 z" />
<g
   id="g101"
   transform="translate(-8,-38)">
	<path
   id="circle103"
   fill="#f4f4f4"
   d="m 458.049,105.055 c -16.909,0 -30.64,13.731 -30.64,30.641 0,16.909 13.73,30.64 30.64,30.64 16.908,0 30.611,-13.731 30.611,-30.64 0,-16.91 -13.703,-30.641 -30.611,-30.641 z m 0,1.891 c 15.888,0 28.72,12.862 28.72,28.75 0,15.887 -12.832,28.749 -28.72,28.749 -15.887,0 -28.749,-12.862 -28.749,-28.749 0,-15.888 12.862,-28.75 28.749,-28.75 z" />
	<path
   id="circle105"
   fill="#f4f4f4"
   d="m 458.049,113.978 c -11.99,0 -21.746,9.728 -21.746,21.717 0,11.989 9.756,21.717 21.746,21.717 11.989,0 21.718,-9.728 21.718,-21.717 0,-11.989 -9.729,-21.717 -21.718,-21.717 z m 0,1.891 c 10.968,0 19.826,8.858 19.826,19.826 0,10.967 -8.858,19.826 -19.826,19.826 -10.967,0 -19.855,-8.858 -19.855,-19.826 -0.001,-10.967 8.888,-19.826 19.855,-19.826 z" />
</g>
<g
   id="g107"
   transform="translate(-8,-38)">
	<path
   id="circle109"
   fill="#f4f4f4"
   d="m 458.049,196.119 c -16.909,0 -30.64,13.729 -30.64,30.64 0,16.908 13.73,30.641 30.64,30.641 16.908,0 30.611,-13.732 30.611,-30.641 0,-16.91 -13.703,-30.64 -30.611,-30.64 z m 0,1.891 c 15.888,0 28.72,12.862 28.72,28.749 0,15.888 -12.832,28.749 -28.72,28.749 -15.887,0 -28.749,-12.861 -28.749,-28.749 0,-15.887 12.862,-28.749 28.749,-28.749 z" />
	<path
   id="circle111"
   fill="#f4f4f4"
   d="m 458.049,205.013 c -11.99,0 -21.746,9.756 -21.746,21.746 0,11.989 9.756,21.717 21.746,21.717 11.989,0 21.718,-9.728 21.718,-21.717 0,-11.99 -9.729,-21.746 -21.718,-21.746 z m 0,1.89 c 10.968,0 19.826,8.889 19.826,19.855 0,10.968 -8.858,19.826 -19.826,19.826 -10.967,0 -19.855,-8.858 -19.855,-19.826 -0.001,-10.966 8.888,-19.855 19.855,-19.855 z" />
</g>
<g
   id="g113"
   transform="translate(-8,-38)">
	<path
   id="circle115"
   fill="#f4f4f4"
   d="m 403.003,149.789 c -16.91,0 -30.64,13.731 -30.64,30.64 0,16.909 13.729,30.641 30.64,30.641 16.908,0 30.641,-13.731 30.641,-30.641 0,-16.909 -13.733,-30.64 -30.641,-30.64 z m 0,1.891 c 15.888,0 28.75,12.862 28.75,28.749 0,15.888 -12.862,28.75 -28.75,28.75 -15.887,0 -28.749,-12.862 -28.749,-28.75 0,-15.887 12.862,-28.749 28.749,-28.749 z" />
	<path
   id="circle117"
   fill="#f4f4f4"
   d="m 403.003,158.712 c -11.99,0 -21.717,9.728 -21.717,21.717 0,11.989 9.727,21.718 21.717,21.718 11.989,0 21.747,-9.729 21.747,-21.718 0,-11.989 -9.758,-21.717 -21.747,-21.717 z m 0,1.891 c 10.968,0 19.855,8.858 19.855,19.826 0,10.969 -8.888,19.827 -19.855,19.827 -10.967,0 -19.825,-8.858 -19.825,-19.827 0,-10.968 8.858,-19.826 19.825,-19.826 z" />
</g>
<g
   id="g119"
   transform="translate(-8,-38)">
	<path
   id="circle121"
   fill="#f4f4f4"
   d="m 512.268,149.789 c -16.91,0 -30.64,13.731 -30.64,30.64 0,16.909 13.729,30.641 30.64,30.641 16.908,0 30.641,-13.731 30.641,-30.641 -10e-4,-16.909 -13.733,-30.64 -30.641,-30.64 z m 0,1.891 c 15.888,0 28.749,12.862 28.749,28.749 0,15.888 -12.861,28.75 -28.749,28.75 -15.887,0 -28.749,-12.862 -28.749,-28.75 0,-15.887 12.862,-28.749 28.749,-28.749 z" />
	<path
   id="circle123"
   fill="#f4f4f4"
   d="m 512.268,158.712 c -11.99,0 -21.717,9.728 -21.717,21.717 0,11.989 9.727,21.718 21.717,21.718 11.989,0 21.747,-9.729 21.747,-21.718 0,-11.989 -9.758,-21.717 -21.747,-21.717 z m 0,1.891 c 10.968,0 19.855,8.858 19.855,19.826 0,10.969 -8.888,19.827 -19.855,19.827 -10.967,0 -19.826,-8.858 -19.826,-19.827 -0.001,-10.968 8.859,-19.826 19.826,-19.826 z" />
</g>
<path
   id="path125"
   fill="#f4f4f4"
   d="m 130.706,61.648 c -3.81,4.599 -7.014,12.519 -8.391,20.358 -1.377,7.838 -1.012,15.661 3.162,19.855 4.509,4.533 12.249,5.746 20.18,4.846 7.932,-0.901 16.114,-3.958 21.628,-8.451 l -1.182,-1.448 c -5.123,4.174 -13.056,7.145 -20.653,8.007 -7.597,0.862 -14.798,-0.419 -18.644,-4.284 -3.344,-3.361 -3.958,-10.647 -2.63,-18.201 1.328,-7.554 4.527,-15.306 7.978,-19.471 z" />
<path
   id="path127"
   fill="#f4f4f4"
   d="m 89.399,121.096 c -1.913,-0.057 -3.897,0.041 -5.88,0.266 -7.931,0.901 -16.084,3.958 -21.599,8.45 l 1.182,1.448 c 5.123,-4.174 13.056,-7.144 20.653,-8.007 7.597,-0.863 14.798,0.419 18.644,4.285 3.344,3.362 3.957,10.647 2.629,18.202 -1.328,7.553 -4.527,15.305 -7.978,19.471 l 1.448,1.212 c 3.81,-4.599 7.014,-12.521 8.392,-20.358 1.377,-7.838 1.012,-15.661 -3.162,-19.855 -3.38,-3.401 -8.589,-4.941 -14.329,-5.114 z" />
<path
   id="path129"
   fill="#f4f4f4"
   d="m 140.516,121.066 c -5.702,-0.282 -10.889,0.712 -14.035,3.841 -4.532,4.51 -5.717,12.25 -4.816,20.181 0.9,7.932 3.928,16.114 8.421,21.628 l 1.477,-1.182 c -4.174,-5.123 -7.174,-13.056 -8.037,-20.653 -0.863,-7.597 0.419,-14.799 4.284,-18.645 3.361,-3.343 10.647,-3.958 18.201,-2.629 7.554,1.328 15.335,4.526 19.501,7.978 l 1.182,-1.448 c -4.599,-3.811 -12.519,-7.014 -20.358,-8.392 -1.959,-0.343 -3.919,-0.584 -5.82,-0.679 z" />
<path
   id="path131"
   fill="#f4f4f4"
   d="m 98.825,61.618 -1.448,1.211 c 4.174,5.123 7.144,13.027 8.007,20.624 0.863,7.597 -0.419,14.798 -4.284,18.644 -3.361,3.344 -10.647,3.987 -18.201,2.659 -7.554,-1.328 -15.307,-4.527 -19.472,-7.978 l -1.211,1.448 c 4.598,3.81 12.519,7.014 20.358,8.391 7.839,1.378 15.66,1.012 19.855,-3.162 4.532,-4.509 5.747,-12.278 4.846,-20.21 -0.9,-7.93 -3.958,-16.113 -8.45,-21.627 z" />
<path
   id="path133"
   fill="#f4f4f4"
   d="m 375.089,31.924 -0.266,0.207 -0.178,0.118 -0.089,0.089 -0.059,0.088 -146.493,192.676 -0.029,0.03 -0.029,0.059 -0.237,0.384 -0.827,1.419 h 1.655 157.928 c 2.829,0 5.969,2.984 5.969,2.984 l 0.029,0.029 0.03,0.029 c 19.593,16.626 44.979,26.651 72.685,26.651 62.061,0 112.396,-50.31 112.396,-112.367 0,-62.059 -50.338,-112.396 -112.396,-112.396 h -89.763 z m 0.738,1.89 h 89.35 c 61.037,0 110.506,49.469 110.506,110.506 0,61.037 -49.469,110.477 -110.506,110.477 -27.22,0 -52.128,-9.834 -71.385,-26.149 0,0 -0.058,-0.06 -0.06,-0.06 -0.096,-0.103 -3.3,-3.486 -7.269,-3.486 H 230.368 Z" />
<path
   id="path135"
   fill="#f4f4f4"
   d="m 115.224,2.229 c -62.06,0 -112.396,50.338 -112.396,112.396 0,62.058 50.337,112.368 112.396,112.368 h 106.191 0.414 l 0.266,-0.296 0.384,-0.384 0.029,-0.029 0.03,-0.06 146.464,-192.646 0.562,-0.738 -0.709,-0.591 -0.178,-0.118 -0.266,-0.207 H 368.086 195 c -1.719,0 -3.858,-0.964 -5.496,-1.98 -1.637,-1.016 -2.777,-2.039 -2.777,-2.039 h -0.029 C 167.271,11.873 142.374,2.229 115.224,2.229 Z m 0,1.891 c 26.704,0 51.161,9.47 70.263,25.233 v -0.03 h 0.029 c 0.016,0.014 1.214,1.118 2.984,2.216 1.781,1.105 4.127,2.275 6.5,2.275 h 171.432 l -145.342,191.199 -0.059,0.089 h -0.03 -105.777 C 54.186,225.102 4.719,175.663 4.719,114.626 4.719,53.589 54.186,4.12 115.224,4.12 Z" />
<path
   id="line137"
   fill="#f4f4f4"
   d="m 367.643,32.958 v 1.891 h 7.032 v -1.891 z" />
<path
   id="line139"
   fill="#f4f4f4"
   d="m 222.213,224.127 v 1.891 h 6.766 v -1.891 z" />
<path
   id="circle141"
   fill="#f4f4f4"
   d="m 114.456,104.934 c -4.92,0 -8.923,4.002 -8.923,8.923 0,4.92 4.003,8.923 8.923,8.923 4.92,0 8.953,-4.002 8.953,-8.923 -0.001,-4.92 -4.033,-8.923 -8.953,-8.923 z m 0,1.891 c 3.898,0 7.062,3.134 7.062,7.032 0,3.898 -3.164,7.032 -7.062,7.032 -3.898,0 -7.032,-3.134 -7.032,-7.032 -0.001,-3.898 3.133,-7.032 7.032,-7.032 z" />
</svg>
