<?xml version="1.0" encoding="UTF-8" standalone="no"?>
<svg
   viewBox="0 0 364.33301 124.683"
   version="1.1"
   id="svg3689"
   sodipodi:docname="controller (2).svg"
   width="364.33301"
   height="124.683"
   inkscape:version="1.2.2 (732a01da63, 2022-12-09)"
   xmlns:inkscape="http://www.inkscape.org/namespaces/inkscape"
   xmlns:sodipodi="http://sodipodi.sourceforge.net/DTD/sodipodi-0.dtd"
   xmlns="http://www.w3.org/2000/svg"
   xmlns:svg="http://www.w3.org/2000/svg">
  <defs
     id="defs3693" />
  <sodipodi:namedview
     id="namedview3691"
     pagecolor="#000000"
     bordercolor="#111111"
     borderopacity="1"
     inkscape:showpageshadow="0"
     inkscape:pageopacity="0"
     inkscape:pagecheckerboard="1"
     inkscape:deskcolor="#d1d1d1"
     showgrid="false"
     inkscape:zoom="4.8259687"
     inkscape:cx="220.8883"
     inkscape:cy="60.091563"
     inkscape:window-width="1920"
     inkscape:window-height="1009"
     inkscape:window-x="-8"
     inkscape:window-y="-8"
     inkscape:window-maximized="1"
     inkscape:current-layer="g3926" />
  <radialGradient
     id="a"
     cx="-80.232002"
     cy="190.054"
     r="10.883"
     gradientTransform="rotate(90,59.841,177.167)"
     gradientUnits="userSpaceOnUse">
    <stop
       offset="0"
       stop-color="#1b1c1b"
       id="stop3459" />
    <stop
       offset="1"
       stop-color="#232323"
       id="stop3461" />
  </radialGradient>
  <linearGradient
     id="b"
     gradientUnits="userSpaceOnUse"
     x1="59.841"
     y1="126.2"
     x2="59.841"
     y2="117.325"
     gradientTransform="rotate(90,59.841,177.167)">
    <stop
       offset="0"
       stop-color="#2c232d"
       id="stop3486" />
    <stop
       offset=".5"
       stop-color="#312c39"
       id="stop3488" />
    <stop
       offset="1"
       stop-color="#2c232d"
       id="stop3490" />
  </linearGradient>
  <g
     id="g3926"
     transform="rotate(-90,63.841627,59.167)"
     style="fill:none;fill-opacity:1;stroke:#000000;stroke-opacity:1">
    <path
       d="m 111.167,143.417 h 7.531 a 0.987,0.987 0 0 0 0.984,-0.984 V 10.125 C 119.683,4.556 115.126,0 109.558,0 h -87.75 c -8.208,0.75 -12.625,6 -14,13.167 -5.125,32.875 -8.007,114.086 -7.797,164 -0.21,49.914 2.672,131.125 7.797,164 1.375,7.167 5.792,12.417 14,13.167 h 87.75 c 5.569,0 10.125,-4.556 10.125,-10.125 V 211.901 a 0.987,0.987 0 0 0 -0.984,-0.984 h -7.765 a 0.753,0.753 0 0 1 -0.75,-0.75 v -66 c 0,-0.413 0.338,-0.75 0.75,-0.75 z"
       fill="#2b2b2d"
       id="path3449"
       style="fill:none;fill-opacity:1;stroke:#ffffff;stroke-opacity:1" />
    <g
       fill="#232323"
       id="g3453"
       style="fill:none;fill-opacity:1;stroke:#ffffff;stroke-opacity:1">
      <path
         d="M 112.491,71.542 H 2.744 C 4.027,47.687 5.734,26.47 7.807,13.167 9.183,6 13.599,0.75 21.808,0 h 80.832 c 5.418,0 9.851,4.169 9.851,9.264 z m 0,211.25 H 2.744 c 1.283,23.855 2.99,45.072 5.063,58.375 1.375,7.167 5.792,12.417 14,13.167 h 80.832 c 5.418,0 9.851,-4.169 9.851,-9.264 z"
         id="path3451"
         style="fill:none;fill-opacity:1;stroke:#ffffff;stroke-opacity:1" />
    </g>
    <g
       fill="#1b1c1e"
       id="g3457"
       style="fill:none;fill-opacity:1;stroke:#ffffff;stroke-opacity:1">
      <path
         d="m 2.744,71.542 h 109.747 c 0.319,0.161 2.092,2.64 2.379,3.458 H 2.562 Z m 0,211.25 h 109.747 c 0.319,-0.161 2.092,-2.64 2.379,-3.458 H 2.562 Z"
         id="path3455"
         style="fill:none;fill-opacity:1;stroke:#ffffff;stroke-opacity:1" />
    </g>
    <g
       fill="#1c1c1e"
       id="g3474"
       style="fill:none;fill-opacity:1;stroke:#ffffff;stroke-opacity:1">
      <path
         d="M 99.016,71.403 V 1.732 C 99.016,1.33 99.345,1 99.748,1 h 0.702 c 0.403,0 0.732,0.33 0.732,0.732 v 69.671 c 0,0.403 -0.33,0.732 -0.732,0.732 h -0.702 a 0.734,0.734 0 0 1 -0.732,-0.732 z m -5.167,0 V 1.732 C 93.849,1.33 94.179,1 94.582,1 h 0.702 c 0.403,0 0.732,0.33 0.732,0.732 v 69.671 a 0.734,0.734 0 0 1 -0.732,0.732 h -0.702 a 0.734,0.734 0 0 1 -0.733,-0.732 z m -5.166,0 V 1.732 C 88.683,1.33 89.012,1 89.415,1 h 0.702 c 0.403,0 0.732,0.33 0.732,0.732 v 69.671 a 0.734,0.734 0 0 1 -0.732,0.732 h -0.702 a 0.734,0.734 0 0 1 -0.732,-0.732 z m -5.167,0 V 1.732 C 83.516,1.33 83.845,1 84.248,1 h 0.702 c 0.403,0 0.732,0.33 0.732,0.732 v 69.671 c 0,0.403 -0.33,0.732 -0.732,0.732 h -0.702 a 0.734,0.734 0 0 1 -0.732,-0.732 z"
         id="path3472"
         style="fill:none;fill-opacity:1;stroke:#ffffff;stroke-opacity:1" />
    </g>
    <g
       fill="#121212"
       id="g3478"
       style="fill:none;fill-opacity:1;stroke:#ffffff;stroke-opacity:1">
      <path
         d="m 65.203,36.51 -6.119,-3.059 a 0.652,0.652 0 0 0 -0.944,0.583 v 6.119 c 0,0.485 0.51,0.8 0.944,0.583 l 6.119,-3.059 a 0.652,0.652 0 0 0 0,-1.167 z M 46.37,18.844 43.311,24.963 a 0.652,0.652 0 0 0 0.583,0.944 h 6.119 c 0.485,0 0.8,-0.51 0.583,-0.944 l -3.059,-6.119 a 0.652,0.652 0 0 0 -1.167,0 z m -17.667,18.833 6.119,3.059 a 0.652,0.652 0 0 0 0.944,-0.583 v -6.119 c 0,-0.485 -0.51,-0.8 -0.944,-0.583 l -6.119,3.059 a 0.653,0.653 0 0 0 0,1.167 z M 46.37,55.344 43.311,49.225 a 0.652,0.652 0 0 1 0.583,-0.944 h 6.119 c 0.485,0 0.8,0.51 0.583,0.944 l -3.059,6.119 a 0.653,0.653 0 0 1 -1.167,0 z"
         id="path3476"
         style="fill:none;fill-opacity:1;stroke:#ffffff;stroke-opacity:1" />
    </g>
    <path
       d="M 114.87,75 V 279.333 H 2.562 C 0.794,245.038 -0.11,205.912 0.011,177.166 -0.11,148.421 0.794,109.295 2.562,75 Z"
       fill="#26272b"
       id="path3480"
       style="fill:none;fill-opacity:1;stroke:#ffffff;stroke-opacity:1" />
    <path
       d="m 15.316,76.667 a 0.71,0.71 0 0 0 -0.708,0.627 c -3.632,30.755 -5.575,64.494 -5.575,99.873 0,35.379 1.943,69.118 5.575,99.873 a 0.71,0.71 0 0 0 0.708,0.627 h 85.155 a 0.71,0.71 0 0 0 0.711,-0.711 V 77.378 a 0.71,0.71 0 0 0 -0.711,-0.711 z"
       fill="#313133"
       id="path3482"
       style="fill:none;fill-opacity:1;stroke:#ffffff;stroke-opacity:1" />
    <path
       d="m 118.245,143.417 v 67.5 h -8 v -67.5 z"
       id="path3484"
       style="fill:none;fill-opacity:1;stroke:#ffffff;stroke-opacity:1" />
    <path
       d="m 111.727,144.092 c -0.506,0 -0.92,0.434 -0.92,0.965 v 64.22 c 0,0.531 0.414,0.965 0.92,0.965 h 7.036 c 0.506,0 0.92,-0.434 0.92,-0.965 v -64.22 c 0,-0.531 -0.414,-0.965 -0.92,-0.965 z"
       fill="url(#b)"
       id="path3493"
       style="fill:none;fill-opacity:1;stroke:#ffffff;stroke-opacity:1" />
    <path
       fill="none"
       stroke="#f4f1f0"
       stroke-width="0.75"
       stroke-miterlimit="10"
       d="M 83.974,83.354 V 273.003"
       id="path3503"
       style="fill:none;fill-opacity:1;stroke:#ffffff;stroke-opacity:1" />
    <path
       d="m 63.949,83.207 c 0,-0.163 0.132,-0.295 0.295,-0.295 h 7.378 c 0.163,0 0.294,0.132 0.294,0.294 v 14.212 a 0.294,0.294 0 0 1 -0.294,0.294 H 64.244 A 0.294,0.294 0 0 1 63.95,97.418 V 83.207 Z"
       fill="#151106"
       id="path3555"
       style="fill:none;fill-opacity:1;stroke:#ffffff;stroke-opacity:1" />
    <path
       d="M 64.516,96.125 V 84.5 c 0,-0.561 0.459,-1.021 1.021,-1.021 h 4.792 c 0.561,0 1.021,0.459 1.021,1.021 v 11.625 c 0,0.561 -0.459,1.021 -1.021,1.021 h -4.792 c -0.562,0 -1.021,-0.46 -1.021,-1.021 z"
       fill="#c7bcae"
       id="path3557"
       style="fill:none;fill-opacity:1;stroke:#ffffff;stroke-opacity:1" />
    <path
       d="m 63.949,106.962 c 0,-0.163 0.132,-0.295 0.295,-0.295 h 7.378 c 0.163,0 0.294,0.132 0.294,0.294 v 14.212 a 0.294,0.294 0 0 1 -0.294,0.294 h -7.378 a 0.294,0.294 0 0 1 -0.294,-0.294 v -14.211 z"
       fill="#151106"
       id="path3559"
       style="fill:none;fill-opacity:1;stroke:#ffffff;stroke-opacity:1" />
    <path
       d="m 64.516,119.88 v -11.625 c 0,-0.561 0.459,-1.021 1.021,-1.021 h 4.792 c 0.561,0 1.021,0.459 1.021,1.021 v 11.625 c 0,0.561 -0.459,1.021 -1.021,1.021 h -4.792 c -0.562,0 -1.021,-0.46 -1.021,-1.021 z"
       fill="#c7bcae"
       id="path3561"
       style="fill:none;fill-opacity:1;stroke:#ffffff;stroke-opacity:1" />
    <path
       d="m 63.949,130.717 c 0,-0.163 0.132,-0.295 0.295,-0.295 h 7.378 c 0.163,0 0.294,0.132 0.294,0.294 v 14.212 a 0.294,0.294 0 0 1 -0.294,0.294 h -7.378 a 0.294,0.294 0 0 1 -0.294,-0.294 v -14.211 z"
       fill="#151106"
       id="path3563"
       style="fill:none;fill-opacity:1;stroke:#ffffff;stroke-opacity:1" />
    <path
       d="M 64.516,143.635 V 132.01 c 0,-0.561 0.459,-1.021 1.021,-1.021 h 4.792 c 0.561,0 1.021,0.459 1.021,1.021 v 11.625 c 0,0.561 -0.459,1.021 -1.021,1.021 h -4.792 c -0.562,0 -1.021,-0.46 -1.021,-1.021 z"
       fill="#c7bcae"
       id="path3565"
       style="fill:none;fill-opacity:1;stroke:#ffffff;stroke-opacity:1" />
    <path
       d="m 63.949,154.472 c 0,-0.163 0.132,-0.295 0.295,-0.295 h 7.378 c 0.163,0 0.294,0.132 0.294,0.294 v 14.212 a 0.294,0.294 0 0 1 -0.294,0.294 h -7.378 a 0.294,0.294 0 0 1 -0.294,-0.294 v -14.211 z"
       fill="#151106"
       id="path3567"
       style="fill:none;fill-opacity:1;stroke:#ffffff;stroke-opacity:1" />
    <path
       d="m 64.516,167.39 v -11.625 c 0,-0.561 0.459,-1.021 1.021,-1.021 h 4.792 c 0.561,0 1.021,0.459 1.021,1.021 v 11.625 c 0,0.561 -0.459,1.021 -1.021,1.021 h -4.792 c -0.562,0 -1.021,-0.46 -1.021,-1.021 z"
       fill="#c7bcae"
       id="path3569"
       style="fill:none;fill-opacity:1;stroke:#ffffff;stroke-opacity:1" />
    <path
       d="m 63.949,178.227 c 0,-0.163 0.132,-0.295 0.295,-0.295 h 7.378 c 0.163,0 0.294,0.132 0.294,0.294 v 14.212 a 0.294,0.294 0 0 1 -0.294,0.294 h -7.378 a 0.294,0.294 0 0 1 -0.294,-0.294 v -14.211 z"
       fill="#151106"
       id="path3571"
       style="fill:none;fill-opacity:1;stroke:#ffffff;stroke-opacity:1" />
    <path
       d="M 64.516,191.145 V 179.52 c 0,-0.561 0.459,-1.021 1.021,-1.021 h 4.792 c 0.561,0 1.021,0.459 1.021,1.021 v 11.625 c 0,0.561 -0.459,1.021 -1.021,1.021 h -4.792 a 1.025,1.025 0 0 1 -1.021,-1.021 z"
       fill="#c7bcae"
       id="path3573"
       style="fill:none;fill-opacity:1;stroke:#ffffff;stroke-opacity:1" />
    <path
       d="m 63.949,201.982 c 0,-0.163 0.132,-0.295 0.295,-0.295 h 7.378 c 0.163,0 0.294,0.132 0.294,0.294 v 14.212 a 0.294,0.294 0 0 1 -0.294,0.294 h -7.378 a 0.294,0.294 0 0 1 -0.294,-0.294 v -14.211 z"
       fill="#151106"
       id="path3575"
       style="fill:none;fill-opacity:1;stroke:#ffffff;stroke-opacity:1" />
    <path
       d="m 64.516,214.899 v -11.625 c 0,-0.561 0.459,-1.021 1.021,-1.021 h 4.792 c 0.561,0 1.021,0.459 1.021,1.021 v 11.625 c 0,0.561 -0.459,1.021 -1.021,1.021 h -4.792 a 1.023,1.023 0 0 1 -1.021,-1.021 z"
       fill="#c7bcae"
       id="path3577"
       style="fill:none;fill-opacity:1;stroke:#ffffff;stroke-opacity:1" />
    <path
       d="m 63.949,225.736 c 0,-0.163 0.132,-0.295 0.295,-0.295 h 7.378 c 0.163,0 0.294,0.132 0.294,0.294 v 14.212 a 0.294,0.294 0 0 1 -0.294,0.294 h -7.378 a 0.294,0.294 0 0 1 -0.294,-0.294 v -14.211 z"
       fill="#151106"
       id="path3579"
       style="fill:none;fill-opacity:1;stroke:#ffffff;stroke-opacity:1" />
    <path
       d="m 64.516,238.654 v -11.625 c 0,-0.561 0.459,-1.021 1.021,-1.021 h 4.792 c 0.561,0 1.021,0.459 1.021,1.021 v 11.625 c 0,0.561 -0.459,1.021 -1.021,1.021 h -4.792 a 1.023,1.023 0 0 1 -1.021,-1.021 z"
       fill="#c7bcae"
       id="path3581"
       style="fill:none;fill-opacity:1;stroke:#ffffff;stroke-opacity:1" />
    <path
       d="m 61.018,257.197 h 13.595 c 0.218,0 0.395,0.177 0.395,0.395 v 14.009 a 0.395,0.395 0 0 1 -0.395,0.395 H 61.018 a 0.395,0.395 0 0 1 -0.395,-0.395 v -14.009 a 0.395,0.395 0 0 1 0.395,-0.395 z"
       fill="#151106"
       id="path3583"
       style="fill:none;fill-opacity:1;stroke:#ffffff;stroke-opacity:1" />
    <path
       d="m 64.499,270.424 v -11.655 a 1.01,1.01 0 0 1 1.006,-1.006 h 4.622 a 1.01,1.01 0 0 1 1.006,1.006 v 11.655 a 1.01,1.01 0 0 1 -1.006,1.006 h -4.622 a 1.009,1.009 0 0 1 -1.006,-1.006 z"
       fill="#f62717"
       id="path3585"
       style="fill:none;fill-opacity:1;stroke:#ffffff;stroke-opacity:1" />
    <path
       d="m 43.449,83.207 c 0,-0.163 0.132,-0.295 0.295,-0.295 h 7.378 c 0.163,0 0.294,0.132 0.294,0.294 v 14.212 a 0.294,0.294 0 0 1 -0.294,0.294 H 43.744 A 0.294,0.294 0 0 1 43.45,97.418 V 83.207 Z"
       fill="#151106"
       id="path3587"
       style="fill:none;fill-opacity:1;stroke:#ffffff;stroke-opacity:1" />
    <path
       d="M 44.016,96.125 V 84.5 c 0,-0.561 0.459,-1.021 1.021,-1.021 h 4.792 c 0.561,0 1.021,0.459 1.021,1.021 v 11.625 c 0,0.561 -0.459,1.021 -1.021,1.021 h -4.792 c -0.562,0 -1.021,-0.46 -1.021,-1.021 z"
       fill="#c7bcae"
       id="path3589"
       style="fill:none;fill-opacity:1;stroke:#ffffff;stroke-opacity:1" />
    <path
       d="m 43.449,106.962 c 0,-0.163 0.132,-0.295 0.295,-0.295 h 7.378 c 0.163,0 0.294,0.132 0.294,0.294 v 14.212 a 0.294,0.294 0 0 1 -0.294,0.294 h -7.378 a 0.294,0.294 0 0 1 -0.294,-0.294 v -14.211 z"
       fill="#151106"
       id="path3591"
       style="fill:none;fill-opacity:1;stroke:#ffffff;stroke-opacity:1" />
    <path
       d="m 44.016,119.88 v -11.625 c 0,-0.561 0.459,-1.021 1.021,-1.021 h 4.792 c 0.561,0 1.021,0.459 1.021,1.021 v 11.625 c 0,0.561 -0.459,1.021 -1.021,1.021 h -4.792 c -0.562,0 -1.021,-0.46 -1.021,-1.021 z"
       fill="#c7bcae"
       id="path3593"
       style="fill:none;fill-opacity:1;stroke:#ffffff;stroke-opacity:1" />
    <path
       d="m 43.449,130.717 c 0,-0.163 0.132,-0.295 0.295,-0.295 h 7.378 c 0.163,0 0.294,0.132 0.294,0.294 v 14.212 a 0.294,0.294 0 0 1 -0.294,0.294 h -7.378 a 0.294,0.294 0 0 1 -0.294,-0.294 v -14.211 z"
       fill="#151106"
       id="path3595"
       style="fill:none;fill-opacity:1;stroke:#ffffff;stroke-opacity:1" />
    <path
       d="M 44.016,143.635 V 132.01 c 0,-0.561 0.459,-1.021 1.021,-1.021 h 4.792 c 0.561,0 1.021,0.459 1.021,1.021 v 11.625 c 0,0.561 -0.459,1.021 -1.021,1.021 h -4.792 c -0.562,0 -1.021,-0.46 -1.021,-1.021 z"
       fill="#c7bcae"
       id="path3597"
       style="fill:none;fill-opacity:1;stroke:#ffffff;stroke-opacity:1" />
    <path
       d="m 43.449,154.472 c 0,-0.163 0.132,-0.295 0.295,-0.295 h 7.378 c 0.163,0 0.294,0.132 0.294,0.294 v 14.212 a 0.294,0.294 0 0 1 -0.294,0.294 h -7.378 a 0.294,0.294 0 0 1 -0.294,-0.294 v -14.211 z"
       fill="#151106"
       id="path3599"
       style="fill:none;fill-opacity:1;stroke:#ffffff;stroke-opacity:1" />
    <path
       d="m 44.016,167.39 v -11.625 c 0,-0.561 0.459,-1.021 1.021,-1.021 h 4.792 c 0.561,0 1.021,0.459 1.021,1.021 v 11.625 c 0,0.561 -0.459,1.021 -1.021,1.021 h -4.792 c -0.562,0 -1.021,-0.46 -1.021,-1.021 z"
       fill="#c7bcae"
       id="path3601"
       style="fill:none;fill-opacity:1;stroke:#ffffff;stroke-opacity:1" />
    <path
       d="m 43.449,178.227 c 0,-0.163 0.132,-0.295 0.295,-0.295 h 7.378 c 0.163,0 0.294,0.132 0.294,0.294 v 14.212 a 0.294,0.294 0 0 1 -0.294,0.294 h -7.378 a 0.294,0.294 0 0 1 -0.294,-0.294 v -14.211 z"
       fill="#151106"
       id="path3603"
       style="fill:none;fill-opacity:1;stroke:#ffffff;stroke-opacity:1" />
    <path
       d="M 44.016,191.145 V 179.52 c 0,-0.561 0.459,-1.021 1.021,-1.021 h 4.792 c 0.561,0 1.021,0.459 1.021,1.021 v 11.625 c 0,0.561 -0.459,1.021 -1.021,1.021 h -4.792 a 1.025,1.025 0 0 1 -1.021,-1.021 z"
       fill="#c7bcae"
       id="path3605"
       style="fill:none;fill-opacity:1;stroke:#ffffff;stroke-opacity:1" />
    <path
       d="m 43.812,201.687 h 7.242 c 0.2,0 0.362,0.162 0.362,0.362 v 21.693 c 0,0.2 -0.162,0.362 -0.362,0.362 H 43.812 A 0.362,0.362 0 0 1 43.45,223.742 V 202.05 a 0.361,0.361 0 0 1 0.362,-0.363 z"
       fill="#151106"
       id="path3607"
       style="fill:none;fill-opacity:1;stroke:#ffffff;stroke-opacity:1" />
    <path
       d="m 44.016,221.989 v -18.188 a 1.26,1.26 0 0 1 1.256,-1.256 h 4.321 a 1.26,1.26 0 0 1 1.256,1.256 v 18.188 a 1.26,1.26 0 0 1 -1.256,1.256 h -4.321 a 1.259,1.259 0 0 1 -1.256,-1.256 z"
       fill="#c7bcae"
       id="path3609"
       style="fill:none;fill-opacity:1;stroke:#ffffff;stroke-opacity:1" />
    <path
       d="m 43.449,233.304 c 0,-0.163 0.132,-0.295 0.295,-0.295 h 7.378 c 0.163,0 0.294,0.132 0.294,0.294 v 14.212 a 0.294,0.294 0 0 1 -0.294,0.294 h -7.378 a 0.294,0.294 0 0 1 -0.294,-0.294 v -14.211 z"
       fill="#151106"
       id="path3611"
       style="fill:none;fill-opacity:1;stroke:#ffffff;stroke-opacity:1" />
    <path
       d="m 44.016,246.222 v -11.625 c 0,-0.561 0.459,-1.021 1.021,-1.021 h 4.792 c 0.561,0 1.021,0.459 1.021,1.021 v 11.625 c 0,0.561 -0.459,1.021 -1.021,1.021 h -4.792 a 1.023,1.023 0 0 1 -1.021,-1.021 z"
       fill="#c7bcae"
       id="path3613"
       style="fill:none;fill-opacity:1;stroke:#ffffff;stroke-opacity:1" />
    <path
       d="m 43.449,257.491 c 0,-0.163 0.132,-0.295 0.295,-0.295 h 7.378 c 0.163,0 0.294,0.132 0.294,0.294 v 14.212 a 0.294,0.294 0 0 1 -0.294,0.294 h -7.378 a 0.294,0.294 0 0 1 -0.294,-0.294 v -14.211 z"
       fill="#151106"
       id="path3615"
       style="fill:none;fill-opacity:1;stroke:#ffffff;stroke-opacity:1" />
    <path
       d="m 44.016,270.409 v -11.625 c 0,-0.561 0.459,-1.021 1.021,-1.021 h 4.792 c 0.561,0 1.021,0.459 1.021,1.021 v 11.625 c 0,0.561 -0.459,1.021 -1.021,1.021 h -4.792 a 1.023,1.023 0 0 1 -1.021,-1.021 z"
       fill="#c7bcae"
       id="path3617"
       style="fill:none;fill-opacity:1;stroke:#ffffff;stroke-opacity:1" />
    <path
       d="m 22.949,83.207 c 0,-0.163 0.132,-0.295 0.295,-0.295 h 7.378 c 0.163,0 0.294,0.132 0.294,0.294 v 14.212 a 0.294,0.294 0 0 1 -0.294,0.294 H 23.244 A 0.294,0.294 0 0 1 22.95,97.418 V 83.207 Z"
       fill="#151106"
       id="path3619"
       style="fill:none;fill-opacity:1;stroke:#ffffff;stroke-opacity:1" />
    <path
       d="M 23.516,96.125 V 84.5 c 0,-0.561 0.459,-1.021 1.021,-1.021 h 4.792 c 0.561,0 1.021,0.459 1.021,1.021 v 11.625 c 0,0.561 -0.459,1.021 -1.021,1.021 h -4.792 c -0.562,0 -1.021,-0.46 -1.021,-1.021 z"
       fill="#c7bcae"
       id="path3621"
       style="fill:none;fill-opacity:1;stroke:#ffffff;stroke-opacity:1" />
    <path
       d="m 22.949,106.962 c 0,-0.163 0.132,-0.295 0.295,-0.295 h 7.378 c 0.163,0 0.294,0.132 0.294,0.294 v 14.212 a 0.294,0.294 0 0 1 -0.294,0.294 h -7.378 a 0.294,0.294 0 0 1 -0.294,-0.294 v -14.211 z"
       fill="#151106"
       id="path3623"
       style="fill:none;fill-opacity:1;stroke:#ffffff;stroke-opacity:1" />
    <path
       d="m 23.516,119.88 v -11.625 c 0,-0.561 0.459,-1.021 1.021,-1.021 h 4.792 c 0.561,0 1.021,0.459 1.021,1.021 v 11.625 c 0,0.561 -0.459,1.021 -1.021,1.021 h -4.792 c -0.562,0 -1.021,-0.46 -1.021,-1.021 z"
       fill="#c7bcae"
       id="path3625"
       style="fill:none;fill-opacity:1;stroke:#ffffff;stroke-opacity:1" />
    <path
       d="m 22.949,130.717 c 0,-0.163 0.132,-0.295 0.295,-0.295 h 7.378 c 0.163,0 0.294,0.132 0.294,0.294 v 14.212 a 0.294,0.294 0 0 1 -0.294,0.294 h -7.378 a 0.294,0.294 0 0 1 -0.294,-0.294 v -14.211 z"
       fill="#151106"
       id="path3627"
       style="fill:none;fill-opacity:1;stroke:#ffffff;stroke-opacity:1" />
    <path
       d="M 23.516,143.635 V 132.01 c 0,-0.561 0.459,-1.021 1.021,-1.021 h 4.792 c 0.561,0 1.021,0.459 1.021,1.021 v 11.625 c 0,0.561 -0.459,1.021 -1.021,1.021 h -4.792 c -0.562,0 -1.021,-0.46 -1.021,-1.021 z"
       fill="#c7bcae"
       id="path3629"
       style="fill:none;fill-opacity:1;stroke:#ffffff;stroke-opacity:1" />
    <path
       d="m 22.949,154.472 c 0,-0.163 0.132,-0.295 0.295,-0.295 h 7.378 c 0.163,0 0.294,0.132 0.294,0.294 v 14.212 a 0.294,0.294 0 0 1 -0.294,0.294 h -7.378 a 0.294,0.294 0 0 1 -0.294,-0.294 v -14.211 z"
       fill="#151106"
       id="path3631"
       style="fill:none;fill-opacity:1;stroke:#ffffff;stroke-opacity:1" />
    <path
       d="m 23.516,167.39 v -11.625 c 0,-0.561 0.459,-1.021 1.021,-1.021 h 4.792 c 0.561,0 1.021,0.459 1.021,1.021 v 11.625 c 0,0.561 -0.459,1.021 -1.021,1.021 h -4.792 c -0.562,0 -1.021,-0.46 -1.021,-1.021 z"
       fill="#c7bcae"
       id="path3633"
       style="fill:none;fill-opacity:1;stroke:#ffffff;stroke-opacity:1" />
    <path
       d="m 23.312,201.687 h 7.242 c 0.2,0 0.362,0.162 0.362,0.362 v 21.693 c 0,0.2 -0.162,0.362 -0.362,0.362 H 23.312 A 0.362,0.362 0 0 1 22.95,223.742 V 202.05 a 0.361,0.361 0 0 1 0.362,-0.363 z"
       fill="#151106"
       id="path3635"
       style="fill:none;fill-opacity:1;stroke:#ffffff;stroke-opacity:1" />
    <path
       d="m 23.516,221.989 v -18.188 a 1.26,1.26 0 0 1 1.256,-1.256 h 4.321 a 1.26,1.26 0 0 1 1.256,1.256 v 18.188 a 1.26,1.26 0 0 1 -1.256,1.256 h -4.321 a 1.259,1.259 0 0 1 -1.256,-1.256 z"
       fill="#c7bcae"
       id="path3637"
       style="fill:none;fill-opacity:1;stroke:#ffffff;stroke-opacity:1" />
    <g
       id="g3643"
       style="fill:none;fill-opacity:1;stroke:#ffffff;stroke-opacity:1">
      <path
         d="m 22.949,257.491 c 0,-0.163 0.132,-0.295 0.295,-0.295 h 7.378 c 0.163,0 0.294,0.132 0.294,0.294 v 14.212 a 0.294,0.294 0 0 1 -0.294,0.294 h -7.378 a 0.294,0.294 0 0 1 -0.294,-0.294 v -14.211 z"
         fill="#151106"
         id="path3639"
         style="fill:none;fill-opacity:1;stroke:#ffffff;stroke-opacity:1" />
      <path
         d="m 23.516,270.409 v -11.625 c 0,-0.561 0.459,-1.021 1.021,-1.021 h 4.792 c 0.561,0 1.021,0.459 1.021,1.021 v 11.625 c 0,0.561 -0.459,1.021 -1.021,1.021 h -4.792 a 1.023,1.023 0 0 1 -1.021,-1.021 z"
         fill="#c7bcae"
         id="path3641"
         style="fill:none;fill-opacity:1;stroke:#ffffff;stroke-opacity:1" />
    </g>
    <path
       d="m 63.949,271.147 v -13.101 a 0.283,0.283 0 0 0 -0.283,-0.283 h -2.107 a 0.283,0.283 0 0 0 -0.283,0.283 v 13.101 c 0,0.156 0.127,0.283 0.283,0.283 h 2.107 a 0.283,0.283 0 0 0 0.283,-0.283 z m 7.734,0 v -13.101 c 0,-0.156 0.127,-0.283 0.283,-0.283 h 2.107 c 0.156,0 0.283,0.127 0.283,0.283 v 13.101 a 0.283,0.283 0 0 1 -0.283,0.283 h -2.107 a 0.283,0.283 0 0 1 -0.283,-0.283 z"
       fill="#26272b"
       id="path3645"
       style="fill:none;fill-opacity:1;stroke:#ffffff;stroke-opacity:1" />
    <g
       id="g3659"
       style="fill:none;fill-opacity:1;stroke:#ffffff;stroke-opacity:1">
      <path
         d="m 99.016,282.93 v 69.671 c 0,0.403 0.33,0.732 0.732,0.732 h 0.702 a 0.734,0.734 0 0 0 0.732,-0.732 V 282.93 a 0.734,0.734 0 0 0 -0.732,-0.732 h -0.702 a 0.734,0.734 0 0 0 -0.732,0.732 z m -5.167,0 v 69.671 c 0,0.403 0.33,0.732 0.732,0.732 h 0.702 a 0.734,0.734 0 0 0 0.732,-0.732 V 282.93 a 0.734,0.734 0 0 0 -0.732,-0.732 h -0.702 a 0.734,0.734 0 0 0 -0.732,0.732 z m -5.166,0 v 69.671 c 0,0.403 0.329,0.732 0.732,0.732 h 0.702 a 0.734,0.734 0 0 0 0.732,-0.732 V 282.93 a 0.734,0.734 0 0 0 -0.732,-0.732 h -0.702 a 0.734,0.734 0 0 0 -0.732,0.732 z m -5.167,0 v 69.671 c 0,0.403 0.33,0.732 0.732,0.732 h 0.702 a 0.734,0.734 0 0 0 0.732,-0.732 V 282.93 a 0.734,0.734 0 0 0 -0.732,-0.732 h -0.702 a 0.734,0.734 0 0 0 -0.732,0.732 z"
         fill="#1c1c1e"
         id="path3657"
         style="fill:none;fill-opacity:1;stroke:#ffffff;stroke-opacity:1" />
    </g>
    <path
       d="m 24.198,301.042 c 0,-6.723 5.47,-12.192 12.193,-12.192 6.723,0 12.192,5.47 12.192,12.192 0,6.724 -5.47,12.193 -12.192,12.193 -6.723,10e-4 -12.193,-5.469 -12.193,-12.193 z"
       fill="#1b1c1e"
       id="path3669"
       style="fill:none;fill-opacity:1;stroke:#ffffff;stroke-opacity:1" />
    <circle
       cx="36.390999"
       cy="301.043"
       r="10.208"
       fill="#232227"
       id="circle3671"
       style="fill:none;fill-opacity:1;stroke:#ffffff;stroke-opacity:1" />
    <path
       d="m 24.198,333.621 c 0,-6.723 5.47,-12.192 12.193,-12.192 6.723,0 12.192,5.47 12.192,12.192 0,6.724 -5.47,12.193 -12.192,12.193 -6.723,10e-4 -12.193,-5.469 -12.193,-12.193 z"
       fill="#1b1c1e"
       id="path3673"
       style="fill:none;fill-opacity:1;stroke:#ffffff;stroke-opacity:1" />
    <circle
       cx="36.390999"
       cy="333.62201"
       r="10.208"
       fill="#232227"
       id="circle3675"
       style="fill:none;fill-opacity:1;stroke:#ffffff;stroke-opacity:1" />
    <path
       d="m 59.557432,45.234558 h 8.446 c 1.275839,-0.0038 2.309156,-1.037161 2.313,-2.313 v -11.375 c -0.0038,-1.275839 -1.037161,-2.309156 -2.313,-2.313 h -8.446 c -0.341,0 -0.669,0.136 -0.91,0.377 l -7.623,7.623 7.623,7.623 c 0.242,0.242 0.569,0.378 0.91,0.378 z m -2.679,-18.68 v -8.446 c -0.0038,-1.275839 -1.037161,-2.309156 -2.313,-2.313 h -11.374 c -1.275839,0.0038 -2.309156,1.037161 -2.313,2.313 v 8.446 c 0,0.341 0.136,0.669 0.377,0.91 l 7.623,7.623 7.623,-7.623 c 0.242,-0.241 0.377,-0.568 0.377,-0.91 z m -18.679,2.679 h -8.446 c -1.275839,0.0038 -2.309156,1.037161 -2.313,2.313 v 11.375 c 0.0038,1.275839 1.037161,2.309156 2.313,2.313 h 8.446 c 0.341,0 0.669,-0.136 0.91,-0.377 l 7.623,-7.623 -7.623,-7.623 c -0.240926,-0.242106 -0.568444,-0.378152 -0.91,-0.378 z m 18.679,18.68 c -0.290136,2.516077 1.571068,10.629686 -2.313,10.759 h -11.374 c -1.275839,-0.0038 -2.309156,-1.037161 -2.313,-2.313 v -8.446 c 0,-0.341 0.136,-0.669 0.377,-0.91 l 7.623,-7.623 7.623,7.623 c 0.242,0.241 0.377,0.568 0.377,0.91 z"
       fill="#06090e"
       id="path3466"
       style="fill:none;fill-opacity:1;stroke:#ffffff;stroke-opacity:1"
       sodipodi:nodetypes="sccccsscsssccccssccscccccsscccccccssccc" />
  </g>
</svg>
