<?xml version="1.0" encoding="UTF-8" standalone="no"?>
<svg
   version="1.0"
   width="410pt"
   height="410pt"
   viewBox="0 0 410 410"
   preserveAspectRatio="xMidYMid"
   id="svg5375"
   sodipodi:docname="chailove.svg"
   inkscape:version="1.2.2 (732a01da63, 2022-12-09)"
   xmlns:inkscape="http://www.inkscape.org/namespaces/inkscape"
   xmlns:sodipodi="http://sodipodi.sourceforge.net/DTD/sodipodi-0.dtd"
   xmlns="http://www.w3.org/2000/svg"
   xmlns:svg="http://www.w3.org/2000/svg">
  <defs
     id="defs5379" />
  <sodipodi:namedview
     id="namedview5377"
     pagecolor="#ffffff"
     bordercolor="#111111"
     borderopacity="1"
     inkscape:showpageshadow="0"
     inkscape:pageopacity="0"
     inkscape:pagecheckerboard="1"
     inkscape:deskcolor="#d1d1d1"
     inkscape:document-units="pt"
     showgrid="false"
     inkscape:zoom="0.63742545"
     inkscape:cx="663.60702"
     inkscape:cy="411.02846"
     inkscape:window-width="1920"
     inkscape:window-height="1009"
     inkscape:window-x="-8"
     inkscape:window-y="-8"
     inkscape:window-maximized="1"
     inkscape:current-layer="svg5375" />
  <metadata
     id="metadata5367">
Created by potrace 1.10, written by Peter Selinger 2001-2011
</metadata>
  <g
     transform="matrix(0.1,0,0,-0.1,-18.308991,992.41053)"
     fill="#000000"
     stroke="none"
     id="g5373"
     style="stroke-width:50.00000003;stroke-dasharray:none;stroke:#ffffff;stroke-opacity:1;fill:none">
    <path
       d="m 1675,8788 c -103,-22 -234,-83 -320,-148 -217,-167 -330,-372 -340,-620 -12,-285 117,-547 414,-840 59,-58 142,-134 186,-169 44,-35 85,-69 90,-75 6,-6 18,-15 27,-21 9,-5 76,-51 150,-101 191,-131 307,-198 343,-197 61,0 439,252 645,429 381,326 564,635 563,946 -1,170 -57,338 -151,458 -44,56 -154,170 -164,170 -4,0 -31,18 -60,40 -68,51 -147,89 -243,117 -121,34 -245,21 -380,-42 -54,-25 -96,-57 -162,-122 -24,-24 -46,-43 -50,-43 -4,0 -33,25 -64,56 -55,54 -85,77 -121,90 -10,3 -18,10 -18,15 0,5 -8,9 -18,9 -10,0 -22,4 -27,9 -37,33 -217,57 -300,39 z m 204,-33 c 100,-24 177,-70 266,-160 l 81,-80 45,56 c 55,66 161,141 244,171 47,17 82,22 160,22 114,1 167,-13 285,-76 303,-161 482,-477 441,-779 -53,-400 -405,-800 -1057,-1202 l -122,-74 -108,66 c -441,269 -732,525 -915,803 -171,260 -207,545 -99,784 96,214 318,408 531,464 90,23 163,25 248,5 z"
       id="path5371"
       style="stroke-width:50.00000003;stroke-dasharray:none;stroke:#ffffff;stroke-opacity:1;fill:none" />
  </g>
  <circle
     style="fill:none;stroke:#ffffff;stroke-width:5;stroke-linecap:round;stroke-linejoin:round;stroke-dasharray:none;stroke-opacity:1;paint-order:fill markers stroke"
     id="path5550"
     cx="204.64035"
     cy="205.84795"
     r="200" />
</svg>
