<?xml version="1.0" encoding="UTF-8" standalone="no"?>
<!-- Generator: Adobe Illustrator 13.0.0, SVG Export Plug-In . SVG Version: 6.00 Build 14948)  -->

<svg
   version="1.2"
   id="Layer_3"
   x="0px"
   y="0px"
   width="598.18903"
   height="190"
   viewBox="0 0 598.189 189.99999"
   xml:space="preserve"
   sodipodi:docname="channelf.svg"
   inkscape:version="1.2.2 (732a01da63, 2022-12-09)"
   xmlns:inkscape="http://www.inkscape.org/namespaces/inkscape"
   xmlns:sodipodi="http://sodipodi.sourceforge.net/DTD/sodipodi-0.dtd"
   xmlns="http://www.w3.org/2000/svg"
   xmlns:svg="http://www.w3.org/2000/svg"><defs
   id="defs115" /><sodipodi:namedview
   id="namedview113"
   pagecolor="#000000"
   bordercolor="#111111"
   borderopacity="1"
   inkscape:showpageshadow="0"
   inkscape:pageopacity="0"
   inkscape:pagecheckerboard="1"
   inkscape:deskcolor="#d1d1d1"
   showgrid="false"
   inkscape:zoom="2.0445042"
   inkscape:cx="299.58363"
   inkscape:cy="175.10357"
   inkscape:window-width="1920"
   inkscape:window-height="1009"
   inkscape:window-x="-8"
   inkscape:window-y="-8"
   inkscape:window-maximized="1"
   inkscape:current-layer="Layer_3" />
<polygon
   fill="#efefef"
   points="177.298,261.984 175.298,261.984 175.298,162.098 177.298,162.098 "
   id="polygon2"
   transform="translate(0,-116)" />
<polygon
   fill="#efefef"
   points="187.063,261.984 185.064,261.984 185.064,161.096 187.063,161.096 "
   id="polygon4"
   transform="translate(0,-116)" />
<polygon
   fill="#efefef"
   points="194.877,261.148 192.876,261.148 192.876,163.096 194.877,163.096 "
   id="polygon6"
   transform="translate(0,-116)" />
<polygon
   fill="#efefef"
   points="204.643,262.822 202.642,262.822 202.642,161.097 204.643,161.097 "
   id="polygon8"
   transform="translate(0,-116)" />
<polygon
   fill="#efefef"
   points="210.781,262.402 208.78,262.402 208.78,161.098 210.781,161.098 "
   id="polygon10"
   transform="translate(0,-116)" />
<polygon
   fill="#efefef"
   points="220.546,261.566 218.545,261.566 218.545,162.097 220.546,162.097 "
   id="polygon12"
   transform="translate(0,-116)" />
<polygon
   fill="#efefef"
   points="228.357,261.984 226.359,261.984 226.359,162.098 228.357,162.098 "
   id="polygon14"
   transform="translate(0,-116)" />
<polygon
   fill="#efefef"
   points="238.123,262.402 236.125,262.402 236.125,161.098 238.123,161.098 "
   id="polygon16"
   transform="translate(0,-116)" />
<polygon
   fill="#efefef"
   points="244.541,262.402 242.542,262.402 242.542,161.098 244.541,161.098 "
   id="polygon18"
   transform="translate(0,-116)" />
<polygon
   fill="#efefef"
   points="254.307,261.148 252.307,261.148 252.307,162.097 254.307,162.097 "
   id="polygon20"
   transform="translate(0,-116)" />
<polygon
   fill="#efefef"
   points="262.121,261.984 260.12,261.984 260.12,162.098 262.121,162.098 "
   id="polygon22"
   transform="translate(0,-116)" />
<polygon
   fill="#efefef"
   points="271.885,261.984 269.884,261.984 269.884,162.098 271.885,162.098 "
   id="polygon24"
   transform="translate(0,-116)" />
<polygon
   fill="#efefef"
   points="278.859,261.984 276.861,261.984 276.861,161.096 278.859,161.096 "
   id="polygon26"
   transform="translate(0,-116)" />
<polygon
   fill="#efefef"
   points="288.624,261.984 286.625,261.984 286.625,162.098 288.624,162.098 "
   id="polygon28"
   transform="translate(0,-116)" />
<polygon
   fill="#efefef"
   points="296.439,261.566 294.438,261.566 294.438,162.097 296.439,162.097 "
   id="polygon30"
   transform="translate(0,-116)" />
<polygon
   fill="#efefef"
   points="306.203,262.402 304.204,262.402 304.204,161.098 306.203,161.098 "
   id="polygon32"
   transform="translate(0,-116)" />
<polygon
   fill="#efefef"
   points="312.341,262.822 310.342,262.822 310.342,161.097 312.341,161.097 "
   id="polygon34"
   transform="translate(0,-116)" />
<polygon
   fill="#efefef"
   points="322.106,261.148 320.105,261.148 320.105,163.096 322.106,163.096 "
   id="polygon36"
   transform="translate(0,-116)" />
<polygon
   fill="#efefef"
   points="329.918,261.984 327.918,261.984 327.918,162.098 329.918,162.098 "
   id="polygon38"
   transform="translate(0,-116)" />
<polygon
   fill="#efefef"
   points="339.685,261.984 337.687,261.984 337.687,162.098 339.685,162.098 "
   id="polygon40"
   transform="translate(0,-116)" />
<polygon
   fill="#efefef"
   points="347.103,262.239 345.103,262.239 345.103,162.097 347.103,162.097 "
   id="polygon42"
   transform="translate(0,-116)" />
<polygon
   fill="#efefef"
   points="355.867,260.73 353.867,260.73 353.867,163.097 355.867,163.097 "
   id="polygon44"
   transform="translate(0,-116)" />
<polygon
   fill="#efefef"
   points="363.681,262.402 361.68,262.402 361.68,161.098 363.681,161.098 "
   id="polygon46"
   transform="translate(0,-116)" />
<polygon
   fill="#efefef"
   points="373.444,261.566 371.444,261.566 371.444,162.097 373.444,162.097 "
   id="polygon48"
   transform="translate(0,-116)" />
<polygon
   fill="#efefef"
   points="381.258,261.984 379.259,261.984 379.259,162.098 381.258,162.098 "
   id="polygon50"
   transform="translate(0,-116)" />
<polygon
   fill="#efefef"
   points="391.023,262.402 389.021,262.402 389.021,161.097 391.023,161.097 "
   id="polygon52"
   transform="translate(0,-116)" />
<polygon
   fill="#efefef"
   points="398.837,260.309 396.836,260.309 396.836,163.097 398.837,163.097 "
   id="polygon54"
   transform="translate(0,-116)" />
<polygon
   fill="#efefef"
   points="407.603,263.241 405.602,263.241 405.602,162.098 407.603,162.098 "
   id="polygon56"
   transform="translate(0,-116)" />
<polygon
   fill="#efefef"
   points="414.739,262.403 412.739,262.403 412.739,162.097 414.739,162.097 "
   id="polygon58"
   transform="translate(0,-116)" />
<polygon
   fill="#efefef"
   points="424.506,261.985 422.506,261.985 422.506,162.097 424.506,162.097 "
   id="polygon60"
   transform="translate(0,-116)" />
<polygon
   fill="#efefef"
   points="432.319,261.565 430.317,261.565 430.317,162.098 432.319,162.098 "
   id="polygon62"
   transform="translate(0,-116)" />
<polygon
   fill="#efefef"
   points="442.084,262.403 440.083,262.403 440.083,161.097 442.084,161.097 "
   id="polygon64"
   transform="translate(0,-116)" />
<polygon
   fill="#efefef"
   points="448.502,262.402 446.501,262.402 446.501,161.098 448.502,161.098 "
   id="polygon66"
   transform="translate(0,-116)" />
<polygon
   fill="#efefef"
   points="458.267,261.566 456.267,261.566 456.267,162.096 458.267,162.096 "
   id="polygon68"
   transform="translate(0,-116)" />
<polygon
   fill="#efefef"
   points="466.079,261.565 464.078,261.565 464.078,161.679 466.079,161.679 "
   id="polygon70"
   transform="translate(0,-116)" />
<polygon
   fill="#efefef"
   points="475.845,261.985 473.844,261.985 473.844,162.098 475.845,162.098 "
   id="polygon72"
   transform="translate(0,-116)" />
<polygon
   fill="#efefef"
   points="482.821,261.984 480.82,261.984 480.82,161.261 482.821,161.261 "
   id="polygon74"
   transform="translate(0,-116)" />
<polygon
   fill="#efefef"
   points="492.585,261.565 490.584,261.565 490.584,161.259 492.585,161.259 "
   id="polygon76"
   transform="translate(0,-116)" />
<polygon
   fill="#efefef"
   points="500.119,261.428 498.118,261.428 498.118,161.539 500.119,161.539 "
   id="polygon78"
   transform="translate(0,-116)" />
<polygon
   fill="#efefef"
   points="509.885,262.265 507.884,262.265 507.884,161.541 509.885,161.541 "
   id="polygon80"
   transform="translate(0,-116)" />
<polygon
   fill="#efefef"
   points="517.14,261.985 515.14,261.985 515.14,162.097 517.14,162.097 "
   id="polygon82"
   transform="translate(0,-116)" />
<polygon
   fill="#efefef"
   points="526.903,262.403 524.905,262.403 524.905,161.097 526.903,161.097 "
   id="polygon84"
   transform="translate(0,-116)" />
<polygon
   fill="#efefef"
   points="533.88,261.984 531.88,261.984 531.88,162.096 533.88,162.096 "
   id="polygon86"
   transform="translate(0,-116)" />
<polygon
   fill="#efefef"
   points="543.646,261.984 541.646,261.984 541.646,162.097 543.646,162.097 "
   id="polygon88"
   transform="translate(0,-116)" />
<path
   fill="#efefef"
   d="m 571.012,60.815 c 0.013,-5.042 2.472,-10.376 5.907,-14.527 v 0 c 1.751,-2.097 3.756,-3.909 5.877,-5.189 v 0 c -47.975,0 -338.665,0 -414.959,0 v 0 c -10.96,0 -17.479,0 -18.248,0 v 0 c -0.024,0.003 -0.066,0.01 -0.137,0.023 v 0 c -0.13,0.028 -0.328,0.074 -0.566,0.155 v 0 c -0.481,0.164 -1.13,0.46 -1.78,0.986 v 0 c -1.191,0.983 -2.458,2.722 -2.64,6.234 v 0 c 9.781,2.031 16.127,3.812 18.439,3.785 v 0 l 0.17,1.986 c -2.648,0.456 -5.653,0.647 -8.793,0.647 v 0 c -5.843,0 -12.157,-0.665 -17.427,-1.578 v 0 c -5.296,-0.934 -9.432,-2.028 -11.313,-3.187 v 0 l 1.066,-1.69 c 1.251,0.819 5.449,2.031 10.59,2.906 v 0 c 5.166,0.896 11.39,1.549 17.084,1.547 v 0 c 0.284,0 0.567,-0.002 0.848,-0.005 v 0 c -3.148,-0.718 -7.088,-1.649 -11.887,-2.624 v 0 l -0.8,-0.164 v -0.815 c -0.015,-4.521 1.652,-7.197 3.406,-8.598 v 0 c 1.746,-1.409 3.451,-1.59 3.561,-1.605 v 0 l 0.056,-0.004 h 0.046 c 0,0 425.847,0 439.661,0 v 0 1.999 c -0.03,0 -0.063,0 -0.099,0 v 0 c -3.359,0.021 -7.455,2.63 -10.616,6.467 v 0 c -3.21,3.851 -5.458,8.876 -5.447,13.25 v 0 h 0.002 -2.001 z"
   id="path90" />
<path
   fill="#efefef"
   d="m 154.372,21.579 c 0.002,-5.811 4.711,-10.52 10.522,-10.522 v 0 c 5.811,0.002 10.52,4.711 10.521,10.522 v 0 c -0.002,5.811 -4.71,10.52 -10.521,10.521 v 0 c -5.811,-0.002 -10.52,-4.71 -10.522,-10.521 z m 2,0 c 0.008,4.707 3.815,8.511 8.522,8.521 v 0 c 4.707,-0.01 8.511,-3.815 8.521,-8.521 v 0 c -0.01,-4.707 -3.817,-8.514 -8.521,-8.522 v 0 c -4.707,0.008 -8.514,3.815 -8.522,8.522 z"
   id="path92" />
<path
   fill="#efefef"
   d="m 562.431,21.578 c 0,-5.811 4.71,-10.521 10.523,-10.521 v 0 c 5.809,0 10.521,4.709 10.521,10.521 v 0 c 0,5.814 -4.712,10.521 -10.521,10.521 v 0 c -5.811,0 -10.523,-4.707 -10.523,-10.521 z m 1.999,0 c 0.009,4.708 3.816,8.513 8.524,8.521 v 0 c 4.705,-0.008 8.513,-3.814 8.521,-8.521 v 0 c -0.009,-4.705 -3.816,-8.513 -8.521,-8.521 v 0 c -4.706,0.008 -8.516,3.816 -8.524,8.521 z"
   id="path94" />
<path
   fill="#efefef"
   d="m 529.29,149.426 c -2.041,0.011 -3.37,-1.282 -4.247,-2.535 v 0 c -0.903,-1.275 -1.601,-2.637 -2.417,-3.389 v 0 c -0.547,-0.503 -1.045,-0.764 -1.833,-0.773 v 0 c -1.148,0.01 -1.81,0.602 -2.624,1.703 v 0 c -0.79,1.079 -1.487,2.544 -2.664,3.674 v 0 c -0.778,0.754 -1.874,1.331 -3.207,1.32 v 0 c -2.041,0.011 -3.372,-1.282 -4.249,-2.535 v 0 c -0.903,-1.275 -1.601,-2.637 -2.417,-3.389 v 0 c -0.547,-0.503 -1.045,-0.764 -1.833,-0.773 v 0 c -1.146,0.01 -1.808,0.602 -2.622,1.703 v 0 c -0.79,1.079 -1.487,2.544 -2.664,3.674 v 0 c -0.78,0.754 -1.876,1.331 -3.209,1.32 v 0 c -2.039,0.011 -3.367,-1.282 -4.247,-2.535 v 0 c -0.901,-1.275 -1.599,-2.637 -2.412,-3.389 v 0 c -0.549,-0.503 -1.047,-0.764 -1.836,-0.773 v 0 c -1.146,0.01 -1.808,0.602 -2.623,1.703 v 0 c -0.789,1.079 -1.486,2.544 -2.662,3.674 v 0 c -0.778,0.754 -1.876,1.331 -3.209,1.32 v 0 c -2.039,0.011 -3.37,-1.282 -4.246,-2.535 v 0 c -0.904,-1.275 -1.6,-2.637 -2.416,-3.389 v 0 c -0.547,-0.503 -1.045,-0.764 -1.835,-0.773 v 0 c -1.147,0.01 -1.807,0.602 -2.622,1.703 v 0 c -0.789,1.079 -1.486,2.544 -2.662,3.674 v 0 c -0.778,0.754 -1.876,1.331 -3.209,1.32 v 0 c -2.039,0.011 -3.37,-1.282 -4.247,-2.535 v 0 c -0.901,-1.275 -1.599,-2.637 -2.412,-3.389 v 0 c -0.549,-0.503 -1.045,-0.764 -1.834,-0.773 v 0 c -1.146,0.01 -1.808,0.602 -2.621,1.703 v 0 c -0.791,1.079 -1.488,2.544 -2.665,3.674 v 0 c -0.779,0.754 -1.875,1.331 -3.209,1.32 v 0 c -2.038,0.011 -3.369,-1.282 -4.247,-2.535 v 0 c -0.903,-1.275 -1.598,-2.637 -2.414,-3.389 v 0 c -0.549,-0.503 -1.045,-0.764 -1.836,-0.773 v 0 c -1.146,0.01 -1.808,0.602 -2.623,1.703 v 0 c -0.789,1.079 -1.486,2.544 -2.662,3.674 v 0 c -0.778,0.754 -1.874,1.331 -3.207,1.32 v 0 c -2.041,0.011 -3.372,-1.282 -4.25,-2.535 v 0 c -0.902,-1.275 -1.598,-2.637 -2.412,-3.389 v 0 c -0.549,-0.503 -1.045,-0.764 -1.833,-0.773 v 0 c -1.148,0.01 -1.811,0.602 -2.626,1.703 v 0 c -0.788,1.079 -1.486,2.544 -2.662,3.674 v 0 c -0.78,0.754 -1.876,1.331 -3.209,1.32 v 0 c -2.039,0.011 -3.37,-1.282 -4.247,-2.535 v 0 c -0.901,-1.275 -1.599,-2.637 -2.412,-3.389 v 0 c -0.549,-0.503 -1.045,-0.764 -1.834,-0.773 v 0 c -1.146,0.01 -1.808,0.602 -2.624,1.703 v 0 c -0.788,1.079 -1.487,2.544 -2.662,3.674 v 0 c -0.779,0.754 -1.878,1.331 -3.209,1.32 v 0 c -2.041,0.011 -3.369,-1.282 -4.247,-2.535 v 0 c -0.903,-1.275 -1.601,-2.637 -2.414,-3.389 v 0 c -0.549,-0.503 -1.045,-0.764 -1.836,-0.773 v 0 c -1.145,0.01 -1.806,0.602 -2.619,1.703 v 0 c -0.791,1.079 -1.488,2.544 -2.664,3.674 v 0 c -0.778,0.754 -1.876,1.331 -3.209,1.32 v 0 c -2.039,0.011 -3.368,-1.282 -4.245,-2.535 v 0 c -0.903,-1.275 -1.601,-2.637 -2.414,-3.389 v 0 c -0.547,-0.503 -1.045,-0.764 -1.834,-0.773 v 0 c -1.148,0.01 -1.81,0.602 -2.624,1.703 v 0 c -0.79,1.079 -1.487,2.544 -2.664,3.674 v 0 c -0.777,0.754 -1.874,1.331 -3.207,1.32 v 0 c -2.041,0.011 -3.37,-1.282 -4.247,-2.535 v 0 c -0.903,-1.275 -1.599,-2.637 -2.414,-3.389 v 0 c -0.547,-0.503 -1.043,-0.764 -1.833,-0.773 v 0 c -1.147,0.01 -1.809,0.602 -2.622,1.703 v 0 c -0.791,1.079 -1.488,2.544 -2.664,3.674 v 0 c -0.78,0.754 -1.876,1.331 -3.209,1.32 v 0 c -2.039,0.011 -3.368,-1.282 -4.246,-2.535 v 0 c -0.902,-1.275 -1.598,-2.637 -2.411,-3.389 v 0 c -0.55,-0.503 -1.045,-0.764 -1.836,-0.773 v 0 c -1.146,0.01 -1.808,0.602 -2.622,1.703 v 0 c -0.79,1.079 -1.487,2.544 -2.664,3.674 v 0 c -0.777,0.754 -1.873,1.331 -3.207,1.32 v 0 c -2.039,0.011 -3.37,-1.282 -4.247,-2.535 v 0 c -0.9,-1.275 -1.599,-2.637 -2.414,-3.389 v 0 c -0.547,-0.503 -1.045,-0.764 -1.833,-0.773 v 0 c -1.147,0.01 -1.809,0.602 -2.624,1.703 v 0 c -0.789,1.079 -1.486,2.544 -2.662,3.674 v 0 c -0.778,0.754 -1.874,1.331 -3.207,1.32 v 0 c -2.041,0.011 -3.37,-1.282 -4.248,-2.535 v 0 c -0.902,-1.275 -1.598,-2.637 -2.411,-3.389 v 0 c -0.55,-0.503 -1.048,-0.764 -1.836,-0.773 v 0 c -1.146,0.01 -1.808,0.602 -2.622,1.703 v 0 c -0.791,1.079 -1.488,2.544 -2.662,3.674 v 0 c -0.78,0.754 -1.875,1.331 -3.209,1.32 v 0 c -2.039,0.011 -3.37,-1.282 -4.248,-2.535 v 0 c -0.9,-1.275 -1.598,-2.637 -2.412,-3.389 v 0 c -0.549,-0.503 -1.045,-0.764 -1.835,-0.773 v 0 c -1.145,0.01 -1.806,0.602 -2.622,1.703 v 0 c -0.789,1.079 -1.486,2.544 -2.662,3.674 v 0 c -0.78,0.754 -1.875,1.331 -3.209,1.32 v 0 c -2.039,0.011 -3.368,-1.282 -4.245,-2.535 v 0 c -0.903,-1.275 -1.598,-2.637 -2.414,-3.389 v 0 c -0.547,-0.503 -1.043,-0.764 -1.833,-0.773 v 0 c -1.146,0.01 -1.806,0.602 -2.622,1.703 v 0 c -0.788,1.079 -1.485,2.544 -2.662,3.674 v 0 c -0.78,0.754 -1.876,1.331 -3.209,1.32 v 0 c -2.039,0.011 -3.368,-1.282 -4.246,-2.535 v 0 c -0.903,-1.275 -1.598,-2.637 -2.414,-3.389 v 0 c -0.547,-0.503 -1.043,-0.764 -1.833,-0.773 v 0 c -1.145,0.01 -1.806,0.602 -2.622,1.703 v 0 c -0.789,1.079 -1.486,2.544 -2.662,3.674 v 0 c -0.78,0.754 -1.876,1.331 -3.209,1.32 v 0 c -2.039,0.011 -3.368,-1.282 -4.245,-2.535 v 0 c -0.903,-1.275 -1.598,-2.637 -2.415,-3.389 v 0 c -0.546,-0.503 -1.042,-0.764 -1.833,-0.773 v 0 c -1.145,0.01 -1.806,0.602 -2.622,1.703 v 0 c -0.789,1.079 -1.486,2.544 -2.662,3.674 v 0 c -0.778,0.754 -1.874,1.331 -3.207,1.32 v 0 c -2.039,0.011 -3.37,-1.282 -4.246,-2.535 v 0 c -0.903,-1.275 -1.6,-2.637 -2.414,-3.389 v 0 c -0.549,-0.503 -1.045,-0.764 -1.835,-0.773 v 0 c -1.145,0.01 -1.806,0.602 -2.622,1.703 v 0 c -0.789,1.079 -1.486,2.544 -2.662,3.674 v 0 c -0.78,0.754 -1.876,1.331 -3.209,1.32 v 0 c -2.039,0.011 -3.37,-1.282 -4.248,-2.535 v 0 c -0.901,-1.275 -1.598,-2.637 -2.412,-3.389 v 0 c -0.549,-0.503 -1.045,-0.764 -1.835,-0.773 v 0 c -1.146,0.01 -1.806,0.602 -2.622,1.703 v 0 c -0.791,1.079 -1.488,2.544 -2.662,3.674 v 0 c -0.78,0.754 -1.876,1.331 -3.209,1.32 v 0 c -2.041,0.011 -3.37,-1.282 -4.248,-2.535 v 0 c -0.903,-1.275 -1.598,-2.637 -2.414,-3.389 v 0 c -0.547,-0.503 -1.043,-0.764 -1.833,-0.773 v 0 c -1.146,0.01 -1.808,0.602 -2.622,1.703 v 0 c -0.791,1.079 -1.488,2.544 -2.665,3.674 v 0 c -0.778,0.754 -1.874,1.331 -3.207,1.32 v 0 c -1.117,0.002 -2.647,-0.143 -3.883,-1.314 v 0 c -1.228,-1.178 -1.931,-3.147 -1.931,-6.312 v 0 c 0,-6.07 0,-36.621 0,-36.621 v 0 -18.624 c 0,-0.002 0,-30.552 0,-36.622 v 0 c 0,-3.165 0.704,-5.134 1.931,-6.312 v 0 c 1.235,-1.172 2.766,-1.314 3.883,-1.314 v 0 c 2.039,-0.011 3.368,1.282 4.245,2.535 v 0 c 0.903,1.274 1.598,2.637 2.412,3.389 v 0 c 0.549,0.502 1.045,0.761 1.835,0.771 v 0 c 1.146,-0.011 1.808,-0.6 2.622,-1.702 v 0 c 0.791,-1.079 1.488,-2.543 2.664,-3.673 v 0 c 0.778,-0.752 1.874,-1.331 3.209,-1.32 v 0 c 2.039,-0.011 3.368,1.282 4.245,2.535 v 0 c 0.903,1.274 1.598,2.635 2.414,3.389 v 0 c 0.547,0.502 1.045,0.761 1.833,0.771 v 0 c 1.146,-0.011 1.808,-0.6 2.622,-1.702 v 0 c 0.791,-1.079 1.488,-2.543 2.664,-3.673 v 0 c 0.78,-0.752 1.875,-1.331 3.209,-1.32 v 0 c 2.039,-0.011 3.368,1.282 4.245,2.535 v 0 c 0.903,1.274 1.598,2.637 2.414,3.389 v 0 c 0.547,0.502 1.045,0.761 1.833,0.771 v 0 c 1.146,-0.011 1.808,-0.6 2.622,-1.702 v 0 c 0.791,-1.079 1.488,-2.543 2.664,-3.673 v 0 c 0.778,-0.752 1.874,-1.331 3.209,-1.32 v 0 c 2.039,-0.011 3.368,1.282 4.243,2.535 v 0 c 0.903,1.274 1.6,2.637 2.414,3.389 v 0 c 0.547,0.502 1.045,0.761 1.833,0.771 v 0 c 1.146,-0.011 1.808,-0.6 2.622,-1.702 v 0 c 0.791,-1.079 1.488,-2.543 2.662,-3.673 v 0 c 0.78,-0.752 1.876,-1.331 3.209,-1.32 v 0 c 2.039,-0.011 3.368,1.282 4.246,2.535 v 0 c 0.903,1.274 1.598,2.637 2.414,3.389 v 0 c 0.547,0.502 1.045,0.761 1.833,0.771 v 0 c 1.147,-0.011 1.806,-0.6 2.622,-1.702 v 0 c 0.789,-1.079 1.486,-2.543 2.662,-3.673 v 0 c 0.78,-0.752 1.875,-1.331 3.209,-1.32 v 0 c 2.039,-0.011 3.368,1.282 4.245,2.535 v 0 c 0.903,1.274 1.598,2.637 2.414,3.389 v 0 c 0.547,0.502 1.045,0.761 1.833,0.771 v 0 c 1.146,-0.011 1.808,-0.6 2.622,-1.702 v 0 c 0.791,-1.079 1.488,-2.543 2.662,-3.673 v 0 c 0.78,-0.752 1.876,-1.331 3.209,-1.32 v 0 c 2.039,-0.011 3.368,1.282 4.246,2.535 v 0 c 0.903,1.274 1.598,2.637 2.414,3.389 v 0 c 0.547,0.502 1.043,0.761 1.833,0.771 v 0 c 1.146,-0.011 1.808,-0.6 2.624,-1.702 v 0 c 0.789,-1.079 1.486,-2.543 2.662,-3.673 v 0 c 0.78,-0.752 1.876,-1.331 3.209,-1.32 v 0 c 2.039,-0.011 3.368,1.282 4.246,2.535 v 0 c 0.903,1.274 1.598,2.637 2.412,3.389 v 0 c 0.549,0.502 1.044,0.761 1.835,0.771 v 0 c 1.146,-0.011 1.808,-0.6 2.622,-1.702 v 0 c 0.79,-1.079 1.487,-2.543 2.664,-3.673 v 0 c 0.777,-0.752 1.874,-1.331 3.209,-1.32 v 0 c 2.037,-0.011 3.365,1.282 4.243,2.535 v 0 c 0.903,1.274 1.601,2.635 2.414,3.389 v 0 c 0.549,0.502 1.045,0.761 1.836,0.771 v 0 c 1.145,-0.011 1.806,-0.6 2.621,-1.702 v 0 c 0.791,-1.079 1.488,-2.543 2.664,-3.673 v 0 c 0.778,-0.752 1.876,-1.331 3.209,-1.32 v 0 c 2.039,-0.011 3.368,1.282 4.243,2.535 v 0 c 0.903,1.274 1.601,2.635 2.414,3.389 v 0 c 0.55,0.502 1.045,0.761 1.836,0.771 v 0 c 1.146,-0.011 1.808,-0.6 2.622,-1.702 v 0 c 0.79,-1.079 1.487,-2.543 2.662,-3.673 v 0 c 0.779,-0.752 1.876,-1.331 3.209,-1.32 v 0 c 2.039,-0.011 3.37,1.282 4.245,2.535 v 0 c 0.902,1.274 1.601,2.635 2.414,3.389 v 0 c 0.549,0.502 1.045,0.761 1.836,0.771 v 0 c 1.146,-0.011 1.806,-0.6 2.621,-1.702 v 0 c 0.789,-1.079 1.486,-2.543 2.664,-3.673 v 0 c 0.778,-0.752 1.874,-1.331 3.209,-1.32 v 0 c 2.037,-0.011 3.368,1.282 4.246,2.535 v 0 c 0.902,1.274 1.598,2.635 2.411,3.389 v 0 c 0.55,0.502 1.045,0.761 1.838,0.771 v 0 c 1.145,-0.011 1.806,-0.6 2.622,-1.702 v 0 c 0.788,-1.079 1.485,-2.543 2.662,-3.673 v 0 c 0.78,-0.752 1.876,-1.331 3.209,-1.32 v 0 c 2.039,-0.011 3.37,1.282 4.247,2.535 v 0 c 0.901,1.274 1.599,2.637 2.412,3.389 v 0 c 0.549,0.502 1.045,0.761 1.833,0.771 v 0 c 1.147,-0.011 1.809,-0.6 2.624,-1.702 v 0 c 0.789,-1.079 1.486,-2.543 2.665,-3.673 v 0 c 0.777,-0.752 1.873,-1.331 3.208,-1.32 v 0 c 2.039,-0.011 3.368,1.282 4.246,2.535 v 0 c 0.902,1.274 1.598,2.635 2.414,3.389 v 0 c 0.547,0.502 1.045,0.761 1.835,0.771 v 0 c 1.145,-0.011 1.806,-0.6 2.622,-1.702 v 0 c 0.788,-1.079 1.485,-2.543 2.662,-3.673 v 0 c 0.778,-0.752 1.874,-1.331 3.209,-1.32 v 0 c 2.037,-0.011 3.368,1.282 4.245,2.535 v 0 c 0.903,1.274 1.599,2.635 2.414,3.389 v 0 c 0.549,0.502 1.047,0.761 1.838,0.771 v 0 c 1.145,-0.011 1.806,-0.6 2.62,-1.702 v 0 c 0.79,-1.079 1.487,-2.543 2.664,-3.673 v 0 c 0.779,-0.752 1.875,-1.331 3.211,-1.32 v 0 c 2.037,-0.011 3.368,1.282 4.243,2.535 v 0 c 0.902,1.274 1.6,2.635 2.414,3.389 v 0 c 0.549,0.502 1.045,0.761 1.835,0.771 v 0 c 1.147,-0.011 1.809,-0.6 2.624,-1.702 v 0 c 0.789,-1.079 1.488,-2.543 2.665,-3.673 v 0 c 0.777,-0.752 1.875,-1.331 3.208,-1.32 v 0 c 2.039,-0.011 3.37,1.282 4.246,2.535 v 0 c 0.902,1.274 1.6,2.635 2.414,3.389 v 0 c 0.549,0.502 1.045,0.761 1.835,0.771 v 0 c 1.145,-0.011 1.806,-0.6 2.62,-1.702 v 0 c 0.79,-1.079 1.487,-2.543 2.664,-3.673 v 0 c 0.778,-0.752 1.876,-1.331 3.209,-1.32 v 0 c 2.039,-0.011 3.368,1.282 4.245,2.535 v 0 c 0.903,1.274 1.599,2.637 2.414,3.389 v 0 c 0.549,0.502 1.045,0.761 1.834,0.771 v 0 c 1.146,-0.011 1.808,-0.6 2.624,-1.702 v 0 c 0.79,-1.079 1.487,-2.543 2.664,-3.673 v 0 c 0.779,-0.752 1.875,-1.331 3.209,-1.32 v 0 c 2.038,-0.011 3.369,1.282 4.247,2.535 v 0 c 0.9,1.274 1.598,2.635 2.412,3.389 v 0 c 0.549,0.502 1.045,0.761 1.835,0.771 v 0 c 1.147,-0.011 1.809,-0.6 2.622,-1.702 v 0 c 0.791,-1.079 1.488,-2.543 2.664,-3.673 v 0 c 0.78,-0.752 1.876,-1.331 3.209,-1.32 v 0 c 2.039,-0.011 3.37,1.282 4.245,2.535 v 0 c 0.903,1.274 1.601,2.635 2.415,3.389 v 0 c 0.549,0.502 1.045,0.761 1.835,0.771 v 0 c 1.146,-0.011 1.808,-0.6 2.622,-1.702 v 0 c 0.79,-1.079 1.487,-2.543 2.666,-3.673 v 0 c 0.778,-0.752 1.876,-1.331 3.211,-1.32 v 0 c 2.037,-0.011 3.368,1.282 4.245,2.535 v 0 c 0.903,1.274 1.599,2.635 2.415,3.389 v 0 c 0.547,0.502 1.045,0.761 1.835,0.771 v 0 c 1.146,-0.011 1.808,-0.6 2.622,-1.702 v 0 c 0.79,-1.079 1.487,-2.543 2.664,-3.673 v 0 c 0.78,-0.752 1.876,-1.331 3.211,-1.32 v 0 c 2.039,-0.011 3.368,1.282 4.247,2.535 v 0 c 0.901,1.274 1.599,2.635 2.415,3.389 v 0 c 0.546,0.502 1.045,0.761 1.833,0.771 v 0 c 1.148,-0.011 1.81,-0.6 2.624,-1.702 v 0 c 0.793,-1.079 1.487,-2.543 2.666,-3.673 v 0 c 0.78,-0.752 1.876,-1.331 3.211,-1.32 v 0 c 1.905,-0.009 3.652,0.731 4.835,2.155 v 0 c 1.185,1.42 1.799,3.427 1.799,5.89 v 0 c 0,4.604 0,42.898 0,42.898 v 0 5.231 c 0,0.042 0,38.297 0,42.898 v 0 c 0,2.463 -0.614,4.47 -1.799,5.891 v 0 c -1.183,1.426 -2.93,2.166 -4.835,2.155 v 0 c -2.041,0.011 -3.372,-1.282 -4.249,-2.535 v 0 c -0.903,-1.275 -1.601,-2.637 -2.417,-3.389 v 0 c -0.547,-0.503 -1.045,-0.764 -1.835,-0.773 v 0 c -1.146,0.01 -1.808,0.602 -2.622,1.703 v 0 c -0.79,1.079 -1.487,2.544 -2.664,3.674 v 0 c -0.772,0.747 -1.855,1.32 -3.173,1.32 v 0 c -0.007,10e-4 -0.019,10e-4 -0.031,10e-4 z m -4.25,-6.161 c 0.901,1.273 1.599,2.637 2.415,3.389 v 0 c 0.546,0.502 1.045,0.763 1.835,0.773 v 0 c 1.146,-0.011 1.808,-0.602 2.622,-1.704 v 0 c 0.79,-1.078 1.487,-2.543 2.664,-3.675 v 0 c 0.778,-0.753 1.876,-1.329 3.209,-1.318 v 0 c 2.039,-0.011 3.37,1.28 4.249,2.535 v 0 c 0.901,1.273 1.599,2.637 2.415,3.389 v 0 c 0.549,0.502 1.045,0.763 1.837,0.771 v 0 c 2.76,-0.065 4.538,-1.746 4.634,-6.045 v 0 c 0,-4.604 0,-42.898 0,-42.898 v 0 -5.231 c 0,0 0,-38.294 0,-42.898 v 0 c -0.096,-4.298 -1.874,-5.979 -4.634,-6.045 v 0 c -1.148,0.011 -1.81,0.602 -2.626,1.702 v 0 c -0.79,1.081 -1.487,2.543 -2.664,3.673 v 0 c -0.78,0.755 -1.876,1.331 -3.211,1.321 v 0 c -2.039,0.01 -3.368,-1.283 -4.248,-2.535 v 0 c -0.9,-1.274 -1.598,-2.634 -2.414,-3.387 v 0 c -0.547,-0.504 -1.045,-0.763 -1.833,-0.774 v 0 c -1.148,0.011 -1.81,0.602 -2.624,1.702 v 0 c -0.79,1.081 -1.487,2.543 -2.664,3.673 v 0 c -0.78,0.755 -1.876,1.331 -3.209,1.321 v 0 c -2.041,0.01 -3.37,-1.283 -4.247,-2.535 v 0 c -0.903,-1.274 -1.599,-2.634 -2.414,-3.387 v 0 c -0.55,-0.504 -1.045,-0.763 -1.834,-0.774 v 0 c -1.148,0.011 -1.812,0.602 -2.626,1.702 v 0 c -0.79,1.081 -1.487,2.543 -2.664,3.673 v 0 c -0.78,0.752 -1.876,1.331 -3.209,1.321 v 0 c -2.039,0.01 -3.368,-1.283 -4.247,-2.535 v 0 c -0.901,-1.274 -1.599,-2.634 -2.412,-3.387 v 0 c -0.549,-0.504 -1.045,-0.763 -1.836,-0.774 v 0 c -1.146,0.011 -1.808,0.602 -2.621,1.702 v 0 c -0.791,1.081 -1.488,2.543 -2.665,3.673 v 0 c -0.779,0.752 -1.875,1.331 -3.209,1.321 v 0 c -2.038,0.01 -3.369,-1.283 -4.247,-2.535 v 0 c -0.903,-1.274 -1.598,-2.634 -2.412,-3.387 v 0 c -0.549,-0.504 -1.045,-0.763 -1.835,-0.774 v 0 c -1.147,0.011 -1.809,0.602 -2.624,1.702 v 0 c -0.789,1.081 -1.486,2.543 -2.664,3.673 v 0 c -0.778,0.755 -1.874,1.331 -3.209,1.321 v 0 c -2.039,0.01 -3.368,-1.283 -4.246,-2.535 v 0 c -0.902,-1.274 -1.598,-2.634 -2.412,-3.387 v 0 c -0.549,-0.504 -1.045,-0.763 -1.835,-0.774 v 0 c -1.146,0.011 -1.808,0.602 -2.622,1.702 v 0 c -0.79,1.081 -1.487,2.543 -2.664,3.673 v 0 c -0.777,0.752 -1.874,1.331 -3.207,1.321 v 0 c -2.039,0.01 -3.367,-1.283 -4.247,-2.535 v 0 c -0.901,-1.274 -1.599,-2.634 -2.412,-3.387 v 0 c -0.549,-0.504 -1.045,-0.763 -1.836,-0.774 v 0 c -1.146,0.011 -1.808,0.602 -2.623,1.702 v 0 c -0.789,1.081 -1.488,2.543 -2.662,3.673 v 0 c -0.78,0.752 -1.878,1.331 -3.212,1.321 v 0 c -2.038,0.01 -3.369,-1.283 -4.247,-2.535 v 0 c -0.903,-1.274 -1.598,-2.634 -2.412,-3.387 v 0 c -0.549,-0.504 -1.045,-0.763 -1.833,-0.774 v 0 c -1.149,0.011 -1.811,0.602 -2.626,1.702 v 0 c -0.789,1.081 -1.486,2.543 -2.662,3.673 v 0 c -0.778,0.752 -1.874,1.331 -3.207,1.321 v 0 c -2.041,0.01 -3.372,-1.283 -4.25,-2.535 v 0 c -0.902,-1.274 -1.598,-2.634 -2.414,-3.387 v 0 c -0.547,-0.504 -1.045,-0.763 -1.833,-0.774 v 0 c -1.146,0.011 -1.808,0.6 -2.622,1.702 v 0 c -0.79,1.081 -1.487,2.543 -2.664,3.673 v 0 c -0.777,0.752 -1.874,1.331 -3.207,1.321 v 0 c -2.039,0.01 -3.37,-1.283 -4.247,-2.535 v 0 c -0.903,-1.274 -1.599,-2.634 -2.414,-3.387 v 0 c -0.549,-0.504 -1.045,-0.763 -1.834,-0.774 v 0 c -1.146,0.011 -1.808,0.602 -2.623,1.702 v 0 c -0.791,1.081 -1.488,2.543 -2.665,3.673 v 0 c -0.777,0.752 -1.875,1.331 -3.209,1.321 v 0 c -2.038,0.01 -3.367,-1.283 -4.243,-2.535 v 0 c -0.902,-1.274 -1.6,-2.634 -2.414,-3.387 v 0 c -0.549,-0.504 -1.045,-0.763 -1.835,-0.774 v 0 c -1.146,0.011 -1.808,0.602 -2.622,1.702 v 0 c -0.79,1.081 -1.488,2.543 -2.664,3.673 v 0 c -0.778,0.752 -1.874,1.331 -3.207,1.321 v 0 c -2.041,0.01 -3.37,-1.283 -4.247,-2.535 v 0 c -0.903,-1.274 -1.599,-2.634 -2.414,-3.387 v 0 c -0.549,-0.504 -1.045,-0.763 -1.834,-0.774 v 0 c -1.146,0.011 -1.808,0.602 -2.624,1.702 v 0 c -0.788,1.081 -1.485,2.543 -2.662,3.673 v 0 c -0.779,0.752 -1.875,1.331 -3.208,1.321 v 0 c -2.039,0.01 -3.37,-1.283 -4.246,-2.535 v 0 c -0.904,-1.274 -1.6,-2.634 -2.414,-3.387 v 0 c -0.549,-0.504 -1.045,-0.763 -1.835,-0.774 v 0 c -1.146,0.011 -1.806,0.6 -2.622,1.702 v 0 c -0.788,1.079 -1.485,2.543 -2.662,3.673 v 0 c -0.78,0.752 -1.876,1.331 -3.209,1.321 v 0 c -2.039,0.01 -3.37,-1.283 -4.247,-2.535 v 0 c -0.901,-1.274 -1.599,-2.634 -2.412,-3.387 v 0 c -0.549,-0.504 -1.045,-0.763 -1.834,-0.774 v 0 c -1.146,0.011 -1.808,0.602 -2.624,1.702 v 0 c -0.788,1.081 -1.485,2.543 -2.662,3.673 v 0 c -0.779,0.752 -1.875,1.331 -3.208,1.321 v 0 c -2.042,0.01 -3.37,-1.283 -4.248,-2.535 v 0 c -0.902,-1.274 -1.598,-2.634 -2.412,-3.387 v 0 c -0.549,-0.504 -1.045,-0.763 -1.833,-0.774 v 0 c -1.146,0.011 -1.808,0.602 -2.624,1.702 v 0 c -0.788,1.081 -1.485,2.543 -2.662,3.673 v 0 c -0.78,0.752 -1.876,1.331 -3.209,1.321 v 0 c -2.039,0.01 -3.37,-1.283 -4.245,-2.535 v 0 c -0.903,-1.274 -1.598,-2.634 -2.414,-3.387 v 0 c -0.547,-0.504 -1.045,-0.763 -1.833,-0.774 v 0 c -1.146,0.011 -1.808,0.602 -2.622,1.702 v 0 c -0.791,1.081 -1.488,2.543 -2.665,3.673 v 0 c -0.778,0.752 -1.875,1.331 -3.208,1.321 v 0 c -2.039,0.01 -3.368,-1.283 -4.246,-2.535 v 0 c -0.903,-1.274 -1.598,-2.634 -2.414,-3.387 v 0 c -0.547,-0.504 -1.043,-0.763 -1.833,-0.774 v 0 c -1.145,0.011 -1.806,0.6 -2.622,1.702 v 0 c -0.789,1.081 -1.486,2.543 -2.662,3.673 v 0 c -0.78,0.752 -1.876,1.331 -3.209,1.321 v 0 c -2.039,0.01 -3.368,-1.283 -4.246,-2.535 v 0 c -0.903,-1.274 -1.598,-2.634 -2.414,-3.387 v 0 c -0.547,-0.504 -1.045,-0.763 -1.833,-0.774 v 0 c -1.147,0.011 -1.806,0.6 -2.622,1.702 v 0 c -0.789,1.079 -1.486,2.543 -2.662,3.673 v 0 c -0.78,0.752 -1.875,1.331 -3.209,1.321 v 0 c -2.039,0.01 -3.368,-1.283 -4.245,-2.535 v 0 c -0.903,-1.274 -1.598,-2.634 -2.412,-3.387 v 0 c -0.549,-0.504 -1.045,-0.763 -1.835,-0.774 v 0 c -1.146,0.011 -1.806,0.6 -2.622,1.702 v 0 c -0.789,1.079 -1.486,2.543 -2.662,3.673 v 0 c -0.778,0.752 -1.874,1.331 -3.209,1.321 v 0 c -2.039,0.01 -3.368,-1.283 -4.246,-2.535 v 0 c -0.901,-1.274 -1.598,-2.634 -2.412,-3.387 v 0 c -0.549,-0.504 -1.045,-0.763 -1.833,-0.774 v 0 c -1.147,0.011 -1.808,0.6 -2.622,1.702 v 0 c -0.791,1.081 -1.488,2.543 -2.664,3.673 v 0 c -0.778,0.752 -1.876,1.331 -3.209,1.321 v 0 c -2.039,0.01 -3.368,-1.283 -4.245,-2.535 v 0 c -0.903,-1.274 -1.598,-2.634 -2.415,-3.387 v 0 c -0.546,-0.504 -1.044,-0.763 -1.833,-0.774 v 0 c -1.147,0.011 -1.808,0.602 -2.622,1.702 v 0 c -0.791,1.081 -1.488,2.543 -2.664,3.673 v 0 c -0.78,0.752 -1.876,1.331 -3.209,1.321 v 0 c -2.039,0.01 -3.368,-1.283 -4.245,-2.535 v 0 c -0.903,-1.274 -1.601,-2.634 -2.414,-3.387 v 0 c -0.547,-0.504 -1.045,-0.763 -1.833,-0.774 v 0 c -1.147,0.011 -1.808,0.602 -2.624,1.702 v 0 c -0.789,1.081 -1.486,2.543 -2.662,3.673 v 0 c -0.78,0.752 -1.876,1.331 -3.209,1.321 v 0 c -2.039,0.01 -3.37,-1.283 -4.245,-2.535 v 0 c -0.903,-1.274 -1.601,-2.634 -2.414,-3.387 v 0 c -0.547,-0.504 -1.045,-0.763 -1.833,-0.774 v 0 c -0.977,0.002 -1.854,0.138 -2.503,0.761 v 0 c -0.655,0.617 -1.31,1.96 -1.31,4.864 v 0 c -0.002,6.07 -0.002,36.62 0,36.622 v 0 18.624 c -0.002,0.036 -0.002,30.553 0,36.621 v 0 c 0,2.903 0.655,4.247 1.31,4.864 v 0 c 0.651,0.625 1.526,0.761 2.503,0.761 v 0 c 1.145,-0.009 1.806,-0.6 2.622,-1.702 v 0 c 0.789,-1.078 1.486,-2.543 2.662,-3.675 v 0 c 0.78,-0.753 1.876,-1.329 3.209,-1.32 v 0 c 2.039,-0.009 3.368,1.284 4.246,2.537 v 0 c 0.903,1.273 1.6,2.637 2.414,3.389 v 0 c 0.549,0.502 1.045,0.763 1.835,0.771 v 0 c 1.145,-0.009 1.806,-0.6 2.622,-1.702 v 0 c 0.789,-1.078 1.486,-2.543 2.662,-3.675 v 0 c 0.78,-0.753 1.876,-1.329 3.209,-1.32 v 0 c 2.039,-0.009 3.37,1.284 4.248,2.537 v 0 c 0.901,1.273 1.598,2.637 2.412,3.389 v 0 c 0.549,0.502 1.045,0.763 1.835,0.771 v 0 c 1.146,-0.009 1.806,-0.6 2.622,-1.702 v 0 c 0.791,-1.078 1.488,-2.543 2.662,-3.675 v 0 c 0.78,-0.753 1.876,-1.329 3.209,-1.32 v 0 c 2.039,-0.009 3.37,1.284 4.248,2.537 v 0 c 0.901,1.273 1.598,2.637 2.412,3.389 v 0 c 0.549,0.502 1.045,0.763 1.835,0.771 v 0 c 1.145,-0.009 1.806,-0.6 2.62,-1.702 v 0 c 0.791,-1.078 1.488,-2.543 2.662,-3.675 v 0 c 0.78,-0.753 1.875,-1.329 3.209,-1.318 v 0 c 2.039,-0.011 3.37,1.282 4.245,2.535 v 0 c 0.903,1.273 1.6,2.637 2.414,3.389 v 0 c 0.547,0.502 1.045,0.763 1.833,0.771 v 0 c 1.146,-0.009 1.806,-0.6 2.622,-1.702 v 0 c 0.791,-1.078 1.488,-2.543 2.662,-3.675 v 0 c 0.78,-0.753 1.876,-1.329 3.209,-1.318 v 0 c 2.039,-0.011 3.368,1.282 4.246,2.535 v 0 c 0.903,1.273 1.598,2.637 2.414,3.389 v 0 c 0.547,0.502 1.043,0.763 1.833,0.771 v 0 c 1.146,-0.009 1.806,-0.6 2.622,-1.702 v 0 c 0.791,-1.078 1.488,-2.543 2.662,-3.675 v 0 c 0.78,-0.753 1.876,-1.329 3.209,-1.32 v 0 c 2.039,-0.009 3.368,1.284 4.245,2.537 v 0 c 0.903,1.273 1.598,2.637 2.415,3.389 v 0 c 0.546,0.502 1.045,0.763 1.833,0.773 v 0 c 1.147,-0.011 1.806,-0.602 2.622,-1.704 v 0 c 0.789,-1.078 1.486,-2.543 2.662,-3.675 v 0 c 0.78,-0.753 1.875,-1.329 3.209,-1.32 v 0 c 2.039,-0.009 3.37,1.284 4.247,2.537 v 0 c 0.903,1.273 1.598,2.637 2.415,3.389 v 0 c 0.546,0.502 1.042,0.763 1.833,0.773 v 0 c 1.147,-0.011 1.806,-0.602 2.622,-1.704 v 0 c 0.789,-1.078 1.486,-2.543 2.662,-3.675 v 0 c 0.778,-0.753 1.874,-1.329 3.208,-1.32 v 0 c 2.039,-0.009 3.368,1.282 4.245,2.537 v 0 c 0.903,1.273 1.601,2.637 2.414,3.389 v 0 c 0.549,0.502 1.045,0.763 1.836,0.771 v 0 c 1.145,-0.009 1.806,-0.6 2.619,-1.702 v 0 c 0.791,-1.078 1.488,-2.543 2.662,-3.675 v 0 c 0.78,-0.753 1.876,-1.329 3.212,-1.32 v 0 c 2.038,-0.009 3.367,1.284 4.245,2.537 v 0 c 0.902,1.273 1.6,2.637 2.414,3.389 v 0 c 0.549,0.502 1.045,0.763 1.835,0.771 v 0 c 1.145,-0.009 1.807,-0.6 2.62,-1.702 v 0 c 0.79,-1.078 1.488,-2.543 2.664,-3.675 v 0 c 0.778,-0.753 1.874,-1.329 3.209,-1.32 v 0 c 2.039,-0.009 3.368,1.284 4.247,2.537 v 0 c 0.901,1.273 1.597,2.637 2.412,3.389 v 0 c 0.547,0.502 1.043,0.763 1.834,0.771 v 0 c 1.146,-0.009 1.808,-0.6 2.621,-1.702 v 0 c 0.791,-1.078 1.488,-2.543 2.665,-3.675 v 0 c 0.779,-0.753 1.875,-1.329 3.209,-1.318 v 0 c 2.038,-0.011 3.369,1.282 4.245,2.535 v 0 c 0.902,1.273 1.6,2.637 2.414,3.389 v 0 c 0.547,0.502 1.045,0.763 1.835,0.771 v 0 c 1.145,-0.009 1.806,-0.6 2.622,-1.702 v 0 c 0.788,-1.078 1.486,-2.543 2.662,-3.675 v 0 c 0.78,-0.753 1.876,-1.329 3.211,-1.32 v 0 c 2.039,-0.009 3.368,1.284 4.245,2.537 v 0 c 0.903,1.273 1.599,2.637 2.414,3.389 v 0 c 0.547,0.502 1.045,0.763 1.834,0.771 v 0 c 1.146,-0.009 1.808,-0.6 2.622,-1.702 v 0 c 0.79,-1.078 1.487,-2.543 2.664,-3.675 v 0 c 0.777,-0.753 1.873,-1.329 3.206,-1.32 v 0 c 2.042,-0.009 3.37,1.282 4.248,2.537 v 0 c 0.902,1.273 1.601,2.637 2.414,3.389 v 0 c 0.547,0.502 1.045,0.763 1.835,0.771 v 0 c 1.145,-0.009 1.807,-0.6 2.622,-1.702 v 0 c 0.789,-1.078 1.486,-2.543 2.664,-3.675 v 0 c 0.778,-0.753 1.874,-1.329 3.209,-1.32 v 0 c 2.039,-0.009 3.368,1.284 4.246,2.537 v 0 c 0.902,1.273 1.598,2.637 2.411,3.389 v 0 c 0.55,0.502 1.045,0.763 1.836,0.771 v 0 c 1.145,-0.009 1.806,-0.6 2.622,-1.702 v 0 c 0.79,-1.078 1.487,-2.543 2.664,-3.675 v 0 c 0.78,-0.753 1.876,-1.329 3.211,-1.32 v 0 c 2.037,-0.009 3.366,1.284 4.243,2.537 v 0 c 0.903,1.273 1.598,2.637 2.414,3.389 v 0 c 0.549,0.502 1.047,0.763 1.838,0.771 v 0 c 1.145,-0.009 1.806,-0.6 2.619,-1.702 v 0 c 0.791,-1.078 1.488,-2.543 2.665,-3.675 v 0 c 0.779,-0.753 1.875,-1.329 3.208,-1.32 v 0 c 2.042,-0.009 3.37,1.282 4.248,2.537 v 0 c 0.902,1.273 1.6,2.637 2.414,3.389 v 0 c 0.549,0.502 1.045,0.763 1.835,0.771 v 0 c 1.147,-0.009 1.809,-0.6 2.622,-1.702 v 0 c 0.791,-1.078 1.488,-2.543 2.664,-3.675 v 0 c 0.778,-0.753 1.876,-1.329 3.209,-1.32 v 0 c 2.039,-0.009 3.368,1.284 4.246,2.537 v 0 c 0.9,1.273 1.598,2.637 2.411,3.389 v 0 c 0.55,0.502 1.045,0.763 1.836,0.771 v 0 c 1.146,-0.009 1.808,-0.6 2.622,-1.702 v 0 c 0.79,-1.078 1.487,-2.543 2.662,-3.675 v 0 c 0.779,-0.753 1.875,-1.329 3.209,-1.318 v 0 c 2.038,-0.011 3.369,1.28 4.247,2.535 v 0 c 0.903,1.273 1.601,2.637 2.414,3.389 v 0 c 0.549,0.502 1.047,0.763 1.836,0.771 v 0 c 1.146,-0.009 1.808,-0.6 2.624,-1.702 v 0 c 0.788,-1.078 1.485,-2.543 2.661,-3.675 v 0 c 0.778,-0.753 1.876,-1.329 3.209,-1.32 v 0 c 2.039,-0.009 3.37,1.282 4.246,2.537 v 0 c 0.902,1.273 1.6,2.637 2.414,3.389 v 0 c 0.549,0.502 1.045,0.763 1.835,0.771 v 0 c 1.146,-0.009 1.809,-0.6 2.622,-1.702 v 0 c 0.791,-1.078 1.488,-2.543 2.664,-3.675 v 0 c 0.778,-0.753 1.876,-1.329 3.209,-1.32 v 0 c 2.039,-0.009 3.368,1.284 4.247,2.537 v 0 c 0.901,1.273 1.599,2.637 2.415,3.389 v 0 c 0.547,0.502 1.045,0.763 1.837,0.771 v 0 c 1.145,-0.009 1.806,-0.6 2.622,-1.702 v 0 c 0.788,-1.078 1.485,-2.543 2.662,-3.675 v 0 c 0.78,-0.753 1.876,-1.329 3.211,-1.318 v 0 c 0.009,0 0.017,0 0.025,0 v 0 c 2.023,-10e-4 3.344,1.285 4.22,2.535 z"
   id="path96" />
<path
   fill="#efefef"
   d="m 546.69,149.494 v -1.999 c 1.432,0 2.894,0.025 4.351,0.023 v 0 c 5.176,0.011 10.245,-0.356 13.901,-3.051 v 0 c 3.648,-2.675 6.266,-7.784 6.276,-18.049 v 0 c 0,-23.729 0,-23.729 0.002,-23.753 v 0 -13.602 c -0.002,0 -0.002,0 0,-23.749 v 0 c -0.013,-10.265 -2.63,-15.379 -6.278,-18.052 v 0 c -3.654,-2.696 -8.726,-3.062 -13.903,-3.053 v 0 c -1.457,0 -2.917,0.027 -4.349,0.027 v 0 -2.001 c 1.406,0 2.868,-0.026 4.349,-0.026 v 0 c 5.235,0.009 10.755,0.287 15.085,3.438 v 0 c 4.343,3.176 7.108,9.114 7.096,19.667 v 0 c 0,23.749 0,23.749 0,23.749 v 0 13.602 c 0,0.023 0,0.023 0,23.753 v 0 c 0.013,10.549 -2.753,16.487 -7.096,19.661 v 0 c -4.33,3.151 -9.85,3.43 -15.083,3.439 v 0 c -1.48,0.002 -2.94,-0.024 -4.351,-0.024 z m 0,0 v 0.003 z"
   id="path98" />
<path
   fill="#efefef"
   d="m 167.837,152.635 c -11.671,-0.002 -18.306,-0.002 -18.325,0 v 0 h -0.044 l -0.058,-0.007 c -0.11,-0.015 -1.815,-0.195 -3.561,-1.603 v 0 c -1.754,-1.402 -3.42,-4.078 -3.404,-8.598 v 0 -0.817 l 0.798,-0.163 c 4.804,-0.977 8.748,-1.908 11.899,-2.626 v 0 c -0.285,-0.004 -0.57,-0.006 -0.858,-0.006 v 0 c -5.694,0 -11.92,0.651 -17.086,1.548 v 0 c -5.141,0.875 -9.338,2.088 -10.588,2.91 v 0 l -1.071,-1.69 c 1.884,-1.16 6.02,-2.254 11.316,-3.19 v 0 c 5.272,-0.913 11.583,-1.577 17.429,-1.577 v 0 c 3.14,0 6.143,0.193 8.791,0.648 v 0 l -0.17,1.986 c -2.311,-0.027 -8.656,1.753 -18.436,3.786 v 0 c 0.352,6.277 4.085,7.106 4.982,7.374 v 0 c 0.056,0.012 0.094,0.02 0.12,0.023 v 0 c 5.409,0 378.33,0 433.223,0 v 0 c -2.12,-1.28 -4.125,-3.092 -5.876,-5.188 v 0 c -3.436,-4.152 -5.895,-9.487 -5.907,-14.529 v 0 h 2.001 c -0.013,4.374 2.235,9.399 5.445,13.252 v 0 c 3.162,3.835 7.258,6.444 10.618,6.465 v 0 c 0.034,0 0.066,0 0.097,0 v 0 2.001 c -12.087,-10e-4 -339.635,-10e-4 -421.335,0.001 z"
   id="path100" />
<path
   fill="#efefef"
   d="m 175.671,188.419 c -6.471,-0.011 -13.758,0.042 -19.782,-4.55 v 0 C 149.98,179.34 145.644,170.556 144.395,153.68 v 0 c -5.404,0 -14.345,0 -14.345,0 v 0 h -0.349 l -0.272,-0.217 c -0.398,-0.355 -8.527,-7.158 -8.538,-47.03 v 0 V 85.3 c 0.01,-39.872 8.139,-46.674 8.538,-47.03 v 0 l 0.272,-0.217 h 0.349 c 0.014,0 8.942,0 14.345,0 v 0 c 1.249,-16.875 5.585,-25.66 11.494,-30.191 v 0 c 6.023,-4.59 13.311,-4.539 19.782,-4.548 v 0 c 12.973,0 362.44,0 384.204,0 v 0 c 11.022,0 18.076,2.491 22.501,6.113 v 0 c 4.426,3.62 6.102,8.31 6.534,12.357 v 0 c 0.843,7.825 2.306,35.215 2.306,58.91 v 0 l 0.002,30.344 c -0.002,23.695 -1.465,51.086 -2.308,58.91 v 0 c -0.433,4.048 -2.108,8.738 -6.534,12.357 v 0 c -4.425,3.62 -11.479,6.113 -22.501,6.113 v 0 c -21.764,-0.001 -371.231,-0.001 -384.204,0.001 z m -30.344,-36.738 h 0.935 l 0.064,0.935 c 1.144,17.25 5.444,25.595 10.778,29.667 v 0 c 5.329,4.093 12.063,4.146 18.568,4.135 v 0 c 12.973,0 362.44,0 384.204,0 v 0 c 10.739,0 17.286,-2.425 21.233,-5.656 v 0 c 3.943,-3.236 5.406,-7.333 5.813,-11.029 v 0 c 0.828,-7.66 2.298,-35.096 2.296,-58.693 v 0 -30.344 C 589.22,57.099 587.75,29.664 586.922,22.001 v 0 c -0.406,-3.694 -1.869,-7.79 -5.813,-11.024 v 0 C 577.162,7.743 570.615,5.318 559.876,5.318 v 0 c -21.764,-0.002 -371.231,-0.002 -384.204,0 v 0 C 169.168,5.307 162.433,5.36 157.104,9.453 v 0 c -5.333,4.071 -9.634,12.417 -10.778,29.669 v 0 l -0.062,0.932 h -0.937 c -4.598,0 -12.915,0 -14.861,0 v 0 c -0.004,0.005 -0.009,0.01 -0.013,0.015 v 0 c -0.185,0.213 -0.473,0.577 -0.828,1.15 v 0 c -0.711,1.143 -1.699,3.117 -2.7,6.345 v 0 c -1.999,6.455 -4.035,17.927 -4.035,37.738 v 0 21.133 c -0.012,34.761 6.287,43.796 7.57,45.248 v 0 c 1.936,-0.002 10.262,-0.002 14.867,-0.002 z"
   id="path102" />
<path
   fill="#efefef"
   d="m 154.373,170.154 c 0,-5.813 4.71,-10.521 10.521,-10.521 v 0 c 5.811,0 10.521,4.711 10.521,10.521 v 0 c 0,5.811 -4.71,10.52 -10.521,10.52 v 0 c -5.811,0 -10.521,-4.709 -10.521,-10.52 z m 1.998,0 c 0.01,4.707 3.816,8.512 8.522,8.521 v 0 c 4.707,-0.009 8.512,-3.813 8.521,-8.521 v 0 c -0.008,-4.707 -3.814,-8.515 -8.521,-8.522 v 0 c -4.706,0.008 -8.512,3.817 -8.522,8.522 z"
   id="path104" />
<path
   fill="#efefef"
   d="m 562.431,170.154 c 0,-5.812 4.712,-10.521 10.523,-10.521 v 0 c 5.809,0 10.521,4.709 10.521,10.521 v 0 c 0,5.812 -4.712,10.521 -10.521,10.521 v 0 c -5.811,0 -10.523,-4.709 -10.523,-10.521 z m 1.999,0 c 0.009,4.707 3.816,8.513 8.524,8.521 v 0 c 4.705,-0.009 8.513,-3.816 8.521,-8.521 v 0 c -0.009,-4.705 -3.816,-8.513 -8.521,-8.521 v 0 c -4.708,0.009 -8.516,3.816 -8.524,8.521 z"
   id="path106" />
<path
   fill="#efefef"
   d="m 46.779,164.01 -0.046,-0.09 -0.025,-0.092 c -4.262,-15.49 -5.752,-35.305 -5.754,-55.569 v 0 c 0.006,-45.367 7.493,-92.894 8.668,-98.5 v 0 C 50.355,6.284 51.058,4.07 51.77,2.633 v 0 c 0.696,-1.391 1.5,-2.262 2.672,-2.3 v 0 c 0.293,0 0.565,0.069 0.8,0.168 v 0 c 8.359,1.756 11.882,4.431 13.67,9.617 v 0 c 1.81,5.116 2.335,12.468 5.945,24.533 v 0 c 7.108,23.809 26.533,31.17 31.974,32.81 v 0 c 2.739,0.823 6.162,1.592 9.147,2.515 v 0 c 2.981,0.964 5.554,1.901 6.768,3.789 v 0 l 0.002,0.002 -1.716,1.027 c -0.46,-0.902 -2.769,-2.059 -5.647,-2.908 v 0 c -2.875,-0.892 -6.289,-1.658 -9.128,-2.509 v 0 C 100.539,67.671 80.342,59.966 72.941,35.225 v 0 C 69.297,23.017 68.706,15.441 67.029,10.791 v 0 C 65.336,6.235 63.021,4.306 54.716,2.434 v 0 L 54.591,2.407 54.479,2.351 C 54.443,2.33 54.443,2.336 54.443,2.334 v 0 L 54.435,2.34 c -0.021,0.01 -0.077,0.04 -0.158,0.115 v 0 c -0.165,0.147 -0.427,0.487 -0.714,1.07 v 0 C 52.98,4.688 52.29,6.79 51.582,10.172 v 0 c -1.137,5.385 -8.63,52.964 -8.626,98.087 v 0 c -0.002,20.121 1.492,39.77 5.657,54.944 v 0 c 0.704,1.313 2.773,2.923 6.533,2.923 v 0 c 3.525,0.005 8.556,-1.438 15.124,-5.901 v 0 c 6.626,-4.495 8.177,-11.067 11.005,-18.103 v 0 c 2.796,-6.999 7.058,-14.295 19.076,-19.123 v 0 c 2.341,-0.796 6.757,-0.669 11.143,-1.167 v 0 c 4.383,-0.445 8.391,-1.612 9.514,-3.935 v 0 l 1.771,0.929 c -1.948,3.535 -6.589,4.462 -11.066,4.993 v 0 c -4.473,0.478 -9.124,0.467 -10.651,1.05 v 0 C 89.603,129.542 85.914,136.058 83.13,142.87 v 0 c -2.754,6.778 -4.412,14.016 -11.734,19.007 v 0 c -6.791,4.614 -12.178,6.247 -16.249,6.251 v 0 c -4.431,0 -7.283,-1.958 -8.368,-4.118 z"
   id="path108" />
<path
   fill="#efefef"
   d="M 20.89,152.243 C 10.56,141.544 1.879,125.372 1.883,103.683 v 0 c 0,-4.673 0.404,-9.602 1.277,-14.785 v 0 C 7.783,61.433 16.478,41.087 24.698,27.14 v 0 C 32.941,13.179 40.611,5.677 43.48,3.698 v 0 c 2.106,-1.425 3.569,-2.156 4.973,-2.181 v 0 c 1.148,-0.031 2.11,0.685 2.608,1.552 v 0 c 0.531,0.867 0.848,1.915 1.2,3.133 v 0 0.002 L 50.338,6.752 C 50.005,5.569 49.686,4.635 49.361,4.123 v 0 C 49.001,3.608 48.884,3.546 48.453,3.517 v 0 C 47.878,3.492 46.58,3.979 44.61,5.35 v 0 C 42.177,6.997 34.502,14.424 26.422,28.155 v 0 C 18.32,41.902 9.717,62.012 5.132,89.232 v 0 c -0.854,5.076 -1.248,9.893 -1.248,14.451 v 0 c 0.004,21.144 8.424,36.776 18.447,47.174 v 0 c 9.991,10.396 21.726,15.47 27.76,15.434 v 0 c 0.492,0 0.94,-0.031 1.344,-0.092 v 0 l 0.29,1.979 c -0.514,0.075 -1.06,0.11 -1.633,0.112 v 0 c -6.974,-0.039 -18.84,-5.35 -29.202,-16.047 z"
   id="path110" />
</svg>
