<?xml version="1.0" encoding="UTF-8" standalone="no"?>
<!-- Created with Inkscape (http://www.inkscape.org/) -->

<svg
   version="1.1"
   id="svg5649"
   width="287"
   height="156"
   viewBox="0 0 287 156"
   sodipodi:docname="crvision.svg"
   inkscape:version="1.2.2 (732a01da63, 2022-12-09)"
   xmlns:inkscape="http://www.inkscape.org/namespaces/inkscape"
   xmlns:sodipodi="http://sodipodi.sourceforge.net/DTD/sodipodi-0.dtd"
   xmlns="http://www.w3.org/2000/svg"
   xmlns:svg="http://www.w3.org/2000/svg">
  <defs
     id="defs5653" />
  <sodipodi:namedview
     id="namedview5651"
     pagecolor="#000000"
     bordercolor="#111111"
     borderopacity="1"
     inkscape:showpageshadow="0"
     inkscape:pageopacity="0"
     inkscape:pagecheckerboard="1"
     inkscape:deskcolor="#d1d1d1"
     showgrid="false"
     inkscape:zoom="3.8218751"
     inkscape:cx="130.69501"
     inkscape:cy="91.054781"
     inkscape:window-width="1920"
     inkscape:window-height="1009"
     inkscape:window-x="-8"
     inkscape:window-y="-8"
     inkscape:window-maximized="1"
     inkscape:current-layer="g5655" />
  <g
     inkscape:groupmode="layer"
     inkscape:label="Image"
     id="g5655">
    <rect
       style="fill:none;stroke:#fffdff;stroke-width:1.38652;stroke-linecap:round;stroke-linejoin:round;stroke-dasharray:none;stroke-opacity:1;paint-order:fill markers stroke"
       id="rect6509-6"
       width="22.063299"
       height="16.305204"
       x="243.53767"
       y="34.154945"
       ry="3.4014704"
       rx="3.4014699"
       transform="matrix(0.99999483,0.00321505,-0.00258439,0.99999666,0,0)" />
    <path
       id="rect5828"
       style="fill:none;stroke:#fffdff;stroke-width:1.497;stroke-linecap:round;stroke-linejoin:round;stroke-dasharray:none;stroke-opacity:1;paint-order:fill markers stroke"
       d="m 5.2869507,8.886256 275.5192093,0 L 280.806,148.87 5.287,148.8699 Z"
       sodipodi:nodetypes="ccccc" />
    <path
       id="rect6506"
       style="fill:none;stroke:#fffdff;stroke-width:1.297;stroke-linecap:round;stroke-linejoin:round;stroke-dasharray:none;stroke-opacity:1;paint-order:fill markers stroke"
       d="m 105.54487,31.461525 c -0.0881,-4.22642 2.33145,-8.733846 9.17522,-8.754943 52.65912,-0.162338 159.74291,0.291405 159.74291,0.291405 l 3.1e-4,109.359383 c 0,0 -105.22494,-1.17601 -161.1333,-0.58005 -4.13282,0.0439 -7.85124,-4.7165 -7.78501,-8.84901 0.41166,-25.686546 0.72999,-56.44982 -1.3e-4,-91.466785 z"
       sodipodi:nodetypes="ssccsss" />
    <rect
       style="fill:none;stroke:#fffdff;stroke-width:1.38652;stroke-linecap:round;stroke-linejoin:round;stroke-dasharray:none;stroke-opacity:1;paint-order:fill markers stroke"
       id="rect6509"
       width="22.063299"
       height="16.305204"
       x="118.92596"
       y="35.199959"
       ry="3.4014704"
       rx="3.4014699"
       transform="matrix(0.99999483,0.00321505,-0.00258439,0.99999666,0,0)" />
    <rect
       style="fill:none;stroke:#fffdff;stroke-width:1.38652;stroke-linecap:round;stroke-linejoin:round;stroke-dasharray:none;stroke-opacity:1;paint-order:fill markers stroke"
       id="rect6509-4"
       width="22.063299"
       height="16.305204"
       x="144.24275"
       y="35.115425"
       ry="3.4014704"
       rx="3.4014699"
       transform="matrix(0.99999483,0.00321505,-0.00258439,0.99999666,0,0)" />
    <rect
       style="fill:none;stroke:#fffdff;stroke-width:1.38652;stroke-linecap:round;stroke-linejoin:round;stroke-dasharray:none;stroke-opacity:1;paint-order:fill markers stroke"
       id="rect6509-9"
       width="22.063299"
       height="16.305204"
       x="169.10277"
       y="35.103676"
       ry="3.4014704"
       rx="3.4014699"
       transform="matrix(0.99999483,0.00321505,-0.00258439,0.99999666,0,0)" />
    <rect
       style="fill:none;stroke:#fffdff;stroke-width:1.38652;stroke-linecap:round;stroke-linejoin:round;stroke-dasharray:none;stroke-opacity:1;paint-order:fill markers stroke"
       id="rect6509-0"
       width="22.063299"
       height="16.305204"
       x="194.21623"
       y="34.564461"
       ry="3.4014704"
       rx="3.4014699"
       transform="matrix(0.99999483,0.00321505,-0.00258439,0.99999666,0,0)" />
    <rect
       style="fill:none;stroke:#fffdff;stroke-width:1.38652;stroke-linecap:round;stroke-linejoin:round;stroke-dasharray:none;stroke-opacity:1;paint-order:fill markers stroke"
       id="rect6509-00"
       width="22.063299"
       height="16.305204"
       x="218.9393"
       y="34.162422"
       ry="3.4014704"
       rx="3.4014699"
       transform="matrix(0.99999483,0.00321505,-0.00258439,0.99999666,0,0)" />
    <rect
       style="fill:none;stroke:#fffdff;stroke-width:1.38652;stroke-linecap:round;stroke-linejoin:round;stroke-dasharray:none;stroke-opacity:1;paint-order:fill markers stroke"
       id="rect6509-6-6"
       width="22.063299"
       height="16.305204"
       x="243.81731"
       y="58.323402"
       ry="3.4014704"
       rx="3.4014699"
       transform="matrix(0.99999483,0.00321505,-0.00258439,0.99999666,0,0)" />
    <rect
       style="fill:none;stroke:#fffdff;stroke-width:1.38652;stroke-linecap:round;stroke-linejoin:round;stroke-dasharray:none;stroke-opacity:1;paint-order:fill markers stroke"
       id="rect6509-3"
       width="22.063299"
       height="16.305204"
       x="119.2056"
       y="59.368416"
       ry="3.4014704"
       rx="3.4014699"
       transform="matrix(0.99999483,0.00321505,-0.00258439,0.99999666,0,0)" />
    <rect
       style="fill:none;stroke:#fffdff;stroke-width:1.38652;stroke-linecap:round;stroke-linejoin:round;stroke-dasharray:none;stroke-opacity:1;paint-order:fill markers stroke"
       id="rect6509-4-5"
       width="22.063299"
       height="16.305204"
       x="144.5224"
       y="59.283882"
       ry="3.4014704"
       rx="3.4014699"
       transform="matrix(0.99999483,0.00321505,-0.00258439,0.99999666,0,0)" />
    <rect
       style="fill:none;stroke:#fffdff;stroke-width:1.38652;stroke-linecap:round;stroke-linejoin:round;stroke-dasharray:none;stroke-opacity:1;paint-order:fill markers stroke"
       id="rect6509-9-0"
       width="22.063299"
       height="16.305204"
       x="169.38242"
       y="59.272133"
       ry="3.4014704"
       rx="3.4014699"
       transform="matrix(0.99999483,0.00321505,-0.00258439,0.99999666,0,0)" />
    <rect
       style="fill:none;stroke:#fffdff;stroke-width:1.38652;stroke-linecap:round;stroke-linejoin:round;stroke-dasharray:none;stroke-opacity:1;paint-order:fill markers stroke"
       id="rect6509-0-6"
       width="22.063299"
       height="16.305204"
       x="194.49588"
       y="58.732918"
       ry="3.4014704"
       rx="3.4014699"
       transform="matrix(0.99999483,0.00321505,-0.00258439,0.99999666,0,0)" />
    <rect
       style="fill:none;stroke:#fffdff;stroke-width:1.38652;stroke-linecap:round;stroke-linejoin:round;stroke-dasharray:none;stroke-opacity:1;paint-order:fill markers stroke"
       id="rect6509-00-6"
       width="22.063299"
       height="16.305204"
       x="219.21895"
       y="58.330879"
       ry="3.4014704"
       rx="3.4014699"
       transform="matrix(0.99999483,0.00321505,-0.00258439,0.99999666,0,0)" />
    <rect
       style="fill:none;stroke:#fffdff;stroke-width:1.38652;stroke-linecap:round;stroke-linejoin:round;stroke-dasharray:none;stroke-opacity:1;paint-order:fill markers stroke"
       id="rect6509-6-67"
       width="22.063299"
       height="16.305204"
       x="243.65187"
       y="81.223457"
       ry="3.4014704"
       rx="3.4014699"
       transform="matrix(0.99999483,0.00321505,-0.00258439,0.99999666,0,0)" />
    <rect
       style="fill:none;stroke:#fffdff;stroke-width:1.38652;stroke-linecap:round;stroke-linejoin:round;stroke-dasharray:none;stroke-opacity:1;paint-order:fill markers stroke"
       id="rect6509-66"
       width="22.063299"
       height="16.305204"
       x="119.04018"
       y="82.268471"
       ry="3.4014704"
       rx="3.4014699"
       transform="matrix(0.99999483,0.00321505,-0.00258439,0.99999666,0,0)" />
    <rect
       style="fill:none;stroke:#fffdff;stroke-width:1.38652;stroke-linecap:round;stroke-linejoin:round;stroke-dasharray:none;stroke-opacity:1;paint-order:fill markers stroke"
       id="rect6509-4-4"
       width="22.063299"
       height="16.305204"
       x="144.35696"
       y="82.183937"
       ry="3.4014704"
       rx="3.4014699"
       transform="matrix(0.99999483,0.00321505,-0.00258439,0.99999666,0,0)" />
    <rect
       style="fill:none;stroke:#fffdff;stroke-width:1.38652;stroke-linecap:round;stroke-linejoin:round;stroke-dasharray:none;stroke-opacity:1;paint-order:fill markers stroke"
       id="rect6509-9-8"
       width="22.063299"
       height="16.305204"
       x="169.21698"
       y="82.172188"
       ry="3.4014704"
       rx="3.4014699"
       transform="matrix(0.99999483,0.00321505,-0.00258439,0.99999666,0,0)" />
    <rect
       style="fill:none;stroke:#fffdff;stroke-width:1.38652;stroke-linecap:round;stroke-linejoin:round;stroke-dasharray:none;stroke-opacity:1;paint-order:fill markers stroke"
       id="rect6509-0-4"
       width="22.063299"
       height="16.305204"
       x="194.33044"
       y="81.632973"
       ry="3.4014704"
       rx="3.4014699"
       transform="matrix(0.99999483,0.00321505,-0.00258439,0.99999666,0,0)" />
    <rect
       style="fill:none;stroke:#fffdff;stroke-width:1.38652;stroke-linecap:round;stroke-linejoin:round;stroke-dasharray:none;stroke-opacity:1;paint-order:fill markers stroke"
       id="rect6509-00-7"
       width="22.063299"
       height="16.305204"
       x="219.05351"
       y="81.230934"
       ry="3.4014704"
       rx="3.4014699"
       transform="matrix(0.99999483,0.00321505,-0.00258439,0.99999666,0,0)" />
    <rect
       style="fill:none;stroke:#fffdff;stroke-width:1.38652;stroke-linecap:round;stroke-linejoin:round;stroke-dasharray:none;stroke-opacity:1;paint-order:fill markers stroke"
       id="rect6509-6-5"
       width="22.063299"
       height="16.305204"
       x="243.62749"
       y="104.77537"
       ry="3.4014704"
       rx="3.4014699"
       transform="matrix(0.99999483,0.00321505,-0.00258439,0.99999666,0,0)" />
    <rect
       style="fill:none;stroke:#fffdff;stroke-width:1.38652;stroke-linecap:round;stroke-linejoin:round;stroke-dasharray:none;stroke-opacity:1;paint-order:fill markers stroke"
       id="rect6509-93"
       width="22.063299"
       height="16.305204"
       x="119.0158"
       y="105.82038"
       ry="3.4014704"
       rx="3.4014699"
       transform="matrix(0.99999483,0.00321505,-0.00258439,0.99999666,0,0)" />
    <rect
       style="fill:none;stroke:#fffdff;stroke-width:1.38652;stroke-linecap:round;stroke-linejoin:round;stroke-dasharray:none;stroke-opacity:1;paint-order:fill markers stroke"
       id="rect6509-4-7"
       width="22.063299"
       height="16.305204"
       x="144.33258"
       y="105.73585"
       ry="3.4014704"
       rx="3.4014699"
       transform="matrix(0.99999483,0.00321505,-0.00258439,0.99999666,0,0)" />
    <rect
       style="fill:none;stroke:#fffdff;stroke-width:1.38652;stroke-linecap:round;stroke-linejoin:round;stroke-dasharray:none;stroke-opacity:1;paint-order:fill markers stroke"
       id="rect6509-9-9"
       width="22.063299"
       height="16.305204"
       x="169.1926"
       y="105.7241"
       ry="3.4014704"
       rx="3.4014699"
       transform="matrix(0.99999483,0.00321505,-0.00258439,0.99999666,0,0)" />
    <rect
       style="fill:none;stroke:#fffdff;stroke-width:1.38652;stroke-linecap:round;stroke-linejoin:round;stroke-dasharray:none;stroke-opacity:1;paint-order:fill markers stroke"
       id="rect6509-0-8"
       width="22.063299"
       height="16.305204"
       x="194.30606"
       y="105.18488"
       ry="3.4014704"
       rx="3.4014699"
       transform="matrix(0.99999483,0.00321505,-0.00258439,0.99999666,0,0)" />
    <rect
       style="fill:none;stroke:#fffdff;stroke-width:1.38652;stroke-linecap:round;stroke-linejoin:round;stroke-dasharray:none;stroke-opacity:1;paint-order:fill markers stroke"
       id="rect6509-00-3"
       width="22.063299"
       height="16.305204"
       x="219.02913"
       y="104.78284"
       ry="3.4014704"
       rx="3.4014699"
       transform="matrix(0.99999483,0.00321505,-0.00258439,0.99999666,0,0)" />
    <ellipse
       style="fill:none;stroke:#fffdff;stroke-width:1.597;stroke-linecap:round;stroke-linejoin:round;stroke-dasharray:none;stroke-opacity:1;paint-order:fill markers stroke"
       id="path6798"
       cx="62.71949"
       cy="78.485619"
       rx="35.715454"
       ry="34.538021" />
    <ellipse
       style="fill:none;stroke:#fffdff;stroke-width:1.597;stroke-linecap:round;stroke-linejoin:round;stroke-dasharray:none;stroke-opacity:1;paint-order:fill markers stroke"
       id="path6800"
       cx="62.45784"
       cy="79.008904"
       rx="21.847916"
       ry="21.455437" />
    <rect
       style="fill:none;stroke:#fffdff;stroke-width:1.597;stroke-linecap:round;stroke-linejoin:round;stroke-dasharray:none;stroke-opacity:1;paint-order:fill markers stroke"
       id="rect6802"
       width="5.4946852"
       height="37.154537"
       x="273.49835"
       y="62.66394"
       transform="rotate(-0.74742905)" />
  </g>
</svg>
