<?xml version="1.0" encoding="UTF-8" standalone="no"?>
<!-- Generator: Adobe Illustrator 13.0.0, SVG Export Plug-In . SVG Version: 6.00 Build 14948)  -->

<svg
   version="1.2"
   id="Layer_3"
   x="0px"
   y="0px"
   width="200"
   height="350.26001"
   viewBox="0 0 199.99999 350.26"
   xml:space="preserve"
   sodipodi:docname="daphne.svg"
   inkscape:version="1.2.2 (732a01da63, 2022-12-09)"
   xmlns:inkscape="http://www.inkscape.org/namespaces/inkscape"
   xmlns:sodipodi="http://sodipodi.sourceforge.net/DTD/sodipodi-0.dtd"
   xmlns="http://www.w3.org/2000/svg"
   xmlns:svg="http://www.w3.org/2000/svg"><defs
   id="defs53" /><sodipodi:namedview
   id="namedview51"
   pagecolor="#000000"
   bordercolor="#111111"
   borderopacity="1"
   inkscape:showpageshadow="0"
   inkscape:pageopacity="0"
   inkscape:pagecheckerboard="1"
   inkscape:deskcolor="#d1d1d1"
   showgrid="false"
   inkscape:zoom="2.0445042"
   inkscape:cx="299.58363"
   inkscape:cy="175.10357"
   inkscape:window-width="1920"
   inkscape:window-height="1009"
   inkscape:window-x="-8"
   inkscape:window-y="-8"
   inkscape:window-maximized="1"
   inkscape:current-layer="Layer_3" />
<path
   fill="#f4f4f4"
   d="m 83.761,195.13 c 13.334,-1.834 35.001,-6.167 46.334,-11.834 -3.5,3.334 -4.5,3.5 -4.5,3.5 17.833,0.167 21.332,0.001 30.666,-1.666 -1.999,5.166 -24.5,7.333 -35.333,7.833 -10.833,0.5 -30.499,5.667 -37.167,2.167 z"
   id="path2" />
<path
   fill="#f4f4f4"
   d="m 70.262,195.63 c -17,-12.666 -17.833,-17.5 -25,-24.667 -7.167,-7.167 -11.667,-10.167 -15.333,-11.5 3.667,2.833 4.167,6.333 4.167,6.333 -6.333,-3.833 -17.833,-5.166 -22.333,-1.833 1.167,2.5 3.333,3.333 9.667,4.333 6.334,1 15.5,5 25,13.5 9.499,8.5 19.499,13.334 23.832,13.834 z"
   id="path4" />
<path
   fill="#f4f4f4"
   d="m 101.134,203.992 c -1.549,-0.718 -2.684,-1.394 -3.525,-2.155 v 0 c -0.829,-0.743 -1.433,-1.717 -1.428,-2.82 v 0 c 0.021,-1.348 0.779,-2.297 1.588,-3.076 v 0 c 0.838,-0.787 1.873,-1.494 3.006,-2.232 v 0 c 2.01,-1.27 5.551,-2.146 9.717,-2.889 v 0 c 4.138,-0.713 8.757,-1.168 12.477,-1.17 v 0 c 2.714,0.031 4.834,0.16 6.416,0.949 v 0 c 1.389,0.545 2.271,1.605 3.366,2.627 v 0 c 1.086,1.079 2.241,2.139 3.146,2.545 v 0 l 4.727,2.203 -5.171,0.645 v 0 c -0.021,0.004 -0.065,0.012 -0.136,0.026 v 0 c -0.139,0.03 -0.379,0.089 -0.73,0.193 v 0 c -0.697,0.206 -1.834,0.596 -3.503,1.31 v 0 c -5.839,3.24 -14.372,5.313 -21.486,5.327 v 0 c -3.213,-0.004 -6.136,-0.417 -8.464,-1.483 z m 28.558,-6.503 0.076,-0.043 0.068,-0.029 c 0.795,-0.341 1.486,-0.616 2.082,-0.84 v 0 c -0.447,-0.405 -0.868,-0.819 -1.271,-1.209 v 0 c -1.063,-1.098 -2.151,-1.986 -2.317,-1.969 v 0 l 0.431,-1.435 0.741,-1.306 -0.741,1.306 -0.431,1.435 -0.165,-0.049 -0.145,-0.082 c -0.411,-0.296 -2.514,-0.653 -5.053,-0.618 v 0 c -3.478,-0.002 -7.992,0.437 -11.967,1.125 v 0 c -3.947,0.659 -7.494,1.689 -8.588,2.444 v 0 c -1.091,0.709 -2.015,1.359 -2.579,1.899 v 0 c -0.593,0.55 -0.665,0.883 -0.655,0.897 v 0 c 0.002,0 -0.028,0.154 0.45,0.604 v 0 c 0.466,0.429 1.373,1.01 2.761,1.648 v 0 c 1.693,0.788 4.268,1.213 7.206,1.207 v 0 c 6.551,0.015 14.894,-2.039 20.097,-4.985 z"
   id="path6" />
<path
   fill="#f4f4f4"
   d="m 39.171,199.733 c -4.792,-1.379 -7.459,-5.002 -8.695,-9.072 v 0 c -1.154,-3.704 -1.347,-7.878 -1.376,-11.813 v 0 c -0.926,-0.087 -1.9,-0.161 -2.924,-0.222 v 0 l 0.17,-2.993 c 11.838,0.659 17.677,3.347 21.673,5.702 v 0 c 7.017,4.104 11.485,9.103 12.068,15.154 v 0 l 0.154,1.641 h -1.647 c -3.485,-0.078 -7.646,2.416 -13.604,2.463 v 0 c -0.007,0 -0.015,0 -0.022,0 v 0 c -1.778,0 -3.707,-0.244 -5.797,-0.86 z m -5.833,-9.968 c 1.139,3.51 2.971,5.973 6.68,7.09 v 0 c 1.824,0.538 3.457,0.739 4.971,0.739 v 0 c 4.406,0.043 7.897,-1.813 11.862,-2.333 v 0 c -0.979,-4.053 -4.427,-7.868 -10.348,-11.337 v 0 c -3.033,-1.763 -6.938,-3.698 -14.402,-4.73 v 0 c 0.039,3.727 0.271,7.504 1.237,10.571 z"
   id="path8" />
<path
   fill="#f4f4f4"
   d="m 30.907,182.255 c 5,0.5 9.625,5.875 4.5,13.313 -2.187,-2.188 -4.687,-5.251 -4.5,-13.313 z"
   id="path10" />
<path
   fill="#f4f4f4"
   d="m 102.157,194.88 c 3.125,2.688 3.125,6.125 1.313,8.063 -2.875,-0.75 -5.75,-2.438 -5.688,-3.875 0.062,-1.437 1.938,-3.251 4.375,-4.188 z"
   id="path12" />
<path
   fill="#f4f4f4"
   d="m 74.595,197.284 c 0.09,-3.197 1.419,-14.382 3.921,-20.655 v 0 0.002 l 2.781,1.124 c -2.248,5.478 -3.669,16.915 -3.702,19.594 v 0 z"
   id="path14" />
<path
   fill="#f4f4f4"
   d="m 90.851,204.655 1.822,-2.383 c 11.012,8.443 29.609,15.287 41.777,18.233 v 0 l -0.71,2.916 c -12.503,-3.055 -31.234,-9.876 -42.889,-18.766 z m 0,-0.001 v 0 0 0.002 z"
   id="path16" />
<path
   fill="#f4f4f4"
   d="m 34.828,210.126 0.199,-2.992 c 0.52,0.033 1.033,0.051 1.542,0.051 v 0 c 6.197,0.013 12.138,-2.646 22.147,-8.041 v 0 l 1.423,2.641 c -10.028,5.391 -16.428,8.389 -23.57,8.401 v 0 c -0.578,0 -1.16,-0.021 -1.741,-0.06 z"
   id="path18" />
<path
   fill="#f4f4f4"
   d="m 45.732,236.23 c -4.889,-3.363 -7.063,-7.574 -8.205,-10.563 v 0 l -0.274,-0.715 0.415,-0.64 c 1.765,-2.746 4.081,-5.2 9.3,-8.452 v 0 c 5.234,-3.276 13.47,-7.495 27.489,-14.09 v 0 0.002 l 1.277,2.714 c -13.981,6.572 -22.159,10.773 -27.174,13.916 v 0 c -4.58,2.883 -6.454,4.768 -7.942,6.903 v 0 c 1.088,2.589 2.928,5.761 6.819,8.455 v 0 c 4.26,2.938 11.085,5.331 22.315,5.333 v 0 c 1.061,0 2.16,-0.021 3.299,-0.065 v 0 c -0.536,-0.44 -1.142,-1.034 -1.184,-2.121 v 0 c 0.006,-1.047 0.732,-1.772 1.388,-2.138 v 0 c 0.689,-0.4 1.514,-0.662 2.611,-0.891 v 0 c 2.182,-0.446 5.456,-0.706 10.341,-0.71 v 0 c 1.477,0.002 3.096,0.027 4.871,0.081 v 0 c 0.029,-0.443 0.043,-0.891 0.043,-1.339 v 0 c 0.01,-5.887 -2.416,-11.954 -3.4,-14.183 v 0 l 2.749,-1.2 c 1.035,2.388 3.64,8.714 3.649,15.383 v 0 c 0,1.025 -0.062,2.058 -0.203,3.091 v 0 l -0.188,1.341 -1.354,-0.05 c -2.306,-0.084 -4.354,-0.123 -6.166,-0.123 v 0 c -3.651,0 -6.347,0.154 -8.233,0.401 v 0 c -1.083,0.132 -1.907,0.317 -2.459,0.486 v 0 c 0.221,0.116 0.481,0.237 0.768,0.352 v 0 c 1.221,0.499 2.93,0.917 4.456,1.06 v 0 l 0.019,2.983 c -4.036,0.441 -7.689,0.642 -11.005,0.644 v 0 c -11.643,0.004 -19.137,-2.493 -24.022,-5.865 z"
   id="path20" />
<path
   fill="#f4f4f4"
   d="m 53.851,275.342 c 10e-4,-10e-4 0,-10e-4 0.002,-10e-4 v 0 10e-4 z m -1.182,-2.758 c 17.102,-7.315 20.932,-8.342 24.188,-8.369 v 0 c 0.71,0 1.323,0.05 1.971,0.083 v 0 c 4.286,0.257 13.13,3.771 19.108,7.756 v 0 l -1.684,2.484 c -5.355,-3.681 -14.514,-7.166 -17.567,-7.244 v 0 c -0.712,-0.035 -1.269,-0.079 -1.828,-0.079 v 0 c -2.292,-0.026 -5.933,0.796 -23.004,8.126 v 0 z"
   id="path22" />
<path
   fill="#f4f4f4"
   d="m 69.566,285.498 c -5.292,-0.002 -10.295,1.084 -13.296,1.454 v 0 c -0.958,0.113 -1.749,0.182 -2.451,0.182 v 0 c -0.861,-0.002 -1.622,-0.095 -2.337,-0.439 v 0 c -0.722,-0.34 -1.257,-0.952 -1.576,-1.541 v 0 c -0.639,-1.188 -0.89,-2.421 -1.69,-4.267 v 0 l 2.758,-1.182 c 0.653,1.528 1.008,2.711 1.298,3.431 v 0 c 0.311,0.759 0.423,0.809 0.522,0.862 v 0 c 0.093,0.05 0.396,0.14 1.025,0.137 v 0 c 0.501,0 1.199,-0.054 2.094,-0.161 v 0 c 2.734,-0.326 7.987,-1.475 13.653,-1.477 v 0 c 5.21,0.002 10.916,0.96 15.472,4.633 v 0 l -1.887,2.333 c -3.75,-3.042 -8.719,-3.969 -13.585,-3.965 z m -21.351,-4.612 v 0 0 0.002 z"
   id="path24" />
<path
   fill="#f4f4f4"
   d="M 106.856,164.462 C 78.438,163.13 47.125,159.088 10.556,139.62 v 0 l -0.885,-0.472 0.096,-0.997 c 1.665,-17.309 3.327,-39.263 3.33,-39.302 v 0 l 0.178,-2.314 2.038,1.111 c 18.355,9.988 30.549,16.807 67.762,20.489 v 0 c 3.793,0.374 7.738,0.547 11.781,0.547 v 0 c 17.576,0.002 36.928,-3.305 53.365,-7.805 v 0 c 16.418,-4.473 30.012,-10.231 35.783,-14.766 v 0 l 0.407,-0.317 h 0.517 c 0.996,0.002 1.718,0.633 2.098,1.185 v 0 c 0.408,0.574 0.658,1.205 0.877,1.905 v 0 c 0.424,1.393 0.676,3.076 0.85,4.757 v 0 c 0.343,3.346 0.341,6.624 0.341,6.653 v 0 h -2.999 c -0.002,-0.004 0,-1.375 -0.094,-3.231 v 0 c -0.092,-1.853 -0.283,-4.183 -0.641,-5.977 v 0 c -0.141,-0.755 -0.341,-1.423 -0.518,-1.865 v 0 c -6.828,4.843 -19.978,10.196 -35.831,14.549 v 0 c -16.653,4.555 -36.209,7.907 -54.155,7.911 v 0 c -4.128,-0.002 -8.17,-0.178 -12.076,-0.562 v 0 C 46.729,117.605 33.206,110.82 15.912,101.389 v 0 c -0.461,5.951 -1.751,22.278 -3.062,36.049 v 0 c 35.714,18.795 66.133,22.7 94.147,24.025 v 0 c 0.897,0.041 1.813,0.062 2.746,0.062 v 0 c 13.853,0.008 31.215,-4.608 46.229,-10.291 v 0 c 14.49,-5.459 26.92,-12.003 31.816,-15.994 v 0 c 0.306,-7.334 0.306,-7.334 0.306,-7.341 v 0 h 0.002 l 2.996,0.125 c 0,0.008 0,0 -0.332,7.999 v 0 l -0.027,0.647 -0.49,0.425 c -5.161,4.443 -17.954,11.161 -33.21,16.945 v 0 c -15.237,5.752 -32.798,10.475 -47.29,10.483 v 0 c -0.978,0.002 -1.939,-0.018 -2.887,-0.061 z"
   id="path26" />
<path
   fill="#f4f4f4"
   d="m 17.629,99.91 v 0 0 h 0.002 z M 14.894,98.682 C 31.081,62.627 64.305,30.109 103.248,10.293 v 0 l 0.707,-0.36 0.695,0.381 c 51.863,28.412 72.954,56.475 81.719,86.563 v 0 l -2.881,0.841 C 174.963,68.601 154.858,41.447 103.903,13.327 v 0 C 65.818,32.877 33.347,64.848 17.63,99.91 v 0 z"
   id="path28" />
<path
   fill="#f4f4f4"
   d="M 70.844,117.852 C 71.599,77.092 82.921,40.059 102.687,10.789 v 0 l 0.883,-1.31 1.264,0.953 c 41.424,31.211 60.146,49.444 72.449,91.272 v 0 0.002 l -2.877,0.847 C 162.336,61.804 144.797,44.473 104.293,13.784 v 0 C 85.43,42.311 74.578,78.277 73.846,117.906 v 0 z"
   id="path30" />
<path
   fill="#f4f4f4"
   d="m 24.843,130.755 c 0.002,-5.454 4.421,-9.875 9.875,-9.875 v 0 c 5.454,0 9.875,4.421 9.875,9.875 v 0 c 0,5.454 -4.421,9.874 -9.875,9.875 v 0 c -5.453,-0.002 -9.873,-4.421 -9.875,-9.875 z m 3.002,0 c 0.006,3.796 3.077,6.868 6.874,6.874 v 0 c 3.798,-0.006 6.869,-3.077 6.875,-6.874 v 0 c -0.006,-3.798 -3.077,-6.869 -6.875,-6.875 v 0 c -3.797,0.006 -6.868,3.077 -6.874,6.875 z"
   id="path32" />
<path
   fill="#f4f4f4"
   d="m 122.345,141.629 c 0.002,-5.661 4.588,-10.248 10.25,-10.25 v 0 c 5.661,0.002 10.248,4.589 10.25,10.25 v 0 c -0.002,5.662 -4.589,10.249 -10.25,10.25 v 0 c -5.662,-0.001 -10.248,-4.588 -10.25,-10.25 z m 3,0 c 0.006,4.003 3.246,7.242 7.25,7.25 v 0 c 4.003,-0.008 7.242,-3.247 7.25,-7.25 v 0 c -0.008,-4.003 -3.247,-7.244 -7.25,-7.25 v 0 c -4.004,0.007 -7.244,3.247 -7.25,7.25 z"
   id="path34" />
<path
   fill="#f4f4f4"
   d="m 186.961,128.442 c -1.983,-0.815 -2.95,-2.652 -3.528,-4.454 v 0 c -0.573,-1.836 -0.761,-3.821 -0.763,-5.452 v 0 c 0,-0.177 0.002,-0.36 0.009,-0.531 v 0 c 0.152,-3.394 1.41,-7.15 4.083,-9.042 v 0 l 0.4,-0.266 0.479,0.016 c 1.535,0.057 3.639,0.478 5.584,1.525 v 0 c 1.914,1.015 3.787,2.875 3.949,5.635 v 0 c 0.045,0.781 0.104,1.688 0.104,2.654 v 0 c -0.007,2.064 -0.246,4.466 -1.704,6.516 v 0 c -1.465,2.066 -4.129,3.417 -8.022,3.502 v 0 l -0.308,0.008 z m -1.285,-10.341 c -0.005,0.128 -0.007,0.275 -0.007,0.436 v 0 c -0.002,1.389 0.18,3.146 0.625,4.553 v 0 c 0.383,1.251 0.962,2.101 1.517,2.441 v 0 c 3.098,-0.17 4.496,-1.109 5.328,-2.238 v 0 c 0.87,-1.188 1.149,-2.942 1.142,-4.765 v 0 c 0,-0.844 -0.053,-1.686 -0.1,-2.475 v 0 c -0.09,-1.41 -0.967,-2.384 -2.386,-3.179 v 0 c -1.185,-0.655 -2.682,-1.021 -3.745,-1.129 v 0 c -1.205,1.1 -2.362,3.985 -2.374,6.356 z"
   id="path36" />
<path
   fill="#f4f4f4"
   d="M 20.667,266.009 C 15.582,250.327 10.155,233.236 7.789,221.254 v 0 C 6.067,212.53 5.338,202.835 5.338,192.706 v 0 c 0,-17.766 2.252,-36.871 5.448,-54.345 v 0 l 2.95,0.538 c -3.172,17.339 -5.398,36.292 -5.398,53.807 v 0 c 0,9.984 0.723,19.499 2.395,27.967 v 0 c 2.301,11.684 7.708,28.757 12.788,44.409 v 0 c 5.085,15.69 9.829,29.856 10.888,36.308 v 0 l -2.962,0.479 c -0.941,-5.884 -5.697,-20.218 -10.78,-35.86 z"
   id="path38" />
<path
   fill="#f4f4f4"
   d="m 89.16,342.309 c -12.254,-0.006 -24.619,-3.197 -33.172,-6.976 v 0 c -8.605,-3.83 -13.958,-5.61 -17.635,-9.323 v 0 c -3.674,-3.793 -4.916,-9.077 -5.588,-18.946 v 0 c -1.298,-19.377 -12.991,-75.202 -19.263,-94.3 v 0 c -2.525,-7.706 -3.515,-12.94 -3.517,-17.235 v 0 c 0.013,-6.645 2.367,-10.67 4.515,-17.359 v 0 c 3.59,-11.044 2.98,-17.339 10.426,-31.889 v 0 l 2.669,1.367 c -7.222,14.118 -6.498,19.82 -10.242,31.444 v 0 c -2.292,7.036 -4.379,10.624 -4.367,16.438 v 0 c -0.002,3.814 0.889,8.751 3.367,16.301 v 0 c 6.393,19.567 18.034,75.076 19.403,95.032 v 0 c 0.662,9.798 1.918,14.179 4.744,17.053 v 0 c 2.824,2.953 7.971,4.84 16.7,8.677 v 0 c 8.151,3.61 20.233,6.723 31.959,6.717 v 0 c 12.648,-0.007 24.69,-3.574 31.532,-13.529 v 0 c 13.721,-19.831 14.777,-44.147 28.544,-73.454 v 0 c 5.292,-11.227 9.747,-18.597 12.812,-24.585 v 0 c 3.07,-6.007 4.726,-10.502 4.732,-16.367 v 0 c 0,-3.514 -0.61,-7.559 -1.969,-12.693 v 0 c -5.97,-22.642 -11.332,-36.127 -11.384,-44.716 v 0 h 3.001 c -0.054,7.412 5.252,21.26 11.281,43.948 v 0 c 1.4,5.293 2.07,9.596 2.07,13.461 v 0 c 0.007,6.48 -1.92,11.614 -5.061,17.734 v 0 c -3.148,6.141 -7.537,13.394 -12.77,24.495 v 0 c -13.564,28.693 -14.506,53.041 -28.787,73.88 v 0 c -7.66,11.099 -20.846,14.827 -33.97,14.827 v 0 c -0.007,-0.002 -0.019,-0.002 -0.03,-0.002 z"
   id="path40" />
<path
   fill="#f4f4f4"
   d="m 188.761,166.962 c 0.004,-6.197 -0.999,-16.934 -0.999,-29.999 v 0 h 2.999 c 0,12.934 0.997,23.53 1.002,29.999 v 0 z"
   id="path42" />
<path
   fill="#f4f4f4"
   d="m 180.063,226.394 c 10.833,-14.387 13.784,-27.566 13.792,-38.039 v 0 c 0,-5.99 -0.975,-11.091 -2.039,-14.996 v 0 c -1.057,-3.882 -2.876,-7.351 -4.77,-9.778 v 0 c -1.854,-2.468 -3.951,-3.703 -4.646,-3.604 v 0 c -0.241,0.012 -0.303,0.039 -0.461,0.177 v 0 c -0.152,0.142 -0.387,0.494 -0.557,1.173 v 0 c -1.479,5.935 -5.584,15.54 -5.607,46.542 v 0 c 0,4.725 0.1,9.938 0.319,15.703 v 0 0.002 l -2.999,0.113 c -0.221,-5.802 -0.319,-11.053 -0.319,-15.818 v 0 c -0.022,-31.146 4.282,-41.639 5.696,-47.269 v 0 c 0.262,-1.042 0.691,-1.933 1.381,-2.604 v 0 c 0.684,-0.675 1.641,-1.031 2.547,-1.019 v 0 c 2.594,0.099 4.814,2.026 7.014,4.762 v 0 c 2.157,2.775 4.125,6.55 5.295,10.83 v 0 c 1.117,4.099 2.148,9.472 2.148,15.787 v 0 c 0.006,11.041 -3.176,24.967 -14.397,39.847 v 0 z"
   id="path44" />
<path
   fill="#f4f4f4"
   d="m 161.637,259.198 c 4.64,-7.743 16.632,-17.718 22.185,-36.657 v 0 h 0.002 l 2.877,0.843 c -5.779,19.728 -18.456,30.419 -22.482,37.342 v 0 z"
   id="path46" />
<path
   fill="#f4f4f4"
   d="m 126.286,317.489 c 13.533,-11.544 32.381,-32.068 42.912,-58.745 v 0 l 0.002,0.002 2.789,1.101 c -10.803,27.325 -29.951,48.137 -43.754,59.926 v 0 z"
   id="path48" />
</svg>
