<?xml version="1.0" encoding="UTF-8" standalone="no"?>
<!-- Generator: Adobe Illustrator 13.0.0, SVG Export Plug-In . SVG Version: 6.00 Build 14948)  -->

<svg
   version="1.2"
   id="Layer_3"
   x="0px"
   y="0px"
   width="470"
   height="310"
   viewBox="0 0 469.99998 309.99999"
   xml:space="preserve"
   sodipodi:docname="doom.svg"
   inkscape:version="1.2.2 (732a01da63, 2022-12-09)"
   xmlns:inkscape="http://www.inkscape.org/namespaces/inkscape"
   xmlns:sodipodi="http://sodipodi.sourceforge.net/DTD/sodipodi-0.dtd"
   xmlns="http://www.w3.org/2000/svg"
   xmlns:svg="http://www.w3.org/2000/svg"
   xmlns:rdf="http://www.w3.org/1999/02/22-rdf-syntax-ns#"
   xmlns:cc="http://creativecommons.org/ns#"
   xmlns:dc="http://purl.org/dc/elements/1.1/"
   xmlns:ns="&amp;ns_sfw;"><defs
   id="defs46" /><sodipodi:namedview
   id="namedview44"
   pagecolor="#000000"
   bordercolor="#111111"
   borderopacity="1"
   inkscape:showpageshadow="0"
   inkscape:pageopacity="0"
   inkscape:pagecheckerboard="1"
   inkscape:deskcolor="#d1d1d1"
   showgrid="false"
   inkscape:zoom="2.0445042"
   inkscape:cx="299.58363"
   inkscape:cy="175.10357"
   inkscape:window-width="1920"
   inkscape:window-height="1009"
   inkscape:window-x="-8"
   inkscape:window-y="-8"
   inkscape:window-maximized="1"
   inkscape:current-layer="Layer_3" />
<metadata
   id="metadata55">
	<rdf:RDF>
		<cc:Work
   rdf:about="">
			<dc:format>image/svg+xml</dc:format>
			<dc:type
   rdf:resource="http://purl.org/dc/dcmitype/StillImage" />
			
		</cc:Work>
	</rdf:RDF>
	<ns:sfw>
		<ns:slices />
		<ns:sliceSourceBounds
   height="299.999"
   width="456"
   y="394.54"
   x="736.998"
   bottomLeftOrigin="true" />
	</ns:sfw>
</metadata>
<g
   id="g7"
   transform="translate(-70,-16)">
	<path
   fill="#f4f4f4"
   d="m 98.749,320.09 c -12.79,0 -23.154,-10.365 -23.156,-23.154 v 0 l 0.002,-99.69 c 0,-12.787 10.364,-23.154 23.154,-23.154 v 0 h 99.692 c 12.788,0 23.152,10.367 23.154,23.154 v 0 99.69 c -0.002,12.789 -10.367,23.154 -23.154,23.154 v 0 z M 77.595,197.245 v 99.69 c 0.021,11.685 9.471,21.133 21.154,21.154 v 0 h 99.692 c 11.681,-0.021 21.131,-9.47 21.152,-21.154 v 0 l 0.002,-99.69 c -0.023,-11.683 -9.473,-21.133 -21.154,-21.154 v 0 H 98.749 c -11.683,0.021 -21.133,9.472 -21.154,21.154 z"
   id="path3" />
	<path
   fill="#f4f4f4"
   d="M 112.703,291.706 C 104.019,291.704 96.98,284.665 96.98,275.98 v 0 -71.781 c 0,-8.685 7.039,-15.724 15.723,-15.726 v 0 h 71.782 c 8.685,0.002 15.724,7.041 15.724,15.726 v 0 71.781 c 0,8.685 -7.039,15.724 -15.724,15.726 v 0 z M 98.979,204.199 v 71.781 c 0.015,7.58 6.145,13.71 13.724,13.725 v 0 h 71.782 c 7.579,-0.015 13.711,-6.145 13.724,-13.725 v 0 -71.781 c -0.013,-7.58 -6.145,-13.71 -13.724,-13.725 v 0 h -71.782 c -7.577,0.015 -13.709,6.148 -13.724,13.725 z"
   id="path5" />
</g>
<g
   id="g13"
   transform="translate(-70,-16)">
	<path
   fill="#f4f4f4"
   d="m 253.748,320.09 c -12.787,0 -23.154,-10.365 -23.154,-23.154 v 0 -99.69 c 0,-12.787 10.367,-23.154 23.154,-23.154 v 0 h 99.692 c 12.787,0 23.153,10.367 23.153,23.154 v 0 99.69 c 0,12.789 -10.366,23.154 -23.153,23.154 v 0 z M 232.594,197.245 v 99.69 c 0.021,11.685 9.471,21.133 21.154,21.154 v 0 h 99.692 c 11.683,-0.021 21.133,-9.47 21.153,-21.154 v 0 -99.69 c -0.021,-11.683 -9.471,-21.133 -21.153,-21.154 v 0 h -99.692 c -11.683,0.021 -21.133,9.472 -21.154,21.154 z"
   id="path9" />
	<path
   fill="#f4f4f4"
   d="M 267.704,291.706 C 259.02,291.704 251.98,284.665 251.98,275.98 v 0 l -0.002,-71.781 c 0.002,-8.685 7.042,-15.724 15.726,-15.726 v 0 h 71.782 c 8.685,0.002 15.724,7.041 15.724,15.726 v 0 71.781 c 0,8.685 -7.041,15.724 -15.724,15.726 v 0 z M 253.98,204.199 v 71.781 c 0.012,7.58 6.145,13.71 13.724,13.725 v 0 h 71.782 c 7.579,-0.015 13.709,-6.145 13.724,-13.725 v 0 -71.781 c -0.015,-7.58 -6.146,-13.71 -13.724,-13.725 v 0 h -71.782 c -7.579,0.015 -13.712,6.148 -13.724,13.725 z"
   id="path11" />
</g>
<g
   id="g19"
   transform="translate(-70,-16)">
	<path
   fill="#f4f4f4"
   d="m 253.749,166.091 c -12.788,-0.002 -23.153,-10.366 -23.155,-23.154 v 0 -99.692 c 0.002,-12.788 10.368,-23.154 23.155,-23.154 v 0 h 99.69 c 12.788,0 23.153,10.366 23.155,23.154 v 0 99.692 c -0.002,12.788 -10.367,23.152 -23.155,23.154 v 0 z M 232.594,43.245 v 99.692 c 0.021,11.684 9.471,21.132 21.155,21.153 v 0 h 99.69 c 11.684,-0.021 21.133,-9.469 21.153,-21.153 v 0 -99.692 c -0.021,-11.682 -9.47,-21.132 -21.153,-21.153 v 0 h -99.69 c -11.684,0.02 -21.134,9.471 -21.155,21.153 z"
   id="path15" />
	<path
   fill="#f4f4f4"
   d="m 267.703,137.705 c -8.683,0 -15.723,-7.038 -15.725,-15.723 v 0 -71.781 c 0.002,-8.685 7.04,-15.725 15.725,-15.725 v 0 h 71.781 c 8.686,0 15.725,7.04 15.725,15.725 v 0 71.781 c 0,8.685 -7.041,15.723 -15.725,15.723 v 0 z M 253.978,50.201 v 71.781 c 0.015,7.58 6.146,13.709 13.725,13.723 v 0 h 71.781 c 7.58,-0.014 13.711,-6.143 13.726,-13.723 v 0 l -0.002,-71.781 c -0.013,-7.58 -6.146,-13.711 -13.724,-13.726 v 0 h -71.781 c -7.578,0.015 -13.71,6.148 -13.725,13.726 z"
   id="path17" />
</g>
<g
   id="g25"
   transform="translate(-70,-16)">
	<path
   fill="#f4f4f4"
   d="m 408.749,320.09 c -12.789,0 -23.154,-10.365 -23.156,-23.154 v 0 l 0.002,-99.69 c 0,-12.788 10.365,-23.153 23.154,-23.153 v 0 h 99.69 c 12.788,0 23.153,10.365 23.153,23.153 v 0 99.69 c 0,12.789 -10.365,23.154 -23.153,23.154 v 0 z M 387.595,197.245 v 99.69 c 0.021,11.684 9.471,21.134 21.154,21.154 v 0 h 99.69 c 11.683,-0.021 21.133,-9.471 21.153,-21.154 v 0 -99.69 c -0.021,-11.683 -9.471,-21.133 -21.153,-21.153 v 0 h -99.69 c -11.684,0.02 -21.134,9.471 -21.154,21.153 z"
   id="path21" />
	<path
   fill="#f4f4f4"
   d="M 406.979,275.98 V 204.2 c 0,-8.687 7.039,-15.726 15.726,-15.726 v 0 h 71.78 c 8.687,0 15.723,7.039 15.723,15.726 v 0 71.78 c 0,8.685 -7.039,15.724 -15.723,15.724 v 0 l -71.78,0.002 c -8.685,-0.002 -15.726,-7.041 -15.726,-15.726 z m 1.999,-71.78 v 71.78 c 0.015,7.581 6.146,13.71 13.727,13.725 v 0 h 71.78 c 7.579,-0.015 13.711,-6.144 13.727,-13.725 v 0 l -0.003,-71.78 c -0.013,-7.579 -6.145,-13.711 -13.724,-13.726 v 0 h -71.78 c -7.58,0.015 -13.713,6.147 -13.727,13.726 z"
   id="path23" />
</g>
<g
   id="g29"
   transform="translate(-70,-16)">
	<path
   fill="#f4f4f4"
   d="m 295.038,90.629 -7.701,-23.053 -7.651,23.053 h -8.014 l -11.198,-39.8 h 9.258 l 6.854,24.332 7.637,-24.332 h 6.261 l 7.938,23.714 6.566,-23.714 h 7.941 v 1.001 -1 h 1.333 l -11.653,39.8 h -7.571 z m 1.44,-2 h 4.633 l 10.483,-35.8 h -5.087 l -7.904,28.558 -9.559,-28.558 h -3.351 l -9.21,29.349 -8.266,-29.349 h -5.105 l 10.076,35.8 h 5.054 l 9.089,-27.382 z"
   id="path27" />
</g>
<g
   id="g33"
   transform="translate(-70,-16)">
	<path
   fill="#f4f4f4"
   d="m 134.293,244.629 -3.238,-9.128 h -11.17 l -3.241,9.128 h -9.307 l 14.16,-39.8 h 7.943 l 13.683,38.465 -0.941,0.336 v -1.001 1.001 l 0.941,-0.336 0.477,1.335 z m -1.828,-11.125 3.243,9.125 h 5.057 l -12.734,-35.801 h -5.123 l -12.733,35.801 h 5.059 l 3.238,-9.125 z m -12.323,-4.697 5.293,-15.068 4.891,13.733 -0.941,0.335 v -0.999 0.999 l 0.941,-0.335 0.477,1.335 z m 2.823,-1.999 h 5.002 l -2.52,-7.071 z"
   id="path31" />
</g>
<g
   id="g37"
   transform="translate(-70,-16)">
	<path
   fill="#f4f4f4"
   d="m 269.082,244.546 c -2.297,-0.556 -4.097,-1.224 -5.433,-2.071 v 0 l -0.522,-0.334 1.086,-10.563 1.482,1.457 c 1.021,1.002 2.507,1.901 4.487,2.652 v 0 c 1.938,0.733 4.163,1.109 6.693,1.109 v 0 c 2.15,0.006 3.676,-0.345 4.541,-0.884 v 0 c 0.853,-0.552 1.182,-1.136 1.211,-2.237 v 0 c -0.004,-0.639 -0.145,-1.157 -0.427,-1.63 v 0 c -0.315,-0.528 -0.715,-0.984 -1.222,-1.385 v 0 c -0.531,-0.419 -1.109,-0.775 -1.741,-1.069 v 0 c -0.666,-0.31 -1.321,-0.564 -1.993,-0.778 v 0 L 272.11,227 l -2.15,-0.913 c -2.366,-0.979 -4.169,-2.164 -5.366,-3.646 v 0 c -1.219,-1.514 -1.833,-3.54 -1.949,-6.025 v 0 c 0,-1.565 0.296,-3.094 0.881,-4.558 v 0 c 0.595,-1.486 1.511,-2.82 2.724,-3.973 v 0 c 1.23,-1.168 2.774,-2.09 4.603,-2.774 v 0 c 1.868,-0.701 4.021,-1.037 6.455,-1.037 v 0 c 1.238,0 2.484,0.096 3.739,0.282 v 0 c 1.233,0.185 2.409,0.415 3.524,0.692 v 0 c 1.12,0.282 2.138,0.61 3.057,0.993 v 0 c 0.894,0.374 1.634,0.73 2.235,1.091 v 0 l 0.543,0.323 -0.913,9.206 -1.325,-0.719 c -4.083,-2.219 -7.628,-3.282 -10.591,-3.28 v 0 c -0.885,0 -1.71,0.068 -2.474,0.201 v 0 c -0.748,0.13 -1.378,0.336 -1.903,0.607 v 0 c -0.514,0.265 -0.889,0.58 -1.167,0.949 v 0 c -0.236,0.323 -0.363,0.69 -0.369,1.238 v 0 c 0.004,0.785 0.185,1.244 0.433,1.534 v 0 c 0.317,0.371 0.856,0.763 1.65,1.117 v 0 c 0.83,0.373 1.901,0.768 3.208,1.172 v 0 c 1.362,0.423 2.927,0.98 4.71,1.671 v 0 l 2.909,1.132 c 0.835,0.319 1.688,0.766 2.565,1.338 v 0 c 0.908,0.593 1.742,1.32 2.499,2.173 v 0 c 0.775,0.875 1.416,1.896 1.922,3.042 v 0 c 0.529,1.204 0.786,2.546 0.786,3.993 v 0 c 0,1.235 -0.153,2.548 -0.454,3.938 v 0 c -0.327,1.51 -1.063,2.919 -2.165,4.194 v 0 c -1.146,1.331 -2.768,2.376 -4.814,3.193 v 0 c -2.125,0.842 -4.846,1.228 -8.2,1.231 v 0 -1.002 -0.999 c 3.197,0.002 5.695,-0.384 7.46,-1.089 v 0 c 1.839,-0.733 3.172,-1.632 4.041,-2.642 v 0 c 0.915,-1.063 1.472,-2.156 1.723,-3.311 v 0 c 0.276,-1.273 0.411,-2.444 0.411,-3.515 v 0 c -0.002,-1.215 -0.213,-2.267 -0.618,-3.189 v 0 c -0.431,-0.977 -0.96,-1.812 -1.588,-2.519 v 0 c -0.649,-0.73 -1.346,-1.336 -2.092,-1.825 v 0 c -0.779,-0.508 -1.511,-0.887 -2.194,-1.146 v 0 l -2.913,-1.134 c -1.75,-0.678 -3.278,-1.22 -4.58,-1.624 v 0 c -1.36,-0.423 -2.5,-0.839 -3.434,-1.258 v 0 c -0.973,-0.438 -1.765,-0.965 -2.345,-1.637 v 0 c -0.653,-0.754 -0.92,-1.752 -0.918,-2.84 v 0 c -0.004,-0.892 0.247,-1.746 0.767,-2.438 v 0 c 0.475,-0.633 1.109,-1.148 1.854,-1.528 v 0 c 0.736,-0.38 1.563,-0.641 2.474,-0.798 v 0 c 0.892,-0.154 1.829,-0.23 2.817,-0.23 v 0 c 3.082,0.002 6.479,0.966 10.221,2.832 v 0 l 0.49,-4.951 c -0.399,-0.206 -0.876,-0.428 -1.428,-0.657 v 0 c -0.811,-0.336 -1.735,-0.639 -2.774,-0.897 v 0 c -1.047,-0.262 -2.159,-0.479 -3.336,-0.657 v 0 c -1.159,-0.173 -2.306,-0.258 -3.442,-0.26 v 0 c -2.25,0 -4.163,0.313 -5.751,0.91 v 0 c -1.627,0.609 -2.926,1.399 -3.927,2.352 v 0 c -1.022,0.975 -1.76,2.053 -2.246,3.268 v 0 c -0.495,1.236 -0.738,2.499 -0.74,3.766 v 0 c 0.102,2.169 0.638,3.744 1.507,4.818 v 0 c 0.892,1.113 2.401,2.158 4.58,3.057 v 0 l 2.103,0.896 5.046,1.779 c 0.726,0.231 1.458,0.518 2.198,0.86 v 0 c 0.769,0.358 1.486,0.796 2.144,1.316 v 0 c 0.682,0.541 1.254,1.188 1.694,1.926 v 0 c 0.475,0.792 0.711,1.703 0.709,2.656 v 0 c 0.029,1.645 -0.767,3.123 -2.167,3.944 v 0 c -1.385,0.837 -3.234,1.173 -5.583,1.177 v 0 c -2.727,0 -5.2,-0.406 -7.4,-1.239 v 0 c -1.409,-0.535 -2.635,-1.151 -3.675,-1.865 v 0 l -0.554,5.401 c 1.03,0.552 2.472,1.068 4.303,1.509 v 0 c 2.144,0.52 4.531,0.783 7.164,0.783 v 0 0.999 1.002 c -2.766,-0.002 -5.312,-0.279 -7.632,-0.84 z"
   id="path35" />
</g>
<g
   id="g41"
   transform="translate(-70,-16)">
	<path
   fill="#f4f4f4"
   d="M 436.899,244.628 H 421.751 V 204.83 h 15.148 c 2.842,0 5.481,0.458 7.894,1.389 v 0 c 2.405,0.929 4.494,2.268 6.233,4.006 v 0 c 1.739,1.739 3.093,3.843 4.057,6.28 v 0 c 0.97,2.455 1.447,5.204 1.447,8.224 v 0 c 0,3.02 -0.478,5.777 -1.447,8.249 v 0 c -0.962,2.456 -2.317,4.564 -4.061,6.286 v 0 c -1.739,1.721 -3.826,3.049 -6.229,3.975 v 0 c -2.412,0.933 -5.052,1.392 -7.894,1.392 v 0 z m -13.147,-1.999 h 13.147 v 0.999 1 -1 -0.999 c 2.628,0 5.013,-0.423 7.173,-1.257 v 0 c 2.171,-0.836 4.006,-2.012 5.544,-3.531 v 0 c 1.531,-1.515 2.732,-3.367 3.606,-5.592 v 0 c 0.865,-2.209 1.307,-4.708 1.307,-7.521 v 0 c 0,-2.812 -0.441,-5.301 -1.307,-7.488 v 0 c -0.874,-2.209 -2.075,-4.063 -3.613,-5.601 v 0 c -1.535,-1.536 -3.369,-2.716 -5.537,-3.554 v 0 c -2.16,-0.834 -4.545,-1.255 -7.173,-1.258 v 0 h -13.147 z m 13.147,-4.589 h -8.236 v -26.623 h 8.236 v 1 0.999 -0.999 -1 c 3.786,-0.01 6.884,1.161 8.987,3.568 v 0 c 2.095,2.385 3.086,5.687 3.084,9.743 v 0 c 0.002,4.057 -0.989,7.359 -3.084,9.745 v 0 c -2.093,2.394 -5.168,3.566 -8.927,3.566 v 0 c -0.019,0.001 -0.039,0.001 -0.06,0.001 z m -6.235,-1.999 h 6.235 c 3.413,-0.01 5.807,-0.988 7.484,-2.887 v 0 c 1.683,-1.918 2.584,-4.673 2.586,-8.426 v 0 c -0.002,-3.753 -0.903,-6.508 -2.586,-8.425 v 0 c -1.678,-1.898 -4.071,-2.875 -7.484,-2.886 v 0 -0.002 h -6.235 z"
   id="path39" />
</g>
</svg>
