<?xml version="1.0" encoding="UTF-8" standalone="no"?>
<!-- Generator: Adobe Illustrator 13.0.0, SVG Export Plug-In . SVG Version: 6.00 Build 14948)  -->

<svg
   version="1.2"
   id="Layer_3"
   x="0px"
   y="0px"
   width="160"
   height="350.26001"
   viewBox="0 0 159.99999 350.26"
   xml:space="preserve"
   sodipodi:docname="dragon32.svg"
   inkscape:version="1.2.2 (732a01da63, 2022-12-09)"
   xmlns:inkscape="http://www.inkscape.org/namespaces/inkscape"
   xmlns:sodipodi="http://sodipodi.sourceforge.net/DTD/sodipodi-0.dtd"
   xmlns="http://www.w3.org/2000/svg"
   xmlns:svg="http://www.w3.org/2000/svg"
   xmlns:rdf="http://www.w3.org/1999/02/22-rdf-syntax-ns#"
   xmlns:cc="http://creativecommons.org/ns#"
   xmlns:dc="http://purl.org/dc/elements/1.1/"
   xmlns:ns="&amp;ns_sfw;"><defs
   id="defs42" /><sodipodi:namedview
   id="namedview40"
   pagecolor="#000000"
   bordercolor="#111111"
   borderopacity="1"
   inkscape:showpageshadow="0"
   inkscape:pageopacity="0"
   inkscape:pagecheckerboard="1"
   inkscape:deskcolor="#d1d1d1"
   showgrid="false"
   inkscape:zoom="2.0445042"
   inkscape:cx="299.58363"
   inkscape:cy="175.10357"
   inkscape:window-width="1920"
   inkscape:window-height="1009"
   inkscape:window-x="-8"
   inkscape:window-y="-8"
   inkscape:window-maximized="1"
   inkscape:current-layer="Layer_3" />
<metadata
   id="metadata55">
	<rdf:RDF>
		<cc:Work
   rdf:about="">
			<dc:format>image/svg+xml</dc:format>
			<dc:type
   rdf:resource="http://purl.org/dc/dcmitype/StillImage" />
			
		</cc:Work>
	</rdf:RDF>
	<ns:sfw>
		<ns:slices />
		<ns:sliceSourceBounds
   x="893.896"
   y="371.662"
   width="140.85"
   height="336.339"
   bottomLeftOrigin="true" />
	</ns:sfw>
</metadata>
<path
   fill="#f4f4f4"
   d="m 59.098,196.692 v -39.636 l 39.637,-0.002 v 38.638 1 z m 38.636,-1 V 194.69 Z M 61.098,159.059 v 35.632 h 35.637 v -35.634 z"
   id="path3" />
<path
   fill="#f4f4f4"
   d="m 65.577,190.216 v -26.682 h 26.678 v 25.68 1.002 z m 25.679,-1.002 v -1 z m -23.679,-1 h 22.678 v -22.68 H 67.577 Z"
   id="path5" />
<path
   fill="#f4f4f4"
   d="m 116.903,342.966 c -0.051,0 -0.107,0 -0.17,-0.004 v 0 0 L 41.02,342.96 c 0,0 -0.004,0 -0.057,0.002 v 0 c -1.528,0.025 -2.554,-1.356 -2.589,-2.783 v 0 L 29.808,149.646 c -0.153,-1.471 -0.894,-2.08 -2.778,-2.167 v 0 -0.997 l 0.707,0.705 -1.414,-1.415 c 0.031,0.031 0.017,-0.208 0.707,-0.294 v 0 c 2.499,-0.088 4.677,1.494 4.776,4.061 v 0 l 8.564,190.524 c 0.12,0.813 0.302,0.873 0.594,0.899 v 0 c 0.004,0 0.048,-0.002 0.088,-0.002 v 0 h 75.703 l 0.046,0.004 c 0.025,0 0.061,0.004 0.104,0.004 v 0 c 0.335,-0.027 0.271,-0.047 0.359,-0.133 v 0 c 0.076,-0.1 0.172,-0.41 0.197,-0.754 v 0 l 8.563,-190.56 c 0.095,-2.55 2.278,-4.13 4.775,-4.042 v 0 1.998 c -1.884,0.088 -2.627,0.699 -2.778,2.151 v 0 l -8.566,190.585 c -0.053,0.533 -0.145,1.144 -0.529,1.734 v 0 c -0.363,0.586 -1.129,1.02 -1.947,1.02 v 0 c -0.026,0.001 -0.051,0.001 -0.076,-10e-4 z"
   id="path7" />
<path
   fill="#f4f4f4"
   d="M 8.491,147.479 V 6.628 h 140.848 l 0.002,139.849 v 1.002 z m 139.849,-1.001 v -1 z m -137.85,-1 H 147.34 L 147.338,8.629 H 10.492 Z"
   id="path9" />
<path
   fill="#f4f4f4"
   d="m 32.879,127.381 c -2.371,-0.002 -4.289,-1.922 -4.291,-4.289 v 0 -92.077 c 0.002,-2.369 1.92,-4.289 4.291,-4.289 v 0 h 92.076 c 2.368,0.002 4.288,1.92 4.29,4.289 v 0 92.078 c -0.002,2.369 -1.922,4.287 -4.29,4.289 v 0 H 32.879 Z m -2.29,-96.366 v 92.078 c 0.002,1.262 1.024,2.286 2.291,2.289 v 0 h 92.076 c 1.262,-0.002 2.286,-1.026 2.288,-2.289 v 0 -92.078 c 0,-1.262 -1.026,-2.286 -2.288,-2.288 v 0 H 32.879 c -1.266,0.002 -2.288,1.025 -2.29,2.288 z"
   id="path11" />
<path
   fill="#f4f4f4"
   d="m 100.608,103.537 c 0.012,0 0.021,0 0.033,0 v 0 c -0.008,0 -0.014,0 -0.021,0 v 0 c -0.003,0 -0.008,0 -0.012,0 z m -0.004,0 H 57.073 c -2.54,-0.002 -4.596,-2.057 -4.596,-4.594 v 0 -43.538 0 c 0,-10e-4 0,-10e-4 0,-0.002 v 0 c 0,-2.539 2.059,-4.592 4.596,-4.594 v 0 l 43.534,0.002 c 2.536,0 4.594,2.057 4.594,4.592 v 0 l 0.002,43.539 h -0.002 c 0,2.525 -2.036,4.574 -4.56,4.594 v 0 c 0.056,-0.002 0.144,-0.015 0.3,-0.06 v 0 c 0.149,-0.016 0.659,-0.361 0.661,-0.918 v 0 c -0.025,-0.522 -0.225,-0.629 -0.275,-0.713 v 0 c -0.078,-0.081 -0.117,-0.104 -0.148,-0.128 v 0 l -0.216,0.308 -0.359,1.512 c 0.002,0 0.003,0 0.004,0 v 0 c -0.001,0 -0.002,0 -0.004,0 z m 0,-2.001 c 1.437,-0.002 2.596,-1.162 2.598,-2.593 v 0 -43.538 c -0.004,-1.434 -1.161,-2.593 -2.595,-2.595 v 0 H 57.073 c -1.402,0.002 -2.543,1.11 -2.595,2.498 v 0 l -0.002,43.634 c 0.004,1.432 1.164,2.591 2.597,2.593 v 0 h 43.529 0.002 z"
   id="path13" />
<polygon
   fill="#f4f4f4"
   points="278.039,60.227 276.623,61.641 268.867,53.882 261.175,62.085 261.175,35.904 287.357,35.904 279.065,43.685 286.45,51.068 285.036,52.482 276.192,43.637 282.302,37.905 263.176,37.903 263.176,57.028 268.82,51.009 278.037,60.227 "
   id="polygon15"
   transform="translate(-224)" />
<polygon
   fill="#f4f4f4"
   points="342.653,37.904 323.527,37.904 329.641,43.64 320.795,52.483 319.382,51.067 326.766,43.686 318.478,35.905 344.655,35.901 344.655,62.089 336.965,53.884 329.209,61.641 327.793,60.228 337.011,51.007 342.653,57.027 "
   id="polygon17"
   transform="translate(-224)" />
<polygon
   fill="#f4f4f4"
   points="323.528,116.204 342.654,116.204 342.652,97.079 337.012,103.099 327.794,93.88 329.208,92.464 336.966,100.219 344.652,92.017 344.656,118.205 318.474,118.205 326.767,110.42 319.383,103.041 320.794,101.625 329.64,110.466 "
   id="polygon19"
   transform="translate(-224)" />
<polygon
   fill="#f4f4f4"
   points="285.037,101.625 286.449,103.04 279.064,110.419 287.358,118.203 261.178,118.203 261.178,92.022 268.866,100.221 276.624,92.465 276.626,92.465 278.038,93.879 268.821,103.095 263.179,97.078 263.179,116.204 282.303,116.204 276.191,110.467 "
   id="polygon21"
   transform="translate(-224)" />
<path
   fill="#f4f4f4"
   d="m 64.118,96.142 c -2.37,-0.002 -4.289,-1.921 -4.289,-4.287 v 0 -29.6 c 0,-2.368 1.919,-4.287 4.289,-4.287 v 0 l 29.596,-0.002 c 2.368,0.002 4.289,1.919 4.291,4.289 v 0 l -0.002,29.597 c 0,2.368 -1.921,4.287 -4.291,4.289 v 0 H 64.118 Z m -2.29,-33.887 v 29.599 c 0.002,1.261 1.026,2.284 2.29,2.286 v 0 H 93.714 C 94.978,94.138 96,93.116 96.002,91.852 v 0 l 0.002,-29.597 c -0.002,-1.263 -1.026,-2.286 -2.29,-2.288 v 0 H 64.118 c -1.265,0.002 -2.288,1.026 -2.29,2.288 z"
   id="path23" />
<path
   fill="#f4f4f4"
   d="m 67.092,77.125 c -0.003,-0.033 -0.004,-0.076 0,-0.13 v 0 c 0.034,-6.503 5.313,-11.763 11.823,-11.766 v 0 c 6.532,0.002 11.824,5.294 11.824,11.824 v 0 h 0.002 c -0.002,6.532 -5.294,11.824 -11.826,11.826 v 0 C 72.408,88.877 67.13,83.624 67.092,77.125 Z m 11.823,9.752 c 5.426,-0.008 9.816,-4.398 9.825,-9.825 v 0 C 88.729,71.628 84.341,67.238 78.915,67.23 v 0 c -5.426,0.008 -9.814,4.398 -9.824,9.822 v 0 c 0.01,5.429 4.398,9.818 9.824,9.825 z M 69.09,77.003 c -0.003,-0.078 -0.01,-0.1 -0.013,-0.106 v 0 c 0.003,0.02 0.01,0.055 0.013,0.106 z"
   id="path25" />
<polygon
   fill="#f4f4f4"
   points="344.234,291.442 261.107,291.442 261.107,289.442 344.234,289.442 "
   id="polygon27"
   transform="translate(-224)" />
<path
   fill="#f4f4f4"
   d="m 45.195,339.724 c -1.175,-0.049 -1.921,-0.068 -2.651,-0.633 v 0 c -0.726,-0.664 -0.68,-1.441 -0.715,-2.022 v 0 l -2.175,-44.071 h 78.523 l -2.173,44.055 c -0.036,0.599 0.01,1.379 -0.718,2.041 v 0 c -0.73,0.563 -1.478,0.584 -2.649,0.629 v 0 l -0.021,-0.997 v 1 z m -1.11,-2.09 c 0.23,0.045 0.614,0.078 1.128,0.089 v 0 h 67.383 c 0.771,-0.005 1.227,-0.095 1.361,-0.144 v 0 c 0.021,-0.088 0.038,-0.3 0.047,-0.609 v 0 l 2.072,-41.973 H 41.752 l 2.072,41.984 c 0.006,0.296 0.03,0.505 0.047,0.596 v 0 c 0.042,0.016 0.112,0.039 0.214,0.057 z"
   id="path29" />
<path
   fill="#f4f4f4"
   d="m 48.666,77.053 c 0,-5.197 1.314,-10.095 3.625,-14.367 v 0 l 1.759,0.951 c -2.159,3.992 -3.383,8.557 -3.383,13.416 v 0 c 0,5.306 1.46,10.265 4.002,14.505 v 0 l -1.716,1.029 C 50.232,88.046 48.666,82.729 48.666,77.053 Z"
   id="path31" />
<path
   fill="#f4f4f4"
   d="m 64.008,103.38 0.987,-1.739 c 4.11,2.333 8.855,3.663 13.922,3.663 v 0 c 5.303,0 10.258,-1.46 14.495,-3.999 v 0 h 0.002 l 1.026,1.714 c -4.537,2.719 -9.853,4.285 -15.523,4.285 v 0 c -5.418,0.002 -10.511,-1.427 -14.909,-3.924 z"
   id="path33" />
<path
   fill="#f4f4f4"
   d="m 103.016,91.802 c 2.634,-4.295 4.15,-9.341 4.15,-14.748 v 0 c 0,-5.238 -1.423,-10.136 -3.905,-14.34 v 0 h 0.002 l 1.721,-1.018 c 2.657,4.501 4.185,9.754 4.185,15.357 v 0 c 0,5.785 -1.628,11.196 -4.447,15.792 v 0 z"
   id="path35" />
<path
   fill="#f4f4f4"
   d="m 64.457,52.779 c 0,0 0.001,0 0,0 z m -1.024,-1.717 c 4.528,-2.703 9.83,-4.258 15.483,-4.258 v 0 c 5.536,0 10.731,1.489 15.197,4.089 v 0 l -1.011,1.728 C 88.933,50.194 84.089,48.804 78.914,48.804 v 0 c -5.287,0 -10.227,1.45 -14.458,3.975 v 0 z"
   id="path37" />
</svg>
