<?xml version="1.0" encoding="UTF-8" standalone="no"?>
<!-- Generator: Adobe Illustrator 13.0.0, SVG Export Plug-In . SVG Version: 6.00 Build 14948)  -->

<svg
   version="1.2"
   id="Layer_3"
   x="0px"
   y="0px"
   width="330"
   height="340"
   viewBox="0 0 329.99998 339.99999"
   xml:space="preserve"
   sodipodi:docname="dreamcast.svg"
   inkscape:version="1.2.2 (732a01da63, 2022-12-09)"
   xmlns:inkscape="http://www.inkscape.org/namespaces/inkscape"
   xmlns:sodipodi="http://sodipodi.sourceforge.net/DTD/sodipodi-0.dtd"
   xmlns="http://www.w3.org/2000/svg"
   xmlns:svg="http://www.w3.org/2000/svg"
   xmlns:rdf="http://www.w3.org/1999/02/22-rdf-syntax-ns#"
   xmlns:cc="http://creativecommons.org/ns#"
   xmlns:dc="http://purl.org/dc/elements/1.1/"
   xmlns:ns="&amp;ns_sfw;"><defs
   id="defs52" /><sodipodi:namedview
   id="namedview50"
   pagecolor="#000000"
   bordercolor="#111111"
   borderopacity="1"
   inkscape:showpageshadow="0"
   inkscape:pageopacity="0"
   inkscape:pagecheckerboard="1"
   inkscape:deskcolor="#d1d1d1"
   showgrid="false"
   inkscape:zoom="2.0445042"
   inkscape:cx="299.58363"
   inkscape:cy="175.10357"
   inkscape:window-width="1920"
   inkscape:window-height="1009"
   inkscape:window-x="-8"
   inkscape:window-y="-8"
   inkscape:window-maximized="1"
   inkscape:current-layer="Layer_3" />
<metadata
   id="metadata55">
	<rdf:RDF>
		<cc:Work
   rdf:about="">
			<dc:format>image/svg+xml</dc:format>
			<dc:type
   rdf:resource="http://purl.org/dc/dcmitype/StillImage" />
			
		</cc:Work>
	</rdf:RDF>
	<ns:sfw>
		<ns:slices />
		<ns:sliceSourceBounds
   x="800.52"
   y="375.861"
   width="320.335"
   height="327.472"
   bottomLeftOrigin="true" />
	</ns:sfw>
</metadata>
<path
   fill="#f4f4f4"
   d="m 80.511,217.38 0.833,-1.75 c 19.309,19.472 44.469,31.342 73.396,33.873 v 0 l -0.174,1.992 C 125.153,248.921 98.744,235.849 79.12,216.056 Z"
   id="path3" />
<path
   fill="#f4f4f4"
   d="m 176.822,249.413 c 40.524,-3.889 74.924,-27.606 93.354,-61.783 v 0 h 0.002 l 1.972,0.506 c -18.737,34.746 -53.925,59.312 -95.136,63.27 v 0 z"
   id="path5" />
<path
   fill="#f4f4f4"
   d="m 281.845,156.213 c 1.931,-8.52 2.771,-16.479 2.771,-25.584 v 0 c 0,-0.912 0.085,-0.842 0.063,-1.75 v 0 h 0.003 l 1.901,-1.023 c 0.021,0.92 0.031,1.846 0.031,2.772 v 0 c 0.002,9.254 -1.035,18.268 -2.998,26.931 v 0 z"
   id="path7" />
<path
   fill="#f4f4f4"
   d="m 165.283,11.296 c -47.264,0 -88.025,27.066 -107.355,66.915 v 0 0.002 L 56.049,77.746 C 75.7,37.23 117.23,9.296 165.283,9.296 v 0 c 57.373,0.002 105.446,39.819 118.086,93.337 v 0 l -2.358,-0.837 C 268.58,49.169 221.709,11.293 165.283,11.296 Z"
   id="path9" />
<path
   fill="#f4f4f4"
   d="m 46.491,155.456 1.937,0.09 c 1.335,6.422 2.511,10.918 4.833,16.917 v 0 l -1.168,1.961 c -2.362,-6.099 -4.244,-12.438 -5.602,-18.968 z"
   id="path11" />
<path
   fill="#f4f4f4"
   d="m 107.282,124.963 c 0,-21.668 0,-99.667 0,-99.667 v 0 h 2 c 0,0 0,19.5 0,41.709 v 0 c 0,22.206 0,47.125 0,57.958 v 0 c 0,15.468 6.267,29.46 16.402,39.598 v 0 c 10.138,10.135 24.132,16.4 39.598,16.4 v 0 c 15.466,0 29.46,-6.267 39.598,-16.4 v 0 c 10.136,-10.138 16.402,-24.132 16.402,-39.598 v 0 c 0,-23.167 0,-100.166 0,-100.166 v 0 h 2.001 c -0.002,0.013 -0.002,4.811 0,12.392 v 0 c -0.002,7.581 -0.002,17.929 0,29.002 v 0 c -0.002,22.146 -0.002,47.187 0,58.771 v 0 c -0.002,32.034 -25.97,58 -58.001,58 v 0 c -32.034,0 -58,-25.964 -58,-57.999 z"
   id="path13" />
<path
   fill="#f4f4f4"
   d="m 133.533,138.504 c -2.763,0 -5.001,-2.238 -5.001,-5.001 v 0 -56.665 c 0,-2.763 2.238,-5.001 5.001,-5.001 v 0 h 63.499 c 2.763,0 4.999,2.238 5.001,5.001 v 0 56.665 h -0.002 c 0,2.763 -2.236,5.001 -4.999,5.001 v 0 z m -3,-61.666 v 56.665 c 0.002,1.656 1.344,2.999 3,3 v 0 h 63.499 c 1.656,-0.002 2.996,-1.344 3.001,-3 v 0 h -0.002 l 0.002,-56.665 c -0.005,-1.658 -1.345,-2.998 -3.001,-3.002 v 0 h -63.499 c -1.657,0.004 -2.998,1.345 -3,3.002 z"
   id="path15" />
<path
   fill="#f4f4f4"
   d="m 130.973,142.439 c -2.33,-0.82 -3.748,-1.38 -4.555,-2.029 v 0 c -1.626,-1.626 -2.636,-3.882 -2.636,-6.363 v 0 -58.293 c 0,-2.483 1.01,-4.739 2.694,-6.417 v 0 c 0.75,-0.595 2.167,-1.157 4.498,-1.977 v 0 c 2.298,-0.787 5.359,-1.694 8.913,-2.554 v 0 c 7.109,-1.721 16.175,-3.26 24.959,-3.26 v 0 c 11.596,0.004 25.542,2.857 32.835,4.884 v 0 c 2.455,0.692 4.07,1.225 4.903,1.71 v 0 c 2.521,1.593 4.195,4.409 4.198,7.613 v 0 58.292 c -0.003,3.202 -1.679,6.021 -4.215,7.622 v 0 c -0.816,0.477 -2.433,1.008 -4.888,1.702 v 0 c -2.432,0.676 -5.603,1.442 -9.179,2.165 v 0 c -7.155,1.444 -15.927,2.717 -23.658,2.719 v 0 c -13.172,-0.003 -26.985,-3.457 -33.869,-5.814 z m 0.649,-73.186 c -2.192,0.731 -3.75,1.475 -3.789,1.551 v 0 c -1.269,1.271 -2.049,3.014 -2.051,4.95 v 0 58.292 c 0.002,1.936 0.783,3.677 1.994,4.895 v 0 c 0.097,0.13 1.655,0.876 3.847,1.607 v 0 c 2.227,0.763 5.237,1.655 8.735,2.502 v 0 c 6.993,1.692 15.937,3.205 24.488,3.205 v 0 c 11.276,0.004 25.169,-2.824 32.3,-4.812 v 0 c 2.354,-0.645 4.056,-1.267 4.369,-1.476 v 0 c 1.965,-1.244 3.268,-3.427 3.268,-5.921 v 0 -58.292 c 0,-2.496 -1.303,-4.68 -3.25,-5.913 v 0 C 201.202,69.622 199.5,69 197.146,68.356 v 0 c -2.377,-0.661 -5.507,-1.417 -9.038,-2.132 v 0 c -7.063,-1.428 -15.745,-2.68 -23.261,-2.678 v 0 c -0.012,0 -0.023,0 -0.035,0 v 0 c -12.817,0 -26.511,3.412 -33.19,5.707 z"
   id="path17" />
<path
   fill="#f4f4f4"
   d="m 260.843,117.004 c 0.002,-7.387 5.989,-13.375 13.377,-13.375 v 0 c 7.387,0 13.373,5.988 13.375,13.375 v 0 c -0.002,7.386 -5.988,13.374 -13.375,13.375 v 0 c -7.388,-0.001 -13.375,-5.988 -13.377,-13.375 z m 2.002,0 c 0.012,6.282 5.094,11.362 11.375,11.375 v 0 c 6.281,-0.012 11.361,-5.092 11.374,-11.375 v 0 c -0.013,-6.282 -5.093,-11.364 -11.374,-11.374 v 0 c -6.283,0.012 -11.366,5.094 -11.375,11.374 z"
   id="path19" />
<path
   fill="#f4f4f4"
   d="m 260.843,171.255 c 0.002,-7.388 5.989,-13.375 13.377,-13.375 v 0 c 7.387,0 13.373,5.987 13.375,13.375 v 0 c -0.002,7.385 -5.988,13.373 -13.375,13.375 v 0 c -7.388,-0.002 -13.375,-5.99 -13.377,-13.375 z m 2.002,0 c 0.012,6.279 5.094,11.363 11.375,11.373 v 0 c 6.279,-0.01 11.361,-5.094 11.374,-11.373 v 0 c -0.013,-6.282 -5.093,-11.364 -11.374,-11.375 v 0 c -6.283,0.011 -11.366,5.094 -11.375,11.375 z"
   id="path21" />
<path
   fill="#f4f4f4"
   d="m 232.343,143.505 c 0.002,-7.389 5.99,-13.375 13.377,-13.377 v 0 c 7.387,0.002 13.373,5.99 13.375,13.377 v 0 c -0.002,7.385 -5.988,13.373 -13.375,13.375 v 0 c -7.389,-0.002 -13.375,-5.989 -13.377,-13.375 z m 2.002,0 c 0.012,6.281 5.094,11.362 11.375,11.373 v 0 c 6.279,-0.01 11.362,-5.092 11.373,-11.373 v 0 c -0.011,-6.283 -5.092,-11.365 -11.373,-11.375 v 0 c -6.283,0.011 -11.366,5.093 -11.375,11.375 z"
   id="path23" />
<path
   fill="#f4f4f4"
   d="m 287.343,143.504 c 0,-7.388 5.99,-13.374 13.376,-13.376 v 0 c 7.388,0.002 13.374,5.988 13.376,13.376 v 0 c -0.002,7.386 -5.988,13.374 -13.376,13.376 v 0 c -7.388,-0.002 -13.376,-5.989 -13.376,-13.376 z m 2.001,0 c 0.011,6.281 5.095,11.363 11.375,11.375 v 0 c 6.281,-0.013 11.363,-5.094 11.373,-11.375 v 0 c -0.01,-6.283 -5.092,-11.365 -11.373,-11.375 v 0 c -6.282,0.011 -11.365,5.092 -11.375,11.375 z"
   id="path25" />
<g
   id="g31"
   transform="translate(-134,-2)">
	<path
   fill="#f4f4f4"
   d="m 192.721,338.768 c -2.901,-0.075 -5.144,-2.524 -6.707,-4.33 v 0 c -13.808,-16.521 -25.661,-42.856 -30.04,-61.243 v 0 c -3.166,-13.334 -16.86,-66.77 -16.86,-132.398 v 0 c 0,-18.782 3.224,-34.483 6.684,-45.828 v 0 c 3.439,-11.247 7.036,-18.132 8.122,-19.737 v 0 c 0.627,-1.135 1.617,-2.036 2.818,-2.55 v 0 c 0.727,-0.348 2.667,-1.014 5.65,-1.958 v 0 c 3.015,-0.95 6.999,-2.136 11.411,-3.34 v 0 c 8.83,-2.411 19.353,-4.901 27.293,-5.748 v 0 h 0.002 l 0.209,1.989 c -11.597,1.229 -29.36,6.18 -38.314,9.006 v 0 c -2.96,0.93 -5.058,1.679 -5.383,1.854 v 0 l -0.04,0.019 -0.025,0.011 c -0.806,0.34 -1.473,0.95 -1.886,1.716 v 0 l -0.027,0.05 -0.034,0.048 c -0.797,1.123 -4.489,8.062 -7.882,19.223 v 0 c -3.411,11.186 -6.596,26.693 -6.596,45.245 v 0 c 0,65.371 13.638,118.603 16.806,131.935 v 0 c 4.271,18.033 16.104,44.277 29.626,60.423 v 0 c 1.408,1.741 3.613,3.69 5.173,3.614 v 0 c 0.657,-0.012 1.278,-0.23 2.035,-1.049 v 0 c 0.743,-0.818 1.54,-2.27 2.236,-4.551 v 0 c 3.147,-10.256 8.152,-32.625 14.01,-49.861 v 0 c 5.886,-17.318 21.102,-43.045 23.045,-47.11 v 0 l 1.802,0.866 c -2.056,4.268 -17.175,29.872 -22.955,46.889 v 0 c -5.809,17.098 -10.802,39.396 -13.991,49.805 v 0 c -0.753,2.451 -1.63,4.154 -2.664,5.305 v 0 c -1.013,1.139 -2.262,1.707 -3.479,1.707 v 0 c -0.012,-0.002 -0.026,-0.002 -0.039,-0.002 z"
   id="path27" />
	<path
   fill="#f4f4f4"
   d="m 402.321,337.061 c -1.036,-1.149 -1.911,-2.854 -2.664,-5.306 v 0 c -3.186,-10.408 -8.178,-32.707 -13.989,-49.805 v 0 c -5.777,-17.016 -20.897,-42.619 -22.955,-46.888 v 0 l 1.803,-0.866 c 1.942,4.064 17.158,29.792 23.046,47.11 v 0 c 5.856,17.237 10.864,39.604 14.01,49.864 v 0 c 0.695,2.279 1.49,3.729 2.233,4.547 v 0 c 0.755,0.818 1.378,1.039 2.036,1.05 v 0 c 1.563,0.075 3.768,-1.873 5.174,-3.614 v 0 c 13.525,-16.146 25.354,-42.39 29.627,-60.423 v 0 c 3.168,-13.332 16.807,-66.565 16.807,-131.935 v 0 c 0.002,-18.552 -3.186,-34.059 -6.596,-45.245 v 0 c -3.394,-11.161 -7.084,-18.1 -7.883,-19.223 v 0 l -0.035,-0.05 -0.025,-0.048 c -0.411,-0.766 -1.08,-1.376 -1.948,-1.746 v 0 c -0.327,-0.176 -2.424,-0.925 -5.386,-1.854 v 0 c -2.987,-0.942 -6.95,-2.121 -11.337,-3.319 v 0 c -8.77,-2.396 -19.252,-4.867 -26.979,-5.687 v 0 l 0.212,-1.989 c 11.901,1.271 29.655,6.239 38.706,9.088 v 0 c 3.039,0.963 4.999,1.636 5.626,1.949 v 0 c 1.212,0.513 2.212,1.418 2.841,2.561 v 0 c 1.087,1.606 4.686,8.491 8.121,19.736 v 0 c 3.459,11.345 6.685,27.046 6.685,45.828 v 0 c 0,65.628 -13.695,119.064 -16.86,132.398 v 0 c -4.377,18.387 -16.23,44.723 -30.04,61.243 v 0 c -1.563,1.806 -3.806,4.255 -6.707,4.33 v 0 c -0.013,0 -0.025,0 -0.04,0 v 0 c -1.222,10e-4 -2.47,-0.567 -3.483,-1.706 z"
   id="path29" />
</g>
<path
   fill="#f4f4f4"
   d="m 165.281,277.962 c -34.572,0 -66.163,5.211 -90.265,13.783 v 0 0.002 l -0.67,-1.887 c 24.378,-8.668 56.161,-13.896 90.935,-13.896 v 0 c 34.808,0 66.621,5.24 91.01,13.924 v 0 l -0.672,1.883 c -24.114,-8.587 -55.732,-13.809 -90.338,-13.809 z"
   id="path33" />
<path
   fill="#f4f4f4"
   d="m 181.614,250.208 h 0.003 l 1.646,-1.131 c 3.55,5.176 5.942,11.854 6.665,19.272 v 0 l -1.99,0.192 c -0.689,-7.105 -2.988,-13.475 -6.324,-18.333 z"
   id="path35" />
<path
   fill="#f4f4f4"
   d="m 140.632,268.37 c 0.72,-7.416 3.109,-14.095 6.654,-19.272 v 0 l 1.65,1.128 c -3.331,4.861 -5.626,11.23 -6.313,18.337 v 0 0.002 z"
   id="path37" />
<path
   fill="#f4f4f4"
   d="m 165.197,264.394 c -7.576,-0.014 -13.408,-0.84 -14.466,-1.129 v 0 c -1.079,-0.338 -1.862,-1.338 -1.886,-2.523 v 0 c 0,-0.01 0,-0.02 0,-0.027 v 0 c 0,-0.029 0,-0.029 0,-0.029 v 0 c 0,-0.299 0.05,-0.592 0.133,-0.828 v 0 c 0.258,-0.807 2.616,-6.659 6.147,-12.854 v 0 c 2.296,-4.012 5.376,-8.459 7.044,-10.66 v 0 c 0.591,-0.762 0.877,-1.159 1.2,-1.432 v 0 c 0.45,-0.408 1.046,-0.668 1.692,-0.695 v 0 c 0.066,-0.008 0.112,-0.006 0.14,-0.004 v 0 c 0.001,0 0.002,0 0.003,0 v 0 c 0.672,0.008 1.293,0.267 1.773,0.699 v 0 c 0.428,0.416 1.655,1.939 3.31,4.154 v 0 c 1.624,2.189 3.557,4.953 5.075,7.545 v 0 c 1.514,2.587 2.983,5.553 4.104,7.996 v 0 c 1.058,2.327 1.771,4.029 1.997,4.82 v 0 c 0.16,0.345 0.253,0.73 0.251,1.136 v 0 0.999 h -0.188 c -0.369,0.934 -1.244,1.609 -2.291,1.691 v 0 0 c -0.635,0.049 -6.979,1.141 -14.021,1.141 v 0 c -0.003,0 -0.01,0 -0.017,0 z m -14.352,-3.696 c 0,0.311 0.206,0.569 0.464,0.65 v 0 c 0.522,0.167 6.553,1.057 13.888,1.044 v 0 c 6.915,-0.002 12.973,-1.054 13.876,-1.134 v 0 l 0.083,0.998 -0.075,-0.998 c 0.351,-0.024 0.636,-0.324 0.637,-0.687 v 0 c -0.002,-0.015 -0.003,-0.032 -0.002,-0.06 v 0 c -0.007,-0.094 -0.032,-0.182 -0.075,-0.264 v 0 l -0.063,-0.123 -0.029,-0.137 c -0.021,-0.177 -0.807,-2.193 -1.896,-4.551 v 0 c -1.101,-2.396 -2.55,-5.322 -4.013,-7.818 v 0 c -1.459,-2.492 -3.357,-5.215 -4.955,-7.363 v 0 c -1.57,-2.125 -2.955,-3.795 -3.051,-3.875 v 0 c -0.117,-0.1 -0.255,-0.162 -0.416,-0.172 v 0 h -0.044 c -0.171,0.002 -0.324,0.063 -0.5,0.211 v 0 0.002 c 0,0 0.001,0 -0.007,0.008 v 0 c -0.009,0.01 -0.023,0.025 -0.041,0.044 v 0 c -0.048,0.052 -0.119,0.133 -0.202,0.233 v 0 c -0.168,0.203 -0.395,0.49 -0.662,0.842 v 0 c -0.534,0.705 -1.233,1.67 -2.009,2.783 v 0 c -1.549,2.229 -3.407,5.064 -4.892,7.662 v 0 c -3.434,5.994 -5.829,11.961 -5.983,12.482 v 0 c -0.019,0.053 -0.029,0.104 -0.034,0.164 v 0 z"
   id="path39" />
<path
   fill="#f4f4f4"
   d="m 66.838,220.261 c -4.125,0 -8.065,-0.817 -11.659,-2.301 v 0 l -0.499,-0.207 -0.102,-0.529 -0.076,-0.391 0.002,-14.795 H 39.691 l -0.879,-0.057 -0.24,-0.574 c -1.494,-3.605 -2.319,-7.563 -2.319,-11.701 v 0 c 0,-4.123 0.817,-8.058 2.298,-11.647 v 0 l 0.126,-0.31 0.288,-0.17 0.345,-0.205 h 15.194 v -15.19 l 0.188,-0.261 0.331,-0.457 0.263,-0.11 c 3.614,-1.506 7.406,-2.263 11.551,-2.261 v 0 c 4.123,0 8.06,0.817 11.65,2.298 v 0 l 0.443,0.182 0.137,0.459 0.104,0.346 v 14.993 h 15.262 l 0.296,0.312 0.308,0.321 0.072,0.174 c 1.512,3.615 2.313,7.363 2.311,11.527 v 0 c 0,4.109 -0.813,8.035 -2.286,11.621 v 0 l -0.085,0.209 -0.174,0.154 -0.387,0.348 -15.318,-0.002 V 217.1 l -0.145,0.238 -0.294,0.488 -0.302,0.125 c -3.611,1.508 -7.423,2.309 -11.577,2.309 v 0 c -0.003,0.001 -0.008,0.001 -0.014,0.001 z m 0,-2 c 3.719,0 7.094,-0.672 10.333,-1.955 v 0 -14.639 c -0.013,-0.437 0.149,-0.981 0.569,-1.306 v 0 c 0.412,-0.313 0.803,-0.317 1.03,-0.323 v 0 h 14.727 c 1.242,-3.203 1.924,-6.687 1.924,-10.332 v 0 c -0.002,-3.748 -0.679,-7.072 -1.984,-10.334 v 0 H 78.818 v -1 -0.556 0.556 1 c -0.405,0.014 -0.97,-0.142 -1.301,-0.582 v 0 c -0.318,-0.429 -0.339,-0.84 -0.345,-1.17 v 0 -14.599 c -3.206,-1.243 -6.687,-1.925 -10.333,-1.925 v 0 c -3.733,0 -7.093,0.641 -10.335,1.924 v 0 14.585 c -0.006,0.333 -0.021,0.735 -0.333,1.173 v 0 c -0.329,0.449 -0.904,0.61 -1.307,0.594 v 0 H 40.179 c -1.242,3.205 -1.924,6.688 -1.924,10.336 v 0 c 0,3.646 0.681,7.127 1.925,10.332 v 0 h 14.698 c 0.491,-0.022 1.082,0.219 1.357,0.655 v 0 c 0.273,0.418 0.263,0.776 0.269,0.956 v 0 14.684 c 3.204,1.244 6.686,1.926 10.334,1.926 z m 11.98,-40.74 v -0.146 z"
   id="path41" />
<path
   fill="#f4f4f4"
   d="m 58.461,189.677 c 0.002,-4.625 3.75,-8.373 8.376,-8.375 v 0 c 4.625,0.002 8.374,3.75 8.376,8.375 v 0 c -0.002,4.627 -3.75,8.375 -8.376,8.377 v 0 c -4.625,-0.002 -8.374,-3.75 -8.376,-8.377 z m 2.002,0 c 0.006,3.521 2.853,6.369 6.375,6.375 v 0 c 3.522,-0.006 6.369,-2.854 6.375,-6.375 v 0 c -0.006,-3.52 -2.853,-6.367 -6.375,-6.373 v 0 c -3.522,0.006 -6.369,2.853 -6.375,6.373 z"
   id="path43" />
<path
   fill="#f4f4f4"
   d="m 9.47,115.691 c 0,-20.332 16.481,-36.813 36.813,-36.813 v 0 c 20.332,0 36.812,16.481 36.812,36.813 v 0 c 0,20.332 -16.48,36.813 -36.812,36.813 v 0 C 25.951,152.503 9.47,136.022 9.47,115.691 Z M 21.666,91.077 c -6.302,6.302 -10.196,15 -10.196,24.615 v 0 c 0,9.616 3.894,18.313 10.196,24.618 v 0 c 6.303,6.3 15,10.194 24.616,10.194 v 0 c 9.616,0 18.313,-3.894 24.615,-10.194 v 0 c 6.303,-6.305 10.197,-15.001 10.197,-24.618 v 0 c 0,-9.616 -3.894,-18.313 -10.197,-24.615 v 0 C 64.594,84.774 55.897,80.88 46.282,80.88 v 0 C 36.666,80.879 27.969,84.773 21.666,91.077 Z"
   id="path45" />
<path
   fill="#f4f4f4"
   d="m 20.595,115.691 c 0,-14.188 11.5,-25.686 25.688,-25.688 v 0 c 14.186,0.002 25.686,11.5 25.686,25.688 v 0 c 0,14.187 -11.5,25.687 -25.686,25.688 v 0 C 32.095,141.378 20.595,129.878 20.595,115.691 Z m 1.999,0 c 0.022,13.082 10.605,23.664 23.689,23.687 v 0 c 13.082,-0.022 23.662,-10.604 23.687,-23.687 v 0 C 69.945,102.609 59.365,92.027 46.283,92.004 v 0 C 33.199,92.028 22.617,102.61 22.594,115.691 Z"
   id="path47" />
</svg>
