<?xml version="1.0" encoding="UTF-8" standalone="no"?>
<svg
   xml:space="preserve"
   enable-background="new 0 0 792 612"
   viewBox="0 0 586.63794 570.00001"
   height="608"
   width="625.74713"
   y="0px"
   x="0px"
   id="Logo"
   version="1.1"
   sodipodi:docname="easyrpg.svg"
   inkscape:version="1.2.2 (732a01da63, 2022-12-09)"
   xmlns:inkscape="http://www.inkscape.org/namespaces/inkscape"
   xmlns:sodipodi="http://sodipodi.sourceforge.net/DTD/sodipodi-0.dtd"
   xmlns="http://www.w3.org/2000/svg"
   xmlns:svg="http://www.w3.org/2000/svg"
   xmlns:rdf="http://www.w3.org/1999/02/22-rdf-syntax-ns#"
   xmlns:cc="http://creativecommons.org/ns#"
   xmlns:dc="http://purl.org/dc/elements/1.1/"><sodipodi:namedview
     id="namedview10596"
     pagecolor="#ffffff"
     bordercolor="#111111"
     borderopacity="1"
     inkscape:showpageshadow="0"
     inkscape:pageopacity="0"
     inkscape:pagecheckerboard="1"
     inkscape:deskcolor="#d1d1d1"
     showgrid="false"
     inkscape:zoom="1.40625"
     inkscape:cx="311.46667"
     inkscape:cy="304.35556"
     inkscape:window-width="1920"
     inkscape:window-height="1009"
     inkscape:window-x="-8"
     inkscape:window-y="-8"
     inkscape:window-maximized="1"
     inkscape:current-layer="Logo" /><metadata
     id="metadata46"><rdf:RDF><cc:Work
         rdf:about=""><dc:format>image/svg+xml</dc:format><dc:type
           rdf:resource="http://purl.org/dc/dcmitype/StillImage" /></cc:Work></rdf:RDF></metadata><defs
     id="defs44" /><g
     transform="translate(-115.91394,-23.831986)"
     id="g41"
     style="stroke:#ffffff;stroke-opacity:1;stroke-width:6.71906295;stroke-dasharray:none;fill:none"><path
       style="fill:none;stroke:#ffffff;stroke-width:6.71906295;stroke-opacity:1;stroke-dasharray:none"
       id="path5"
       d="m 682.256,371.344 c -5.95,-22.158 -15.966,-41.487 -30.027,-58.002 -4.224,-83.34 -48.864,-156.008 -114.702,-198.825 0.009,-0.362 0.03,-0.718 0.03,-1.083 0,-10.023 -4,-19.25 -12,-27.672 -30.406,-31.281 -67.406,-46.93 -111,-46.93 -43.203,0 -79.501,14.719 -108.899,44.156 -4.755,4.76 -9.119,9.704 -13.105,14.826 -85.685,40.38 -144.996,127.516 -144.996,228.518 0,5.421 0.191,10.797 0.527,16.133 -4.942,4.795 -8.571,11.083 -10.875,18.877 -11.887,41.973 -6.939,81.84 14.857,119.594 21.602,37.414 52.497,61.488 92.689,72.23 18.347,4.905 36.408,6.426 54.185,4.585 30.963,13.548 65.158,21.081 101.117,21.081 46.198,0 89.493,-12.417 126.745,-34.081 3.282,4.959 7.652,9.033 13.138,12.2 8.682,5.012 18.672,6.16 29.965,3.443 42.293,-10.691 74.346,-34.91 96.143,-72.664 21.6,-37.414 27.001,-76.207 16.208,-116.386 z" /><radialGradient
       gradientUnits="userSpaceOnUse"
       r="226.5"
       cy="337.29099"
       cx="405.43951"
       id="SVGID_1_"><stop
         id="stop9"
         style="stop-color:#D8EDCA"
         offset="0" /><stop
         id="stop11"
         style="stop-color:#9EBF88"
         offset="1" /></radialGradient><radialGradient
       gradientUnits="userSpaceOnUse"
       r="270.06439"
       cy="300.78909"
       cx="410.16501"
       id="SVGID_2_"><stop
         id="stop16"
         style="stop-color:#688C51"
         offset="0" /><stop
         id="stop18"
         style="stop-color:#587B42"
         offset="0.4749" /><stop
         id="stop20"
         style="stop-color:#42632D"
         offset="1" /></radialGradient><path
       style="fill:none;stroke:#ffffff;stroke-width:6.71906295;stroke-opacity:1;stroke-dasharray:none"
       id="path23"
       d="m 683.139,371.803 c -10.791,-40.186 -34.926,-71.087 -72.387,-92.716 -37.463,-21.629 -76.373,-27.125 -116.746,-16.479 -4.532,1.195 -8.94,2.567 -13.236,4.1 -3.688,-0.938 -7.661,-1.416 -11.932,-1.416 H 415.44 c -20,0 -37,-7.117 -51,-21.359 -14,-14.234 -21,-31.383 -21,-51.445 0,-20.047 6.992,-37.094 20.984,-51.133 13.984,-14.039 30.977,-21.063 50.969,-21.063 5.188,0 10.383,0.547 15.586,1.633 l -43.063,42.75 c -8.852,8.734 -13.273,18.055 -13.273,27.969 0,11.109 4.094,20.828 12.297,29.156 8.203,8.328 17.899,12.492 29.102,12.492 10,0 19.398,-4.031 28.203,-12.102 l 76.797,-75.203 c 11.594,-8.82 17.398,-19.852 17.398,-33.094 0,-10.023 -4,-19.25 -12,-27.672 -30.406,-31.281 -67.406,-46.93 -111,-46.93 -43.204,0 -79.5,14.719 -108.899,44.156 -29.406,29.438 -44.102,65.789 -44.102,109.047 0,43.258 14.695,79.703 44.102,109.344 3.539,3.568 7.181,6.917 10.92,10.055 1.031,3.403 2.527,6.821 4.51,10.256 l 26.699,46.245 c 10,17.32 12.336,35.602 7.002,54.846 -5.327,19.242 -16.678,33.879 -34.053,43.91 -17.361,10.023 -35.621,12.49 -54.775,7.393 -19.15,-5.092 -33.729,-16.295 -43.725,-33.609 -2.594,-4.492 -4.718,-9.264 -6.379,-14.314 l 58.554,15.92 c 11.99,3.297 22.272,2.467 30.858,-2.49 9.621,-5.555 15.991,-13.959 19.102,-25.227 3.111,-11.27 1.869,-21.748 -3.732,-31.449 -5,-8.66 -13.19,-14.785 -24.582,-18.375 L 193.414,336.093 c -13.436,-5.63 -25.891,-5.141 -37.359,1.48 -8.681,5.012 -14.671,13.089 -17.964,24.229 -11.887,41.973 -6.939,81.84 14.857,119.594 21.602,37.414 52.497,61.488 92.69,72.23 40.197,10.748 79.026,5.299 116.488,-16.33 37.461,-21.629 61.677,-52.578 72.643,-92.865 1.277,-4.691 2.324,-9.361 3.16,-14.012 2.413,-2.584 4.609,-5.572 6.578,-8.984 l 26.699,-46.244 c 10,-17.32 24.664,-28.484 43.998,-33.487 19.328,-5.007 37.678,-2.495 55.053,7.536 17.361,10.023 28.629,24.602 33.791,43.74 5.166,19.129 2.752,37.357 -7.244,54.67 -2.594,4.494 -5.666,8.719 -9.207,12.682 l -15.492,-58.668 c -3.137,-12.033 -8.998,-20.521 -17.584,-25.479 -9.621,-5.555 -20.084,-6.869 -31.398,-3.93 -11.314,2.941 -19.768,9.254 -25.369,18.957 -5,8.66 -6.209,18.814 -3.621,30.475 l 26.729,104.111 c 1.842,14.449 8.492,24.992 19.961,31.613 8.682,5.012 18.672,6.16 29.965,3.443 42.293,-10.691 74.346,-34.91 96.143,-72.664 21.6,-37.415 27.001,-76.208 16.208,-116.387 z" /></g></svg>
