<?xml version="1.0" encoding="UTF-8" standalone="no"?>
<!-- Created with Inkscape (http://www.inkscape.org/) -->

<svg
   width="800"
   height="377"
   viewBox="0 0 211.66666 99.747986"
   version="1.1"
   id="svg5"
   inkscape:version="1.2.2 (732a01da63, 2022-12-09)"
   xml:space="preserve"
   sodipodi:docname="electron.svg"
   xmlns:inkscape="http://www.inkscape.org/namespaces/inkscape"
   xmlns:sodipodi="http://sodipodi.sourceforge.net/DTD/sodipodi-0.dtd"
   xmlns="http://www.w3.org/2000/svg"
   xmlns:svg="http://www.w3.org/2000/svg"><sodipodi:namedview
     id="namedview7"
     pagecolor="#000000"
     bordercolor="#111111"
     borderopacity="1"
     inkscape:showpageshadow="0"
     inkscape:pageopacity="0"
     inkscape:pagecheckerboard="1"
     inkscape:deskcolor="#d1d1d1"
     inkscape:document-units="mm"
     showgrid="false"
     inkscape:zoom="1.2739583"
     inkscape:cx="301.81522"
     inkscape:cy="255.89535"
     inkscape:window-width="1920"
     inkscape:window-height="1009"
     inkscape:window-x="-8"
     inkscape:window-y="-8"
     inkscape:window-maximized="1"
     inkscape:current-layer="layer1" /><defs
     id="defs2"><inkscape:path-effect
       effect="bspline"
       id="path-effect2562"
       is_visible="true"
       lpeversion="1"
       weight="33.333333"
       steps="2"
       helper_size="0"
       apply_no_weight="true"
       apply_with_weight="true"
       only_selected="false" /></defs><g
     inkscape:label="Layer 1"
     inkscape:groupmode="layer"
     id="layer1"><path
       style="fill:none;stroke:#ffffff;stroke-width:0.396875;stroke-linecap:round;stroke-linejoin:round;stroke-dasharray:none;paint-order:fill markers stroke;stroke-opacity:1"
       d="m 16.01354,3.388505 -1.601744,23.190549 0.62678,68.875239"
       id="path2560-2"
       sodipodi:nodetypes="ccc" /><g
       id="g72"
       transform="matrix(0.57947367,0,0,0.55835944,-64.538973,-93.545648)"
       style="fill:none;stroke:#ffffff;stroke-opacity:1;stroke-width:0.69771805;stroke-dasharray:none">
	<path
   fill="#f4f4f4"
   d="m 148.229,241.729 c -0.76,0 -1.376,-0.613 -1.376,-1.376 v 0 -17.393 c 0,-0.763 0.616,-1.378 1.376,-1.378 v 0 h 18.336 c 0.758,0 1.374,0.611 1.376,1.378 v 0 17.393 c -0.002,0.768 -0.62,1.374 -1.376,1.376 v 0 z m 17.712,-2 v -16.147 h -17.088 v 16.147 z"
   id="path68"
   style="fill:none;stroke:#ffffff;stroke-opacity:1;stroke-width:0.69771805;stroke-dasharray:none" />
	<path
   fill="#f4f4f4"
   d="m 152.499,237.459 c -1.386,0 -2.506,-1.122 -2.506,-2.506 v 0 -9.293 c 0,-1.386 1.121,-2.509 2.506,-2.509 v 0 h 9.796 c 1.386,0 2.506,1.123 2.506,2.509 v 0 9.293 c 0,1.384 -1.121,2.506 -2.506,2.508 v 0 z m -0.507,-11.799 v 9.293 c 0,0.277 0.229,0.507 0.507,0.507 v 0 h 9.796 c 0.28,0 0.507,-0.228 0.507,-0.507 v 0 -9.293 c 0,-0.281 -0.228,-0.507 -0.507,-0.507 v 0 l -9.796,-0.003 c -0.278,0.003 -0.507,0.231 -0.507,0.51 z"
   id="path70"
   style="fill:none;stroke:#ffffff;stroke-opacity:1;stroke-width:0.69771805;stroke-dasharray:none" />
</g><g
       id="g78"
       transform="matrix(0.57947367,0,0,0.55835944,-64.538973,-93.545648)"
       style="fill:none;stroke:#ffffff;stroke-opacity:1;stroke-width:0.69771805;stroke-dasharray:none">
	<path
   fill="#f4f4f4"
   d="m 168.179,241.728 c -0.756,0 -1.376,-0.608 -1.378,-1.374 v 0 l 0.002,-17.395 c 0,-0.765 0.62,-1.376 1.376,-1.378 v 0 l 18.335,0.002 c 0.758,0 1.376,0.618 1.378,1.376 v 0 17.395 h -0.002 c 0,0.759 -0.618,1.374 -1.376,1.374 v 0 z m 17.711,-2 v -16.145 l -17.088,-0.002 -0.002,16.146 h 17.09 z"
   id="path74"
   style="fill:none;stroke:#ffffff;stroke-opacity:1;stroke-width:0.69771805;stroke-dasharray:none" />
	<path
   fill="#f4f4f4"
   d="m 172.449,237.459 c -1.386,0 -2.507,-1.122 -2.507,-2.506 v 0 -9.293 c 0,-1.386 1.121,-2.509 2.507,-2.509 v 0 h 9.795 c 1.386,0 2.507,1.123 2.507,2.509 v 0 9.293 c 0,1.384 -1.121,2.506 -2.507,2.508 v 0 z m -0.508,-11.799 v 9.293 c 0.002,0.279 0.23,0.507 0.508,0.507 v 0 h 9.795 c 0.278,0 0.506,-0.228 0.508,-0.507 v 0 -9.293 c -0.002,-0.281 -0.23,-0.507 -0.508,-0.507 v 0 l -9.795,-0.003 c -0.278,0.003 -0.506,0.229 -0.508,0.51 z"
   id="path76"
   style="fill:none;stroke:#ffffff;stroke-opacity:1;stroke-width:0.69771805;stroke-dasharray:none" />
</g><g
       id="g84"
       transform="matrix(0.57947367,0,0,0.55835944,-64.538973,-93.545648)"
       style="fill:none;stroke:#ffffff;stroke-opacity:1;stroke-width:0.69771805;stroke-dasharray:none">
	<path
   fill="#f4f4f4"
   d="m 188.128,241.728 c -0.758,0 -1.376,-0.615 -1.378,-1.374 v 0 l 0.002,-17.395 c 0,-0.758 0.618,-1.376 1.376,-1.378 v 0 l 18.336,0.002 c 0.756,0 1.374,0.615 1.376,1.376 v 0 17.395 c 0,0.763 -0.62,1.374 -1.376,1.374 v 0 z m 17.712,-2 v -16.145 l -17.088,-0.002 -0.002,16.146 h 17.09 z"
   id="path80"
   style="fill:none;stroke:#ffffff;stroke-opacity:1;stroke-width:0.69771805;stroke-dasharray:none" />
	<path
   fill="#f4f4f4"
   d="m 192.399,237.459 c -1.388,0 -2.506,-1.122 -2.508,-2.506 v 0 -9.293 c 0.002,-1.386 1.121,-2.509 2.508,-2.509 v 0 h 9.796 c 1.386,0 2.504,1.125 2.504,2.509 v 0 9.293 c 0,1.382 -1.119,2.506 -2.504,2.508 v 0 z m -0.507,-11.799 v 9.293 c 0,0.279 0.228,0.507 0.507,0.507 v 0 h 9.796 c 0.278,0 0.503,-0.228 0.505,-0.507 v 0 -9.293 c -0.002,-0.281 -0.228,-0.507 -0.505,-0.507 v 0 l -9.796,-0.003 c -0.279,0.003 -0.507,0.229 -0.507,0.51 z"
   id="path82"
   style="fill:none;stroke:#ffffff;stroke-opacity:1;stroke-width:0.69771805;stroke-dasharray:none" />
</g><g
       id="g90"
       transform="matrix(0.57947367,0,0,0.55835944,-64.538973,-93.545648)"
       style="fill:none;stroke:#ffffff;stroke-opacity:1;stroke-width:0.69771805;stroke-dasharray:none">
	<path
   fill="#f4f4f4"
   d="m 208.078,241.729 c -0.761,-0.002 -1.376,-0.617 -1.376,-1.376 v 0 -17.393 c 0,-0.758 0.615,-1.376 1.376,-1.378 v 0 h 18.335 c 0.759,0.002 1.376,0.615 1.376,1.378 v 0 17.393 c 0,0.763 -0.62,1.374 -1.376,1.376 v 0 z m 17.711,-2 v -16.147 h -17.087 v 16.147 z"
   id="path86"
   style="fill:none;stroke:#ffffff;stroke-opacity:1;stroke-width:0.69771805;stroke-dasharray:none" />
	<path
   fill="#f4f4f4"
   d="m 212.346,237.46 c -1.386,-0.002 -2.504,-1.124 -2.507,-2.508 v 0 -9.293 c 0.002,-1.384 1.121,-2.506 2.507,-2.506 v 0 h 9.798 c 1.384,0 2.506,1.12 2.506,2.506 v 0 9.293 c 0,1.386 -1.123,2.506 -2.506,2.508 v 0 z m -0.506,-11.801 v 9.293 c 0,0.279 0.23,0.507 0.506,0.509 v 0 h 9.798 c 0.277,-0.002 0.505,-0.229 0.507,-0.509 v 0 -9.293 c -0.002,-0.279 -0.23,-0.508 -0.507,-0.508 v 0 h -9.798 c -0.276,0 -0.506,0.229 -0.506,0.508 z"
   id="path88"
   style="fill:none;stroke:#ffffff;stroke-opacity:1;stroke-width:0.69771805;stroke-dasharray:none" />
</g><g
       id="g96"
       transform="matrix(0.57947367,0,0,0.55835944,-64.538973,-93.545648)"
       style="fill:none;stroke:#ffffff;stroke-opacity:1;stroke-width:0.69771805;stroke-dasharray:none">
	<path
   fill="#f4f4f4"
   d="m 228.025,241.729 c -0.758,0 -1.374,-0.613 -1.376,-1.376 v 0 -17.393 c 0,-0.763 0.618,-1.378 1.376,-1.378 v 0 h 18.338 c 0.756,0.002 1.374,0.615 1.376,1.378 v 0 17.393 c -0.002,0.763 -0.62,1.374 -1.376,1.376 v 0 z m 17.714,-2 v -16.147 h -17.09 v 16.147 z"
   id="path92"
   style="fill:none;stroke:#ffffff;stroke-opacity:1;stroke-width:0.69771805;stroke-dasharray:none" />
	<path
   fill="#f4f4f4"
   d="m 232.297,237.459 c -1.386,0 -2.506,-1.122 -2.506,-2.506 v 0 -9.293 c 0,-1.386 1.121,-2.509 2.506,-2.509 v 0 h 9.796 c 1.386,0 2.506,1.123 2.506,2.509 v 0 9.293 c 0,1.384 -1.121,2.506 -2.506,2.508 v 0 z M 231.79,225.66 v 9.293 c 0,0.279 0.228,0.507 0.507,0.507 v 0 h 9.796 c 0.278,0 0.505,-0.228 0.508,-0.507 v 0 -9.293 c -0.002,-0.281 -0.23,-0.507 -0.508,-0.507 v 0 l -9.796,-0.003 c -0.279,0.003 -0.507,0.229 -0.507,0.51 z"
   id="path94"
   style="fill:none;stroke:#ffffff;stroke-opacity:1;stroke-width:0.69771805;stroke-dasharray:none" />
</g><g
       id="g102"
       transform="matrix(0.57947367,0,0,0.55835944,-64.538973,-93.545648)"
       style="fill:none;stroke:#ffffff;stroke-opacity:1;stroke-width:0.69771805;stroke-dasharray:none">
	<path
   fill="#f4f4f4"
   d="m 247.976,241.729 c -0.756,-0.002 -1.376,-0.613 -1.376,-1.376 v 0 -17.393 c 0,-0.763 0.62,-1.376 1.376,-1.378 v 0 h 18.337 c 0.759,0.002 1.374,0.62 1.376,1.378 v 0 17.393 h -0.002 c 0,0.759 -0.615,1.374 -1.374,1.376 v 0 z m 17.711,-2 0.002,-16.147 h -17.09 v 16.147 z"
   id="path98"
   style="fill:none;stroke:#ffffff;stroke-opacity:1;stroke-width:0.69771805;stroke-dasharray:none" />
	<path
   fill="#f4f4f4"
   d="m 252.245,237.459 c -1.386,0 -2.506,-1.122 -2.506,-2.506 v 0 -9.293 c 0,-1.386 1.121,-2.509 2.506,-2.509 v 0 h 9.796 c 1.386,0 2.506,1.123 2.506,2.509 v 0 9.293 c 0,1.384 -1.121,2.506 -2.506,2.508 v 0 z m -0.508,-11.799 v 9.293 c 0.002,0.279 0.23,0.507 0.508,0.507 v 0 h 9.796 c 0.279,0 0.507,-0.228 0.507,-0.507 v 0 -9.293 c 0,-0.281 -0.228,-0.507 -0.507,-0.507 v 0 l -9.796,-0.003 c -0.278,0.003 -0.505,0.229 -0.508,0.51 z"
   id="path100"
   style="fill:none;stroke:#ffffff;stroke-opacity:1;stroke-width:0.69771805;stroke-dasharray:none" />
</g><g
       id="g108"
       transform="matrix(0.57947367,0,0,0.55835944,-64.538973,-93.545648)"
       style="fill:none;stroke:#ffffff;stroke-opacity:1;stroke-width:0.69771805;stroke-dasharray:none">
	<path
   fill="#f4f4f4"
   d="m 267.925,241.729 c -0.758,-0.002 -1.376,-0.613 -1.378,-1.376 v 0 l 0.002,-17.393 c 0,-0.763 0.618,-1.376 1.376,-1.378 v 0 h 18.336 c 0.76,0.002 1.374,0.62 1.376,1.378 v 0 17.393 c -0.002,0.759 -0.618,1.374 -1.376,1.376 v 0 z m 17.712,-2 v -16.147 h -17.088 l -0.002,16.147 z"
   id="path104"
   style="fill:none;stroke:#ffffff;stroke-opacity:1;stroke-width:0.69771805;stroke-dasharray:none" />
	<path
   fill="#f4f4f4"
   d="m 272.195,237.459 c -1.386,0 -2.504,-1.122 -2.506,-2.506 v 0 -9.293 c 0.002,-1.386 1.121,-2.509 2.506,-2.509 v 0 h 9.796 c 1.386,0 2.507,1.123 2.507,2.509 v 0 9.293 c 0,1.384 -1.121,2.506 -2.507,2.508 v 0 z m -0.506,-11.799 v 9.293 c 0,0.279 0.228,0.507 0.505,0.507 v 0 h 9.796 c 0.278,0 0.505,-0.228 0.508,-0.507 v 0 -9.293 c -0.002,-0.281 -0.23,-0.507 -0.508,-0.507 v 0 l -9.796,-0.003 c -0.277,0.003 -0.505,0.229 -0.505,0.51 z"
   id="path106"
   style="fill:none;stroke:#ffffff;stroke-opacity:1;stroke-width:0.69771805;stroke-dasharray:none" />
</g><g
       id="g114"
       transform="matrix(0.57947367,0,0,0.55835944,-64.538973,-93.545648)"
       style="fill:none;stroke:#ffffff;stroke-opacity:1;stroke-width:0.69771805;stroke-dasharray:none">
	<path
   fill="#f4f4f4"
   d="m 287.874,241.729 c -0.759,0 -1.374,-0.613 -1.376,-1.376 v 0 -17.393 c 0,-0.763 0.618,-1.378 1.376,-1.378 v 0 h 18.335 c 0.756,0.002 1.376,0.611 1.378,1.378 v 0 17.393 c -0.002,0.768 -0.622,1.376 -1.378,1.376 v 0 z m 17.713,-2 v -16.147 h -17.09 v 16.147 z"
   id="path110"
   style="fill:none;stroke:#ffffff;stroke-opacity:1;stroke-width:0.69771805;stroke-dasharray:none" />
	<path
   fill="#f4f4f4"
   d="m 292.145,237.459 c -1.386,0 -2.506,-1.122 -2.508,-2.506 v 0 -9.293 c 0.002,-1.386 1.123,-2.509 2.508,-2.509 v 0 h 9.795 c 1.386,0 2.507,1.123 2.507,2.509 v 0 9.293 c 0,1.384 -1.121,2.506 -2.507,2.508 v 0 z m -0.507,-11.799 v 9.293 c 0,0.277 0.228,0.507 0.507,0.507 v 0 h 9.795 c 0.277,0 0.506,-0.228 0.508,-0.507 v 0 -9.293 c -0.002,-0.281 -0.23,-0.507 -0.508,-0.507 v 0 l -9.795,-0.003 c -0.28,0.003 -0.507,0.231 -0.507,0.51 z"
   id="path112"
   style="fill:none;stroke:#ffffff;stroke-opacity:1;stroke-width:0.69771805;stroke-dasharray:none" />
</g><g
       id="g120"
       transform="matrix(0.57947367,0,0,0.55835944,-64.538973,-93.545648)"
       style="fill:none;stroke:#ffffff;stroke-opacity:1;stroke-width:0.69771805;stroke-dasharray:none">
	<path
   fill="#f4f4f4"
   d="m 307.823,241.729 c -0.757,-0.002 -1.376,-0.617 -1.378,-1.376 v 0 l 0.002,-17.393 c 0,-0.76 0.617,-1.376 1.376,-1.378 v 0 h 18.335 c 0.761,0.002 1.374,0.62 1.377,1.378 v 0 17.393 c -0.003,0.759 -0.616,1.374 -1.377,1.376 v 0 z m 17.712,-2 v -16.147 h -17.088 l -0.002,16.147 z"
   id="path116"
   style="fill:none;stroke:#ffffff;stroke-opacity:1;stroke-width:0.69771805;stroke-dasharray:none" />
	<path
   fill="#f4f4f4"
   d="m 312.095,237.459 c -1.388,0 -2.509,-1.122 -2.509,-2.506 v 0 -9.293 c 0,-1.386 1.121,-2.509 2.509,-2.509 v 0 h 9.794 c 1.386,0 2.507,1.123 2.507,2.509 v 0 9.293 c 0,1.384 -1.121,2.506 -2.507,2.508 v 0 z m -0.51,-11.799 v 9.293 c 0.002,0.279 0.229,0.507 0.51,0.507 v 0 h 9.794 c 0.279,0 0.508,-0.229 0.508,-0.507 v 0 -9.293 c 0,-0.279 -0.229,-0.507 -0.508,-0.507 v 0 l -9.794,-0.003 c -0.282,0.003 -0.508,0.229 -0.51,0.51 z"
   id="path118"
   style="fill:none;stroke:#ffffff;stroke-opacity:1;stroke-width:0.69771805;stroke-dasharray:none" />
</g><g
       id="g126"
       transform="matrix(0.57947367,0,0,0.55835944,-64.538973,-93.545648)"
       style="fill:none;stroke:#ffffff;stroke-opacity:1;stroke-width:0.69771805;stroke-dasharray:none">
	<path
   fill="#f4f4f4"
   d="m 327.774,241.728 c -0.755,0 -1.379,-0.608 -1.381,-1.374 v 0 l 0.002,-17.395 c 0,-0.767 0.622,-1.376 1.379,-1.378 v 0 l 18.335,0.002 c 0.759,0 1.374,0.615 1.376,1.376 v 0 17.395 h -0.002 c 0,0.761 -0.615,1.374 -1.374,1.374 v 0 z m 17.709,-2 0.002,-16.145 -17.09,-0.002 -0.002,16.146 h 17.09 z"
   id="path122"
   style="fill:none;stroke:#ffffff;stroke-opacity:1;stroke-width:0.69771805;stroke-dasharray:none" />
	<path
   fill="#f4f4f4"
   d="m 332.043,237.459 c -1.386,0 -2.507,-1.124 -2.507,-2.506 v 0 -9.293 c 0,-1.384 1.121,-2.509 2.507,-2.509 v 0 h 9.796 c 1.386,0 2.506,1.123 2.506,2.509 v 0 9.293 c 0,1.384 -1.12,2.506 -2.506,2.508 v 0 z m -0.508,-11.799 v 9.293 c 0.002,0.279 0.228,0.507 0.508,0.507 v 0 h 9.796 c 0.277,0 0.505,-0.228 0.507,-0.507 v 0 -9.293 c -0.002,-0.281 -0.229,-0.507 -0.507,-0.507 v 0 l -9.796,-0.003 c -0.28,0.003 -0.506,0.229 -0.508,0.51 z"
   id="path124"
   style="fill:none;stroke:#ffffff;stroke-opacity:1;stroke-width:0.69771805;stroke-dasharray:none" />
</g><g
       id="g132"
       transform="matrix(0.57947367,0,0,0.55835944,-64.538973,-93.545648)"
       style="fill:none;stroke:#ffffff;stroke-opacity:1;stroke-width:0.69771805;stroke-dasharray:none">
	<path
   fill="#f4f4f4"
   d="m 347.723,241.729 c -0.759,-0.002 -1.378,-0.613 -1.378,-1.374 v 0 -17.395 c 0.002,-0.763 0.619,-1.376 1.378,-1.376 v 0 h 18.336 c 0.758,0 1.374,0.613 1.376,1.376 v 0 17.395 h -0.002 c 0,0.761 -0.616,1.374 -1.374,1.374 v 0 z m 17.71,-2 0.001,-16.146 h -17.089 v 16.146 z"
   id="path128"
   style="fill:none;stroke:#ffffff;stroke-opacity:1;stroke-width:0.69771805;stroke-dasharray:none" />
	<path
   fill="#f4f4f4"
   d="m 351.993,237.458 c -1.387,0 -2.508,-1.12 -2.508,-2.505 v 0 -9.294 c 0,-1.386 1.121,-2.507 2.508,-2.509 v 0 l 9.795,0.002 c 1.386,0 2.507,1.123 2.507,2.507 v 0 9.294 c 0,1.385 -1.121,2.505 -2.507,2.508 v 0 z m -0.51,-11.799 v 9.294 c 0.002,0.277 0.229,0.506 0.51,0.506 v 0 l 9.795,0.002 c 0.279,-0.002 0.506,-0.23 0.508,-0.508 v 0 -9.294 c -0.002,-0.279 -0.229,-0.507 -0.508,-0.507 v 0 l -9.795,-0.003 c -0.28,0.003 -0.508,0.231 -0.51,0.51 z"
   id="path130"
   style="fill:none;stroke:#ffffff;stroke-opacity:1;stroke-width:0.69771805;stroke-dasharray:none" />
</g><g
       id="g138"
       transform="matrix(0.57947367,0,0,0.55835944,-64.538973,-93.545648)"
       style="fill:none;stroke:#ffffff;stroke-opacity:1;stroke-width:0.69771805;stroke-dasharray:none">
	<path
   fill="#f4f4f4"
   d="m 367.577,241.728 c -0.761,0 -1.376,-0.613 -1.378,-1.374 v 0 l 0.002,-17.395 c 0,-0.762 0.615,-1.377 1.376,-1.377 v 0 h 18.335 c 0.759,0.002 1.376,0.615 1.378,1.377 v 0 17.395 h -0.002 c 0,0.763 -0.619,1.374 -1.376,1.374 v 0 z m 17.712,-1.999 V 223.582 H 368.2 v 16.147 z"
   id="path134"
   style="fill:none;stroke:#ffffff;stroke-opacity:1;stroke-width:0.69771805;stroke-dasharray:none" />
	<path
   fill="#f4f4f4"
   d="m 371.847,237.459 c -1.386,0 -2.507,-1.122 -2.507,-2.506 v 0 -9.293 c 0,-1.385 1.121,-2.507 2.507,-2.509 v 0 h 9.798 c 1.384,0.002 2.503,1.124 2.505,2.509 v 0 9.293 c -0.002,1.384 -1.121,2.506 -2.505,2.506 v 0 z M 371.34,225.66 v 9.293 c 0,0.279 0.229,0.507 0.507,0.507 v 0 h 9.798 c 0.276,0 0.505,-0.228 0.505,-0.507 v 0 -9.293 c 0,-0.28 -0.229,-0.509 -0.505,-0.509 v 0 h -9.798 c -0.279,0 -0.507,0.229 -0.507,0.509 z"
   id="path136"
   style="fill:none;stroke:#ffffff;stroke-opacity:1;stroke-width:0.69771805;stroke-dasharray:none" />
</g><g
       id="g144"
       transform="matrix(0.57947367,0,0,0.55835944,-64.538973,-93.545648)"
       style="fill:none;stroke:#ffffff;stroke-opacity:1;stroke-width:0.69771805;stroke-dasharray:none">
	<path
   fill="#f4f4f4"
   d="m 387.527,241.728 c -0.76,0 -1.375,-0.615 -1.377,-1.375 v 0 -17.393 c 0.002,-0.758 0.617,-1.377 1.377,-1.379 v 0 l 18.334,0.002 c 0.756,0 1.377,0.614 1.379,1.377 v 0 17.393 h -0.002 c 0,0.763 -0.621,1.375 -1.377,1.377 v 0 z m 17.711,-1.999 v -16.146 l -17.088,-0.002 v 16.146 z"
   id="path140"
   style="fill:none;stroke:#ffffff;stroke-opacity:1;stroke-width:0.69771805;stroke-dasharray:none" />
	<path
   fill="#f4f4f4"
   d="m 391.797,237.46 c -1.387,0 -2.507,-1.124 -2.507,-2.507 v 0 -9.293 c 0,-1.385 1.12,-2.509 2.507,-2.509 v 0 h 9.797 c 1.385,0.002 2.505,1.124 2.505,2.509 v 0 9.293 c 0,1.383 -1.12,2.505 -2.505,2.507 v 0 z m -0.508,-11.8 v 9.293 c 0.002,0.279 0.229,0.506 0.508,0.506 v 0 l 9.797,0.002 c 0.276,-0.002 0.506,-0.229 0.506,-0.508 v 0 -9.293 c 0,-0.281 -0.229,-0.508 -0.506,-0.508 v 0 l -9.797,-0.002 c -0.279,0.002 -0.506,0.229 -0.508,0.51 z"
   id="path142"
   style="fill:none;stroke:#ffffff;stroke-opacity:1;stroke-width:0.69771805;stroke-dasharray:none" />
</g><g
       id="g150"
       transform="matrix(0.57947367,0,0,0.55835944,-64.538973,-93.545648)"
       style="fill:none;stroke:#ffffff;stroke-opacity:1;stroke-width:0.69771805;stroke-dasharray:none">
	<path
   fill="#f4f4f4"
   d="m 407.477,241.728 c -0.758,0 -1.378,-0.611 -1.378,-1.376 v 0 -17.393 c 0.002,-0.762 0.618,-1.376 1.378,-1.376 v 0 h 18.337 c 0.758,0 1.371,0.612 1.376,1.376 v 0 17.393 h -0.003 c -0.002,0.767 -0.615,1.374 -1.373,1.376 v 0 z m 17.71,-1.999 0.002,-16.147 h -17.09 v 16.147 z"
   id="path146"
   style="fill:none;stroke:#ffffff;stroke-opacity:1;stroke-width:0.69771805;stroke-dasharray:none" />
	<path
   fill="#f4f4f4"
   d="m 411.747,237.459 c -1.388,0 -2.508,-1.123 -2.508,-2.507 v 0 -9.292 c 0,-1.386 1.12,-2.509 2.508,-2.509 v 0 h 9.793 c 1.387,0 2.507,1.123 2.509,2.509 v 0 9.292 c -0.002,1.384 -1.122,2.507 -2.509,2.509 v 0 z m -0.509,-11.799 v 9.292 c 0,0.28 0.228,0.508 0.509,0.508 v 0 h 9.793 c 0.28,0 0.508,-0.229 0.51,-0.508 v 0 -9.292 c -0.002,-0.279 -0.229,-0.509 -0.51,-0.509 v 0 h -9.793 c -0.281,0 -0.509,0.228 -0.509,0.509 z"
   id="path148"
   style="fill:none;stroke:#ffffff;stroke-opacity:1;stroke-width:0.69771805;stroke-dasharray:none" />
</g><g
       id="g156"
       transform="matrix(0.57947367,0,0,0.55835944,-64.538973,-93.545648)"
       style="fill:none;stroke:#ffffff;stroke-opacity:1;stroke-width:0.69771805;stroke-dasharray:none">
	<path
   fill="#f4f4f4"
   d="m 427.426,241.729 c -0.758,-0.002 -1.378,-0.613 -1.378,-1.375 v 0 -17.395 c 0.003,-0.762 0.618,-1.375 1.378,-1.377 v 0 h 18.336 c 0.758,0.002 1.375,0.615 1.377,1.377 v 0 17.395 h -0.002 c 0,0.762 -0.619,1.373 -1.375,1.375 v 0 z m 17.712,-2 v -16.147 h -17.089 l -0.002,16.147 z"
   id="path152"
   style="fill:none;stroke:#ffffff;stroke-opacity:1;stroke-width:0.69771805;stroke-dasharray:none" />
	<path
   fill="#f4f4f4"
   d="m 431.695,237.459 c -1.387,0 -2.506,-1.123 -2.506,-2.506 v 0 -9.294 c 0,-1.385 1.119,-2.506 2.506,-2.509 v 0 l 9.796,0.003 c 1.385,0 2.506,1.121 2.506,2.506 v 0 9.294 c 0,1.383 -1.121,2.506 -2.506,2.508 v 0 z m -0.507,-11.8 v 9.294 c 0.002,0.277 0.229,0.506 0.508,0.506 v 0 l 9.796,0.002 c 0.276,-0.002 0.506,-0.23 0.506,-0.508 v 0 -9.294 c 0,-0.28 -0.229,-0.509 -0.506,-0.509 v 0 h -9.796 c -0.279,0 -0.507,0.229 -0.508,0.509 z"
   id="path154"
   style="fill:none;stroke:#ffffff;stroke-opacity:1;stroke-width:0.69771805;stroke-dasharray:none" />
</g><g
       id="g174"
       transform="matrix(0.57947367,0,0,0.55835944,-64.538973,-93.545648)"
       style="fill:none;stroke:#ffffff;stroke-opacity:1;stroke-width:0.69771805;stroke-dasharray:none">
	<path
   fill="#f4f4f4"
   d="m 177.222,261.771 c -0.76,0 -1.375,-0.606 -1.379,-1.373 v 0 l 0.002,-17.395 c 0,-0.767 0.623,-1.374 1.377,-1.376 v 0 h 18.336 c 0.754,0.002 1.375,0.609 1.375,1.376 v 0 17.395 c -0.004,0.765 -0.615,1.371 -1.375,1.373 v 0 z m 17.713,-1.999 v -16.146 h -17.092 v 16.146 z"
   id="path170"
   style="fill:none;stroke:#ffffff;stroke-opacity:1;stroke-width:0.69771805;stroke-dasharray:none" />
	<path
   fill="#f4f4f4"
   d="m 181.493,257.502 c -1.387,0 -2.508,-1.121 -2.508,-2.506 v 0 -9.293 c 0,-1.387 1.124,-2.508 2.508,-2.508 v 0 h 9.792 c 1.385,0.002 2.506,1.121 2.508,2.508 v 0 9.293 c 0,1.385 -1.121,2.506 -2.508,2.508 v 0 z m -0.509,-11.799 v 9.293 c 0,0.278 0.227,0.506 0.509,0.506 v 0 l 9.792,0.003 c 0.283,-0.003 0.507,-0.229 0.509,-0.509 v 0 -9.293 c 0,-0.282 -0.226,-0.506 -0.509,-0.506 v 0 l -9.792,-0.003 c -0.283,0.003 -0.509,0.227 -0.509,0.509 z"
   id="path172"
   style="fill:none;stroke:#ffffff;stroke-opacity:1;stroke-width:0.69771805;stroke-dasharray:none" />
</g><g
       id="g180"
       transform="matrix(0.57947367,0,0,0.55835944,-64.538973,-93.545648)"
       style="fill:none;stroke:#ffffff;stroke-opacity:1;stroke-width:0.69771805;stroke-dasharray:none">
	<path
   fill="#f4f4f4"
   d="m 197.17,261.771 c -0.761,0 -1.377,-0.614 -1.377,-1.373 v 0 -17.395 c 0.002,-0.759 0.623,-1.374 1.377,-1.376 v 0 h 18.336 c 0.756,0.002 1.375,0.617 1.375,1.376 v 0 17.395 c 0,0.759 -0.613,1.373 -1.375,1.373 v 0 z m 17.711,-1.999 0.002,-16.146 h -17.09 v 16.146 z"
   id="path176"
   style="fill:none;stroke:#ffffff;stroke-opacity:1;stroke-width:0.69771805;stroke-dasharray:none" />
	<path
   fill="#f4f4f4"
   d="m 201.44,257.503 c -1.385,0 -2.506,-1.121 -2.508,-2.506 v 0 l 0.002,-9.295 c 0,-1.385 1.121,-2.506 2.506,-2.506 v 0 h 9.797 c 1.383,0 2.504,1.121 2.506,2.506 v 0 9.295 c -0.002,1.385 -1.121,2.504 -2.506,2.506 v 0 z m -0.506,-11.801 v 9.295 c 0,0.278 0.227,0.506 0.507,0.506 v 0 h 9.797 c 0.278,0 0.504,-0.228 0.506,-0.506 v 0 h -0.002 l 0.002,-9.295 c -0.002,-0.28 -0.229,-0.507 -0.506,-0.507 v 0 h -9.797 c -0.281,0 -0.507,0.227 -0.507,0.507 z"
   id="path178"
   style="fill:none;stroke:#ffffff;stroke-opacity:1;stroke-width:0.69771805;stroke-dasharray:none" />
</g><g
       id="g186"
       transform="matrix(0.57947367,0,0,0.55835944,-64.538973,-93.545648)"
       style="fill:none;stroke:#ffffff;stroke-opacity:1;stroke-width:0.69771805;stroke-dasharray:none">
	<path
   fill="#f4f4f4"
   d="m 217.12,261.772 c -0.765,-0.003 -1.375,-0.613 -1.377,-1.376 v 0 -17.393 c 0.002,-0.763 0.621,-1.376 1.377,-1.378 v 0 l 18.336,0.002 c 0.754,0 1.374,0.615 1.375,1.376 v 0 17.393 c 0,0.759 -0.613,1.376 -1.375,1.376 v 0 z m 17.711,-1.999 v -16.146 h -17.087 v 16.145 z"
   id="path182"
   style="fill:none;stroke:#ffffff;stroke-opacity:1;stroke-width:0.69771805;stroke-dasharray:none" />
	<path
   fill="#f4f4f4"
   d="m 221.39,257.502 c -1.385,0 -2.506,-1.121 -2.508,-2.506 v 0 -9.293 c 0,-1.387 1.123,-2.508 2.508,-2.508 v 0 h 9.794 c 1.385,0.002 2.504,1.123 2.508,2.508 v 0 9.293 h -0.002 c 0,1.385 -1.121,2.506 -2.506,2.508 v 0 z m -0.507,-11.799 -0.002,9.293 c 0.002,0.278 0.229,0.506 0.509,0.506 v 0 l 9.794,0.003 c 0.28,-0.003 0.507,-0.229 0.507,-0.509 v 0 -9.293 c 0,-0.282 -0.224,-0.506 -0.507,-0.506 v 0 l -9.794,-0.003 c -0.28,0.003 -0.507,0.227 -0.507,0.509 z"
   id="path184"
   style="fill:none;stroke:#ffffff;stroke-opacity:1;stroke-width:0.69771805;stroke-dasharray:none" />
</g><g
       id="g192"
       transform="matrix(0.57947367,0,0,0.55835944,-64.538973,-93.545648)"
       style="fill:none;stroke:#ffffff;stroke-opacity:1;stroke-width:0.69771805;stroke-dasharray:none">
	<path
   fill="#f4f4f4"
   d="m 237.068,261.772 c -0.76,0 -1.375,-0.617 -1.377,-1.376 v 0 l 0.002,-17.393 c 0,-0.761 0.621,-1.376 1.375,-1.378 v 0 l 18.336,0.002 c 0.754,0 1.375,0.611 1.375,1.376 v 0 17.393 c -0.002,0.763 -0.615,1.376 -1.375,1.376 v 0 z m 17.713,-1.999 v -16.146 h -17.09 v 16.145 z"
   id="path188"
   style="fill:none;stroke:#ffffff;stroke-opacity:1;stroke-width:0.69771805;stroke-dasharray:none" />
	<path
   fill="#f4f4f4"
   d="m 241.338,257.502 c -1.385,0 -2.506,-1.121 -2.506,-2.506 v 0 -9.293 c 0,-1.387 1.121,-2.508 2.506,-2.508 v 0 h 9.797 c 1.383,0 2.506,1.121 2.506,2.508 v 0 9.293 c -0.002,1.385 -1.123,2.506 -2.506,2.508 v 0 z m -0.506,-11.799 v 9.293 c 0,0.278 0.226,0.506 0.506,0.506 v 0 l 9.797,0.003 c 0.278,-0.003 0.505,-0.23 0.507,-0.509 v 0 h -0.002 l 0.002,-9.293 c -0.002,-0.282 -0.229,-0.506 -0.507,-0.506 v 0 l -9.797,-0.003 c -0.28,0.003 -0.506,0.227 -0.506,0.509 z"
   id="path190"
   style="fill:none;stroke:#ffffff;stroke-opacity:1;stroke-width:0.69771805;stroke-dasharray:none" />
</g><g
       id="g198"
       transform="matrix(0.57947367,0,0,0.55835944,-64.538973,-93.545648)"
       style="fill:none;stroke:#ffffff;stroke-opacity:1;stroke-width:0.69771805;stroke-dasharray:none">
	<path
   fill="#f4f4f4"
   d="m 257.018,261.771 c -0.761,0 -1.375,-0.61 -1.377,-1.373 v 0 -17.395 c 0.002,-0.763 0.623,-1.374 1.377,-1.376 v 0 h 18.336 c 0.756,0.002 1.375,0.613 1.375,1.376 v 0 17.395 c -0.002,0.761 -0.613,1.373 -1.375,1.373 v 0 z m 17.711,-1.999 0.002,-16.146 h -17.09 v 16.146 z"
   id="path194"
   style="fill:none;stroke:#ffffff;stroke-opacity:1;stroke-width:0.69771805;stroke-dasharray:none" />
	<path
   fill="#f4f4f4"
   d="m 261.29,257.502 c -1.387,0 -2.509,-1.121 -2.509,-2.506 v 0 -9.293 c 0,-1.387 1.124,-2.508 2.509,-2.508 v 0 h 9.794 c 1.385,0.002 2.504,1.123 2.506,2.508 v 0 9.293 c 0,1.385 -1.121,2.506 -2.506,2.508 v 0 z m -0.509,-11.799 v 9.293 c 0,0.278 0.228,0.506 0.509,0.506 v 0 l 9.794,0.003 c 0.28,-0.003 0.504,-0.229 0.507,-0.509 v 0 -9.293 c 0,-0.282 -0.227,-0.506 -0.507,-0.506 v 0 l -9.794,-0.003 c -0.283,0.003 -0.509,0.227 -0.509,0.509 z"
   id="path196"
   style="fill:none;stroke:#ffffff;stroke-opacity:1;stroke-width:0.69771805;stroke-dasharray:none" />
</g><g
       id="g204"
       transform="matrix(0.57947367,0,0,0.55835944,-64.538973,-93.545648)"
       style="fill:none;stroke:#ffffff;stroke-opacity:1;stroke-width:0.69771805;stroke-dasharray:none">
	<path
   fill="#f4f4f4"
   d="m 276.969,261.771 c -0.763,0 -1.375,-0.61 -1.377,-1.373 v 0 -17.395 c 0,-0.763 0.621,-1.374 1.377,-1.376 v 0 h 18.334 c 0.754,0.002 1.375,0.613 1.377,1.376 v 0 17.395 c -0.002,0.763 -0.617,1.373 -1.377,1.373 v 0 z m 17.711,-1.999 v -16.146 h -17.09 v 16.146 z"
   id="path200"
   style="fill:none;stroke:#ffffff;stroke-opacity:1;stroke-width:0.69771805;stroke-dasharray:none" />
	<path
   fill="#f4f4f4"
   d="m 281.238,257.502 c -1.387,0 -2.506,-1.121 -2.506,-2.506 v 0 -9.293 c 0,-1.385 1.122,-2.508 2.506,-2.508 v 0 h 9.795 c 1.385,0 2.508,1.121 2.508,2.508 v 0 9.293 c -0.002,1.385 -1.124,2.506 -2.508,2.508 v 0 z m -0.507,-11.799 v 9.293 c 0,0.28 0.226,0.506 0.506,0.506 v 0 l 9.795,0.003 c 0.28,-0.003 0.507,-0.23 0.509,-0.509 v 0 h -0.002 l 0.002,-9.293 c -0.002,-0.282 -0.227,-0.506 -0.509,-0.506 v 0 l -9.795,-0.003 c -0.279,0.003 -0.506,0.227 -0.506,0.509 z"
   id="path202"
   style="fill:none;stroke:#ffffff;stroke-opacity:1;stroke-width:0.69771805;stroke-dasharray:none" />
</g><g
       id="g210"
       transform="matrix(0.57947367,0,0,0.55835944,-64.538973,-93.545648)"
       style="fill:none;stroke:#ffffff;stroke-opacity:1;stroke-width:0.69771805;stroke-dasharray:none">
	<path
   fill="#f4f4f4"
   d="m 296.917,261.771 c -0.762,0 -1.375,-0.61 -1.377,-1.373 v 0 -17.395 c 0.002,-0.763 0.624,-1.374 1.377,-1.376 v 0 h 18.336 c 0.755,0.002 1.373,0.613 1.376,1.376 v 0 17.395 c -0.003,0.763 -0.615,1.373 -1.376,1.373 v 0 z m 17.711,-1.999 0.002,-16.146 h -17.089 v 16.146 z"
   id="path206"
   style="fill:none;stroke:#ffffff;stroke-opacity:1;stroke-width:0.69771805;stroke-dasharray:none" />
	<path
   fill="#f4f4f4"
   d="m 301.186,257.503 c -1.385,-0.002 -2.504,-1.121 -2.506,-2.506 v 0 l 0.002,-9.295 c 0,-1.385 1.122,-2.506 2.504,-2.506 v 0 h 9.797 c 1.385,0 2.506,1.121 2.506,2.506 v 0 9.295 c 0,1.383 -1.121,2.506 -2.506,2.506 v 0 z m -0.505,-11.801 -0.002,9.295 c 0.002,0.278 0.229,0.506 0.507,0.506 v 0 h 9.797 c 0.278,0 0.507,-0.228 0.507,-0.506 v 0 -9.295 c 0,-0.282 -0.227,-0.507 -0.507,-0.507 v 0 h -9.797 c -0.279,0 -0.505,0.227 -0.505,0.507 z"
   id="path208"
   style="fill:none;stroke:#ffffff;stroke-opacity:1;stroke-width:0.69771805;stroke-dasharray:none" />
</g><g
       id="g216"
       transform="matrix(0.57947367,0,0,0.55835944,-64.538973,-93.545648)"
       style="fill:none;stroke:#ffffff;stroke-opacity:1;stroke-width:0.69771805;stroke-dasharray:none">
	<path
   fill="#f4f4f4"
   d="m 316.866,261.772 c -0.763,0 -1.375,-0.613 -1.379,-1.376 v 0 l 0.002,-17.393 c 0,-0.765 0.621,-1.376 1.377,-1.378 v 0 l 18.335,0.002 c 0.754,0 1.375,0.611 1.377,1.376 v 0 17.393 h -0.002 c -0.002,0.763 -0.615,1.376 -1.375,1.376 v 0 z m 17.711,-1.999 v -16.146 h -17.088 l -0.002,16.145 z"
   id="path212"
   style="fill:none;stroke:#ffffff;stroke-opacity:1;stroke-width:0.69771805;stroke-dasharray:none" />
	<path
   fill="#f4f4f4"
   d="m 321.137,257.502 c -1.385,0 -2.508,-1.119 -2.51,-2.506 v 0 l 0.002,-9.293 c 0,-1.387 1.123,-2.508 2.508,-2.508 v 0 h 9.795 c 1.383,0 2.507,1.121 2.507,2.508 v 0 9.293 c -0.003,1.387 -1.124,2.506 -2.507,2.508 v 0 z m -0.509,-11.799 v 9.293 c 0,0.278 0.229,0.506 0.509,0.506 v 0 l 9.795,0.003 c 0.278,-0.003 0.507,-0.23 0.507,-0.509 v 0 -9.293 c 0,-0.28 -0.227,-0.506 -0.507,-0.506 v 0 l -9.795,-0.003 c -0.283,0.003 -0.509,0.229 -0.509,0.509 z"
   id="path214"
   style="fill:none;stroke:#ffffff;stroke-opacity:1;stroke-width:0.69771805;stroke-dasharray:none" />
</g><g
       id="g222"
       transform="matrix(0.57947367,0,0,0.55835944,-64.538973,-93.545648)"
       style="fill:none;stroke:#ffffff;stroke-opacity:1;stroke-width:0.69771805;stroke-dasharray:none">
	<path
   fill="#f4f4f4"
   d="m 336.815,261.772 c -0.759,0 -1.376,-0.613 -1.378,-1.376 v 0 -17.393 c 0.002,-0.765 0.625,-1.376 1.378,-1.378 v 0 l 18.336,0.002 c 0.754,0 1.373,0.615 1.375,1.376 v 0 17.393 c 0,0.759 -0.614,1.376 -1.375,1.376 v 0 z m 17.711,-1.999 v -16.146 h -17.088 l -0.002,16.145 z"
   id="path218"
   style="fill:none;stroke:#ffffff;stroke-opacity:1;stroke-width:0.69771805;stroke-dasharray:none" />
	<path
   fill="#f4f4f4"
   d="m 341.086,257.502 c -1.385,0 -2.507,-1.121 -2.509,-2.506 v 0 l 0.002,-9.293 c 0.002,-1.385 1.122,-2.506 2.507,-2.508 v 0 h 9.795 c 1.385,0 2.506,1.121 2.508,2.508 v 0 9.293 h -0.002 c 0,1.385 -1.121,2.506 -2.506,2.508 v 0 z m -0.507,-11.799 -0.002,9.293 c 0.002,0.28 0.227,0.506 0.509,0.506 v 0 l 9.795,0.003 c 0.277,-0.003 0.506,-0.23 0.509,-0.509 v 0 h -0.003 l 0.003,-9.293 c -0.003,-0.282 -0.229,-0.506 -0.509,-0.506 v 0 l -9.795,-0.003 c -0.282,0.003 -0.507,0.227 -0.507,0.509 z"
   id="path220"
   style="fill:none;stroke:#ffffff;stroke-opacity:1;stroke-width:0.69771805;stroke-dasharray:none" />
</g><g
       id="g228"
       transform="matrix(0.57947367,0,0,0.55835944,-64.538973,-93.545648)"
       style="fill:none;stroke:#ffffff;stroke-opacity:1;stroke-width:0.69771805;stroke-dasharray:none">
	<path
   fill="#f4f4f4"
   d="m 356.764,261.772 c -0.763,0 -1.376,-0.617 -1.376,-1.376 v 0 -17.393 c 0,-0.761 0.619,-1.376 1.376,-1.378 v 0 l 18.338,0.002 c 0.757,0 1.371,0.617 1.374,1.376 v 0 17.393 c -0.003,0.759 -0.611,1.373 -1.374,1.376 v 0 z m 17.711,-1.999 0.002,-16.146 h -17.088 l -0.002,16.145 z"
   id="path224"
   style="fill:none;stroke:#ffffff;stroke-opacity:1;stroke-width:0.69771805;stroke-dasharray:none" />
	<path
   fill="#f4f4f4"
   d="m 361.034,257.502 c -1.385,0 -2.506,-1.119 -2.508,-2.506 v 0 l 0.002,-9.293 c 0,-1.387 1.123,-2.508 2.506,-2.508 v 0 h 9.797 c 1.383,0 2.507,1.121 2.507,2.508 v 0 9.293 c 0,1.385 -1.122,2.506 -2.507,2.508 v 0 z m -0.507,-11.799 v 9.293 c 0,0.278 0.229,0.506 0.507,0.506 v 0 l 9.797,0.003 c 0.278,-0.003 0.505,-0.23 0.507,-0.509 v 0 h -0.002 l 0.002,-9.293 c -0.002,-0.282 -0.229,-0.506 -0.507,-0.506 v 0 l -9.797,-0.003 c -0.278,0.003 -0.507,0.229 -0.507,0.509 z"
   id="path226"
   style="fill:none;stroke:#ffffff;stroke-opacity:1;stroke-width:0.69771805;stroke-dasharray:none" />
</g><g
       id="g234"
       transform="matrix(0.57947367,0,0,0.55835944,-64.538973,-93.545648)"
       style="fill:none;stroke:#ffffff;stroke-opacity:1;stroke-width:0.69771805;stroke-dasharray:none">
	<path
   fill="#f4f4f4"
   d="m 376.619,261.772 c -0.764,0 -1.375,-0.616 -1.377,-1.375 v 0 l 0.002,-17.396 c 0,-0.759 0.62,-1.372 1.375,-1.375 v 0 h 18.337 c 0.753,0.003 1.375,0.61 1.377,1.375 v 0 17.396 h -0.002 c -0.004,0.765 -0.615,1.372 -1.375,1.375 v 0 z m 17.713,-1.999 v -16.147 h -17.089 v 16.147 z"
   id="path230"
   style="fill:none;stroke:#ffffff;stroke-opacity:1;stroke-width:0.69771805;stroke-dasharray:none" />
	<path
   fill="#f4f4f4"
   d="m 380.891,257.502 c -1.387,0 -2.508,-1.121 -2.508,-2.506 v 0 -9.293 c 0.002,-1.385 1.123,-2.505 2.508,-2.508 v 0 h 9.797 c 1.383,0 2.503,1.121 2.505,2.508 v 0 9.293 h -0.002 c 0,1.385 -1.12,2.506 -2.503,2.508 v 0 z m -0.507,-11.799 -0.002,9.293 c 0.002,0.279 0.227,0.506 0.509,0.506 v 0 l 9.797,0.002 c 0.276,-0.002 0.503,-0.229 0.505,-0.508 v 0 h -0.002 l 0.002,-9.293 c -0.002,-0.282 -0.229,-0.507 -0.505,-0.507 v 0 l -9.797,-0.002 c -0.283,0.002 -0.507,0.227 -0.507,0.509 z"
   id="path232"
   style="fill:none;stroke:#ffffff;stroke-opacity:1;stroke-width:0.69771805;stroke-dasharray:none" />
</g><g
       id="g240"
       transform="matrix(0.57947367,0,0,0.55835944,-64.538973,-93.545648)"
       style="fill:none;stroke:#ffffff;stroke-opacity:1;stroke-width:0.69771805;stroke-dasharray:none">
	<path
   fill="#f4f4f4"
   d="m 396.568,261.771 c -0.763,0 -1.376,-0.615 -1.376,-1.374 v 0 -17.396 c 0.002,-0.759 0.622,-1.374 1.376,-1.376 v 0 l 18.336,0.002 c 0.75,0 1.376,0.611 1.378,1.374 v 0 17.396 h -0.002 c 0,0.763 -0.617,1.374 -1.376,1.376 v 0 z m 17.712,-1.998 0.002,-16.146 -17.09,-0.002 v 16.146 z"
   id="path236"
   style="fill:none;stroke:#ffffff;stroke-opacity:1;stroke-width:0.69771805;stroke-dasharray:none" />
	<path
   fill="#f4f4f4"
   d="m 400.84,257.502 c -1.387,0 -2.508,-1.121 -2.508,-2.505 v 0 -9.295 c 0,-1.386 1.124,-2.508 2.508,-2.508 v 0 h 9.795 c 1.384,0 2.505,1.124 2.507,2.508 v 0 9.295 h -0.002 c 0,1.384 -1.119,2.505 -2.505,2.507 v 0 z m -0.507,-11.8 -0.002,9.295 c 0.002,0.277 0.229,0.506 0.509,0.506 v 0 h 9.795 c 0.279,0 0.506,-0.227 0.506,-0.506 v 0 -9.295 c 0,-0.281 -0.227,-0.506 -0.506,-0.506 v 0 h -9.795 c -0.281,0 -0.507,0.225 -0.507,0.506 z"
   id="path238"
   style="fill:none;stroke:#ffffff;stroke-opacity:1;stroke-width:0.69771805;stroke-dasharray:none" />
</g><g
       id="g246"
       transform="matrix(0.57947367,0,0,0.55835944,-64.538973,-93.545648)"
       style="fill:none;stroke:#ffffff;stroke-opacity:1;stroke-width:0.69771805;stroke-dasharray:none">
	<path
   fill="#f4f4f4"
   d="m 416.519,261.772 c -0.762,-0.002 -1.376,-0.612 -1.378,-1.375 v 0 -17.395 c 0.002,-0.763 0.623,-1.373 1.378,-1.376 v 0 h 18.335 c 0.755,0.003 1.375,0.613 1.377,1.376 v 0 17.395 h -0.002 c -0.002,0.761 -0.612,1.373 -1.375,1.375 v 0 z m 17.71,-2 0.002,-16.146 h -17.09 v 16.146 z"
   id="path242"
   style="fill:none;stroke:#ffffff;stroke-opacity:1;stroke-width:0.69771805;stroke-dasharray:none" />
	<path
   fill="#f4f4f4"
   d="m 420.788,257.502 c -1.386,0 -2.508,-1.12 -2.508,-2.505 v 0 -9.294 c 0,-1.386 1.124,-2.508 2.508,-2.508 v 0 h 9.795 c 1.385,0 2.507,1.122 2.51,2.508 v 0 9.294 h -0.003 c 0,1.385 -1.122,2.505 -2.507,2.507 v 0 z m -0.508,-11.799 v 9.294 c 0,0.277 0.228,0.505 0.508,0.505 v 0 l 9.795,0.003 c 0.28,-0.003 0.508,-0.23 0.508,-0.508 v 0 -9.294 c 0,-0.282 -0.226,-0.508 -0.508,-0.508 v 0 h -9.795 c -0.282,0 -0.508,0.226 -0.508,0.508 z"
   id="path244"
   style="fill:none;stroke:#ffffff;stroke-opacity:1;stroke-width:0.69771805;stroke-dasharray:none" />
</g><g
       id="g264"
       transform="matrix(0.57947367,0,0,0.55835944,-56.364498,-104.87173)"
       style="fill:none;stroke:#ffffff;stroke-opacity:1;stroke-width:0.69771805;stroke-dasharray:none">
	<path
   fill="#f4f4f4"
   d="m 142.203,281.816 c -0.76,-0.002 -1.376,-0.612 -1.379,-1.377 v 0 -17.394 c 0.002,-0.765 0.619,-1.375 1.379,-1.377 v 0 h 18.335 c 0.76,0.002 1.375,0.617 1.376,1.377 v 0 17.394 c -0.002,0.763 -0.616,1.375 -1.376,1.377 v 0 z m 17.71,-2 v -16.147 h -17.089 v 16.147 z"
   id="path260"
   style="fill:none;stroke:#ffffff;stroke-opacity:1;stroke-width:0.69771805;stroke-dasharray:none" />
	<path
   fill="#f4f4f4"
   d="m 146.471,277.545 c -1.384,-0.002 -2.504,-1.121 -2.506,-2.506 v 0 -9.292 c 0,-1.386 1.12,-2.51 2.506,-2.51 v 0 h 9.795 c 1.386,0 2.506,1.124 2.508,2.51 v 0 9.292 c 0,1.385 -1.124,2.506 -2.508,2.509 v 0 z m -0.506,-11.798 v 9.292 c 0,0.281 0.225,0.506 0.506,0.506 v 0 l 9.795,0.002 c 0.281,-0.002 0.508,-0.227 0.508,-0.508 v 0 -9.292 c 0,-0.283 -0.229,-0.51 -0.508,-0.51 v 0 h -9.795 c -0.28,0 -0.506,0.227 -0.506,0.51 z"
   id="path262"
   style="fill:none;stroke:#ffffff;stroke-opacity:1;stroke-width:0.69771805;stroke-dasharray:none" />
</g><g
       id="g270"
       transform="matrix(0.57947367,0,0,0.55835944,-64.538973,-93.545648)"
       style="fill:none;stroke:#ffffff;stroke-opacity:1;stroke-width:0.69771805;stroke-dasharray:none">
	<path
   fill="#f4f4f4"
   d="m 162.15,281.815 c -0.76,0 -1.375,-0.617 -1.376,-1.375 v 0 -17.394 c 0.002,-0.76 0.616,-1.377 1.376,-1.377 v 0 h 18.337 c 0.762,0.003 1.374,0.614 1.374,1.377 v 0 17.394 c 0,0.76 -0.612,1.372 -1.374,1.375 v 0 z m 17.713,-1.998 v -16.149 h -17.089 v 16.149 z"
   id="path266"
   style="fill:none;stroke:#ffffff;stroke-opacity:1;stroke-width:0.69771805;stroke-dasharray:none" />
	<path
   fill="#f4f4f4"
   d="m 166.421,277.546 c -1.384,0 -2.508,-1.121 -2.508,-2.506 v 0 -9.294 c 0.002,-1.386 1.122,-2.508 2.508,-2.508 v 0 h 9.797 c 1.384,0 2.504,1.122 2.504,2.508 v 0 9.294 c 0,1.385 -1.122,2.506 -2.504,2.506 v 0 z m -0.508,-11.8 v 9.294 c 0,0.279 0.227,0.506 0.508,0.506 v 0 h 9.797 c 0.277,0 0.504,-0.227 0.506,-0.506 v 0 -9.294 c -0.002,-0.28 -0.231,-0.508 -0.506,-0.51 v 0 h -9.797 c -0.279,0.002 -0.508,0.23 -0.508,0.51 z"
   id="path268"
   style="fill:none;stroke:#ffffff;stroke-opacity:1;stroke-width:0.69771805;stroke-dasharray:none" />
</g><g
       id="g276"
       transform="matrix(0.57947367,0,0,0.55835944,-64.538973,-93.545648)"
       style="fill:none;stroke:#ffffff;stroke-opacity:1;stroke-width:0.69771805;stroke-dasharray:none">
	<path
   fill="#f4f4f4"
   d="m 182.1,281.815 c -0.765,-0.003 -1.375,-0.615 -1.377,-1.375 v 0 -17.394 c 0.002,-0.763 0.612,-1.374 1.377,-1.377 v 0 h 18.335 c 0.762,0 1.376,0.617 1.378,1.377 v 0 17.394 h -0.002 c 0,0.758 -0.614,1.375 -1.376,1.375 v 0 z m 17.712,-1.998 v -16.149 h -17.087 l -0.002,16.149 z"
   id="path272"
   style="fill:none;stroke:#ffffff;stroke-opacity:1;stroke-width:0.69771805;stroke-dasharray:none" />
	<path
   fill="#f4f4f4"
   d="m 186.371,277.545 c -1.384,0 -2.508,-1.121 -2.508,-2.506 v 0 -9.292 c 0,-1.386 1.122,-2.508 2.508,-2.51 v 0 h 9.796 c 1.386,0 2.506,1.124 2.506,2.51 v 0 9.292 c -0.002,1.385 -1.122,2.504 -2.506,2.509 v 0 z m -0.508,-11.798 v 9.292 c 0,0.281 0.227,0.506 0.508,0.506 v 0 l 9.796,0.002 c 0.281,-0.002 0.506,-0.227 0.506,-0.508 v 0 -9.292 c 0,-0.283 -0.227,-0.51 -0.506,-0.51 v 0 h -9.796 c -0.279,0 -0.508,0.227 -0.508,0.51 z"
   id="path274"
   style="fill:none;stroke:#ffffff;stroke-opacity:1;stroke-width:0.69771805;stroke-dasharray:none" />
</g><g
       id="g282"
       transform="matrix(0.57947367,0,0,0.55835944,-64.538973,-93.545648)"
       style="fill:none;stroke:#ffffff;stroke-opacity:1;stroke-width:0.69771805;stroke-dasharray:none">
	<path
   fill="#f4f4f4"
   d="m 202.05,281.815 c -0.762,0 -1.376,-0.617 -1.378,-1.375 v 0 -17.394 c 0.002,-0.76 0.616,-1.377 1.378,-1.377 v 0 h 18.335 c 0.762,0.003 1.375,0.61 1.377,1.377 v 0 17.394 c -0.002,0.765 -0.615,1.372 -1.377,1.375 v 0 z m 17.713,-1.998 v -16.149 h -17.089 l -0.002,16.149 z"
   id="path278"
   style="fill:none;stroke:#ffffff;stroke-opacity:1;stroke-width:0.69771805;stroke-dasharray:none" />
	<path
   fill="#f4f4f4"
   d="m 206.32,277.545 c -1.384,0 -2.508,-1.121 -2.508,-2.506 v 0 -9.292 c 0.002,-1.386 1.122,-2.508 2.508,-2.51 v 0 h 9.795 c 1.386,0 2.506,1.124 2.506,2.51 v 0 9.292 c -0.002,1.385 -1.122,2.504 -2.506,2.509 v 0 z m -0.508,-11.798 v 9.292 c 0,0.281 0.227,0.506 0.508,0.506 v 0 l 9.795,0.002 c 0.281,-0.002 0.506,-0.227 0.506,-0.508 v 0 -9.292 c 0,-0.283 -0.227,-0.51 -0.506,-0.51 v 0 h -9.795 c -0.279,0 -0.508,0.227 -0.508,0.51 z"
   id="path280"
   style="fill:none;stroke:#ffffff;stroke-opacity:1;stroke-width:0.69771805;stroke-dasharray:none" />
</g><g
       id="g288"
       transform="matrix(0.57947367,0,0,0.55835944,-64.538973,-93.545648)"
       style="fill:none;stroke:#ffffff;stroke-opacity:1;stroke-width:0.69771805;stroke-dasharray:none">
	<path
   fill="#f4f4f4"
   d="m 222,281.815 c -0.762,0 -1.376,-0.615 -1.379,-1.375 v 0 l 0.002,-17.394 c 0,-0.763 0.614,-1.377 1.376,-1.377 v 0 h 18.335 c 0.762,0.003 1.375,0.614 1.376,1.377 v 0 17.394 c -0.002,0.76 -0.614,1.372 -1.376,1.375 v 0 z m 17.709,-1.998 0.002,-16.149 h -17.089 v 16.149 z"
   id="path284"
   style="fill:none;stroke:#ffffff;stroke-opacity:1;stroke-width:0.69771805;stroke-dasharray:none" />
	<path
   fill="#f4f4f4"
   d="m 226.269,277.545 c -1.384,0 -2.508,-1.121 -2.508,-2.506 v 0 -9.292 c 0.002,-1.386 1.122,-2.508 2.508,-2.51 v 0 h 9.795 c 1.386,0.002 2.506,1.124 2.506,2.51 v 0 9.292 c 0,1.385 -1.122,2.506 -2.506,2.509 v 0 z m -0.508,-11.798 v 9.292 c 0,0.281 0.227,0.506 0.508,0.506 v 0 l 9.795,0.002 c 0.279,-0.002 0.506,-0.227 0.506,-0.508 v 0 -9.292 c 0,-0.283 -0.229,-0.51 -0.506,-0.51 v 0 h -9.795 c -0.279,0 -0.508,0.227 -0.508,0.51 z"
   id="path286"
   style="fill:none;stroke:#ffffff;stroke-opacity:1;stroke-width:0.69771805;stroke-dasharray:none" />
</g><g
       id="g294"
       transform="matrix(0.57947367,0,0,0.55835944,-64.538973,-93.545648)"
       style="fill:none;stroke:#ffffff;stroke-opacity:1;stroke-width:0.69771805;stroke-dasharray:none">
	<path
   fill="#f4f4f4"
   d="m 241.948,281.815 c -0.762,0 -1.376,-0.615 -1.378,-1.375 v 0 l 0.002,-17.394 c 0,-0.763 0.614,-1.377 1.376,-1.377 v 0 h 18.335 c 0.765,0.003 1.375,0.614 1.377,1.377 v 0 17.394 c -0.002,0.76 -0.612,1.372 -1.377,1.375 v 0 z m 17.711,-1.998 0.002,-16.149 h -17.089 v 16.149 z"
   id="path290"
   style="fill:none;stroke:#ffffff;stroke-opacity:1;stroke-width:0.69771805;stroke-dasharray:none" />
	<path
   fill="#f4f4f4"
   d="m 246.217,277.546 c -1.384,0 -2.506,-1.124 -2.506,-2.506 v 0 -9.294 c 0,-1.384 1.12,-2.508 2.506,-2.508 v 0 h 9.798 c 1.384,0 2.504,1.122 2.506,2.508 v 0 9.294 c -0.002,1.385 -1.124,2.506 -2.506,2.506 v 0 z m -0.506,-11.8 v 9.294 c 0,0.281 0.227,0.506 0.505,0.506 v 0 h 9.798 c 0.279,0 0.504,-0.227 0.506,-0.506 v 0 -9.294 c -0.002,-0.28 -0.229,-0.508 -0.506,-0.51 v 0 h -9.798 c -0.276,0.002 -0.505,0.23 -0.505,0.51 z"
   id="path292"
   style="fill:none;stroke:#ffffff;stroke-opacity:1;stroke-width:0.69771805;stroke-dasharray:none" />
</g><g
       id="g300"
       transform="matrix(0.57947367,0,0,0.55835944,-64.538973,-93.545648)"
       style="fill:none;stroke:#ffffff;stroke-opacity:1;stroke-width:0.69771805;stroke-dasharray:none">
	<path
   fill="#f4f4f4"
   d="m 261.897,281.815 c -0.765,0 -1.375,-0.621 -1.376,-1.375 v 0 -17.394 c 0.002,-0.756 0.612,-1.377 1.376,-1.377 v 0 h 18.335 c 0.762,0 1.376,0.614 1.378,1.377 v 0 17.394 h -0.002 c 0,0.76 -0.614,1.375 -1.376,1.375 v 0 z m 17.712,-1.998 v -16.149 h -17.087 l -0.002,16.149 z"
   id="path296"
   style="fill:none;stroke:#ffffff;stroke-opacity:1;stroke-width:0.69771805;stroke-dasharray:none" />
	<path
   fill="#f4f4f4"
   d="m 266.167,277.545 c -1.384,0 -2.506,-1.121 -2.506,-2.506 v 0 -9.292 c 0,-1.386 1.12,-2.508 2.506,-2.51 v 0 h 9.796 c 1.386,0 2.506,1.124 2.506,2.51 v 0 9.292 c -0.002,1.385 -1.122,2.504 -2.506,2.509 v 0 z m -0.506,-11.798 v 9.292 c 0,0.281 0.227,0.506 0.506,0.506 v 0 l 9.796,0.002 c 0.281,-0.002 0.505,-0.227 0.505,-0.508 v 0 -9.292 c 0,-0.283 -0.227,-0.51 -0.505,-0.51 v 0 h -9.796 c -0.277,0 -0.506,0.227 -0.506,0.51 z"
   id="path298"
   style="fill:none;stroke:#ffffff;stroke-opacity:1;stroke-width:0.69771805;stroke-dasharray:none" />
</g><g
       id="g306"
       transform="matrix(0.57947367,0,0,0.55835944,-64.538973,-93.545648)"
       style="fill:none;stroke:#ffffff;stroke-opacity:1;stroke-width:0.69771805;stroke-dasharray:none">
	<path
   fill="#f4f4f4"
   d="m 281.847,281.816 c -0.762,-0.002 -1.375,-0.612 -1.378,-1.377 v 0 -17.394 c 0.004,-0.765 0.616,-1.375 1.378,-1.377 v 0 h 18.334 c 0.759,0.002 1.375,0.612 1.377,1.377 v 0 17.394 c -0.002,0.765 -0.618,1.375 -1.377,1.377 v 0 z m 17.713,-2 v -16.147 h -17.09 v 16.147 z"
   id="path302"
   style="fill:none;stroke:#ffffff;stroke-opacity:1;stroke-width:0.69771805;stroke-dasharray:none" />
	<path
   fill="#f4f4f4"
   d="m 286.116,277.545 c -1.382,0 -2.506,-1.119 -2.506,-2.506 v 0 -9.292 c 0,-1.388 1.122,-2.508 2.506,-2.51 v 0 h 9.798 c 1.384,0.002 2.504,1.124 2.506,2.51 v 0 9.292 c 0,1.385 -1.124,2.506 -2.506,2.509 v 0 z m -0.508,-11.798 v 9.292 c 0.002,0.279 0.227,0.506 0.508,0.506 v 0 l 9.798,0.002 c 0.279,-0.002 0.505,-0.227 0.505,-0.508 v 0 -9.292 c 0,-0.283 -0.229,-0.51 -0.505,-0.51 v 0 h -9.798 c -0.279,0 -0.506,0.23 -0.508,0.51 z"
   id="path304"
   style="fill:none;stroke:#ffffff;stroke-opacity:1;stroke-width:0.69771805;stroke-dasharray:none" />
</g><g
       id="g312"
       transform="matrix(0.57947367,0,0,0.55835944,-64.538973,-93.545648)"
       style="fill:none;stroke:#ffffff;stroke-opacity:1;stroke-width:0.69771805;stroke-dasharray:none">
	<path
   fill="#f4f4f4"
   d="m 301.796,281.816 c -0.76,-0.002 -1.376,-0.619 -1.379,-1.377 v 0 l 0.003,-17.394 c 0,-0.758 0.616,-1.375 1.376,-1.377 v 0 h 18.335 c 0.763,0 1.375,0.619 1.377,1.377 v 0 17.394 h -0.002 c 0,0.758 -0.612,1.377 -1.375,1.377 v 0 z m 17.71,-2 0.002,-16.147 h -17.089 l -0.002,16.147 z"
   id="path308"
   style="fill:none;stroke:#ffffff;stroke-opacity:1;stroke-width:0.69771805;stroke-dasharray:none" />
	<path
   fill="#f4f4f4"
   d="m 306.065,277.545 c -1.385,0 -2.507,-1.121 -2.507,-2.506 v 0 -9.292 c 0,-1.386 1.12,-2.51 2.507,-2.51 v 0 h 9.797 c 1.385,0.002 2.505,1.124 2.505,2.51 v 0 9.292 c 0,1.385 -1.122,2.506 -2.505,2.509 v 0 z m -0.507,-11.798 v 9.292 c 0,0.281 0.227,0.506 0.508,0.506 v 0 l 9.797,0.002 c 0.279,-0.002 0.506,-0.227 0.506,-0.508 v 0 -9.292 c 0,-0.283 -0.229,-0.51 -0.506,-0.51 v 0 h -9.797 c -0.28,0 -0.508,0.227 -0.508,0.51 z"
   id="path310"
   style="fill:none;stroke:#ffffff;stroke-opacity:1;stroke-width:0.69771805;stroke-dasharray:none" />
</g><g
       id="g318"
       transform="matrix(0.57947367,0,0,0.55835944,-64.538973,-93.545648)"
       style="fill:none;stroke:#ffffff;stroke-opacity:1;stroke-width:0.69771805;stroke-dasharray:none">
	<path
   fill="#f4f4f4"
   d="m 321.745,281.816 c -0.761,-0.002 -1.377,-0.619 -1.379,-1.377 v 0 l 0.002,-17.394 c 0,-0.758 0.616,-1.375 1.377,-1.377 v 0 h 18.335 c 0.765,0.002 1.374,0.617 1.376,1.377 v 0 17.394 c -0.002,0.763 -0.611,1.375 -1.376,1.377 v 0 z m 17.71,-2 0.002,-16.147 h -17.089 v 16.147 z"
   id="path314"
   style="fill:none;stroke:#ffffff;stroke-opacity:1;stroke-width:0.69771805;stroke-dasharray:none" />
	<path
   fill="#f4f4f4"
   d="m 326.015,277.545 c -1.385,-0.002 -2.505,-1.121 -2.507,-2.506 v 0 -9.292 c 0,-1.386 1.12,-2.51 2.507,-2.51 v 0 h 9.795 c 1.387,0 2.509,1.124 2.509,2.51 v 0 9.292 c 0,1.385 -1.124,2.506 -2.509,2.509 v 0 z m -0.509,-11.798 v 9.292 c 0.003,0.281 0.228,0.506 0.509,0.506 v 0 l 9.795,0.002 c 0.281,-0.002 0.508,-0.227 0.508,-0.508 v 0 -9.292 c 0,-0.283 -0.229,-0.51 -0.508,-0.51 v 0 h -9.795 c -0.28,0 -0.506,0.227 -0.509,0.51 z"
   id="path316"
   style="fill:none;stroke:#ffffff;stroke-opacity:1;stroke-width:0.69771805;stroke-dasharray:none" />
</g><g
       id="g324"
       transform="matrix(0.57947367,0,0,0.55835944,-64.538973,-93.545648)"
       style="fill:none;stroke:#ffffff;stroke-opacity:1;stroke-width:0.69771805;stroke-dasharray:none">
	<path
   fill="#f4f4f4"
   d="m 341.693,281.815 c -0.761,0 -1.375,-0.615 -1.377,-1.375 v 0 -17.394 c 0.002,-0.763 0.616,-1.377 1.377,-1.377 v 0 h 18.337 c 0.76,0 1.374,0.614 1.376,1.377 v 0 17.394 c -0.002,0.76 -0.616,1.375 -1.376,1.375 v 0 z m 17.712,-1.998 0.002,-16.149 h -17.09 l -0.002,16.149 z"
   id="path320"
   style="fill:none;stroke:#ffffff;stroke-opacity:1;stroke-width:0.69771805;stroke-dasharray:none" />
	<path
   fill="#f4f4f4"
   d="m 345.963,277.545 c -1.384,0 -2.504,-1.119 -2.506,-2.506 v 0 -9.292 c 0.002,-1.386 1.12,-2.508 2.506,-2.51 v 0 h 9.796 c 1.387,0 2.508,1.122 2.508,2.51 v 0 9.292 c 0,1.387 -1.124,2.506 -2.508,2.509 v 0 z m -0.506,-11.798 v 9.292 c 0,0.279 0.229,0.506 0.506,0.506 v 0 l 9.796,0.002 c 0.281,-0.002 0.508,-0.229 0.51,-0.508 v 0 -9.292 c -0.002,-0.28 -0.23,-0.51 -0.51,-0.51 v 0 h -9.796 c -0.275,0 -0.506,0.227 -0.506,0.51 z"
   id="path322"
   style="fill:none;stroke:#ffffff;stroke-opacity:1;stroke-width:0.69771805;stroke-dasharray:none" />
</g><g
       id="g330"
       transform="matrix(0.57947367,0,0,0.55835944,-64.538973,-93.545648)"
       style="fill:none;stroke:#ffffff;stroke-opacity:1;stroke-width:0.69771805;stroke-dasharray:none">
	<path
   fill="#f4f4f4"
   d="m 361.548,281.815 c -0.764,0 -1.374,-0.619 -1.376,-1.375 v 0 l 0.002,-17.394 c 0,-0.758 0.61,-1.377 1.374,-1.377 v 0 h 18.337 c 0.759,0 1.375,0.61 1.377,1.377 v 0 17.394 c -0.002,0.765 -0.618,1.375 -1.377,1.375 v 0 z m 17.713,-1.998 0.002,-16.149 h -17.09 v 16.149 z"
   id="path326"
   style="fill:none;stroke:#ffffff;stroke-opacity:1;stroke-width:0.69771805;stroke-dasharray:none" />
	<path
   fill="#f4f4f4"
   d="m 365.82,277.545 c -1.384,0 -2.508,-1.119 -2.508,-2.506 v 0 -9.292 c 0,-1.388 1.122,-2.508 2.508,-2.51 v 0 h 9.796 c 1.385,0 2.504,1.124 2.504,2.51 v 0 9.292 c 0,1.385 -1.119,2.506 -2.504,2.509 v 0 z m -0.509,-11.798 v 9.292 c 0.002,0.279 0.228,0.506 0.51,0.506 v 0 l 9.796,0.002 c 0.279,-0.002 0.504,-0.227 0.506,-0.508 v 0 -9.292 c -0.002,-0.283 -0.229,-0.51 -0.506,-0.51 v 0 h -9.796 c -0.281,0 -0.508,0.23 -0.51,0.51 z"
   id="path328"
   style="fill:none;stroke:#ffffff;stroke-opacity:1;stroke-width:0.69771805;stroke-dasharray:none" />
</g><g
       id="g336"
       transform="matrix(0.57947367,0,0,0.55835944,-64.538973,-93.545648)"
       style="fill:none;stroke:#ffffff;stroke-opacity:1;stroke-width:0.69771805;stroke-dasharray:none">
	<path
   fill="#f4f4f4"
   d="m 381.498,281.816 c -0.762,0 -1.374,-0.619 -1.377,-1.377 v 0 -17.394 c 0.003,-0.758 0.615,-1.377 1.377,-1.377 v 0 h 18.335 c 0.76,0 1.377,0.614 1.379,1.377 v 0 17.394 h -0.002 c 0,0.763 -0.617,1.377 -1.377,1.377 v 0 z m 17.712,-2 v -16.147 h -17.087 l -0.002,16.147 z"
   id="path332"
   style="fill:none;stroke:#ffffff;stroke-opacity:1;stroke-width:0.69771805;stroke-dasharray:none" />
	<path
   fill="#f4f4f4"
   d="m 385.77,277.545 c -1.386,-0.002 -2.506,-1.121 -2.508,-2.506 v 0 -9.292 c 0,-1.386 1.12,-2.51 2.508,-2.51 v 0 h 9.796 c 1.387,0.002 2.506,1.124 2.506,2.51 v 0 9.292 c 0,1.385 -1.122,2.506 -2.506,2.509 v 0 z m -0.508,-11.798 v 9.292 c 0,0.281 0.225,0.506 0.508,0.506 v 0 l 9.796,0.002 c 0.279,-0.002 0.506,-0.227 0.506,-0.508 v 0 -9.292 c 0,-0.283 -0.229,-0.51 -0.506,-0.51 v 0 h -9.796 c -0.281,0 -0.508,0.227 -0.508,0.51 z"
   id="path334"
   style="fill:none;stroke:#ffffff;stroke-opacity:1;stroke-width:0.69771805;stroke-dasharray:none" />
</g><g
       id="g348"
       transform="matrix(0.43148691,0,0,0.55835944,-13.73809,-93.545648)"
       style="fill:none;stroke:#ffffff;stroke-opacity:1;stroke-width:0.80856139;stroke-dasharray:none">
	<path
   fill="#f4f4f4"
   d="m 421.396,281.817 c -0.762,-0.003 -1.375,-0.617 -1.378,-1.378 v 0 l 0.003,-17.394 c 0,-0.761 0.613,-1.375 1.375,-1.377 v 0 h 37.173 c 0.761,0.002 1.375,0.611 1.38,1.377 v 0 17.394 h -0.003 c -0.002,0.766 -0.616,1.375 -1.377,1.378 v 0 z m 36.551,-2 V 263.67 l -35.927,-0.002 -0.002,16.147 z"
   id="path344"
   style="fill:none;stroke:#ffffff;stroke-opacity:1;stroke-width:0.80856139;stroke-dasharray:none" />
	<path
   fill="#f4f4f4"
   d="m 425.667,277.547 c -1.383,0 -2.506,-1.121 -2.506,-2.507 v 0 -9.293 c 0,-1.387 1.121,-2.508 2.506,-2.51 v 0 H 454.3 c 1.386,0 2.507,1.123 2.507,2.51 v 0 9.293 c 0,1.383 -1.124,2.507 -2.507,2.507 v 0 z m -0.507,-11.8 v 9.293 c 0,0.279 0.228,0.505 0.507,0.505 v 0 H 454.3 c 0.281,0 0.508,-0.226 0.508,-0.505 v 0 -9.293 c 0,-0.282 -0.229,-0.509 -0.508,-0.511 v 0 h -28.633 c -0.276,0.002 -0.507,0.231 -0.507,0.511 z"
   id="path346"
   style="fill:none;stroke:#ffffff;stroke-opacity:1;stroke-width:0.80856139;stroke-dasharray:none" />
</g><g
       id="g360"
       transform="matrix(0.56123488,0,0,0.55835944,-53.496396,-93.545648)"
       style="fill:none;stroke:#ffffff;stroke-opacity:1;stroke-width:0.70896449;stroke-dasharray:none">
	<path
   fill="#f4f4f4"
   d="m 211.335,321.902 c -0.762,0 -1.375,-0.617 -1.377,-1.375 v 0 -17.394 c 0.002,-0.76 0.615,-1.377 1.377,-1.379 v 0 l 159.243,0.002 c 0.762,0 1.375,0.617 1.377,1.377 v 0 17.394 c -0.002,0.758 -0.615,1.375 -1.377,1.377 v 0 z m 158.62,-1.999 v -16.146 l -157.996,-0.002 v 16.148 z"
   id="path356"
   style="fill:none;stroke:#ffffff;stroke-opacity:1;stroke-width:0.70896449;stroke-dasharray:none" />
	<path
   fill="#f4f4f4"
   d="m 215.605,317.633 c -1.385,0 -2.506,-1.121 -2.506,-2.508 v 0 -9.292 c 0,-1.385 1.121,-2.506 2.506,-2.508 v 0 l 150.703,0.002 c 1.384,0 2.505,1.121 2.505,2.506 v 0 9.292 c 0,1.387 -1.121,2.508 -2.505,2.508 v 0 z m -0.506,-11.8 v 9.292 c 0,0.28 0.228,0.509 0.506,0.509 v 0 h 150.703 c 0.277,0 0.506,-0.229 0.508,-0.509 v 0 -9.292 c -0.002,-0.278 -0.23,-0.507 -0.508,-0.507 v 0 H 215.605 c -0.278,0 -0.506,0.229 -0.506,0.507 z"
   id="path358"
   style="fill:none;stroke:#ffffff;stroke-opacity:1;stroke-width:0.70896449;stroke-dasharray:none" />
</g><g
       id="g366"
       transform="matrix(0.57947367,0,0,0.55835944,-64.538973,-93.545648)"
       style="fill:none;stroke:#ffffff;stroke-opacity:1;stroke-width:0.69771805;stroke-dasharray:none">
	<path
   fill="#f4f4f4"
   d="m 162.152,301.859 c -0.76,-0.002 -1.377,-0.618 -1.377,-1.376 v 0 -17.393 c 0,-0.76 0.62,-1.376 1.377,-1.376 v 0 h 28.128 c 0.756,0 1.378,0.611 1.378,1.376 v 0 17.394 c 0,0.762 -0.62,1.374 -1.378,1.376 v 0 h -28.128 z m 27.506,-2 v -16.147 h -26.884 v 16.147 z"
   id="path362"
   style="fill:none;stroke:#ffffff;stroke-opacity:1;stroke-width:0.69771805;stroke-dasharray:none" />
	<path
   fill="#f4f4f4"
   d="m 166.419,297.589 c -1.383,0 -2.506,-1.12 -2.506,-2.506 v 0 -9.293 c 0,-1.388 1.123,-2.508 2.506,-2.508 v 0 h 19.593 c 1.385,0 2.506,1.122 2.506,2.508 v 0 9.293 c 0,1.384 -1.121,2.506 -2.506,2.508 v 0 z m -0.506,-11.799 v 9.293 c 0,0.28 0.228,0.507 0.507,0.507 v 0 h 19.593 c 0.279,0 0.507,-0.227 0.507,-0.507 v 0 -9.293 c 0,-0.28 -0.228,-0.507 -0.507,-0.507 v 0 L 166.42,285.28 c -0.28,0.003 -0.507,0.23 -0.507,0.51 z"
   id="path364"
   style="fill:none;stroke:#ffffff;stroke-opacity:1;stroke-width:0.69771805;stroke-dasharray:none" />
</g><g
       id="g372"
       transform="matrix(0.57947367,0,0,0.55835944,-64.538973,-93.545648)"
       style="fill:none;stroke:#ffffff;stroke-opacity:1;stroke-width:0.69771805;stroke-dasharray:none">
	<path
   fill="#f4f4f4"
   d="m 191.896,301.859 c -0.758,-0.002 -1.375,-0.618 -1.377,-1.376 v 0 -17.393 c 0.002,-0.76 0.62,-1.376 1.377,-1.376 v 0 h 18.335 c 0.76,0.002 1.374,0.609 1.376,1.376 v 0 17.394 c -0.002,0.762 -0.616,1.374 -1.376,1.376 v 0 h -18.335 z m 17.711,-2 v -16.147 h -17.089 v 16.147 z"
   id="path368"
   style="fill:none;stroke:#ffffff;stroke-opacity:1;stroke-width:0.69771805;stroke-dasharray:none" />
	<path
   fill="#f4f4f4"
   d="m 196.165,297.589 c -1.383,0 -2.506,-1.12 -2.508,-2.506 v 0 -9.293 c 0.002,-1.388 1.125,-2.508 2.508,-2.508 v 0 h 9.796 c 1.385,0 2.506,1.122 2.506,2.508 v 0 9.293 c 0,1.384 -1.121,2.506 -2.506,2.508 v 0 z m -0.507,-11.799 v 9.293 c 0,0.28 0.228,0.507 0.507,0.507 v 0 h 9.796 c 0.28,0 0.507,-0.227 0.507,-0.507 v 0 -9.293 c 0,-0.28 -0.227,-0.507 -0.507,-0.507 v 0 l -9.796,-0.003 c -0.279,0.003 -0.507,0.23 -0.507,0.51 z"
   id="path370"
   style="fill:none;stroke:#ffffff;stroke-opacity:1;stroke-width:0.69771805;stroke-dasharray:none" />
</g><g
       id="g378"
       transform="matrix(0.57947367,0,0,0.55835944,-64.538973,-93.545648)"
       style="fill:none;stroke:#ffffff;stroke-opacity:1;stroke-width:0.69771805;stroke-dasharray:none">
	<path
   fill="#f4f4f4"
   d="m 211.846,301.858 c -0.76,0 -1.377,-0.614 -1.377,-1.376 v 0 -17.394 c 0,-0.762 0.62,-1.374 1.377,-1.376 v 0 h 18.333 c 0.758,0.002 1.375,0.614 1.378,1.376 v 0 17.394 c -0.002,0.762 -0.62,1.376 -1.378,1.378 v 0 z m 17.712,-1.998 v -16.147 h -17.089 v 16.146 z"
   id="path374"
   style="fill:none;stroke:#ffffff;stroke-opacity:1;stroke-width:0.69771805;stroke-dasharray:none" />
	<path
   fill="#f4f4f4"
   d="m 216.115,297.589 c -1.386,0 -2.506,-1.122 -2.506,-2.506 v 0 -9.293 c 0,-1.386 1.121,-2.508 2.506,-2.508 v 0 h 9.796 c 1.386,0 2.506,1.122 2.506,2.508 v 0 9.293 c 0,1.384 -1.12,2.506 -2.506,2.508 v 0 z m -0.508,-11.799 v 9.293 c 0.002,0.28 0.228,0.507 0.507,0.507 v 0 h 9.796 c 0.28,0 0.505,-0.227 0.507,-0.507 v 0 -9.293 c -0.002,-0.28 -0.228,-0.507 -0.507,-0.507 v 0 l -9.796,-0.003 c -0.279,0.003 -0.505,0.23 -0.507,0.51 z"
   id="path376"
   style="fill:none;stroke:#ffffff;stroke-opacity:1;stroke-width:0.69771805;stroke-dasharray:none" />
</g><g
       id="g384"
       transform="matrix(0.57947367,0,0,0.55835944,-64.538973,-93.545648)"
       style="fill:none;stroke:#ffffff;stroke-opacity:1;stroke-width:0.69771805;stroke-dasharray:none">
	<path
   fill="#f4f4f4"
   d="m 231.794,301.859 c -0.76,-0.002 -1.376,-0.62 -1.378,-1.376 v 0 l 0.002,-17.394 c 0,-0.76 0.616,-1.376 1.376,-1.376 v 0 h 18.335 c 0.758,0 1.375,0.611 1.375,1.376 v 0 17.394 c 0,0.76 -0.618,1.374 -1.375,1.376 v 0 z m 17.712,-2 v -16.147 h -17.087 l -0.002,16.147 z"
   id="path380"
   style="fill:none;stroke:#ffffff;stroke-opacity:1;stroke-width:0.69771805;stroke-dasharray:none" />
	<path
   fill="#f4f4f4"
   d="m 236.064,297.589 c -1.386,0 -2.506,-1.122 -2.506,-2.506 v 0 -9.293 c 0,-1.386 1.12,-2.508 2.506,-2.508 v 0 h 9.796 c 1.386,0 2.506,1.122 2.506,2.508 v 0 9.293 c 0,1.384 -1.121,2.506 -2.506,2.508 v 0 z m -0.507,-11.799 v 9.293 c 0.002,0.28 0.228,0.507 0.507,0.507 v 0 h 9.796 c 0.278,0 0.505,-0.227 0.505,-0.507 v 0 -9.293 c 0,-0.28 -0.228,-0.507 -0.505,-0.507 v 0 l -9.796,-0.003 c -0.28,0.003 -0.505,0.23 -0.507,0.51 z"
   id="path382"
   style="fill:none;stroke:#ffffff;stroke-opacity:1;stroke-width:0.69771805;stroke-dasharray:none" />
</g><g
       id="g390"
       transform="matrix(0.57947367,0,0,0.55835944,-64.538973,-93.545648)"
       style="fill:none;stroke:#ffffff;stroke-opacity:1;stroke-width:0.69771805;stroke-dasharray:none">
	<path
   fill="#f4f4f4"
   d="m 251.744,301.859 c -0.76,0 -1.376,-0.616 -1.378,-1.376 v 0 l 0.002,-17.394 c 0,-0.765 0.616,-1.376 1.376,-1.376 v 0 h 18.335 c 0.755,0 1.375,0.607 1.377,1.376 v 0 17.394 c -0.002,0.765 -0.622,1.374 -1.377,1.376 v 0 z m 17.713,-2 v -16.147 h -17.089 l -0.002,16.147 z"
   id="path386"
   style="fill:none;stroke:#ffffff;stroke-opacity:1;stroke-width:0.69771805;stroke-dasharray:none" />
	<path
   fill="#f4f4f4"
   d="m 256.015,297.589 c -1.388,0 -2.508,-1.122 -2.508,-2.506 v 0 -9.293 c 0,-1.386 1.12,-2.508 2.508,-2.508 v 0 h 9.794 c 1.385,0 2.506,1.122 2.506,2.508 v 0 9.293 c 0,1.384 -1.121,2.506 -2.506,2.508 v 0 z m -0.509,-11.799 v 9.293 c 0,0.28 0.227,0.507 0.509,0.507 v 0 h 9.794 c 0.279,0 0.505,-0.227 0.507,-0.507 v 0 -9.293 c -0.002,-0.28 -0.228,-0.507 -0.507,-0.507 v 0 l -9.794,-0.003 c -0.282,0.003 -0.509,0.23 -0.509,0.51 z"
   id="path388"
   style="fill:none;stroke:#ffffff;stroke-opacity:1;stroke-width:0.69771805;stroke-dasharray:none" />
</g><g
       id="g396"
       transform="matrix(0.57947367,0,0,0.55835944,-64.538973,-93.545648)"
       style="fill:none;stroke:#ffffff;stroke-opacity:1;stroke-width:0.69771805;stroke-dasharray:none">
	<path
   fill="#f4f4f4"
   d="m 271.694,301.858 c -0.76,0 -1.376,-0.618 -1.378,-1.376 v 0 -17.394 c 0.002,-0.76 0.62,-1.374 1.378,-1.376 v 0 h 18.335 c 0.755,0.002 1.374,0.616 1.375,1.376 v 0 17.394 c -0.002,0.758 -0.618,1.376 -1.375,1.378 v 0 z m 17.711,-1.998 v -16.147 h -17.089 v 16.146 z"
   id="path392"
   style="fill:none;stroke:#ffffff;stroke-opacity:1;stroke-width:0.69771805;stroke-dasharray:none" />
	<path
   fill="#f4f4f4"
   d="m 275.962,297.589 c -1.385,0 -2.506,-1.122 -2.506,-2.506 v 0 -9.293 c 0,-1.386 1.121,-2.508 2.506,-2.508 v 0 h 9.796 c 1.385,0 2.506,1.122 2.506,2.508 v 0 9.293 c 0,1.384 -1.121,2.506 -2.506,2.508 v 0 z m -0.506,-11.799 v 9.293 c 0,0.28 0.227,0.507 0.507,0.507 v 0 h 9.796 c 0.279,0 0.505,-0.227 0.507,-0.507 v 0 -9.293 c -0.002,-0.28 -0.228,-0.507 -0.507,-0.507 v 0 l -9.796,-0.003 c -0.28,0.003 -0.507,0.23 -0.507,0.51 z"
   id="path394"
   style="fill:none;stroke:#ffffff;stroke-opacity:1;stroke-width:0.69771805;stroke-dasharray:none" />
</g><g
       id="g402"
       transform="matrix(0.57947367,0,0,0.55835944,-64.538973,-93.545648)"
       style="fill:none;stroke:#ffffff;stroke-opacity:1;stroke-width:0.69771805;stroke-dasharray:none">
	<path
   fill="#f4f4f4"
   d="m 291.642,301.859 c -0.76,-0.002 -1.374,-0.62 -1.375,-1.376 v 0 -17.393 c 0.002,-0.76 0.618,-1.376 1.375,-1.376 v 0 h 18.338 c 0.757,0 1.373,0.616 1.375,1.376 v 0 17.394 h -0.002 c 0,0.756 -0.616,1.374 -1.373,1.376 v 0 h -18.338 z m 17.711,-2 0.002,-16.147 h -17.088 v 16.147 z"
   id="path398"
   style="fill:none;stroke:#ffffff;stroke-opacity:1;stroke-width:0.69771805;stroke-dasharray:none" />
	<path
   fill="#f4f4f4"
   d="m 295.914,297.589 c -1.386,0 -2.508,-1.12 -2.508,-2.506 v 0 -9.293 c 0,-1.388 1.123,-2.508 2.508,-2.508 v 0 h 9.794 c 1.383,0 2.506,1.12 2.506,2.508 v 0 9.293 c 0,1.386 -1.123,2.506 -2.506,2.508 v 0 z m -0.509,-11.799 v 9.293 c 0,0.28 0.228,0.507 0.509,0.507 v 0 h 9.794 c 0.279,0 0.507,-0.227 0.507,-0.507 v 0 -9.293 c 0,-0.28 -0.228,-0.507 -0.507,-0.507 v 0 l -9.794,-0.003 c -0.282,0.003 -0.509,0.23 -0.509,0.51 z"
   id="path400"
   style="fill:none;stroke:#ffffff;stroke-opacity:1;stroke-width:0.69771805;stroke-dasharray:none" />
</g><g
       id="g408"
       transform="matrix(0.57947367,0,0,0.55835944,-64.538973,-93.545648)"
       style="fill:none;stroke:#ffffff;stroke-opacity:1;stroke-width:0.69771805;stroke-dasharray:none">
	<path
   fill="#f4f4f4"
   d="m 311.592,301.858 c -0.758,0 -1.378,-0.614 -1.38,-1.376 v 0 l 0.002,-17.394 c 0,-0.762 0.62,-1.374 1.378,-1.376 v 0 h 18.335 c 0.756,0 1.374,0.609 1.378,1.376 v 0 17.394 h -0.002 c 0,0.765 -0.62,1.376 -1.376,1.378 v 0 z m 17.711,-1.998 0.002,-16.147 h -17.091 l -0.002,16.146 z"
   id="path404"
   style="fill:none;stroke:#ffffff;stroke-opacity:1;stroke-width:0.69771805;stroke-dasharray:none" />
	<path
   fill="#f4f4f4"
   d="m 315.86,297.589 c -1.383,0 -2.506,-1.12 -2.506,-2.506 v 0 -9.293 c 0,-1.388 1.123,-2.508 2.506,-2.508 v 0 h 9.797 c 1.386,0 2.506,1.122 2.506,2.508 v 0 9.293 c 0,1.384 -1.12,2.506 -2.506,2.508 v 0 z m -0.506,-11.799 v 9.293 c 0,0.28 0.228,0.507 0.507,0.507 v 0 h 9.797 c 0.279,0 0.507,-0.227 0.507,-0.507 v 0 -9.293 c 0,-0.28 -0.228,-0.507 -0.507,-0.507 v 0 l -9.797,-0.003 c -0.28,0.003 -0.507,0.23 -0.507,0.51 z"
   id="path406"
   style="fill:none;stroke:#ffffff;stroke-opacity:1;stroke-width:0.69771805;stroke-dasharray:none" />
</g><g
       id="g414"
       transform="matrix(0.57947367,0,0,0.55835944,-64.538973,-93.545648)"
       style="fill:none;stroke:#ffffff;stroke-opacity:1;stroke-width:0.69771805;stroke-dasharray:none">
	<path
   fill="#f4f4f4"
   d="m 331.541,301.858 c -0.76,0 -1.376,-0.614 -1.378,-1.376 v 0 -17.394 c 0,-0.762 0.62,-1.374 1.378,-1.376 v 0 h 18.335 c 0.756,0.002 1.374,0.616 1.376,1.376 v 0 17.394 c -0.002,0.758 -0.618,1.376 -1.376,1.378 v 0 z m 17.711,-1.998 v -16.147 h -17.089 v 16.146 z"
   id="path410"
   style="fill:none;stroke:#ffffff;stroke-opacity:1;stroke-width:0.69771805;stroke-dasharray:none" />
	<path
   fill="#f4f4f4"
   d="m 335.811,297.589 c -1.386,0 -2.506,-1.12 -2.506,-2.506 v 0 -9.293 c 0,-1.388 1.12,-2.506 2.506,-2.508 v 0 h 9.796 c 1.384,0 2.506,1.122 2.506,2.508 v 0 9.293 c 0,1.384 -1.122,2.506 -2.506,2.508 v 0 z m -0.508,-11.799 v 9.293 c 0,0.28 0.229,0.507 0.508,0.507 v 0 h 9.796 c 0.279,0 0.505,-0.227 0.507,-0.507 v 0 -9.293 c -0.002,-0.28 -0.228,-0.507 -0.507,-0.507 v 0 l -9.796,-0.003 c -0.279,0.003 -0.508,0.23 -0.508,0.51 z"
   id="path412"
   style="fill:none;stroke:#ffffff;stroke-opacity:1;stroke-width:0.69771805;stroke-dasharray:none" />
</g><g
       id="g420"
       transform="matrix(0.57947367,0,0,0.55835944,-64.538973,-93.545648)"
       style="fill:none;stroke:#ffffff;stroke-opacity:1;stroke-width:0.69771805;stroke-dasharray:none">
	<path
   fill="#f4f4f4"
   d="m 351.489,301.859 c -0.761,-0.002 -1.374,-0.62 -1.376,-1.376 v 0 -17.393 c 0.002,-0.76 0.615,-1.376 1.376,-1.376 v 0 h 18.337 c 0.756,0 1.374,0.616 1.376,1.376 v 0 17.394 c -0.002,0.758 -0.618,1.374 -1.376,1.376 v 0 h -18.337 z m 17.713,-2 v -16.147 h -17.089 v 16.147 z"
   id="path416"
   style="fill:none;stroke:#ffffff;stroke-opacity:1;stroke-width:0.69771805;stroke-dasharray:none" />
	<path
   fill="#f4f4f4"
   d="m 355.759,297.59 c -1.386,0 -2.502,-1.124 -2.504,-2.508 v 0 -9.293 c 0,-1.384 1.118,-2.506 2.504,-2.506 v 0 h 9.798 c 1.384,0 2.504,1.12 2.506,2.506 v 0 9.293 c -0.002,1.386 -1.122,2.506 -2.506,2.508 v 0 z m -0.505,-11.801 v 9.293 c 0,0.282 0.227,0.507 0.505,0.509 v 0 h 9.798 c 0.277,-0.002 0.505,-0.229 0.507,-0.509 v 0 -9.293 c -0.002,-0.277 -0.229,-0.507 -0.507,-0.507 v 0 h -9.798 c -0.279,0 -0.505,0.227 -0.505,0.507 z"
   id="path418"
   style="fill:none;stroke:#ffffff;stroke-opacity:1;stroke-width:0.69771805;stroke-dasharray:none" />
</g><g
       id="g426"
       transform="matrix(0.57947367,0,0,0.55835944,-64.538973,-93.545648)"
       style="fill:none;stroke:#ffffff;stroke-opacity:1;stroke-width:0.69771805;stroke-dasharray:none">
	<path
   fill="#f4f4f4"
   d="m 371.346,301.859 c -0.76,-0.002 -1.377,-0.616 -1.377,-1.376 v 0 -17.393 c 0,-0.765 0.619,-1.376 1.377,-1.376 v 0 h 18.336 c 0.758,0 1.373,0.616 1.376,1.376 v 0 17.394 h -0.003 c 0,0.756 -0.615,1.374 -1.373,1.376 v 0 h -18.336 z m 17.71,-2 0.002,-16.147 h -17.09 v 16.147 z"
   id="path422"
   style="fill:none;stroke:#ffffff;stroke-opacity:1;stroke-width:0.69771805;stroke-dasharray:none" />
	<path
   fill="#f4f4f4"
   d="m 375.615,297.589 c -1.386,0 -2.506,-1.122 -2.506,-2.506 v 0 -9.293 c 0,-1.386 1.12,-2.508 2.506,-2.508 v 0 h 9.796 c 1.384,0 2.506,1.122 2.506,2.508 v 0 9.293 c 0,1.384 -1.122,2.506 -2.506,2.508 v 0 z m -0.508,-11.799 v 9.293 c 0,0.28 0.228,0.507 0.508,0.507 v 0 h 9.796 c 0.277,0 0.505,-0.227 0.507,-0.507 v 0 -9.293 c -0.002,-0.28 -0.229,-0.507 -0.507,-0.507 v 0 l -9.796,-0.003 c -0.28,0.003 -0.508,0.23 -0.508,0.51 z"
   id="path424"
   style="fill:none;stroke:#ffffff;stroke-opacity:1;stroke-width:0.69771805;stroke-dasharray:none" />
</g><g
       id="g432"
       transform="matrix(0.57947367,0,0,0.55835944,-64.538973,-93.545648)"
       style="fill:none;stroke:#ffffff;stroke-opacity:1;stroke-width:0.69771805;stroke-dasharray:none">
	<path
   fill="#f4f4f4"
   d="m 391.295,301.859 c -0.76,-0.002 -1.378,-0.618 -1.378,-1.376 v 0 -17.393 c 0,-0.76 0.62,-1.376 1.378,-1.376 v 0 h 27.377 c 0.76,0 1.374,0.616 1.376,1.376 v 0 17.394 c -0.002,0.756 -0.616,1.374 -1.376,1.376 v 0 h -27.377 z m 26.753,-2 v -16.147 h -26.131 v 16.147 z"
   id="path428"
   style="fill:none;stroke:#ffffff;stroke-opacity:1;stroke-width:0.69771805;stroke-dasharray:none" />
	<path
   fill="#f4f4f4"
   d="m 395.564,297.589 c -1.384,0 -2.508,-1.12 -2.508,-2.506 v 0 -9.293 c 0.002,-1.388 1.124,-2.508 2.508,-2.508 v 0 h 18.839 c 1.384,0.002 2.504,1.12 2.506,2.508 v 0 9.293 c -0.002,1.386 -1.122,2.506 -2.506,2.508 v 0 z m -0.506,-11.799 v 9.293 c 0,0.28 0.227,0.507 0.507,0.507 v 0 h 18.839 c 0.277,0 0.505,-0.227 0.507,-0.507 v 0 -9.293 c -0.002,-0.28 -0.229,-0.507 -0.507,-0.507 v 0 l -18.839,-0.003 c -0.281,0.003 -0.507,0.23 -0.507,0.51 z"
   id="path430"
   style="fill:none;stroke:#ffffff;stroke-opacity:1;stroke-width:0.69771805;stroke-dasharray:none" />
</g><g
       id="g438"
       transform="matrix(0.57947367,0,0,0.55835944,-64.538973,-93.545648)"
       style="fill:none;stroke:#ffffff;stroke-opacity:1;stroke-width:0.69771805;stroke-dasharray:none">
	<path
   fill="#f4f4f4"
   d="m 420.286,301.858 c -0.759,0 -1.376,-0.614 -1.378,-1.376 v 0 -17.392 c 0,-0.766 0.619,-1.376 1.378,-1.376 v 0 h 18.335 c 0.757,0 1.374,0.608 1.378,1.376 v 0 17.392 h -0.002 c 0,0.766 -0.617,1.376 -1.376,1.376 v 0 z m 17.712,-1.999 v -16.147 h -17.089 l -0.002,16.147 z"
   id="path434"
   style="fill:none;stroke:#ffffff;stroke-opacity:1;stroke-width:0.69771805;stroke-dasharray:none" />
	<path
   fill="#f4f4f4"
   d="m 424.556,297.59 c -1.386,0 -2.506,-1.123 -2.506,-2.507 v 0 -9.294 c 0,-1.386 1.12,-2.506 2.506,-2.508 v 0 l 9.796,0.002 c 1.384,0 2.506,1.122 2.506,2.506 v 0 9.294 c 0,1.384 -1.122,2.507 -2.506,2.507 v 0 z m -0.508,-11.801 v 9.294 c 0.002,0.28 0.229,0.506 0.508,0.506 v 0 l 9.796,0.002 c 0.28,-0.002 0.506,-0.228 0.506,-0.508 v 0 -9.294 c 0,-0.28 -0.226,-0.506 -0.506,-0.506 v 0 l -9.796,-0.002 c -0.28,0.002 -0.506,0.231 -0.508,0.508 z"
   id="path436"
   style="fill:none;stroke:#ffffff;stroke-opacity:1;stroke-width:0.69771805;stroke-dasharray:none" />
</g><path
       id="rect1850"
       style="fill:none;stroke:#ffffff;stroke-width:0.396875;stroke-linecap:round;stroke-linejoin:round;paint-order:fill markers stroke;stroke-opacity:1;stroke-dasharray:none"
       d="M 5.3113025,2.1908987 205.63519,2.7818245 209.18075,29.275 208.98377,95.951143 2.553648,96.345091 2.9475986,26.714319 Z"
       sodipodi:nodetypes="ccccccc" /><path
       id="rect1949"
       style="fill:none;stroke:#ffffff;stroke-width:0.396875;stroke-linecap:round;stroke-linejoin:round;paint-order:fill markers stroke;stroke-opacity:1;stroke-dasharray:none"
       d="M 18.023209,4.0353649 193.65144,3.7567998 195.11391,27.252506 16.97859,26.625734 Z"
       sodipodi:nodetypes="ccccc" /><path
       style="fill:none;stroke:#ffffff;stroke-width:0.396875;stroke-linecap:round;stroke-linejoin:round;stroke-dasharray:none;paint-order:fill markers stroke;stroke-opacity:1"
       d="m 195.79252,3.6670702 1.60175,23.1905488 -0.62678,68.875238"
       id="path2560"
       sodipodi:nodetypes="ccc" /></g></svg>
