<?xml version="1.0" encoding="UTF-8" standalone="no"?>
<!-- Uploaded to: SVG Repo, www.svgrepo.com, Generator: SVG Repo Mixer Tools -->

<svg
   width="681"
   height="447"
   viewBox="0 0 40.86 26.82"
   id="Layer_2"
   data-name="Layer 2"
   version="1.1"
   sodipodi:docname="emulators.svg"
   inkscape:version="1.2.2 (732a01da63, 2022-12-09)"
   xmlns:inkscape="http://www.inkscape.org/namespaces/inkscape"
   xmlns:sodipodi="http://sodipodi.sourceforge.net/DTD/sodipodi-0.dtd"
   xmlns="http://www.w3.org/2000/svg"
   xmlns:svg="http://www.w3.org/2000/svg">
  <sodipodi:namedview
     id="namedview12016"
     pagecolor="#ffffff"
     bordercolor="#111111"
     borderopacity="1"
     inkscape:showpageshadow="0"
     inkscape:pageopacity="0"
     inkscape:pagecheckerboard="1"
     inkscape:deskcolor="#d1d1d1"
     showgrid="false"
     inkscape:zoom="0.75572037"
     inkscape:cx="310.29996"
     inkscape:cy="461.81103"
     inkscape:window-width="1920"
     inkscape:window-height="1009"
     inkscape:window-x="-8"
     inkscape:window-y="-8"
     inkscape:window-maximized="1"
     inkscape:current-layer="Layer_2" />
  <defs
     id="defs12011">
    <style
       id="style12009">.cls-1{fill:none;stroke:#000000;stroke-linecap:round;stroke-linejoin:round;}</style>
  </defs>
  <path
     class="cls-1"
     d="m 12.14,0.89 h 3.12 l 2.53,4.38 h 5.22 l 2.53,-4.38 h 3.12 l -2.53,4.38 h 3.94 l 1.73,6.48 h 4.11 l -1.61,-6 h 3.16 l 1.62,6 0.82,3.09 h -7.28 l 1.32,4.9 h -5 l 3.43,5.95 H 27.81 L 24.4,19.71 h -8 l -3.43,5.95 h -4.5 l 3.43,-5.95 h -5 L 8.18,14.84 H 0.9 l 0.82,-3.06 1.62,-6 H 6.5 l -1.61,6 H 9 L 10.73,5.3 h 3.94 L 12.14,0.92 Z m 0.89,6.66 v 4.41 H 17.4 V 7.55 Z m 10.34,0 v 4.41 h 4.4 V 7.55 Z"
     id="path12013"
     style="stroke:#ffffff;stroke-opacity:1;stroke-width:0.34002;stroke-dasharray:none" />
</svg>
