<?xml version="1.0" encoding="UTF-8" standalone="no"?>
<!-- Generator: Adobe Illustrator 13.0.0, SVG Export Plug-In . SVG Version: 6.00 Build 14948)  -->

<svg
   version="1.2"
   id="Layer_3"
   x="0px"
   y="0px"
   width="490"
   height="220"
   viewBox="0 0 489.99998 219.99999"
   xml:space="preserve"
   sodipodi:docname="famicom.svg"
   inkscape:version="1.2.2 (732a01da63, 2022-12-09)"
   xmlns:inkscape="http://www.inkscape.org/namespaces/inkscape"
   xmlns:sodipodi="http://sodipodi.sourceforge.net/DTD/sodipodi-0.dtd"
   xmlns="http://www.w3.org/2000/svg"
   xmlns:svg="http://www.w3.org/2000/svg"
   xmlns:rdf="http://www.w3.org/1999/02/22-rdf-syntax-ns#"
   xmlns:cc="http://creativecommons.org/ns#"
   xmlns:dc="http://purl.org/dc/elements/1.1/"
   xmlns:ns="&amp;ns_sfw;"><defs
   id="defs49" /><sodipodi:namedview
   id="namedview47"
   pagecolor="#000000"
   bordercolor="#111111"
   borderopacity="1"
   inkscape:showpageshadow="0"
   inkscape:pageopacity="0"
   inkscape:pagecheckerboard="1"
   inkscape:deskcolor="#d1d1d1"
   showgrid="false"
   inkscape:zoom="2.0445042"
   inkscape:cx="299.58363"
   inkscape:cy="175.10357"
   inkscape:window-width="1920"
   inkscape:window-height="1009"
   inkscape:window-x="-8"
   inkscape:window-y="-8"
   inkscape:window-maximized="1"
   inkscape:current-layer="Layer_3" />
<metadata
   id="metadata55">
	<rdf:RDF>
		<cc:Work
   rdf:about="">
			<dc:format>image/svg+xml</dc:format>
			<dc:type
   rdf:resource="http://purl.org/dc/dcmitype/StillImage" />
			
		</cc:Work>
	</rdf:RDF>
	<ns:sfw>
		<ns:slices />
		<ns:sliceSourceBounds
   x="717.15"
   y="440.91"
   width="477.926"
   height="200.871"
   bottomLeftOrigin="true" />
	</ns:sfw>
</metadata>
<path
   id="path3"
   fill="#f4f4f4"
   d="m 27.009,24.543 c -4.303,0 -7.798,3.495 -7.798,7.798 v 27.028 125.116 c 0,4.303 3.496,7.822 7.798,7.822 h 433.85 c 4.304,0 7.799,-3.52 7.799,-7.822 v -82.173 c 0,-4.303 -3.495,-7.798 -7.799,-7.798 H 201.987 c -2.768,0 -4.417,-0.694 -5.425,-1.792 -1.006,-1.099 -1.452,-2.73 -1.453,-4.844 V 32.344 c 0,-4.303 -3.495,-7.798 -7.798,-7.798 h -35.165 c -4.303,0 -7.823,3.495 -7.823,7.798 v 14.628 c 0,1.271 -0.199,2.375 -0.678,3.076 -0.479,0.701 -1.221,1.139 -2.81,1.139 H 73.29 c -1.134,0 -1.88,-0.216 -2.398,-0.775 -0.517,-0.56 -0.896,-1.6 -0.896,-3.439 V 32.345 C 69.99,28.032 66.471,24.536 62.167,24.536 H 27.002 Z m 0,1.55 h 35.166 c 3.465,0 6.272,2.783 6.272,6.249 V 46.97 c 0,2.048 0.414,3.513 1.308,4.48 0.894,0.968 2.171,1.284 3.536,1.284 h 67.545 c 1.929,0 3.323,-0.69 4.093,-1.816 0.77,-1.127 0.945,-2.535 0.945,-3.948 V 32.341 c 0,-3.466 2.807,-6.249 6.273,-6.249 h 35.165 c 3.465,0 6.248,2.783 6.248,6.249 v 55.532 c 0.001,2.329 0.497,4.393 1.865,5.886 1.368,1.492 3.531,2.301 6.563,2.301 h 258.87 c 3.467,0 6.249,2.784 6.249,6.248 v 82.173 c 0,3.466 -2.782,6.271 -6.249,6.271 H 27.01 c -3.466,0 -6.249,-2.806 -6.249,-6.271 V 59.366 32.338 c 0,-3.465 2.783,-6.248 6.249,-6.248 z" />
<path
   id="path5"
   fill="none"
   stroke="#f4f4f4"
   stroke-width="1.55"
   d="M 145.104,103.793" />
<path
   id="path7"
   fill="#f4f4f4"
   d="m 203.027,28.805 c -4.304,0 -7.798,3.496 -7.798,7.798 v 48.873 c 0,4.303 3.495,7.797 7.798,7.797 h 80.894 c 4.304,0 7.799,-3.494 7.799,-7.797 V 36.603 c 0,-4.306 -3.495,-7.801 -7.797,-7.801 h -80.894 z m 0,1.55 h 80.894 c 3.466,0 6.249,2.783 6.249,6.248 v 48.873 c 0,3.466 -2.783,6.249 -6.249,6.249 h -80.894 c -3.466,0 -6.249,-2.783 -6.249,-6.249 V 36.603 c 0.001,-3.465 2.783,-6.248 6.249,-6.248 z" />
<path
   id="circle9"
   fill="#f4f4f4"
   d="m 204.507,33.601 c -2.667,0 -4.843,2.2 -4.843,4.868 0,2.668 2.176,4.844 4.843,4.844 2.668,0 4.868,-2.176 4.868,-4.844 0,-2.668 -2.2,-4.868 -4.868,-4.868 z m 0,1.55 c 1.831,0 3.318,1.488 3.318,3.318 0,1.83 -1.488,3.293 -3.318,3.293 -1.829,0 -3.293,-1.463 -3.293,-3.293 0,-1.83 1.464,-3.318 3.293,-3.318 z" />
<path
   id="circle11"
   fill="#f4f4f4"
   d="m 223.394,33.601 c -2.667,0 -4.844,2.2 -4.844,4.868 0,2.668 2.177,4.844 4.844,4.844 2.667,0 4.843,-2.176 4.843,-4.844 0,-2.668 -2.175,-4.868 -4.843,-4.868 z m 0,1.55 c 1.83,0 3.293,1.488 3.293,3.318 0,1.83 -1.464,3.293 -3.293,3.293 -1.83,0 -3.293,-1.463 -3.293,-3.293 0,-1.83 1.463,-3.318 3.293,-3.318 z" />
<path
   id="circle13"
   fill="#f4f4f4"
   d="m 242.265,33.601 c -2.667,0 -4.843,2.2 -4.843,4.868 0,2.668 2.176,4.844 4.843,4.844 2.667,0 4.868,-2.176 4.868,-4.844 0,-2.668 -2.201,-4.868 -4.868,-4.868 z m 0,1.55 c 1.83,0 3.318,1.488 3.318,3.318 0,1.83 -1.488,3.293 -3.318,3.293 -1.83,0 -3.293,-1.463 -3.293,-3.293 0,-1.83 1.463,-3.318 3.293,-3.318 z" />
<path
   id="circle15"
   fill="#f4f4f4"
   d="m 261.151,33.601 c -2.668,0 -4.844,2.2 -4.844,4.868 0,2.668 2.176,4.844 4.844,4.844 2.668,0 4.843,-2.176 4.843,-4.844 0,-2.668 -2.175,-4.868 -4.843,-4.868 z m 0,1.55 c 1.829,0 3.293,1.488 3.293,3.318 0,1.83 -1.464,3.293 -3.293,3.293 -1.828,0 -3.294,-1.463 -3.294,-3.293 0,-1.83 1.466,-3.318 3.294,-3.318 z" />
<path
   id="circle17"
   fill="#f4f4f4"
   d="m 213.784,44.353 c -2.667,0 -4.868,2.176 -4.868,4.844 0,2.667 2.2,4.843 4.868,4.843 2.668,0 4.844,-2.176 4.844,-4.843 -10e-4,-2.668 -2.177,-4.844 -4.844,-4.844 z m 0,1.55 c 1.831,0 3.294,1.463 3.294,3.294 0,1.83 -1.463,3.293 -3.294,3.293 -1.83,0 -3.317,-1.463 -3.317,-3.293 -0.001,-1.83 1.487,-3.294 3.317,-3.294 z" />
<path
   id="circle19"
   fill="#f4f4f4"
   d="m 232.647,44.353 c -2.667,0 -4.843,2.176 -4.843,4.844 0,2.667 2.176,4.843 4.843,4.843 2.667,0 4.844,-2.176 4.844,-4.843 10e-4,-2.668 -2.176,-4.844 -4.844,-4.844 z m 0,1.55 c 1.83,0 3.293,1.463 3.293,3.294 0,1.83 -1.463,3.293 -3.293,3.293 -1.83,0 -3.293,-1.463 -3.293,-3.293 0,-1.83 1.463,-3.294 3.293,-3.294 z" />
<path
   id="circle21"
   fill="#f4f4f4"
   d="m 251.542,44.353 c -2.668,0 -4.868,2.176 -4.868,4.844 0,2.667 2.2,4.843 4.868,4.843 2.668,0 4.845,-2.176 4.845,-4.843 0,-2.668 -2.177,-4.844 -4.845,-4.844 z m 0,1.55 c 1.83,0 3.295,1.463 3.295,3.294 0,1.83 -1.465,3.293 -3.295,3.293 -1.83,0 -3.318,-1.463 -3.318,-3.293 0,-1.83 1.488,-3.294 3.318,-3.294 z" />
<path
   id="circle23"
   fill="#f4f4f4"
   d="m 270.405,44.353 c -2.668,0 -4.844,2.176 -4.844,4.844 0,2.667 2.176,4.843 4.844,4.843 2.668,0 4.844,-2.176 4.844,-4.843 0,-2.668 -2.176,-4.844 -4.844,-4.844 z m 0,1.55 c 1.83,0 3.294,1.463 3.294,3.294 0,1.83 -1.464,3.293 -3.294,3.293 -1.83,0 -3.293,-1.463 -3.293,-3.293 0,-1.83 1.463,-3.294 3.293,-3.294 z" />
<path
   id="circle25"
   fill="#f4f4f4"
   d="m 213.784,65.811 c -2.667,0 -4.868,2.176 -4.868,4.844 0,2.668 2.2,4.844 4.868,4.844 2.668,0 4.844,-2.176 4.844,-4.844 -10e-4,-2.668 -2.177,-4.844 -4.844,-4.844 z m 0,1.55 c 1.831,0 3.294,1.463 3.294,3.293 0,1.83 -1.463,3.293 -3.294,3.293 -1.83,0 -3.317,-1.463 -3.317,-3.293 0,-1.83 1.487,-3.293 3.317,-3.293 z" />
<path
   id="circle27"
   fill="#f4f4f4"
   d="m 232.647,65.811 c -2.667,0 -4.843,2.176 -4.843,4.844 0,2.668 2.176,4.844 4.843,4.844 2.667,0 4.844,-2.176 4.844,-4.844 10e-4,-2.668 -2.176,-4.844 -4.844,-4.844 z m 0,1.55 c 1.83,0 3.293,1.463 3.293,3.293 0,1.83 -1.463,3.293 -3.293,3.293 -1.83,0 -3.293,-1.463 -3.293,-3.293 0,-1.83 1.463,-3.293 3.293,-3.293 z" />
<path
   id="circle29"
   fill="#f4f4f4"
   d="m 251.542,65.811 c -2.668,0 -4.868,2.176 -4.868,4.844 0,2.668 2.2,4.844 4.868,4.844 2.668,0 4.845,-2.176 4.845,-4.844 0,-2.668 -2.177,-4.844 -4.845,-4.844 z m 0,1.55 c 1.83,0 3.295,1.463 3.295,3.293 0,1.83 -1.465,3.293 -3.295,3.293 -1.83,0 -3.318,-1.463 -3.318,-3.293 0,-1.83 1.488,-3.293 3.318,-3.293 z" />
<path
   id="circle31"
   fill="#f4f4f4"
   d="m 270.405,65.811 c -2.668,0 -4.844,2.176 -4.844,4.844 0,2.668 2.176,4.844 4.844,4.844 2.668,0 4.844,-2.176 4.844,-4.844 0,-2.668 -2.176,-4.844 -4.844,-4.844 z m 0,1.55 c 1.83,0 3.294,1.463 3.294,3.293 0,1.83 -1.464,3.293 -3.294,3.293 -1.83,0 -3.293,-1.463 -3.293,-3.293 0,-1.83 1.463,-3.293 3.293,-3.293 z" />
<path
   id="circle33"
   fill="#f4f4f4"
   d="m 280.023,33.601 c -2.669,0 -4.844,2.2 -4.844,4.868 0,2.668 2.175,4.844 4.844,4.844 2.667,0 4.868,-2.176 4.868,-4.844 10e-4,-2.668 -2.201,-4.868 -4.868,-4.868 z m 0,1.55 c 1.83,0 3.318,1.488 3.318,3.318 0,1.83 -1.488,3.293 -3.318,3.293 -1.831,0 -3.294,-1.463 -3.294,-3.293 0,-1.83 1.463,-3.318 3.294,-3.318 z" />
<path
   id="circle35"
   fill="#f4f4f4"
   d="m 204.507,54.792 c -2.667,0 -4.843,2.2 -4.843,4.868 0,2.667 2.176,4.844 4.843,4.844 2.668,0 4.868,-2.176 4.868,-4.844 0,-2.668 -2.2,-4.868 -4.868,-4.868 z m 0,1.549 c 1.831,0 3.318,1.488 3.318,3.318 0,1.83 -1.488,3.294 -3.318,3.294 -1.829,0 -3.293,-1.464 -3.293,-3.294 -0.001,-1.829 1.464,-3.318 3.293,-3.318 z" />
<path
   id="circle37"
   fill="#f4f4f4"
   d="m 223.394,54.792 c -2.667,0 -4.844,2.2 -4.844,4.868 0,2.667 2.177,4.844 4.844,4.844 2.667,0 4.843,-2.176 4.843,-4.844 0,-2.668 -2.175,-4.868 -4.843,-4.868 z m 0,1.549 c 1.83,0 3.293,1.488 3.293,3.318 0,1.83 -1.464,3.294 -3.293,3.294 -1.83,0 -3.293,-1.464 -3.293,-3.294 0,-1.829 1.463,-3.318 3.293,-3.318 z" />
<path
   id="circle39"
   fill="#f4f4f4"
   d="m 242.265,54.792 c -2.667,0 -4.843,2.2 -4.843,4.868 0,2.667 2.176,4.844 4.843,4.844 2.667,0 4.868,-2.176 4.868,-4.844 0,-2.668 -2.201,-4.868 -4.868,-4.868 z m 0,1.549 c 1.83,0 3.318,1.488 3.318,3.318 0,1.83 -1.488,3.294 -3.318,3.294 -1.83,0 -3.293,-1.464 -3.293,-3.294 -0.001,-1.829 1.463,-3.318 3.293,-3.318 z" />
<path
   id="circle41"
   fill="#f4f4f4"
   d="m 261.151,54.792 c -2.668,0 -4.844,2.2 -4.844,4.868 0,2.667 2.176,4.844 4.844,4.844 2.668,0 4.843,-2.176 4.843,-4.844 0,-2.668 -2.175,-4.868 -4.843,-4.868 z m 0,1.549 c 1.829,0 3.293,1.488 3.293,3.318 0,1.83 -1.464,3.294 -3.293,3.294 -1.828,0 -3.294,-1.464 -3.294,-3.294 0,-1.829 1.466,-3.318 3.294,-3.318 z" />
<path
   id="circle43"
   fill="#f4f4f4"
   d="m 280.023,54.792 c -2.669,0 -4.844,2.2 -4.844,4.868 0,2.667 2.175,4.844 4.844,4.844 2.667,0 4.868,-2.176 4.868,-4.844 10e-4,-2.668 -2.201,-4.868 -4.868,-4.868 z m 0,1.549 c 1.83,0 3.318,1.488 3.318,3.318 0,1.83 -1.488,3.294 -3.318,3.294 -1.831,0 -3.294,-1.464 -3.294,-3.294 0,-1.829 1.463,-3.318 3.294,-3.318 z" />
<path
   id="circle45"
   fill="#f4f4f4"
   d="m 204.507,76.007 c -2.667,0 -4.843,2.176 -4.843,4.844 0,2.667 2.176,4.843 4.843,4.843 2.668,0 4.868,-2.176 4.868,-4.843 0,-2.668 -2.2,-4.844 -4.868,-4.844 z m 0,1.55 c 1.831,0 3.318,1.464 3.318,3.294 0,1.83 -1.488,3.293 -3.318,3.293 -1.829,0 -3.293,-1.464 -3.293,-3.293 -0.001,-1.83 1.464,-3.294 3.293,-3.294 z" />
<path
   id="circle47"
   fill="#f4f4f4"
   d="m 223.394,76.007 c -2.667,0 -4.844,2.176 -4.844,4.844 0,2.667 2.177,4.843 4.844,4.843 2.667,0 4.843,-2.176 4.843,-4.843 0,-2.668 -2.175,-4.844 -4.843,-4.844 z m 0,1.55 c 1.83,0 3.293,1.464 3.293,3.294 0,1.83 -1.464,3.293 -3.293,3.293 -1.83,0 -3.293,-1.464 -3.293,-3.293 0,-1.83 1.463,-3.294 3.293,-3.294 z" />
<path
   id="circle49"
   fill="#f4f4f4"
   d="m 242.265,76.007 c -2.667,0 -4.843,2.176 -4.843,4.844 0,2.667 2.176,4.843 4.843,4.843 2.667,0 4.868,-2.176 4.868,-4.843 0,-2.668 -2.201,-4.844 -4.868,-4.844 z m 0,1.55 c 1.83,0 3.318,1.464 3.318,3.294 0,1.83 -1.488,3.293 -3.318,3.293 -1.83,0 -3.293,-1.464 -3.293,-3.293 -0.001,-1.83 1.463,-3.294 3.293,-3.294 z" />
<path
   id="circle51"
   fill="#f4f4f4"
   d="m 261.151,76.007 c -2.668,0 -4.844,2.176 -4.844,4.844 0,2.667 2.176,4.843 4.844,4.843 2.668,0 4.843,-2.176 4.843,-4.843 0,-2.668 -2.175,-4.844 -4.843,-4.844 z m 0,1.55 c 1.829,0 3.293,1.464 3.293,3.294 0,1.83 -1.464,3.293 -3.293,3.293 -1.828,0 -3.294,-1.464 -3.294,-3.293 0,-1.83 1.466,-3.294 3.294,-3.294 z" />
<path
   id="circle53"
   fill="#f4f4f4"
   d="m 280.023,76.007 c -2.669,0 -4.844,2.176 -4.844,4.844 0,2.667 2.175,4.843 4.844,4.843 2.667,0 4.868,-2.176 4.868,-4.843 10e-4,-2.668 -2.201,-4.844 -4.868,-4.844 z m 0,1.55 c 1.83,0 3.318,1.464 3.318,3.294 0,1.83 -1.488,3.293 -3.318,3.293 -1.831,0 -3.294,-1.464 -3.294,-3.293 0,-1.83 1.463,-3.294 3.294,-3.294 z" />
<path
   id="path55"
   fill="#f4f4f4"
   d="m 75.881,35.828 c -1.645,0 -3.003,1.358 -3.003,3.003 v 6.466 c 0,1.646 1.358,3.003 3.003,3.003 h 62.75 c 1.646,0 2.979,-1.357 2.979,-3.003 v -6.466 c 0,-1.646 -1.333,-3.003 -2.979,-3.003 z m 0,1.55 h 62.75 c 0.809,0 1.429,0.645 1.429,1.453 v 6.466 c 0,0.808 -0.621,1.453 -1.429,1.453 h -62.75 c -0.808,0 -1.453,-0.646 -1.453,-1.453 v -6.466 c 0.001,-0.808 0.646,-1.453 1.453,-1.453 z" />
<path
   id="path57"
   fill="#f4f4f4"
   d="m 85.135,35.828 c -1.645,0 -3.003,1.358 -3.003,3.003 v 6.103 c 0,1.646 1.358,3.003 3.003,3.003 h 24.243 c 1.646,0 3.003,-1.357 3.003,-3.003 v -6.103 c 0,-1.646 -1.358,-3.003 -3.003,-3.003 z m 0,1.55 h 24.243 c 0.808,0 1.454,0.645 1.454,1.453 v 6.103 c 0,0.808 -0.646,1.453 -1.454,1.453 H 85.135 c -0.808,0 -1.453,-0.645 -1.453,-1.453 v -6.103 c 0,-0.808 0.645,-1.453 1.453,-1.453 z" />
<path
   id="circle59"
   fill="#f4f4f4"
   d="m 344.394,123.138 c -15.292,0 -27.706,12.414 -27.706,27.706 0,15.292 12.414,27.706 27.706,27.706 15.292,0 27.705,-12.414 27.705,-27.706 0,-15.292 -12.413,-27.706 -27.705,-27.706 z m 0,1.55 c 14.455,0 26.155,11.702 26.155,26.156 0,14.454 -11.7,26.156 -26.155,26.156 -14.454,0 -26.156,-11.702 -26.156,-26.156 0,-14.454 11.701,-26.156 26.156,-26.156 z" />
<path
   id="circle61"
   fill="#f4f4f4"
   d="m 344.394,128.245 c -12.48,0 -22.621,10.114 -22.621,22.596 0,12.48 10.141,22.621 22.621,22.621 12.481,0 22.621,-10.141 22.621,-22.621 0,-12.482 -10.14,-22.596 -22.621,-22.596 z m 0,1.55 c 11.645,0 21.071,9.403 21.071,21.046 0,11.644 -9.427,21.071 -21.071,21.071 -11.644,0 -21.07,-9.428 -21.07,-21.071 0,-11.643 9.426,-21.046 21.07,-21.046 z" />
<path
   id="circle63"
   fill="#f4f4f4"
   d="m 408.261,123.138 c -15.291,0 -27.706,12.414 -27.706,27.706 0,15.292 12.415,27.706 27.706,27.706 15.292,0 27.706,-12.414 27.706,-27.706 0,-15.292 -12.414,-27.706 -27.706,-27.706 z m 0,1.55 c 14.455,0 26.156,11.702 26.156,26.156 0,14.454 -11.701,26.156 -26.156,26.156 -14.454,0 -26.156,-11.702 -26.156,-26.156 0,-14.454 11.702,-26.156 26.156,-26.156 z" />
<path
   id="circle65"
   fill="#f4f4f4"
   d="m 408.261,128.245 c -12.48,0 -22.62,10.114 -22.62,22.596 0,12.48 10.14,22.621 22.62,22.621 12.481,0 22.596,-10.141 22.596,-22.621 -0.001,-12.482 -10.115,-22.596 -22.596,-22.596 z m 0,1.55 c 11.645,0 21.046,9.403 21.046,21.046 0,11.644 -9.403,21.071 -21.046,21.071 -11.643,0 -21.07,-9.428 -21.07,-21.071 0,-11.643 9.427,-21.046 21.07,-21.046 z" />
<path
   id="path67"
   fill="#f4f4f4"
   d="m 67.647,77.727 c -3.69,0 -6.709,2.995 -6.709,6.685 v 19.205 c 0,1.251 -0.127,1.826 -0.194,1.914 -0.033,0.043 -0.041,0.074 -0.242,0.121 -0.201,0.047 -0.569,0.073 -1.065,0.073 H 39.626 c -3.69,0 -6.684,3.019 -6.684,6.709 v 30.854 c 0,3.689 2.994,6.684 6.684,6.684 h 19.617 c 0.632,0 1.097,0.015 1.38,0.049 0.283,0.034 0.352,0.105 0.314,0.071 -0.036,-0.031 -0.02,-0.098 0,0.073 0.021,0.173 0,0.502 0,0.945 v 20.173 c 0,3.69 3.019,6.709 6.709,6.709 H 98.5 c 3.69,0 6.684,-3.019 6.684,-6.709 v -20.101 c 0,-0.35 0.02,-0.638 0.048,-0.8 0.029,-0.161 0.051,-0.171 0.073,-0.193 0.044,-0.045 0.418,-0.236 1.501,-0.218 h 0.024 19.666 c 3.69,0 6.708,-2.994 6.708,-6.685 v -30.854 c 0,-3.689 -3.018,-6.708 -6.708,-6.708 H 106.76 c -0.475,0 -0.813,-0.02 -1.018,-0.073 -0.205,-0.053 -0.265,-0.107 -0.314,-0.169 -0.1,-0.124 -0.243,-0.668 -0.243,-1.816 V 84.41 c 0,-3.689 -2.994,-6.685 -6.684,-6.685 z m 0,1.549 h 30.854 c 2.852,0 5.134,2.283 5.134,5.135 v 19.254 c 0,1.219 0.014,2.082 0.581,2.785 0.284,0.352 0.714,0.593 1.139,0.702 0.424,0.11 0.87,0.122 1.405,0.122 h 19.738 c 2.852,0 5.159,2.306 5.159,5.159 v 30.854 c 0,2.852 -2.307,5.134 -5.159,5.134 h -19.666 c -1.215,-0.021 -2.056,0.084 -2.64,0.679 -0.292,0.296 -0.422,0.667 -0.485,1.017 -0.063,0.348 -0.072,0.696 -0.072,1.065 v 20.102 c 0,2.853 -2.282,5.159 -5.134,5.159 H 67.647 c -2.853,0 -5.159,-2.307 -5.159,-5.159 V 151.11 c 0,-0.431 0.018,-0.763 -0.024,-1.114 -0.042,-0.351 -0.175,-0.773 -0.509,-1.065 -0.334,-0.292 -0.718,-0.384 -1.138,-0.436 -0.419,-0.051 -0.926,-0.073 -1.574,-0.073 H 39.627 c -2.853,0 -5.134,-2.281 -5.134,-5.134 v -30.854 c 0,-2.853 2.281,-5.159 5.134,-5.159 h 19.81 c 0.541,0 0.983,0.003 1.405,-0.097 0.421,-0.098 0.86,-0.338 1.138,-0.702 0.556,-0.726 0.509,-1.564 0.509,-2.858 V 84.413 c 0,-2.852 2.306,-5.134 5.159,-5.134 z" />
<path
   id="path69"
   fill="#f4f4f4"
   d="m 67.502,82.353 c -1.01,0 -1.841,0.831 -1.841,1.841 v 25.938 c 0,0.171 -0.034,0.217 -0.097,0.217 h -26.06 c -1.009,0 -1.84,0.855 -1.84,1.865 v 31.098 c 0,1.009 0.831,1.84 1.84,1.84 h 26.01 0.025 c 0.094,0.008 0.157,0.034 0.145,0.024 -0.014,-0.012 -0.024,-0.053 -0.024,0.024 v 26.495 c 0,1.01 0.831,1.84 1.841,1.84 h 31.121 c 1.009,0 1.84,-0.83 1.84,-1.84 V 145.2 c 0,-0.03 -0.078,-0.049 0.146,-0.049 h 26.035 c 1.01,0 1.841,-0.831 1.841,-1.84 v -31.098 c 0,-1.009 -0.831,-1.865 -1.841,-1.865 h -26.059 c -0.054,0 -0.121,-0.042 -0.121,-0.193 V 84.193 c 0,-1.01 -0.831,-1.841 -1.84,-1.841 H 67.502 Z m 0,1.55 h 31.121 c 0.171,0 0.291,0.119 0.291,0.291 v 25.962 c 0,0.897 0.699,1.744 1.671,1.744 h 26.059 c 0.173,0 0.291,0.142 0.291,0.314 v 31.098 c 0,0.171 -0.118,0.29 -0.291,0.29 h -26.035 c -0.937,0 -1.695,0.78 -1.695,1.599 v 26.495 c 0,0.173 -0.12,0.29 -0.291,0.29 H 67.502 c -0.171,0 -0.291,-0.117 -0.291,-0.29 V 145.2 c 0,-0.437 -0.177,-0.896 -0.509,-1.187 -0.331,-0.292 -0.744,-0.412 -1.162,-0.412 H 39.505 c -0.173,0 -0.291,-0.119 -0.291,-0.29 v -31.098 c 0,-0.173 0.118,-0.314 0.291,-0.314 h 26.06 c 0.985,0 1.647,-0.893 1.647,-1.768 V 84.193 c -0.001,-0.171 0.119,-0.291 0.29,-0.29 z" />
<path
   id="circle71"
   fill="#f4f4f4"
   d="m 83.075,115.821 c -6.629,0 -12.037,5.408 -12.037,12.037 0,6.629 5.408,12.012 12.037,12.012 6.628,0 12.012,-5.383 12.012,-12.012 0,-6.629 -5.384,-12.037 -12.012,-12.037 z m 0,1.55 c 5.791,0 10.462,4.695 10.462,10.487 0,5.791 -4.671,10.462 -10.462,10.462 -5.792,0 -10.487,-4.671 -10.487,-10.462 0,-5.792 4.695,-10.487 10.487,-10.487 z" />
<path
   id="path73"
   fill="none"
   stroke="#f4f4f4"
   stroke-width="1.55"
   d="M 64.776,125.749" />
<path
   id="polygon75"
   fill="#f4f4f4"
   d="m 54.594,116.644 -1.308,1.332 -9.324,9.324 -0.557,0.557 0.557,0.533 9.324,9.348 1.308,1.308 v -1.864 -1.89 h 8.234 0.775 v -0.774 -13.321 -0.775 h -0.775 -8.234 v -1.889 -1.89 z m -1.551,3.753 v 0.799 0.775 h 0.775 8.234 v 11.77 h -8.234 -0.775 v 0.775 0.775 l -7.435,-7.436 z" />
<path
   id="polygon77"
   fill="#f4f4f4"
   d="m 75.64,147.311 v 0.774 8.234 h -1.889 -1.889 l 1.332,1.332 9.324,9.324 0.557,0.557 0.532,-0.557 9.349,-9.324 1.307,-1.332 H 92.399 90.51 v -8.234 -0.774 H 89.735 76.414 Z m 1.55,1.549 h 11.77 v 8.234 0.774 h 0.775 0.775 l -7.46,7.459 -7.435,-7.459 h 0.799 0.775 v -0.774 z" />
<path
   id="polygon79"
   fill="#f4f4f4"
   d="m 111.531,116.644 v 1.889 1.889 h -8.234 -0.775 v 0.775 13.32 0.775 h 0.775 8.234 v 1.889 1.865 l 1.332,-1.309 9.324,-9.354 0.557,-0.535 -0.557,-0.559 -9.324,-9.322 -1.333,-1.334 z m 1.551,3.753 7.459,7.459 -7.459,7.436 v -0.775 -0.775 h -0.775 -8.235 v -11.77 h 8.235 0.775 v -0.775 z" />
<path
   id="polygon81"
   fill="#f4f4f4"
   d="m 83.075,88.193 -0.557,0.557 -9.324,9.324 -1.332,1.308 h 1.889 1.889 v 8.234 0.775 h 0.775 13.321 0.775 v -0.775 -8.234 H 92.4 94.264 L 92.956,98.074 83.608,88.75 Z m -0.025,2.18 7.46,7.459 H 89.735 88.96 v 0.775 8.234 H 77.189 v -8.234 -0.775 h -0.775 -0.798 z" />
<path
   id="path83"
   fill="#f4f4f4"
   d="m 22.165,8.849 c -9.068,0 -16.42,7.566 -16.42,16.856 v 167.159 c 0,9.291 7.352,16.855 16.42,16.855 h 445.109 c 9.068,0 16.396,-7.564 16.396,-16.855 V 25.705 c 0,-9.29 -7.332,-16.856 -16.398,-16.856 H 22.162 Z m 0,1.55 h 445.109 c 8.207,0 14.847,6.831 14.847,15.306 v 167.159 c 0,8.476 -6.64,15.306 -14.847,15.306 H 22.165 c -8.208,0 -14.872,-6.828 -14.872,-15.306 V 25.705 c 0,-8.476 6.664,-15.306 14.872,-15.306 z" />
<path
   id="path85"
   fill="#f4f4f4"
   d="m 244.923,105.677 c -5.3,0 -9.614,4.315 -9.614,9.615 v 0.774 h 0.775 17.679 0.775 v -0.774 c 0,-5.3 -4.315,-9.615 -9.615,-9.615 z m 0,1.55 c 4.188,0 7.516,3.211 7.92,7.29 h -15.839 c 0.405,-4.079 3.73,-7.29 7.919,-7.29 z" />
<path
   id="path87"
   fill="#f4f4f4"
   d="m 244.923,102.941 c -6.807,0 -12.327,5.544 -12.327,12.352 h 1.55 c 0,-5.97 4.809,-10.802 10.777,-10.802 5.971,0 10.802,4.833 10.802,10.802 h 1.55 c -10e-4,-6.808 -5.544,-12.352 -12.352,-12.352 z" />
</svg>
