<?xml version="1.0" encoding="UTF-8" standalone="no"?>
<!-- Created with Inkscape (http://www.inkscape.org/) -->

<svg
   width="1705"
   height="886"
   viewBox="0 0 451.11528 234.42148"
   version="1.1"
   id="svg5"
   inkscape:version="1.2.2 (732a01da63, 2022-12-09)"
   xml:space="preserve"
   sodipodi:docname="fm7.svg"
   xmlns:inkscape="http://www.inkscape.org/namespaces/inkscape"
   xmlns:sodipodi="http://sodipodi.sourceforge.net/DTD/sodipodi-0.dtd"
   xmlns="http://www.w3.org/2000/svg"
   xmlns:svg="http://www.w3.org/2000/svg"><sodipodi:namedview
     id="namedview7"
     pagecolor="#000000"
     bordercolor="#111111"
     borderopacity="1"
     inkscape:showpageshadow="0"
     inkscape:pageopacity="0"
     inkscape:pagecheckerboard="1"
     inkscape:deskcolor="#d1d1d1"
     inkscape:document-units="mm"
     showgrid="false"
     inkscape:zoom="0.45041229"
     inkscape:cx="729.33179"
     inkscape:cy="379.65216"
     inkscape:window-width="1920"
     inkscape:window-height="1009"
     inkscape:window-x="-8"
     inkscape:window-y="-8"
     inkscape:window-maximized="1"
     inkscape:current-layer="layer1" /><defs
     id="defs2" /><g
     inkscape:label="Layer 1"
     inkscape:groupmode="layer"
     id="layer1"><path
       id="rect3625"
       style="fill:none;stroke:#ffffff;stroke-width:2.0902141;stroke-linecap:round;stroke-linejoin:round;stroke-opacity:1;paint-order:fill markers stroke;stroke-dasharray:none"
       d="M 31.688453,77.480166 C 38.960286,70.667546 75.928392,41.487659 122.70896,25.641345 169.48954,9.795031 191.08968,6.741311 226.08257,7.282289 c 43.84991,0.677904 88.66516,9.243878 128.76533,26.999182 30.64194,13.567451 60.59449,32.722648 81.41292,58.982825 4.89624,6.17607 7.53731,14.089904 9.13819,21.807044 2.29224,11.04986 2.27551,22.72205 0.41537,33.85281 -1.82994,10.95002 -6.58539,21.27011 -11.21505,31.36059 -3.15471,6.87578 -6.22392,14.04535 -11.21504,19.73018 -5.07908,5.785 -10.94283,12.13351 -18.43214,13.91496 -11.68793,2.78016 -24.10874,-2.50998 -35.46239,-6.43827 -10.37106,-3.58832 -21.26403,-7.85143 -32.13941,-11.00735 -13.99737,-4.0619 -28.1762,-7.61252 -42.52371,-10.17662 -22.42572,-4.00779 -45.08068,-7.98331 -67.86141,-8.09975 -21.08285,-0.10777 -42.07502,3.42168 -62.87694,6.85364 -16.70488,2.75601 -33.1935,6.76871 -49.58504,11.00735 -17.246758,4.45979 -43.427548,13.81377 -51.246522,15.16108 C 51.342832,213.28288 34.592243,209.58723 29.196221,198.7688 26.473234,193.30952 9.2855587,155.80903 8.0122467,132.72465 7.4753607,122.99122 10.06825,113.05821 13.827456,104.06398 17.944282,94.214106 23.897689,84.778946 31.688453,77.480166 Z"
       sodipodi:nodetypes="ssaaaaaaaasaaaaassaas" /><path
       id="rect4243"
       style="fill:none;stroke:#ffffff;stroke-width:2.0902141;stroke-linecap:round;stroke-linejoin:round;stroke-opacity:1;paint-order:fill markers stroke;stroke-dasharray:none"
       d="m 109.36303,199.37193 c 0,0 77.65997,-22.49804 117.55029,-22.43009 39.9165,0.068 117.55028,22.84546 117.55028,22.84546 0,0 -77.83224,24.1877 -117.96565,24.09158 -39.89026,-0.0955 -117.13492,-24.50695 -117.13492,-24.50695 z"
       sodipodi:nodetypes="cacac" /><path
       id="rect4246"
       style="fill:none;stroke:#ffffff;stroke-width:2.0902141;stroke-linecap:round;stroke-linejoin:round;stroke-opacity:1;paint-order:fill markers stroke;stroke-dasharray:none"
       d="m 174.16107,194.61507 c 5.67338,-3.59621 44.86017,-3.73835 44.86017,-3.73835 l 0.41537,19.10712 c 0,0 -41.97731,0.42321 -45.69092,-2.9076 -3.40762,-3.05637 -3.45082,-10.01048 0.41538,-12.46117 z"
       sodipodi:nodetypes="sccss" /><path
       id="rect4246-5"
       style="fill:none;stroke:#ffffff;stroke-width:2.0902141;stroke-linecap:round;stroke-linejoin:round;stroke-opacity:1;paint-order:fill markers stroke;stroke-dasharray:none"
       d="m 282.766,194.49257 c -5.67338,-3.59621 -44.86017,-3.73835 -44.86017,-3.73835 l -0.41537,19.10712 c 0,0 41.97731,0.42321 45.69092,-2.9076 3.40762,-3.05637 3.45082,-10.01048 -0.41538,-12.46117 z"
       sodipodi:nodetypes="sccss" /><rect
       style="fill:none;fill-opacity:1;stroke:#ffffff;stroke-width:2.0902141;stroke-linecap:round;stroke-linejoin:round;stroke-dasharray:none;stroke-opacity:1;paint-order:fill markers stroke"
       id="rect4286"
       width="10.384301"
       height="18.69174"
       x="223.17496"
       y="190.76294" /><ellipse
       style="fill:none;fill-opacity:1;stroke:#ffffff;stroke-width:2.0902141;stroke-linecap:round;stroke-linejoin:round;stroke-dasharray:none;stroke-opacity:1;paint-order:fill markers stroke"
       id="path4340"
       cx="109.77839"
       cy="119.01735"
       rx="46.521667"
       ry="46.106293" /><ellipse
       style="fill:none;fill-opacity:1;stroke:#ffffff;stroke-width:2.0902141;stroke-linecap:round;stroke-linejoin:round;stroke-dasharray:none;stroke-opacity:1;paint-order:fill markers stroke"
       id="path4342"
       cx="329.73779"
       cy="154.39799"
       rx="22.845463"
       ry="21.599346" /><ellipse
       style="fill:none;fill-opacity:1;stroke:#ffffff;stroke-width:2.0902141;stroke-linecap:round;stroke-linejoin:round;stroke-dasharray:none;stroke-opacity:1;paint-order:fill markers stroke"
       id="path4342-1"
       cx="374.43878"
       cy="119.38097"
       rx="22.845463"
       ry="21.599346" /><path
       id="rect4366"
       style="fill:none;stroke:#ffffff;stroke-width:2.0902141;stroke-linecap:round;stroke-linejoin:round;stroke-opacity:1;paint-order:fill markers stroke;stroke-dasharray:none"
       d="m 131.56908,103.63532 c 0.0398,-4.331452 18.84766,-3.778876 18.89944,0.41538 l 0.31153,25.23385 c 0.0499,4.04009 4.06089,8.58559 8.30744,8.82666 l 23.78005,1.34995 c 4.08491,0.23189 3.79048,17.3599 -0.62306,17.13409 l -22.32625,-1.14226 c -4.88268,-0.24981 -9.5206,3.84332 -9.55356,7.9959 l -0.20769,26.16844 c -0.0401,5.05575 -20.9338,3.86354 -20.93022,1.1097 l 0.0349,-26.91289 c 0.004,-3.3891 -4.59919,-8.16886 -7.83934,-8.24305 l -26.490069,-0.60653 c -3.335004,-0.0764 -3.05511,-19.24316 0.531468,-19.11041 l 27.259291,1.00889 c 3.28297,0.12151 8.57526,-3.73453 8.60856,-7.36191 z"
       sodipodi:nodetypes="sssssssssssssssss"
       class="UnoptimicedTransforms"
       transform="translate(-29.371238,-27.608964)" /><ellipse
       style="fill:none;fill-opacity:1;stroke:#ffffff;stroke-width:2.0902141;stroke-linecap:round;stroke-linejoin:round;stroke-dasharray:none;stroke-opacity:1;paint-order:fill markers stroke"
       id="path5157"
       cx="110.40145"
       cy="119.66031"
       rx="6.9929585"
       ry="7.2006445" /><path
       id="rect5159"
       style="fill:none;stroke:#ffffff;stroke-width:2.0902141;stroke-linecap:round;stroke-linejoin:round;stroke-opacity:1;paint-order:fill markers stroke;stroke-dasharray:none"
       d="m 323.70581,17.586673 c 13.94122,4.403758 53.68549,17.097564 60.09431,30.744016 -33.95324,-18.864772 -64.16238,-26.948111 -64.16238,-26.948111 0,0 2.00093,-4.448875 4.06807,-3.795905 z"
       sodipodi:nodetypes="sccs" /></g></svg>
