<?xml version="1.0" encoding="UTF-8" standalone="no"?>
<!-- Generator: Adobe Illustrator 13.0.0, SVG Export Plug-In . SVG Version: 6.00 Build 14948)  -->

<svg
   version="1.1"
   id="Layer_4"
   x="0px"
   y="0px"
   width="490"
   height="322.26001"
   viewBox="0 0 489.99998 322.26"
   enable-background="new 0 0 598.189 350.26"
   xml:space="preserve"
   sodipodi:docname="gameandwatch.svg"
   inkscape:version="1.2.2 (732a01da63, 2022-12-09)"
   xmlns:inkscape="http://www.inkscape.org/namespaces/inkscape"
   xmlns:sodipodi="http://sodipodi.sourceforge.net/DTD/sodipodi-0.dtd"
   xmlns="http://www.w3.org/2000/svg"
   xmlns:svg="http://www.w3.org/2000/svg"><defs
   id="defs37" /><sodipodi:namedview
   id="namedview35"
   pagecolor="#000000"
   bordercolor="#111111"
   borderopacity="1"
   inkscape:showpageshadow="0"
   inkscape:pageopacity="0"
   inkscape:pagecheckerboard="1"
   inkscape:deskcolor="#d1d1d1"
   showgrid="false"
   inkscape:zoom="2.0445042"
   inkscape:cx="299.58363"
   inkscape:cy="175.10357"
   inkscape:window-width="1920"
   inkscape:window-height="1009"
   inkscape:window-x="-8"
   inkscape:window-y="-8"
   inkscape:window-maximized="1"
   inkscape:current-layer="Layer_4" />
<path
   fill="#f4f4f4"
   d="m 43.619,228.402 c 0,-14.178 11.491,-25.669 25.668,-25.672 v 0 c 14.175,0.003 25.667,11.494 25.667,25.672 v 0 c 0,14.174 -11.491,25.665 -25.667,25.668 v 0 C 55.11,254.067 43.619,242.576 43.619,228.402 Z m 2.367,0 c 0.025,12.866 10.434,23.272 23.301,23.297 v 0 c 12.865,-0.024 23.274,-10.431 23.298,-23.297 v 0 C 92.561,215.531 82.151,205.126 69.287,205.101 v 0 c -12.868,0.025 -23.276,10.43 -23.301,23.301 z"
   id="path2" />
<path
   fill="#f4f4f4"
   d="m 50.429,228.402 c 0.002,-10.415 8.442,-18.856 18.858,-18.856 v 0 c 10.413,0 18.854,8.441 18.854,18.856 v 0 c 0,10.412 -8.44,18.854 -18.854,18.854 v 0 c -10.416,0.001 -18.856,-8.442 -18.858,-18.854 z m 2.369,0 c 0.017,9.104 7.384,16.468 16.489,16.485 v 0 c 9.104,-0.018 16.47,-7.382 16.486,-16.485 v 0 c -0.017,-9.106 -7.382,-16.471 -16.486,-16.488 v 0 c -9.105,0.018 -16.472,7.382 -16.489,16.488 z"
   id="path4" />
<path
   fill="#f4f4f4"
   d="m 395.859,228.402 c 0.003,-14.179 11.492,-25.668 25.672,-25.671 v 0 c 14.173,0.003 25.664,11.492 25.667,25.671 v 0 c -0.003,14.174 -11.494,25.665 -25.667,25.668 v 0 c -14.179,-0.003 -25.669,-11.494 -25.672,-25.668 z m 2.373,0 c 0.021,12.865 10.428,23.273 23.299,23.296 v 0 c 12.864,-0.022 23.272,-10.431 23.295,-23.296 v 0 c -0.022,-12.87 -10.431,-23.276 -23.295,-23.298 v 0 c -12.871,0.022 -23.277,10.428 -23.299,23.298 z"
   id="path6" />
<path
   fill="#f4f4f4"
   d="m 402.674,228.402 c 0,-10.414 8.44,-18.854 18.853,-18.854 v 0 c 10.415,0 18.858,8.44 18.858,18.854 v 0 c 0,10.413 -8.443,18.854 -18.858,18.854 v 0 c -10.413,0.001 -18.853,-8.441 -18.853,-18.854 z m 2.368,0 c 0.018,9.106 7.383,16.467 16.484,16.484 v 0 c 9.107,-0.018 16.472,-7.378 16.489,-16.484 v 0 c -0.018,-9.106 -7.382,-16.471 -16.489,-16.488 v 0 c -9.101,0.018 -16.466,7.382 -16.484,16.488 z"
   id="path8" />
<path
   fill="#f4f4f4"
   d="m 158.286,275.542 c 0,-3.928 3.18,-7.108 7.107,-7.108 v 0 c 3.925,0 7.106,3.181 7.108,7.108 v 0 c -0.002,3.923 -3.184,7.104 -7.108,7.107 v 0 c -3.927,-0.003 -7.107,-3.184 -7.107,-7.107 z m 2.369,0 c 0.006,2.612 2.122,4.729 4.738,4.737 v 0 c 2.616,-0.009 4.732,-2.125 4.738,-4.737 v 0 c -0.006,-2.619 -2.122,-4.736 -4.738,-4.74 v 0 c -2.616,0.004 -4.732,2.121 -4.738,4.74 z"
   id="path10" />
<path
   fill="#f4f4f4"
   d="m 246.148,289.954 v -1.187 -1.186 h 11.847 c 6.649,-0.012 12.03,-5.393 12.042,-12.04 v 0 c -0.012,-6.655 -5.393,-12.036 -12.042,-12.048 v 0 h -11.847 c -6.651,0.012 -12.034,5.393 -12.044,12.048 v 0 c 0.01,6.647 5.393,12.028 12.044,12.04 v 0 1.186 1.187 c -7.962,-0.002 -14.414,-6.455 -14.414,-14.412 v 0 c 0,-7.963 6.452,-14.417 14.414,-14.417 v 0 h 11.847 c 7.961,0 14.41,6.454 14.414,14.417 v 0 c -0.004,7.957 -6.453,14.41 -14.414,14.412 v 0 z"
   id="path12" />
<path
   fill="#f4f4f4"
   d="m 246.938,283.636 v -1.185 -1.187 h 11.453 c 3.378,-0.007 6.112,-2.738 6.12,-6.119 v 0 c -0.008,-3.383 -2.742,-6.115 -6.12,-6.122 v 0 h -11.453 c -3.38,0.007 -6.115,2.739 -6.123,6.122 v 0 c 0.008,3.381 2.743,6.112 6.123,6.119 v 0 1.187 1.185 c -4.688,0 -8.49,-3.802 -8.49,-8.49 v 0 c 0,-4.691 3.802,-8.49 8.49,-8.493 v 0 h 11.453 c 4.688,0.003 8.487,3.802 8.487,8.493 v 0 c 0,4.688 -3.799,8.49 -8.487,8.49 v 0 z"
   id="path14" />
<path
   fill="#f4f4f4"
   d="m 296.101,289.954 v -1.187 -1.186 h 11.85 c 6.649,-0.012 12.029,-5.393 12.042,-12.04 v 0 c -0.013,-6.655 -5.393,-12.036 -12.042,-12.048 v 0 h -11.85 c -6.65,0.012 -12.032,5.393 -12.042,12.048 v 0 c 0.01,6.647 5.392,12.028 12.042,12.04 v 0 1.186 1.187 c -7.962,-0.002 -14.411,-6.455 -14.414,-14.412 v 0 c 0.003,-7.963 6.452,-14.417 14.414,-14.417 v 0 h 11.85 c 7.959,0 14.412,6.454 14.412,14.417 v 0 c 0,7.957 -6.453,14.41 -14.412,14.412 v 0 z"
   id="path16" />
<path
   fill="#f4f4f4"
   d="m 346.647,289.954 v -1.187 -1.186 h 11.848 c 6.649,-0.012 12.03,-5.393 12.041,-12.04 v 0 c -0.011,-6.655 -5.392,-12.036 -12.041,-12.048 v 0 h -11.848 c -6.652,0.012 -12.032,5.393 -12.045,12.048 v 0 c 0.013,6.647 5.393,12.028 12.045,12.04 v 0 1.186 1.187 c -7.964,-0.002 -14.414,-6.455 -14.414,-14.412 v 0 c 0,-7.963 6.45,-14.417 14.414,-14.417 v 0 h 11.848 c 7.961,0 14.41,6.454 14.413,14.417 v 0 c -0.003,7.957 -6.452,14.41 -14.413,14.412 v 0 z"
   id="path18" />
<path
   fill="#f4f4f4"
   d="m 296.894,283.636 v -1.185 -1.187 h 11.453 c 3.377,-0.007 6.109,-2.738 6.118,-6.119 v 0 c -0.009,-3.383 -2.741,-6.115 -6.118,-6.122 v 0 h -11.453 c -3.383,0.007 -6.117,2.741 -6.126,6.122 v 0 c 0.009,3.378 2.743,6.112 6.126,6.121 v 0 1.185 1.185 c -4.691,0 -8.492,-3.802 -8.492,-8.49 v 0 c 0,-4.691 3.801,-8.49 8.492,-8.493 v 0 h 11.453 c 4.688,0.003 8.485,3.802 8.485,8.493 v 0 c 0,4.688 -3.797,8.49 -8.485,8.49 v 0 z"
   id="path20" />
<path
   fill="#f4f4f4"
   d="m 142.619,223.117 c -6.542,0 -11.845,-5.302 -11.847,-11.845 v 0 -134.264 c 0.002,-6.543 5.305,-11.845 11.847,-11.847 v 0 l 204.556,0.002 c 6.542,0 11.844,5.302 11.848,11.845 v 0 134.265 h -0.004 c 0,6.543 -5.302,11.845 -11.844,11.847 v 0 z M 133.143,77.008 v 134.265 c 0.01,5.232 4.244,9.468 9.477,9.477 v 0 h 204.556 c 5.232,-0.009 9.467,-4.244 9.477,-9.477 v 0 -134.265 c -0.01,-5.233 -4.244,-9.467 -9.477,-9.477 v 0 H 142.619 c -5.232,0.01 -9.467,4.243 -9.476,9.477 z"
   id="path22" />
<path
   fill="#f4f4f4"
   d="m 143.806,215.813 c -3.271,0 -5.923,-2.652 -5.923,-5.923 v 0 -131.499 c 0,-3.272 2.651,-5.923 5.923,-5.923 v 0 H 345.99 c 3.271,0 5.923,2.651 5.923,5.923 v 0 131.499 c 0,3.271 -2.651,5.923 -5.923,5.923 v 0 z M 140.252,78.391 V 209.89 c 0.004,1.96 1.593,3.55 3.554,3.553 v 0 l 202.184,0.002 c 1.959,-0.005 3.55,-1.595 3.554,-3.555 v 0 -131.499 c -0.004,-1.963 -1.595,-3.552 -3.554,-3.555 v 0 H 143.806 c -1.961,0.003 -3.55,1.592 -3.554,3.555 z"
   id="path24" />
<path
   fill="#f4f4f4"
   d="m 114.584,256.584 c -3.273,0 -5.924,-2.65 -5.924,-5.921 v 0 -209.689 c 0,-3.271 2.65,-5.921 5.924,-5.923 v 0 h 260.627 c 3.272,0.002 5.923,2.653 5.923,5.923 v 0 209.689 c 0,3.271 -2.65,5.921 -5.923,5.923 v 0 z m -3.556,-215.61 v 209.689 c 0.006,1.961 1.594,3.549 3.556,3.552 v 0 h 260.627 c 1.96,-0.003 3.549,-1.591 3.554,-3.552 v 0 -209.689 c -0.005,-1.961 -1.594,-3.55 -3.554,-3.553 v 0 H 114.584 c -1.962,0.003 -3.55,1.592 -3.556,3.553 z"
   id="path26" />
<path
   fill="#f4f4f4"
   d="m 21.751,304.07 c -1.31,0 -2.37,-1.059 -2.37,-2.368 v 0 -279.977 c 0,-1.309 1.061,-2.37 2.37,-2.37 v 0 h 445.832 c 1.308,0 2.368,1.058 2.37,2.37 v 0 279.978 h -0.002 c 0,1.31 -1.061,2.368 -2.368,2.371 v 0 z m 0,-282.345 v 279.978 h 445.83 l 0.002,-279.978 c 0,0 0,-0.002 0,0 v 0 L 21.751,21.722 Z"
   id="path28" />
<path
   fill="#f4f4f4"
   d="m 11.287,318.879 c -3.927,0 -7.108,-3.182 -7.108,-7.108 v 0 L 4.176,11.655 C 4.178,7.729 7.36,4.547 11.286,4.547 v 0 h 466.76 c 3.928,0 7.108,3.182 7.108,7.108 v 0 300.115 c 0,3.927 -3.181,7.108 -7.108,7.108 v 0 H 11.287 Z M 6.548,11.655 V 311.77 c 0.005,2.616 2.121,4.734 4.739,4.74 v 0 h 466.76 c 2.618,-0.006 4.733,-2.122 4.739,-4.74 v 0 L 482.784,11.655 C 482.78,9.038 480.665,6.921 478.047,6.916 v 0 H 11.287 C 8.669,6.921 6.553,9.038 6.548,11.655 Z"
   id="path30" />
<path
   fill="#f4f4f4"
   d="m 46.924,93.89 c -3.924,0 -7.106,-3.181 -7.106,-7.107 v 0 -36.726 c 0,-3.927 3.183,-7.107 7.106,-7.107 v 0 h 44.623 c 3.927,0 7.108,3.18 7.108,7.107 v 0 36.726 c 0,3.926 -3.182,7.107 -7.108,7.107 v 0 z M 42.185,50.057 v 36.726 c 0.005,2.615 2.125,4.733 4.739,4.739 v 0 h 44.623 c 2.617,-0.005 4.734,-2.124 4.738,-4.739 v 0 h 0.002 L 96.285,50.057 c -0.004,-2.615 -2.121,-4.734 -4.738,-4.739 v 0 H 46.924 c -2.614,0.005 -4.734,2.124 -4.739,4.739 z"
   id="path32" />
</svg>
