<?xml version="1.0" encoding="UTF-8" standalone="no"?>
<!-- Generator: Adobe Illustrator 13.0.0, SVG Export Plug-In . SVG Version: 6.00 Build 14948)  -->

<svg
   version="1.1"
   id="Layer_3"
   x="0px"
   y="0px"
   width="604"
   height="357"
   viewBox="-5.404 -7.37 604 357"
   enable-background="new -5.404 -7.37 607 367"
   xml:space="preserve"
   sodipodi:docname="genesis.svg"
   inkscape:version="1.2.2 (732a01da63, 2022-12-09)"
   xmlns:inkscape="http://www.inkscape.org/namespaces/inkscape"
   xmlns:sodipodi="http://sodipodi.sourceforge.net/DTD/sodipodi-0.dtd"
   xmlns="http://www.w3.org/2000/svg"
   xmlns:svg="http://www.w3.org/2000/svg"><defs
   id="defs29" /><sodipodi:namedview
   id="namedview27"
   pagecolor="#000000"
   bordercolor="#111111"
   borderopacity="1"
   inkscape:showpageshadow="0"
   inkscape:pageopacity="0"
   inkscape:pagecheckerboard="1"
   inkscape:deskcolor="#d1d1d1"
   showgrid="false"
   inkscape:zoom="2.014827"
   inkscape:cx="303.5"
   inkscape:cy="183.63859"
   inkscape:window-width="1920"
   inkscape:window-height="1009"
   inkscape:window-x="-8"
   inkscape:window-y="-8"
   inkscape:window-maximized="1"
   inkscape:current-layer="Layer_3" />
<path
   id="path3"
   fill="#f4f4f4"
   d="M 292.78,-3.998 C 200.85,-3.998 120.4,27.983 87.81,44.533 70.931,53.107 46.762,69.39 27.717,92.908 8.672,116.422 -5.241,147.232 -1.346,184.622 c 5,47.998 27.068,87.064 50.562,114.66 11.747,13.795 23.846,24.715 34.375,32.469 10.529,7.754 19.426,12.371 25.094,13.469 8.126,1.572 18.219,1.686 28.031,-1.938 9.813,-3.622 19.294,-11.037 26.094,-24.375 13.446,-26.375 21.082,-52.288 48,-66 27.04,-13.775 62.088,-16.375 69.594,-16.375 h 33.375 c 7.508,0 42.555,2.601 69.594,16.375 l 0.189,0.1 c 26.762,13.738 34.399,39.596 47.813,65.906 6.801,13.338 16.281,20.753 26.094,24.375 9.813,3.622 19.906,3.511 28.031,1.938 5.668,-1.097 14.566,-5.715 25.094,-13.469 10.529,-7.754 22.629,-18.673 34.375,-32.469 23.496,-27.592 45.563,-66.658 50.563,-114.66 3.895,-37.392 -10.019,-68.2 -29.063,-91.719 C 547.43,69.396 523.26,53.113 506.389,44.539 473.798,27.99 393.349,-3.992 301.419,-3.992 h -8.625 z m 0,2 h 8.625 c 91.467,0 171.737,31.894 204.059,48.312 16.654,8.459 40.662,24.618 59.469,47.844 18.81,23.225 32.429,53.457 28.597,90.25 -4.949,47.506 -26.804,86.241 -50.097,113.59 -11.645,13.677 -23.635,24.502 -34.028,32.155 -10.396,7.656 -19.279,12.128 -24.281,13.095 -7.844,1.519 -17.592,1.619 -26.969,-1.845 -9.379,-3.461 -18.406,-10.469 -25,-23.404 -13.345,-26.171 -21.188,-52.77 -48.875,-66.875 -27.568,-14.043 -62.551,-16.596 -70.5,-16.596 h -33.376 c -7.947,0 -42.907,2.537 -70.469,16.563 l -0.031,0.031 c -27.69,14.104 -35.533,40.704 -48.875,66.875 -6.595,12.938 -15.622,19.944 -25,23.405 -9.378,3.462 -19.125,3.361 -26.969,1.845 -4.99,-0.972 -13.873,-5.438 -24.269,-13.09 C 74.396,322.497 62.406,311.677 50.76,297.997 27.469,270.646 5.615,231.907 0.666,184.407 -3.167,147.607 10.452,117.377 29.26,94.153 48.067,70.929 72.074,54.77 88.728,46.31 121.059,29.891 201.318,-2.002 292.788,-2.002 Z" />
<path
   id="circle5"
   fill="#f4f4f4"
   d="m 137.53,55.752 c -51.186,0 -92.688,41.502 -92.688,92.688 0,51.186 41.502,92.719 92.688,92.719 51.186,0 92.719,-41.533 92.719,-92.719 0,-51.186 -41.533,-92.688 -92.719,-92.688 z m 0,2 c 50.105,0 90.719,40.583 90.719,90.688 0,50.105 -40.614,90.719 -90.719,90.719 -50.105,0 -90.688,-40.614 -90.688,-90.719 0,-50.105 40.583,-90.688 90.688,-90.688 z" />
<path
   id="circle7"
   fill="#f4f4f4"
   d="m 137.53,75.346 c -40.373,0 -73.094,32.72 -73.094,73.094 0,40.374 32.72,73.125 73.094,73.125 40.373,0 73.125,-32.754 73.125,-73.125 0,-40.373 -32.752,-73.094 -73.125,-73.094 z m 0,2 c 39.293,0 71.125,31.801 71.125,71.094 0,39.293 -31.832,71.125 -71.125,71.125 -39.293,0 -71.094,-31.832 -71.094,-71.125 0,-39.293 31.801,-71.094 71.094,-71.094 z" />
<path
   id="circle9"
   fill="#f4f4f4"
   d="m 137.53,93.627 c -30.273,0 -54.812,24.54 -54.812,54.812 0,30.273 24.54,54.843 54.812,54.843 30.273,0 54.844,-24.57 54.844,-54.843 0,-30.273 -24.571,-54.812 -54.844,-54.812 z m 0,2 c 29.192,0 52.844,23.621 52.844,52.812 0,29.192 -23.652,52.843 -52.844,52.843 -29.192,0 -52.812,-23.651 -52.812,-52.843 0,-29.192 23.621,-52.812 52.812,-52.812 z" />
<path
   id="path11"
   fill="#f4f4f4"
   d="m 127.59,97.752 c -1.82,0 -3.313,1.491 -3.313,3.313 v 27.875 c 0,2.118 -0.623,3.606 -1.688,4.625 -1.064,1.019 -2.667,1.625 -4.844,1.625 H 90.152 c -1.821,0 -3.313,1.492 -3.313,3.313 v 19.906 c 0,1.821 1.492,3.313 3.313,3.313 h 27.594 c 2.021,0 3.638,0.628 4.75,1.719 1.112,1.091 1.781,2.69 1.781,4.813 v 27.595 c 0,1.82 1.492,3.313 3.313,3.313 h 19.906 c 1.82,0 3.313,-1.492 3.313,-3.313 v -27.5 c 0,-2.115 0.527,-3.75 1.531,-4.844 1.003,-1.094 2.577,-1.781 5.094,-1.781 h 27.5 c 1.821,0 3.313,-1.492 3.313,-3.313 v -19.906 c 0,-1.82 -1.492,-3.313 -3.313,-3.313 h -27.469 c -2.622,0 -4.209,-0.671 -5.188,-1.688 -0.979,-1.016 -1.469,-2.507 -1.469,-4.563 v -27.875 c 0,-1.821 -1.492,-3.313 -3.313,-3.313 H 127.59 Z m 0,2 h 19.906 c 0.74,0 1.313,0.571 1.313,1.313 v 27.875 c 0,2.366 0.584,4.466 2.031,5.969 1.447,1.502 3.666,2.281 6.625,2.281 h 27.469 c 0.741,0 1.313,0.573 1.313,1.313 v 19.906 c 0,0.739 -0.572,1.313 -1.313,1.313 h -27.5 c -2.893,0 -5.15,0.865 -6.594,2.438 -1.444,1.573 -2.031,3.751 -2.031,6.188 v 27.5 c 0,0.741 -0.571,1.313 -1.313,1.313 H 127.59 c -0.74,0 -1.313,-0.571 -1.313,-1.313 v -27.594 c 0,-2.557 -0.878,-4.72 -2.406,-6.219 -1.528,-1.499 -3.68,-2.313 -6.125,-2.313 H 90.152 c -0.738,0 -1.313,-0.573 -1.313,-1.313 v -19.906 c 0,-0.739 0.573,-1.313 1.313,-1.313 h 27.594 c 2.545,0 4.707,-0.741 6.219,-2.188 1.511,-1.446 2.313,-3.543 2.313,-6.063 v -27.875 c 0,-0.741 0.573,-1.313 1.312,-1.312 z" />
<path
   id="path13"
   fill="#f4f4f4"
   d="m 148.78,113.092 c 0,12.554 10.781,24.125 24.156,24.125 v -2 c -12.212,0 -22.156,-10.723 -22.156,-22.125 z" />
<path
   id="polygon15"
   fill="#f4f4f4"
   d="m 172.22,112.312 -1.125,0.469 -8.75,3.719 -0.719,0.281 0.563,0.531 5.156,4.844 0.531,0.5 0.281,-0.656 3.594,-8.563 z m -1.844,1.875 -2.875,6.75 -4.063,-3.844 z" />
<path
   id="circle17"
   fill="#f4f4f4"
   d="m 137.53,136.562 c -6.563,0 -11.875,5.312 -11.875,11.875 0,6.563 5.312,11.906 11.875,11.906 6.563,0 11.906,-5.343 11.906,-11.906 0,-6.563 -5.343,-11.875 -11.906,-11.875 z m 0,2 c 5.482,0 9.906,4.393 9.906,9.875 0,5.482 -4.424,9.906 -9.906,9.906 -5.482,0 -9.875,-4.424 -9.875,-9.906 0,-5.482 4.393,-9.875 9.875,-9.875 z" />
<path
   id="path19"
   fill="#f4f4f4"
   d="m 124.31,113.062 c 0,12.212 -10.723,22.156 -22.125,22.156 v 2 c 12.554,0 24.125,-10.781 24.125,-24.156 z" />
<path
   id="polygon21"
   fill="#f4f4f4"
   d="m 101.41,113.782 0.469,1.125 3.719,8.75 0.281,0.719 0.531,-0.563 4.844,-5.156 0.5,-0.531 -0.656,-0.281 -8.563,-3.594 z m 1.875,1.843 6.75,2.875 -3.844,4.063 z" />
<path
   id="path23"
   fill="#f4f4f4"
   d="m 102.16,159.692 v 2 c 12.211,0 22.156,10.721 22.156,22.125 h 2 c 0,-12.555 -10.782,-24.125 -24.156,-24.125 z" />
<path
   id="polygon25"
   fill="#f4f4f4"
   d="m 107.22,174.252 -0.281,0.656 -3.594,8.563 -0.469,1.125 1.125,-0.47 8.75,-3.719 0.719,-0.281 -0.563,-0.53 -5.156,-4.845 z m 0.375,1.72 4.063,3.813 -6.938,2.938 z" />
<path
   id="path27"
   fill="#f4f4f4"
   d="m 172.91,159.692 c -12.554,0 -24.125,10.782 -24.125,24.157 h 2 c 0,-12.211 10.723,-22.157 22.125,-22.157 z" />
<path
   id="polygon29"
   fill="#f4f4f4"
   d="m 169.22,172.532 -0.531,0.563 -4.844,5.156 -0.5,0.531 0.656,0.281 8.563,3.594 1.125,0.469 -0.469,-1.125 -3.719,-8.75 z m -0.344,1.813 2.938,6.938 -6.75,-2.875 z" />
<path
   id="path31"
   fill="#f4f4f4"
   d="m 501.531,77.908 c -4.07,0.077 -8.398,0.299 -12.906,0.688 -18.037,1.553 -39,5.863 -58.375,15.031 -14.463,6.843 -30.896,17.178 -45,27.969 -14.105,10.79 -25.869,21.996 -31,30.844 -5.152,8.884 -5.805,20.51 -3.844,31.53 1.959,11.021 6.521,21.449 12.188,28 11.238,12.996 30.594,20.326 55.281,13.721 12.328,-3.299 20.221,-8.209 28.406,-13.938 8.184,-5.729 16.672,-12.296 30.5,-19.125 27.705,-13.683 51.271,-18.778 64.094,-22.938 6.48,-2.103 13.213,-5.741 18.344,-12.375 5.131,-6.635 8.64,-16.227 8.813,-30.125 0.176,-14.02 -5.656,-24.874 -13.406,-32.625 -7.75,-7.751 -17.39,-12.442 -25.126,-14.376 -5.821,-1.457 -15.762,-2.513 -27.969,-2.281 z m 0.062,2.031 c 12.095,-0.219 21.894,0.809 27.404,2.188 7.375,1.843 16.772,6.397 24.221,13.844 7.445,7.447 12.98,17.729 12.812,31.188 -0.168,13.577 -3.545,22.693 -8.375,28.938 -4.828,6.245 -11.146,9.667 -17.375,11.688 -12.568,4.075 -36.357,9.235 -64.22,22.968 l -0.155,0.094 c -13.99,6.91 -22.652,13.561 -30.781,19.25 -8.129,5.691 -15.691,10.432 -27.75,13.656 -24.082,6.445 -42.508,-0.673 -53.25,-13.094 -5.322,-6.155 -9.846,-16.329 -11.75,-27.031 -1.902,-10.701 -1.213,-21.9 3.594,-30.188 4.828,-8.324 16.502,-19.541 30.5,-30.25 13.998,-10.709 30.338,-20.989 44.625,-27.75 19.09,-9.034 39.867,-13.306 57.719,-14.844 4.464,-0.384 8.751,-0.583 12.781,-0.657 z" />
<path
   id="path33"
   fill="#f4f4f4"
   d="m 516.621,90.502 c -8.469,-0.256 -17.479,1.42 -26.219,4.813 -23.015,8.93 -51.828,20.256 -65.347,27.188 -10.75,5.514 -25.024,11.353 -37.153,19.094 -12.131,7.741 -22.207,17.45 -24.156,30.75 -3.871,26.396 19.443,45.891 44.094,41.313 12.195,-2.266 20.463,-7.176 29,-13.125 8.535,-5.949 17.387,-12.911 31.031,-19.563 13.656,-6.658 28.184,-11.455 40.875,-15.313 12.688,-3.858 23.488,-6.779 29.844,-9.781 6.484,-3.063 12.375,-9.775 15.25,-18.219 2.873,-8.443 2.689,-18.633 -3.125,-28.5 -5.815,-9.871 -15.141,-15.644 -25.844,-17.75 -2.676,-0.526 -5.428,-0.821 -8.25,-0.907 z m -0.063,2 c 2.722,0.081 5.375,0.371 7.938,0.875 10.246,2.016 18.981,7.418 24.5,16.781 5.518,9.366 5.676,18.919 2.969,26.875 -2.709,7.956 -8.342,14.286 -14.219,17.062 -6.008,2.837 -16.838,5.756 -29.563,9.625 -12.725,3.869 -27.368,8.701 -41.188,15.438 -13.834,6.743 -22.851,13.851 -31.313,19.75 -8.465,5.899 -16.373,10.582 -28.219,12.78 -23.432,4.353 -45.434,-13.91 -41.75,-39.03 1.826,-12.458 11.336,-21.771 23.25,-29.375 11.914,-7.603 26.121,-13.421 37,-19 13.271,-6.807 42.18,-18.166 65.188,-27.094 8.518,-3.305 17.245,-4.931 25.407,-4.687 z" />
<path
   id="circle35"
   fill="#f4f4f4"
   d="m 401.089,145.782 c -16.897,0 -30.625,13.725 -30.625,30.625 0,16.898 13.728,30.625 30.625,30.625 16.9,0 30.625,-13.727 30.625,-30.625 0,-16.9 -13.724,-30.625 -30.625,-30.625 z m 0,2 c 15.82,0 28.625,12.806 28.625,28.625 0,15.818 -12.805,28.625 -28.625,28.625 -15.817,0 -28.625,-12.807 -28.625,-28.625 0,-15.819 12.807,-28.625 28.625,-28.625 z" />
<path
   id="circle37"
   fill="#f4f4f4"
   d="m 401.089,151.442 c -13.77,0 -24.938,11.198 -24.938,24.969 0,13.77 11.168,24.969 24.938,24.969 13.771,0 24.969,-11.197 24.969,-24.969 0,-13.771 -11.197,-24.969 -24.969,-24.969 z m 0,2 c 12.691,0 22.969,10.279 22.969,22.969 0,12.689 -10.276,22.969 -22.969,22.969 -12.688,0 -22.938,-10.279 -22.938,-22.969 10e-4,-12.69 10.249,-22.969 22.938,-22.969 z" />
<path
   id="circle39"
   fill="#f4f4f4"
   d="m 457.781,116.442 c -16.9,0 -30.625,13.694 -30.625,30.594 0,16.9 13.725,30.625 30.625,30.625 16.897,0 30.594,-13.726 30.594,-30.625 0,-16.899 -13.696,-30.594 -30.594,-30.594 z m 0,2 c 15.817,0 28.594,12.774 28.594,28.594 0,15.819 -12.775,28.625 -28.594,28.625 -15.82,0 -28.625,-12.807 -28.625,-28.625 0,-15.818 12.804,-28.594 28.625,-28.594 z" />
<path
   id="circle41"
   fill="#f4f4f4"
   d="m 457.781,122.092 c -13.771,0 -24.972,11.167 -24.972,24.938 0,13.771 11.199,24.969 24.972,24.969 13.77,0 24.938,-11.198 24.938,-24.969 0,-13.771 -11.169,-24.938 -24.938,-24.938 z m 0,2 c 12.688,0 22.938,10.247 22.938,22.938 0,12.689 -10.248,22.969 -22.938,22.969 -12.691,0 -22.972,-10.279 -22.972,-22.969 10e-4,-12.69 10.28,-22.938 22.972,-22.938 z" />
<path
   id="circle43"
   fill="#f4f4f4"
   d="m 517.781,94.783 c -16.902,0 -30.625,13.724 -30.625,30.625 0,16.901 13.723,30.625 30.625,30.625 16.899,0 30.625,-13.724 30.625,-30.625 0,-16.901 -13.725,-30.625 -30.625,-30.625 z m 0,2 c 15.817,0 28.625,12.805 28.625,28.625 0,15.82 -12.808,28.625 -28.625,28.625 -15.82,0 -28.625,-12.805 -28.625,-28.625 0,-15.82 12.804,-28.625 28.625,-28.625 z" />
<path
   id="circle45"
   fill="#f4f4f4"
   d="m 517.781,100.442 c -13.771,0 -24.939,11.198 -24.939,24.969 0,13.771 11.168,24.969 24.939,24.969 13.77,0 24.969,-11.198 24.969,-24.969 0,-13.771 -11.2,-24.969 -24.969,-24.969 z m 0,2 c 12.688,0 22.969,10.279 22.969,22.969 0,12.69 -10.279,22.969 -22.969,22.969 -12.691,0 -22.939,-10.279 -22.939,-22.969 0,-12.69 10.247,-22.969 22.939,-22.969 z" />
<path
   id="path47"
   fill="#f4f4f4"
   d="m 440.91,46.346 c -1.877,-0.129 -3.799,0.131 -5.688,0.781 l -41.1,14.125 c -7.549,2.6 -11.57,10.855 -8.969,18.406 2.602,7.551 10.854,11.602 18.405,9 l 41.101,-14.156 c 7.551,-2.601 11.569,-10.855 8.969,-18.406 -1.951,-5.662 -7.089,-9.362 -12.718,-9.75 z m -0.125,2 c 4.854,0.329 9.252,3.51 10.938,8.406 2.25,6.529 -1.188,13.595 -7.719,15.844 l -41.09,14.156 c -6.529,2.25 -13.594,-1.189 -15.844,-7.719 -2.248,-6.529 1.19,-13.627 7.719,-15.875 l 41.09,-14.156 c 1.632,-0.562 3.288,-0.766 4.906,-0.656 z" />
<path
   id="path49"
   fill="#f4f4f4"
   d="m 439.839,52.846 c -1.063,-0.074 -2.18,0.038 -3.25,0.406 L 396.81,66.971 c -4.276,1.473 -6.536,6.16 -5.063,10.438 1.473,4.278 6.16,6.568 10.438,5.094 l 39.75,-13.719 c 4.277,-1.473 6.566,-6.16 5.095,-10.438 -1.105,-3.208 -3.996,-5.278 -7.188,-5.5 z m -0.156,1.968 c 2.416,0.163 4.628,1.746 5.47,4.188 1.121,3.256 -0.588,6.785 -3.845,7.906 l -39.78,13.688 c -3.254,1.122 -6.785,-0.587 -7.906,-3.844 -1.121,-3.255 0.59,-6.785 3.844,-7.906 l 39.791,-13.688 c 0.814,-0.28 1.633,-0.398 2.438,-0.344 z" />
</svg>
