<?xml version="1.0" encoding="UTF-8" standalone="no"?>
<!-- Generator: Adobe Illustrator 13.0.0, SVG Export Plug-In . SVG Version: 6.00 Build 14948)  -->

<svg
   version="1.2"
   id="Layer_3"
   x="0px"
   y="0px"
   width="318"
   height="321.26001"
   viewBox="0 0 317.99999 321.26"
   xml:space="preserve"
   sodipodi:docname="kodi.svg"
   inkscape:version="1.2.2 (732a01da63, 2022-12-09)"
   xmlns:inkscape="http://www.inkscape.org/namespaces/inkscape"
   xmlns:sodipodi="http://sodipodi.sourceforge.net/DTD/sodipodi-0.dtd"
   xmlns="http://www.w3.org/2000/svg"
   xmlns:svg="http://www.w3.org/2000/svg"
   xmlns:rdf="http://www.w3.org/1999/02/22-rdf-syntax-ns#"
   xmlns:cc="http://creativecommons.org/ns#"
   xmlns:dc="http://purl.org/dc/elements/1.1/"
   xmlns:ns="&amp;ns_sfw;"><defs
   id="defs16" /><sodipodi:namedview
   id="namedview14"
   pagecolor="#000000"
   bordercolor="#111111"
   borderopacity="1"
   inkscape:showpageshadow="0"
   inkscape:pageopacity="0"
   inkscape:pagecheckerboard="1"
   inkscape:deskcolor="#d1d1d1"
   showgrid="false"
   inkscape:zoom="2.0445042"
   inkscape:cx="299.58363"
   inkscape:cy="175.10357"
   inkscape:window-width="1920"
   inkscape:window-height="1009"
   inkscape:window-x="-8"
   inkscape:window-y="-8"
   inkscape:window-maximized="1"
   inkscape:current-layer="Layer_3" />
<metadata
   id="metadata55">
	<rdf:RDF>
		<cc:Work
   rdf:about="">
			<dc:format>image/svg+xml</dc:format>
			<dc:type
   rdf:resource="http://purl.org/dc/dcmitype/StillImage" />
			
		</cc:Work>
	</rdf:RDF>
	<ns:sfw>
		<ns:slices />
		<ns:sliceSourceBounds
   x="804.116"
   y="-7652"
   width="310.463"
   height="16383"
   bottomLeftOrigin="true" />
	</ns:sfw>
</metadata>
<g
   id="g11"
   transform="translate(-138,-12)">
	<path
   fill="#f4f4f4"
   d="m 390.887,236.751 c -3.419,0 -6.711,-1.672 -9.7,-4.674 v 0 c -16.063,-16.074 -32.129,-32.146 -48.184,-48.224 v 0 c -2.918,-2.915 -4.54,-6.164 -4.54,-9.522 v 0 c 0,-3.367 1.624,-6.623 4.558,-9.543 v 0 c 16.146,-16.17 32.297,-32.337 48.45,-48.497 v 0 c 2.822,-2.835 6.071,-4.39 9.403,-4.386 v 0 c 3.332,-0.004 6.578,1.547 9.405,4.38 v 0 c 15.659,15.666 31.295,31.348 46.979,46.978 v 0 c 2.349,2.345 4.738,4.902 5.851,8.53 v 0 l 0.065,0.213 v 4.449 0.223 l -0.067,0.219 c -1.121,3.628 -3.523,6.172 -5.868,8.514 v 0 c -15.593,15.541 -31.14,31.133 -46.701,46.711 v 0 c -2.972,2.979 -6.247,4.635 -9.646,4.633 v 0 c -10e-4,-0.004 -0.003,-0.004 -0.005,-0.004 z m -7.294,-118.34 c -16.152,16.16 -32.305,32.327 -48.453,48.497 v 0 c -2.559,2.567 -3.673,5.05 -3.676,7.421 v 0 c 0.003,2.366 1.115,4.844 3.661,7.402 v 0 c 16.056,16.078 32.119,32.148 48.185,48.225 v 0 c 2.645,2.642 5.176,3.797 7.577,3.797 v 0 c 2.394,-0.004 4.903,-1.142 7.527,-3.756 v 0 c 15.562,-15.576 31.109,-31.17 46.707,-46.717 v 0 c 2.256,-2.238 4.161,-4.354 5.053,-7.061 v 0 -3.76 c -0.883,-2.713 -2.78,-4.836 -5.032,-7.076 v 0 c -15.688,-15.634 -31.325,-31.321 -46.982,-46.98 v 0 c -2.438,-2.427 -4.903,-3.5 -7.284,-3.504 v 0 c -2.383,0.008 -4.85,1.084 -7.283,3.512 z"
   id="path3" />
	<path
   fill="#f4f4f4"
   d="m 296.401,328.473 c -3.618,-1.157 -6.12,-3.603 -8.44,-5.929 v 0 c -15.527,-15.606 -31.102,-31.166 -46.665,-46.746 v 0 c -2.967,-2.965 -4.621,-6.233 -4.619,-9.619 v 0 c -0.002,-3.381 1.643,-6.641 4.604,-9.588 v 0 c 16.104,-16.118 32.208,-32.236 48.318,-48.354 v 0 c 2.875,-2.883 6.145,-4.472 9.504,-4.468 v 0 c 3.34,-0.004 6.586,1.563 9.435,4.422 v 0 c 16.106,16.118 32.213,32.235 48.315,48.358 v 0 c 2.959,2.955 4.599,6.248 4.597,9.65 v 0 c 0.002,3.385 -1.624,6.657 -4.56,9.588 v 0 c -15.695,15.715 -31.416,31.403 -47.072,47.147 v 0 c -2.276,2.285 -4.791,4.544 -8.324,5.548 v 0 l -0.201,0.057 h -2.936 v 0.553 z m 0.455,-1.429 0.453,-1.43 z m 4.013,-1.502 c 2.623,-0.793 4.673,-2.555 6.821,-4.721 v 0 c 15.662,-15.746 31.385,-31.439 47.076,-47.15 v 0 c 2.56,-2.571 3.682,-5.073 3.682,-7.469 v 0 c 0,-2.408 -1.134,-4.935 -3.718,-7.529 v 0 c -16.104,-16.123 -32.207,-32.24 -48.316,-48.358 v 0 c -2.467,-2.458 -4.933,-3.542 -7.312,-3.544 v 0 c -2.395,0.002 -4.886,1.104 -7.381,3.59 v 0 c -16.112,16.116 -32.215,32.234 -48.32,48.352 v 0 c -2.592,2.603 -3.722,5.094 -3.722,7.469 v 0 c 0,2.378 1.136,4.881 3.741,7.498 v 0 c 15.558,15.578 31.138,31.14 46.669,46.75 v 0 c 2.235,2.259 4.322,4.199 6.999,5.113 v 0 h 3.781 z"
   id="path5" />
	<path
   fill="#f4f4f4"
   d="m 241.006,199.643 c -0.809,-0.896 -1.352,-2.07 -1.729,-3.496 v 0 c -0.406,-1.573 -0.421,-3.138 -0.425,-4.552 v 0 c -0.015,-11.579 -0.017,-23.158 -0.017,-34.735 v 0 c 0,-7.048 0,-14.095 0.002,-21.14 v 0 h -0.002 c 0,-9.89 0.049,-19.774 0.049,-29.649 v 0 c 0,-8.035 -0.033,-16.064 -0.151,-24.086 v 0 c -0.002,-0.153 -0.004,-0.307 -0.004,-0.462 v 0 c -0.035,-5.21 1.438,-9.77 5.647,-13.357 v 0 c 3.088,-2.666 5.89,-5.812 8.914,-8.844 v 0 c 11.805,-11.817 23.61,-23.637 35.421,-35.45 v 0 c 2.953,-2.961 6.222,-4.605 9.606,-4.603 v 0 c 3.388,-0.002 6.655,1.646 9.606,4.605 v 0 c 16.063,16.068 32.124,32.141 48.187,48.215 v 0 c 2.944,2.939 4.573,6.222 4.571,9.615 v 0 c 0.002,3.395 -1.631,6.68 -4.575,9.623 v 0 c -18.994,19.017 -37.995,38.033 -56.994,57.048 v 0 c -16.776,16.795 -33.551,33.589 -50.333,50.38 v 0 c -1.434,1.424 -2.945,2.328 -4.626,2.349 v 0 c -0.013,0 -0.025,0 -0.038,0 v 0 c -1.186,-0.002 -2.324,-0.574 -3.109,-1.461 z m 0.828,-42.784 c 0,11.577 0.002,23.153 0.017,34.733 v 0 c -0.002,1.373 0.04,2.699 0.33,3.795 v 0 c 0.288,1.113 0.69,1.854 1.047,2.24 v 0 c 0.371,0.383 0.595,0.459 0.928,0.473 v 0 c 0.458,0.02 1.382,-0.336 2.504,-1.469 v 0 c 16.781,-16.791 33.556,-33.585 50.333,-50.379 v 0 c 18.999,-19.016 38.001,-38.031 56.994,-57.048 v 0 c 2.566,-2.584 3.696,-5.099 3.696,-7.502 v 0 c 0,-2.402 -1.126,-4.916 -3.692,-7.494 v 0 C 337.928,58.133 321.869,42.061 305.804,25.993 v 0 c -2.602,-2.593 -5.103,-3.725 -7.483,-3.725 v 0 c -2.383,0 -4.884,1.129 -7.487,3.722 v 0 c -11.809,11.813 -23.612,23.633 -35.419,35.45 v 0 c -2.943,2.945 -5.789,6.153 -9.075,8.995 v 0 c -3.49,3.057 -4.57,6.337 -4.607,11.085 v 0 c 0,0.135 0.002,0.274 0.004,0.417 v 0 c 0.116,8.046 0.149,16.089 0.149,24.132 v 0 c 0,9.886 -0.047,19.77 -0.047,29.649 v 0 c -0.002,7.047 -0.005,14.095 -0.005,21.141 z"
   id="path7" />
	<path
   fill="#f4f4f4"
   d="m 194.705,230.677 c -7.567,-7.553 -15.109,-15.125 -22.658,-22.688 v 0 c -8.727,-8.74 -17.456,-17.48 -26.179,-26.229 v 0 c -2.057,-2.057 -3.161,-4.62 -3.157,-7.213 v 0 c -0.004,-2.578 1.083,-5.129 3.122,-7.18 v 0 c 16.062,-16.247 32.13,-32.493 48.2,-48.731 v 0 c 0.383,-0.381 0.831,-0.924 1.446,-1.441 v 0 c 0.604,-0.51 1.487,-1.032 2.597,-1.028 v 0 c 0.468,-0.002 0.957,0.093 1.423,0.271 v 0 c 2.434,0.91 3.368,3.203 3.61,5.127 v 0 c 0.155,1.102 0.286,2.258 0.29,3.447 v 0 c 0.01,10.283 0.01,20.563 0.01,30.844 v 0 c 0,5.731 0,11.462 0,17.193 v 0 h 0.015 v 1.5 c 0,7.482 0.004,14.964 0.004,22.447 v 0 c 0,8.963 -0.008,17.93 -0.038,26.901 v 0 c -0.01,1.714 -0.273,3.528 -0.916,5.196 v 0 c -0.688,1.893 -2.117,3.404 -4.056,3.404 v 0 c -1.405,-0.01 -2.626,-0.744 -3.713,-1.82 z M 197.4,119.501 c -0.337,0.276 -0.742,0.744 -1.232,1.245 v 0 c -16.072,16.24 -32.139,32.484 -48.201,48.733 v 0 c -1.549,1.57 -2.251,3.331 -2.256,5.068 v 0 c 0.004,1.746 0.717,3.521 2.283,5.097 v 0 c 8.721,8.745 17.45,17.485 26.177,26.226 v 0 c 7.55,7.563 15.092,15.135 22.653,22.684 v 0 c 0.762,0.77 1.359,0.962 1.597,0.949 v 0 c 0.242,0 0.692,-0.117 1.257,-1.483 v 0 c 0.479,-1.229 0.71,-2.724 0.714,-4.13 v 0 c 0.029,-8.967 0.036,-17.928 0.036,-26.891 v 0 c 0,-6.981 -0.004,-13.967 -0.004,-20.947 v 0 h -0.012 v -1.5 c 0,-6.231 0,-12.462 0,-18.693 v 0 c 0,-10.28 -0.002,-20.561 -0.011,-30.839 v 0 c -0.002,-0.97 -0.112,-1.989 -0.261,-3.026 v 0 c -0.251,-1.527 -0.677,-2.351 -1.705,-2.747 v 0 c -0.172,-0.064 -0.277,-0.077 -0.358,-0.077 v 0 c -0.161,0 -0.329,0.05 -0.677,0.331 z"
   id="path9" />
</g>
</svg>
