<?xml version="1.0" encoding="UTF-8" standalone="no"?>
<!-- Generator: Adobe Illustrator 13.0.0, SVG Export Plug-In . SVG Version: 6.00 Build 14948)  -->

<svg
   version="1.2"
   id="Layer_3"
   x="0px"
   y="0px"
   width="241"
   height="328.26001"
   viewBox="0 0 240.99999 328.26"
   xml:space="preserve"
   sodipodi:docname="macintosh.svg"
   inkscape:version="1.2.2 (732a01da63, 2022-12-09)"
   xmlns:inkscape="http://www.inkscape.org/namespaces/inkscape"
   xmlns:sodipodi="http://sodipodi.sourceforge.net/DTD/sodipodi-0.dtd"
   xmlns="http://www.w3.org/2000/svg"
   xmlns:svg="http://www.w3.org/2000/svg"
   xmlns:rdf="http://www.w3.org/1999/02/22-rdf-syntax-ns#"
   xmlns:cc="http://creativecommons.org/ns#"
   xmlns:dc="http://purl.org/dc/elements/1.1/"
   xmlns:ns="&amp;ns_sfw;"><defs
   id="defs20" /><sodipodi:namedview
   id="namedview18"
   pagecolor="#000000"
   bordercolor="#111111"
   borderopacity="1"
   inkscape:showpageshadow="0"
   inkscape:pageopacity="0"
   inkscape:pagecheckerboard="1"
   inkscape:deskcolor="#d1d1d1"
   showgrid="false"
   inkscape:zoom="2.0445042"
   inkscape:cx="299.58363"
   inkscape:cy="175.10357"
   inkscape:window-width="1920"
   inkscape:window-height="1009"
   inkscape:window-x="-8"
   inkscape:window-y="-8"
   inkscape:window-maximized="1"
   inkscape:current-layer="Layer_3" />
<metadata
   id="metadata55">
	<rdf:RDF>
		<cc:Work
   rdf:about="">
			<dc:format>image/svg+xml</dc:format>
			<dc:type
   rdf:resource="http://purl.org/dc/dcmitype/StillImage" />
			
		</cc:Work>
	</rdf:RDF>
	<ns:sfw>
		<ns:slices />
		<ns:sliceSourceBounds
   x="842.027"
   y="-7652"
   width="233.659"
   height="16383"
   bottomLeftOrigin="true" />
	</ns:sfw>
</metadata>
<path
   id="path3"
   fill="#f4f4f4"
   d="m 29.004,32.494 c -2.364,0 -4.299,1.936 -4.299,4.299 v 138.192 c 0,2.364 1.936,4.301 4.299,4.301 h 184.914 c 2.363,0 4.276,-1.937 4.276,-4.301 V 36.793 c 0,-2.363 -1.912,-4.299 -4.276,-4.299 z m 0,1.433 h 184.914 c 1.589,0 2.843,1.276 2.843,2.866 v 138.192 c 0,1.59 -1.254,2.866 -2.843,2.866 H 29.004 c -1.59,0 -2.866,-1.276 -2.866,-2.866 V 36.793 c 0,-1.589 1.277,-2.866 2.866,-2.866 z" />
<path
   id="path5"
   fill="#f4f4f4"
   d="m 16.667,15.187 c -2.364,0 -4.299,1.935 -4.299,4.299 V 272.8 c 0,2.365 1.935,4.3 4.299,4.3 h 209.568 c 2.362,0 4.299,-1.935 4.299,-4.3 V 19.485 c 0,-2.364 -1.937,-4.299 -4.299,-4.299 H 16.667 Z m 0,1.432 h 209.568 c 1.59,0 2.865,1.276 2.865,2.866 V 272.8 c 0,1.591 -1.275,2.865 -2.865,2.865 H 16.667 c -1.589,0 -2.866,-1.274 -2.866,-2.865 V 19.485 c 0,-1.589 1.277,-2.866 2.866,-2.866 z" />
<path
   id="path7"
   fill="#f4f4f4"
   d="M 14.876,4.059 C 9.218,4.059 4.622,8.655 4.622,14.313 v 256.904 c 0,5.658 4.597,10.254 10.254,10.254 h 213.149 c 5.659,0 10.255,-4.597 10.255,-10.254 V 14.32 c 0,-5.663 -4.592,-10.26 -10.253,-10.26 H 14.877 Z m 0,1.433 h 213.149 c 4.884,0 8.821,3.937 8.821,8.821 V 271.21 c 0,4.885 -3.939,8.822 -8.821,8.822 H 14.876 c -4.882,0.007 -8.82,-3.934 -8.82,-8.813 V 14.314 c 0,-4.883 3.938,-8.821 8.82,-8.822 z" />
<path
   id="path9"
   fill="#f4f4f4"
   d="m 25.176,230.62 c -1.046,0 -1.903,0.881 -1.903,1.927 v 13.412 c 0,1.044 0.857,1.903 1.903,1.903 h 13.523 c 1.047,0 1.903,-0.859 1.903,-1.903 v -13.412 c 0,-1.046 -0.857,-1.927 -1.903,-1.927 z m 0,1.434 h 13.523 c 0.271,0 0.47,0.221 0.47,0.493 v 13.412 c 0,0.27 -0.199,0.47 -0.47,0.47 H 25.176 c -0.271,0 -0.47,-0.2 -0.47,-0.47 v -13.412 c 0,-0.273 0.199,-0.493 0.47,-0.493 z" />
<path
   id="path11"
   fill="#f4f4f4"
   d="m 175.881,293.155 c -1.927,0 -3.493,1.591 -3.493,3.515 v 15.001 c 0,1.924 1.566,3.494 3.493,3.494 h 32.263 c 1.925,0 3.491,-1.57 3.491,-3.494 V 296.67 c 0,-1.924 -1.566,-3.515 -3.491,-3.515 z m 0,1.433 h 32.263 c 1.15,0 2.06,0.932 2.06,2.082 v 15.001 c 0,1.15 -0.909,2.06 -2.06,2.06 h -32.263 c -1.15,0 -2.061,-0.909 -2.061,-2.06 V 296.67 c 0,-1.15 0.91,-2.082 2.061,-2.082 z" />
<path
   id="path13"
   fill="#f4f4f4"
   d="m 195.268,296.199 c -0.826,0 -1.501,0.674 -1.501,1.5 v 11.599 c 0,0.828 0.675,1.5 1.501,1.5 h 10.635 c 0.827,0 1.523,-0.672 1.523,-1.5 v -11.599 c 0,-0.826 -0.698,-1.5 -1.523,-1.5 z m 0,1.435 h 10.635 c 0.054,0 0.09,0.015 0.09,0.065 v 11.599 c 0,0.052 -0.038,0.067 -0.09,0.067 h -10.635 c -0.052,0 -0.067,-0.016 -0.067,-0.067 v -11.599 c -0.001,-0.051 0.015,-0.065 0.067,-0.065 z" />
<path
   id="path15"
   fill="#f4f4f4"
   d="m 182.6,208.854 c -2.582,0 -4.701,2.118 -4.701,4.703 v 0.648 c 0,0.224 -0.05,0.376 -0.112,0.446 -0.062,0.073 -0.157,0.158 -0.56,0.158 h -60.631 c -1.705,0 -3.112,1.408 -3.112,3.112 v 6.649 c 0,1.706 1.408,3.112 3.112,3.112 h 60.631 c 0.451,0 0.547,0.07 0.583,0.113 0.033,0.041 0.089,0.229 0.089,0.625 v 1.321 c 0,2.583 2.119,4.702 4.701,4.702 h 33.205 c 2.582,0 4.701,-2.119 4.701,-4.702 v -16.187 c 0,-2.585 -2.117,-4.703 -4.701,-4.703 H 182.6 Z m 0,1.433 h 33.205 c 1.81,0 3.268,1.461 3.268,3.271 v 16.187 c 0,1.81 -1.458,3.269 -3.268,3.269 H 182.6 c -1.81,0 -3.269,-1.459 -3.269,-3.269 v -1.321 c 0,-0.531 -0.045,-1.067 -0.426,-1.521 -0.379,-0.456 -1.003,-0.651 -1.679,-0.651 h -60.631 c -0.93,0 -1.679,-0.747 -1.679,-1.679 v -6.649 c 0,-0.931 0.749,-1.68 1.679,-1.68 h 60.631 c 0.691,0 1.296,-0.226 1.657,-0.649 0.36,-0.424 0.447,-0.949 0.447,-1.388 v -0.648 c 10e-4,-1.812 1.461,-3.272 3.27,-3.272 z" />
<path
   id="path17"
   fill="#f4f4f4"
   d="m 123.441,217.747 c -0.827,0 -1.5,0.673 -1.5,1.499 v 3.718 c 0,0.825 0.673,1.499 1.5,1.499 h 61.369 c 0.245,0 0.256,0.057 0.246,0.046 -0.009,-0.013 0.046,0.057 0.046,0.313 v 5.888 c 0,0.825 0.674,1.522 1.499,1.522 h 23.601 c 0.825,0 1.5,-0.696 1.5,-1.522 v -11.464 c 0,-0.826 -0.675,-1.499 -1.5,-1.499 h -86.758 z m 0,1.433 h 86.758 c 0.052,0 0.066,0.015 0.066,0.066 v 11.464 c 0,0.052 -0.015,0.089 -0.066,0.089 h -23.601 c -0.051,0 -0.066,-0.036 -0.066,-0.089 v -5.888 c 0,-0.439 -0.077,-0.91 -0.403,-1.276 -0.323,-0.368 -0.837,-0.516 -1.321,-0.516 h -61.369 c -0.051,0 -0.068,-0.017 -0.068,-0.066 v -3.718 c 0,-0.052 0.017,-0.066 0.068,-0.066 z" />
<path
   id="circle19"
   fill="#f4f4f4"
   d="m 216.003,224.331 c -1.018,0 -1.859,0.818 -1.859,1.834 0,1.019 0.842,1.86 1.859,1.86 1.017,0 1.858,-0.842 1.858,-1.86 0,-1.016 -0.84,-1.834 -1.858,-1.834 z" />
<path
   id="path21"
   fill="#f4f4f4"
   d="m 21.033,280.437 -1.208,0.784 c 2.469,3.905 6.82,6.493 11.777,6.493 4.954,0 9.329,-2.592 11.8,-6.493 l -1.209,-0.761 c -2.217,3.5 -6.136,5.82 -10.59,5.82 -4.458,0 -8.353,-2.338 -10.57,-5.843 z" />
<path
   id="path23_1_"
   d="M 31.602,282.409" />
<path
   id="path23_2_"
   fill="#f4f4f4"
   d="m 25.668,280.999 c 1.616,1.33 3.678,2.127 5.934,2.127 2.28,0 4.377,-0.815 6,-2.173" />
<path
   id="path25"
   fill="#f4f4f4"
   d="m 9.995,279.563 v 40.369 c 0,2.364 1.936,4.276 4.299,4.276 h 214.339 c 2.364,0 4.298,-1.912 4.298,-4.276 V 279.967 H 231.5 v 39.965 c 0,1.589 -1.277,2.843 -2.866,2.843 H 14.294 c -1.59,0 -2.867,-1.254 -2.867,-2.843 v -40.369 z" />
<path
   id="path27"
   fill="#f4f4f4"
   d="m 122.546,36.188 c -24.74,0.04 -49.859,1.377 -76.275,3.895 h -0.022 c -8.093,0.952 -14.464,7.604 -14.464,15.853 v 99.883 c 0,8.25 6.372,14.921 14.464,15.875 h 0.022 c 52.839,5.037 100.427,5.354 150.395,0 8.11,-0.869 14.464,-7.626 14.464,-15.875 V 55.936 c 0,-8.248 -6.354,-14.983 -14.464,-15.853 -24.983,-2.677 -49.363,-3.936 -74.111,-3.896 z m 0,1.433 c 24.695,-0.04 49.022,1.224 73.953,3.896 7.413,0.794 13.188,6.907 13.188,14.419 v 99.883 c 0,7.514 -5.775,13.647 -13.188,14.441 -49.855,5.345 -97.325,5.026 -150.078,0 -0.007,-0.001 -0.016,0 -0.022,0 -7.402,-0.881 -13.188,-6.936 -13.188,-14.441 V 55.936 c 0,-7.505 5.785,-13.538 13.188,-14.419 0.007,0 0.015,0 0.022,0 26.373,-2.514 51.436,-3.856 76.125,-3.896 z" />
</svg>
