<?xml version="1.0" encoding="UTF-8" standalone="no"?>
<!-- Generator: Adobe Illustrator 13.0.0, SVG Export Plug-In . SVG Version: 6.00 Build 14948)  -->

<svg
   version="1.2"
   id="Layer_3"
   x="0px"
   y="0px"
   width="544.18903"
   height="229.25999"
   viewBox="0 0 544.189 229.25998"
   xml:space="preserve"
   sodipodi:docname="mastersystem.svg"
   inkscape:version="1.2.2 (732a01da63, 2022-12-09)"
   xmlns:inkscape="http://www.inkscape.org/namespaces/inkscape"
   xmlns:sodipodi="http://sodipodi.sourceforge.net/DTD/sodipodi-0.dtd"
   xmlns="http://www.w3.org/2000/svg"
   xmlns:svg="http://www.w3.org/2000/svg"
   xmlns:rdf="http://www.w3.org/1999/02/22-rdf-syntax-ns#"
   xmlns:cc="http://creativecommons.org/ns#"
   xmlns:dc="http://purl.org/dc/elements/1.1/"
   xmlns:ns="&amp;ns_sfw;"><defs
   id="defs300" /><sodipodi:namedview
   id="namedview298"
   pagecolor="#000000"
   bordercolor="#111111"
   borderopacity="1"
   inkscape:showpageshadow="0"
   inkscape:pageopacity="0"
   inkscape:pagecheckerboard="1"
   inkscape:deskcolor="#d1d1d1"
   showgrid="false"
   inkscape:zoom="2.0445042"
   inkscape:cx="299.58363"
   inkscape:cy="175.10357"
   inkscape:window-width="1920"
   inkscape:window-height="1009"
   inkscape:window-x="-8"
   inkscape:window-y="-8"
   inkscape:window-maximized="1"
   inkscape:current-layer="Layer_3" />
<metadata
   id="metadata55">
	<rdf:RDF>
		<cc:Work
   rdf:about="">
			<dc:format>image/svg+xml</dc:format>
			<dc:type
   rdf:resource="http://purl.org/dc/dcmitype/StillImage" />
			
		</cc:Work>
	</rdf:RDF>
	<ns:sfw>
		<ns:slices />
		<ns:sliceSourceBounds
   x="692.15"
   y="-7652"
   width="535.939"
   height="16383"
   bottomLeftOrigin="true" />
	</ns:sfw>
</metadata>
<path
   id="path3"
   fill="#f4f4f4"
   d="m 122.05,50.447 c -23.656,0 -42.861,19.204 -42.861,42.861 v 37.414 c 0,23.658 19.205,42.86 42.861,42.86 h 38.694 c 23.656,0 42.861,-19.202 42.861,-42.86 V 93.308 c 0,-23.657 -19.205,-42.861 -42.861,-42.861 z m 0,1.905 h 38.694 c 22.627,0 40.956,18.328 40.956,40.956 v 37.414 c 0,22.629 -18.329,40.956 -40.956,40.956 H 122.05 c -22.628,0 -40.956,-18.327 -40.956,-40.956 V 93.308 c 0,-22.629 18.328,-40.956 40.956,-40.956 z" />
<path
   id="path5"
   fill="#f4f4f4"
   d="m 141.395,59.168 c -3.23,0 -5.863,2.633 -5.863,5.864 v 13.037 c 0,3.23 2.632,5.863 5.863,5.863 3.23,0 5.863,-2.633 5.863,-5.863 V 65.032 c 0,-3.23 -2.633,-5.864 -5.863,-5.864 z m 0,1.906 c 2.201,0 3.958,1.758 3.958,3.958 v 13.037 c 0,2.2 -1.758,3.958 -3.958,3.958 -2.202,0 -3.958,-1.758 -3.958,-3.958 V 65.032 c -0.001,-2.2 1.757,-3.958 3.958,-3.958 z" />
<path
   id="path7"
   fill="#f4f4f4"
   d="m 94.425,106.135 c -3.23,0 -5.864,2.633 -5.864,5.864 0,3.231 2.632,5.894 5.864,5.894 h 13.037 c 3.229,0 5.864,-2.662 5.864,-5.894 0,-3.229 -2.633,-5.864 -5.864,-5.864 z m 0,1.905 h 13.037 c 2.201,0 3.959,1.759 3.959,3.959 0,2.201 -1.759,3.988 -3.959,3.988 H 94.425 c -2.198,-0.01 -3.955,-1.791 -3.955,-3.99 0,-2.201 1.758,-3.959 3.958,-3.959 z" />
<path
   id="path9"
   fill="#f4f4f4"
   d="m 141.395,140.071 c -3.23,0 -5.863,2.663 -5.863,5.894 v 13.038 c 0,3.229 2.632,5.863 5.863,5.863 3.23,0 5.863,-2.633 5.863,-5.863 v -13.038 c 0,-3.23 -2.633,-5.894 -5.863,-5.894 z m 0,1.906 c 2.201,0 3.958,1.789 3.958,3.988 v 13.038 c 0,2.2 -1.757,3.958 -3.958,3.958 -2.202,0 -3.958,-1.759 -3.958,-3.958 v -13.038 c -0.001,-2.2 1.757,-3.988 3.958,-3.988 z" />
<path
   id="path11"
   fill="#f4f4f4"
   d="m 175.321,106.135 c -3.229,0 -5.863,2.633 -5.863,5.864 0,3.231 2.633,5.894 5.863,5.894 h 13.067 c 3.229,0 5.863,-2.662 5.863,-5.894 0,-3.229 -2.633,-5.864 -5.863,-5.864 z m 0,1.905 h 13.067 c 2.2,0 3.958,1.76 3.958,3.959 0,2.201 -1.758,3.988 -3.958,3.988 h -13.067 c -2.2,0 -3.958,-1.788 -3.958,-3.988 0,-2.2 1.759,-3.959 3.958,-3.959 z" />
<path
   id="polygon13"
   fill="#f4f4f4"
   d="m 107.878,77.176 -1.31,1.31 8.155,12.025 0.655,0.952 0.804,-0.803 3.869,-3.87 0.804,-0.804 -0.953,-0.655 z" />
<path
   id="polygon15"
   fill="#f4f4f4"
   d="m 115.383,132.566 -0.654,0.952 -8.156,12.024 1.31,1.31 12.025,-8.155 0.953,-0.654 -0.804,-0.804 -3.87,-3.869 z" />
<path
   id="polygon17"
   fill="#f4f4f4"
   d="m 167.435,132.566 -0.804,0.804 -3.869,3.869 -0.833,0.804 0.953,0.654 12.025,8.155 1.339,-1.31 -8.156,-12.024 z" />
<path
   id="polygon19"
   fill="#f4f4f4"
   d="m 174.912,77.176 -12.025,8.155 -0.953,0.655 0.833,0.804 3.87,3.87 0.804,0.803 0.655,-0.952 8.155,-12.025 z" />
<path
   id="path21"
   fill="#f4f4f4"
   d="m 120.354,40.833 c -27.67,0 -50.123,22.453 -50.123,50.124 v 42.117 c 0,27.671 22.453,50.123 50.123,50.123 h 42.117 c 27.671,0 50.124,-22.452 50.124,-50.123 V 90.957 c 0,-27.67 -22.452,-50.124 -50.124,-50.124 z m 0,1.906 h 42.117 c 26.644,0 48.219,21.577 48.219,48.218 v 42.117 c 0,26.644 -21.577,48.218 -48.219,48.218 h -42.117 c -26.642,0 -48.218,-21.574 -48.218,-48.218 V 90.957 c 0,-26.642 21.577,-48.218 48.218,-48.218 z" />
<path
   id="polygon23"
   fill="#f4f4f4"
   d="m 43.499,11.694 v 0.952 202.961 0.952 h 0.953 196.122 0.952 v -0.952 -26.401 h 289.521 0.952 V 188.254 74.796 73.843 H 531.047 241.525 V 12.647 11.695 H 240.573 44.451 Z m 1.904,1.905 H 239.62 v 61.196 0.953 h 0.953 0.714 288.807 V 187.3 h -289.226 -0.297 -0.953 v 0.953 26.4 H 45.401 V 13.598 Z" />
<path
   id="circle25"
   fill="#f4f4f4"
   d="m 374.692,105.126 c -19.762,0 -35.777,16.046 -35.777,35.807 0,19.761 16.018,35.807 35.777,35.807 19.759,0 35.807,-16.046 35.807,-35.807 0,-19.761 -16.047,-35.807 -35.807,-35.807 z m 0,1.905 c 18.73,0 33.901,15.17 33.901,33.902 0,18.732 -15.171,33.902 -33.901,33.902 -18.731,0 -33.872,-15.171 -33.872,-33.902 0,-18.731 15.141,-33.902 33.872,-33.902 z" />
<path
   id="circle27"
   fill="#f4f4f4"
   d="m 374.692,113.669 c -15.039,0 -27.234,12.227 -27.234,27.265 0,15.038 12.195,27.234 27.234,27.234 15.036,0 27.264,-12.196 27.264,-27.234 0,-15.038 -12.227,-27.265 -27.264,-27.265 z m 0,1.905 c 14.008,0 25.359,11.351 25.359,25.359 0,14.008 -11.352,25.33 -25.359,25.33 -14.01,0 -25.33,-11.321 -25.33,-25.33 0,-14.009 11.321,-25.359 25.33,-25.359 z" />
<path
   id="circle29"
   fill="#f4f4f4"
   d="m 463.919,105.126 c -19.762,0 -35.807,16.046 -35.807,35.807 0,19.761 16.045,35.807 35.807,35.807 19.76,0 35.807,-16.046 35.807,-35.807 0,-19.761 -16.047,-35.807 -35.807,-35.807 z m 0,1.905 c 18.73,0 33.901,15.17 33.901,33.902 0,18.732 -15.171,33.902 -33.901,33.902 -18.731,0 -33.902,-15.171 -33.902,-33.902 0,-18.731 15.171,-33.902 33.902,-33.902 z" />
<path
   id="circle31"
   fill="#f4f4f4"
   d="m 463.919,113.669 c -15.039,0 -27.234,12.227 -27.234,27.265 0,15.038 12.195,27.234 27.234,27.234 15.036,0 27.234,-12.196 27.234,-27.234 0,-15.038 -12.196,-27.265 -27.234,-27.265 z m 0,1.905 c 14.008,0 25.329,11.351 25.329,25.359 0,14.008 -11.321,25.33 -25.329,25.33 -14.01,0 -25.33,-11.321 -25.33,-25.33 0,-14.009 11.32,-25.359 25.33,-25.359 z" />
<path
   id="path33"
   fill="#f4f4f4"
   d="m 13.406,4.432 c -4.766,0 -8.662,3.896 -8.662,8.662 v 203.084 c 0,4.766 3.897,8.661 8.662,8.661 h 518.646 c 4.429,0 7.956,-3.411 8.453,-7.709 h 0.179 V 216.178 13.093 c 0,-4.762 -3.868,-8.658 -8.64,-8.658 H 13.399 Z m 0,1.904 h 518.646 c 3.737,0 6.727,3.021 6.727,6.757 v 202.131 0.953 c 0,3.736 -2.989,6.756 -6.727,6.756 H 13.406 c -3.732,0.01 -6.753,-3.019 -6.753,-6.753 V 13.097 c 0,-3.736 3.02,-6.756 6.756,-6.756 z" />
<path
   id="rect35"
   fill="#f4f4f4"
   d="m 333.021,99.559 v 0.953 81.465 0.952 h 0.953 81.465 0.953 v -0.952 -81.465 -0.953 h -0.953 -81.465 z m 1.906,1.905 h 79.561 v 79.56 h -79.561 z" />
<path
   id="rect37"
   fill="#f4f4f4"
   d="m 422.248,99.559 v 0.953 81.465 0.952 h 0.953 81.436 0.952 v -0.952 -81.465 -0.953 h -0.952 -81.436 z m 1.905,1.905 h 79.531 v 79.56 h -79.531 z" />
<path
   id="polyline39"
   fill="#f4f4f4"
   d="m 57.934,30.177 v 2.292 159.061 2.322 l 1.607,-1.638 25.33,-25.299 -1.369,-1.369 -23.663,23.692 V 34.788 l 23.663,23.658 1.369,-1.34 -25.33,-25.299 -1.607,-1.637 z" />
<path
   id="polyline41"
   fill="#f4f4f4"
   d="m 196.305,168.551 -1.37,1.339 23.693,23.692 H 64.176 L 87.75,170.009 86.381,168.67 61.2,193.852 l -1.637,1.637 h 2.292 159.062 2.292 l -1.607,-1.637 -25.299,-25.3 z" />
<path
   id="polyline43"
   fill="#f4f4f4"
   d="m 224.878,30.177 -1.637,1.637 -25.211,25.182 1.369,1.369 23.574,-23.603 v 154.509 l -23.633,-23.663 -1.339,1.34 25.24,25.27 1.637,1.638 V 191.534 32.471 30.179 Z" />
<path
   id="polyline45"
   fill="#f4f4f4"
   d="m 59.57,28.54 1.638,1.608 25.21,25.24 1.339,-1.34 -23.572,-23.602 h 154.452 l -23.669,23.662 1.333,1.339 25.307,-25.3 1.607,-1.607 H 220.923 61.861 Z" />
<path
   id="line47"
   fill="#f4f4f4"
   d="M 32.961,5.533 V 223.59 h 1.905 V 5.533 Z" />
<path
   id="rect49"
   fill="#f4f4f4"
   d="m 333.021,81.819 v 0.953 13.244 0.953 h 0.953 81.465 0.953 V 96.016 82.772 81.819 h -0.953 -81.465 z m 1.906,1.905 h 79.561 v 11.339 h -79.561 z" />
<path
   id="rect51"
   fill="#f4f4f4"
   d="m 422.248,81.819 v 0.953 13.244 0.953 h 0.953 81.436 0.952 V 96.016 82.772 81.819 h -0.952 -81.436 z m 1.905,1.905 h 79.531 v 11.339 h -79.531 z" />
<path
   id="path53"
   fill="#f4f4f4"
   d="m 250.804,9.134 c -0.987,0 -1.815,0.828 -1.815,1.816 v 53.01 c 0,0.988 0.829,1.815 1.815,1.815 h 282.855 c 0.985,0 1.785,-0.831 1.785,-1.815 V 13.927 c 0,-2.641 -2.152,-4.792 -4.792,-4.792 h -279.844 -0.004 z m 0.09,1.906 H 530.65 c 1.613,0 2.888,1.275 2.888,2.887 V 63.872 H 250.895 V 11.04 Z" />
<path
   id="path55"
   fill="#f4f4f4"
   d="m 250.804,196.41 c -0.987,0 -1.815,0.829 -1.815,1.815 v 20.091 c 0,0.987 0.829,1.816 1.815,1.816 h 279.844 c 2.64,0 4.792,-2.183 4.792,-4.822 v -17.085 c 0,-0.985 -0.8,-1.815 -1.785,-1.815 H 250.8 Z m 0.09,1.905 h 282.645 v 16.995 c 0,1.611 -1.276,2.917 -2.888,2.917 H 250.893 Z" />
<path
   id="line57"
   fill="#f4f4f4"
   d="m 248.461,65.271 -6.28,6.28 1.369,1.339 6.251,-6.25 z" />
<path
   id="line59"
   fill="#f4f4f4"
   d="m 243.546,189.866 -1.369,1.34 6.281,6.28 1.339,-1.369 z" />
</svg>
