<?xml version="1.0" encoding="UTF-8" standalone="no"?>
<!-- Generator: Adobe Illustrator 13.0.0, SVG Export Plug-In . SVG Version: 6.00 Build 14948)  -->

<svg
   version="1.2"
   id="Layer_3"
   x="0px"
   y="0px"
   width="598.189px"
   height="350.26px"
   viewBox="0 0 598.189 350.26"
   xml:space="preserve"
   sodipodi:docname="megaduck.svg"
   inkscape:version="1.2.2 (732a01da63, 2022-12-09)"
   xmlns:inkscape="http://www.inkscape.org/namespaces/inkscape"
   xmlns:sodipodi="http://sodipodi.sourceforge.net/DTD/sodipodi-0.dtd"
   xmlns="http://www.w3.org/2000/svg"
   xmlns:svg="http://www.w3.org/2000/svg"
   xmlns:rdf="http://www.w3.org/1999/02/22-rdf-syntax-ns#"
   xmlns:cc="http://creativecommons.org/ns#"
   xmlns:dc="http://purl.org/dc/elements/1.1/"
   xmlns:ns="&amp;ns_sfw;"><defs
   id="defs43" /><sodipodi:namedview
   id="namedview41"
   pagecolor="#090e0e"
   bordercolor="#111111"
   borderopacity="1"
   inkscape:showpageshadow="0"
   inkscape:pageopacity="0"
   inkscape:pagecheckerboard="1"
   inkscape:deskcolor="#d1d1d1"
   showgrid="false"
   inkscape:zoom="5.7827312"
   inkscape:cx="283.25715"
   inkscape:cy="284.03533"
   inkscape:window-width="1350"
   inkscape:window-height="1032"
   inkscape:window-x="525"
   inkscape:window-y="73"
   inkscape:window-maximized="0"
   inkscape:current-layer="Layer_3" />
<metadata
   id="metadata55">
	<rdf:RDF>
		<cc:Work
   rdf:about="">
			<dc:format>image/svg+xml</dc:format>
			<dc:type
   rdf:resource="http://purl.org/dc/dcmitype/StillImage" />
			
		</cc:Work>
	</rdf:RDF>
	<ns:sfw>
		<ns:slices />
		<ns:sliceSourceBounds
   x="867.765"
   y="-7652"
   width="184.796"
   height="16383"
   bottomLeftOrigin="true" />
	</ns:sfw>
</metadata>


<path
   id="path7"
   fill="#f4f4f4"
   d="m 330.41531,248.98707 c -0.44496,-0.14654 -0.91552,-0.21723 -1.40996,-0.17718 l -16.90418,1.39044 c -1.97308,0.16198 -3.4537,1.91979 -3.29186,3.89603 0.16362,1.97156 1.90274,3.44509 3.87582,3.28311 l 16.90311,-1.38764 c 1.97215,-0.16233 3.46437,-1.89434 3.30462,-3.86765 -0.12251,-1.47993 -1.1476,-2.69294 -2.47955,-3.13466 z m -0.41654,1.27412 c 0.83722,0.27413 1.48378,1.01926 1.56093,1.95674 0.10181,1.25278 -0.81509,2.33471 -2.06636,2.43817 l -16.90276,1.3867 c -1.25314,0.10275 -2.33378,-0.81474 -2.43817,-2.06636 -0.10275,-1.25314 0.81439,-2.33285 2.06659,-2.43595 l 16.90347,-1.38857 c 0.31249,-0.0257 0.59742,0.0183 0.8763,0.10927 z" />
<path
   id="path9"
   fill="#f4f4f4"
   d="m 331.18797,246.66833 c -0.7754,-0.27633 -1.6083,-0.40976 -2.48071,-0.3603 l -16.44077,0.9364 c -3.48624,0.20018 -6.16089,3.19782 -5.96128,6.68278 0.20018,3.48624 3.21674,6.17022 6.70428,5.96945 l 16.42078,-0.94292 c 3.4866,-0.20112 6.16218,-3.19841 5.962,-6.68465 -0.15038,-2.61477 -1.87913,-4.76897 -4.2043,-5.60076 z m -0.4371,1.26631 c 1.83562,0.65334 3.19497,2.34097 3.31299,4.41288 0.15911,2.76357 -1.9473,5.12128 -4.71145,5.2791 l -16.4211,0.93531 c -2.76544,0.1584 -5.12056,-1.94916 -5.27909,-4.71144 -0.15782,-2.76415 1.94823,-5.12092 4.71144,-5.2791 l 16.42114,-0.94385 c 0.69188,-0.0389 1.35629,0.0819 1.96704,0.29891 z" /><path
   id="path9-3-7"
   fill="#f4f4f4"
   d="m 237.73713,224.14471 c -0.51775,-0.23099 -1.07958,-0.35969 -1.67466,-0.35618 l -11.21443,0.0692 c -2.37806,0.0159 -4.30156,2.10671 -4.28716,4.66132 0.0147,2.55556 1.97292,4.63017 4.35189,4.61394 l 11.20106,-0.0746 c 2.37834,-0.0165 4.30246,-2.1071 4.28772,-4.66267 -0.0113,-1.91675 -1.11198,-3.55594 -2.66442,-4.25091 z m -0.34138,0.90918 c 1.2257,0.54621 2.09146,1.83056 2.09958,3.34933 0.012,2.02584 -1.50276,3.67025 -3.38824,3.68215 l -11.20102,0.0691 c -1.88636,0.0123 -3.41476,-1.61626 -3.42638,-3.64113 -0.0111,-2.02621 1.50338,-3.66995 3.38823,-3.68215 l 11.20135,-0.0753 c 0.47191,-0.002 0.91959,0.11061 1.32742,0.29208 z"
   style="stroke-width:0.705978" />
<path
   id="path11"
   fill="#f4f4f4"
   d="m 364.12563,246.80863 c -0.44762,-0.13819 -0.92037,-0.20039 -1.41209,-0.15042 l -16.87512,1.70347 c -1.9691,0.20016 -3.41656,1.98538 -3.21741,3.9573 0.19956,1.96782 1.96689,3.40886 3.93532,3.21059 l 16.87512,-1.70347 c 1.97037,-0.20076 3.4092,-1.96783 3.21126,-3.9372 -0.14924,-1.47704 -1.17837,-2.66296 -2.51708,-3.08027 z m -0.39262,1.28169 c 0.8422,0.25841 1.5026,0.99131 1.59729,1.92718 0.12558,1.24971 -0.77125,2.34956 -2.02036,2.47642 l -16.87479,1.70253 c -1.25005,0.12652 -2.34862,-0.77092 -2.47453,-2.01969 -0.12713,-1.25133 0.76963,-2.34802 2.01968,-2.47454 l 16.87452,-1.70474 c 0.31196,-0.0316 0.59766,0.007 0.87819,0.0928 z" />
<path
   id="path13"
   fill="#f4f4f4"
   d="m 364.85569,244.47617 c -0.78044,-0.26177 -1.61569,-0.37959 -2.48702,-0.31381 l -16.4213,1.24366 c -3.48188,0.26541 -6.09901,3.31293 -5.83421,6.79353 0.26541,3.48189 3.31286,6.10218 6.79508,5.83583 l 16.41909,-1.24339 c 3.48222,-0.26635 6.10029,-3.31353 5.83582,-6.79508 -0.19929,-2.6115 -1.96807,-4.73296 -4.30746,-5.52074 z m -0.43215,1.26751 c 1.84659,0.61854 3.23635,2.28009 3.39408,4.34976 0.21081,2.76011 -1.83227,5.16359 -4.59392,5.37278 l -16.41766,1.23646 c -2.75916,0.21115 -5.13639,-1.84588 -5.3466,-4.60471 -0.21047,-2.76104 1.83038,-5.16425 4.59298,-5.37311 l 16.41942,-1.24433 c 0.69103,-0.0518 1.33687,0.0491 1.95346,0.25529 z" />





<path
   id="path25"
   fill="#f4f4f4"
   d="m 376.45388,278.0309 c -0.8795,-0.42338 -1.93977,-0.79141 -3.0856,-1.06052 -4.58556,-1.07771 -9.38486,-0.2757 -10.63013,1.77995 l -21.41156,35.16955 c -1.25416,2.05064 1.49105,4.62478 6.08099,5.7029 4.58124,1.07938 9.3827,0.27653 10.6301,-1.77997 l 21.38956,-35.17791 c 0.94431,-1.54048 -0.34377,-3.36888 -2.99107,-4.64196 z m -1.42958,2.01492 c 0.57471,0.53751 2.71709,1.64306 2.38233,2.18618 l -21.17767,34.68667 c -0.65852,1.08837 -5.33638,1.49076 -7.76412,0.92062 -2.43221,-0.57265 -5.53773,-2.14273 -4.87046,-3.22816 l 21.18038,-35.162 c 0.65634,-1.08754 5.09182,-1.24619 7.51743,-0.67523 1.21825,0.28548 2.16241,0.75156 2.73489,1.2878 z"
   style="fill:#f4f4f4;fill-opacity:1;stroke:none;stroke-width:0.9;stroke-dasharray:none;stroke-opacity:1"
   sodipodi:nodetypes="cccccccccccccccccc" /><path
   id="path25-1"
   fill="#f4f4f4"
   d="m 353.25627,279.13313 c -0.8795,-0.42338 -1.93977,-0.79141 -3.0856,-1.06052 -4.58556,-1.07771 -9.38486,-0.2757 -10.63013,1.77995 l -21.41156,35.16955 c -1.25416,2.05064 1.49105,4.62478 6.08099,5.7029 4.58124,1.07938 9.3827,0.27653 10.6301,-1.77997 l 21.38956,-35.17791 c 0.94431,-1.54048 -0.34377,-3.36888 -2.99107,-4.64196 z m -1.42958,2.01492 c 0.57471,0.53751 2.71709,1.64306 2.38233,2.18618 l -21.17767,34.68667 c -0.65852,1.08837 -5.33638,1.49076 -7.76412,0.92062 -2.43221,-0.57265 -5.53773,-2.14273 -4.87046,-3.22816 l 21.18038,-35.162 c 0.65634,-1.08754 5.09182,-1.24619 7.51743,-0.67523 1.21825,0.28548 2.16241,0.75156 2.73489,1.2878 z"
   style="fill:#f4f4f4;fill-opacity:1;stroke:none;stroke-width:0.9;stroke-dasharray:none;stroke-opacity:1"
   sodipodi:nodetypes="cccccccccccccccccc" />


<path
   id="path31"
   fill="#f4f4f4"
   d="m 214.27052,41.689536 c -2.77254,-0.08646 -2.90891,0.185535 -5.34598,0.996089 -1.83183,1.32734 -2.47727,1.588457 -2.47808,3.857323 L 206.36,288.553 c -0.006,15.43572 20.70756,41.996 40.64,41.996 h 52.742 49.439 c 23.18,0 41.98465,-18.816 41.975,-41.996 L 391.05534,46.751489 c -5.1e-4,-1.213925 -0.46689,-1.371166 -2.13617,-3.053211 -2.16278,-1.862119 -2.32411,-1.927968 -7.39514,-1.929278 L 214.14282,41.72577 Z m -0.0889,1.55516 171.07053,-0.452665 c 1.3604,0.263067 4.68474,3.302985 4.68413,4.515695 L 389.814,288.561 c -0.006,12.20346 -5.37468,23.15031 -13.87946,30.60233 -7.14516,6.2607 -16.504,10.05467 -26.75654,10.05467 h -49.085 c -0.002,-0.053 10e-4,-0.04 0,-0.104 h -12.444 c 0,0.087 -0.011,0.069 -0.021,0.104 h -40.80093 c -29.41323,-4.31622 -39.30971,-37.366 -39.305,-40.665 l 0.34586,-242.042284 c 2.2e-4,-0.153 0.33062,-3.42818 6.18097,-3.384716 z"
   sodipodi:nodetypes="ccssssssscsccccssssccsccsscc" />
<path
   id="circle33"
   fill="#f4f4f4"
   d="m 333.63,212.331 c -6.817,0 -12.359,5.542 -12.359,12.359 0,6.818 5.542,12.36 12.359,12.36 6.818,0 12.36,-5.542 12.36,-12.36 0,-6.817 -5.542,-12.359 -12.36,-12.359 z m 0,1.338 c 6.095,0 11.021,4.927 11.021,11.021 0,6.094 -4.927,11.022 -11.021,11.022 -6.094,0 -11.021,-4.927 -11.021,-11.022 -10e-4,-6.094 4.926,-11.021 11.021,-11.021 z" />
<path
   id="circle35"
   fill="#f4f4f4"
   d="m 333.63,213.188 c -6.344,0 -11.503,5.158 -11.503,11.503 0,6.344 5.158,11.503 11.503,11.503 6.345,0 11.503,-5.159 11.503,-11.503 0,-6.344 -5.158,-11.503 -11.503,-11.503 z m 0,1.337 c 5.621,0 10.164,4.544 10.164,10.165 0,5.62 -4.542,10.164 -10.164,10.164 -5.62,0 -10.164,-4.543 -10.164,-10.164 0,-5.621 4.543,-10.165 10.164,-10.165 z" /><path
   id="circle33-8"
   fill="#f4f4f4"
   d="m 253.92054,202.84137 c -15.58474,0 -28.25463,11.13465 -28.25463,24.83095 0,13.69832 12.66989,24.83297 28.25463,24.83297 15.58703,0 28.25692,-11.13465 28.25692,-24.83297 0,-13.6963 -12.66989,-24.83095 -28.25692,-24.83095 z m 0,2.68823 c 13.93414,0 25.19575,9.89903 25.19575,22.14272 0,12.2437 -11.2639,22.14474 -25.19575,22.14474 -13.93185,0 -25.19575,-9.89903 -25.19575,-22.14474 -0.002,-12.24369 11.26162,-22.14272 25.19575,-22.14272 z"
   style="stroke-width:2.14318" />
<path
   id="circle37"
   fill="#F4F4F4"
   d="M366.121,210.363c-6.818,0-12.36,5.542-12.36,12.36c0,6.819,5.542,12.36,12.36,12.36  s12.36-5.541,12.36-12.36C378.481,215.905,372.939,210.363,366.121,210.363z M366.121,211.701c6.095,0,11.021,4.928,11.021,11.022  s-4.927,11.021-11.021,11.021s-11.022-4.927-11.022-11.021C355.099,216.63,360.026,211.701,366.121,211.701z" />
<path
   id="circle39"
   fill="#F4F4F4"
   d="M366.121,211.22c-6.345,0-11.504,5.159-11.504,11.504c0,6.344,5.159,11.502,11.504,11.502  c6.344,0,11.502-5.157,11.502-11.502S372.465,211.22,366.121,211.22z M366.121,212.559c5.62,0,10.164,4.544,10.164,10.165  c0,5.62-4.544,10.164-10.164,10.164c-5.621,0-10.165-4.544-10.165-10.164C355.956,217.103,360.5,212.559,366.121,212.559z" />
<path
   id="path41"
   fill="#f4f4f4"
   d="m 226.939,50.288 c -3.892,0 -7.048,3.177 -7.048,7.069 v 38.852323 c 0,58.429447 28.59005,74.331377 32.48204,74.321467 l 96.07036,-0.24456 c 5.97798,-0.0152 29.07336,-26.63267 28.81816,-70.70003 L 377.017,57.357 c -0.0225,-3.892935 -3.179,-7.068 -7.066,-7.068 z m 0,1.338 h 143.01 c 3.169,0 5.76949,2.562246 5.73,5.73 l -0.73367,58.85215 c -0.0708,5.68156 -13.88294,52.17143 -28.4564,52.24797 l -93.13566,0.48911 c -14.20979,0.0746 -30.94613,-38.47773 -31.14304,-50.72868 L 221.232,57.355 c -0.0509,-3.168591 2.541,-5.731 5.709,-5.731 z"
   sodipodi:nodetypes="csssssscccssssssscc" />
<path
   id="path43"
   fill="#F4F4F4"
   d="M250.509,63.799c-0.95,0-1.735,0.786-1.735,1.736v88.066c0,0.95,0.785,1.735,1.735,1.735h96.832  c0.95,0,1.736-0.786,1.736-1.735V65.535c0-0.95-0.786-1.736-1.736-1.736H250.509z M250.509,65.137h96.832  c0.227,0,0.397,0.171,0.397,0.397V153.6c0,0.227-0.171,0.398-0.397,0.398h-96.832c-0.227,0-0.397-0.171-0.397-0.398V65.535  C250.111,65.308,250.282,65.137,250.509,65.137z" />
<path
   id="circle45"
   fill="#f4f4f4"
   d="m 234.46591,72.419913 c -1.866,0 -3.388,1.522 -3.388,3.388 0,1.866 1.522,3.388 3.388,3.388 1.865,0 3.388,-1.522 3.388,-3.388 0,-1.866 -1.523,-3.388 -3.388,-3.388 z" />















<path
   id="path25-3"
   fill="#f4f4f4"
   d="m 330.25759,280.06783 c -0.8795,-0.42338 -1.93977,-0.79141 -3.0856,-1.06052 -4.58556,-1.07771 -9.38486,-0.2757 -10.63013,1.77995 l -21.41156,35.16955 c -1.25416,2.05064 1.49105,4.62478 6.08099,5.7029 4.58124,1.07938 9.3827,0.27653 10.6301,-1.77997 l 21.38956,-35.17791 c 0.94431,-1.54048 -0.34377,-3.36888 -2.99107,-4.64196 z m -1.42958,2.01492 c 0.57471,0.53751 2.71709,1.64306 2.38233,2.18618 l -21.17767,34.68667 c -0.65852,1.08837 -5.33638,1.49076 -7.76412,0.92062 -2.43221,-0.57265 -5.53773,-2.14273 -4.87046,-3.22816 l 21.18038,-35.162 c 0.65634,-1.08754 5.09182,-1.24619 7.51743,-0.67523 1.21825,0.28548 2.16241,0.75156 2.73489,1.2878 z"
   style="fill:#f4f4f4;fill-opacity:1;stroke:none;stroke-width:0.9;stroke-dasharray:none;stroke-opacity:1"
   sodipodi:nodetypes="cccccccccccccccccc" /><path
   id="path25-6"
   fill="#f4f4f4"
   d="m 320.22647,297.91488 -9.92334,15.36051 c -0.34083,0.49282 -0.16802,0.6318 -1.42454,0.37363 -1.25884,-0.2593 -0.74777,-1.0567 -0.40241,-1.54819 l 9.83826,-15.44606 c 0.33971,-0.49244 1.46495,-0.35452 1.76125,-0.11171 0,0 0.32405,1.12589 0.15078,1.37182 z"
   style="fill:#f4f4f4;fill-opacity:1;stroke:none;stroke-width:0.435696;stroke-dasharray:none;stroke-opacity:1"
   sodipodi:nodetypes="ccccccc" /><path
   id="path25-6-3"
   fill="#f4f4f4"
   d="m 340.33418,290.33479 -9.92334,15.36051 c -0.34083,0.49282 -0.16802,0.6318 -1.42454,0.37363 -1.25884,-0.2593 -0.74777,-1.0567 -0.40241,-1.54819 l 9.83826,-15.44606 c 0.33971,-0.49244 1.46495,-0.35452 1.76125,-0.11171 0,0 0.32405,1.12589 0.15078,1.37182 z"
   style="fill:#f4f4f4;fill-opacity:1;stroke:none;stroke-width:0.435696;stroke-dasharray:none;stroke-opacity:1"
   sodipodi:nodetypes="ccccccc" /><path
   id="path25-6-31"
   fill="#f4f4f4"
   d="m 360.33418,296.33479 -9.92334,15.36051 c -0.34083,0.49282 -0.16802,0.6318 -1.42454,0.37363 -1.25884,-0.2593 -0.74777,-1.0567 -0.40241,-1.54819 l 9.83826,-15.44606 c 0.33971,-0.49244 1.46495,-0.35452 1.76125,-0.11171 0,0 0.32405,1.12589 0.15078,1.37182 z"
   style="fill:#f4f4f4;fill-opacity:1;stroke:none;stroke-width:0.435696;stroke-dasharray:none;stroke-opacity:1"
   sodipodi:nodetypes="ccccccc" /><path
   id="path9-3"
   fill="#f4f4f4"
   d="m 285.60653,224.10117 c -0.51775,-0.23099 -1.07958,-0.35969 -1.67466,-0.35618 l -11.21443,0.0692 c -2.37806,0.0159 -4.30156,2.10671 -4.28716,4.66132 0.0147,2.55556 1.97292,4.63017 4.35189,4.61394 l 11.20106,-0.0746 c 2.37834,-0.0165 4.30246,-2.1071 4.28772,-4.66267 -0.0113,-1.91675 -1.11198,-3.55594 -2.66442,-4.25091 z m -0.34138,0.90918 c 1.2257,0.54621 2.09146,1.83056 2.09958,3.34933 0.012,2.02584 -1.50276,3.67025 -3.38824,3.68215 l -11.20102,0.0691 c -1.88636,0.0123 -3.41476,-1.61626 -3.42638,-3.64113 -0.0111,-2.02621 1.50338,-3.66995 3.38823,-3.68215 l 11.20135,-0.0753 c 0.47191,-0.002 0.91959,0.11061 1.32742,0.29208 z"
   style="stroke-width:0.705978" /><path
   id="path9-3-1"
   fill="#f4f4f4"
   d="m 258.01454,214.37882 c 0.23378,-0.5165 0.36551,-1.07762 0.36521,-1.67271 l -0.009,-11.21464 c -0.003,-2.37811 -2.08348,-4.31286 -4.63813,-4.31224 -2.5556,9.1e-4 -4.64074,1.94791 -4.63735,4.32693 l 0.0142,11.2013 c 0.004,2.3784 2.08387,4.31377 4.63948,4.31281 1.91678,-9.6e-4 3.56188,-1.09278 4.26522,-2.64145 z m -0.90733,-0.34628 c -0.55281,1.22274 -1.84181,2.08156 -3.3606,2.08148 -2.02588,10e-4 -3.66209,-1.52253 -3.66382,-3.40805 l -0.009,-11.20123 c -0.002,-1.8864 1.63465,-3.40599 3.65955,-3.40669 2.02624,-1.7e-4 3.66179,1.52316 3.66382,3.40805 l 0.0149,11.20159 c -5.4e-4,0.47191 -0.11557,0.91898 -0.29923,1.32582 z"
   style="stroke-width:0.705978" /><path
   id="path9-3-1-9"
   fill="#f4f4f4"
   d="m 258.80539,255.60561 c 0.23378,-0.5165 0.36551,-1.07762 0.36521,-1.67271 l -0.009,-11.21464 c -0.003,-2.37811 -2.08348,-4.31286 -4.63813,-4.31224 -2.5556,9.1e-4 -4.64074,1.94791 -4.63735,4.32693 l 0.0142,11.2013 c 0.004,2.3784 2.08387,4.31377 4.63948,4.31281 1.91678,-9.6e-4 3.56188,-1.09278 4.26522,-2.64145 z m -0.90733,-0.34628 c -0.55281,1.22274 -1.84181,2.08156 -3.3606,2.08148 -2.02588,0.001 -3.66209,-1.52253 -3.66382,-3.40805 l -0.009,-11.20123 c -0.002,-1.8864 1.63465,-3.40599 3.65955,-3.40669 2.02624,-1.7e-4 3.66179,1.52316 3.66382,3.40805 l 0.0149,11.20159 c -5.4e-4,0.47191 -0.11557,0.91898 -0.29923,1.32582 z"
   style="stroke-width:0.705978" /></svg>
