<?xml version="1.0" encoding="UTF-8" standalone="no"?>
<svg
   viewBox="0 0 375.179 237.422"
   version="1.1"
   id="svg5864"
   sodipodi:docname="msxturbor.svg"
   width="375.17899"
   height="237.422"
   inkscape:version="1.2.2 (732a01da63, 2022-12-09)"
   xmlns:inkscape="http://www.inkscape.org/namespaces/inkscape"
   xmlns:sodipodi="http://sodipodi.sourceforge.net/DTD/sodipodi-0.dtd"
   xmlns="http://www.w3.org/2000/svg"
   xmlns:svg="http://www.w3.org/2000/svg">
  <defs
     id="defs5868" />
  <sodipodi:namedview
     id="namedview5866"
     pagecolor="#000000"
     bordercolor="#111111"
     borderopacity="1"
     inkscape:showpageshadow="0"
     inkscape:pageopacity="0"
     inkscape:pagecheckerboard="1"
     inkscape:deskcolor="#d1d1d1"
     showgrid="false"
     inkscape:zoom="1.8009776"
     inkscape:cx="331.20901"
     inkscape:cy="154.36061"
     inkscape:window-width="1920"
     inkscape:window-height="1009"
     inkscape:window-x="-8"
     inkscape:window-y="-8"
     inkscape:window-maximized="1"
     inkscape:current-layer="g5862" />
  <g
     id="g5862"
     style="fill:none;stroke:#000000;stroke-opacity:1">
    <path
       d="M 341.58864,234.43519 H 22.293293 c -4.903033,0 -8.914161,-4.01112 -8.914161,-8.91416 V 104.19152 c 0,-4.90303 4.011128,-8.914158 8.914161,-8.914158 H 341.58864 c 4.90303,0 8.91416,4.011128 8.91416,8.914158 v 121.32951 c 0,4.90304 -4.01113,8.91416 -8.91416,8.91416 z"
       fill="#637080"
       id="path5688"
       style="fill:none;stroke:#fffffe;stroke-width:0.97904;stroke-opacity:1" />
    <path
       d="m 195.15752,117.93333 h -43.14336 a 1.3050605,1.3050605 0 0 1 -1.30115,-1.30114 v -7.05399 c 0,-0.71568 0.58547,-1.30114 1.30115,-1.30114 h 43.14336 c 0.71568,0 1.30114,0.58546 1.30114,1.30114 v 7.05399 c 0,0.71567 -0.58546,1.30114 -1.30114,1.30114 z m 71.09398,0 h -66.02941 a 1.3050605,1.3050605 0 0 1 -1.30114,-1.30114 v -7.05399 c 0,-0.71568 0.58547,-1.30114 1.30114,-1.30114 h 66.02941 c 0.71568,0 1.30114,0.58546 1.30114,1.30114 v 7.05399 c 0,0.71567 -0.58546,1.30114 -1.30114,1.30114 z m -118.94065,0 H 36.658749 a 1.3050605,1.3050605 0 0 1 -1.301144,-1.30114 v -7.05399 c 0,-0.71568 0.585466,-1.30114 1.301144,-1.30114 H 147.30987 c 0.71568,0 1.30114,0.58546 1.30114,1.30114 v 7.05399 a 1.3031025,1.3031025 0 0 1 -1.30016,1.30114 z m 125.38273,8.56269 c 0,-0.66184 -0.51203,-1.19541 -1.15037,-1.19541 H 33.327076 c -0.638334,0 -1.151352,0.5326 -1.150372,1.19541 v 63.52208 c 0,0.66085 0.513017,1.19541 1.150372,1.19541 H 62.68849 v 16.58592 c 0,0.66281 0.513017,1.19541 1.150372,1.19541 H 271.54321 c 0.63736,0 1.15037,-0.53358 1.15037,-1.19541 v 0.0108 z m 65.06506,41.56808 H 276.8966 a 1.7524819,1.7524819 0 0 1 -1.74758,-1.74758 v -60.86204 a 1.7524819,1.7524819 0 0 1 1.74758,-1.74758 h 60.86204 a 1.7524819,1.7524819 0 0 1 1.74758,1.74758 v 60.86204 a 1.7524819,1.7524819 0 0 1 -1.74758,1.74758 z"
       fill="#221d1f"
       id="path5690"
       style="fill:none;stroke:#fffffe;stroke-width:0.97904;stroke-opacity:1" />
    <path
       d="M 269.65073,124.24814 H 34.629199 a 2.461307,2.461307 0 0 1 -2.453475,-2.45348 V 104.4167 a 2.461307,2.461307 0 0 1 2.453475,-2.45347 H 269.65073 a 2.461307,2.461307 0 0 1 2.45347,2.45347 v 17.37796 a 2.461307,2.461307 0 0 1 -2.45347,2.45348 z"
       fill="none"
       stroke="#4f5962"
       stroke-width="0.73428"
       stroke-miterlimit="10"
       id="path5692"
       style="fill:none;stroke:#fffffe;stroke-opacity:1" />
    <path
       d="m 56.023185,143.43733 h 11.533093 c 0.630502,0 1.135687,0.50812 1.135687,1.13666 v 11.5331 c 0,0.62854 -0.506164,1.13568 -1.135687,1.13568 H 56.023185 c -0.629523,0 -1.135687,-0.50812 -1.135687,-1.13568 v -11.5331 a 1.1317704,1.1317704 0 0 1 1.135687,-1.13666 z m 15.971082,0 H 83.52736 c 0.630502,0 1.135687,0.50812 1.135687,1.13666 v 11.5331 c 0,0.62854 -0.506164,1.13568 -1.135687,1.13568 H 71.994267 c -0.629523,0 -1.135687,-0.50812 -1.135687,-1.13568 v -11.5331 a 1.1317704,1.1317704 0 0 1 1.135687,-1.13666 z m 15.970103,0 h 11.533093 c 0.630497,0 1.135687,0.50812 1.135687,1.13666 v 11.5331 c 0,0.62854 -0.50616,1.13568 -1.135687,1.13568 H 87.96437 c -0.629523,0 -1.135686,-0.50812 -1.135686,-1.13568 v -11.5331 c 0,-0.6305 0.506163,-1.13666 1.135686,-1.13666 z m 15.97108,0 h 11.5331 c 0.6305,0 1.13568,0.50812 1.13568,1.13666 v 11.5331 c 0,0.62854 -0.50616,1.13568 -1.13568,1.13568 h -11.5331 c -0.62952,0 -1.13568,-0.50812 -1.13568,-1.13568 v -11.5331 c 0,-0.6305 0.50616,-1.13666 1.13568,-1.13666 z m 15.97108,0 h 11.5331 c 0.6305,0 1.13568,0.50812 1.13568,1.13666 v 11.5331 c 0,0.62854 -0.50616,1.13568 -1.13568,1.13568 h -11.5331 c -0.62952,0 -1.13568,-0.50812 -1.13568,-1.13568 v -11.5331 a 1.1317704,1.1317704 0 0 1 1.13568,-1.13666 z m 15.97109,0 h 11.53309 c 0.6305,0 1.13569,0.50812 1.13569,1.13666 v 11.5331 c 0,0.62854 -0.50617,1.13568 -1.13569,1.13568 h -11.53309 c -0.62953,0 -1.13569,-0.50812 -1.13569,-1.13568 v -11.5331 a 1.1317704,1.1317704 0 0 1 1.13569,-1.13666 z m 15.97108,0 h 11.53309 c 0.6305,0 1.13569,0.50812 1.13569,1.13666 v 11.5331 c 0,0.62854 -0.50617,1.13568 -1.13569,1.13568 H 151.8487 c -0.62952,0 -1.13569,-0.50812 -1.13569,-1.13568 v -11.5331 a 1.1317704,1.1317704 0 0 1 1.13569,-1.13666 z m 15.97108,0 h 11.53309 c 0.63051,0 1.13569,0.50812 1.13569,1.13666 v 11.5331 c 0,0.62854 -0.50616,1.13568 -1.13569,1.13568 h -11.53309 c -0.62952,0 -1.13569,-0.50812 -1.13569,-1.13568 v -11.5331 a 1.1317704,1.1317704 0 0 1 1.13569,-1.13666 z m 15.97108,0 h 11.5331 c 0.6305,0 1.13568,0.50812 1.13568,1.13666 v 11.5331 c 0,0.62854 -0.50616,1.13568 -1.13568,1.13568 h -11.5331 c -0.62952,0 -1.13568,-0.50812 -1.13568,-1.13568 v -11.5331 a 1.1317704,1.1317704 0 0 1 1.13568,-1.13666 z m 15.97109,0 h 11.53309 c 0.6305,0 1.13569,0.50812 1.13569,1.13666 v 11.5331 c 0,0.62854 -0.50617,1.13568 -1.13569,1.13568 h -11.53309 c -0.62953,0 -1.13569,-0.50812 -1.13569,-1.13568 v -11.5331 a 1.1317704,1.1317704 0 0 1 1.13569,-1.13666 z m 15.9701,0 h 11.53309 c 0.6305,0 1.13569,0.50812 1.13569,1.13666 v 11.5331 c 0,0.62854 -0.50617,1.13568 -1.13569,1.13568 h -11.53309 c -0.62952,0 -1.13569,-0.50812 -1.13569,-1.13568 v -11.5331 c 0,-0.6305 0.50617,-1.13666 1.13569,-1.13666 z m 15.97108,0 h 11.53309 c 0.63051,0 1.13569,0.50812 1.13569,1.13666 v 11.5331 c 0,0.62854 -0.50616,1.13568 -1.13569,1.13568 h -11.53309 c -0.62952,0 -1.13569,-0.50812 -1.13569,-1.13568 v -11.5331 c 0,-0.6305 0.50617,-1.13666 1.13569,-1.13666 z M 61.470564,159.71779 h 11.533093 c 0.630502,0 1.135687,0.50812 1.135687,1.13666 v 11.53309 c 0,0.62855 -0.506164,1.13569 -1.135687,1.13569 H 61.470564 c -0.629523,0 -1.135686,-0.50812 -1.135686,-1.13569 v -11.53309 a 1.1317704,1.1317704 0 0 1 1.135686,-1.13666 z m 15.971082,0 H 88.97474 c 0.630501,0 1.135686,0.50812 1.135686,1.13666 v 11.53309 c 0,0.62855 -0.506164,1.13569 -1.135686,1.13569 H 77.441646 c -0.629522,0 -1.135686,-0.50812 -1.135686,-1.13569 v -11.53309 a 1.1317704,1.1317704 0 0 1 1.135686,-1.13666 z m 15.971083,0 h 11.533091 c 0.6305,0 1.13569,0.50812 1.13569,1.13666 v 11.53309 c 0,0.62855 -0.50617,1.13569 -1.13569,1.13569 H 93.412729 c -0.629523,0 -1.135687,-0.50812 -1.135687,-1.13569 v -11.53309 a 1.1317704,1.1317704 0 0 1 1.135687,-1.13666 z m 15.970101,0 h 11.53309 c 0.63051,0 1.13569,0.50812 1.13569,1.13666 v 11.53309 c 0,0.62855 -0.50616,1.13569 -1.13569,1.13569 h -11.53309 c -0.62952,0 -1.13568,-0.50812 -1.13568,-1.13569 v -11.53309 c 0,-0.6305 0.50616,-1.13666 1.13568,-1.13666 z m 15.97108,0 h 11.5331 c 0.6305,0 1.13568,0.50812 1.13568,1.13666 v 11.53309 c 0,0.62855 -0.50616,1.13569 -1.13568,1.13569 h -11.5331 c -0.62952,0 -1.13568,-0.50812 -1.13568,-1.13569 v -11.53309 c 0,-0.6305 0.50616,-1.13666 1.13568,-1.13666 z m 15.97109,0 h 11.53309 c 0.6305,0 1.13569,0.50812 1.13569,1.13666 v 11.53309 c 0,0.62855 -0.50617,1.13569 -1.13569,1.13569 H 141.325 c -0.62953,0 -1.13569,-0.50812 -1.13569,-1.13569 v -11.53309 a 1.1317704,1.1317704 0 0 1 1.13569,-1.13666 z m 15.97108,0 h 11.53309 c 0.6305,0 1.13569,0.50812 1.13569,1.13666 v 11.53309 c 0,0.62855 -0.50617,1.13569 -1.13569,1.13569 h -11.53309 c -0.62952,0 -1.13569,-0.50812 -1.13569,-1.13569 v -11.53309 a 1.1317704,1.1317704 0 0 1 1.13569,-1.13666 z m 15.97108,0 h 11.53309 c 0.63051,0 1.13569,0.50812 1.13569,1.13666 v 11.53309 c 0,0.62855 -0.50616,1.13569 -1.13569,1.13569 h -11.53309 c -0.62952,0 -1.13569,-0.50812 -1.13569,-1.13569 v -11.53309 a 1.1317704,1.1317704 0 0 1 1.13569,-1.13666 z m 15.97108,0 h 11.5331 c 0.6305,0 1.13568,0.50812 1.13568,1.13666 v 11.53309 c 0,0.62855 -0.50616,1.13569 -1.13568,1.13569 h -11.5331 c -0.62952,0 -1.13568,-0.50812 -1.13568,-1.13569 v -11.53309 a 1.1317704,1.1317704 0 0 1 1.13568,-1.13666 z m 15.97109,0 h 11.53309 c 0.6305,0 1.13568,0.50812 1.13568,1.13666 v 11.53309 c 0,0.62855 -0.50616,1.13569 -1.13568,1.13569 h -11.53309 c -0.62953,0 -1.13569,-0.50812 -1.13569,-1.13569 v -11.53309 a 1.1317704,1.1317704 0 0 1 1.13569,-1.13666 z m 15.97108,0 h 11.53309 c 0.6305,0 1.13569,0.50812 1.13569,1.13666 v 11.53309 c 0,0.62855 -0.50617,1.13569 -1.13569,1.13569 h -11.53309 c -0.62953,0 -1.13569,-0.50812 -1.13569,-1.13569 v -11.53309 a 1.1317704,1.1317704 0 0 1 1.13569,-1.13666 z m 15.9701,0 h 11.53309 c 0.63051,0 1.13569,0.50812 1.13569,1.13666 v 11.53309 c 0,0.62855 -0.50616,1.13569 -1.13569,1.13569 h -11.53309 c -0.62952,0 -1.13569,-0.50812 -1.13569,-1.13569 v -11.53309 c 0,-0.6305 0.50617,-1.13666 1.13569,-1.13666 z M 66.763255,175.99824 h 11.533094 c 0.630501,0 1.135686,0.50813 1.135686,1.13667 V 188.668 c 0,0.62855 -0.506164,1.13569 -1.135686,1.13569 H 66.763255 c -0.629522,0 -1.135686,-0.50812 -1.135686,-1.13569 v -11.53309 a 1.1317704,1.1317704 0 0 1 1.135686,-1.13667 z m 15.971083,0 h 11.533093 c 0.630502,0 1.135686,0.50813 1.135686,1.13667 V 188.668 c 0,0.62855 -0.506163,1.13569 -1.135686,1.13569 H 82.734338 c -0.629523,0 -1.135687,-0.50812 -1.135687,-1.13569 v -11.53309 a 1.1317704,1.1317704 0 0 1 1.135687,-1.13667 z m 15.970103,0 h 11.533089 c 0.63051,0 1.13569,0.50813 1.13569,1.13667 V 188.668 c 0,0.62855 -0.50616,1.13569 -1.13569,1.13569 H 98.704441 c -0.629523,0 -1.135687,-0.50812 -1.135687,-1.13569 v -11.53309 c 0,-0.6305 0.506164,-1.13667 1.135687,-1.13667 z m 15.971079,0 h 11.5331 c 0.6305,0 1.13568,0.50813 1.13568,1.13667 V 188.668 c 0,0.62855 -0.50616,1.13569 -1.13568,1.13569 h -11.5331 c -0.62952,0 -1.13568,-0.50812 -1.13568,-1.13569 v -11.53309 c 0,-0.6305 0.50616,-1.13667 1.13568,-1.13667 z m 15.97109,0 h 11.53309 c 0.6305,0 1.13568,0.50813 1.13568,1.13667 V 188.668 c 0,0.62855 -0.50616,1.13569 -1.13568,1.13569 h -11.53309 c -0.62953,0 -1.13569,-0.50812 -1.13569,-1.13569 v -11.53309 a 1.1317704,1.1317704 0 0 1 1.13569,-1.13667 z m 15.97108,0 h 11.53309 c 0.6305,0 1.13569,0.50813 1.13569,1.13667 V 188.668 c 0,0.62855 -0.50617,1.13569 -1.13569,1.13569 h -11.53309 c -0.62953,0 -1.13569,-0.50812 -1.13569,-1.13569 v -11.53309 a 1.1317704,1.1317704 0 0 1 1.13569,-1.13667 z m 15.97108,0 h 11.53309 c 0.6305,0 1.13569,0.50813 1.13569,1.13667 V 188.668 c 0,0.62855 -0.50616,1.13569 -1.13569,1.13569 h -11.53309 c -0.62952,0 -1.13569,-0.50812 -1.13569,-1.13569 v -11.53309 a 1.1317704,1.1317704 0 0 1 1.13569,-1.13667 z m 15.97108,0 h 11.53309 c 0.63051,0 1.13569,0.50813 1.13569,1.13667 V 188.668 c 0,0.62855 -0.50616,1.13569 -1.13569,1.13569 h -11.53309 c -0.62952,0 -1.13568,-0.50812 -1.13568,-1.13569 v -11.53309 a 1.1317704,1.1317704 0 0 1 1.13568,-1.13667 z m 15.97108,0 h 11.5331 c 0.6305,0 1.13568,0.50813 1.13568,1.13667 V 188.668 c 0,0.62855 -0.50616,1.13569 -1.13568,1.13569 h -11.5331 c -0.62952,0 -1.13568,-0.50812 -1.13568,-1.13569 v -11.53309 a 1.1317704,1.1317704 0 0 1 1.13568,-1.13667 z m 15.97109,0 h 11.53309 c 0.6305,0 1.13569,0.50813 1.13569,1.13667 V 188.668 c 0,0.62855 -0.50617,1.13569 -1.13569,1.13569 h -11.53309 c -0.62953,0 -1.13569,-0.50812 -1.13569,-1.13569 v -11.53309 a 1.1317704,1.1317704 0 0 1 1.13569,-1.13667 z m 15.9701,0 h 11.53309 c 0.6305,0 1.13569,0.50813 1.13569,1.13667 V 188.668 c 0,0.62855 -0.50616,1.13569 -1.13569,1.13569 h -11.53309 c -0.62952,0 -1.13569,-0.50812 -1.13569,-1.13569 v -11.53309 c 0,-0.6305 0.50617,-1.13667 1.13569,-1.13667 z M 50.946862,127.15687 h 11.533093 c 0.630502,0 1.135686,0.50812 1.135686,1.13666 v 11.5331 c 0,0.62854 -0.506163,1.13568 -1.135686,1.13568 H 50.946862 c -0.629523,0 -1.135687,-0.50812 -1.135687,-1.13568 v -11.5331 a 1.1317704,1.1317704 0 0 1 1.135687,-1.13666 z m 15.971082,0 h 11.533093 c 0.630502,0 1.135686,0.50812 1.135686,1.13666 v 11.5331 c 0,0.62854 -0.506163,1.13568 -1.135686,1.13568 H 66.917944 c -0.629523,0 -1.135687,-0.50812 -1.135687,-1.13568 v -11.5331 a 1.1317704,1.1317704 0 0 1 1.135687,-1.13666 z m 15.971082,0 h 11.533093 c 0.630502,0 1.135687,0.50812 1.135687,1.13666 v 11.5331 c 0,0.62854 -0.506164,1.13568 -1.135687,1.13568 H 82.889026 c -0.629523,0 -1.135687,-0.50812 -1.135687,-1.13568 v -11.5331 a 1.1317704,1.1317704 0 0 1 1.135687,-1.13666 z m 15.971082,0 H 110.3932 c 0.6305,0 1.13569,0.50812 1.13569,1.13666 v 11.5331 c 0,0.62854 -0.50617,1.13568 -1.13569,1.13568 H 98.860108 c -0.629523,0 -1.135686,-0.50812 -1.135686,-1.13568 v -11.5331 a 1.1317704,1.1317704 0 0 1 1.135686,-1.13666 z m 15.971082,0 h 11.53309 c 0.63051,0 1.13569,0.50812 1.13569,1.13666 v 11.5331 c 0,0.62854 -0.50616,1.13568 -1.13569,1.13568 h -11.53309 c -0.62952,0 -1.13569,-0.50812 -1.13569,-1.13568 v -11.5331 a 1.1317704,1.1317704 0 0 1 1.13569,-1.13666 z m 15.9701,0 h 11.5331 c 0.6305,0 1.13568,0.50812 1.13568,1.13666 v 11.5331 c 0,0.62854 -0.50616,1.13568 -1.13568,1.13568 h -11.5331 c -0.62952,0 -1.13568,-0.50812 -1.13568,-1.13568 v -11.5331 c 0,-0.6305 0.50616,-1.13666 1.13568,-1.13666 z m 15.97109,0 h 11.53309 c 0.6305,0 1.13569,0.50812 1.13569,1.13666 v 11.5331 c 0,0.62854 -0.50617,1.13568 -1.13569,1.13568 h -11.53309 c -0.62953,0 -1.13569,-0.50812 -1.13569,-1.13568 v -11.5331 a 1.1327495,1.1327495 0 0 1 1.13569,-1.13666 z m 15.97108,0 h 11.53309 c 0.6305,0 1.13569,0.50812 1.13569,1.13666 v 11.5331 c 0,0.62854 -0.50617,1.13568 -1.13569,1.13568 h -11.53309 c -0.62952,0 -1.13569,-0.50812 -1.13569,-1.13568 v -11.5331 a 1.1317704,1.1317704 0 0 1 1.13569,-1.13666 z m 15.97108,0 h 11.53309 c 0.63051,0 1.13569,0.50812 1.13569,1.13666 v 11.5331 c 0,0.62854 -0.50616,1.13568 -1.13569,1.13568 h -11.53309 c -0.62952,0 -1.13569,-0.50812 -1.13569,-1.13568 v -11.5331 a 1.1317704,1.1317704 0 0 1 1.13569,-1.13666 z m 15.97108,0 h 11.5331 c 0.6305,0 1.13568,0.50812 1.13568,1.13666 v 11.5331 c 0,0.62854 -0.50616,1.13568 -1.13568,1.13568 h -11.5331 c -0.62952,0 -1.13568,-0.50812 -1.13568,-1.13568 v -11.5331 a 1.1317704,1.1317704 0 0 1 1.13568,-1.13666 z m 15.97108,0 h 11.5331 c 0.6305,0 1.13568,0.50812 1.13568,1.13666 v 11.5331 c 0,0.62854 -0.50616,1.13568 -1.13568,1.13568 h -11.5331 c -0.62952,0 -1.13568,-0.50812 -1.13568,-1.13568 v -11.5331 a 1.1317704,1.1317704 0 0 1 1.13568,-1.13666 z m 15.97109,0 h 11.53309 c 0.6305,0 1.13569,0.50812 1.13569,1.13666 v 11.5331 c 0,0.62854 -0.50617,1.13568 -1.13569,1.13568 h -11.53309 c -0.62953,0 -1.13569,-0.50812 -1.13569,-1.13568 v -11.5331 a 1.1317704,1.1317704 0 0 1 1.13569,-1.13666 z m 15.97108,0 h 11.53309 c 0.6305,0 1.13569,0.50812 1.13569,1.13666 v 11.5331 c 0,0.62854 -0.50617,1.13568 -1.13569,1.13568 h -11.53309 c -0.62952,0 -1.13569,-0.50812 -1.13569,-1.13568 v -11.5331 a 1.1317704,1.1317704 0 0 1 1.13569,-1.13666 z"
       fill="#c6d1d5"
       id="path5694"
       style="fill:none;stroke:#fffffe;stroke-width:0.97904;stroke-opacity:1" />
    <path
       d="m 270.24696,192.89746 c 0.55022,0 0.99079,0.50812 0.99079,1.13666 v 11.5331 c 0,0.62854 -0.44155,1.13568 -0.99079,1.13568 h -22.71667 c -0.54924,0 -0.99078,-0.50812 -0.99078,-1.13568 v -11.5331 c -9.8e-4,-0.6305 0.44154,-1.13666 0.99078,-1.13666 z"
       fill="#6d7a8a"
       id="path5696"
       style="fill:none;stroke:#fffffe;stroke-width:0.97904;stroke-opacity:1" />
    <path
       d="m 175.99575,116.84072 c -0.62953,0 -1.13569,-0.50812 -1.13569,-1.13568 v -5.19871 a 1.1317704,1.1317704 0 0 1 1.13569,-1.13666 h 18.0535 c 0.6305,0 1.13568,0.50812 1.13568,1.13666 v 5.19871 c 0,0.62854 -0.50616,1.13568 -1.13568,1.13568 z"
       fill="#5d5d5d"
       id="path5698"
       style="fill:none;stroke:#fffffe;stroke-width:0.97904;stroke-opacity:1" />
    <path
       d="m 270.13633,175.99824 c 0.61092,0 1.10142,0.50813 1.10142,1.13667 V 188.668 c 0,0.62855 -0.4905,1.13569 -1.10142,1.13569 h -25.23182 c -0.60994,0 -1.10142,-0.50812 -1.10142,-1.13569 v -11.53309 c -9.8e-4,-0.6305 0.4905,-1.13667 1.10142,-1.13667 z M 34.975779,127.15687 h 11.533093 c 0.630502,0 1.135687,0.50812 1.135687,1.13666 v 11.5331 c 0,0.62854 -0.506164,1.13568 -1.135687,1.13568 H 34.975779 c -0.629522,0 -1.135686,-0.50812 -1.135686,-1.13568 v -11.5331 a 1.1317704,1.1317704 0 0 1 1.135686,-1.13666 z m 223.593191,0 h 11.5331 c 0.6305,0 1.13568,0.50812 1.13568,1.13666 v 11.5331 c 0,0.62854 -0.50616,1.13568 -1.13568,1.13568 h -11.5331 c -0.62952,0 -1.13568,-0.50812 -1.13568,-1.13568 v -11.5331 c 0,-0.6305 0.50616,-1.13666 1.13568,-1.13666 z M 57.19118,159.71779 c 0.541409,0 0.976103,0.50812 0.976103,1.13666 v 11.53309 c 0,0.62855 -0.434694,1.13569 -0.976103,1.13569 H 34.816196 c -0.541409,0 -0.976103,-0.50812 -0.976103,-1.13569 v -11.53309 c -9.79e-4,-0.6305 0.434694,-1.13666 0.976103,-1.13666 z m 7.900854,33.17967 h 11.533093 c 0.630502,0 1.135687,0.50812 1.135687,1.13666 v 11.5331 c 0,0.62854 -0.506164,1.13568 -1.135687,1.13568 H 65.092034 c -0.629523,0 -1.135687,-0.50812 -1.135687,-1.13568 v -11.5331 a 1.1317704,1.1317704 0 0 1 1.135687,-1.13666 z m 15.971082,0 h 11.533093 c 0.630502,0 1.135687,0.50812 1.135687,1.13666 v 11.5331 c 0,0.62854 -0.506164,1.13568 -1.135687,1.13568 H 81.063116 c -0.629523,0 -1.135687,-0.50812 -1.135687,-1.13568 v -11.5331 a 1.1317704,1.1317704 0 0 1 1.135687,-1.13666 z m 15.971082,0 h 11.533092 c 0.6305,0 1.13569,0.50812 1.13569,1.13666 v 11.5331 c 0,0.62854 -0.50617,1.13568 -1.13569,1.13568 H 97.034198 c -0.629523,0 -1.135686,-0.50812 -1.135686,-1.13568 v -11.5331 a 1.1317704,1.1317704 0 0 1 1.135686,-1.13666 z m 130.195702,0 c 0.65008,0 1.17093,0.50812 1.17093,1.13666 v 11.5331 c 0,0.62854 -0.52183,1.13568 -1.17093,1.13568 h -26.84626 c -0.64911,0 -1.17094,-0.50812 -1.17094,-1.13568 v -11.5331 c -9.8e-4,-0.6305 0.52183,-1.13666 1.17094,-1.13666 z m 4.47323,0 h 11.53309 c 0.63051,0 1.13569,0.50812 1.13569,1.13666 v 11.5331 c 0,0.62854 -0.50616,1.13568 -1.13569,1.13568 h -11.53309 c -0.62952,0 -1.13569,-0.50812 -1.13569,-1.13568 v -11.5331 c 0,-0.6305 0.50617,-1.13666 1.13569,-1.13666 z M 61.967917,175.99824 c 0.531618,0 0.957501,0.50813 0.957501,1.13667 V 188.668 c 0,0.62855 -0.426862,1.13569 -0.957501,1.13569 H 34.797594 c -0.53064,0 -0.957501,-0.50812 -0.957501,-1.13569 v -11.53309 c -9.79e-4,-0.6305 0.425882,-1.13667 0.957501,-1.13667 z M 51.734989,157.24179 c 0.522807,0 0.942816,-0.50714 0.942816,-1.13568 v -11.5331 c 0,-0.62854 -0.420009,-1.13666 -0.942816,-1.13666 H 34.782908 c -0.523786,0 -0.943794,0.50616 -0.942815,1.13666 v 11.5331 c 0,0.62854 0.420008,1.13568 0.942815,1.13568 z m 60.773921,35.53231 h 83.38191 c 0.6305,0 1.13569,0.50812 1.13569,1.13666 v 11.5331 c 0,0.62854 -0.50617,1.13568 -1.13569,1.13568 v 0.12336 h -83.38191 c -0.62953,0 -1.13569,-0.50812 -1.13569,-1.13568 v -11.5331 a 1.1317704,1.1317704 0 0 1 1.13569,-1.13666 m 138.90915,-35.65567 h -3.74385 c -0.62952,0 -1.13568,-0.50812 -1.13568,-1.13568 v -11.5331 a 1.1317704,1.1317704 0 0 1 1.13568,-1.13666 h 22.42786 c 0.6305,0 1.13568,0.50812 1.13568,1.13666 v 27.81356 c 0,0.62854 -0.50616,1.13568 -1.13568,1.13568 h -16.41263 c -0.62855,0 -1.13569,-0.50616 -1.13569,-1.13568 v -13.94056 c 0,-0.62854 -0.50616,-1.20422 -1.13569,-1.20422 z m 26.09338,-36.46043 h 11.53309 c 0.63051,0 1.13569,0.50812 1.13569,1.13666 v 11.5331 c 0,0.62854 -0.50616,1.13568 -1.13569,1.13568 h -11.53309 c -0.62952,0 -1.13569,-0.50812 -1.13569,-1.13568 v -11.5331 a 1.1327495,1.1327495 0 0 1 1.13569,-1.13666 z m 15.97108,0 h 11.5331 c 0.6305,0 1.13568,0.50812 1.13568,1.13666 v 11.5331 c 0,0.62854 -0.50616,1.13568 -1.13568,1.13568 h -11.5331 c -0.62952,0 -1.13568,-0.50812 -1.13568,-1.13568 v -11.5331 a 1.1317704,1.1317704 0 0 1 1.13568,-1.13666 z m 15.97109,0 h 11.53309 c 0.6305,0 1.13569,0.50812 1.13569,1.13666 v 11.5331 c 0,0.62854 -0.50617,1.13568 -1.13569,1.13568 h -11.53309 c -0.62953,0 -1.13569,-0.50812 -1.13569,-1.13568 v -11.5331 a 1.1317704,1.1317704 0 0 1 1.13569,-1.13666 z m 15.97108,0 h 11.53309 c 0.6305,0 1.13569,0.50812 1.13569,1.13666 v 11.5331 c 0,0.62854 -0.50617,1.13568 -1.13569,1.13568 h -11.53309 c -0.62953,0 -1.13569,-0.50812 -1.13569,-1.13568 v -11.5331 a 1.1317704,1.1317704 0 0 1 1.13569,-1.13666 z M 277.51144,104.5009 h 11.53309 c 0.63051,0 1.13569,0.50812 1.13569,1.13667 v 11.53309 c 0,0.62854 -0.50616,1.13568 -1.13569,1.13568 h -11.53309 c -0.62952,0 -1.13569,-0.50812 -1.13569,-1.13568 v -11.53309 a 1.1327495,1.1327495 0 0 1 1.13569,-1.13667 z m 15.97108,0 h 11.5331 c 0.6305,0 1.13568,0.50812 1.13568,1.13667 v 11.53309 c 0,0.62854 -0.50616,1.13568 -1.13568,1.13568 h -11.5331 c -0.62952,0 -1.13568,-0.50812 -1.13568,-1.13568 v -11.53309 a 1.1317704,1.1317704 0 0 1 1.13568,-1.13667 z m 15.97109,0 h 11.53309 c 0.6305,0 1.13569,0.50812 1.13569,1.13667 v 11.53309 c 0,0.62854 -0.50617,1.13568 -1.13569,1.13568 h -11.53309 c -0.62953,0 -1.13569,-0.50812 -1.13569,-1.13568 v -11.53309 a 1.1317704,1.1317704 0 0 1 1.13569,-1.13667 z m 15.97108,0 h 11.53309 c 0.6305,0 1.13569,0.50812 1.13569,1.13667 v 11.53309 c 0,0.62854 -0.50617,1.13568 -1.13569,1.13568 h -11.53309 c -0.62953,0 -1.13569,-0.50812 -1.13569,-1.13568 v -11.53309 a 1.1317704,1.1317704 0 0 1 1.13569,-1.13667 z m -47.91325,48.84138 h 11.53309 c 0.63051,0 1.13569,0.50812 1.13569,1.13666 v 11.53309 c 0,0.62855 -0.50616,1.13569 -1.13569,1.13569 h -11.53309 c -0.62952,0 -1.13569,-0.50812 -1.13569,-1.13569 v -11.53309 a 1.1327495,1.1327495 0 0 1 1.13569,-1.13666 z m 15.97108,0 h 11.5331 c 0.6305,0 1.13568,0.50812 1.13568,1.13666 v 11.53309 c 0,0.62855 -0.50616,1.13569 -1.13568,1.13569 h -11.5331 c -0.62952,0 -1.13568,-0.50812 -1.13568,-1.13569 v -11.53309 a 1.1317704,1.1317704 0 0 1 1.13568,-1.13666 z m 15.97109,0 h 11.53309 c 0.6305,0 1.13569,0.50812 1.13569,1.13666 v 11.53309 c 0,0.62855 -0.50617,1.13569 -1.13569,1.13569 h -11.53309 c -0.62953,0 -1.13569,-0.50812 -1.13569,-1.13569 v -11.53309 a 1.1317704,1.1317704 0 0 1 1.13569,-1.13666 z m 15.97108,0 h 11.53309 c 0.6305,0 1.13569,0.50812 1.13569,1.13666 v 11.53309 c 0,0.62855 -0.50617,1.13569 -1.13569,1.13569 h -11.53309 c -0.62953,0 -1.13569,-0.50812 -1.13569,-1.13569 v -11.53309 a 1.1317704,1.1317704 0 0 1 1.13569,-1.13666 z m -47.91325,-16.28046 h 11.53309 c 0.63051,0 1.13569,0.50812 1.13569,1.13666 v 11.5331 c 0,0.62854 -0.50616,1.13568 -1.13569,1.13568 h -11.53309 c -0.62952,0 -1.13569,-0.50812 -1.13569,-1.13568 v -11.5331 a 1.1327495,1.1327495 0 0 1 1.13569,-1.13666 z m 15.97108,0 h 11.5331 c 0.6305,0 1.13568,0.50812 1.13568,1.13666 v 11.5331 c 0,0.62854 -0.50616,1.13568 -1.13568,1.13568 h -11.5331 c -0.62952,0 -1.13568,-0.50812 -1.13568,-1.13568 v -11.5331 a 1.1317704,1.1317704 0 0 1 1.13568,-1.13666 z m 15.97109,0 h 11.53309 c 0.6305,0 1.13569,0.50812 1.13569,1.13666 v 11.5331 c 0,0.62854 -0.50617,1.13568 -1.13569,1.13568 h -11.53309 c -0.62953,0 -1.13569,-0.50812 -1.13569,-1.13568 v -11.5331 a 1.1317704,1.1317704 0 0 1 1.13569,-1.13666 z m 15.97108,0 h 11.53309 c 0.6305,0 1.13569,0.50812 1.13569,1.13666 v 11.5331 c 0,0.62854 -0.50617,1.13568 -1.13569,1.13568 h -11.53309 c -0.62953,0 -1.13569,-0.50812 -1.13569,-1.13568 v -11.5331 a 1.1317704,1.1317704 0 0 1 1.13569,-1.13666 z M 38.142974,116.84072 c -0.629523,0 -1.135686,-0.50812 -1.135686,-1.13568 v -5.19871 a 1.1317704,1.1317704 0 0 1 1.135686,-1.13666 h 18.053501 c 0.630502,0 1.135687,0.50812 1.135687,1.13666 v 5.19871 c 0,0.62854 -0.506164,1.13568 -1.135687,1.13568 z m 22.253583,0 c -0.629523,0 -1.135686,-0.50812 -1.135686,-1.13568 v -5.19871 a 1.1317704,1.1317704 0 0 1 1.135686,-1.13666 h 18.053501 c 0.630502,0 1.135686,0.50812 1.135686,1.13666 v 5.19871 c 0,0.62854 -0.506163,1.13568 -1.135686,1.13568 z m 22.249667,0 c -0.629523,0 -1.135687,-0.50812 -1.135687,-1.13568 v -5.19871 a 1.1317704,1.1317704 0 0 1 1.135687,-1.13666 h 18.053506 c 0.6305,0 1.13568,0.50812 1.13568,1.13666 v 5.19871 c 0,0.62854 -0.50616,1.13568 -1.13568,1.13568 z m 22.254566,0 c -0.62953,0 -1.13569,-0.50812 -1.13569,-1.13568 v -5.19871 a 1.1317704,1.1317704 0 0 1 1.13569,-1.13666 h 18.0535 c 0.6305,0 1.13568,0.50812 1.13568,1.13666 v 5.19871 c 0,0.62854 -0.50616,1.13568 -1.13568,1.13568 z m 22.87233,0 c -0.62952,0 -1.13568,-0.50812 -1.13568,-1.13568 v -5.19871 a 1.1317704,1.1317704 0 0 1 1.13568,-1.13666 h 18.0535 c 0.6305,0 1.13569,0.50812 1.13569,1.13666 v 5.19871 c 0,0.62854 -0.50616,1.13568 -1.13569,1.13568 z m 25.34931,0 c -0.62952,0 -1.13569,-0.50812 -1.13569,-1.13568 v -5.19871 a 1.1317704,1.1317704 0 0 1 1.13569,-1.13666 h 18.0535 c 0.6305,0 1.13569,0.50812 1.13569,1.13666 v 5.19871 c 0,0.62854 -0.50617,1.13568 -1.13569,1.13568 z m 48.22262,0 c -0.62952,0 -1.13568,-0.50812 -1.13568,-1.13568 v -5.19871 a 1.1317704,1.1317704 0 0 1 1.13568,-1.13666 h 18.0535 c 0.63051,0 1.13569,0.50812 1.13569,1.13666 v 5.19871 c 0,0.62854 -0.50616,1.13568 -1.13569,1.13568 z m 22.25457,0 c -0.62953,0 -1.13569,-0.50812 -1.13569,-1.13568 v -5.19871 a 1.1317704,1.1317704 0 0 1 1.13569,-1.13666 h 18.0535 c 0.6305,0 1.13568,0.50812 1.13568,1.13666 v 5.19871 c 0,0.62854 -0.50616,1.13568 -1.13568,1.13568 z m 22.87233,0 c -0.62952,0 -1.13568,-0.50812 -1.13568,-1.13568 v -5.19871 a 1.1317704,1.1317704 0 0 1 1.13568,-1.13666 h 18.0535 c 0.6305,0 1.13569,0.50812 1.13569,1.13666 v 5.19871 c 0,0.62854 -0.50616,1.13568 -1.13569,1.13568 z m -70.4762,0 c -0.62953,0 -1.13569,-0.50812 -1.13569,-1.13568 v -5.19871 a 1.1317704,1.1317704 0 0 1 1.13569,-1.13666 h 18.0535 c 0.6305,0 1.13568,0.50812 1.13568,1.13666 v 5.19871 c 0,0.62854 -0.50616,1.13568 -1.13568,1.13568 z"
       fill="#8c979d"
       id="path5700"
       style="fill:none;stroke:#fffffe;stroke-width:0.97904;stroke-opacity:1" />
    <path
       fill="none"
       stroke="#fff"
       stroke-width="0.743091"
       stroke-miterlimit="10"
       d="m 306.866,200.58978 h 7.30266"
       id="path5702"
       style="fill:none;stroke:#fffffe;stroke-opacity:1" />
    <path
       d="m 337.75864,207.69271 h -59.6353 a 1.7524819,1.7524819 0 0 1 -1.74759,-1.74758 v -19.00611 a 1.7524819,1.7524819 0 0 1 1.74759,-1.74759 h 59.6353 a 1.7524819,1.7524819 0 0 1 1.74758,1.74759 v 19.00611 a 1.7524819,1.7524819 0 0 1 -1.74758,1.74758 z"
       fill="#221d1f"
       id="path5704"
       style="fill:none;stroke:#fffffe;stroke-width:0.97904;stroke-opacity:1" />
    <path
       d="m 317.49348,214.93565 h -19.38303 a 1.7524819,1.7524819 0 0 1 -1.74759,-1.74759 v -33.83171 a 1.7524819,1.7524819 0 0 1 1.74759,-1.74758 h 19.38303 a 1.7524819,1.7524819 0 0 1 1.74759,1.74758 v 33.83171 a 1.7524819,1.7524819 0 0 1 -1.74759,1.74759 z"
       fill="#221d1f"
       id="path5706"
       style="fill:none;stroke:#fffffe;stroke-width:0.97904;stroke-opacity:1" />
    <g
       id="g5742"
       style="fill:none;stroke:#fffffe;stroke-opacity:1"
       transform="matrix(0.97904016,0,0,0.97904016,1.9889791,1.9895201)">
      <path
         d="m 298.381,209.24 h -16.193 a 1.04,1.04 0 0 1 -1.037,-1.037 v -19.158 a 1.04,1.04 0 0 1 1.037,-1.037 h 16.193 a 1.04,1.04 0 0 1 1.037,1.037 v 19.158 a 1.04,1.04 0 0 1 -1.037,1.037 z"
         fill="#878c91"
         id="path5708"
         style="fill:none;stroke:#fffffe;stroke-opacity:1" />
      <path
         fill="none"
         stroke="#fff"
         stroke-width="0.759"
         stroke-miterlimit="10"
         d="m 290.089,193.572 -5.051,5.051 5.051,5.051"
         id="path5710"
         style="fill:none;stroke:#fffffe;stroke-opacity:1" />
      <path
         d="m 308.731,198.623 h -18.624 c 0,-4.945 4.169,-8.953 9.312,-8.953 z"
         fill="#989da3"
         id="path5712"
         style="fill:none;stroke:#fffffe;stroke-opacity:1" />
      <path
         d="m 308.731,198.623 h -18.624 c 0,4.945 4.169,8.953 9.312,8.953 z"
         fill="#a2a6aa"
         id="path5714"
         style="fill:none;stroke:#fffffe;stroke-opacity:1" />
      <g
         id="g5724"
         style="fill:none;stroke:#fffffe;stroke-opacity:1">
        <path
           d="m 326.428,209.24 h 16.193 a 1.04,1.04 0 0 0 1.037,-1.037 v -19.158 a 1.04,1.04 0 0 0 -1.037,-1.037 h -16.193 a 1.04,1.04 0 0 0 -1.037,1.037 v 19.158 a 1.04,1.04 0 0 0 1.037,1.037 z"
           fill="#878c91"
           id="path5716"
           style="fill:none;stroke:#fffffe;stroke-opacity:1" />
        <path
           fill="none"
           stroke="#fff"
           stroke-width="0.759"
           stroke-miterlimit="10"
           d="m 334.72,193.572 5.05,5.051 -5.05,5.051"
           id="path5718"
           style="fill:none;stroke:#fffffe;stroke-opacity:1" />
        <path
           d="m 316.078,198.623 h 18.624 c 0,-4.945 -4.169,-8.953 -9.312,-8.953 z"
           fill="#989da3"
           id="path5720"
           style="fill:none;stroke:#fffffe;stroke-opacity:1" />
        <path
           d="m 316.078,198.623 h 18.624 c 0,4.945 -4.169,8.953 -9.312,8.953 z"
           fill="#a2a6aa"
           id="path5722"
           style="fill:none;stroke:#fffffe;stroke-opacity:1" />
      </g>
      <g
         id="g5732"
         style="fill:none;stroke:#fffffe;stroke-opacity:1">
        <path
           d="m 323.269,190.432 h -21.787 v -8.75 c 0,-0.71 0.581,-1.291 1.291,-1.291 h 19.263 c 0.71,0 1.291,0.581 1.291,1.291 v 8.692 a 0.059,0.059 0 0 1 -0.058,0.058 z"
           fill="#878c91"
           id="path5726"
           style="fill:none;stroke:#fffffe;stroke-opacity:1" />
        <path
           fill="none"
           stroke="#fff"
           stroke-width="0.759"
           stroke-miterlimit="10"
           d="m 317.455,187.936 -5.051,-5.051 -5.05,5.051"
           id="path5728"
           style="fill:none;stroke:#fffffe;stroke-opacity:1" />
        <path
           fill="#989da3"
           d="m 323.27,190.432 -8.275,7.445 h -5.36 l -8.153,-7.445 z"
           id="path5730"
           style="fill:none;stroke:#fffffe;stroke-opacity:1" />
      </g>
      <g
         id="g5740"
         style="fill:none;stroke:#fffffe;stroke-opacity:1">
        <path
           d="m 301.54,206.784 h 21.787 v 8.75 c 0,0.71 -0.581,1.291 -1.291,1.291 h -19.263 c -0.71,0 -1.291,-0.581 -1.291,-1.291 v -8.692 c 0,-0.032 0.026,-0.058 0.058,-0.058 z"
           fill="#878c91"
           id="path5734"
           style="fill:none;stroke:#fffffe;stroke-opacity:1" />
        <path
           fill="none"
           stroke="#fff"
           stroke-width="0.759"
           stroke-miterlimit="10"
           d="m 307.354,209.279 5.05,5.051 5.051,-5.051"
           id="path5736"
           style="fill:none;stroke:#fffffe;stroke-opacity:1" />
        <path
           fill="#94979b"
           d="m 301.539,206.784 8.275,-7.446 h 5.36 l 8.153,7.446 z"
           id="path5738"
           style="fill:none;stroke:#fffffe;stroke-opacity:1" />
      </g>
    </g>
    <path
       fill="#637080"
       d="m 181.92677,4.156136 h 156.47314 l 5.12038,42.836923 H 20.308779 L 25.42818,4.156136 h 156.47314"
       id="path5744"
       style="fill:none;stroke:#fffffe;stroke-width:0.97904;stroke-opacity:1" />
    <path
       d="m 152.45668,41.254905 h -11.43029 a 1.5175123,1.5175123 0 0 1 -1.5136,-1.513596 v -2.37711 c 0,-0.832184 0.68141,-1.513596 1.5136,-1.513596 h 11.43029 c 0.83219,0 1.5136,0.681412 1.5136,1.513596 v 2.37711 a 1.5175123,1.5175123 0 0 1 -1.5136,1.513596 z"
       fill="#4f5966"
       stroke="#131314"
       stroke-width="0.743091"
       stroke-miterlimit="10"
       id="path5746"
       style="fill:none;stroke:#fffffe;stroke-opacity:1" />
    <path
       fill="#131314"
       d="m 99.882226,15.917345 h 93.719594 v 3.714479 H 99.882226 Z"
       id="path5748"
       style="fill:none;stroke:#fffffe;stroke-width:0.97904;stroke-opacity:1" />
    <path
       d="M 193.27678,35.850603 H 100.20629 A 2.7099832,2.7099832 0 0 1 97.504138,33.148452 V 17.227301 a 2.7099832,2.7099832 0 0 1 2.702152,-2.702151 h 93.06951 a 2.7099832,2.7099832 0 0 1 2.70216,2.702151 v 15.921151 a 2.7090041,2.7090041 0 0 1 -2.70118,2.702151 z"
       fill="none"
       stroke="#1d1d1e"
       stroke-width="0.743091"
       stroke-miterlimit="10"
       id="path5750"
       style="fill:none;stroke:#fffffe;stroke-opacity:1" />
    <g
       id="g5760"
       style="fill:none;stroke:#fffffe;stroke-opacity:1"
       transform="matrix(0.97904016,0,0,0.97904016,1.9889791,1.9895201)">
      <path
         fill="#131314"
         d="M 29.848,2.213 H 183.79 V 12.804 H 29.848 Z"
         id="path5752"
         style="fill:none;stroke:#fffffe;stroke-opacity:1" />
      <path
         d="M 42.55,12.804 H 33.267 A 0.713,0.713 0 0 1 32.556,12.093 V 0.711 A 0.712,0.712 0 0 1 33.266,0 h 9.283 c 0.391,0 0.711,0.32 0.711,0.711 v 11.381 a 0.712,0.712 0 0 1 -0.71,0.712 z m 13.312,0 H 49.14 A 0.713,0.713 0 0 1 48.429,12.093 V 0.711 C 48.429,0.32 48.749,0 49.14,0 h 6.721 c 0.391,0 0.711,0.32 0.711,0.711 v 11.381 a 0.712,0.712 0 0 1 -0.71,0.712 z m 13.127,0 H 62.268 A 0.713,0.713 0 0 1 61.557,12.093 V 0.711 C 61.557,0.32 61.877,0 62.268,0 h 6.721 C 69.38,0 69.7,0.32 69.7,0.711 v 11.381 a 0.712,0.712 0 0 1 -0.711,0.712 z m 13.128,0 H 75.396 A 0.713,0.713 0 0 1 74.685,12.093 V 0.711 A 0.712,0.712 0 0 1 75.396,0 h 6.721 c 0.391,0 0.711,0.32 0.711,0.711 v 11.381 c 0,0.392 -0.32,0.712 -0.711,0.712 z m 13.128,0 H 88.524 A 0.713,0.713 0 0 1 87.813,12.093 V 0.711 A 0.712,0.712 0 0 1 88.523,0 h 6.721 c 0.391,0 0.711,0.32 0.711,0.711 v 11.381 a 0.712,0.712 0 0 1 -0.71,0.712 z m 13.127,0 h -6.721 A 0.713,0.713 0 0 1 100.94,12.093 V 0.711 C 100.94,0.32 101.26,0 101.651,0 h 6.721 c 0.391,0 0.711,0.32 0.711,0.711 v 11.381 a 0.713,0.713 0 0 1 -0.711,0.712 z m 13.128,0 h -6.721 a 0.713,0.713 0 0 1 -0.711,-0.711 V 0.711 C 114.068,0.32 114.388,0 114.779,0 h 6.721 c 0.391,0 0.711,0.32 0.711,0.711 v 11.381 c 0,0.392 -0.32,0.712 -0.711,0.712 z m 13.127,0 h -6.721 a 0.713,0.713 0 0 1 -0.711,-0.711 V 0.711 C 127.195,0.32 127.515,0 127.906,0 h 6.721 c 0.391,0 0.711,0.32 0.711,0.711 v 11.381 a 0.712,0.712 0 0 1 -0.711,0.712 z m 13.128,0 h -6.721 a 0.713,0.713 0 0 1 -0.711,-0.711 V 0.711 C 140.323,0.32 140.643,0 141.034,0 h 6.721 c 0.391,0 0.711,0.32 0.711,0.711 v 11.381 c 0,0.392 -0.32,0.712 -0.711,0.712 z m 13.128,0 h -6.721 a 0.713,0.713 0 0 1 -0.711,-0.711 V 0.711 C 153.451,0.32 153.771,0 154.162,0 h 6.721 c 0.391,0 0.711,0.32 0.711,0.711 v 11.381 c 0,0.392 -0.32,0.712 -0.711,0.712 z m 13.127,0 h -6.721 a 0.713,0.713 0 0 1 -0.711,-0.711 V 0.711 C 166.578,0.32 166.898,0 167.289,0 h 6.721 c 0.391,0 0.711,0.32 0.711,0.711 v 11.381 a 0.712,0.712 0 0 1 -0.711,0.712 z"
         fill="#637080"
         id="path5754"
         style="fill:none;stroke:#fffffe;stroke-opacity:1" />
      <path
         fill="#131314"
         d="M 337.707,12.804 H 183.765 V 2.213 h 153.942 z"
         id="path5756"
         style="fill:none;stroke:#fffffe;stroke-opacity:1" />
      <path
         d="m 325.005,12.804 h 9.283 c 0.391,0 0.711,-0.32 0.711,-0.711 V 0.711 A 0.713,0.713 0 0 0 334.288,0 h -9.283 a 0.713,0.713 0 0 0 -0.711,0.711 v 11.381 c 0,0.392 0.32,0.712 0.711,0.712 z m -13.312,0 h 6.721 c 0.391,0 0.711,-0.32 0.711,-0.711 V 0.711 A 0.713,0.713 0 0 0 318.414,0 h -6.721 a 0.713,0.713 0 0 0 -0.711,0.711 v 11.381 a 0.712,0.712 0 0 0 0.711,0.712 z m -13.128,0 h 6.721 c 0.391,0 0.711,-0.32 0.711,-0.711 V 0.711 A 0.713,0.713 0 0 0 305.286,0 h -6.721 a 0.713,0.713 0 0 0 -0.711,0.711 v 11.381 c 0,0.392 0.32,0.712 0.711,0.712 z m -13.128,0 h 6.721 c 0.391,0 0.711,-0.32 0.711,-0.711 V 0.711 A 0.713,0.713 0 0 0 292.158,0 h -6.721 a 0.713,0.713 0 0 0 -0.711,0.711 v 11.381 c 0,0.392 0.32,0.712 0.711,0.712 z m -13.127,0 h 6.721 c 0.391,0 0.711,-0.32 0.711,-0.711 V 0.711 A 0.713,0.713 0 0 0 279.031,0 h -6.721 a 0.713,0.713 0 0 0 -0.711,0.711 v 11.381 c 0,0.392 0.32,0.712 0.711,0.712 z m -13.128,0 h 6.721 c 0.391,0 0.711,-0.32 0.711,-0.711 V 0.711 A 0.713,0.713 0 0 0 265.903,0 h -6.721 a 0.713,0.713 0 0 0 -0.711,0.711 v 11.381 c 0,0.392 0.32,0.712 0.711,0.712 z m -13.127,0 h 6.721 c 0.391,0 0.711,-0.32 0.711,-0.711 V 0.711 A 0.713,0.713 0 0 0 252.776,0 h -6.721 a 0.713,0.713 0 0 0 -0.711,0.711 v 11.381 a 0.712,0.712 0 0 0 0.711,0.712 z m -13.128,0 h 6.721 c 0.391,0 0.711,-0.32 0.711,-0.711 V 0.711 A 0.713,0.713 0 0 0 239.648,0 h -6.721 a 0.713,0.713 0 0 0 -0.711,0.711 v 11.381 c 0,0.392 0.32,0.712 0.711,0.712 z m -13.128,0 h 6.721 c 0.391,0 0.711,-0.32 0.711,-0.711 V 0.711 A 0.713,0.713 0 0 0 226.52,0 h -6.721 a 0.713,0.713 0 0 0 -0.711,0.711 v 11.381 c 0,0.392 0.32,0.712 0.711,0.712 z m -13.127,0 h 6.721 c 0.391,0 0.711,-0.32 0.711,-0.711 V 0.711 A 0.713,0.713 0 0 0 213.393,0 h -6.721 a 0.713,0.713 0 0 0 -0.711,0.711 v 11.381 a 0.713,0.713 0 0 0 0.711,0.712 z m -13.128,0 h 6.721 c 0.391,0 0.711,-0.32 0.711,-0.711 V 0.711 A 0.713,0.713 0 0 0 200.265,0 h -6.721 a 0.713,0.713 0 0 0 -0.711,0.711 v 11.381 c 0,0.392 0.32,0.712 0.711,0.712 z m -6.406,0 h -6.721 a 0.713,0.713 0 0 1 -0.711,-0.711 V 0.711 C 179.706,0.32 180.026,0 180.417,0 h 6.721 c 0.391,0 0.711,0.32 0.711,0.711 v 11.381 c 0,0.392 -0.32,0.712 -0.711,0.712 z"
         fill="#637080"
         id="path5758"
         style="fill:none;stroke:#fffffe;stroke-opacity:1" />
    </g>
    <path
       fill="none"
       stroke="#4f5962"
       stroke-width="0.73428"
       stroke-miterlimit="10"
       d="m 29.404062,17.774585 h 66.529695 m 234.032703,0 H 198.75353"
       id="path5762"
       style="fill:none;stroke:#fffffe;stroke-opacity:1" />
    <path
       fill="#637080"
       d="M 31.21137,1.9895201 H 25.683709 L 25.554476,3.0723385 25.424264,4.156136 h 5.787106 z m 301.40535,0 h 5.52766 l 0.13021,1.0828184 0.12923,1.0837975 h -5.7871 z"
       id="path5764"
       style="fill:none;stroke:#fffffe;stroke-width:0.97904;stroke-opacity:1" />
    <path
       fill="#28292b"
       d="M 18.392797,70.764155 H 345.43529 V 89.272909 H 18.392797 Z"
       id="path5766"
       style="fill:none;stroke:#fffffe;stroke-width:0.97904;stroke-opacity:1" />
    <path
       fill="#697986"
       d="M 18.392797,46.993059 H 345.43529 V 70.764155 H 18.392797 Z"
       id="path5768"
       style="fill:none;stroke:#fffffe;stroke-width:0.97904;stroke-opacity:1" />
    <path
       fill="#30343d"
       d="M 18.392797,52.688136 H 345.43529 V 65.069078 H 18.392797 Z"
       id="path5770"
       style="fill:none;stroke:#fffffe;stroke-width:0.97904;stroke-opacity:1" />
    <path
       d="M 8.7982034,89.272909 1.9889791,77.136727 c 0.43861,-2.257667 3.5421673,-4.201061 7.0500682,-4.925551 L 18.392797,70.763175 V 89.27193 H 8.7982034 Z"
       fill="#28292b"
       id="path5772"
       style="fill:none;stroke:#fffffe;stroke-width:0.97904;stroke-opacity:1" />
    <path
       d="M 18.392797,65.069078 V 52.689115 L 9.9681564,54.23404 c -3.1593626,0.773442 -5.9545222,2.848028 -6.3500545,5.259404 v 0.04308 l -0.6030887,5.64025 -0.7470077,6.696635 c 0.4532956,-2.410399 2.8353004,-4.485964 6.459707,-5.259406 z"
       fill="#30343d"
       id="path5774"
       style="fill:none;stroke:#fffffe;stroke-width:0.97904;stroke-opacity:1" />
    <path
       d="M 3.619081,59.493444 4.6030163,53.366611 C 4.9721145,51.108944 7.5812565,49.165549 10.530126,48.44106 l 7.86365,-1.448001 v 5.695077 L 9.9681564,54.23404 C 6.8087938,55.007482 4.0136342,57.082068 3.619081,59.493444 Z m -1.6301019,17.643283 0.2790264,-5.26332 c 0.4532956,-2.410397 2.8353004,-4.485962 6.459707,-5.259404 l 9.6660635,-1.545904 v 5.695076 l -9.3537496,1.448001 c -3.50888,0.72449 -6.6124373,2.667884 -7.0510473,4.925551 l 0.1390237,0.247697"
       fill="#697986"
       id="path5776"
       style="fill:none;stroke:#fffffe;stroke-width:0.97904;stroke-opacity:1" />
    <path
       fill="none"
       stroke="#131314"
       stroke-width="0.776379"
       stroke-miterlimit="10"
       d="M 189.55741,89.272909 H 78.837758 l -3.98861,-16.1571 H 189.55741 Z"
       id="path5780"
       style="fill:none;stroke:#fffffe;stroke-opacity:1" />
    <path
       d="m 355.02988,89.265076 6.80923,-12.136181 c -0.43861,-2.257667 -3.54217,-4.201062 -7.05007,-4.925551 l -9.35473,-1.448001 v 18.508754 h 9.59557 z"
       fill="#28292b"
       id="path5792"
       style="fill:none;stroke:#fffffe;stroke-width:0.97904;stroke-opacity:1" />
    <path
       d="M 345.43529,65.061246 V 52.680304 l 8.42464,1.545904 c 3.15936,0.773442 5.95452,2.848028 6.35005,5.259404 v 0.04308 l 0.60407,5.64025 0.74701,6.696635 c -0.4533,-2.410397 -2.8353,-4.485962 -6.45971,-5.259404 z"
       fill="#30343d"
       id="path5794"
       style="fill:none;stroke:#fffffe;stroke-width:0.97904;stroke-opacity:1" />
    <path
       d="m 360.20998,59.485612 -0.98393,-6.126834 c -0.3691,-2.257666 -2.97824,-4.201061 -5.92711,-4.925551 l -7.86365,-1.448 v 5.695077 l 8.42464,1.545904 c 3.15936,0.773442 5.95452,2.849007 6.35005,5.259404 z m 1.62913,17.643283 -0.27903,-5.26332 c -0.45329,-2.410397 -2.8353,-4.485962 -6.45971,-5.259404 l -9.66606,-1.545904 v 5.695076 l 9.35473,1.448001 c 3.5079,0.724489 6.61244,2.667884 7.05007,4.925551 l -0.13903,0.247697"
       fill="#697986"
       id="path5796"
       style="fill:none;stroke:#fffffe;stroke-width:0.97904;stroke-opacity:1" />
    <path
       d="M 341.60528,95.277362 H 22.217907 c -3.21321,0.02741 -6.034804,1.776958 -7.582666,4.36554 l -0.0039,-0.002 L 8.8138681,89.272909 H 8.7982034 355.03086 v -0.0078 l -5.8155,10.337686 0.006,-0.0039 c -1.56549,-2.584666 -4.40568,-4.321483 -7.63162,-4.321483"
       fill="#6f7e8c"
       id="path5800"
       style="fill:none;stroke:#fffffe;stroke-width:0.97904;stroke-opacity:1" />
    <path
       d="m 263.63746,203.74718 h -9.49864 a 3.7467867,3.7467867 0 0 1 -3.73602,-3.73602 v -0.42196 a 3.7467867,3.7467867 0 0 1 3.73602,-3.73602 h 9.49864 a 3.7467867,3.7467867 0 0 1 3.73602,3.73602 v 0.42196 a 3.7467867,3.7467867 0 0 1 -3.73602,3.73602 z"
       fill="#93a1aa"
       stroke="#303030"
       stroke-width="0.233991"
       stroke-miterlimit="10"
       id="path5818"
       style="fill:none;stroke:#fffffe;stroke-opacity:1" />
    <path
       fill="#28292b"
       d="M 201.14925,74.586327 H 345.80243 V 85.355769 H 201.14925 Z"
       id="path5824"
       style="fill:none;stroke:#fffffe;stroke-width:0.97904;stroke-opacity:1" />
  </g>
</svg>
