<?xml version="1.0" encoding="UTF-8" standalone="no"?>
<!-- Generator: Adobe Illustrator 13.0.0, SVG Export Plug-In . SVG Version: 6.00 Build 14948)  -->

<svg
   version="1.2"
   id="Layer_3"
   x="0px"
   y="0px"
   width="316"
   height="328.26001"
   viewBox="0 0 315.99999 328.26"
   xml:space="preserve"
   sodipodi:docname="n3ds.svg"
   inkscape:version="1.2.2 (732a01da63, 2022-12-09)"
   xmlns:inkscape="http://www.inkscape.org/namespaces/inkscape"
   xmlns:sodipodi="http://sodipodi.sourceforge.net/DTD/sodipodi-0.dtd"
   xmlns="http://www.w3.org/2000/svg"
   xmlns:svg="http://www.w3.org/2000/svg"
   xmlns:rdf="http://www.w3.org/1999/02/22-rdf-syntax-ns#"
   xmlns:cc="http://creativecommons.org/ns#"
   xmlns:dc="http://purl.org/dc/elements/1.1/"
   xmlns:ns0="&amp;#38;ns_sfw;"><defs
   id="defs82" /><sodipodi:namedview
   pagecolor="#000000"
   bordercolor="#666666"
   borderopacity="1"
   objecttolerance="10"
   gridtolerance="10"
   guidetolerance="10"
   inkscape:pageopacity="0"
   inkscape:pageshadow="2"
   inkscape:window-width="1920"
   inkscape:window-height="1009"
   id="namedview80"
   showgrid="false"
   inkscape:pagecheckerboard="true"
   inkscape:zoom="1.6880091"
   inkscape:cx="217.11969"
   inkscape:cy="213.86141"
   inkscape:window-x="-8"
   inkscape:window-y="-8"
   inkscape:window-maximized="1"
   inkscape:current-layer="Layer_3"
   inkscape:showpageshadow="0"
   inkscape:deskcolor="#d1d1d1" />
<metadata
   id="metadata55">
	<rdf:RDF>
		<cc:Work
   rdf:about="">
			<dc:format>image/svg+xml</dc:format>
			<dc:type
   rdf:resource="http://purl.org/dc/dcmitype/StillImage" />
			
		</cc:Work>
	</rdf:RDF>
	<ns0:sfw>
		<ns0:slices />
		<ns0:sliceSourceBounds
   x="805.998"
   y="-7652"
   width="310.002"
   height="16383"
   bottomLeftOrigin="true" />
	</ns0:sfw>
</metadata>
<path
   fill="#f4f4f4"
   d="M 273.095,176.464 V 151.13 h 37.499 v -138 c -0.009,-4.418 -3.582,-7.992 -8,-8 v 0 H 12.595 c -4.42,0.008 -7.994,3.582 -8,8 v 0 l -0.002,138 h 37.501 v 24.75 h -2 V 153.13 H 2.594 V 13.128 c 0,-5.522 4.478,-9.999 10.001,-9.999 v 0 h 289.999 c 5.523,0 10.001,4.477 10.001,9.999 v 0 140.002 l -37.5,-0.002 v 23.336 z"
   id="path3" />
<path
   fill="#f4f4f4"
   d="m 12.595,325.128 c -5.525,0 -10,-4.478 -10,-10 v 0 -149 h 1.999 v 149 c 0.008,4.42 3.583,7.992 8.001,8.002 v 0 h 289.999 c 4.419,-0.01 7.991,-3.582 8.001,-8.002 v 0 -149 h 1.999 v 149 c 0,5.522 -4.478,10 -10,10 v 0 z"
   id="path5" />
<path
   fill="#f4f4f4"
   d="m 14.259,177.464 v -0.002 -1 -1 l 286.67,0.002 c 5.337,-0.012 9.654,-4.328 9.663,-9.668 v 0 c -0.009,-5.336 -4.326,-9.656 -9.663,-9.666 v 0 H 14.259 c -5.337,0.009 -9.655,4.328 -9.666,9.666 v 0 c 0.011,5.34 4.328,9.658 9.666,9.668 v 0 0.998 1 c -6.441,0 -11.664,-5.223 -11.666,-11.666 v 0 C 2.595,159.352 7.818,154.13 14.259,154.13 v 0 h 286.67 c 6.441,0 11.663,5.222 11.663,11.666 v 0 c 0,6.443 -5.222,11.666 -11.663,11.666 v 0 H 14.259 Z"
   id="path7" />
<path
   d="m 59.92097,144.796 c -3.62623,0 -6.55739,-2.238 -6.56132,-5 v 0 -115.334 c 0.004,-2.761 2.93509,-5 6.56132,-5 v 0 h 198.90641 c 3.62361,0 6.55345,2.238 6.55345,5 v 0 115.333 c 0,2.761 -2.92984,5 -6.55345,5 v 0 H 59.92097 Z M 55.9826,24.462 v 115.333 c 0.007,1.656 1.76394,2.996 3.93837,3 v 0 h 198.90641 c 2.17049,-0.004 3.92918,-1.344 3.93444,-3 v 0 -115.333 c -0.006,-1.657 -1.76395,-2.996 -3.93444,-3 v 0 H 59.92097 c -2.17574,0.004 -3.9318,1.345 -3.93837,3 z"
   id="path9"
   inkscape:connector-curvature="0"
   style="fill:#f4f4f4;stroke-width:1.1452" />
<path
   d="m 64.42074,137.796 c -2.22261,-0.002 -4.02162,-1.342 -4.02429,-3 v 0 l 0.002,-105.333 c 0,-1.657 1.799,-3 4.02162,-3 v 0 h 189.01446 c 2.22127,0 4.02027,1.344 4.02027,3 v 0 105.333 c 0,1.656 -1.799,3 -4.02027,3 v 0 H 64.4204 Z M 63.0802,29.462 63.0782,134.795 c 0.002,0.549 0.60325,0.998 1.34322,1 v 0 h 189.01415 c 0.74265,-0.002 1.33786,-0.447 1.34054,-1 v 0 -105.333 c -0.002,-0.552 -0.59789,-0.998 -1.34054,-1 v 0 H 64.42109 c -0.73998,0.002 -1.34053,0.449 -1.34053,1 z"
   id="path11"
   inkscape:connector-curvature="0"
   style="fill:#f4f4f4;stroke-width:1.15782" />
<path
   d="M 76.345,305.255 V 185.503 c 0,-2.209 1.79,-3.998 4,-3.998 v 0 l 154.499,-0.002 c 2.21,0.002 4,1.791 4,4 v 0 119.752 c 0,2.207 -1.79,3.998 -4,3.998 v 0 l -154.499,0.002 c -2.21,-0.002 -4,-1.793 -4,-4 z m 1.999,-119.752 v 119.752 c 0.003,1.104 0.897,1.996 2.001,1.998 v 0 h 154.499 c 1.104,-0.002 1.997,-0.896 1.999,-1.998 v 0 h 0.002 l -0.002,-119.752 c -0.002,-1.104 -0.895,-1.998 -1.999,-2 v 0 H 80.345 c -1.104,0.002 -1.998,0.896 -2.001,2 z"
   id="path13"
   fill="#f4f4f4" />
<path
   fill="#f4f4f4"
   d="m 85.969,300.753 c -1.104,0 -1.999,-0.896 -1.999,-1.998 v 0 -106.75 c 0,-1.107 0.895,-2.002 1.999,-2.002 v 0 h 143.25 c 1.104,0 1.999,0.895 1.999,2.002 v 0 106.75 c 0,1.104 -0.895,1.998 -1.999,1.998 v 0 z m 0,-108.748 v 106.75 h 143.25 v -106.75 -0.002 H 85.969 Z"
   id="path15" />
<path
   d="m 33.02983,290.25163 c -1.105,0 -2.001,-0.895 -2.001,-2 v 0 -12.062 h -12.063 c -1.105,0 -1.999,-0.896 -1.999,-1.999 v 0 -13.251 c 0,-1.104 0.894,-2 1.999,-2 v 0 h 12.063 v -12.063 c 0,-1.104 0.896,-1.998 2.001,-1.998 v 0 h 13.249 c 1.105,0 2,0.895 2,1.998 v 0 12.063 h 12.063 c 1.105,0 1.999,0.896 1.999,2 v 0 13.251 c 0,1.104 -0.893,1.999 -1.999,1.999 v 0 h -12.063 v 12.063 c 0,1.104 -0.896,1.998 -2,1.998 v 0 h -13.249 z m 0,-2 h 13.249 v -12.188 c 0.006,-0.307 0.025,-0.742 0.354,-1.199 v 0 c 0.334,-0.469 0.956,-0.693 1.502,-0.675 v 0 h 12.208 v -13.25 h -12.146 c -0.395,0 -0.891,-0.083 -1.317,-0.455 v 0 c -0.43,-0.376 -0.608,-0.954 -0.6,-1.481 v 0 -12.127 h -13.249 v 12.168 c -0.002,0.375 -0.075,0.842 -0.417,1.266 v 0 c -0.343,0.428 -0.929,0.645 -1.458,0.631 v 0 h -12.188 v 13.249 h 12.085 c 0.391,0.015 0.823,-0.008 1.34,0.345 v 0 c 0.53,0.393 0.648,1.022 0.638,1.469 v 0 12.247 z"
   id="path17"
   inkscape:connector-curvature="0"
   style="fill:#f4f4f4" />
<path
   fill="#f4f4f4"
   d="m 265.763,207.794 c 0,-5.246 4.253,-9.5 9.499,-9.5 v 0 c 5.247,0 9.5,4.254 9.5,9.5 v 0 c 0,5.246 -4.253,9.5 -9.5,9.5 v 0 c -5.246,0 -9.499,-4.252 -9.499,-9.5 z m 1.998,0 c 0.008,4.143 3.359,7.494 7.501,7.502 v 0 c 4.144,-0.008 7.493,-3.359 7.5,-7.502 v 0 c -0.007,-4.143 -3.356,-7.492 -7.5,-7.5 v 0 c -4.142,0.008 -7.493,3.358 -7.501,7.5 z"
   id="path19" />
<path
   fill="#f4f4f4"
   d="m 265.763,243.296 c 0,-5.25 4.253,-9.502 9.499,-9.502 v 0 c 5.247,0 9.5,4.252 9.5,9.502 v 0 c 0,5.244 -4.253,9.498 -9.5,9.498 v 0 c -5.246,0 -9.499,-4.252 -9.499,-9.498 z m 1.998,0 c 0.008,4.141 3.359,7.49 7.501,7.5 v 0 c 4.144,-0.01 7.493,-3.359 7.5,-7.5 v 0 c -0.007,-4.146 -3.356,-7.494 -7.5,-7.502 v 0 c -4.142,0.008 -7.493,3.357 -7.501,7.502 z"
   id="path21" />
<path
   fill="#f4f4f4"
   d="m 248.095,225.628 c 0,-5.246 4.256,-9.5 9.501,-9.5 v 0 c 5.246,0 9.5,4.254 9.5,9.5 v 0 c 0,5.246 -4.254,9.5 -9.5,9.5 v 0 c -5.245,0 -9.501,-4.252 -9.501,-9.5 z m 2.001,0 c 0.009,4.144 3.358,7.492 7.5,7.502 v 0 c 4.143,-0.01 7.492,-3.358 7.5,-7.502 v 0 c -0.008,-4.142 -3.357,-7.494 -7.5,-7.5 v 0 c -4.142,0.006 -7.493,3.359 -7.5,7.5 z"
   id="path23" />
<path
   fill="#f4f4f4"
   d="m 283.931,225.628 c 0,-5.246 4.252,-9.5 9.5,-9.5 v 0 c 5.245,0 9.499,4.254 9.499,9.5 v 0 c 0,5.248 -4.254,9.5 -9.499,9.5 v 0 c -5.248,0 -9.5,-4.252 -9.5,-9.5 z m 1.999,0 c 0.009,4.144 3.357,7.492 7.501,7.502 v 0 c 4.142,-0.01 7.493,-3.358 7.499,-7.502 v 0 c -0.006,-4.142 -3.357,-7.492 -7.499,-7.5 v 0 c -4.144,0.008 -7.494,3.359 -7.501,7.5 z"
   id="path25" />
<path
   fill="#f4f4f4"
   d="m 248.429,283.128 c 0,-2.946 2.387,-5.334 5.334,-5.334 v 0 c 2.943,0 5.331,2.388 5.331,5.334 v 0 c 0,2.945 -2.388,5.332 -5.331,5.332 v 0 c -2.95,0 -5.334,-2.385 -5.334,-5.332 z m 1.998,0 c 0.004,1.84 1.493,3.33 3.336,3.332 v 0 c 1.84,-0.002 3.327,-1.492 3.331,-3.332 v 0 c -0.004,-1.842 -1.491,-3.33 -3.331,-3.334 v 0 c -1.843,0.004 -3.332,1.494 -3.336,3.334 z"
   id="path27" />
<path
   fill="#f4f4f4"
   d="m 248.429,300.796 c 0,-2.947 2.388,-5.334 5.333,-5.334 v 0 c 2.945,0 5.332,2.387 5.332,5.334 v 0 c 0,2.945 -2.387,5.332 -5.332,5.332 v 0 c -2.947,0 -5.333,-2.387 -5.333,-5.332 z m 1.998,0 c 0.005,1.84 1.493,3.328 3.335,3.332 v 0 c 1.841,-0.004 3.33,-1.492 3.332,-3.332 v 0 c -0.002,-1.842 -1.491,-3.33 -3.332,-3.334 v 0 c -1.842,0.004 -3.33,1.492 -3.335,3.334 z"
   id="path29" />

<g
   id="g41"
   transform="matrix(0.57507656,0,0,0.68407401,-15.43579,-9.570924)">
	<path
   d="m 185.136,38.629 c -1.658,0 -3,-1.344 -3,-3 v 0 -5.251 c 0,-1.656 1.342,-3 3,-3 v 0 h 5.25 c 1.658,0 3,1.343 3,3 v 0 5.251 c 0,1.656 -1.341,3 -3,3 v 0 z m -1.001,-8.251 v 5.251 c 0.002,0.55 0.449,0.999 1,0.999 v 0 h 5.25 c 0.552,0 0.999,-0.449 1,-0.999 v 0 -5.251 c -0.002,-0.55 -0.448,-0.999 -1,-1 v 0 h -5.25 c -0.551,0.002 -0.998,0.451 -1,1 z"
   id="path37"
   inkscape:connector-curvature="0"
   style="fill:#f4f4f4" />
	<path
   d="m 408.803,38.628 c -1.657,0 -2.999,-1.343 -2.999,-2.999 v 0 -5.251 c 0,-1.656 1.342,-2.999 2.999,-2.999 v 0 h 5.251 c 1.656,0 2.997,1.341 2.999,2.999 v 0 5.251 c -0.002,1.658 -1.343,2.999 -2.999,2.999 v 0 z m -1.001,-8.249 v 5.251 c 0.002,0.553 0.448,0.999 1.001,0.999 v 0 h 5.251 c 0.549,0 0.997,-0.448 0.999,-0.999 v 0 -5.251 c -0.002,-0.551 -0.45,-0.999 -0.999,-1.001 v 0 h -5.251 c -0.553,0.002 -0.999,0.449 -1.001,1.001 z"
   id="path39"
   inkscape:connector-curvature="0"
   style="fill:#f4f4f4" />
</g>

<path
   d="m 292.85669,168.34931 c 0,0.16689 -0.448,0.3018 -1,0.3018 h -0.332 c -0.552,0 -1,-0.13491 -1,-0.3018 v -3.62157 c 0,-0.1669 0.448,-0.3018 1,-0.3018 h 0.332 c 0.552,0 1,0.1349 1,0.3018 z"
   id="path45"
   inkscape:connector-curvature="0"
   style="fill:#f4f4f4;stroke-width:0.549361" />

<g
   id="g77"
   transform="matrix(1.0985231,0,0,1,-170.18406,-12)">
	<g
   id="g61">
		<circle
   cx="405.56299"
   cy="90.942001"
   r="1.563"
   id="circle49"
   style="fill:#f4f4f4" />
		<circle
   cx="417.18799"
   cy="90.942001"
   r="1.563"
   id="circle51"
   style="fill:#f4f4f4" />
		<circle
   cx="428.81299"
   cy="90.942001"
   r="1.563"
   id="circle53"
   style="fill:#f4f4f4" />
		
		<circle
   cx="417.18799"
   cy="102.317"
   r="1.563"
   id="circle57"
   style="fill:#f4f4f4" />
		<circle
   cx="417.26093"
   cy="79.360962"
   r="1.563"
   id="circle59"
   style="fill:#f4f4f4" />
	</g>
	<g
   id="g75">
		<circle
   cx="170.37601"
   cy="90.942001"
   r="1.563"
   id="circle63"
   style="fill:#f4f4f4" />
		<circle
   cx="182.00101"
   cy="90.942001"
   r="1.563"
   id="circle65"
   style="fill:#f4f4f4" />
		<circle
   cx="193.62601"
   cy="90.942001"
   r="1.563"
   id="circle67"
   style="fill:#f4f4f4" />
		
		<circle
   cx="182.00101"
   cy="102.317"
   r="1.563"
   id="circle71"
   style="fill:#f4f4f4" />
		<circle
   cx="182.07393"
   cy="79.21286"
   r="1.563"
   id="circle73"
   style="fill:#f4f4f4" />
	</g>
</g>
<path
   inkscape:connector-curvature="0"
   style="fill:#f4f4f4;stroke-width:1.21815"
   d="m 27.7047,210.1505 c 0,-6.30919 5.2512,-11.42534 11.72267,-11.42534 v 0 c 6.4727,0 11.72143,5.11615 11.72143,11.42534 v 0 c 0,6.3092 -5.24873,11.42535 -11.72143,11.42535 v 0 c -6.47147,0 -11.72267,-5.11374 -11.72267,-11.42535 z m 2.4689,0 c 0.0111,4.98386 4.14322,9.01039 9.25377,9.02242 v 0 c 5.11178,-0.012 9.24389,-4.03856 9.25376,-9.02242 v 0 c -0.01,-4.98145 -4.14198,-9.01279 -9.25376,-9.02 v 0 c -5.11055,0.007 -9.24513,4.03975 -9.25377,9.02 z"
   id="path23-6" /><path
   inkscape:connector-curvature="0"
   style="fill:none;fill-opacity:1;stroke:#ffffff;stroke-width:1.118;stroke-miterlimit:4;stroke-dasharray:none;stroke-opacity:1"
   d="m 19.1147,209.74542 c 0,-11.15614 9.09932,-20.20268 20.31312,-20.20268 v 0 c 11.21594,0 20.31099,9.04654 20.31099,20.20268 v 0 c 0,11.15614 -9.09505,20.20268 -20.31099,20.20268 v 0 c -11.2138,0 -20.31312,-9.04229 -20.31312,-20.20268 z"
   id="path23-6-1"
   sodipodi:nodetypes="sccccccs" /><path
   inkscape:connector-curvature="0"
   style="fill:none;fill-opacity:1;stroke:#ffffff;stroke-width:0.987754;stroke-miterlimit:4;stroke-dasharray:none;stroke-opacity:1"
   d="m 244.86495,188.11581 c 0,-3.05516 2.44647,-5.5326 5.46143,-5.5326 v 0 c 3.01555,0 5.46086,2.47744 5.46086,5.5326 v 0 c 0,3.05516 -2.44531,5.5326 -5.46086,5.5326 v 0 c -3.01496,0 -5.46143,-2.47627 -5.46143,-5.5326 z"
   id="path23-6-1-1"
   sodipodi:nodetypes="sccccccs" /><path
   inkscape:connector-curvature="0"
   style="fill:#f4f4f4;stroke-width:0.680476"
   d="m 155.391,12.729246 c 0,-1.96424 1.65774,-3.55643 3.7044,-3.55643 v 0 c 2.04388,0 3.70232,1.59219 3.70232,3.55643 v 0 c 0,1.96356 -1.65844,3.55509 -3.70232,3.55509 v 0 c -2.04874,0 -3.7044,-1.59019 -3.7044,-3.55509 z m 1.38759,0 c 0.003,1.22681 1.03687,2.22026 2.31681,2.22159 v 0 c 1.27786,-0.001 2.31057,-0.99478 2.31335,-2.22159 v 0 c -0.003,-1.22815 -1.03549,-2.22027 -2.31335,-2.22294 v 0 c -1.27994,0.003 -2.31403,0.99612 -2.31681,2.22294 z"
   id="path27-2" /></svg>
