<?xml version="1.0" encoding="UTF-8" standalone="no"?>
<!-- Generator: Adobe Illustrator 13.0.0, SVG Export Plug-In . SVG Version: 6.00 Build 14948)  -->

<svg
   version="1.2"
   id="Layer_3"
   x="0px"
   y="0px"
   width="315"
   height="327.26001"
   viewBox="0 0 314.99998 327.26"
   xml:space="preserve"
   sodipodi:docname="nds.svg"
   inkscape:version="1.2.2 (732a01da63, 2022-12-09)"
   xmlns:inkscape="http://www.inkscape.org/namespaces/inkscape"
   xmlns:sodipodi="http://sodipodi.sourceforge.net/DTD/sodipodi-0.dtd"
   xmlns="http://www.w3.org/2000/svg"
   xmlns:svg="http://www.w3.org/2000/svg"
   xmlns:rdf="http://www.w3.org/1999/02/22-rdf-syntax-ns#"
   xmlns:cc="http://creativecommons.org/ns#"
   xmlns:dc="http://purl.org/dc/elements/1.1/"
   xmlns:ns="&amp;ns_sfw;"><defs
   id="defs2933" /><sodipodi:namedview
   id="namedview2931"
   pagecolor="#000000"
   bordercolor="#111111"
   borderopacity="1"
   inkscape:showpageshadow="0"
   inkscape:pageopacity="0"
   inkscape:pagecheckerboard="1"
   inkscape:deskcolor="#d1d1d1"
   showgrid="false"
   inkscape:zoom="2.0445042"
   inkscape:cx="299.58363"
   inkscape:cy="175.10357"
   inkscape:window-width="1920"
   inkscape:window-height="1009"
   inkscape:window-x="-8"
   inkscape:window-y="-8"
   inkscape:window-maximized="1"
   inkscape:current-layer="Layer_3" />
<metadata
   id="metadata55">
	<rdf:RDF>
		<cc:Work
   rdf:about="">
			<dc:format>image/svg+xml</dc:format>
			<dc:type
   rdf:resource="http://purl.org/dc/dcmitype/StillImage" />
			
		</cc:Work>
	</rdf:RDF>
	<ns:sfw>
		<ns:slices />
		<ns:sliceSourceBounds
   x="805.998"
   y="-7652"
   width="310.002"
   height="16383"
   bottomLeftOrigin="true" />
	</ns:sfw>
</metadata>
<path
   fill="#f4f4f4"
   d="M 273.095,176.464 V 151.13 h 37.499 v -138 c -0.009,-4.418 -3.582,-7.992 -8,-8 v 0 H 12.595 c -4.42,0.008 -7.994,3.582 -8,8 v 0 l -0.002,138 h 37.501 v 24.75 h -2 V 153.13 H 2.594 V 13.128 c 0,-5.522 4.478,-9.999 10.001,-9.999 v 0 h 289.999 c 5.523,0 10.001,4.477 10.001,9.999 v 0 140.002 l -37.5,-0.002 v 23.336 z"
   id="path2854" />
<path
   fill="#f4f4f4"
   d="m 12.595,325.128 c -5.525,0 -10,-4.478 -10,-10 v 0 -149 h 1.999 v 149 c 0.008,4.42 3.583,7.992 8.001,8.002 v 0 h 289.999 c 4.419,-0.01 7.991,-3.582 8.001,-8.002 v 0 -149 h 1.999 v 149 c 0,5.522 -4.478,10 -10,10 v 0 z"
   id="path2856" />
<path
   fill="#f4f4f4"
   d="m 14.259,177.464 v -0.002 -1 -1 l 286.67,0.002 c 5.337,-0.012 9.654,-4.328 9.663,-9.668 v 0 c -0.009,-5.336 -4.326,-9.656 -9.663,-9.666 v 0 H 14.259 c -5.337,0.009 -9.655,4.328 -9.666,9.666 v 0 c 0.011,5.34 4.328,9.658 9.666,9.668 v 0 0.998 1 c -6.441,0 -11.664,-5.223 -11.666,-11.666 v 0 C 2.595,159.352 7.818,154.13 14.259,154.13 v 0 h 286.67 c 6.441,0 11.663,5.222 11.663,11.666 v 0 c 0,6.443 -5.222,11.666 -11.663,11.666 v 0 H 14.259 Z"
   id="path2858" />
<path
   fill="#f4f4f4"
   d="m 81.763,144.796 c -2.765,0 -5,-2.238 -5.003,-5 v 0 -115.334 c 0.003,-2.761 2.238,-5 5.003,-5 v 0 h 151.666 c 2.763,0 4.997,2.238 4.997,5 v 0 115.333 c 0,2.761 -2.234,5 -4.997,5 v 0 H 81.763 Z M 78.76,24.462 v 115.333 c 0.005,1.656 1.345,2.996 3.003,3 v 0 h 151.666 c 1.655,-0.004 2.996,-1.344 3,-3 v 0 -115.333 c -0.004,-1.657 -1.345,-2.996 -3,-3 v 0 H 81.763 c -1.659,0.004 -2.998,1.345 -3.003,3 z"
   id="path2860" />
<path
   fill="#f4f4f4"
   d="m 87.095,137.796 c -1.658,-0.002 -3,-1.342 -3.002,-3 v 0 L 84.095,29.463 c 0,-1.657 1.342,-3 3,-3 v 0 h 140.999 c 1.657,0 2.999,1.344 2.999,3 v 0 105.333 c 0,1.656 -1.342,3 -2.999,3 v 0 z m -1,-108.334 -0.002,105.333 c 0.002,0.549 0.45,0.998 1.002,1 v 0 h 140.999 c 0.554,-0.002 0.998,-0.447 1,-1 v 0 -105.333 c -0.002,-0.552 -0.446,-0.998 -1,-1 v 0 H 87.095 c -0.552,0.002 -1,0.449 -1,1 z"
   id="path2862" />
<path
   fill="#f4f4f4"
   d="M 76.345,305.255 V 185.503 c 0,-2.209 1.79,-3.998 4,-3.998 v 0 l 154.499,-0.002 c 2.21,0.002 4,1.791 4,4 v 0 119.752 c 0,2.207 -1.79,3.998 -4,3.998 v 0 l -154.499,0.002 c -2.21,-0.002 -4,-1.793 -4,-4 z m 1.999,-119.752 v 119.752 c 0.003,1.104 0.897,1.996 2.001,1.998 v 0 h 154.499 c 1.104,-0.002 1.997,-0.896 1.999,-1.998 v 0 h 0.002 l -0.002,-119.752 c -0.002,-1.104 -0.895,-1.998 -1.999,-2 v 0 H 80.345 c -1.104,0.002 -1.998,0.896 -2.001,2 z"
   id="path2864" />
<path
   fill="#f4f4f4"
   d="m 85.969,300.753 c -1.104,0 -1.999,-0.896 -1.999,-1.998 v 0 -106.75 c 0,-1.107 0.895,-2.002 1.999,-2.002 v 0 h 143.25 c 1.104,0 1.999,0.895 1.999,2.002 v 0 106.75 c 0,1.104 -0.895,1.998 -1.999,1.998 v 0 z m 0,-108.748 v 106.75 h 143.25 v -106.75 -0.002 H 85.969 Z"
   id="path2866" />
<path
   fill="#f4f4f4"
   d="m 31.845,255.003 c -1.105,0 -2.001,-0.895 -2.001,-2 v 0 -12.062 H 17.781 c -1.105,0 -1.999,-0.896 -1.999,-1.999 v 0 -13.251 c 0,-1.104 0.894,-2 1.999,-2 v 0 h 12.063 v -12.063 c 0,-1.104 0.896,-1.998 2.001,-1.998 v 0 h 13.249 c 1.105,0 2,0.895 2,1.998 v 0 12.063 h 12.063 c 1.105,0 1.999,0.896 1.999,2 v 0 13.251 c 0,1.104 -0.893,1.999 -1.999,1.999 v 0 H 47.094 v 12.063 c 0,1.104 -0.896,1.998 -2,1.998 v 0 H 31.845 Z m 0,-2 h 13.249 v -12.188 c 0.006,-0.307 0.025,-0.742 0.354,-1.199 v 0 c 0.334,-0.469 0.956,-0.693 1.502,-0.675 v 0 h 12.208 v -13.25 H 47.012 c -0.395,0 -0.891,-0.083 -1.317,-0.455 v 0 c -0.43,-0.376 -0.608,-0.954 -0.6,-1.481 v 0 -12.127 H 31.846 v 12.168 c -0.002,0.375 -0.075,0.842 -0.417,1.266 v 0 c -0.343,0.428 -0.929,0.645 -1.458,0.631 v 0 H 17.783 v 13.249 h 12.085 c 0.391,0.015 0.823,-0.008 1.34,0.345 v 0 c 0.53,0.393 0.648,1.022 0.638,1.469 v 0 12.247 z"
   id="path2868" />
<path
   fill="#f4f4f4"
   d="m 265.763,207.794 c 0,-5.246 4.253,-9.5 9.499,-9.5 v 0 c 5.247,0 9.5,4.254 9.5,9.5 v 0 c 0,5.246 -4.253,9.5 -9.5,9.5 v 0 c -5.246,0 -9.499,-4.252 -9.499,-9.5 z m 1.998,0 c 0.008,4.143 3.359,7.494 7.501,7.502 v 0 c 4.144,-0.008 7.493,-3.359 7.5,-7.502 v 0 c -0.007,-4.143 -3.356,-7.492 -7.5,-7.5 v 0 c -4.142,0.008 -7.493,3.358 -7.501,7.5 z"
   id="path2870" />
<path
   fill="#f4f4f4"
   d="m 265.763,243.296 c 0,-5.25 4.253,-9.502 9.499,-9.502 v 0 c 5.247,0 9.5,4.252 9.5,9.502 v 0 c 0,5.244 -4.253,9.498 -9.5,9.498 v 0 c -5.246,0 -9.499,-4.252 -9.499,-9.498 z m 1.998,0 c 0.008,4.141 3.359,7.49 7.501,7.5 v 0 c 4.144,-0.01 7.493,-3.359 7.5,-7.5 v 0 c -0.007,-4.146 -3.356,-7.494 -7.5,-7.502 v 0 c -4.142,0.008 -7.493,3.357 -7.501,7.502 z"
   id="path2872" />
<path
   fill="#f4f4f4"
   d="m 248.095,225.628 c 0,-5.246 4.256,-9.5 9.501,-9.5 v 0 c 5.246,0 9.5,4.254 9.5,9.5 v 0 c 0,5.246 -4.254,9.5 -9.5,9.5 v 0 c -5.245,0 -9.501,-4.252 -9.501,-9.5 z m 2.001,0 c 0.009,4.144 3.358,7.492 7.5,7.502 v 0 c 4.143,-0.01 7.492,-3.358 7.5,-7.502 v 0 c -0.008,-4.142 -3.357,-7.494 -7.5,-7.5 v 0 c -4.142,0.006 -7.493,3.359 -7.5,7.5 z"
   id="path2874" />
<path
   fill="#f4f4f4"
   d="m 283.931,225.628 c 0,-5.246 4.252,-9.5 9.5,-9.5 v 0 c 5.245,0 9.499,4.254 9.499,9.5 v 0 c 0,5.248 -4.254,9.5 -9.499,9.5 v 0 c -5.248,0 -9.5,-4.252 -9.5,-9.5 z m 1.999,0 c 0.009,4.144 3.357,7.492 7.501,7.502 v 0 c 4.142,-0.01 7.493,-3.358 7.499,-7.502 v 0 c -0.006,-4.142 -3.357,-7.492 -7.499,-7.5 v 0 c -4.144,0.008 -7.494,3.359 -7.501,7.5 z"
   id="path2876" />
<path
   fill="#f4f4f4"
   d="m 248.429,283.128 c 0,-2.946 2.387,-5.334 5.334,-5.334 v 0 c 2.943,0 5.331,2.388 5.331,5.334 v 0 c 0,2.945 -2.388,5.332 -5.331,5.332 v 0 c -2.95,0 -5.334,-2.385 -5.334,-5.332 z m 1.998,0 c 0.004,1.84 1.493,3.33 3.336,3.332 v 0 c 1.84,-0.002 3.327,-1.492 3.331,-3.332 v 0 c -0.004,-1.842 -1.491,-3.33 -3.331,-3.334 v 0 c -1.843,0.004 -3.332,1.494 -3.336,3.334 z"
   id="path2878" />
<path
   fill="#f4f4f4"
   d="m 248.429,300.796 c 0,-2.947 2.388,-5.334 5.333,-5.334 v 0 c 2.945,0 5.332,2.387 5.332,5.334 v 0 c 0,2.945 -2.387,5.332 -5.332,5.332 v 0 c -2.947,0 -5.333,-2.387 -5.333,-5.332 z m 1.998,0 c 0.005,1.84 1.493,3.328 3.335,3.332 v 0 c 1.841,-0.004 3.33,-1.492 3.332,-3.332 v 0 c -0.002,-1.842 -1.491,-3.33 -3.332,-3.334 v 0 c -1.842,0.004 -3.33,1.492 -3.335,3.334 z"
   id="path2880" />
<g
   id="g2886"
   transform="translate(-142,-12)">
	<path
   fill="#f4f4f4"
   d="m 185.135,162.63 c -1.657,0 -2.999,-1.344 -2.999,-3 v 0 -5.25 c 0,-1.658 1.342,-3 2.999,-3 v 0 h 5.251 c 1.656,0 2.998,1.342 3,3 v 0 5.25 c -0.002,1.656 -1.344,3 -3,3 v 0 z m -0.999,-8.252 v 5.252 c 0,0.549 0.447,0.996 0.999,0.998 v 0 h 5.251 c 0.55,-0.002 0.997,-0.449 1,-0.998 v 0 -5.252 c -0.002,-0.551 -0.45,-0.998 -1,-0.998 v 0 h -5.251 c -0.552,0 -0.999,0.447 -0.999,0.998 z"
   id="path2882" />
	<path
   fill="#f4f4f4"
   d="m 408.803,162.628 c -1.657,0 -2.999,-1.342 -2.999,-2.998 v 0 -5.252 c 0,-1.655 1.342,-2.998 2.999,-2.998 v 0 h 5.251 c 1.656,0 2.997,1.34 2.999,2.998 v 0 5.252 c -0.002,1.658 -1.343,2.998 -2.999,2.998 v 0 z m -1.001,-8.25 v 5.252 c 0.002,0.552 0.448,0.998 1.001,0.998 v 0 h 5.251 c 0.549,0 0.997,-0.447 0.999,-0.998 v 0 -5.252 c -0.002,-0.549 -0.45,-0.998 -0.999,-1 v 0 h -5.251 c -0.553,0.002 -0.999,0.449 -1.001,1 z"
   id="path2884" />
</g>
<g
   id="g2892"
   transform="translate(-142,-12)">
	<path
   fill="#f4f4f4"
   d="m 185.136,38.629 c -1.658,0 -3,-1.344 -3,-3 v 0 -5.251 c 0,-1.656 1.342,-3 3,-3 v 0 h 5.25 c 1.658,0 3,1.343 3,3 v 0 5.251 c 0,1.656 -1.341,3 -3,3 v 0 z m -1.001,-8.251 v 5.251 c 0.002,0.55 0.449,0.999 1,0.999 v 0 h 5.25 c 0.552,0 0.999,-0.449 1,-0.999 v 0 -5.251 c -0.002,-0.55 -0.448,-0.999 -1,-1 v 0 h -5.25 c -0.551,0.002 -0.998,0.451 -1,1 z"
   id="path2888" />
	<path
   fill="#f4f4f4"
   d="m 408.803,38.628 c -1.657,0 -2.999,-1.343 -2.999,-2.999 v 0 -5.251 c 0,-1.656 1.342,-2.999 2.999,-2.999 v 0 h 5.251 c 1.656,0 2.997,1.341 2.999,2.999 v 0 5.251 c -0.002,1.658 -1.343,2.999 -2.999,2.999 v 0 z m -1.001,-8.249 v 5.251 c 0.002,0.553 0.448,0.999 1.001,0.999 v 0 h 5.251 c 0.549,0 0.997,-0.448 0.999,-0.999 v 0 -5.251 c -0.002,-0.551 -0.45,-0.999 -0.999,-1.001 v 0 h -5.251 c -0.553,0.002 -0.999,0.449 -1.001,1.001 z"
   id="path2890" />
</g>
<path
   fill="#f4f4f4"
   d="m 292.262,171.798 c 0,0.553 -0.448,1 -1,1 h -0.332 c -0.552,0 -1,-0.447 -1,-1 v -12 c 0,-0.553 0.448,-1 1,-1 h 0.332 c 0.552,0 1,0.447 1,1 z"
   id="path2894" />
<path
   fill="#f4f4f4"
   d="m 297.596,171.798 c 0,0.553 -0.448,1 -1,1 h -0.332 c -0.552,0 -1,-0.447 -1,-1 v -12 c 0,-0.553 0.448,-1 1,-1 h 0.332 c 0.552,0 1,0.447 1,1 z"
   id="path2896" />
<path
   fill="#f4f4f4"
   d="m 159.345,167.38 c 0,0.828 -0.672,1.5 -1.5,1.5 v 0 c -0.828,0 -1.5,-0.672 -1.5,-1.5 v -5.25 c 0,-0.83 0.672,-1.5 1.5,-1.5 v 0 c 0.828,0 1.5,0.67 1.5,1.5 z"
   id="path2898" />
<g
   id="g2928"
   transform="translate(-142,-12)">
	<g
   id="g2912">
		<circle
   fill="#f4f4f4"
   cx="405.56299"
   cy="90.942001"
   r="1.563"
   id="circle2900" />
		<circle
   fill="#f4f4f4"
   cx="417.18799"
   cy="90.942001"
   r="1.563"
   id="circle2902" />
		<circle
   fill="#f4f4f4"
   cx="428.81299"
   cy="90.942001"
   r="1.563"
   id="circle2904" />
		<circle
   fill="#f4f4f4"
   cx="405.56299"
   cy="102.317"
   r="1.563"
   id="circle2906" />
		<circle
   fill="#f4f4f4"
   cx="417.18799"
   cy="102.317"
   r="1.563"
   id="circle2908" />
		<circle
   fill="#f4f4f4"
   cx="428.81299"
   cy="102.317"
   r="1.563"
   id="circle2910" />
	</g>
	<g
   id="g2926">
		<circle
   fill="#f4f4f4"
   cx="170.37601"
   cy="90.942001"
   r="1.563"
   id="circle2914" />
		<circle
   fill="#f4f4f4"
   cx="182.00101"
   cy="90.942001"
   r="1.563"
   id="circle2916" />
		<circle
   fill="#f4f4f4"
   cx="193.62601"
   cy="90.942001"
   r="1.563"
   id="circle2918" />
		<circle
   fill="#f4f4f4"
   cx="170.37601"
   cy="102.317"
   r="1.563"
   id="circle2920" />
		<circle
   fill="#f4f4f4"
   cx="182.00101"
   cy="102.317"
   r="1.563"
   id="circle2922" />
		<circle
   fill="#f4f4f4"
   cx="193.62601"
   cy="102.317"
   r="1.563"
   id="circle2924" />
	</g>
</g>
</svg>
