<?xml version="1.0" encoding="UTF-8" standalone="no"?>
<!-- Generator: Adobe Illustrator 13.0.0, SVG Export Plug-In . SVG Version: 6.00 Build 14948)  -->

<svg
   version="1.2"
   id="Layer_3"
   x="0px"
   y="0px"
   width="581.18903"
   height="256.26001"
   viewBox="0 0 581.189 256.26"
   xml:space="preserve"
   sodipodi:docname="nes.svg"
   inkscape:version="1.2.2 (732a01da63, 2022-12-09)"
   xmlns:inkscape="http://www.inkscape.org/namespaces/inkscape"
   xmlns:sodipodi="http://sodipodi.sourceforge.net/DTD/sodipodi-0.dtd"
   xmlns="http://www.w3.org/2000/svg"
   xmlns:svg="http://www.w3.org/2000/svg"
   xmlns:rdf="http://www.w3.org/1999/02/22-rdf-syntax-ns#"
   xmlns:cc="http://creativecommons.org/ns#"
   xmlns:dc="http://purl.org/dc/elements/1.1/"
   xmlns:ns="&amp;ns_sfw;"><defs
   id="defs3554" /><sodipodi:namedview
   id="namedview3552"
   pagecolor="#000000"
   bordercolor="#111111"
   borderopacity="1"
   inkscape:showpageshadow="0"
   inkscape:pageopacity="0"
   inkscape:pagecheckerboard="1"
   inkscape:deskcolor="#d1d1d1"
   showgrid="false"
   inkscape:zoom="2.0445042"
   inkscape:cx="299.58363"
   inkscape:cy="175.10357"
   inkscape:window-width="1920"
   inkscape:window-height="1009"
   inkscape:window-x="-8"
   inkscape:window-y="-8"
   inkscape:window-maximized="1"
   inkscape:current-layer="Layer_3" />
<metadata
   id="metadata55">
	<rdf:RDF>
		<cc:Work
   rdf:about="">
			<dc:format>image/svg+xml</dc:format>
			<dc:type
   rdf:resource="http://purl.org/dc/dcmitype/StillImage" />
			
		</cc:Work>
	</rdf:RDF>
	<ns:sfw>
		<ns:slices />
		<ns:sliceSourceBounds
   x="-7231"
   y="-7652"
   width="16383"
   height="16383"
   bottomLeftOrigin="true" />
	</ns:sfw>
</metadata>
<path
   id="path3"
   fill="#f4f4f4"
   d="m 11.381,3.455 c -4.282,0 -7.78,3.499 -7.78,7.779 v 234.245 c 0,4.282 3.498,7.75 7.78,7.75 h 559.24 c 4.282,0 7.751,-3.468 7.751,-7.75 V 11.234 c 0,-4.281 -3.47,-7.779 -7.753,-7.779 z m 0,1.886 h 559.24 c 3.264,0 5.865,2.631 5.865,5.893 v 234.245 c 0,3.263 -2.602,5.864 -5.865,5.864 H 11.381 c -3.264,0 -5.894,-2.604 -5.894,-5.865 V 11.233 C 5.488,7.971 8.118,5.34 11.381,5.341 Z" />
<path
   id="path5"
   fill="#f4f4f4"
   d="m 25.526,44.445 c -2.666,0 -4.833,2.196 -4.833,4.863 v 181.023 c 0,2.665 2.167,4.862 4.833,4.862 h 530.452 c 2.665,0 4.832,-2.197 4.832,-4.862 V 49.308 c 0,-2.667 -2.167,-4.863 -4.832,-4.863 z m 0,1.886 h 530.452 c 1.644,0 2.947,1.33 2.947,2.977 v 181.023 c 0,1.646 -1.304,2.976 -2.947,2.976 H 25.526 c -1.647,0 -2.947,-1.33 -2.947,-2.976 V 49.308 c 0,-1.647 1.301,-2.977 2.947,-2.977 z" />
<path
   id="path7"
   fill="#f4f4f4"
   d="m 200.363,149.853 c -5.901,0 -10.698,4.797 -10.698,10.696 v 37.572 c 0,5.9 4.798,10.727 10.698,10.727 H 338.48 c 5.566,0 9.99,-4.346 10.489,-9.782 h 0.207 v -0.944 -37.572 c 0,-5.899 -4.797,-10.696 -10.696,-10.696 H 200.363 Z m 0,1.886 H 338.48 c 4.882,0 8.81,3.93 8.81,8.81 v 36.63 0.942 c 0,4.88 -3.928,8.84 -8.81,8.84 H 200.363 c -4.881,0 -8.811,-3.96 -8.811,-8.84 v -37.572 c 0,-4.88 3.929,-8.81 8.811,-8.81 z" />
<path
   id="path9"
   fill="#f4f4f4"
   d="m 199.156,156.189 c -2.397,0 -4.361,1.965 -4.361,4.36 v 37.571 c 0,2.398 1.965,4.362 4.361,4.362 h 140.531 c 2.396,0 4.361,-1.965 4.361,-4.362 v -37.57 c 0,-2.396 -1.965,-4.36 -4.361,-4.36 H 199.156 Z m 0,1.887 h 140.531 c 1.377,0 2.475,1.1 2.475,2.474 v 37.571 c 0,1.379 -1.098,2.477 -2.475,2.477 H 199.156 c -1.376,0 -2.476,-1.099 -2.476,-2.477 V 160.55 c 0.001,-1.374 1.098,-2.474 2.476,-2.474 z" />
<path
   id="path11"
   fill="#f4f4f4"
   d="m 197.439,114.227 c -4.821,0 -8.752,3.93 -8.752,8.752 v 11.728 c 0,4.823 3.931,8.722 8.752,8.722 h 143.952 c 4.824,0 8.753,-3.899 8.753,-8.722 v -11.728 c 0,-4.822 -3.929,-8.752 -8.753,-8.752 z m 0,1.886 h 143.952 c 3.807,0 6.867,3.063 6.867,6.866 v 11.728 c 0,3.802 -3.061,6.835 -6.867,6.835 H 197.439 c -3.802,0 -6.866,-3.034 -6.866,-6.835 v -11.728 c 0,-3.803 3.065,-6.866 6.866,-6.866 z" />
<path
   id="path13"
   fill="#f4f4f4"
   d="m 197.439,79.571 c -4.821,0 -8.752,3.931 -8.752,8.752 v 11.729 c 0,4.822 3.931,8.752 8.752,8.752 h 143.952 c 4.824,0 8.753,-3.931 8.753,-8.752 V 88.321 c 0,-4.82 -3.929,-8.751 -8.753,-8.751 H 197.439 Z m 0,1.886 h 143.952 c 3.807,0 6.867,3.065 6.867,6.866 v 11.729 c 0,3.803 -3.061,6.866 -6.867,6.866 H 197.439 c -3.802,0 -6.866,-3.063 -6.866,-6.866 V 88.323 c 0,-3.801 3.065,-6.866 6.866,-6.866 z" />
<path
   id="path15"
   fill="#f4f4f4"
   d="m 188.688,45.388 v 17.563 c 0,4.821 3.932,8.752 8.752,8.752 h 143.953 c 4.824,0 8.753,-3.932 8.753,-8.752 V 45.388 h -1.886 v 17.563 c 0,3.803 -3.063,6.866 -6.867,6.866 H 197.44 c -3.801,0 -6.866,-3.064 -6.866,-6.866 V 45.388 Z" />
<path
   id="path17"
   fill="#f4f4f4"
   d="m 197.439,218.161 c -4.821,0 -8.752,3.93 -8.752,8.752 v 7.396 h 1.886 v -7.396 c 0,-3.802 3.065,-6.865 6.866,-6.865 h 143.952 c 3.807,0 6.867,3.063 6.867,6.865 v 7.338 h 1.886 v -7.338 c 0,-4.821 -3.929,-8.752 -8.753,-8.752 z" />
<path
   id="path19"
   fill="#f4f4f4"
   d="m 380.055,147.41 c -2.934,0 -5.333,2.399 -5.333,5.332 v 53.19 c 0,2.936 2.399,5.335 5.333,5.335 h 53.19 c 2.936,0 5.333,-2.399 5.333,-5.335 v -53.19 c 0,-2.933 -2.397,-5.332 -5.333,-5.332 z m 0,1.886 h 53.19 c 1.916,0 3.447,1.534 3.447,3.446 v 53.19 c 0,1.916 -1.531,3.448 -3.447,3.448 h -53.19 c -1.912,0 -3.447,-1.532 -3.447,-3.448 v -53.19 c -10e-4,-1.912 1.535,-3.446 3.447,-3.446 z" />
<path
   id="circle21"
   fill="#f4f4f4"
   d="m 406.639,153.276 c -14.391,0 -26.049,11.689 -26.049,26.078 0,14.388 11.658,26.078 26.049,26.078 14.388,0 26.077,-11.69 26.077,-26.078 0,-14.388 -11.69,-26.078 -26.077,-26.078 z m 0,1.886 c 13.37,0 24.19,10.822 24.19,24.192 0,13.37 -10.82,24.192 -24.19,24.192 -13.369,0 -24.163,-10.822 -24.163,-24.192 0,-13.37 10.792,-24.192 24.163,-24.192 z" />
<path
   id="path23"
   fill="#f4f4f4"
   d="m 454.229,147.41 c -2.935,0 -5.334,2.399 -5.334,5.332 v 53.19 c 0,2.936 2.401,5.335 5.334,5.335 h 53.19 c 2.934,0 5.335,-2.399 5.335,-5.335 v -53.19 c 0,-2.933 -2.401,-5.332 -5.335,-5.332 z m 0,1.886 h 53.19 c 1.915,0 3.446,1.534 3.446,3.446 v 53.19 c 0,1.916 -1.531,3.448 -3.446,3.448 h -53.19 c -1.915,0 -3.446,-1.532 -3.446,-3.448 v -53.19 c 0,-1.912 1.531,-3.446 3.446,-3.446 z" />
<path
   id="circle25"
   fill="#f4f4f4"
   d="m 480.832,153.276 c -14.39,0 -26.079,11.689 -26.079,26.078 0,14.388 11.689,26.078 26.079,26.078 14.388,0 26.048,-11.69 26.048,-26.078 0,-14.388 -11.66,-26.078 -26.048,-26.078 z m 0,1.886 c 13.369,0 24.161,10.822 24.161,24.192 0,13.37 -10.792,24.192 -24.161,24.192 -13.37,0 -24.193,-10.822 -24.193,-24.192 0,-13.37 10.823,-24.192 24.193,-24.192 z" />
<path
   id="polyline27"
   fill="#f4f4f4"
   d="m 152.592,6.991 v 6.041 0.943 h 0.943 22.13 0.943 V 13.032 6.991 h -1.886 v 5.098 H 154.477 V 6.991 Z" />
<g
   id="g29"
   transform="translate(-8,-40)">
	<path
   fill="#f4f4f4"
   d="m 225.773,229.146 h -0.004 v -0.941 -0.944 h 0.004 28.788 c 4.553,-0.01 8.238,-3.691 8.247,-8.248 v 0 c -0.009,-4.555 -3.693,-8.237 -8.247,-8.247 v 0 H 225.77 c -4.555,0.01 -8.24,3.692 -8.249,8.247 v 0 c 0.008,4.557 3.693,8.238 8.249,8.248 v 0 0.944 0.941 c -5.597,0 -10.133,-4.535 -10.133,-10.134 v 0 c 0,-5.598 4.536,-10.133 10.133,-10.133 v 0 h 28.792 c 5.596,0 10.131,4.535 10.131,10.133 v 0 c 0,5.599 -4.536,10.134 -10.131,10.134 v 0 z"
   id="path3540" />
	<path
   fill="#f4f4f4"
   d="m 300.273,229.146 v -0.941 -0.944 h 28.792 c 4.552,-0.01 8.238,-3.691 8.246,-8.248 v 0 c -0.008,-4.555 -3.694,-8.237 -8.246,-8.247 v 0 h -28.792 c -4.555,0.01 -8.239,3.692 -8.248,8.247 v 0 c 0.009,4.557 3.695,8.238 8.248,8.248 v 0 0.944 0.941 c -5.595,0 -10.133,-4.535 -10.133,-10.134 v 0 c 0,-5.598 4.536,-10.133 10.133,-10.133 v 0 h 28.792 c 5.594,0 10.131,4.535 10.131,10.133 v 0 c 0,5.599 -4.537,10.134 -10.131,10.134 v 0 z"
   id="path3542" />
</g>
<path
   id="path35"
   fill="#f4f4f4"
   d="m 88.352,92.331 c -5.361,0.002 -9.722,4.363 -9.724,9.724 V 125.1 H 55.583 c -5.361,0.001 -9.722,4.363 -9.724,9.724 v 33.033 c 0.002,5.361 4.363,9.721 9.724,9.723 h 23.044 v 23.046 c 0.002,5.361 4.363,9.722 9.724,9.725 h 33.004 c 5.361,-0.002 9.723,-4.363 9.724,-9.725 V 177.58 h 23.074 c 5.362,-0.001 9.722,-4.361 9.724,-9.723 v -33.033 c -0.002,-5.362 -4.363,-9.722 -9.724,-9.724 H 131.08 v -23.045 c 0,-5.358 -4.366,-9.72 -9.722,-9.722 H 88.354 Z m 0,1.886 h 33.004 c 4.344,0.002 7.836,3.495 7.838,7.838 v 23.987 0.942 h 0.943 24.017 c 4.344,0.002 7.837,3.494 7.839,7.838 v 33.034 c -0.002,4.344 -3.496,7.838 -7.839,7.839 h -24.017 -0.943 v 0.942 23.987 c -0.002,4.345 -3.496,7.837 -7.838,7.839 H 88.352 c -4.344,-0.003 -7.836,-3.495 -7.839,-7.839 v -23.987 -0.942 H 79.57 55.583 c -4.344,-0.002 -7.836,-3.496 -7.838,-7.839 v -33.034 c 0.001,-4.344 3.496,-7.836 7.838,-7.838 h 23.987 0.942 v -0.942 -23.987 c 0.003,-4.343 3.496,-7.836 7.84,-7.838 z m 0,3.949 c -2.125,0.003 -3.856,1.766 -3.861,3.89 v 25.489 c 0,0 0,0.028 0,0.06 0,0.016 0,0.004 0,0.029 -0.009,0.567 -0.06,1.137 -0.471,1.857 -0.339,0.615 -1.274,1.186 -1.769,1.296 l -0.029,0.03 c -0.449,0.119 -0.822,0.146 -1.238,0.147 H 55.583 c -2.124,0.004 -3.886,1.735 -3.89,3.86 v 33.033 c 0.004,2.125 1.766,3.856 3.89,3.86 h 25.519 0.03 c 0.004,0 0.031,0 0.059,0 0.733,0 1.776,0.313 2.417,1.032 0.694,0.772 0.856,1.678 0.854,2.445 v 25.431 c 0.004,2.125 1.766,3.86 3.89,3.861 h 33.004 c 2.125,-0.003 3.885,-1.737 3.89,-3.861 v -25.431 c -0.009,-0.884 0.358,-1.879 1.001,-2.505 0.647,-0.644 1.588,-0.978 2.447,-0.973 h 25.459 c 2.124,-0.004 3.856,-1.735 3.86,-3.86 v -0.027 -33.006 c -0.003,-2.125 -1.736,-3.858 -3.86,-3.86 h -25.459 c -0.583,-0.006 -1.149,-0.067 -1.857,-0.442 -0.585,-0.294 -1.261,-1.154 -1.415,-1.709 v -0.029 c -0.141,-0.452 -0.169,-0.876 -0.169,-1.311 V 102.07 c -0.004,-2.124 -1.766,-3.888 -3.891,-3.889 H 88.357 Z m 0,1.886 h 33.004 c 1.106,0 2.002,0.896 2.004,2.004 v 25.401 0.03 c 0.002,0.541 0.059,1.151 0.265,1.827 0.002,0.008 -0.002,0.021 0,0.03 0.326,1.148 1.158,2.225 2.328,2.828 v 0.03 c 0.006,0.004 0.023,-0.003 0.03,0 1.043,0.542 2.038,0.641 2.711,0.648 h 25.459 c 1.107,0.001 1.972,0.865 1.974,1.974 v 33.006 c -0.001,1.107 -0.865,2 -1.974,2.002 h -25.459 c -1.341,-0.007 -2.71,0.515 -3.743,1.533 h -0.03 c -1.046,1.029 -1.576,2.442 -1.562,3.831 v 25.431 c -0.002,1.107 -0.898,1.975 -2.004,1.976 H 88.352 c -1.106,-0.001 -2.001,-0.867 -2.004,-1.976 v -25.431 c 0.003,-1.074 -0.242,-2.505 -1.326,-3.713 -1.091,-1.227 -2.616,-1.651 -3.831,-1.651 -0.021,0 -0.055,-0.001 -0.088,0 h -0.03 -25.49 c -1.11,-0.002 -2.002,-0.865 -2.004,-1.974 v -33.034 c 0.002,-1.108 0.897,-1.972 2.004,-1.974 h 25.402 c 0.49,-0.001 1.077,-0.042 1.709,-0.206 0.008,-0.002 0.021,0.002 0.029,0 1.099,-0.254 2.265,-1.001 2.947,-2.24 0.628,-1.098 0.697,-2.127 0.707,-2.771 v -0.028 c -10e-4,-0.074 0,-0.06 0,-0.06 v -25.489 c 0.003,-1.106 0.868,-2.002 1.975,-2.004 z" />
<path
   id="polygon37"
   fill="#f4f4f4"
   d="m 73.058,136.707 -1.621,1.621 -12.317,12.347 -0.678,0.649 0.678,0.678 12.317,12.347 1.621,1.593 v -2.271 -3.152 h 7.602 0.943 v -0.942 -16.475 -0.941 H 80.66 73.058 v -3.184 z m -1.887,4.567 v 1.827 0.944 h 0.943 7.602 v 14.585 h -7.602 -0.943 v 0.944 1.797 L 61.123,151.32 71.171,141.277 Z" />
<path
   id="circle39"
   fill="#f4f4f4"
   d="m 104.858,139.159 c -6.709,0 -12.17,5.461 -12.17,12.17 0,6.708 5.462,12.17 12.17,12.17 6.708,0 12.17,-5.462 12.17,-12.17 0,-6.709 -5.462,-12.17 -12.17,-12.17 z m 0,1.887 c 5.689,0 10.284,4.594 10.284,10.283 0,5.688 -4.594,10.284 -10.284,10.284 -5.69,0 -10.284,-4.596 -10.284,-10.284 0.001,-5.689 4.595,-10.283 10.284,-10.283 z" />
<path
   id="polygon41"
   fill="#f4f4f4"
   d="m 95.688,174.578 v 0.942 7.602 h -3.182 -2.269 l 1.622,1.622 12.347,12.347 0.648,0.648 0.678,-0.648 12.348,-12.347 1.59,-1.622 h -2.268 -3.153 v -7.602 -0.942 h -0.943 -16.474 z m 1.886,1.885 h 14.588 v 7.604 0.941 h 0.942 1.827 l -10.079,10.078 -10.079,-10.078 h 1.856 0.943 v -0.941 z" />
<path
   id="polygon43"
   fill="#f4f4f4"
   d="m 136.646,136.707 v 2.27 3.184 h -7.604 -0.942 v 0.941 16.474 0.942 h 0.943 7.604 v 3.152 2.271 l 1.621,-1.593 12.347,-12.346 0.648,-0.678 -0.648,-0.649 -12.347,-12.347 z m 1.886,4.539 10.079,10.079 -10.079,10.077 v -1.826 -0.944 h -0.943 -7.603 v -14.586 h 7.603 0.943 v -0.943 z" />
<path
   id="polygon45"
   fill="#f4f4f4"
   d="m 104.858,104.91 -0.648,0.678 -12.347,12.316 -1.621,1.621 h 2.269 3.183 v 7.602 0.943 h 0.942 16.473 0.943 v -0.943 -7.602 h 3.154 2.269 l -1.591,-1.621 -12.348,-12.316 z m 0,2.682 10.048,10.049 h -1.797 -0.943 v 0.942 7.603 H 97.579 v -7.603 -0.942 h -0.943 -1.827 z" />
</svg>
