<?xml version="1.0" encoding="UTF-8" standalone="no"?>
<!-- Generator: Adobe Illustrator 13.0.0, SVG Export Plug-In . SVG Version: 6.00 Build 14948)  -->

<svg
   version="1.2"
   id="Layer_3"
   x="0px"
   y="0px"
   width="544.18903"
   height="328.26001"
   viewBox="0 0 544.189 328.26"
   xml:space="preserve"
   sodipodi:docname="ngpc.svg"
   inkscape:version="1.2.2 (732a01da63, 2022-12-09)"
   xmlns:inkscape="http://www.inkscape.org/namespaces/inkscape"
   xmlns:sodipodi="http://sodipodi.sourceforge.net/DTD/sodipodi-0.dtd"
   xmlns="http://www.w3.org/2000/svg"
   xmlns:svg="http://www.w3.org/2000/svg"
   xmlns:rdf="http://www.w3.org/1999/02/22-rdf-syntax-ns#"
   xmlns:cc="http://creativecommons.org/ns#"
   xmlns:dc="http://purl.org/dc/elements/1.1/"
   xmlns:ns="&amp;ns_sfw;"><defs
   id="defs4125" /><sodipodi:namedview
   id="namedview4123"
   pagecolor="#000000"
   bordercolor="#111111"
   borderopacity="1"
   inkscape:showpageshadow="0"
   inkscape:pageopacity="0"
   inkscape:pagecheckerboard="1"
   inkscape:deskcolor="#d1d1d1"
   showgrid="false"
   inkscape:zoom="2.0445042"
   inkscape:cx="299.58363"
   inkscape:cy="175.10357"
   inkscape:window-width="1920"
   inkscape:window-height="1009"
   inkscape:window-x="-8"
   inkscape:window-y="-8"
   inkscape:window-maximized="1"
   inkscape:current-layer="Layer_3" />
<metadata
   id="metadata55">
	<rdf:RDF>
		<cc:Work
   rdf:about="">
			<dc:format>image/svg+xml</dc:format>
			<dc:type
   rdf:resource="http://purl.org/dc/dcmitype/StillImage" />
			
		</cc:Work>
	</rdf:RDF>
	<ns:sfw>
		<ns:slices />
		<ns:sliceSourceBounds
   x="-7231"
   y="-7652"
   width="16383"
   height="16383"
   bottomLeftOrigin="true" />
	</ns:sfw>
</metadata>
<path
   fill="#f4f4f4"
   d="m 229.844,326.128 c -53.157,0 -101.513,-2.58 -137.833,-5.549 v 0 C 55.649,317.6 31.5,314.282 26.259,312.675 v 0 l -0.044,-0.014 -0.036,-0.016 C 13.03,307.286 3.762,294.372 3.762,279.293 v 0 V 18.129 C 3.764,14.132 6.366,10.743 9.971,9.571 v 0 l 0.034,-0.013 0.03,-0.006 C 12.087,9.038 22.887,7.718 35.62,6.477 v 0 C 48.319,5.245 62.77,4.13 71.761,4.128 v 0 h 401.082 c 8.991,0.002 23.442,1.117 36.143,2.349 v 0 c 12.731,1.24 23.532,2.561 25.647,3.094 v 0 c 3.607,1.172 6.209,4.562 6.211,8.558 v 0 261.167 c -0.002,15.078 -9.267,27.99 -22.418,33.352 v 0 l -0.049,0.02 -0.032,0.01 c -5.241,1.607 -29.391,4.926 -65.752,7.904 v 0 c -36.319,2.969 -84.674,5.549 -137.831,5.549 v 0 -1 -1 c 53.092,0 101.398,-2.578 137.669,-5.543 v 0 c 36.125,-2.942 60.455,-6.318 65.279,-7.808 v 0 c 12.398,-5.075 21.134,-17.258 21.132,-31.483 v 0 -261.168 c 0.002,-3.109 -2.025,-5.744 -4.766,-6.638 v 0 C 532.441,11.062 521.42,9.688 508.791,8.467 v 0 C 496.13,7.238 481.686,6.129 472.843,6.129 v 0 H 71.761 c -8.842,0 -23.287,1.108 -35.948,2.338 v 0 C 23.251,9.681 12.28,11.048 10.554,11.484 v 0 C 7.77,12.408 5.76,15.034 5.762,18.129 v 0 261.167 c -0.002,14.226 8.735,26.408 21.132,31.482 v 0 c 4.826,1.488 29.159,4.864 65.279,7.809 v 0 c 36.271,2.965 84.578,5.541 137.671,5.541 v 0 h 84.917 v 1.002 1 h -84.917 z"
   id="path4004" />
<path
   fill="#f4f4f4"
   d="m 151.269,264.442 c -2.873,-0.167 -4.542,-0.275 -5.156,-0.402 v 0 c -2.314,-0.438 -4.059,-2.47 -4.062,-4.912 v 0 V 20.13 c 0,-2.764 2.237,-5 5.001,-5 v 0 h 250.5 c 2.762,0 4.998,2.237 4.998,5 v 0 l 0.002,238.998 c -0.004,2.334 -1.596,4.293 -3.76,4.848 v 0 l -10e-4,-0.003 10e-4,0.003 -10e-4,-0.003 c -0.41,0.108 -0.767,0.116 -1.558,0.19 v 0 c -0.805,0.064 -1.911,0.137 -3.299,0.213 v 0 c -2.77,0.158 -6.645,0.342 -11.341,0.545 v 0 c -9.39,0.406 -22.056,0.877 -35.684,1.328 v 0 c -27.254,0.9 -58.332,1.713 -74.692,1.715 v 0 c -29.208,-0.002 -101.102,-2.408 -120.948,-3.522 z m -7.218,-244.312 0.002,238.998 c -0.004,1.465 1.051,2.686 2.465,2.955 v 0 c 0.207,0.057 2.072,0.213 4.861,0.362 v 0 c 2.822,0.159 6.714,0.345 11.391,0.546 v 0 c 9.356,0.4 21.862,0.864 35.302,1.305 v 0 c 26.879,0.883 57.508,1.668 74.147,1.668 v 0 c 16.052,0 46.419,-0.787 73.348,-1.672 v 0 c 26.882,-0.877 50.531,-1.875 52.655,-2.238 v 0 l 0.001,0.005 0.03,-0.011 0.044,-0.012 c 1.293,-0.332 2.256,-1.508 2.254,-2.908 v 0 V 20.13 c -0.004,-1.656 -1.345,-2.998 -2.999,-3.001 v 0 h -250.5 c -1.656,0.003 -2.996,1.346 -3.001,3.001 z"
   id="path4006" />
<path
   fill="#f4f4f4"
   d="m 163.303,243.128 c -1.104,0 -2.001,-0.895 -2.001,-1.998 v 0 -206.002 c 0,-1.104 0.894,-1.999 2.001,-1.999 v 0 h 217.999 c 1.104,0 1.998,0.894 1.998,1.999 v 0 206.002 c 0,1.104 -0.894,1.998 -1.998,1.998 v 0 z m 0,-1.998 H 381.302 V 35.128 H 163.303 Z"
   id="path4008" />
<g
   id="g4012"
   transform="translate(-26,-10)">
	<path
   fill="#f4f4f4"
   d="m 67.262,66.962 c -7.181,0 -13.001,-5.82 -13.001,-12.999 v 0 c 0,-7.181 5.82,-13 13.001,-13 v 0 h 23.165 c 5.87,0.002 10.83,3.887 12.446,9.23 v 0 c 10e-4,0.003 0.003,0.006 0.005,0.01 v 0 c 0.024,0.041 0.063,0.101 0.107,0.148 v 0 c 0.1,0.109 0.138,0.114 0.15,0.112 v 0 h 19.376 c 0.396,-0.021 0.357,-0.14 0.438,-0.236 v 0 l 0.001,0.001 0.013,-0.054 0.024,-0.061 c 1.536,-3.896 5.333,-6.649 9.772,-6.652 v 0 c 5.799,0.002 10.499,4.702 10.499,10.501 v 0 c 0,5.797 -4.699,10.499 -10.499,10.499 v 0 c -4.459,-0.002 -8.269,-2.778 -9.792,-6.702 v 0 c -0.026,-0.038 -0.072,-0.092 -0.125,-0.142 v 0 c -0.118,-0.106 -0.215,-0.156 -0.333,-0.156 v 0 h -19.373 c -0.083,0 -0.143,0.003 -0.187,0.008 v 0 c -1.531,5.479 -6.558,9.49 -12.522,9.493 v 0 z m -11,-12.999 c 0.01,6.075 4.925,10.988 11,10.998 v 0 h 23.165 c 5.095,0.002 9.381,-3.464 10.631,-8.161 v 0 l 0.021,-0.071 0.028,-0.067 c 0.077,-0.181 0.251,-0.572 0.657,-0.848 v 0 c 0.402,-0.272 0.863,-0.351 1.372,-0.351 v 0 h 19.376 c 1.599,0.065 2.173,1.301 2.234,1.37 v 0 l -0.876,0.479 0.876,-0.479 0.034,0.063 0.024,0.063 c 1.211,3.214 4.316,5.505 7.957,5.503 v 0 c 4.695,-0.008 8.492,-3.805 8.5,-8.498 v 0 c -0.008,-4.695 -3.805,-8.492 -8.5,-8.5 v 0 c -3.581,-0.002 -6.646,2.216 -7.897,5.352 v 0 c -0.049,0.158 -0.166,0.464 -0.443,0.801 v 0 c -0.343,0.428 -1.037,0.86 -1.908,0.846 v 0 h -19.376 c -0.8,-0.002 -1.36,-0.448 -1.654,-0.79 v 0 c -0.307,-0.353 -0.435,-0.659 -0.463,-0.718 v 0 l -0.022,-0.053 -0.016,-0.057 c -1.345,-4.554 -5.56,-7.883 -10.554,-7.881 v 0 H 67.262 c -6.075,0.01 -10.99,4.925 -11,10.999 z"
   id="path4010" />
</g>
<path
   fill="#f4f4f4"
   d="m 41.292,51.681 v -0.998 -1.001 h 23.563 c 3.158,-0.004 5.712,-2.559 5.719,-5.719 v 0 c -0.006,-3.157 -2.561,-5.712 -5.719,-5.718 v 0 H 41.292 c -3.158,0.006 -5.712,2.561 -5.719,5.718 v 0 c 0.006,3.16 2.561,5.714 5.719,5.719 v 0 1.001 0.998 c -4.263,0 -7.718,-3.454 -7.718,-7.718 v 0 c 0,-4.262 3.456,-7.718 7.718,-7.718 v 0 h 23.563 c 4.263,0 7.718,3.456 7.718,7.718 v 0 c 0,4.265 -3.456,7.718 -7.718,7.718 v 0 z"
   id="path4014" />
<circle
   fill="#f4f4f4"
   cx="106.793"
   cy="43.963001"
   r="6.2810001"
   id="circle4016" />
<path
   fill="#f4f4f4"
   d="m 31.98,128.129 c 0,-29.134 23.617,-52.749 52.75,-52.75 v 0 c 29.132,0.002 52.749,23.617 52.75,52.75 v 0 c -0.002,29.134 -23.619,52.749 -52.75,52.75 v 0 C 55.597,180.878 31.98,157.263 31.98,128.129 Z M 48.845,92.245 C 39.658,101.432 33.98,114.112 33.98,128.13 v 0 c 0,14.018 5.678,26.7 14.865,35.885 v 0 c 9.187,9.186 21.867,14.863 35.885,14.863 v 0 c 14.016,0 26.699,-5.68 35.885,-14.863 v 0 c 9.185,-9.188 14.863,-21.867 14.865,-35.885 v 0 c -0.002,-14.018 -5.68,-26.699 -14.865,-35.885 v 0 C 111.427,83.058 98.746,77.38 84.73,77.38 v 0 C 70.712,77.379 58.032,83.058 48.845,92.245 Z"
   id="path4018" />
<polyline
   fill="#f4f4f4"
   points="106.824,94.504 106.824,88.254 114.699,88.254 114.699,94.504 "
   id="polyline4020"
   transform="translate(-26,-10)" />
<polyline
   fill="#f4f4f4"
   points="67.137,142.067 60.887,142.067 60.887,134.192 67.137,134.192 "
   id="polyline4022"
   transform="translate(-26,-10)" />
<polyline
   fill="#f4f4f4"
   points="114.699,181.755 114.699,188.005 106.824,188.005 106.824,181.755 "
   id="polyline4024"
   transform="translate(-26,-10)" />
<polyline
   fill="#f4f4f4"
   points="154.387,134.192 160.637,134.192 160.637,142.067 154.387,142.067 "
   id="polyline4026"
   transform="translate(-26,-10)" />
<polyline
   fill="#f4f4f4"
   points="78.434,108.939 74.014,104.521 77.108,101.426 81.527,105.846 "
   id="polyline4028"
   transform="translate(-26,-10)" />
<polyline
   fill="#f4f4f4"
   points="81.541,170.427 77.121,174.847 74.027,171.753 78.447,167.333 "
   id="polyline4030"
   transform="translate(-26,-10)" />
<polyline
   fill="#f4f4f4"
   points="143.027,167.319 147.447,171.739 144.353,174.833 139.934,170.413 "
   id="polyline4032"
   transform="translate(-26,-10)" />
<polyline
   fill="#f4f4f4"
   points="139.92,105.833 144.34,101.414 147.434,104.507 143.014,108.926 "
   id="polyline4034"
   transform="translate(-26,-10)" />
<path
   fill="#f4f4f4"
   d="M 40.354,128.129 C 40.356,103.62 60.222,83.755 84.73,83.753 v 0 c 24.506,0.002 44.374,19.867 44.375,44.376 v 0 c -0.002,24.506 -19.869,44.374 -44.375,44.375 v 0 C 60.222,172.503 40.357,152.636 40.354,128.129 Z M 54.766,98.166 c -7.668,7.673 -12.411,18.26 -12.411,29.965 v 0 c 0,11.705 4.742,22.292 12.411,29.962 v 0 c 7.673,7.67 18.26,12.41 29.965,12.41 v 0 c 11.705,0 22.292,-4.74 29.962,-12.41 v 0 c 7.671,-7.671 12.411,-18.258 12.413,-29.962 v 0 c -0.002,-11.705 -4.742,-22.292 -12.413,-29.965 v 0 C 107.022,90.498 96.435,85.755 84.731,85.755 v 0 C 73.026,85.754 62.438,90.497 54.766,98.166 Z"
   id="path4036" />
<path
   fill="#f4f4f4"
   d="m 52.356,128.128 c 0,-17.88 14.493,-32.375 32.375,-32.375 v 0 c 17.88,0 32.375,14.495 32.375,32.375 v 0 c 0,17.881 -14.495,32.375 -32.375,32.375 v 0 c -17.882,0 -32.375,-14.493 -32.375,-32.375 z m 1.999,0 c 0.031,16.776 13.599,30.346 30.375,30.375 v 0 c 16.776,-0.028 30.344,-13.599 30.375,-30.375 v 0 C 115.074,111.354 101.506,97.784 84.73,97.753 v 0 c -16.775,0.032 -30.344,13.601 -30.375,30.375 z"
   id="path4038" />
<path
   fill="#f4f4f4"
   d="m 65.917,128.129 c 0,-10.39 8.422,-18.812 18.812,-18.812 v 0 c 10.39,0 18.813,8.422 18.813,18.812 v 0 c 0,10.39 -8.422,18.811 -18.813,18.813 v 0 C 74.34,146.94 65.917,138.521 65.917,128.129 Z m 2.001,0 c 0.016,9.284 7.528,16.795 16.812,16.812 v 0 c 9.286,-0.017 16.796,-7.528 16.814,-16.812 v 0 c -0.018,-9.286 -7.528,-16.795 -16.814,-16.814 v 0 c -9.284,0.019 -16.796,7.528 -16.812,16.814 z"
   id="path4040" />
<g
   id="g4052"
   transform="translate(-26,-10)">
	<circle
   fill="#f4f4f4"
   cx="91.595001"
   cy="233.963"
   r="2.8329999"
   id="circle4042" />
	<circle
   fill="#f4f4f4"
   cx="101.303"
   cy="233.963"
   r="2.8329999"
   id="circle4044" />
	<circle
   fill="#f4f4f4"
   cx="111.011"
   cy="233.963"
   r="2.8329999"
   id="circle4046" />
	<circle
   fill="#f4f4f4"
   cx="120.72"
   cy="233.963"
   r="2.8329999"
   id="circle4048" />
	<circle
   fill="#f4f4f4"
   cx="130.42799"
   cy="233.963"
   r="2.8329999"
   id="circle4050" />
</g>
<g
   id="g4064"
   transform="translate(-26,-10)">
	<circle
   fill="#f4f4f4"
   cx="91.595001"
   cy="243.742"
   r="2.8329999"
   id="circle4054" />
	<circle
   fill="#f4f4f4"
   cx="101.303"
   cy="243.742"
   r="2.8329999"
   id="circle4056" />
	<circle
   fill="#f4f4f4"
   cx="111.011"
   cy="243.742"
   r="2.8329999"
   id="circle4058" />
	<circle
   fill="#f4f4f4"
   cx="120.72"
   cy="243.742"
   r="2.8329999"
   id="circle4060" />
	<circle
   fill="#f4f4f4"
   cx="130.42799"
   cy="243.742"
   r="2.8329999"
   id="circle4062" />
</g>
<g
   id="g4076"
   transform="translate(-26,-10)">
	<circle
   fill="#f4f4f4"
   cx="91.595001"
   cy="253.52"
   r="2.8329999"
   id="circle4066" />
	<circle
   fill="#f4f4f4"
   cx="101.303"
   cy="253.52"
   r="2.8329999"
   id="circle4068" />
	<circle
   fill="#f4f4f4"
   cx="111.011"
   cy="253.52"
   r="2.8329999"
   id="circle4070" />
	<circle
   fill="#f4f4f4"
   cx="120.72"
   cy="253.52"
   r="2.8329999"
   id="circle4072" />
	<circle
   fill="#f4f4f4"
   cx="130.42799"
   cy="253.52"
   r="2.8329999"
   id="circle4074" />
</g>
<g
   id="g4088"
   transform="translate(-26,-10)">
	<circle
   fill="#f4f4f4"
   cx="91.595001"
   cy="263.297"
   r="2.8329999"
   id="circle4078" />
	<circle
   fill="#f4f4f4"
   cx="101.303"
   cy="263.297"
   r="2.8329999"
   id="circle4080" />
	<circle
   fill="#f4f4f4"
   cx="111.011"
   cy="263.297"
   r="2.8329999"
   id="circle4082" />
	<circle
   fill="#f4f4f4"
   cx="120.72"
   cy="263.297"
   r="2.8329999"
   id="circle4084" />
	<circle
   fill="#f4f4f4"
   cx="130.42799"
   cy="263.297"
   r="2.8329999"
   id="circle4086" />
</g>
<g
   id="g4096"
   transform="translate(-26,-10)">
	<circle
   fill="#f4f4f4"
   cx="462.26199"
   cy="215.297"
   r="4.1669998"
   id="circle4090" />
	<circle
   fill="#f4f4f4"
   cx="462.26199"
   cy="255.047"
   r="4.1669998"
   id="circle4092" />
	<circle
   fill="#f4f4f4"
   cx="462.26199"
   cy="294.797"
   r="4.1669998"
   id="circle4094" />
</g>
<g
   id="g4104"
   transform="translate(-26,-10)">
	<circle
   fill="#f4f4f4"
   cx="497.595"
   cy="211.465"
   r="4.1669998"
   id="circle4098" />
	<circle
   fill="#f4f4f4"
   cx="497.595"
   cy="251.215"
   r="4.1669998"
   id="circle4100" />
	<circle
   fill="#f4f4f4"
   cx="497.595"
   cy="290.965"
   r="4.1669998"
   id="circle4102" />
</g>
<g
   id="g4112"
   transform="translate(-26,-10)">
	<circle
   fill="#f4f4f4"
   cx="532.92798"
   cy="207.797"
   r="4.1669998"
   id="circle4106" />
	<circle
   fill="#f4f4f4"
   cx="532.92798"
   cy="247.547"
   r="4.1669998"
   id="circle4108" />
	<circle
   fill="#f4f4f4"
   cx="532.92798"
   cy="287.297"
   r="4.1669998"
   id="circle4110" />
</g>
<path
   fill="#f4f4f4"
   d="m 423.26,146.253 c 0.002,-12.426 10.074,-22.5 22.502,-22.5 v 0 c 12.426,0 22.498,10.074 22.5,22.5 v 0 c -0.002,12.425 -10.074,22.5 -22.5,22.5 v 0 c -12.428,0 -22.5,-10.072 -22.502,-22.5 z m 2.002,0 c 0.021,11.324 9.179,20.48 20.5,20.5 v 0 c 11.321,-0.02 20.479,-9.176 20.498,-20.5 v 0 c -0.019,-11.32 -9.177,-20.479 -20.498,-20.5 v 0 c -11.323,0.022 -20.481,9.181 -20.5,20.5 z"
   id="path4114" />
<path
   fill="#f4f4f4"
   d="m 478.135,108.378 c 0.002,-12.426 10.074,-22.499 22.501,-22.499 v 0 c 12.427,0 22.499,10.072 22.501,22.499 v 0 c -0.002,12.427 -10.074,22.499 -22.501,22.501 v 0 c -12.427,-0.002 -22.499,-10.073 -22.501,-22.501 z m 2,0 c 0.021,11.323 9.18,20.479 20.501,20.5 v 0 c 11.322,-0.021 20.479,-9.178 20.501,-20.5 v 0 C 521.116,97.058 511.958,87.899 500.636,87.88 v 0 c -11.323,0.019 -20.48,9.179 -20.501,20.498 z"
   id="path4116" />
<path
   fill="#f4f4f4"
   d="m 488.636,42.879 c 0,-8.492 6.886,-15.374 15.376,-15.376 v 0 c 8.49,0.002 15.374,6.884 15.374,15.376 v 0 c 0,8.492 -6.884,15.374 -15.374,15.376 v 0 C 495.52,58.253 488.636,51.372 488.636,42.879 Z m 2,0 c 0.013,7.386 5.988,13.362 13.376,13.375 v 0 c 7.387,-0.013 13.361,-5.988 13.374,-13.375 v 0 c -0.013,-7.386 -5.987,-13.361 -13.374,-13.374 v 0 c -7.388,0.014 -13.364,5.989 -13.376,13.374 z"
   id="path4118" />
<path
   fill="#f4f4f4"
   d="m 493.886,42.88 c 0,-5.593 4.535,-10.125 10.125,-10.125 v 0 c 5.591,0 10.125,4.532 10.125,10.125 v 0 c 0,5.591 -4.534,10.123 -10.125,10.123 v 0 c -5.59,0 -10.125,-4.532 -10.125,-10.123 z m 1.999,0 c 0.01,4.486 3.639,8.116 8.126,8.125 v 0 c 4.486,-0.008 8.116,-3.639 8.125,-8.125 v 0 c -0.009,-4.488 -3.639,-8.118 -8.125,-8.126 v 0 c -4.488,0.008 -8.116,3.639 -8.126,8.126 z"
   id="path4120" />
</svg>
