<?xml version="1.0" encoding="UTF-8" standalone="no"?>
<!-- Generator: Adobe Illustrator 13.0.0, SVG Export Plug-In . SVG Version: 6.00 Build 14948)  -->

<svg
   version="1.1"
   id="Layer_2"
   x="0px"
   y="0px"
   width="549.18903"
   height="341.26001"
   viewBox="0 0 549.189 341.26"
   enable-background="new 0 0 598.189 350.26"
   xml:space="preserve"
   sodipodi:docname="oric.svg"
   inkscape:version="1.2.2 (732a01da63, 2022-12-09)"
   xmlns:inkscape="http://www.inkscape.org/namespaces/inkscape"
   xmlns:sodipodi="http://sodipodi.sourceforge.net/DTD/sodipodi-0.dtd"
   xmlns="http://www.w3.org/2000/svg"
   xmlns:svg="http://www.w3.org/2000/svg"><defs
   id="defs4742" /><sodipodi:namedview
   id="namedview4740"
   pagecolor="#000000"
   bordercolor="#111111"
   borderopacity="1"
   inkscape:showpageshadow="0"
   inkscape:pageopacity="0"
   inkscape:pagecheckerboard="1"
   inkscape:deskcolor="#d1d1d1"
   showgrid="false"
   inkscape:zoom="2.0445042"
   inkscape:cx="299.58363"
   inkscape:cy="175.10357"
   inkscape:window-width="1920"
   inkscape:window-height="1009"
   inkscape:window-x="-8"
   inkscape:window-y="-8"
   inkscape:window-maximized="1"
   inkscape:current-layer="Layer_2" />
<path
   fill="#f4f4f4"
   d="m 35.865,147.554 v -15.136 h 27.786 v 14.136 1 z m 26.786,-1.001 v -1 z m -24.786,-1 H 61.65 V 134.418 H 37.865 Z"
   id="path4615" />
<path
   fill="#f4f4f4"
   d="m 72.865,147.554 v -15.136 h 27.786 v 14.136 1 z m 26.786,-1.001 v -1 z m -24.785,-1 H 98.651 V 134.416 H 74.866 Z"
   id="path4617" />
<path
   fill="#f4f4f4"
   d="m 109.867,147.554 v -15.136 h 27.784 v 14.136 1 z m 26.785,-1.001 v -1 z m -24.784,-1 h 23.783 v -11.137 h -23.783 z"
   id="path4619" />
<path
   fill="#f4f4f4"
   d="m 146.868,147.554 v -15.136 h 27.786 v 14.136 1 z m 26.786,-1.001 v -1 z m -24.785,-1 h 23.784 l -0.002,-11.137 h -23.782 z"
   id="path4621" />
<path
   fill="#f4f4f4"
   d="m 183.868,147.554 v -15.136 h 27.786 v 14.136 1 z m 26.786,-1.001 v -1 z m -24.785,-1 h 23.785 v -11.137 h -23.785 z"
   id="path4623" />
<path
   fill="#f4f4f4"
   d="m 220.871,147.554 v -15.136 h 27.784 v 14.136 1 z m 26.784,-1.001 v -1 z m -24.784,-1 h 23.783 v -11.137 h -23.783 z"
   id="path4625" />
<path
   fill="#f4f4f4"
   d="m 257.872,147.554 v -15.136 h 27.785 v 14.135 1 h -27.785 z m 26.785,-1.001 v -1 z m -24.786,-1 h 23.785 v -11.136 h -23.785 z"
   id="path4627" />
<path
   fill="#f4f4f4"
   d="m 294.872,147.554 v -15.136 h 27.786 v 14.135 1.001 z m 26.785,-1.001 v -1.001 z m -24.785,-1.001 h 23.784 l -0.001,-11.135 h -23.783 z"
   id="path4629" />
<path
   fill="#f4f4f4"
   d="m 331.873,147.553 v -15.135 h 27.786 v 14.136 0.999 z m 26.785,-0.999 v -1.001 z m -24.785,-1.001 h 23.784 v -11.135 h -23.784 z"
   id="path4631" />
<path
   fill="#f4f4f4"
   d="m 368.874,147.553 v -15.136 h 27.784 v 14.137 1 h -27.784 z m 26.784,-0.999 v -1.001 z m -24.785,-1.002 h 23.784 v -11.134 h -23.784 z"
   id="path4633" />
<path
   fill="#f4f4f4"
   d="m 405.876,147.552 v -15.136 h 27.785 v 14.137 1 h -27.785 z m 26.784,-0.999 v -1 z m -24.783,-1 h 23.783 l -0.002,-11.136 h -23.781 z"
   id="path4635" />
<path
   fill="#f4f4f4"
   d="m 442.877,147.552 v -15.134 h 27.784 v 14.134 1 z m 26.783,-1 v -1 z m -24.783,-1 h 23.783 v -11.135 h -23.783 z"
   id="path4637" />
<path
   fill="#f4f4f4"
   d="m 479.877,147.553 v -15.135 h 27.786 v 14.135 1 z m 26.786,-1 v -1 z m -24.784,-1 h 23.782 v -11.135 h -23.782 z"
   id="path4639" />
<path
   fill="#f4f4f4"
   d="m 18.837,184.041 v -15.135 h 27.787 v 14.135 1 z m 26.785,-1 V 182.04 Z M 20.838,182.04 H 44.622 V 170.905 H 20.838 Z"
   id="path4641" />
<path
   fill="#f4f4f4"
   d="m 55.837,184.041 v -15.135 h 27.787 v 14.135 1 z m 26.786,-1 V 182.04 Z M 57.839,182.04 H 81.623 V 170.905 H 57.839 Z"
   id="path4643" />
<path
   fill="#f4f4f4"
   d="m 92.841,184.041 v -15.135 h 27.784 v 14.135 1 z m 26.783,-1 V 182.04 Z M 94.84,182.04 h 23.784 V 170.905 H 94.84 Z"
   id="path4645" />
<path
   fill="#f4f4f4"
   d="m 129.841,184.041 v -15.135 h 27.785 v 14.135 1 z m 26.784,-1 v -1.001 z m -24.784,-1.001 h 23.784 v -11.135 h -23.784 z"
   id="path4647" />
<path
   fill="#f4f4f4"
   d="m 166.842,184.041 v -15.135 h 27.785 v 14.135 1 z m 26.784,-1 v -1.001 z m -24.784,-1.001 h 23.786 v -11.135 h -23.786 z"
   id="path4649" />
<path
   fill="#f4f4f4"
   d="m 203.843,184.041 v -15.135 h 27.785 v 14.135 1 z m 26.784,-1 v -1.001 z m -24.784,-1.001 h 23.786 v -11.135 h -23.786 z"
   id="path4651" />
<path
   fill="#f4f4f4"
   d="m 240.844,184.041 v -15.135 h 27.785 v 14.135 1 z m 26.786,-1 v -1.001 z m -24.787,-1.001 h 23.786 v -11.135 h -23.786 z"
   id="path4653" />
<path
   fill="#f4f4f4"
   d="m 277.845,184.04 v -15.136 h 27.782 v 14.137 0.999 z m 26.785,-0.999 v -1.001 z m -24.785,-1.001 h 23.783 l -0.002,-11.136 h -23.781 z"
   id="path4655" />
<path
   fill="#f4f4f4"
   d="m 314.844,184.04 v -15.135 h 27.787 v 14.136 0.999 z m 26.787,-0.999 v -1.001 z m -24.785,-1.001 h 23.783 v -11.135 h -23.783 z"
   id="path4657" />
<path
   fill="#f4f4f4"
   d="m 351.845,184.04 v -15.136 h 27.787 v 14.136 1 z m 26.787,-1 v -1.001 z m -24.786,-1.001 h 23.785 v -11.134 h -23.785 z"
   id="path4659" />
<path
   fill="#f4f4f4"
   d="m 388.848,184.041 v -15.137 h 27.786 v 14.137 1 z m 26.785,-1 v -1.002 z m -24.785,-1.002 h 23.784 v -11.133 h -23.784 z"
   id="path4661" />
<path
   fill="#f4f4f4"
   d="m 425.848,184.04 v -15.135 h 27.786 v 14.135 1 z m 26.787,-1 v -1 z m -24.788,-1 h 23.785 v -11.135 h -23.785 z"
   id="path4663" />
<path
   fill="#f4f4f4"
   d="m 462.848,184.041 v -15.136 h 27.787 v 14.136 1 z m 26.787,-1 v -1.002 z m -24.785,-1.002 h 23.783 V 170.905 H 464.85 Z"
   id="path4665" />
<path
   fill="#f4f4f4"
   d="m 497.878,184.041 v -15.135 h 27.785 v 14.135 1 z m 26.785,-1 v -1.002 z m -24.785,-1.002 h 23.785 v -11.133 h -23.785 z"
   id="path4667" />
<path
   fill="#f4f4f4"
   d="M 29.541,220.527 V 205.39 h 27.784 v 14.136 1.001 z m 26.785,-1.001 v -1.001 z M 31.541,218.525 H 55.325 V 207.39 H 31.541 Z"
   id="path4669" />
<path
   fill="#f4f4f4"
   d="M 66.541,220.527 V 205.39 h 27.786 v 14.136 1.001 z m 26.785,-1.001 v -1.001 z M 68.541,218.525 H 92.325 V 207.39 H 68.541 Z"
   id="path4671" />
<path
   fill="#f4f4f4"
   d="M 103.543,220.527 V 205.39 h 27.784 v 14.136 1.001 z m 26.785,-1.001 v -1.001 z m -24.785,-1.001 h 23.784 v -11.133 h -23.784 z"
   id="path4673" />
<path
   fill="#f4f4f4"
   d="M 140.543,220.527 V 205.39 h 27.786 v 14.136 1.001 z m 26.785,-1.001 v -1.001 z m -24.785,-1.001 h 23.784 V 207.39 h -23.784 z"
   id="path4675" />
<path
   fill="#f4f4f4"
   d="M 177.545,220.527 V 205.39 h 27.784 v 14.136 1.001 z m 26.785,-1.001 v -1.001 z m -24.785,-1.001 h 23.784 V 207.39 h -23.784 z"
   id="path4677" />
<path
   fill="#f4f4f4"
   d="M 214.545,220.527 V 205.39 h 27.786 v 14.136 1.001 z m 26.785,-1.001 v -1.001 z m -24.785,-1.001 h 23.784 v -11.133 h -23.784 z"
   id="path4679" />
<path
   fill="#f4f4f4"
   d="M 251.547,220.527 V 205.39 h 27.784 v 14.136 1.001 z m 26.786,-1.001 v -1.001 z m -24.786,-1.001 h 23.784 l -0.002,-11.133 h -23.782 z"
   id="path4681" />
<path
   fill="#f4f4f4"
   d="M 288.547,220.527 V 205.39 h 27.787 v 14.136 1.001 z m 26.785,-1.001 v -1.001 z m -24.785,-1.001 h 23.784 v -11.133 h -23.784 z"
   id="path4683" />
<path
   fill="#f4f4f4"
   d="m 325.55,220.526 v -15.135 h 27.785 v 14.136 0.999 z m 26.785,-0.999 v -1.002 z m -24.787,-1.002 h 23.786 l -0.002,-11.135 h -23.784 z"
   id="path4685" />
<path
   fill="#f4f4f4"
   d="m 362.548,220.527 v -15.136 h 27.785 v 14.135 1.001 z m 26.787,-1.001 v -1.001 z m -24.785,-1.001 h 23.784 l -0.002,-11.134 H 364.55 Z"
   id="path4687" />
<path
   fill="#f4f4f4"
   d="m 399.552,220.527 v -15.136 h 27.785 v 14.135 1.001 z m 26.784,-1.001 v -1.001 z m -24.784,-1.001 h 23.783 v -11.134 h -23.783 z"
   id="path4689" />
<path
   fill="#f4f4f4"
   d="m 436.551,220.526 v -15.135 h 27.786 v 14.136 0.999 z m 26.785,-0.999 v -1.001 z m -24.784,-1.001 h 23.782 v -11.135 h -23.782 z"
   id="path4691" />
<path
   fill="#f4f4f4"
   d="m 473.552,220.527 v -15.136 h 60.383 v 14.135 1.001 z m 59.381,-1.001 v -1.001 z m -57.38,-1.001 h 56.379 v -11.134 h -56.379 z"
   id="path4693" />
<path
   fill="#f4f4f4"
   d="m 48.514,257.015 v -15.136 h 27.785 v 14.136 1 z m 26.786,-1 v -1.001 z M 50.515,255.014 H 74.299 V 243.879 H 50.515 Z"
   id="path4695" />
<path
   fill="#f4f4f4"
   d="M 85.516,257.015 V 241.879 H 113.3 v 14.136 1 z m 26.784,-1 v -1.001 z M 87.517,255.014 H 111.3 V 243.879 H 87.517 Z"
   id="path4697" />
<path
   fill="#f4f4f4"
   d="m 122.516,257.015 v -15.136 h 27.785 v 14.136 1 z m 26.785,-1 v -1.001 z m -24.785,-1.001 H 148.3 v -11.135 h -23.784 z"
   id="path4699" />
<path
   fill="#f4f4f4"
   d="m 159.518,257.015 v -15.136 h 27.784 v 14.136 1 z m 26.783,-1 v -1.001 z m -24.783,-1.001 h 23.783 v -11.135 h -23.783 z"
   id="path4701" />
<path
   fill="#f4f4f4"
   d="m 196.517,257.015 v -15.136 h 27.787 v 14.136 1 z m 26.785,-1 v -1.001 z m -24.784,-1.001 h 23.786 l -0.002,-11.135 h -23.784 z"
   id="path4703" />
<path
   fill="#f4f4f4"
   d="m 233.519,257.015 v -15.136 h 27.784 v 14.136 1 z m 26.785,-1 v -1.001 z m -24.784,-1.001 h 23.783 V 243.879 H 235.52 Z"
   id="path4705" />
<path
   fill="#f4f4f4"
   d="m 270.521,257.015 v -15.136 h 27.785 v 14.136 1 z m 26.785,-1 v -1.001 z m -24.785,-1.001 h 23.783 v -11.135 h -23.783 z"
   id="path4707" />
<path
   fill="#f4f4f4"
   d="m 307.52,257.015 v -15.136 h 27.787 v 14.136 1 z m 26.785,-1 v -1.001 z m -24.784,-1.001 h 23.783 v -11.135 h -23.783 z"
   id="path4709" />
<path
   fill="#f4f4f4"
   d="m 344.521,257.015 v -15.137 h 27.787 v 14.137 1 z m 26.787,-1 v -1.001 z m -24.786,-1.001 h 23.785 l -0.002,-11.135 h -23.783 z"
   id="path4711" />
<path
   fill="#f4f4f4"
   d="m 381.523,257.015 v -15.137 h 27.785 v 14.138 0.999 z m 26.784,-0.999 v -1.001 z m -24.783,-1.001 h 23.783 V 243.88 h -23.783 z"
   id="path4713" />
<path
   fill="#f4f4f4"
   d="m 418.523,257.015 v -15.137 h 27.787 v 14.138 0.999 z m 26.786,-0.999 v -1.001 z m -24.786,-1.001 h 23.785 v -11.137 h -23.785 z"
   id="path4715" />
<path
   fill="#f4f4f4"
   d="m 455.524,257.016 v -15.138 h 27.787 v 14.137 1.001 z m 26.785,-1.001 v -1.001 z m -24.784,-1.001 h 23.783 v -11.135 h -23.783 z"
   id="path4717" />
<path
   fill="#f4f4f4"
   d="m 119.543,293.503 v -15.137 h 27.784 v 14.136 1.001 z m 26.785,-1.001 v -1 z m -24.786,-1 h 23.786 l -0.002,-11.135 h -23.784 z"
   id="path4719" />
<path
   fill="#f4f4f4"
   d="m 156.545,293.503 v -15.137 h 27.784 v 14.136 1.001 z m 26.785,-1.001 v -1 z m -24.786,-1 h 23.784 v -11.135 h -23.784 z"
   id="path4721" />
<path
   fill="#f4f4f4"
   d="M 193.546,293.503 V 278.366 H 369.47 v 14.136 1.001 z m 174.923,-1.001 v -1 z m -172.922,-1 H 367.469 V 280.367 H 195.547 Z"
   id="path4723" />
<path
   fill="#f4f4f4"
   d="m 378.441,293.503 v -15.137 h 27.786 v 14.136 1.001 z m 26.786,-1.001 v -1 z m -24.785,-1 h 23.784 v -11.137 h -23.784 z"
   id="path4725" />
<path
   fill="#f4f4f4"
   d="m 415.443,293.503 v -15.137 h 27.786 v 14.136 1.001 z m 26.785,-1.001 v -1.001 z m -24.786,-1.001 h 23.785 v -11.136 h -23.785 z"
   id="path4727" />
<path
   fill="#f4f4f4"
   d="m 7.513,104.903 c -1.247,-0.017 -2.251,-0.07 -3.074,-0.846 v 0 c -0.775,-0.824 -0.83,-1.826 -0.845,-3.073 v 0 -90.976 c 0,-2.972 2.407,-5.378 5.378,-5.38 v 0 h 532.231 c 2.972,0.002 5.378,2.409 5.38,5.38 v 0 90.976 c -0.017,1.247 -0.072,2.25 -0.847,3.073 v 0 c -0.822,0.775 -1.825,0.829 -3.073,0.846 v 0 z m 535.15,-2.001 c 1.17,0.015 1.626,-0.181 1.658,-0.259 v 0 c 0.081,-0.032 0.276,-0.488 0.259,-1.659 v 0 l 0.003,-90.976 c -0.005,-1.865 -1.513,-3.375 -3.38,-3.379 v 0 H 8.972 C 7.107,6.633 5.597,8.143 5.595,10.008 v 0 90.976 c -0.017,1.17 0.18,1.627 0.259,1.659 v 0 c 0.032,0.079 0.489,0.274 1.659,0.259 v 0 z"
   id="path4729" />
<polygon
   fill="#f4f4f4"
   points="36.729,316.421 34.729,316.475 29.215,107.93 31.214,107.875 "
   id="polygon4731"
   transform="translate(-24,-4)" />
<polygon
   fill="#f4f4f4"
   points="568.474,107.929 562.96,316.475 560.96,316.422 566.473,107.876 "
   id="polygon4733"
   transform="translate(-24,-4)" />
<path
   fill="#f4f4f4"
   d="m 13.513,338.422 c -2.972,0 -5.379,-2.407 -5.379,-5.379 v 0 -17.188 c 0,-1.327 0.265,-2.486 1.089,-3.316 v 0 c 0.832,-0.825 1.991,-1.091 3.318,-1.091 v 0 l 525.257,0.002 c 1.326,-0.002 2.485,0.264 3.317,1.089 v 0 c 0.824,0.83 1.089,1.989 1.089,3.316 v 0 17.188 c -0.002,2.972 -2.409,5.379 -5.379,5.379 v 0 z m -2.877,-24.47 c -0.273,0.266 -0.501,0.811 -0.503,1.902 v 0 17.188 c 0.004,1.868 1.514,3.375 3.379,3.379 v 0 h 523.312 c 1.866,-0.004 3.375,-1.511 3.377,-3.379 v 0 -17.188 c 0,-1.092 -0.227,-1.637 -0.503,-1.902 v 0 c -0.265,-0.276 -0.809,-0.503 -1.901,-0.503 v 0 H 12.541 c -1.093,0 -1.637,0.227 -1.905,0.503 z"
   id="path4735" />
<path
   fill="#f4f4f4"
   d="m 431.741,42.63 c -2.701,0 -4.893,-2.189 -4.893,-4.891 v 0 -17.028 c 0,-2.702 2.191,-4.891 4.893,-4.893 v 0 l 76.381,0.002 c 2.701,0 4.891,2.189 4.893,4.891 v 0 17.028 c -0.002,2.702 -2.191,4.891 -4.893,4.891 v 0 z m -2.892,-21.919 v 17.028 c 0.002,1.597 1.295,2.89 2.892,2.892 v 0 h 76.381 c 1.595,-0.002 2.89,-1.295 2.892,-2.892 v 0 -17.028 c -0.002,-1.597 -1.297,-2.89 -2.892,-2.892 v 0 h -76.381 c -1.597,0.002 -2.89,1.295 -2.892,2.892 z"
   id="path4737" />
</svg>
