<?xml version="1.0" encoding="UTF-8" standalone="no"?>
<svg
   height="33"
   version="1.1"
   width="34"
   id="svg22"
   sodipodi:docname="pico8.svg"
   inkscape:version="1.2.2 (732a01da63, 2022-12-09)"
   xmlns:inkscape="http://www.inkscape.org/namespaces/inkscape"
   xmlns:sodipodi="http://sodipodi.sourceforge.net/DTD/sodipodi-0.dtd"
   xmlns="http://www.w3.org/2000/svg"
   xmlns:svg="http://www.w3.org/2000/svg">
  <sodipodi:namedview
     id="namedview24"
     pagecolor="#000000"
     bordercolor="#666666"
     borderopacity="1.0"
     inkscape:pageshadow="2"
     inkscape:pageopacity="0"
     inkscape:pagecheckerboard="true"
     showgrid="false"
     inkscape:zoom="7.2121212"
     inkscape:cx="33.069328"
     inkscape:cy="22.046219"
     inkscape:window-width="1920"
     inkscape:window-height="1009"
     inkscape:window-x="-8"
     inkscape:window-y="-8"
     inkscape:window-maximized="1"
     inkscape:current-layer="svg22"
     inkscape:showpageshadow="0"
     inkscape:deskcolor="#d1d1d1" />
  <defs
     id="defs2" />
  <path
     style="color:#000000;fill:#f4f4f4;fill-rule:evenodd;-inkscape-stroke:none"
     d="m 13.75,1.75 v 6.5 h 6.5 V 8 1.75 Z m 0.5,0.5 h 5.5 v 5.5 h -5.5 z"
     id="path4" />
  <path
     style="color:#000000;fill:#f4f4f4;fill-rule:evenodd;-inkscape-stroke:none"
     d="m 7.75,7.75 v 6.5 h 6.5 V 14 7.75 Z m 0.5,0.5 h 5.5 v 5.5 h -5.5 z"
     id="path6" />
  <path
     style="color:#000000;fill:#f4f4f4;fill-rule:evenodd;-inkscape-stroke:none"
     d="m 19.75,7.75 v 6.5 h 6.5 V 14 7.75 Z m 0.5,0.5 h 5.5 v 5.5 h -5.5 z"
     id="path10" />
  <path
     style="color:#000000;fill:#f4f4f4;fill-rule:evenodd;-inkscape-stroke:none"
     d="m 1.75,13.75 v 6.5 h 6.5 V 20 13.75 Z m 0.5,0.5 h 5.5 v 5.5 h -5.5 z"
     id="path12" />
  <path
     style="color:#000000;fill:#f4f4f4;fill-rule:evenodd;-inkscape-stroke:none"
     d="m 25.75,13.75 v 6.5 h 6.5 V 20 13.75 Z m 0.5,0.5 h 5.5 v 5.5 h -5.5 z"
     id="path14" />
  <path
     style="color:#000000;fill:#f4f4f4;fill-rule:evenodd;-inkscape-stroke:none"
     d="m 7.75,19.75 v 6.5 h 6.5 V 26 19.75 Z m 0.5,0.5 h 5.5 v 5.5 h -5.5 z"
     id="path16" />
  <path
     style="color:#000000;fill:#f4f4f4;fill-rule:evenodd;-inkscape-stroke:none"
     d="m 19.75,19.75 v 6.5 h 6.5 V 26 19.75 Z m 0.5,0.5 h 5.5 v 5.5 h -5.5 z"
     id="path18" />
  <path
     style="color:#000000;fill:#f4f4f4;fill-rule:evenodd;-inkscape-stroke:none"
     d="m 13.75,25.75 v 6.5 h 6.5 V 32 25.75 Z m 0.5,0.5 h 5.5 v 5.5 h -5.5 z"
     id="path20" />
</svg>
