<?xml version="1.0" encoding="UTF-8" standalone="no"?>
<!-- Generator: Adobe Illustrator 28.0.0, SVG Export Plug-In . SVG Version: 6.00 Build 0)  -->

<svg
   version="1.1"
   id="Layer_1"
   x="0px"
   y="0px"
   viewBox="0 0 204 135"
   xml:space="preserve"
   sodipodi:docname="ps4.svg"
   inkscape:version="1.2.2 (732a01da63, 2022-12-09)"
   width="204"
   height="135"
   xmlns:inkscape="http://www.inkscape.org/namespaces/inkscape"
   xmlns:sodipodi="http://sodipodi.sourceforge.net/DTD/sodipodi-0.dtd"
   xmlns="http://www.w3.org/2000/svg"
   xmlns:svg="http://www.w3.org/2000/svg"><defs
   id="defs7" /><sodipodi:namedview
   id="namedview5"
   pagecolor="#000000"
   bordercolor="#111111"
   borderopacity="1"
   inkscape:showpageshadow="0"
   inkscape:pageopacity="0"
   inkscape:pagecheckerboard="1"
   inkscape:deskcolor="#d1d1d1"
   showgrid="false"
   inkscape:zoom="1.6793786"
   inkscape:cx="174.76702"
   inkscape:cy="188.76029"
   inkscape:window-width="1920"
   inkscape:window-height="1009"
   inkscape:window-x="-8"
   inkscape:window-y="-8"
   inkscape:window-maximized="1"
   inkscape:current-layer="Layer_1" />
<path
   d="m 135.02105,80.978947 c 6.1,0 11.1,-5 11.1,-11.1 0,-6.1 -5,-11.1 -11.1,-11.1 -6.1,0 -11.1,5 -11.1,11.1 0,6.1 5,11.1 11.1,11.1 z m 0,-19.9 c 4.8,0 8.8,3.9 8.8,8.8 0,4.8 -3.9,8.8 -8.8,8.8 -4.8,0 -8.8,-3.9 -8.8,-8.8 0,-4.8 4,-8.8 8.8,-8.8 z m -2.2,-8.1 c 0,0 -0.1,0 -0.1,0 0,0 -0.1,0 -0.1,0 h -0.1 c 0,0 -0.1,0 -0.1,0 -3.9,0.4 -7.5,2.1 -10.4,4.8 -3.6,3.4 -5.7,7.9 -5.8,12.8 -0.2,4.9 1.6,9.6 4.9,13.2 v 0 c 3.3,3.6 7.9,5.7 12.8,5.9 4.9,0.2 9.6,-1.6 13.2,-4.9 6,-5.6 7.6,-14.5 3.9,-21.8 0,0 -0.1,0 -0.1,-0.1 h -0.1 c 0,0 0,0 -0.1,0 0,0 0,0 0,0 0,0 0,0 0,0 -0.4,-0.2 -0.7,-0.5 -1,-0.8 -0.1,-0.1 -0.2,-0.2 -0.3,-0.3 -0.2,-0.2 -0.4,-0.4 -0.7,-0.5 -0.1,-0.1 -0.3,-0.2 -0.4,-0.4 -0.2,-0.2 -0.4,-0.3 -0.6,-0.5 -0.1,-0.1 -0.3,-0.3 -0.4,-0.4 -0.2,-0.2 -0.3,-0.3 -0.5,-0.5 -0.1,-0.2 -0.3,-0.3 -0.4,-0.5 -0.2,-0.2 -0.3,-0.3 -0.5,-0.5 -0.1,-0.2 -0.3,-0.3 -0.4,-0.5 -0.1,-0.2 -0.3,-0.3 -0.4,-0.5 -0.1,-0.2 -0.3,-0.3 -0.4,-0.5 -0.1,-0.2 -0.3,-0.4 -0.4,-0.5 -0.1,-0.2 -0.2,-0.4 -0.3,-0.5 -0.1,-0.2 -0.2,-0.3 -0.3,-0.4 -3.3,-2.1 -7.1,-3 -10.9,-2.6 z m 15.2,16.9 c 0,7.2 -5.9,13.1 -13.1,13.1 -7.2,0 -13.1,-5.9 -13.1,-13.1 0,-7.2 5.9,-13.1 13.1,-13.1 7.3,0.1 13.1,5.9 13.1,13.1 z m -2.8,-16 0.1,0.2 c 1.6,2.7 3.7,5 6.2,6.8 0,0 0,0 0,0 0.1,0 0.1,0.1 0.2,0.1 0.1,0 0.1,0 0.2,0.1 0.1,0 0.1,0.1 0.1,0.2 0,0 0.1,0.1 0.1,0.1 l 0.2,0.1 c 3.8,2.6 8.2,3.9 12.8,3.9 12.6,0 22.9,-10.3 22.9,-22.9 0,-12.6 -10.4,-22.9 -23,-22.9 -12.6,0 -22.9,10.3 -22.9,22.9 0,4 1,7.9 3.1,11.4 -0.1,-0.1 -0.1,0 0,0 z m 33.6,-17.7 c 3.5,0 6.3,2.8 6.3,6.3 0,3.5 -2.8,6.3 -6.3,6.3 -3.5,0 -6.3,-2.8 -6.3,-6.3 0,-3.5 2.7,-6.3 6.3,-6.3 z m -13.5,-13.5 c 3.5,0 6.3,2.8 6.3,6.3 0,3.5 -2.8,6.3 -6.3,6.3 -3.5,0 -6.3,-2.8 -6.3,-6.3 0,-3.5 2.8,-6.3 6.3,-6.3 z m 0,26.9 c 3.5,0 6.3,2.8 6.3,6.3 0,3.5 -2.8,6.3 -6.3,6.3 -3.5,0 -6.3,-2.8 -6.3,-6.3 0,-3.5 2.8,-6.3 6.3,-6.3 z m -13.5,-13.4 c 3.5,0 6.3,2.8 6.3,6.3 0,3.5 -2.8,6.3 -6.3,6.3 -3.5,0 -6.3,-2.8 -6.3,-6.3 0,-3.5 2.8,-6.3 6.3,-6.3 z m -81.999997,44.8 c 6.1,0 11.1,-5 11.1,-11.1 0,-6.1 -5,-11.1 -11.1,-11.1 -6.1,0 -11.1,5 -11.1,11.1 0.1,6.1 5,11.1 11.1,11.1 z m 0,-19.9 c 4.8,0 8.8,3.9 8.8,8.8 0,4.8 -3.9,8.8 -8.8,8.8 -4.8,0 -8.8,-3.9 -8.8,-8.8 0,-4.8 4,-8.8 8.8,-8.8 z M 183.12105,116.97895 c 10.4,-1.7 15.5,-5.9 18,-9.5 -1.6,13.6 -8.6,21.8 -19,21.8 -7.2,0 -13.3,-4.3 -18.3,-12.7 1.7,0.9 4.1,1.5 8.2,1.5 2.8,0 6.4,-0.3 11.1,-1.1 z M 69.821053,12.878947 l 1.3,-0.7 h 62.599997 l 1.3,0.7 v 32.4 c 0,2 -1.6,3.6 -3.6,3.6 H 73.421053 c -2,0 -3.6,-1.6 -3.6,-3.6 z m 1.2,76.8 c 4.9,-0.2 9.5,-2.3 12.8,-5.9 3.4,-3.6 5.1,-8.3 4.9,-13.2 -0.2,-4.9 -2.3,-9.5 -5.8,-12.8 -2.9,-2.7 -6.5,-4.4 -10.4,-4.8 0,0 -0.1,0 -0.1,0 0,0 -0.1,0 -0.1,0 0,0 0,0 -0.1,0 0,0 0,0 -0.1,0 -3.9,-0.4 -7.7,0.5 -11,2.4 -0.1,0.2 -0.3,0.4 -0.4,0.6 -0.1,0.1 -0.2,0.3 -0.3,0.4 -0.1,0.1 -0.2,0.2 -0.2,0.3 -0.2,0.2 -0.3,0.5 -0.5,0.7 0,0 -0.1,0.1 -0.1,0.1 -0.2,0.3 -0.5,0.6 -0.7,0.9 0,0 -0.1,0.1 -0.1,0.1 -0.2,0.3 -0.5,0.6 -0.8,0.9 -0.1,0.1 -0.1,0.1 -0.2,0.2 -0.2,0.2 -0.5,0.5 -0.7,0.7 -0.1,0.1 -0.2,0.2 -0.4,0.3 -0.2,0.2 -0.4,0.4 -0.6,0.5 -0.2,0.2 -0.4,0.3 -0.6,0.5 -0.1,0.1 -0.3,0.2 -0.4,0.4 -0.3,0.3 -0.7,0.5 -1,0.8 0,0 0,0 -0.1,0 h -0.1 c 0,0 -0.1,0 -0.1,0.1 -3.7,7.3 -2.1,16.2 3.9,21.8 3.7,3.4 8.4,5.2 13.3,5 z m -1.2,-32.8 c 7.2,0 13.1,5.9 13.1,13.1 0,7.2 -5.9,13.1 -13.1,13.1 -7.2,0 -13.1,-5.9 -13.1,-13.1 0.1,-7.3 5.9,-13.1 13.1,-13.1 z m -28,-46.6 c -5,0 -10.3,0.9 -13,1.4 -0.8,0.1 -1.4,0.3 -1.7,0.4 -1,1.6 -5.4,8.6 -8.1,13.8 -2.5,4.9 -5.5,17.5 -7.7,26.7 -0.5,2 -0.9,3.9 -1.3,5.5 l -0.2000004,0.7 c -2.2,8.8 -6.2,25.3 -6.2,42.600003 0.1,0.7 1.2,10.7 18.6000004,13.6 15.9,2.6 18.5,-0.1 20.6,-2.3 0.3,-0.3 0.6,-0.6 0.9,-0.9 0.2,-0.4 0.4,-0.8 0.5,-1.2 3.1,-7.1 8.2,-21.700003 8.8,-23.600003 0.4,-1.3 1.2,-2 2.1,-2.3 -4.8,-5.5 -6.3,-13.2 -4,-20.1 -3.5,1.8 -7.3,2.7 -11.2,2.7 -13.7,0 -24.9,-11.2 -24.9,-24.9 0,-13.7 11.2,-24.9 24.9,-24.9 7.1,0 13.6,3 18.1,7.8 0,-0.1 0,-0.1 0,-0.2 v -5.2 c 0,-1.9 1.5,-3.4 3.4,-3.4 1.9,0 3.4,1.5 3.4,3.4 v 5.2 c 0,1.9 -1.5,3.4 -3.4,3.4 -0.3,0 -0.6,-0.1 -0.9,-0.1 2.7,4 4.3,8.8 4.3,14 0,3.4 -0.7,6.8 -2.1,9.9 3,-1.2 6.3,-1.7 9.6,-1.4 0,0 0.1,0 0.2,0 0.1,0 0.1,0 0.2,0 0.1,0 0.1,0 0.2,0 4.3,0.5 8.3,2.3 11.5,5.3 4,3.7 6.3,8.8 6.5,14.2 0.2,4.7 -1.3,9.2 -4.1,13 h 31.499997 c -2.8,-3.7 -4.2,-8.2 -4.1,-13 0.2,-5.4 2.5,-10.5 6.5,-14.2 3.2,-3 7.2,-4.8 11.5,-5.3 0.1,0 0.2,0 0.2,0 0.1,0 0.1,0 0.2,0 0.1,0 0.2,0 0.2,0 3.2,-0.3 6.5,0.2 9.5,1.4 -1.4,-3.1 -2.1,-6.5 -2.1,-9.9 0,-5.2 1.6,-10 4.3,-14 -0.3,0.1 -0.6,0.1 -0.9,0.1 -1.9,0 -3.4,-1.5 -3.4,-3.4 v -5.2 c 0,-1.9 1.5,-3.4 3.4,-3.4 1.9,0 3.4,1.5 3.4,3.4 v 5.2 c 0,0.1 0,0.1 0,0.2 4.5,-4.8 11,-7.8 18.1,-7.8 13.7,0 24.9,11.2 24.9,24.9 0,13.7 -11.2,24.9 -24.9,24.9 -3.9,0 -7.8,-0.9 -11.2,-2.7 2.4,6.9 0.9,14.6 -4,20.1 0.9,0.3 1.7,1 2.1,2.3 0.6,1.9 5.7,16.500003 8.8,23.600003 0.2,0.4 0.4,0.8 0.5,1.2 0.3,0.3 0.6,0.6 0.9,0.9 2.1,2.2 4.7,4.9 20.6,2.3 17.5,-2.9 18.6,-12.9 18.6,-13.6 0,-17.300003 -4.1,-33.700003 -6.2,-42.600003 l -0.2,-0.7 c -0.4,-1.6 -0.8,-3.5 -1.3,-5.5 -2.2,-9.2 -5.2,-21.8 -7.7,-26.7 -2.7,-5.3 -7.1,-12.2 -8.1,-13.8 -0.4,-0.1 -1,-0.2 -1.7,-0.4 -2.7,-0.5 -8,-1.4 -13,-1.4 -5.4,0 -9.2,0.1 -11.2,0.4 -0.9,0.1 -1.1,0.3 -1.1,0.3 -0.8,0.9 -3.2,2.4 -5.1,2.4 h -8.7 v 32 c 0,3.1 -2.5,5.6 -5.6,5.6 H 73.421053 c -3.1,0 -5.6,-2.5 -5.6,-5.6 v -32 h -8.7 c -1.8,0 -4.3,-1.4 -5.1,-2.4 0,0 -0.2,-0.1 -1,-0.2 -2,-0.4 -6,-0.5 -11.2,-0.5 z m 60.599997,54.8 c 3.2,0 5.8,2.6 5.8,5.8 0,3.2 -2.6,5.8 -5.8,5.8 -3.199997,0 -5.799997,-2.6 -5.799997,-5.8 0,-3.2 2.6,-5.8 5.799997,-5.8 z m -49.499997,-3.9 c 0,0 0.1,-0.1 0.1,-0.1 0.1,0 0.1,-0.1 0.2,-0.1 0,0 0.1,0 0.1,-0.1 0,0 0,0 0,0 2.5,-1.8 4.6,-4.2 6.1,-6.8 l 0.1,-0.2 c 0,0 0,-0.1 0.1,-0.1 2,-3.5 3,-7.4 3,-11.4 0,-12.6 -10.3,-22.9 -22.9,-22.9 -12.6,0 -22.9,10.3 -22.9,22.9 0,12.6 10.3,22.9 22.9,22.9 4.6,0 9,-1.3 12.8,-3.9 0.1,0 0.1,-0.1 0.2,-0.1 0.1,0 0.1,0 0.2,-0.1 z m -13.2,-36 c 4.6,0 6.1,2 5.9,4.4 -0.1,1.8 -0.4,4.1 -0.5,5.1 0,0.4 -0.2,0.7 -0.4,0.9 l -3.9,3.9 c -0.6,0.6 -1.6,0.6 -2.2,0 l -3.9,-3.9 c -0.2,-0.3 -0.4,-0.6 -0.4,-0.9 -0.1,-1 -0.3,-3.3 -0.5,-5.1 -0.2,-2.4 1.3,-4.4 5.9,-4.4 z m -7.6,22.6 c -1,0.1 -3.3,0.3 -5.1,0.5 -2.4,0.2 -4.4,-1.3 -4.4,-5.9 0,-4.6 2,-6.1 4.4,-5.9 1.8,0.1 4.1,0.4 5.1,0.5 0.4,0 0.7,0.2 0.9,0.4 l 3.9,3.9 c 0.6,0.6 0.6,1.6 0,2.2 l -3.9,3.9 c -0.2,0.2 -0.6,0.4 -0.9,0.4 z m 7.6,11.7 c -4.6,0 -6.1,-2 -5.9,-4.4 0.1,-1.8 0.4,-4.1 0.5,-5.1 0,-0.4 0.2,-0.7 0.4,-0.9 l 3.9,-3.9 c 0.6,-0.6 1.6,-0.6 2.2,0 l 3.9,3.9 c 0.2,0.3 0.4,0.6 0.4,0.9 0.1,1 0.3,3.3 0.5,5.1 0.1,2.4 -1.4,4.4 -5.9,4.4 z m 12.7,-11.2 c -1.8,-0.1 -4.1,-0.4 -5.1,-0.5 -0.4,0 -0.7,-0.2 -0.9,-0.4 l -3.9,-3.9 c -0.6,-0.6 -0.6,-1.6 0,-2.2 l 3.9,-3.9 c 0.3,-0.2 0.6,-0.4 0.9,-0.4 1,-0.1 3.3,-0.3 5.1,-0.5 2.4,-0.2 4.4,1.3 4.4,5.9 0,4.6 -2,6 -4.4,5.9 z m -30.7,68.700003 c 4.7,0.8 8.4,1.1 11.2,1.1 4.1,0 6.5,-0.7 8.2,-1.5 -5,8.4 -11.1,12.7 -18.3,12.7 -10.5,0 -17.5000004,-8.2 -19.0000004,-21.8 2.4,3.5 7.5000004,7.8 17.9000004,9.5 z M 151.72105,8.6789474 v -0.9 c 0,0 1.6,-2.9 10.2,-2.9 8.4,0 14,3.7 14.3,3.9 0,0 0,0 0,0 v 0.9 c -2.8,-0.5 -8.1,-1.4 -13.2,-1.4 -5.4,0 -9.1,0.1 -11.3,0.4 z m -123.199997,1 v -0.9 c 0,0 0,0 0,0 0.3,-0.2 6,-3.9 14.3,-3.9 8.6,0 10.2,2.9 10.2,2.9 v 0.9 c -2.2,-0.3 -6,-0.4 -11.3,-0.4 -5,0 -10.3,0.9 -13.2,1.4 z"
   id="path2"
   style="fill:none;stroke:#ffffff;stroke-opacity:1" />
</svg>
