<?xml version="1.0" encoding="UTF-8" standalone="no"?>
<!-- Generator: Adobe Illustrator 13.0.0, SVG Export Plug-In . SVG Version: 6.00 Build 14948)  -->

<svg
   version="1.2"
   id="Layer_2"
   x="0px"
   y="0px"
   width="582.18903"
   height="243.25999"
   viewBox="0 0 582.189 243.25998"
   xml:space="preserve"
   sodipodi:docname="psp.svg"
   inkscape:version="1.2.2 (732a01da63, 2022-12-09)"
   xmlns:inkscape="http://www.inkscape.org/namespaces/inkscape"
   xmlns:sodipodi="http://sodipodi.sourceforge.net/DTD/sodipodi-0.dtd"
   xmlns="http://www.w3.org/2000/svg"
   xmlns:svg="http://www.w3.org/2000/svg"><defs
   id="defs1834" /><sodipodi:namedview
   id="namedview1832"
   pagecolor="#000000"
   bordercolor="#111111"
   borderopacity="1"
   inkscape:showpageshadow="0"
   inkscape:pageopacity="0"
   inkscape:pagecheckerboard="1"
   inkscape:deskcolor="#d1d1d1"
   showgrid="false"
   inkscape:zoom="2.0445042"
   inkscape:cx="299.58363"
   inkscape:cy="175.10357"
   inkscape:window-width="1920"
   inkscape:window-height="1009"
   inkscape:window-x="-8"
   inkscape:window-y="-8"
   inkscape:window-maximized="1"
   inkscape:current-layer="Layer_2" />
<path
   fill="#f4f4f4"
   d="M 32.671,26.637"
   id="path1739" />
<path
   fill="#f4f4f4"
   d="m 33.845,23.162 c 0.893,-1.426 4.216,-6.902 6.056,-9.507 v 0 C 44.665,6.495 52.816,1.776 62.062,1.776 v 0 h 38.659 V 3.777 H 62.062 C 53.507,3.775 45.979,8.139 41.55,14.786 v 0 c -1.775,2.513 -5.108,7.996 -6.009,9.435 v 0 0.002 z"
   id="path1741" />
<path
   fill="#f4f4f4"
   d="m 62.982,241.271 c -9.246,0 -17.395,-4.717 -22.143,-11.855 v 0 c -1.858,-2.626 -5.181,-8.103 -6.072,-9.529 v 0 l 1.695,-1.061 c 0.9,1.44 4.232,6.924 6.023,9.459 v 0 c 4.412,6.625 11.941,10.988 20.496,10.986 v 0 l 38.661,0.002 v 2 z"
   id="path1743" />
<path
   fill="#f4f4f4"
   d="M 31.646,28.07"
   id="path1745" />
<path
   fill="#f4f4f4"
   d="M 32.671,217.343"
   id="path1747" />
<path
   fill="#f4f4f4"
   d="M 31.646,215.911"
   id="path1749" />
<path
   fill="#f4f4f4"
   d="M 550.966,26.637"
   id="path1751" />
<path
   fill="#f4f4f4"
   d="M 542.069,14.762 C 537.659,8.138 530.131,3.775 521.573,3.775 v 0 h -38.658 v -2 h 38.658 c 9.249,0 17.398,4.72 22.146,11.856 v 0 c 1.857,2.627 5.18,8.104 6.072,9.528 v 0 0.002 l -1.693,1.06 c -0.904,-1.44 -4.235,-6.923 -6.029,-9.459 z"
   id="path1753" />
<path
   fill="#f4f4f4"
   d="M 551.99,28.07"
   id="path1755" />
<path
   fill="#f4f4f4"
   d="M 550.966,217.343"
   id="path1757" />
<path
   fill="#f4f4f4"
   d="M 551.99,215.911"
   id="path1759" />
<path
   fill="#f4f4f4"
   d="m 126.685,210.844 c -1.739,0 -3.151,-1.409 -3.151,-3.15 v 0 V 19.98 c 0,-1.741 1.41,-3.151 3.151,-3.151 v 0 h 330.268 c 1.741,0 3.148,1.41 3.15,3.151 v 0 187.713 h -0.002 c 0,1.741 -1.41,3.15 -3.148,3.15 v 0 H 126.685 Z M 125.533,19.98 v 187.713 c 0.002,0.636 0.514,1.149 1.152,1.149 v 0 l 330.268,0.002 c 0.636,-0.002 1.147,-0.516 1.149,-1.151 v 0 V 19.98 c -0.002,-0.636 -0.517,-1.149 -1.149,-1.151 v 0 H 126.685 c -0.636,0.002 -1.15,0.515 -1.152,1.151 z"
   id="path1761" />
<path
   fill="#f4f4f4"
   d="m 97.197,59.587 c -2.269,0 -4.109,-1.84 -4.109,-4.109 0,-2.27 1.84,-4.109 4.109,-4.109 h 6.758 c 2.27,0 4.109,1.839 4.109,4.109 0,2.269 -1.839,4.109 -4.109,4.109 z"
   id="path1763" />
<path
   fill="#f4f4f4"
   d="m 480.167,59.587 c -2.27,0 -4.109,-1.84 -4.109,-4.109 0,-2.27 1.84,-4.109 4.109,-4.109 h 6.759 c 2.27,0 4.109,1.839 4.109,4.109 0,2.269 -1.84,4.109 -4.109,4.109 z"
   id="path1765" />
<path
   fill="#f4f4f4"
   d="m 236.617,229.092 c -1.046,0 -1.894,-0.849 -1.894,-1.893 0,-1.049 0.848,-1.896 1.894,-1.896 h 4.455 c 1.046,0 1.895,0.848 1.895,1.896 0,1.044 -0.848,1.893 -1.895,1.893 z"
   id="path1767" />
<path
   fill="#f4f4f4"
   d="m 47.491,184.307 c 0.002,-11.773 9.545,-21.316 21.316,-21.318 v 0 c 11.773,0.002 21.314,9.545 21.316,21.318 v 0 c -0.002,11.771 -9.543,21.315 -21.316,21.318 v 0 C 57.036,205.622 47.493,196.078 47.491,184.307 Z m 2.002,0 c 0.019,10.667 8.649,19.297 19.314,19.315 v 0 c 10.667,-0.019 19.297,-8.648 19.316,-19.315 v 0 C 88.104,173.639 79.474,165.009 68.807,164.991 v 0 c -10.665,0.018 -19.295,8.648 -19.314,19.316 z"
   id="path1769" />
<path
   fill="#f4f4f4"
   d="m 21.977,165.222 c 0,1.738 -1.409,3.147 -3.148,3.147 -1.739,0 -3.149,-1.409 -3.149,-3.147 0,-1.741 1.41,-3.15 3.149,-3.15 1.739,0 3.148,1.408 3.148,3.15 z"
   id="path1771" />
<path
   fill="#f4f4f4"
   d="M 24.528,106.618"
   id="path1773" />
<path
   fill="#f4f4f4"
   d="M 105.022,106.618"
   id="path1775" />
<path
   fill="#f4f4f4"
   d="M 54.201,85.086"
   id="path1777" />
<g
   id="g1787"
   transform="translate(-6,-62)">
	<path
   fill="#f4f4f4"
   d="m 71.049,163.092 c -1.24,0 -2.392,-0.439 -3.282,-1.172 v 0 l -0.043,-0.035 -9.49,-9.753 c -0.796,-0.907 -1.281,-2.106 -1.281,-3.41 v 0 -16.369 c 0,-0.866 0.351,-1.659 0.942,-2.258 v 0 c 0.361,-0.345 0.893,-0.731 1.599,-0.908 v 0 c 3.708,-1.014 7.604,-1.381 11.555,-1.381 v 0 h 0.152 c 3.954,0 7.85,0.368 11.547,1.377 v 0 c 0.714,0.181 1.248,0.566 1.638,0.94 v 0 c 0.563,0.571 0.911,1.365 0.911,2.229 v 0 16.369 c 0,1.302 -0.482,2.502 -1.315,3.451 v 0 l -9.451,9.708 -0.045,0.039 c -0.893,0.731 -2.042,1.172 -3.284,1.172 v 0 -1 -1 c 0.757,-0.002 1.44,-0.26 1.988,-0.698 v 0 l 9.323,-9.578 c 0.491,-0.561 0.784,-1.287 0.784,-2.094 v 0 -16.369 c 0,-0.329 -0.125,-0.612 -0.306,-0.796 v 0 c -0.252,-0.228 -0.404,-0.341 -0.759,-0.439 v 0 c -3.479,-0.953 -7.201,-1.312 -11.03,-1.312 v 0 H 71.05 c -3.829,0 -7.548,0.359 -11.038,1.313 v 0 c -0.347,0.097 -0.499,0.208 -0.718,0.407 v 0 c -0.211,0.217 -0.339,0.501 -0.339,0.827 v 0 16.369 c 0,0.805 0.296,1.534 0.75,2.055 v 0 l 9.369,9.626 c 0.544,0.432 1.227,0.689 1.977,0.689 v 0 h 0.152 v 1 1 h -0.154 z"
   id="path1779" />
	<path
   fill="#f4f4f4"
   d="m 59.5,208.407 c -0.712,-0.182 -1.243,-0.565 -1.639,-0.941 v 0 c -0.558,-0.569 -0.908,-1.362 -0.908,-2.228 v 0 -16.369 c 0,-1.303 0.485,-2.502 1.317,-3.45 v 0 l 9.451,-9.709 0.048,-0.039 c 0.89,-0.729 2.04,-1.17 3.28,-1.17 v 0 1.001 1 c -0.751,0 -1.433,0.256 -1.978,0.688 v 0 l -9.331,9.586 c -0.492,0.562 -0.787,1.288 -0.787,2.094 v 0 16.369 c 0,0.326 0.128,0.611 0.305,0.797 v 0 c 0.252,0.228 0.407,0.341 0.762,0.442 v 0 c 3.48,0.949 7.199,1.309 11.028,1.309 v 0 h 0.153 c 3.828,0 7.548,-0.359 11.037,-1.312 v 0 c 0.347,-0.099 0.502,-0.212 0.719,-0.406 v 0 c 0.212,-0.219 0.338,-0.504 0.34,-0.83 v 0 -16.369 c -0.002,-0.806 -0.295,-1.532 -0.75,-2.053 v 0 l -9.369,-9.628 c -0.543,-0.432 -1.229,-0.688 -1.977,-0.688 v 0 h -0.153 v -1 -0.999 l 0.153,-0.002 c 1.241,0 2.391,0.442 3.283,1.17 v 0 l 0.043,0.035 9.489,9.752 c 0.797,0.909 1.282,2.108 1.282,3.411 v 0 l -0.002,16.369 c 0.002,0.865 -0.349,1.658 -0.941,2.261 v 0 c -0.361,0.345 -0.892,0.727 -1.598,0.906 v 0 c -3.706,1.014 -7.604,1.379 -11.555,1.379 v 0 l -0.153,0.002 C 67.097,209.784 63.2,209.419 59.5,208.407 Z"
   id="path1781" />
	<path
   fill="#f4f4f4"
   d="m 91.199,182.966 c -1.303,0.002 -2.5,-0.481 -3.451,-1.313 v 0 L 78.034,172.194 78,172.155 c -0.73,-0.891 -1.171,-2.042 -1.171,-3.282 v 0 -0.152 c 0,-1.241 0.44,-2.391 1.171,-3.282 v 0 l 0.033,-0.041 9.756,-9.493 c 0.909,-0.796 2.107,-1.28 3.41,-1.28 v 0 h 16.37 c 0.866,0 1.658,0.35 2.261,0.942 v 0 c 0.344,0.362 0.727,0.893 0.903,1.597 v 0 c 1.015,3.708 1.383,7.604 1.383,11.557 v 0 0.152 c 0,3.953 -0.368,7.848 -1.378,11.545 v 0 c -0.181,0.715 -0.566,1.247 -0.938,1.639 v 0 c -0.574,0.565 -1.369,0.911 -2.23,0.911 v 0 z m -2.095,-2.782 c 0.562,0.488 1.288,0.782 2.095,0.782 v 0 l 16.37,0.002 c 0.329,-0.002 0.613,-0.128 0.796,-0.305 v 0 c 0.228,-0.255 0.339,-0.405 0.44,-0.764 v 0 c 0.951,-3.479 1.311,-7.197 1.311,-11.027 v 0 -0.152 c 0,-3.83 -0.36,-7.548 -1.313,-11.038 v 0 c -0.099,-0.348 -0.21,-0.5 -0.405,-0.72 v 0 c -0.216,-0.209 -0.504,-0.337 -0.829,-0.337 v 0 h -16.37 c -0.805,0 -1.531,0.294 -2.056,0.749 v 0 l -9.625,9.369 c -0.433,0.545 -0.687,1.225 -0.688,1.978 v 0 0.152 c 0.002,0.752 0.255,1.434 0.688,1.977 v 0 z"
   id="path1783" />
	<path
   fill="#f4f4f4"
   d="m 34.683,182.966 c -0.864,0.002 -1.656,-0.346 -2.261,-0.94 v 0 c -0.342,-0.36 -0.727,-0.893 -0.903,-1.597 v 0 c -1.015,-3.708 -1.383,-7.604 -1.383,-11.556 v 0 -0.152 c 0,-3.953 0.368,-7.848 1.378,-11.546 v 0 c 0.181,-0.716 0.566,-1.247 0.94,-1.64 v 0 c 0.57,-0.562 1.364,-0.91 2.229,-0.91 v 0 h 16.37 c 1.303,0 2.5,0.483 3.449,1.315 v 0 l 9.713,9.456 0.037,0.043 c 0.73,0.891 1.171,2.04 1.169,3.282 v 0 l 0.002,0.152 c 0,1.241 -0.44,2.391 -1.171,3.282 v 0 l -0.035,0.041 -9.754,9.492 c -0.91,0.795 -2.107,1.28 -3.41,1.28 v 0 z m -0.799,-26.035 c -0.227,0.251 -0.337,0.403 -0.438,0.759 v 0 c -0.951,3.482 -1.311,7.2 -1.311,11.03 v 0 0.152 c 0,3.83 0.358,7.547 1.313,11.038 v 0 c 0.097,0.346 0.209,0.5 0.405,0.72 v 0 c 0.216,0.21 0.502,0.336 0.829,0.336 v 0 h 16.37 c 0.805,0 1.531,-0.294 2.054,-0.747 v 0 l 9.618,-9.36 c 0.437,-0.545 0.695,-1.231 0.697,-1.986 v 0 -0.152 c -0.002,-0.75 -0.258,-1.433 -0.691,-1.98 v 0 l -9.585,-9.332 c -0.562,-0.49 -1.288,-0.784 -2.093,-0.784 v 0 h -16.37 c -0.327,0 -0.611,0.127 -0.798,0.306 z"
   id="path1785" />
</g>
<path
   fill="#f4f4f4"
   d="M 19.577,106.796 C 19.579,81.641 39.971,61.249 65.126,61.249 v 0 c 25.156,0 45.547,20.392 45.547,45.547 v 0 c 0,25.155 -20.392,45.547 -45.547,45.549 v 0 C 39.971,152.343 19.579,131.951 19.577,106.796 Z M 34.333,76.003 c -7.882,7.883 -12.755,18.764 -12.755,30.792 v 0 c 0,12.028 4.873,22.908 12.755,30.792 v 0 c 7.883,7.883 18.765,12.756 30.792,12.756 v 0 c 12.028,0 22.908,-4.873 30.792,-12.756 v 0 c 7.883,-7.884 12.755,-18.764 12.755,-30.792 v 0 c 0,-12.028 -4.873,-22.91 -12.755,-30.792 v 0 C 88.033,68.121 77.153,63.25 65.125,63.248 v 0 C 53.098,63.25 42.216,68.121 34.333,76.003 Z"
   id="path1789" />
<g
   id="g1799"
   transform="translate(-6,-62)">
	<path
   fill="#f4f4f4"
   d="m 490.574,185.438 1.812,-0.844 c 3.477,7.489 9.425,13.603 16.792,17.281 v 0 h 0.002 l -0.896,1.79 c -7.774,-3.884 -14.045,-10.327 -17.71,-18.227 z"
   id="path1791" />
	<path
   fill="#f4f4f4"
   d="m 540.75,202.306 c 7.43,-3.46 13.503,-9.361 17.18,-16.671 v 0 0.003 l 1.785,0.896 c -3.879,7.711 -10.279,13.931 -18.119,17.585 v 0 z"
   id="path1793" />
	<path
   fill="#f4f4f4"
   d="m 541.691,136.767 h 0.002 l 0.894,-1.788 c 7.785,3.903 14.056,10.371 17.705,18.301 v 0 l -1.818,0.835 c -3.456,-7.513 -9.407,-13.651 -16.783,-17.348 z"
   id="path1795" />
	<path
   fill="#f4f4f4"
   d="m 491.033,152.227 c 3.895,-7.824 10.377,-14.125 18.332,-17.792 v 0 l 0.835,1.816 c -7.537,3.473 -13.687,9.454 -17.377,16.868 v 0 z"
   id="path1797" />
</g>
<path
   fill="#f4f4f4"
   d="m 502.75,73.847 c 0,-9.491 7.691,-17.182 17.18,-17.182 v 0 c 9.488,0 17.18,7.691 17.182,17.182 v 0 c -0.002,9.489 -7.693,17.18 -17.182,17.18 v 0 c -9.491,0 -17.18,-7.691 -17.18,-17.18 z m 2.001,0 c 0.015,8.384 6.795,15.165 15.179,15.179 v 0 c 8.384,-0.015 15.167,-6.795 15.18,-15.179 v 0 C 535.097,65.462 528.314,58.68 519.93,58.666 v 0 c -8.384,0.015 -15.164,6.796 -15.179,15.181 z"
   id="path1801" />
<path
   fill="#f4f4f4"
   d="m 535.689,107.829 c 0.002,-9.489 7.693,-17.181 17.181,-17.181 v 0 c 9.489,0 17.181,7.691 17.183,17.181 v 0 c -0.002,9.487 -7.693,17.179 -17.183,17.181 v 0 c -9.487,-0.002 -17.179,-7.694 -17.181,-17.181 z m 2.002,0 c 0.015,8.384 6.797,15.164 15.179,15.181 v 0 c 8.385,-0.017 15.166,-6.797 15.181,-15.181 v 0 C 568.036,99.445 561.255,92.663 552.87,92.648 v 0 c -8.382,0.015 -15.164,6.797 -15.179,15.181 z"
   id="path1803" />
<path
   fill="#f4f4f4"
   d="m 501.709,140.771 c 0,-9.49 7.689,-17.183 17.18,-17.183 v 0 c 9.489,0 17.18,7.692 17.18,17.183 v 0 h 0.002 c -0.002,9.487 -7.692,17.18 -17.182,17.18 v 0 c -9.491,-0.001 -17.18,-7.693 -17.18,-17.18 z m 2,0 c 0.015,8.384 6.797,15.164 15.18,15.179 v 0 c 8.385,-0.015 15.166,-6.795 15.179,-15.179 v 0 h 0.003 c -0.016,-8.387 -6.797,-15.167 -15.182,-15.182 v 0 c -8.383,0.015 -15.165,6.795 -15.18,15.182 z"
   id="path1805" />
<path
   fill="#f4f4f4"
   d="m 468.77,106.788 c 0,-9.488 7.689,-17.18 17.18,-17.18 v 0 c 9.488,0 17.178,7.692 17.178,17.18 v 0 h 0.002 c -0.002,9.488 -7.691,17.18 -17.18,17.182 v 0 c -9.491,-0.002 -17.18,-7.695 -17.18,-17.182 z m 2.001,0 c 0.012,8.383 6.795,15.167 15.179,15.181 v 0 c 8.381,-0.015 15.164,-6.798 15.179,-15.181 v 0 C 501.114,98.405 494.331,91.623 485.95,91.609 v 0 c -8.387,0.014 -15.168,6.795 -15.179,15.179 z"
   id="path1807" />
<path
   fill="#f4f4f4"
   d="m 168.437,235.155 v -1.001 -1 h 5.174 c 3.18,-0.006 5.752,-2.578 5.758,-5.76 v 0 c -0.006,-3.18 -2.579,-5.753 -5.758,-5.757 v 0 h -5.174 c -3.18,0.004 -5.752,2.577 -5.759,5.757 v 0 c 0.006,3.18 2.581,5.754 5.759,5.76 v 0 1 1.001 c -4.284,-0.002 -7.757,-3.474 -7.759,-7.761 v 0 c 0.002,-4.286 3.476,-7.758 7.759,-7.758 v 0 h 5.174 c 4.285,0 7.757,3.472 7.759,7.758 v 0 c -0.002,4.285 -3.474,7.759 -7.759,7.761 v 0 z"
   id="path1809" />
<path
   fill="#f4f4f4"
   d="m 206.074,235.155 v -1.001 -1 h 5.172 c 3.18,-0.006 5.754,-2.578 5.758,-5.76 v 0 c -0.004,-3.18 -2.579,-5.753 -5.758,-5.757 v 0 h -5.172 c -3.182,0.004 -5.754,2.577 -5.761,5.757 v 0 c 0.006,3.182 2.581,5.754 5.761,5.76 v 0 1 1.001 c -4.286,-0.002 -7.759,-3.476 -7.759,-7.761 v 0 c 0,-4.286 3.474,-7.758 7.759,-7.758 v 0 h 5.172 c 4.286,0 7.759,3.472 7.759,7.758 v 0 c 0,4.285 -3.474,7.759 -7.759,7.761 v 0 z"
   id="path1811" />
<path
   fill="#f4f4f4"
   d="m 376.582,235.155 v -1.001 -1 h 5.175 c 3.177,-0.006 5.752,-2.578 5.758,-5.76 v 0 c -0.006,-3.18 -2.578,-5.753 -5.758,-5.757 v 0 h -5.175 c -3.18,0.004 -5.754,2.577 -5.759,5.757 v 0 c 0.005,3.18 2.581,5.754 5.759,5.76 v 0 1 1.001 c -4.285,-0.002 -7.76,-3.474 -7.76,-7.761 v 0 c 0,-4.286 3.477,-7.758 7.76,-7.758 v 0 h 5.175 c 4.283,0 7.757,3.472 7.759,7.758 v 0 c -0.002,4.285 -3.474,7.759 -7.759,7.761 v 0 z"
   id="path1813" />
<path
   fill="#f4f4f4"
   d="m 352.006,235.155 v -1.001 -1 h 5.173 c 3.18,-0.006 5.754,-2.58 5.758,-5.76 v 0 c -0.004,-3.18 -2.578,-5.753 -5.758,-5.757 v 0 h -5.173 c -3.182,0.004 -5.756,2.577 -5.761,5.757 v 0 c 0.005,3.182 2.579,5.754 5.761,5.76 v 0 1 1.001 c -4.287,-0.002 -7.761,-3.476 -7.761,-7.761 v 0 c 0,-4.286 3.474,-7.758 7.761,-7.758 v 0 h 5.173 c 4.283,0 7.759,3.472 7.759,7.758 v 0 c 0,4.287 -3.476,7.759 -7.759,7.761 v 0 z"
   id="path1815" />
<circle
   fill="#f4f4f4"
   cx="554.80298"
   cy="193.362"
   r="3.1489999"
   id="circle1817" />
<circle
   fill="#f4f4f4"
   cx="28.889"
   cy="193.408"
   r="3.1489999"
   id="circle1819" />
<circle
   fill="#f4f4f4"
   cx="564.73798"
   cy="167.09399"
   r="3.1489999"
   id="circle1821" />
<path
   fill="#f4f4f4"
   d="m 104.867,241.635 c -3.488,-0.009 -6.423,-1.269 -8.168,-3.02 v 0 c -2.173,-2.201 -4.784,-5.297 -7.025,-8.009 v 0 c -2.222,-2.692 -4.152,-5.069 -4.68,-5.552 v 0 c -2.962,-2.782 -6.878,-4.542 -11.23,-4.542 v 0 c 0,0 -28.303,0.077 -37.33,0.077 v 0 c -1.22,0 -2.456,-0.435 -3.282,-1.427 v 0 C 14.639,196.657 2.702,153.933 2.674,125.604 v 0 -8.168 C 2.702,89.108 14.639,46.383 33.152,23.877 v 0 c 0.824,-0.989 2.062,-1.426 3.282,-1.428 v 0 c 9.027,0 37.33,0.079 37.328,0.079 v 0 c 4.354,-0.002 8.27,-1.76 11.232,-4.542 v 0 c 0.527,-0.485 2.458,-2.862 4.68,-5.552 v 0 c 2.241,-2.711 4.852,-5.81 7.025,-8.011 v 0 c 1.745,-1.751 4.68,-3.011 8.168,-3.02 v 0 H 479.26 c 3.488,0.008 6.423,1.268 8.17,3.02 v 0 c 2.173,2.201 4.782,5.299 7.023,8.011 v 0 c 2.222,2.69 4.152,5.067 4.68,5.552 v 0 c 2.96,2.782 6.878,4.54 11.232,4.542 v 0 c 0,0 28.303,-0.079 37.33,-0.079 v 0 c 1.218,0.002 2.456,0.438 3.279,1.428 v 0 c 18.516,22.505 30.45,65.23 30.48,93.559 v 0 8.168 c -0.03,28.328 -11.965,71.053 -30.48,93.558 v 0 c -0.823,0.992 -2.062,1.427 -3.279,1.427 v 0 c -9.027,0 -37.33,-0.077 -37.328,-0.077 v 0 c -4.356,0 -8.274,1.76 -11.234,4.542 v 0 c -0.527,0.482 -2.458,2.859 -4.68,5.552 v 0 c -2.241,2.712 -4.851,5.808 -7.025,8.009 v 0 c -1.745,1.751 -4.68,3.011 -8.168,3.02 v 0 z m 374.393,-2 c 2.99,0.006 5.477,-1.131 6.747,-2.425 v 0 c 2.081,-2.106 4.678,-5.182 6.905,-7.878 v 0 c 2.252,-2.716 4.057,-4.978 4.851,-5.735 v 0 c 3.292,-3.097 7.701,-5.084 12.607,-5.084 v 0 c 0.038,0 28.304,0.078 37.325,0.078 v 0 c 0.751,0 1.4,-0.28 1.736,-0.7 v 0 c 18.073,-21.86 30.05,-64.494 30.021,-92.285 v 0 -8.168 C 579.481,89.646 567.505,47.013 549.431,25.152 v 0 c -0.336,-0.419 -0.985,-0.703 -1.736,-0.7 v 0 c -9.021,0 -37.287,0.077 -37.328,0.077 v 0 c -4.903,0.002 -9.313,-1.986 -12.604,-5.082 v 0 c -0.794,-0.758 -2.599,-3.02 -4.851,-5.735 v 0 c -2.228,-2.697 -4.824,-5.774 -6.905,-7.879 v 0 C 484.736,4.537 482.25,3.401 479.26,3.407 v 0 H 104.867 c -2.99,-0.006 -5.476,1.13 -6.744,2.426 v 0 c -2.083,2.105 -4.68,5.182 -6.908,7.879 v 0 c -2.251,2.715 -4.056,4.978 -4.85,5.735 v 0 c -3.292,3.096 -7.702,5.084 -12.607,5.082 v 0 c -0.036,0 -28.303,-0.077 -37.324,-0.077 v 0 c -0.751,-0.002 -1.4,0.281 -1.739,0.7 v 0 C 16.625,47.012 4.647,89.646 4.675,117.438 v 0 8.168 c -0.028,27.791 11.95,70.425 30.02,92.285 v 0 c 0.336,0.42 0.985,0.7 1.739,0.698 v 0 c 9.021,0.002 37.288,-0.076 37.328,-0.076 v 0 c 4.903,0 9.311,1.987 12.603,5.084 v 0 c 0.794,0.758 2.599,3.02 4.85,5.735 v 0 c 2.229,2.696 4.825,5.771 6.908,7.878 v 0 c 1.266,1.294 3.754,2.431 6.744,2.425 v 0 z"
   id="path1823" />
<path
   fill="#f4f4f4"
   d="m 120.614,236.96 v -0.002 -0.998 -1.001 h 17.356 c 4.24,-0.007 7.671,-3.438 7.68,-7.68 v 0 c -0.008,-4.241 -3.439,-7.672 -7.68,-7.678 v 0 l -17.356,-0.002 c -4.243,0.008 -7.674,3.438 -7.68,7.68 v 0 c 0.006,4.242 3.437,7.673 7.68,7.68 v 0 1.001 0.998 c -5.347,0 -9.679,-4.332 -9.679,-9.679 v 0 c 0,-5.345 4.333,-9.68 9.679,-9.68 v 0 h 17.356 c 5.347,0 9.679,4.335 9.681,9.68 v 0 c -0.002,5.347 -4.334,9.679 -9.681,9.681 v 0 z"
   id="path1825" />
<path
   fill="#f4f4f4"
   d="m 445.656,236.958 v -0.998 -1 h 17.359 c 4.239,-0.009 7.673,-3.439 7.681,-7.681 v 0 c -0.008,-4.239 -3.441,-7.671 -7.681,-7.679 v 0 h -17.359 c -4.237,0.008 -7.67,3.439 -7.677,7.679 v 0 c 0.007,4.241 3.439,7.672 7.677,7.681 v 0 1 0.998 c -5.345,0 -9.677,-4.332 -9.677,-9.679 v 0 c 0,-5.345 4.332,-9.679 9.677,-9.679 v 0 h 17.359 c 5.345,0 9.679,4.332 9.681,9.679 v 0 c -0.002,5.347 -4.336,9.679 -9.681,9.679 v 0 z"
   id="path1827" />
<path
   fill="#f4f4f4"
   d="m 407.256,236.959 v -1 -1.002 l 17.357,0.003 c 4.238,-0.009 7.671,-3.44 7.679,-7.68 v 0 c -0.008,-4.241 -3.44,-7.673 -7.679,-7.679 v 0 h -17.357 c -4.243,0.006 -7.673,3.438 -7.681,7.679 v 0 c 0.008,4.241 3.438,7.671 7.681,7.677 v 0 1.002 1 c -5.348,0 -9.681,-4.333 -9.681,-9.679 v 0 c 0,-5.347 4.333,-9.68 9.681,-9.68 v 0 h 17.357 c 5.345,0 9.678,4.333 9.68,9.68 v 0 c -0.002,5.346 -4.335,9.679 -9.68,9.679 v 0 z"
   id="path1829" />
</svg>
