<?xml version="1.0" encoding="UTF-8" standalone="no"?>
<!-- Generator: Adobe Illustrator 13.0.0, SVG Export Plug-In . SVG Version: 6.00 Build 14948)  -->

<svg
   version="1.2"
   id="Layer_3"
   x="0px"
   y="0px"
   width="504.189"
   height="330.26001"
   viewBox="0 0 504.18897 330.26"
   xml:space="preserve"
   sodipodi:docname="psx.svg"
   inkscape:version="1.2.2 (732a01da63, 2022-12-09)"
   xmlns:inkscape="http://www.inkscape.org/namespaces/inkscape"
   xmlns:sodipodi="http://sodipodi.sourceforge.net/DTD/sodipodi-0.dtd"
   xmlns="http://www.w3.org/2000/svg"
   xmlns:svg="http://www.w3.org/2000/svg"
   xmlns:rdf="http://www.w3.org/1999/02/22-rdf-syntax-ns#"
   xmlns:cc="http://creativecommons.org/ns#"
   xmlns:dc="http://purl.org/dc/elements/1.1/"
   xmlns:ns="&amp;ns_sfw;"><defs
   id="defs2276" /><sodipodi:namedview
   id="namedview2274"
   pagecolor="#000000"
   bordercolor="#111111"
   borderopacity="1"
   inkscape:showpageshadow="0"
   inkscape:pageopacity="0"
   inkscape:pagecheckerboard="1"
   inkscape:deskcolor="#d1d1d1"
   showgrid="false"
   inkscape:zoom="2.0445042"
   inkscape:cx="299.58363"
   inkscape:cy="175.10357"
   inkscape:window-width="1920"
   inkscape:window-height="1009"
   inkscape:window-x="-8"
   inkscape:window-y="-8"
   inkscape:window-maximized="1"
   inkscape:current-layer="Layer_3" />
<metadata
   id="metadata55">
	<rdf:RDF>
		<cc:Work
   rdf:about="">
			<dc:format>image/svg+xml</dc:format>
			<dc:type
   rdf:resource="http://purl.org/dc/dcmitype/StillImage" />
			
		</cc:Work>
	</rdf:RDF>
	<ns:sfw>
		<ns:slices />
		<ns:sliceSourceBounds
   x="-7231"
   y="-7652"
   width="16383"
   height="16383"
   bottomLeftOrigin="true" />
	</ns:sfw>
</metadata>
<path
   id="circle3"
   fill="#f4f4f4"
   d="m 98.177,32.312 c -48.809,0 -88.395,39.583 -88.395,88.394 0,48.808 39.584,88.395 88.395,88.395 48.809,0 88.395,-39.583 88.395,-88.395 C 186.564,71.899 146.985,32.312 98.177,32.312 Z m 0,1.713 c 47.882,0 86.681,38.795 86.681,86.68 0,47.882 -38.795,86.681 -86.681,86.681 -47.883,0 -86.681,-38.799 -86.681,-86.681 0,-47.88 38.797,-86.68 86.681,-86.68 z" />
<path
   id="path5"
   fill="#f4f4f4"
   d="m 98.177,2.776 c -14.385,0 -27.405,3.786 -37.755,9.345 -1.877,1.009 -3.052,3.353 -4.097,6.32 -1.045,2.968 -1.875,6.625 -2.544,10.309 -1.336,7.369 -2.094,15.019 -2.57,17.218 l 1.685,0.375 c 0.564,-2.604 1.251,-10.025 2.571,-17.299 0.66,-3.637 1.471,-7.198 2.463,-10.015 0.992,-2.816 2.248,-4.833 3.321,-5.409 10.108,-5.429 22.841,-9.131 36.925,-9.131 14.19,0 27.281,3.327 37.113,9.238 1.636,0.983 3.057,3.295 4.124,6.346 1.067,3.051 1.792,6.798 2.302,10.47 0.51,3.671 0.803,7.274 0.991,10.122 0.094,1.424 0.153,2.656 0.214,3.615 0.062,0.959 0.098,1.589 0.187,2.035 l 1.688,-0.347 c -0.031,-0.154 -0.1,-0.848 -0.161,-1.794 -0.061,-0.948 -0.12,-2.182 -0.214,-3.615 -0.19,-2.866 -0.499,-6.519 -1.018,-10.256 -0.519,-3.736 -1.254,-7.563 -2.383,-10.791 -1.129,-3.229 -2.606,-5.91 -4.847,-7.257 C 126.009,6.146 112.634,2.778 98.178,2.778 Z" />
<path
   id="path7"
   fill="#f4f4f4"
   d="M 98.177,0.5 C 89.24,0.5 81.104,1.668 74.853,3.606 H 74.826 74.8 C 73.471,4.072 72.635,4.97 72.149,5.774 71.906,6.176 71.75,6.569 71.64,6.872 71.53,7.175 71.456,7.453 71.452,7.461 l 1.634,0.536 c 0.057,-0.172 0.078,-0.309 0.161,-0.536 0.083,-0.228 0.205,-0.523 0.375,-0.803 0.333,-0.549 0.854,-1.1 1.714,-1.419 0.021,-0.009 0.032,-0.02 0.053,-0.027 6.026,-1.861 14.026,-2.999 22.788,-2.999 8.607,0 16.481,1.115 22.466,2.918 0.008,10e-4 0.02,-0.002 0.027,0 1.006,0.331 1.744,0.938 2.222,1.5 0.242,0.282 0.403,0.543 0.509,0.75 0.105,0.206 0.134,0.416 0.134,0.214 h 1.714 c 0,-0.442 -0.149,-0.655 -0.321,-0.991 -0.163,-0.336 -0.386,-0.714 -0.72,-1.098 -0.651,-0.768 -1.654,-1.566 -3.025,-2.008 h -0.026 C 114.96,1.628 106.949,0.5 98.183,0.5 Z" />
<path
   id="circle9"
   fill="#f4f4f4"
   d="m 404.269,32.312 c -48.809,0 -88.395,39.583 -88.395,88.394 0,48.808 39.584,88.395 88.395,88.395 48.809,0 88.395,-39.583 88.395,-88.395 -0.009,-48.807 -39.588,-88.394 -88.395,-88.394 z m 0,1.713 c 47.883,0 86.681,38.795 86.681,86.68 0,47.882 -38.795,86.681 -86.681,86.681 -47.883,0 -86.681,-38.795 -86.681,-86.681 0,-47.881 38.796,-86.68 86.681,-86.68 z" />
<path
   id="path11"
   fill="#f4f4f4"
   d="m 9.812,110.205 c -0.96,14.776 -3.274,52.669 -5.355,87.932 -1.041,17.635 -2.038,34.618 -2.758,47.72 -0.721,13.11 -1.178,22.271 -1.178,24.532 0,31.678 25.706,57.384 57.383,57.384 10.802,0 18.655,-2.999 24.93,-8.221 6.274,-5.222 10.974,-12.604 15.691,-21.396 8.933,-16.649 19.282,-36.637 28.357,-53.821 9.074,-17.185 16.917,-31.636 20.671,-37.033 3.798,-5.459 7.15,-8.669 11.247,-10.631 4.097,-1.962 9.012,-2.679 15.933,-2.919 13.863,-0.478 46.765,0 57.838,0 h 37.301 c 11.072,0 43.977,-0.478 57.839,0 6.921,0.24 11.836,0.957 15.933,2.919 4.097,1.963 7.476,5.173 11.273,10.631 3.754,5.396 11.569,19.848 20.645,37.033 9.076,17.185 19.449,37.172 28.384,53.821 4.718,8.792 9.391,16.174 15.665,21.396 6.274,5.222 14.128,8.221 24.93,8.221 31.678,0 57.384,-25.705 57.384,-57.384 0,-2.264 -0.457,-11.421 -1.179,-24.527 -0.72,-13.106 -1.689,-30.085 -2.73,-47.718 -2.082,-35.266 -4.422,-73.161 -5.383,-87.933 l -1.713,0.134 c 0.96,14.765 3.3,52.646 5.382,87.907 1.04,17.632 2.011,34.614 2.731,47.717 0.72,13.103 1.178,22.403 1.178,24.421 0,30.752 -24.918,55.67 -55.67,55.67 -10.489,0 -17.847,-2.84 -23.832,-7.819 -5.983,-4.979 -10.579,-12.186 -15.261,-20.911 -8.926,-16.634 -19.278,-36.576 -28.358,-53.77 -9.079,-17.194 -16.849,-31.57 -20.779,-37.222 -3.889,-5.589 -7.486,-9.098 -11.915,-11.219 -4.431,-2.122 -9.619,-2.838 -16.629,-3.08 -13.994,-0.482 -46.869,0 -57.893,0 h -37.3 c -11.023,0 -43.896,-0.482 -57.892,0 -7.009,0.242 -12.199,0.958 -16.628,3.08 -4.43,2.121 -8.027,5.63 -11.916,11.219 -3.931,5.651 -11.7,20.026 -20.779,37.222 -9.08,17.193 -19.434,37.137 -28.357,53.77 -4.683,8.726 -9.279,15.933 -15.263,20.911 -5.984,4.979 -13.342,7.819 -23.832,7.819 -30.74,0 -55.658,-24.918 -55.658,-55.671 0,-2.019 0.458,-11.318 1.178,-24.421 0.72,-13.102 1.69,-30.085 2.731,-47.717 2.081,-35.264 4.422,-73.145 5.382,-87.907 L 9.826,110.21 Z" />
<path
   id="path13"
   fill="#f4f4f4"
   d="m 404.269,2.776 c -14.456,0 -27.806,3.369 -37.969,9.479 -2.243,1.347 -3.745,4.028 -4.875,7.256 -1.128,3.229 -1.862,7.055 -2.383,10.792 -0.519,3.737 -0.828,7.389 -1.017,10.256 -0.095,1.433 -0.153,2.667 -0.215,3.615 -0.061,0.946 -0.129,1.64 -0.16,1.794 l 1.687,0.348 c 0.09,-0.447 0.127,-1.077 0.188,-2.035 0.063,-0.959 0.121,-2.192 0.215,-3.615 0.188,-2.848 0.48,-6.451 0.99,-10.122 0.511,-3.671 1.236,-7.418 2.303,-10.47 1.066,-3.052 2.488,-5.363 4.124,-6.346 9.833,-5.911 22.923,-9.238 37.113,-9.238 14.083,0 26.843,3.702 36.952,9.131 1.072,0.576 2.303,2.593 3.293,5.409 0.992,2.816 1.805,6.378 2.465,10.015 1.317,7.273 2.005,14.695 2.57,17.299 l 1.679,-0.377 c -0.477,-2.199 -1.234,-9.849 -2.57,-17.218 -0.668,-3.685 -1.472,-7.341 -2.517,-10.309 -1.046,-2.968 -2.247,-5.312 -4.124,-6.32 C 431.667,6.561 418.651,2.776 404.264,2.776 Z" />
<path
   id="path15"
   fill="#f4f4f4"
   d="m 404.269,0.5 c -8.766,0 -16.777,1.128 -22.973,2.999 h -0.026 c -1.367,0.442 -2.371,1.24 -3.025,2.008 -0.327,0.383 -0.551,0.762 -0.724,1.098 -0.172,0.336 -0.321,0.549 -0.321,0.99 h 1.714 c 0,0.202 0.028,-0.009 0.134,-0.214 0.105,-0.206 0.269,-0.466 0.509,-0.75 0.479,-0.561 1.217,-1.168 2.223,-1.5 0.007,-0.002 0.019,0.002 0.027,0 5.98,-1.803 13.854,-2.918 22.467,-2.918 8.762,0 16.763,1.138 22.788,2.999 0.017,0.005 0.035,0.021 0.053,0.027 0.861,0.319 1.382,0.87 1.714,1.418 0.17,0.281 0.292,0.576 0.375,0.803 0.083,0.227 0.103,0.362 0.161,0.535 l 1.636,-0.562 C 430.999,7.426 430.925,7.174 430.814,6.87 430.703,6.567 430.547,6.174 430.298,5.772 429.81,4.967 428.98,4.069 427.652,3.604 h -0.027 C 421.37,1.666 413.213,0.498 404.275,0.498 h -0.006 z" />
<path
   id="line17"
   fill="#f4f4f4"
   d="m 159.572,57.054 v 1.714 h 183.722 v -1.714 z" />
<path
   id="path19"
   fill="#f4f4f4"
   d="m 76.406,51.136 c -2.055,0 -3.749,1.695 -3.749,3.749 v 37.969 l -0.134,0.161 H 34.526 c -2.054,0 -3.722,1.667 -3.722,3.722 v 43.567 c 0,2.056 1.668,3.722 3.722,3.722 h 38.078 l 0.054,0.054 v 38.077 c 0,2.056 1.694,3.748 3.749,3.748 h 43.539 c 2.055,0 3.749,-1.692 3.749,-3.748 v -38.023 l 0.08,-0.107 h 38.05 c 2.054,0 3.749,-1.667 3.749,-3.722 V 96.739 c 0,-2.054 -1.695,-3.722 -3.749,-3.722 h -38.023 l -0.107,-0.134 V 54.885 c 0,-2.055 -1.695,-3.749 -3.749,-3.749 z m 0,1.714 h 43.539 c 1.128,0 2.035,0.907 2.035,2.035 v 38.292 0.295 l 0.188,0.241 0.509,0.669 0.268,0.348 h 0.429 38.452 c 1.128,0 2.035,0.88 2.035,2.008 v 43.567 c 0,1.129 -0.907,2.008 -2.035,2.008 h -38.506 -0.455 l -0.241,0.375 -0.482,0.669 -0.161,0.214 v 0.294 38.292 c 0,1.128 -0.907,2.034 -2.035,2.034 H 76.407 c -1.128,0 -2.035,-0.906 -2.035,-2.034 v -38.426 -0.348 l -0.241,-0.241 -0.55,-0.548 -0.24,-0.266 H 72.993 34.539 c -1.127,0 -2.008,-0.879 -2.008,-2.008 V 96.754 c 0,-1.128 0.881,-2.009 2.008,-2.009 h 38.452 0.402 l 0.268,-0.348 0.563,-0.724 0.161,-0.214 V 93.164 54.902 c 0,-1.128 0.907,-2.035 2.035,-2.035 z" />
<path
   id="path21"
   fill="#f4f4f4"
   d="m 384.45,48.807 c -2.09,0 -3.803,1.712 -3.803,3.802 v 38.826 l -0.134,0.161 h -38.827 c -2.091,0 -3.803,1.714 -3.803,3.803 v 44.477 c 0,2.089 1.714,3.802 3.803,3.802 h 38.881 l 0.08,0.053 v 38.935 c 0,2.089 1.714,3.802 3.803,3.802 h 44.504 c 2.09,0 3.802,-1.714 3.802,-3.802 v -38.88 l 0.08,-0.107 h 38.882 c 2.09,0 3.802,-1.713 3.802,-3.802 V 95.401 c 0,-2.09 -1.713,-3.802 -3.802,-3.802 h -38.854 l -0.107,-0.134 V 52.608 c 0,-2.089 -1.714,-3.803 -3.802,-3.803 z m 0,1.714 h 44.504 c 1.162,0 2.088,0.925 2.088,2.088 v 39.148 0.294 l 0.188,0.214 0.509,0.696 0.269,0.349 h 0.428 39.283 c 1.162,0 2.088,0.925 2.088,2.088 v 44.477 c 0,1.163 -0.925,2.089 -2.088,2.089 h -39.337 -0.428 l -0.269,0.375 -0.481,0.696 -0.161,0.214 v 0.268 39.148 c 0,1.161 -0.925,2.088 -2.088,2.088 H 384.45 c -1.162,0 -2.089,-0.927 -2.089,-2.088 v -39.255 -0.375 l -0.24,-0.241 -0.563,-0.563 -0.269,-0.268 h -0.348 -39.256 c -1.162,0 -2.089,-0.926 -2.089,-2.089 V 95.397 c 0,-1.162 0.927,-2.088 2.089,-2.088 h 39.256 0.428 l 0.241,-0.348 0.59,-0.723 0.16,-0.241 V 91.703 52.61 c 10e-4,-1.163 0.926,-2.089 2.09,-2.089 z" />
<path
   id="path23"
   fill="#f4f4f4"
   d="m 86.498,70.978 c -3.644,0 -6.611,2.993 -6.611,6.641 v 14.405 c 0,1.175 0.291,2.281 0.831,3.24 l 0.053,0.081 0.081,0.08 11.407,12.049 0.026,0.054 0.027,-0.026 c 1.389,1.716 3.487,2.838 5.864,2.838 2.428,0 4.585,-1.188 5.971,-2.972 l 0.027,0.027 0.054,-0.081 11.407,-12.077 0.081,-0.08 0.053,-0.134 c 0.464,-0.904 0.723,-1.916 0.723,-2.999 V 77.618 c 0,-3.648 -2.968,-6.641 -6.614,-6.641 H 86.502 Z m 0,1.714 h 23.376 c 2.721,0 4.9,2.206 4.9,4.927 v 14.405 c 0,0.788 -0.182,1.512 -0.508,2.169 l -11.354,12.022 -0.027,0.027 -0.027,0.054 c -1.072,1.415 -2.769,2.33 -4.686,2.33 -1.866,0 -3.502,-0.872 -4.579,-2.222 L 93.566,106.377 93.539,106.35 82.186,94.38 c -0.383,-0.699 -0.59,-1.501 -0.59,-2.356 L 81.59,77.62 c 0,-2.721 2.18,-4.927 4.9,-4.927 z" />
<path
   id="polygon25"
   fill="#f4f4f4"
   d="m 98.177,57.349 -0.589,0.616 -6.881,6.854 -1.446,1.473 h 2.061 13.737 2.062 l -1.473,-1.473 -6.855,-6.854 z m 0.026,2.436 4.793,4.793 h -9.613 l 4.824,-4.793 z" />
<path
   id="path27"
   fill="#f4f4f4"
   d="m 57.288,100.223 c -3.646,0 -6.641,2.966 -6.641,6.614 v 23.375 c 0,3.647 2.995,6.615 6.641,6.615 h 14.406 c 1.174,0 2.281,-0.316 3.24,-0.856 l 0.08,-0.027 0.08,-0.081 12.05,-11.407 c 0.02,-0.016 0.034,-0.038 0.053,-0.054 1.71,-1.39 2.785,-3.52 2.785,-5.891 0,-2.428 -1.162,-4.558 -2.945,-5.945 l 0.034,-0.042 -0.08,-0.054 -12.077,-11.407 -0.107,-0.081 -0.107,-0.053 c -0.903,-0.462 -1.915,-0.723 -2.999,-0.723 H 57.295 Z m 0,1.714 h 14.406 c 0.798,0 1.532,0.2 2.196,0.535 0.007,0.004 0.019,-0.004 0.026,0 l 11.97,11.3 0.027,0.053 0.053,0.027 c 1.415,1.072 2.303,2.743 2.303,4.66 0,1.866 -0.844,3.529 -2.195,4.605 l -0.027,0.027 -0.027,0.027 -11.996,11.354 c -0.698,0.382 -1.474,0.589 -2.33,0.589 H 57.288 c -2.72,0 -4.927,-2.18 -4.927,-4.9 v -23.376 c 0,-2.722 2.206,-4.901 4.927,-4.901 z" />
<path
   id="polygon29"
   fill="#f4f4f4"
   d="m 45.934,109.588 -1.447,1.448 -6.881,6.881 -0.589,0.589 0.589,0.616 6.881,6.855 1.446,1.473 v -2.062 -13.737 -2.062 z m -1.714,4.151 v 9.56 l -3.319,-6.212 4.766,-4.79 z" />
<path
   id="path31"
   fill="#f4f4f4"
   d="m 98.177,126.7 c -2.428,0 -4.584,1.163 -5.971,2.945 -0.016,0.02 -0.038,0.034 -0.054,0.054 l -11.406,12.104 -0.08,0.08 -0.054,0.107 c -0.465,0.905 -0.723,1.942 -0.723,3.026 v 14.406 c 0,3.646 2.967,6.615 6.614,6.615 h 23.376 c 3.646,0 6.614,-2.968 6.614,-6.615 v -14.406 c 0,-1.175 -0.317,-2.281 -0.856,-3.24 l -0.054,-0.107 -0.053,-0.054 -11.407,-12.049 c -0.016,-0.02 -0.038,-0.034 -0.053,-0.054 -1.39,-1.71 -3.521,-2.811 -5.893,-2.812 z m 0,1.714 c 1.867,0 3.531,0.872 4.605,2.222 l 0.027,0.027 0.027,0.027 11.354,12.022 c 0.367,0.688 0.589,1.465 0.589,2.303 v 14.405 c 0,2.721 -2.18,4.9 -4.9,4.9 H 86.503 c -2.721,0 -4.9,-2.179 -4.9,-4.9 v -14.405 c 0,-0.789 0.181,-1.539 0.509,-2.196 l 11.327,-11.996 0.027,-0.053 0.034,-0.026 c 1.072,-1.415 2.77,-2.33 4.687,-2.33 z" />
<path
   id="polygon33"
   fill="#f4f4f4"
   d="m 89.257,170.752 1.446,1.473 6.881,6.855 0.589,0.615 0.616,-0.615 6.855,-6.855 1.473,-1.473 H 105.055 91.32 Z m 4.124,1.713 h 9.613 l -4.793,4.821 z" />
<path
   id="path35"
   fill="#f4f4f4"
   d="m 124.689,100.223 c -1.175,0 -2.281,0.29 -3.24,0.83 l -0.107,0.053 -0.08,0.08 -12.023,11.407 -0.053,0.054 c -1.709,1.389 -2.812,3.493 -2.812,5.864 0,2.435 1.154,4.611 2.946,5.998 l 0.053,0.026 12.104,11.434 0.08,0.081 0.107,0.053 c 0.905,0.464 1.942,0.723 3.026,0.723 h 14.405 c 3.646,0 6.614,-2.966 6.614,-6.614 v -23.376 c 0,-3.646 -2.967,-6.614 -6.614,-6.614 z m 0,1.714 h 14.405 c 2.72,0 4.9,2.18 4.9,4.9 v 23.375 c 0,2.722 -2.18,4.901 -4.9,4.901 h -14.405 c -0.77,0 -1.498,-0.196 -2.143,-0.509 l -12.049,-11.354 -0.053,-0.027 -0.027,-0.026 c -1.415,-1.074 -2.329,-2.771 -2.329,-4.686 0,-1.867 0.872,-3.504 2.222,-4.58 l 0.027,-0.027 0.027,-0.026 11.916,-11.328 h 0.027 c 0.705,-0.391 1.514,-0.614 2.382,-0.613 z" />
<path
   id="polygon37"
   fill="#f4f4f4"
   d="m 150.421,109.588 v 2.062 13.736 2.062 l 1.473,-1.473 6.855,-6.855 0.616,-0.616 -0.616,-0.589 -6.855,-6.881 z m 1.713,4.124 4.82,4.82 -4.82,4.793 z" />
<path
   id="path39"
   fill="#f4f4f4"
   d="m 209.673,142.715 c -2.32,0 -4.204,1.911 -4.204,4.23 v 12.157 c 0,2.321 1.884,4.23 4.204,4.23 h 20.512 c 2.017,0 3.633,-1.475 4.043,-3.374 h 0.161 v -0.857 -12.157 c 0,-2.319 -1.884,-4.23 -4.204,-4.23 h -20.512 z m 0,1.714 h 20.512 c 1.395,0 2.49,1.125 2.49,2.517 v 11.3 0.857 c 0,1.395 -1.096,2.517 -2.49,2.517 h -20.512 c -1.394,0 -2.491,-1.122 -2.491,-2.517 v -12.157 c 0.001,-1.393 1.097,-2.517 2.491,-2.517 z" />
<path
   id="path41"
   fill="#f4f4f4"
   d="m 276.697,142.715 c -2.188,0 -3.989,1.802 -3.989,3.989 v 12.8 c 0,2.188 1.804,3.99 3.989,3.99 0.567,0 1.093,-0.162 1.581,-0.375 v 0.027 l 0.134,-0.054 21.931,-6.721 0.08,-0.026 0.054,-0.054 c 1.26,-0.668 2.115,-1.99 2.115,-3.507 0,-1.486 -0.817,-2.8 -2.035,-3.481 l -0.08,-0.053 -0.107,-0.027 -22.306,-6.266 c -0.026,-0.009 -0.054,-0.018 -0.08,-0.026 -0.406,-0.14 -0.838,-0.216 -1.287,-0.216 z m 0,1.714 c 0.276,0 0.534,0.045 0.776,0.134 l 0.027,0.026 h 0.026 l 22.253,6.239 c 0.665,0.395 1.098,1.118 1.098,1.955 0,0.847 -0.473,1.564 -1.152,1.954 l -21.957,6.775 h -0.054 l -0.053,0.026 c -0.298,0.143 -0.612,0.242 -0.965,0.242 -1.26,0 -2.275,-1.014 -2.275,-2.276 v -12.8 c 0.001,-1.261 1.017,-2.276 2.276,-2.275 z" />
<path
   id="circle43"
   fill="#f4f4f4"
   d="m 363.833,95.287 c -12.334,0 -22.359,10.025 -22.359,22.36 0,12.333 10.025,22.331 22.359,22.331 12.334,0 22.358,-9.998 22.358,-22.331 0,-12.334 -10.024,-22.36 -22.358,-22.36 z m 0,1.713 c 11.409,0 20.645,9.237 20.645,20.646 0,11.408 -9.235,20.618 -20.645,20.618 -11.408,0 -20.646,-9.21 -20.646,-20.618 C 343.188,106.238 352.425,97 363.833,97 Z" />
<path
   id="circle45"
   fill="#f4f4f4"
   d="m 406.702,138.165 c -12.334,0 -22.359,10.025 -22.359,22.36 0,12.335 10.025,22.359 22.359,22.359 12.334,0 22.359,-10.024 22.359,-22.359 0,-12.335 -10.025,-22.36 -22.359,-22.36 z m 0,1.713 c 11.408,0 20.646,9.237 20.646,20.646 0,11.407 -9.237,20.646 -20.646,20.646 -11.409,0 -20.646,-9.238 -20.646,-20.646 0.001,-11.408 9.238,-20.646 20.646,-20.646 z" />
<path
   id="circle47"
   fill="#f4f4f4"
   d="m 449.572,95.287 c -12.331,0 -22.331,10.026 -22.331,22.365 0,12.334 9.999,22.332 22.332,22.332 12.334,0 22.359,-9.998 22.359,-22.332 0,-12.334 -10.024,-22.359 -22.359,-22.359 z m 0,1.713 c 11.407,0 20.645,9.237 20.645,20.646 0,11.408 -9.237,20.618 -20.645,20.618 -11.409,0 -20.618,-9.21 -20.618,-20.618 0,-11.408 9.21,-20.646 20.618,-20.646 z" />
<path
   id="circle49"
   fill="#f4f4f4"
   d="m 406.702,52.394 c -12.334,0 -22.359,10.024 -22.359,22.359 0,12.334 10.025,22.359 22.359,22.359 12.334,0 22.359,-10.024 22.359,-22.359 0.001,-12.335 -10.025,-22.359 -22.359,-22.359 z m 0,1.714 c 11.408,0 20.646,9.237 20.646,20.645 0,11.409 -9.237,20.646 -20.646,20.646 -11.409,0 -20.646,-9.237 -20.646,-20.646 0.001,-11.408 9.238,-20.645 20.646,-20.645 z" />
<path
   id="line51"
   fill="#f4f4f4"
   d="m 174.362,181.942 v 1.714 h 153.731 v -1.714 z" />
</svg>
