<?xml version="1.0" encoding="UTF-8" standalone="no"?>
<!-- Generator: Adobe Illustrator 13.0.0, SVG Export Plug-In . SVG Version: 6.00 Build 14948)  -->

<svg
   version="1.2"
   id="Layer_3"
   x="0px"
   y="0px"
   width="592.18903"
   height="331.26001"
   viewBox="0 0 592.189 331.26"
   xml:space="preserve"
   sodipodi:docname="saturnjp.svg"
   inkscape:version="1.2.2 (732a01da63, 2022-12-09)"
   xmlns:inkscape="http://www.inkscape.org/namespaces/inkscape"
   xmlns:sodipodi="http://sodipodi.sourceforge.net/DTD/sodipodi-0.dtd"
   xmlns="http://www.w3.org/2000/svg"
   xmlns:svg="http://www.w3.org/2000/svg"
   xmlns:rdf="http://www.w3.org/1999/02/22-rdf-syntax-ns#"
   xmlns:cc="http://creativecommons.org/ns#"
   xmlns:dc="http://purl.org/dc/elements/1.1/"
   xmlns:ns="&amp;ns_sfw;"><defs
   id="defs27" /><sodipodi:namedview
   id="namedview25"
   pagecolor="#000000"
   bordercolor="#111111"
   borderopacity="1"
   inkscape:showpageshadow="0"
   inkscape:pageopacity="0"
   inkscape:pagecheckerboard="1"
   inkscape:deskcolor="#d1d1d1"
   showgrid="false"
   inkscape:zoom="2.0445042"
   inkscape:cx="299.58363"
   inkscape:cy="175.10357"
   inkscape:window-width="1920"
   inkscape:window-height="1009"
   inkscape:window-x="-8"
   inkscape:window-y="-8"
   inkscape:window-maximized="1"
   inkscape:current-layer="Layer_3" />
<metadata
   id="metadata55">
	<rdf:RDF>
		<cc:Work
   rdf:about="">
			<dc:format>image/svg+xml</dc:format>
			<dc:type
   rdf:resource="http://purl.org/dc/dcmitype/StillImage" />
			
		</cc:Work>
	</rdf:RDF>
	<ns:sfw>
		<ns:slices />
		<ns:sliceSourceBounds
   x="-7231"
   y="-7652"
   width="16383"
   height="16383"
   bottomLeftOrigin="true" />
	</ns:sfw>
</metadata>
<path
   id="path3"
   fill="#f4f4f4"
   d="m 177.554,2.949 c -17.037,0.789 -61.16,4.455 -89.405,44.125 l 1.625,1.156 c 27.71,-38.916 70.96,-42.498 87.88,-43.281 l -0.094,-2 z" />
<path
   id="path5"
   fill="#f4f4f4"
   d="m 291.243,28.574 c -44.134,0 -91.349,3.159 -132.379,13.031 -41.026,9.872 -75.901,26.427 -95.218,53.375 -20.514,28.619 -31.714,57.876 -32.281,84.875 -0.567,26.997 9.536,51.731 31.469,71.124 22.496,19.891 40.432,27.779 54.78,32.375 14.349,4.596 24.973,5.945 33.188,12.562 l 1.28,-1.56 c -8.76,-7.061 -19.689,-8.37 -33.87,-12.91 -14.18,-4.54 -31.732,-12.25 -54.03,-31.97 -21.531,-19.03 -31.369,-43.109 -30.813,-69.589 0.557,-26.47 11.568,-55.34 31.906,-83.718 18.877,-26.333 53.278,-42.779 94.067,-52.592 40.78,-9.813 87.867,-13 131.909,-13 h 9.688 c 44.037,0 91.124,3.187 131.909,13 40.78,9.813 75.217,26.26 94.093,52.593 20.339,28.374 31.35,57.244 31.905,83.719 0.557,26.475 -9.281,50.557 -30.812,69.594 -22.319,19.719 -39.899,27.43 -54.079,31.969 -14.18,4.54 -25.08,5.85 -33.84,12.91 l 1.25,1.563 c 8.214,-6.617 18.869,-7.967 33.219,-12.563 14.349,-4.595 32.254,-12.483 54.749,-32.374 21.933,-19.394 32.068,-44.126 31.5,-71.124 -0.567,-26.998 -11.767,-56.256 -32.28,-84.875 C 509.238,68.042 474.329,51.486 433.303,41.614 392.278,31.741 345.065,28.583 300.925,28.583 h -9.688 z" />
<path
   id="path7"
   fill="#f4f4f4"
   d="M 201.494,1.386 C 190.339,1.119 173.991,2.639 156.119,7.574 132.29,14.154 105.841,26.844 85.869,49.668 46.116,95.097 4.525,172.416 2.148,228.516 v 0.031 c -2.359,55.866 17.659,82.522 39.438,94.249 16.199,8.724 36.669,7.123 55.656,1.531 18.987,-5.592 36.52,-15.222 47,-22.844 20.74,-15.09 80.069,-57.789 139.469,-57.789 h 24.781 c 59.403,0 118.698,42.696 139.438,57.779 10.479,7.623 28.013,17.252 46.999,22.845 18.987,5.592 39.489,7.191 55.688,-1.531 21.783,-11.729 41.776,-38.393 39.406,-94.28 C 587.643,172.417 546.073,95.098 506.334,49.669 486.355,26.846 459.874,14.155 436.045,7.576 412.225,0.997 391.105,0.471 381.396,2.17 c -19.101,3.343 -45.79,15.094 -81.88,15.094 h -6.875 c -36.09,0 -62.743,-11.752 -81.843,-15.094 -2.428,-0.425 -5.595,-0.692 -9.313,-0.781 z m 0,2 c 3.631,0.083 6.682,0.35 8.969,0.75 18.621,3.258 45.664,15.125 82.187,15.125 h 6.875 c 36.522,0 63.597,-11.866 82.219,-15.125 9.148,-1.601 30.223,-1.161 53.78,5.344 23.559,6.505 49.677,19.059 69.312,41.5 39.461,45.102 80.849,122.408 83.187,177.588 2.349,55.389 -17.249,81.063 -38.374,92.438 -15.485,8.339 -35.414,6.886 -54.125,1.375 -18.71,-5.51 -36.14,-15.033 -46.405,-22.5 -20.751,-15.092 -80.265,-58.188 -140.618,-58.188 H 283.72 c -60.359,0 -119.869,43.096 -140.619,58.188 -10.267,7.467 -27.696,16.989 -46.406,22.5 -18.711,5.511 -38.669,6.965 -54.155,-1.375 C 21.409,309.626 1.812,283.957 4.16,228.567 6.499,173.387 47.916,96.079 87.377,50.969 107.011,28.529 133.101,15.975 156.661,9.469 174.33,4.591 190.61,3.128 201.5,3.375 Z" />
<path
   id="path9"
   fill="#f4f4f4"
   d="m 414.622,2.949 -0.094,2 c 16.911,0.783 60.166,4.365 87.874,43.281 l 1.625,-1.156 C 475.787,7.404 431.658,3.739 414.628,2.949 Z" />
<path
   id="path11"
   fill="#f4f4f4"
   d="m 262.243,50.26 c -2.083,0 -4.727,0.224 -7.313,1.5 -2.586,1.277 -5.081,3.636 -6.813,7.594 -3.385,7.735 -8.063,24.875 -8.063,24.875 l 1.938,0.531 c 0,0 4.751,-17.272 7.969,-24.625 1.569,-3.585 3.687,-5.481 5.875,-6.562 2.188,-1.081 4.481,-1.313 6.406,-1.313 h 29 9.688 28.999 c 1.926,0 4.25,0.232 6.438,1.313 2.188,1.081 4.275,2.977 5.844,6.562 3.218,7.354 7.969,24.625 7.969,24.625 l 1.938,-0.531 c 0,0 -4.678,-17.139 -8.063,-24.875 -1.731,-3.958 -4.227,-6.316 -6.813,-7.594 -2.585,-1.276 -5.229,-1.5 -7.313,-1.5 h -28.999 -9.688 z" />
<path
   id="ellipse13"
   fill="#f4f4f4"
   d="M 195.774,80.772 C 163.59,58.159 115.151,72.02 87.505,111.368 c -27.647,39.348 -24.269,89.617 7.914,112.229 32.184,22.613 80.647,8.771 108.299,-30.578 27.647,-39.347 24.244,-89.634 -7.939,-112.249 z m -1.15,1.637 c 31.094,21.848 34.596,70.832 7.453,109.459 -27.143,38.629 -74.416,51.938 -105.509,30.09 C 65.483,200.118 62.006,151.149 89.149,112.52 116.288,73.894 163.537,60.567 194.628,82.415 Z" />
<path
   id="circle15"
   fill="#f4f4f4"
   d="m 146.904,92.135 c -33.873,0 -61.375,27.471 -61.375,61.343 0,33.872 27.502,61.374 61.375,61.374 33.873,0 61.343,-27.502 61.343,-61.374 10e-4,-33.872 -27.47,-61.343 -61.343,-61.343 z m 0,2 c 32.792,0 59.343,26.552 59.343,59.343 0,32.792 -26.552,59.374 -59.343,59.374 -32.792,0 -59.375,-26.582 -59.375,-59.374 0.001,-32.791 26.583,-59.343 59.375,-59.343 z" />
<path
   id="path17"
   fill="#f4f4f4"
   d="m 144.554,100.51 c -2.105,0.09 -4.177,0.323 -6.219,0.656 -0.01,0.001 -0.021,-0.002 -0.031,0 v 0.031 c -0.613,0.091 -1.285,0.361 -1.688,0.906 -0.412,0.556 -0.562,1.248 -0.625,2.063 l -1.313,16.781 c -0.433,5.602 -2.213,9.627 -5.188,12.188 -2.974,2.56 -7.247,3.749 -12.906,3.313 l -16.422,-1.28 c -0.825,-0.063 -1.486,-0.096 -2.156,0.156 -0.67,0.252 -1.195,0.846 -1.469,1.5 v 0.063 0.031 c -1.301,3.967 -2.164,8.153 -2.5,12.5 -0.321,4.151 -0.169,8.208 0.438,12.156 v 0.031 c 0.271,1.478 1.688,2.692 3.656,2.844 l 16.312,1.25 c 5.46,0.422 9.459,2.272 12.031,5.375 2.572,3.102 3.76,7.557 3.313,13.344 l -1.188,15.5 c -0.076,0.989 -0.064,1.771 0.219,2.469 0.284,0.697 0.885,1.186 1.5,1.469 l 0.063,0.031 0.031,0.031 c 3.935,1.283 8.1,2.105 12.406,2.438 4.21,0.324 8.343,0.159 12.344,-0.469 h 0.031 l 0.031,-0.031 c 0.684,-0.15 1.376,-0.523 1.844,-1.156 0.468,-0.633 0.704,-1.438 0.781,-2.438 l 1.188,-15.438 c 0.438,-5.673 2.348,-9.914 5.344,-12.656 2.996,-2.743 7.138,-4.059 12.344,-3.656 l 16.688,1.281 c 0.912,0.07 1.664,0.089 2.406,-0.25 0.742,-0.339 1.24,-1.023 1.563,-1.844 l 0.031,-0.031 v -0.031 c 1.222,-3.836 2.021,-7.877 2.344,-12.062 0.325,-4.204 0.157,-8.318 -0.469,-12.312 V 145.2 l -0.031,-0.063 c -0.155,-0.574 -0.407,-1.188 -0.938,-1.688 -0.531,-0.5 -1.287,-0.806 -2.188,-0.875 l -17.219,-1.313 c -5.147,-0.397 -9.05,-2.253 -11.594,-5.25 -2.544,-2.997 -3.789,-7.206 -3.375,-12.562 l 1.25,-16.469 c 0.06,-0.778 0.169,-1.408 0,-2.125 -0.17,-0.717 -0.809,-1.401 -1.594,-1.688 l -0.031,-0.031 c -3.994,-1.32 -8.214,-2.161 -12.594,-2.5 -2.164,-0.167 -4.291,-0.216 -6.406,-0.125 z m 0.063,2 c 2.036,-0.087 4.104,-0.036 6.188,0.125 4.208,0.326 8.26,1.142 12.094,2.406 0.01,0.003 0.022,-0.003 0.031,0 0.305,0.109 0.27,0.07 0.313,0.25 0.045,0.192 0.03,0.742 -0.031,1.531 l -1.281,16.469 c -0.444,5.749 0.906,10.539 3.844,14 2.938,3.461 7.421,5.509 12.969,5.938 l 17.229,1.34 c 0.588,0.045 0.817,0.169 0.969,0.313 0.135,0.127 0.277,0.368 0.375,0.688 0.003,0.011 -0.003,0.02 0,0.031 0.598,3.833 0.75,7.774 0.438,11.812 -0.309,4.007 -1.054,7.892 -2.219,11.562 -0.007,0.021 -0.024,0.041 -0.031,0.063 -0.197,0.473 -0.334,0.611 -0.5,0.688 -0.179,0.082 -0.626,0.156 -1.438,0.094 l -16.688,-1.313 c -5.626,-0.436 -10.43,1.033 -13.875,4.188 -3.445,3.154 -5.502,7.928 -5.969,13.969 l -1.17,15.439 c -0.06,0.765 -0.241,1.184 -0.406,1.406 -0.165,0.224 -0.317,0.332 -0.656,0.406 -3.83,0.597 -7.778,0.749 -11.812,0.438 -4.103,-0.316 -8.063,-1.1 -11.812,-2.313 -0.343,-0.157 -0.415,-0.197 -0.5,-0.406 -0.085,-0.209 -0.128,-0.709 -0.063,-1.563 l 1.188,-15.5 c 0.475,-6.143 -0.806,-11.162 -3.781,-14.75 -2.975,-3.588 -7.596,-5.673 -13.438,-6.125 l -16.281,-1.25 c -1.291,-0.1 -1.701,-0.625 -1.813,-1.156 -0.583,-3.798 -0.747,-7.72 -0.438,-11.719 0.322,-4.162 1.103,-8.171 2.344,-11.969 0.013,-0.032 0.02,-0.004 0.031,-0.031 0.003,-0.01 -0.003,-0.021 0,-0.031 0.108,-0.243 0.166,-0.3 0.281,-0.344 0.133,-0.05 0.57,-0.088 1.313,-0.031 l 16.438,1.25 c 6.014,0.464 10.911,-0.768 14.375,-3.75 3.464,-2.982 5.415,-7.608 5.875,-13.562 l 1.28,-16.8 c 0.046,-0.595 0.194,-0.882 0.281,-1 0.087,-0.118 0.111,-0.157 0.344,-0.188 h 0.031 c 1.973,-0.323 3.965,-0.538 6,-0.625 z" />
<path
   id="circle19"
   fill="#f4f4f4"
   d="m 146.904,141.264 c -6.747,0 -12.25,5.472 -12.25,12.219 0,6.747 5.503,12.25 12.25,12.25 6.747,0 12.219,-5.503 12.219,-12.25 0,-6.747 -5.472,-12.219 -12.219,-12.219 z m 0,2 c 5.666,0 10.219,4.553 10.219,10.219 0,5.666 -4.553,10.25 -10.219,10.25 -5.666,0 -10.25,-4.584 -10.25,-10.25 0,-5.666 4.584,-10.219 10.25,-10.219 z" />
<path
   id="polygon21"
   fill="#f4f4f4"
   d="m 114.555,115.734 0.25,1 1.813,6.844 0.219,0.75 0.594,-0.5 4.656,-4 0.594,-0.5 -0.71,-0.35 -6.469,-2.813 -0.938,-0.438 z" />
<path
   id="polygon23"
   fill="#f4f4f4"
   d="m 112.714,177.693 -0.313,0.719 -2.844,6.469 -0.438,0.938 1,-0.25 6.844,-1.813 0.75,-0.219 -0.5,-0.594 -4,-4.656 z" />
<path
   id="polygon25"
   fill="#f4f4f4"
   d="m 176.934,182.663 -0.594,0.5 -4.656,4 -0.594,0.5 0.719,0.313 6.469,2.844 0.938,0.438 -0.25,-1.031 -1.813,-6.813 z" />
<path
   id="polygon27"
   fill="#f4f4f4"
   d="m 184.654,121.164 -1,0.25 -6.844,1.813 -0.75,0.219 0.5,0.593 4,4.656 0.5,0.594 0.344,-0.719 2.813,-6.469 z" />
<path
   id="circle29"
   fill="#f4f4f4"
   d="m 382.402,117.044 c -11.999,0 -21.75,9.751 -21.75,21.75 0,11.999 9.751,21.75 21.75,21.75 11.998,0 21.75,-9.751 21.75,-21.75 0,-11.999 -9.752,-21.75 -21.75,-21.75 z m 0,2 c 10.918,0 19.75,8.832 19.75,19.75 0,10.918 -8.833,19.75 -19.75,19.75 -10.918,0 -19.75,-8.832 -19.75,-19.75 0,-10.918 8.832,-19.75 19.75,-19.75 z" />
<path
   id="circle31"
   fill="#f4f4f4"
   d="m 428.932,85.604 c -11.999,0 -21.75,9.751 -21.75,21.75 0,11.999 9.752,21.75 21.75,21.75 11.998,0 21.75,-9.751 21.75,-21.75 0,-11.999 -9.752,-21.75 -21.75,-21.75 z m 0,2 c 10.918,0 19.75,8.832 19.75,19.75 0,10.918 -8.832,19.75 -19.75,19.75 -10.918,0 -19.75,-8.832 -19.75,-19.75 0,-10.918 8.832,-19.75 19.75,-19.75 z" />
<path
   id="circle33"
   fill="#f4f4f4"
   d="m 477.651,67.698 c -11.998,0 -21.75,9.752 -21.75,21.75 0,11.998 9.752,21.75 21.75,21.75 11.998,0 21.75,-9.751 21.75,-21.75 0,-11.999 -9.752,-21.75 -21.75,-21.75 z m 0,2 c 10.917,0 19.75,8.833 19.75,19.75 0,10.917 -8.833,19.75 -19.75,19.75 -10.917,0 -19.75,-8.833 -19.75,-19.75 0,-10.917 8.833,-19.75 19.75,-19.75 z" />
<path
   id="circle35"
   fill="#f4f4f4"
   d="m 402.521,176.794 c -16.686,0 -30.219,13.532 -30.219,30.219 0,16.686 13.533,30.249 30.219,30.249 16.687,0 30.25,-13.563 30.25,-30.249 0,-16.687 -13.563,-30.219 -30.25,-30.219 z m 0,2 c 15.605,0 28.25,12.613 28.25,28.219 0,15.604 -12.645,28.249 -28.25,28.249 -15.604,0 -28.219,-12.646 -28.219,-28.249 10e-4,-15.606 12.615,-28.219 28.219,-28.219 z" />
<path
   id="circle37"
   fill="#f4f4f4"
   d="m 458.491,139.694 c -16.686,0 -30.25,13.533 -30.25,30.219 0,16.686 13.564,30.249 30.25,30.249 16.687,0 30.219,-13.563 30.219,-30.249 0,-16.686 -13.532,-30.219 -30.219,-30.219 z m 0,2 c 15.604,0 28.219,12.614 28.219,28.219 0,15.604 -12.614,28.249 -28.219,28.249 -15.605,0 -28.25,-12.646 -28.25,-28.249 0,-15.605 12.646,-28.219 28.25,-28.219 z" />
<path
   id="circle39"
   fill="#f4f4f4"
   d="m 519.461,116.414 c -16.685,0 -30.25,13.565 -30.25,30.25 0,16.685 13.565,30.218 30.25,30.218 16.685,0 30.219,-13.532 30.219,-30.218 0,-16.685 -13.534,-30.25 -30.219,-30.25 z m 0,2 c 15.604,0 28.219,12.646 28.219,28.25 0,15.604 -12.614,28.218 -28.219,28.218 -15.604,0 -28.25,-12.613 -28.25,-28.218 0,-15.604 12.646,-28.25 28.25,-28.25 z" />
<path
   id="ellipse41"
   fill="#f4f4f4"
   d="m 296.083,181.323 c -10.372,0 -19.765,2.013 -26.656,5.313 -6.891,3.3 -11.438,8 -11.438,13.469 0,5.469 4.546,10.139 11.438,13.438 6.891,3.301 16.284,5.313 26.656,5.313 10.371,0 19.765,-2.012 26.655,-5.313 6.892,-3.299 11.438,-7.969 11.438,-13.438 0,-5.469 -4.547,-10.169 -11.438,-13.469 -6.89,-3.3 -16.284,-5.313 -26.655,-5.313 z m 0,2 c 10.113,0 19.278,1.996 25.812,5.125 6.534,3.129 10.281,7.316 10.281,11.656 0,4.34 -3.748,8.527 -10.281,11.656 -6.533,3.128 -15.698,5.094 -25.812,5.094 -10.114,0 -19.247,-1.966 -25.781,-5.094 -6.534,-3.129 -10.312,-7.316 -10.312,-11.656 0,-4.34 3.778,-8.527 10.312,-11.656 6.534,-3.129 15.668,-5.125 25.781,-5.125 z" />
<path
   id="ellipse43"
   fill="#f4f4f4"
   d="m 296.083,188.263 c -6.976,0 -13.273,1.213 -17.938,3.25 -2.333,1.02 -4.273,2.229 -5.656,3.656 -1.383,1.429 -2.219,3.131 -2.219,4.938 0,1.807 0.835,3.479 2.219,4.906 1.383,1.429 3.324,2.638 5.656,3.656 4.665,2.037 10.962,3.281 17.938,3.281 6.975,0 13.304,-1.244 17.969,-3.281 2.332,-1.019 4.241,-2.228 5.625,-3.656 1.383,-1.428 2.25,-3.1 2.25,-4.906 0,-1.806 -0.867,-3.509 -2.25,-4.938 -1.384,-1.428 -3.293,-2.637 -5.625,-3.656 -4.665,-2.037 -10.993,-3.25 -17.969,-3.25 z m 0,2 c 6.739,0 12.833,1.207 17.155,3.094 2.162,0.944 3.87,2.053 5,3.219 1.131,1.168 1.688,2.344 1.688,3.531 0,1.188 -0.558,2.365 -1.688,3.531 -1.13,1.167 -2.838,2.275 -5,3.219 -4.322,1.889 -10.417,3.094 -17.155,3.094 -6.739,0 -12.833,-1.205 -17.156,-3.094 -2.161,-0.943 -3.87,-2.052 -5,-3.219 -1.13,-1.166 -1.656,-2.343 -1.656,-3.531 0,-1.188 0.526,-2.364 1.656,-3.531 1.13,-1.166 2.838,-2.273 5,-3.219 4.323,-1.887 10.417,-3.094 17.156,-3.094 z" />
</svg>
