<?xml version="1.0" encoding="UTF-8" standalone="no"?>
<!-- Created with Inkscape (http://www.inkscape.org/) -->

<svg
   version="1.1"
   id="svg2"
   width="300"
   height="440.66699"
   viewBox="0 0 300 440.667"
   sodipodi:docname="scv.svg"
   inkscape:version="1.2.2 (732a01da63, 2022-12-09)"
   xmlns:inkscape="http://www.inkscape.org/namespaces/inkscape"
   xmlns:sodipodi="http://sodipodi.sourceforge.net/DTD/sodipodi-0.dtd"
   xmlns="http://www.w3.org/2000/svg"
   xmlns:svg="http://www.w3.org/2000/svg">
  <defs
     id="defs6">
    <inkscape:path-effect
       effect="bspline"
       id="path-effect1600"
       is_visible="true"
       lpeversion="1"
       weight="33.333333"
       steps="2"
       helper_size="0"
       apply_no_weight="true"
       apply_with_weight="true"
       only_selected="false" />
  </defs>
  <sodipodi:namedview
     id="namedview4"
     pagecolor="#000000"
     bordercolor="#111111"
     borderopacity="1"
     inkscape:showpageshadow="0"
     inkscape:pageopacity="0"
     inkscape:pagecheckerboard="1"
     inkscape:deskcolor="#d1d1d1"
     showgrid="false"
     inkscape:zoom="1.2525752"
     inkscape:cx="-11.576151"
     inkscape:cy="287.40788"
     inkscape:window-width="1920"
     inkscape:window-height="1009"
     inkscape:window-x="-8"
     inkscape:window-y="-8"
     inkscape:window-maximized="1"
     inkscape:current-layer="g8" />
  <g
     inkscape:groupmode="layer"
     inkscape:label="Image"
     id="g8">
    <path
       id="rect1602-3"
       style="fill:none;stroke:#ffffff;stroke-width:4.105;stroke-linecap:round;stroke-linejoin:round;stroke-opacity:1;paint-order:fill markers stroke"
       d="m 268.76619,15.698736 -25.68578,-0.282261 0.56452,86.371925 38.38753,-0.28226 0.42339,-64.496685 z"
       sodipodi:nodetypes="cccccc" />
    <path
       id="rect1602-3-3"
       style="fill:none;stroke:#ffffff;stroke-width:4.105;stroke-linecap:round;stroke-linejoin:round;stroke-opacity:1;paint-order:fill markers stroke"
       d="M 33.938003,17.217928 H 61.5996 l 4e-6,86.371922 -42.339183,0.28226 0.141135,-66.190245 z"
       sodipodi:nodetypes="cccccc" />
    <path
       id="rect291"
       style="fill:none;stroke:#ffffff;stroke-width:5.105;stroke-linecap:round;stroke-linejoin:round;stroke-opacity:1;paint-order:fill markers stroke;stroke-dasharray:none"
       d="m 70.453511,16.968907 162.582449,-0.846783 0.70566,95.122026 48.12553,-0.56452 4.0928,315.00351 -270.265105,1.12904 1.693559,-313.87446 53.34737,0.56452 z"
       sodipodi:nodetypes="ccccccccc" />
    <ellipse
       style="fill:none;stroke:#ffffff;stroke-width:8.205;stroke-linecap:round;stroke-linejoin:round;stroke-opacity:1;paint-order:fill markers stroke;stroke-dasharray:none"
       id="path442"
       cx="144.40594"
       cy="276.36694"
       rx="68.871735"
       ry="69.153992" />
    <path
       id="rect1104"
       style="fill:none;stroke:#ffffff;stroke-width:1.49428;stroke-linecap:round;stroke-linejoin:round;stroke-opacity:1;paint-order:fill markers stroke"
       d="m 84.531524,275.90847 c 5.010936,0.10009 12.019306,-0.006 16.370636,0.0884 1.10864,0.47968 1.98229,1.52546 1.9119,2.47374 -0.0594,0.79991 -0.94456,1.58274 -1.9119,1.94366 -3.91589,0.22745 -11.69245,-0.0431 -16.370636,-0.0883 -0.93202,-0.41384 -1.53561,-1.31665 -1.55342,-2.12035 -0.019,-0.85594 0.56627,-1.84965 1.55342,-2.29705 z"
       sodipodi:nodetypes="ccaccac" />
    <path
       id="rect1104-5"
       style="fill:none;stroke:#ffffff;stroke-width:1.49428;stroke-linecap:round;stroke-linejoin:round;stroke-opacity:1;paint-order:fill markers stroke"
       d="m 142.95438,236.74822 c 0.10009,-5.01094 -0.006,-12.01931 0.0884,-16.37064 0.47968,-1.10864 1.52546,-1.98229 2.47374,-1.9119 0.79991,0.0594 1.58274,0.94456 1.94366,1.9119 0.22745,3.91589 -0.0431,11.69245 -0.0883,16.37064 -0.41384,0.93202 -1.31665,1.53561 -2.12035,1.55342 -0.85594,0.019 -1.84965,-0.56627 -2.29705,-1.55342 z"
       sodipodi:nodetypes="ccaccac" />
    <path
       id="rect1104-6"
       style="fill:none;stroke:#ffffff;stroke-width:1.49428;stroke-linecap:round;stroke-linejoin:round;stroke-opacity:1;paint-order:fill markers stroke"
       d="m 186.84614,274.35073 c 5.01094,0.10009 12.01931,-0.006 16.37064,0.0884 1.10864,0.47968 1.98229,1.52546 1.9119,2.47374 -0.0594,0.79991 -0.94456,1.58274 -1.9119,1.94366 -3.91589,0.22745 -11.69245,-0.0431 -16.37064,-0.0883 -0.93202,-0.41384 -1.53561,-1.31665 -1.55342,-2.12035 -0.019,-0.85594 0.56627,-1.84965 1.55342,-2.29705 z"
       sodipodi:nodetypes="ccaccac" />
    <path
       id="rect1104-6-2"
       style="fill:none;stroke:#ffffff;stroke-width:1.99439;stroke-linecap:round;stroke-linejoin:round;stroke-opacity:1;paint-order:fill markers stroke"
       d="m 246.8183,357.8681 c 10.01734,0.0892 24.02772,-0.005 32.72643,0.0788 2.21628,0.42744 3.96279,1.35933 3.82207,2.20434 -0.11875,0.71279 -1.88826,1.41037 -3.82207,1.73198 -7.82822,0.20268 -23.37429,-0.0384 -32.72643,-0.0787 -1.86319,-0.36878 -3.06983,-1.17325 -3.10543,-1.88943 -0.038,-0.76272 1.13203,-1.64821 3.10543,-2.04689 z"
       sodipodi:nodetypes="ccaccac" />
    <path
       id="rect1104-6-2-8"
       style="fill:none;stroke:#ffffff;stroke-width:1.99439;stroke-linecap:round;stroke-linejoin:round;stroke-opacity:1;paint-order:fill markers stroke"
       d="m 246.79565,347.14256 c 10.01734,0.0892 24.02772,-0.005 32.72643,0.0788 2.21628,0.42744 3.96279,1.35933 3.82207,2.20434 -0.11875,0.71279 -1.88826,1.41037 -3.82207,1.73198 -7.82822,0.20268 -23.37429,-0.0384 -32.72643,-0.0787 -1.86319,-0.36878 -3.06983,-1.17325 -3.10543,-1.88943 -0.038,-0.76272 1.13203,-1.64821 3.10543,-2.04689 z"
       sodipodi:nodetypes="ccaccac" />
    <path
       id="rect1104-6-2-2"
       style="fill:none;stroke:#ffffff;stroke-width:1.99439;stroke-linecap:round;stroke-linejoin:round;stroke-opacity:1;paint-order:fill markers stroke"
       d="m 246.23112,334.72307 c 10.01734,0.0892 24.02772,-0.005 32.72643,0.0788 2.21628,0.42744 3.96279,1.35933 3.82207,2.20434 -0.11875,0.71279 -1.88826,1.41037 -3.82207,1.73198 -7.82822,0.20268 -23.37429,-0.0384 -32.72643,-0.0787 -1.86319,-0.36878 -3.06983,-1.17325 -3.10543,-1.88943 -0.038,-0.76272 1.13203,-1.64821 3.10543,-2.04689 z"
       sodipodi:nodetypes="ccaccac" />
    <path
       id="rect1104-6-2-0"
       style="fill:none;stroke:#ffffff;stroke-width:1.99439;stroke-linecap:round;stroke-linejoin:round;stroke-opacity:1;paint-order:fill markers stroke"
       d="m 246.23112,323.15037 c 10.01734,0.0892 24.02772,-0.005 32.72643,0.0788 2.21628,0.42744 3.96279,1.35933 3.82207,2.20434 -0.11875,0.71279 -1.88826,1.41037 -3.82207,1.73198 -7.82822,0.20268 -23.37429,-0.0384 -32.72643,-0.0787 -1.86319,-0.36878 -3.06983,-1.17325 -3.10543,-1.88943 -0.038,-0.76272 1.13203,-1.64821 3.10543,-2.0469 z"
       sodipodi:nodetypes="ccaccac" />
    <path
       id="rect1104-6-2-81"
       style="fill:none;stroke:#ffffff;stroke-width:1.99439;stroke-linecap:round;stroke-linejoin:round;stroke-opacity:1;paint-order:fill markers stroke"
       d="m 246.79564,310.73087 c 10.01734,0.0892 24.02772,-0.005 32.72643,0.0788 2.21628,0.42744 3.96279,1.35933 3.82207,2.20434 -0.11875,0.71279 -1.88826,1.41037 -3.82207,1.73198 -7.82822,0.20268 -23.37429,-0.0384 -32.72643,-0.0787 -1.86319,-0.36878 -3.06983,-1.17325 -3.10543,-1.88943 -0.038,-0.76272 1.13203,-1.64821 3.10543,-2.04689 z"
       sodipodi:nodetypes="ccaccac" />
    <path
       id="rect1104-6-2-9"
       style="fill:none;stroke:#ffffff;stroke-width:1.99439;stroke-linecap:round;stroke-linejoin:round;stroke-opacity:1;paint-order:fill markers stroke"
       d="m 246.80697,299.01683 c 10.01734,0.0892 24.02772,-0.005 32.72643,0.0788 2.21628,0.42744 3.96279,1.35933 3.82207,2.20434 -0.11875,0.71279 -1.88826,1.41037 -3.82207,1.73198 -7.82822,0.20268 -23.37429,-0.0384 -32.72643,-0.0787 -1.86319,-0.36878 -3.06983,-1.17325 -3.10543,-1.88943 -0.038,-0.76272 1.13203,-1.64821 3.10543,-2.04689 z"
       sodipodi:nodetypes="ccaccac" />
    <path
       id="rect1104-6-2-8-4"
       style="fill:none;stroke:#ffffff;stroke-width:1.99439;stroke-linecap:round;stroke-linejoin:round;stroke-opacity:1;paint-order:fill markers stroke"
       d="m 246.78432,288.29129 c 10.01734,0.0892 24.02772,-0.005 32.72643,0.0788 2.21628,0.42744 3.96279,1.35933 3.82207,2.20434 -0.11875,0.71279 -1.88826,1.41037 -3.82207,1.73198 -7.82822,0.20268 -23.37429,-0.0384 -32.72643,-0.0787 -1.86319,-0.36878 -3.06983,-1.17325 -3.10543,-1.88943 -0.038,-0.76272 1.13203,-1.64821 3.10543,-2.04689 z"
       sodipodi:nodetypes="ccaccac" />
    <path
       id="rect1104-6-2-2-1"
       style="fill:none;stroke:#ffffff;stroke-width:1.99439;stroke-linecap:round;stroke-linejoin:round;stroke-opacity:1;paint-order:fill markers stroke"
       d="m 246.21979,275.8718 c 10.01734,0.0892 24.02772,-0.005 32.72643,0.0788 2.21628,0.42744 3.96279,1.35933 3.82207,2.20434 -0.11875,0.71279 -1.88826,1.41037 -3.82207,1.73198 -7.82822,0.20268 -23.37429,-0.0384 -32.72643,-0.0787 -1.86319,-0.36878 -3.06983,-1.17325 -3.10543,-1.88943 -0.038,-0.76272 1.13203,-1.64821 3.10543,-2.04689 z"
       sodipodi:nodetypes="ccaccac" />
    <path
       id="rect1104-6-2-0-8"
       style="fill:none;stroke:#ffffff;stroke-width:1.99439;stroke-linecap:round;stroke-linejoin:round;stroke-opacity:1;paint-order:fill markers stroke"
       d="m 246.21979,264.2991 c 10.01734,0.0892 24.02772,-0.005 32.72643,0.0788 2.21628,0.42744 3.96279,1.35933 3.82207,2.20434 -0.11875,0.71279 -1.88826,1.41037 -3.82207,1.73198 -7.82822,0.20268 -23.37429,-0.0384 -32.72643,-0.0787 -1.86319,-0.36878 -3.06983,-1.17325 -3.10543,-1.88943 -0.038,-0.76272 1.13203,-1.64821 3.10543,-2.0469 z"
       sodipodi:nodetypes="ccaccac" />
    <path
       id="rect1104-6-2-81-9"
       style="fill:none;stroke:#ffffff;stroke-width:1.99439;stroke-linecap:round;stroke-linejoin:round;stroke-opacity:1;paint-order:fill markers stroke"
       d="m 246.78431,251.8796 c 10.01734,0.0892 24.02772,-0.005 32.72643,0.0788 2.21628,0.42744 3.96279,1.35933 3.82207,2.20434 -0.11875,0.71279 -1.88826,1.41037 -3.82207,1.73198 -7.82822,0.20268 -23.37429,-0.0384 -32.72643,-0.0787 -1.86319,-0.36878 -3.06983,-1.17325 -3.10543,-1.88943 -0.038,-0.76272 1.13203,-1.64821 3.10543,-2.04689 z"
       sodipodi:nodetypes="ccaccac" />
    <path
       id="rect1104-6-2-87"
       style="fill:none;stroke:#ffffff;stroke-width:1.99439;stroke-linecap:round;stroke-linejoin:round;stroke-opacity:1;paint-order:fill markers stroke"
       d="m 246.80698,243.69363 c 10.01734,0.0892 24.02772,-0.005 32.72643,0.0788 2.21628,0.42744 3.96279,1.35933 3.82207,2.20434 -0.11875,0.71279 -1.88826,1.41037 -3.82207,1.73198 -7.82822,0.20268 -23.37429,-0.0384 -32.72643,-0.0787 -1.86319,-0.36878 -3.06983,-1.17325 -3.10543,-1.88943 -0.038,-0.76272 1.13203,-1.64821 3.10543,-2.04689 z"
       sodipodi:nodetypes="ccaccac" />
    <path
       id="rect1104-6-2-8-2"
       style="fill:none;stroke:#ffffff;stroke-width:1.99439;stroke-linecap:round;stroke-linejoin:round;stroke-opacity:1;paint-order:fill markers stroke"
       d="m 246.78433,232.96809 c 10.01734,0.0892 24.02772,-0.005 32.72643,0.0788 2.21628,0.42744 3.96279,1.35933 3.82207,2.20434 -0.11875,0.71279 -1.88826,1.41037 -3.82207,1.73198 -7.82822,0.20268 -23.37429,-0.0384 -32.72643,-0.0787 -1.86319,-0.36878 -3.06983,-1.17325 -3.10543,-1.88943 -0.038,-0.76272 1.13203,-1.64821 3.10543,-2.04689 z"
       sodipodi:nodetypes="ccaccac" />
    <path
       id="rect1104-6-2-2-8"
       style="fill:none;stroke:#ffffff;stroke-width:1.99439;stroke-linecap:round;stroke-linejoin:round;stroke-opacity:1;paint-order:fill markers stroke"
       d="m 246.2198,220.5486 c 10.01734,0.0892 24.02772,-0.005 32.72643,0.0788 2.21628,0.42744 3.96279,1.35933 3.82207,2.20434 -0.11875,0.71279 -1.88826,1.41037 -3.82207,1.73198 -7.82822,0.20268 -23.37429,-0.0384 -32.72643,-0.0787 -1.86319,-0.36878 -3.06983,-1.17325 -3.10543,-1.88943 -0.038,-0.76272 1.13203,-1.64821 3.10543,-2.04689 z"
       sodipodi:nodetypes="ccaccac" />
    <path
       id="rect1104-6-2-0-4"
       style="fill:none;stroke:#ffffff;stroke-width:1.99439;stroke-linecap:round;stroke-linejoin:round;stroke-opacity:1;paint-order:fill markers stroke"
       d="m 246.2198,208.9759 c 10.01734,0.0892 24.02772,-0.005 32.72643,0.0788 2.21628,0.42744 3.96279,1.35933 3.82207,2.20434 -0.11875,0.71279 -1.88826,1.41037 -3.82207,1.73198 -7.82822,0.20268 -23.37429,-0.0384 -32.72643,-0.0787 -1.86319,-0.36878 -3.06983,-1.17325 -3.10543,-1.88943 -0.038,-0.76272 1.13203,-1.64821 3.10543,-2.0469 z"
       sodipodi:nodetypes="ccaccac" />
    <path
       id="rect1104-6-2-81-4"
       style="fill:none;stroke:#ffffff;stroke-width:1.99439;stroke-linecap:round;stroke-linejoin:round;stroke-opacity:1;paint-order:fill markers stroke"
       d="m 246.78432,196.5564 c 10.01734,0.0892 24.02772,-0.005 32.72643,0.0788 2.21628,0.42744 3.96279,1.35933 3.82207,2.20434 -0.11875,0.71279 -1.88826,1.41037 -3.82207,1.73198 -7.82822,0.20268 -23.37429,-0.0384 -32.72643,-0.0787 -1.86319,-0.36878 -3.06983,-1.17325 -3.10543,-1.88943 -0.038,-0.76272 1.13203,-1.64821 3.10543,-2.04689 z"
       sodipodi:nodetypes="ccaccac" />
    <path
       id="rect1104-6-2-4"
       style="fill:none;stroke:#ffffff;stroke-width:1.99439;stroke-linecap:round;stroke-linejoin:round;stroke-opacity:1;paint-order:fill markers stroke"
       d="m 18.626866,358.00942 c 10.01734,0.0892 24.02772,-0.005 32.72643,0.0788 2.21628,0.42744 3.96279,1.35933 3.82207,2.20434 -0.11875,0.71279 -1.88826,1.41037 -3.82207,1.73198 -7.82822,0.20268 -23.37429,-0.0384 -32.72643,-0.0787 -1.86319,-0.36878 -3.06983,-1.17325 -3.10543,-1.88943 -0.038,-0.76272 1.13203,-1.64821 3.10543,-2.04689 z"
       sodipodi:nodetypes="ccaccac" />
    <path
       id="rect1104-6-2-8-29"
       style="fill:none;stroke:#ffffff;stroke-width:1.99439;stroke-linecap:round;stroke-linejoin:round;stroke-opacity:1;paint-order:fill markers stroke"
       d="m 18.604216,347.28388 c 10.01734,0.0892 24.02772,-0.005 32.72643,0.0788 2.21628,0.42744 3.96279,1.35933 3.82207,2.20434 -0.11875,0.71279 -1.88826,1.41037 -3.82207,1.73198 -7.82822,0.20268 -23.37429,-0.0384 -32.72643,-0.0787 -1.86319,-0.36878 -3.06983,-1.17325 -3.10543,-1.88943 -0.038,-0.76272 1.13203,-1.64821 3.10543,-2.04689 z"
       sodipodi:nodetypes="ccaccac" />
    <path
       id="rect1104-6-2-2-4"
       style="fill:none;stroke:#ffffff;stroke-width:1.99439;stroke-linecap:round;stroke-linejoin:round;stroke-opacity:1;paint-order:fill markers stroke"
       d="m 18.039686,334.86439 c 10.01734,0.0892 24.02772,-0.005 32.72643,0.0788 2.21628,0.42744 3.96279,1.35933 3.82207,2.20434 -0.11875,0.71279 -1.88826,1.41037 -3.82207,1.73198 -7.82822,0.20268 -23.37429,-0.0384 -32.72643,-0.0787 -1.86319,-0.36878 -3.06983,-1.17325 -3.10543,-1.88943 -0.038,-0.76272 1.13203,-1.64821 3.10543,-2.04689 z"
       sodipodi:nodetypes="ccaccac" />
    <path
       id="rect1104-6-2-0-0"
       style="fill:none;stroke:#ffffff;stroke-width:1.99439;stroke-linecap:round;stroke-linejoin:round;stroke-opacity:1;paint-order:fill markers stroke"
       d="m 18.039686,323.29169 c 10.01734,0.0892 24.02772,-0.005 32.72643,0.0788 2.21628,0.42744 3.96279,1.35933 3.82207,2.20434 -0.11875,0.71279 -1.88826,1.41037 -3.82207,1.73198 -7.82822,0.20268 -23.37429,-0.0384 -32.72643,-0.0787 -1.86319,-0.36878 -3.06983,-1.17325 -3.10543,-1.88943 -0.038,-0.76272 1.13203,-1.64821 3.10543,-2.0469 z"
       sodipodi:nodetypes="ccaccac" />
    <path
       id="rect1104-6-2-81-1"
       style="fill:none;stroke:#ffffff;stroke-width:1.99439;stroke-linecap:round;stroke-linejoin:round;stroke-opacity:1;paint-order:fill markers stroke"
       d="m 18.604206,310.87219 c 10.01734,0.0892 24.02772,-0.005 32.72643,0.0788 2.21628,0.42744 3.96279,1.35933 3.82207,2.20434 -0.11875,0.71279 -1.88826,1.41037 -3.82207,1.73198 -7.82822,0.20268 -23.37429,-0.0384 -32.72643,-0.0787 -1.86319,-0.36878 -3.06983,-1.17325 -3.10543,-1.88943 -0.038,-0.76272 1.13203,-1.64821 3.10543,-2.04689 z"
       sodipodi:nodetypes="ccaccac" />
    <path
       id="rect1104-6-2-6"
       style="fill:none;stroke:#ffffff;stroke-width:1.99439;stroke-linecap:round;stroke-linejoin:round;stroke-opacity:1;paint-order:fill markers stroke"
       d="m 18.296261,299.01683 c 10.01734,0.0892 24.02772,-0.005 32.72643,0.0788 2.21628,0.42744 3.96279,1.35933 3.82207,2.20434 -0.11875,0.71279 -1.88826,1.41037 -3.82207,1.73198 -7.82822,0.20268 -23.37429,-0.0384 -32.72643,-0.0787 -1.86319,-0.36878 -3.06983,-1.17325 -3.10543,-1.88943 -0.038,-0.76272 1.13203,-1.64821 3.10543,-2.04689 z"
       sodipodi:nodetypes="ccaccac" />
    <path
       id="rect1104-6-2-8-0"
       style="fill:none;stroke:#ffffff;stroke-width:1.99439;stroke-linecap:round;stroke-linejoin:round;stroke-opacity:1;paint-order:fill markers stroke"
       d="m 18.273611,288.29129 c 10.01734,0.0892 24.02772,-0.005 32.72643,0.0788 2.21628,0.42744 3.96279,1.35933 3.82207,2.20434 -0.11875,0.71279 -1.88826,1.41037 -3.82207,1.73198 -7.82822,0.20268 -23.37429,-0.0384 -32.72643,-0.0787 -1.86319,-0.36878 -3.06983,-1.17325 -3.10543,-1.88943 -0.038,-0.76272 1.13203,-1.64821 3.10543,-2.04689 z"
       sodipodi:nodetypes="ccaccac" />
    <path
       id="rect1104-6-2-2-6"
       style="fill:none;stroke:#ffffff;stroke-width:1.99439;stroke-linecap:round;stroke-linejoin:round;stroke-opacity:1;paint-order:fill markers stroke"
       d="m 17.709081,275.8718 c 10.01734,0.0892 24.02772,-0.005 32.72643,0.0788 2.21628,0.42744 3.96279,1.35933 3.82207,2.20434 -0.11875,0.71279 -1.88826,1.41037 -3.82207,1.73198 -7.82822,0.20268 -23.37429,-0.0384 -32.72643,-0.0787 -1.86319,-0.36878 -3.06983,-1.17325 -3.10543,-1.88943 -0.038,-0.76272 1.13203,-1.64821 3.10543,-2.04689 z"
       sodipodi:nodetypes="ccaccac" />
    <path
       id="rect1104-6-2-0-7"
       style="fill:none;stroke:#ffffff;stroke-width:1.99439;stroke-linecap:round;stroke-linejoin:round;stroke-opacity:1;paint-order:fill markers stroke"
       d="m 17.709081,264.2991 c 10.01734,0.0892 24.02772,-0.005 32.72643,0.0788 2.21628,0.42744 3.96279,1.35933 3.82207,2.20434 -0.11875,0.71279 -1.88826,1.41037 -3.82207,1.73198 -7.82822,0.20268 -23.37429,-0.0384 -32.72643,-0.0787 -1.86319,-0.36878 -3.06983,-1.17325 -3.10543,-1.88943 -0.038,-0.76272 1.13203,-1.64821 3.10543,-2.0469 z"
       sodipodi:nodetypes="ccaccac" />
    <path
       id="rect1104-6-2-81-6"
       style="fill:none;stroke:#ffffff;stroke-width:1.99439;stroke-linecap:round;stroke-linejoin:round;stroke-opacity:1;paint-order:fill markers stroke"
       d="m 18.273601,251.8796 c 10.01734,0.0892 24.02772,-0.005 32.72643,0.0788 2.21628,0.42744 3.96279,1.35933 3.82207,2.20434 -0.11875,0.71279 -1.88826,1.41037 -3.82207,1.73198 -7.82822,0.20268 -23.37429,-0.0384 -32.72643,-0.0787 -1.86319,-0.36878 -3.06983,-1.17325 -3.10543,-1.88943 -0.038,-0.76272 1.13203,-1.64821 3.10543,-2.04689 z"
       sodipodi:nodetypes="ccaccac" />
    <path
       id="rect1104-6-2-1"
       style="fill:none;stroke:#ffffff;stroke-width:1.99439;stroke-linecap:round;stroke-linejoin:round;stroke-opacity:1;paint-order:fill markers stroke"
       d="m 20.530182,242.00007 c 10.01734,0.0892 24.02772,-0.005 32.72643,0.0788 2.21628,0.42744 3.96279,1.35933 3.82207,2.20434 -0.11875,0.71279 -1.88826,1.41037 -3.82207,1.73198 -7.82822,0.20268 -23.37429,-0.0384 -32.72643,-0.0787 -1.86319,-0.36878 -3.06983,-1.17325 -3.10543,-1.88943 -0.038,-0.76272 1.13203,-1.64821 3.10543,-2.04689 z"
       sodipodi:nodetypes="ccaccac" />
    <path
       id="rect1104-6-2-8-5"
       style="fill:none;stroke:#ffffff;stroke-width:1.99439;stroke-linecap:round;stroke-linejoin:round;stroke-opacity:1;paint-order:fill markers stroke"
       d="m 20.507532,231.27453 c 10.01734,0.0892 24.02772,-0.005 32.72643,0.0788 2.21628,0.42744 3.96279,1.35933 3.82207,2.20434 -0.11875,0.71279 -1.88826,1.41037 -3.82207,1.73198 -7.82822,0.20268 -23.37429,-0.0384 -32.72643,-0.0787 -1.86319,-0.36878 -3.06983,-1.17325 -3.10543,-1.88943 -0.038,-0.76272 1.13203,-1.64821 3.10543,-2.04689 z"
       sodipodi:nodetypes="ccaccac" />
    <path
       id="rect1104-6-2-2-65"
       style="fill:none;stroke:#ffffff;stroke-width:1.99439;stroke-linecap:round;stroke-linejoin:round;stroke-opacity:1;paint-order:fill markers stroke"
       d="m 19.943002,218.85504 c 10.01734,0.0892 24.02772,-0.005 32.72643,0.0788 2.21628,0.42744 3.96279,1.35933 3.82207,2.20434 -0.11875,0.71279 -1.88826,1.41037 -3.82207,1.73198 -7.82822,0.20268 -23.37429,-0.0384 -32.72643,-0.0787 -1.86319,-0.36878 -3.06983,-1.17325 -3.10543,-1.88943 -0.038,-0.76272 1.13203,-1.64821 3.10543,-2.04689 z"
       sodipodi:nodetypes="ccaccac" />
    <path
       id="rect1104-6-2-0-1"
       style="fill:none;stroke:#ffffff;stroke-width:1.99439;stroke-linecap:round;stroke-linejoin:round;stroke-opacity:1;paint-order:fill markers stroke"
       d="m 19.943002,207.28234 c 10.01734,0.0892 24.02772,-0.005 32.72643,0.0788 2.21628,0.42744 3.96279,1.35933 3.82207,2.20434 -0.11875,0.71279 -1.88826,1.41037 -3.82207,1.73198 -7.82822,0.20268 -23.37429,-0.0384 -32.72643,-0.0787 -1.86319,-0.36878 -3.06983,-1.17325 -3.10543,-1.88943 -0.038,-0.76272 1.13203,-1.64821 3.10543,-2.0469 z"
       sodipodi:nodetypes="ccaccac" />
    <path
       id="rect1104-6-2-81-10"
       style="fill:none;stroke:#ffffff;stroke-width:1.99439;stroke-linecap:round;stroke-linejoin:round;stroke-opacity:1;paint-order:fill markers stroke"
       d="m 20.507522,194.86284 c 10.01734,0.0892 24.02772,-0.005 32.72643,0.0788 2.21628,0.42744 3.96279,1.35933 3.82207,2.20434 -0.11875,0.71279 -1.88826,1.41037 -3.82207,1.73198 -7.82822,0.20268 -23.37429,-0.0384 -32.72643,-0.0787 -1.86319,-0.36878 -3.06983,-1.17325 -3.10543,-1.88943 -0.038,-0.76272 1.13203,-1.64821 3.10543,-2.04689 z"
       sodipodi:nodetypes="ccaccac" />
    <path
       id="rect1104-4"
       style="fill:none;stroke:#ffffff;stroke-width:1.49428;stroke-linecap:round;stroke-linejoin:round;stroke-opacity:1;paint-order:fill markers stroke"
       d="m 141.82534,335.25738 c 0.10009,-5.01094 -0.006,-12.01931 0.0884,-16.37064 0.47968,-1.10864 1.52546,-1.98229 2.47374,-1.9119 0.79991,0.0594 1.58274,0.94456 1.94366,1.9119 0.22745,3.91589 -0.0431,11.69245 -0.0883,16.37064 -0.41384,0.93202 -1.31665,1.53561 -2.12035,1.55342 -0.85594,0.019 -1.84965,-0.56627 -2.29705,-1.55342 z"
       sodipodi:nodetypes="ccaccac" />
    <path
       id="rect1104-3"
       style="fill:none;stroke:#ffffff;stroke-width:1.49428;stroke-linecap:round;stroke-linejoin:round;stroke-opacity:1;paint-order:fill markers stroke"
       d="m 173.03316,246.61043 c 3.81512,-3.25029 8.98771,-7.98028 12.3056,-10.79712 1.14769,-0.37682 2.49523,-0.17421 3.07183,0.58192 0.48637,0.63783 0.34365,1.81084 -0.14053,2.72276 -2.77856,2.76866 -8.77577,7.72664 -12.30553,10.79719 -0.97187,0.30887 -2.0225,0.034 -2.56915,-0.55542 -0.5822,-0.62773 -0.80376,-1.7595 -0.36216,-2.74926 z"
       sodipodi:nodetypes="ccaccac" />
    <path
       id="rect1104-3-8"
       style="fill:none;stroke:#ffffff;stroke-width:1.49428;stroke-linecap:round;stroke-linejoin:round;stroke-opacity:1;paint-order:fill markers stroke"
       d="m 99.7118,314.5826 c 3.81512,-3.25029 8.98771,-7.98028 12.3056,-10.79712 1.14769,-0.37682 2.49523,-0.17421 3.07183,0.58192 0.48637,0.63783 0.34365,1.81084 -0.14053,2.72276 -2.77856,2.76866 -8.77577,7.72664 -12.30553,10.79719 -0.97187,0.30887 -2.0225,0.034 -2.56915,-0.55542 -0.5822,-0.62773 -0.80376,-1.7595 -0.36216,-2.74926 z"
       sodipodi:nodetypes="ccaccac" />
    <path
       id="rect1104-3-7"
       style="fill:none;stroke:#ffffff;stroke-width:1.49428;stroke-linecap:round;stroke-linejoin:round;stroke-opacity:1;paint-order:fill markers stroke"
       d="m 111.20909,249.65918 c -3.25029,-3.81512 -7.98028,-8.98771 -10.79712,-12.3056 -0.37682,-1.14769 -0.17421,-2.49523 0.58192,-3.07183 0.63783,-0.48637 1.81084,-0.34365 2.72276,0.14053 2.76866,2.77856 7.72664,8.77577 10.79719,12.30553 0.30887,0.97187 0.034,2.0225 -0.55542,2.56915 -0.62773,0.5822 -1.7595,0.80376 -2.74926,0.36216 z"
       sodipodi:nodetypes="ccaccac" />
    <path
       id="rect1104-3-79"
       style="fill:none;stroke:#ffffff;stroke-width:1.49428;stroke-linecap:round;stroke-linejoin:round;stroke-opacity:1;paint-order:fill markers stroke"
       d="m 184.597,318.24865 c -3.25029,-3.81512 -7.98028,-8.98771 -10.79712,-12.3056 -0.37682,-1.14769 -0.17421,-2.49523 0.58192,-3.07183 0.63783,-0.48637 1.81084,-0.34365 2.72276,0.14053 2.76866,2.77856 7.72664,8.77577 10.79719,12.30553 0.30887,0.97187 0.034,2.0225 -0.55542,2.56915 -0.62773,0.5822 -1.7595,0.80376 -2.74926,0.36216 z"
       sodipodi:nodetypes="ccaccac" />
    <ellipse
       style="fill:none;stroke:#ffffff;stroke-width:4.105;stroke-linecap:round;stroke-linejoin:round;stroke-dasharray:none;stroke-opacity:1;paint-order:fill markers stroke"
       id="path1268"
       cx="143.55917"
       cy="275.94357"
       rx="33.589085"
       ry="33.447952" />
    <rect
       style="fill:none;stroke:#ffffff;stroke-width:4.04832;stroke-linecap:round;stroke-linejoin:round;stroke-dasharray:none;stroke-opacity:1;paint-order:fill markers stroke"
       id="rect1540"
       width="159.252"
       height="37.032902"
       x="72.376823"
       y="48.271561" />
    <rect
       style="fill:none;stroke:#ffffff;stroke-width:4.08722;stroke-linecap:round;stroke-linejoin:round;stroke-dasharray:none;stroke-opacity:1;paint-order:fill markers stroke"
       id="rect1542"
       width="159.03693"
       height="18.053509"
       x="72.670364"
       y="57.337212" />
    <path
       style="fill:none;stroke:#ffffff;stroke-width:4.04832;stroke-linecap:round;stroke-linejoin:round;stroke-dasharray:none;stroke-opacity:1;paint-order:fill markers stroke"
       d="M 72.650927,66.929357 C 124.36539,66.740891 176.0789,66.552428 227.79143,66.363969"
       id="path1598"
       inkscape:path-effect="#path-effect1600"
       inkscape:original-d="M 72.650927,66.929357 C 124.36539,66.741896 176.0789,66.553434 227.79143,66.363969" />
    <path
       id="rect1643"
       style="fill:none;stroke:#ffffff;stroke-width:4.105;stroke-linecap:round;stroke-linejoin:round;stroke-opacity:1;paint-order:fill markers stroke"
       d="m 44.485478,116.8652 218.470162,-2.82261 -1.41131,55.32319 -216.494329,1.97582 z"
       sodipodi:nodetypes="ccccc" />
    <path
       id="rect1646"
       style="fill:none;stroke:#ffffff;stroke-width:2.705;stroke-linecap:round;stroke-linejoin:round;stroke-opacity:1;paint-order:fill markers stroke"
       d="M 53.235577,115.42973 249.12485,114.86521 236.70536,141.68002 67.630898,142.5268 Z"
       sodipodi:nodetypes="ccccc" />
  </g>
</svg>
