<?xml version="1.0" encoding="UTF-8" standalone="no"?>
<!-- Generator: Adobe Illustrator 13.0.0, SVG Export Plug-In . SVG Version: 6.00 Build 14948)  -->

<svg
   version="1.2"
   id="Layer_3"
   x="0px"
   y="0px"
   width="151"
   height="340.26001"
   viewBox="0 0 150.99999 340.26"
   xml:space="preserve"
   sodipodi:docname="sg-1000.svg"
   inkscape:version="1.2.2 (732a01da63, 2022-12-09)"
   xmlns:inkscape="http://www.inkscape.org/namespaces/inkscape"
   xmlns:sodipodi="http://sodipodi.sourceforge.net/DTD/sodipodi-0.dtd"
   xmlns="http://www.w3.org/2000/svg"
   xmlns:svg="http://www.w3.org/2000/svg"
   xmlns:rdf="http://www.w3.org/1999/02/22-rdf-syntax-ns#"
   xmlns:cc="http://creativecommons.org/ns#"
   xmlns:dc="http://purl.org/dc/elements/1.1/"
   xmlns:ns="&amp;ns_sfw;"><defs
   id="defs24" /><sodipodi:namedview
   id="namedview22"
   pagecolor="#000000"
   bordercolor="#111111"
   borderopacity="1"
   inkscape:showpageshadow="0"
   inkscape:pageopacity="0"
   inkscape:pagecheckerboard="1"
   inkscape:deskcolor="#d1d1d1"
   showgrid="false"
   inkscape:zoom="2.0445042"
   inkscape:cx="299.58363"
   inkscape:cy="175.10357"
   inkscape:window-width="1920"
   inkscape:window-height="1009"
   inkscape:window-x="-8"
   inkscape:window-y="-8"
   inkscape:window-maximized="1"
   inkscape:current-layer="Layer_3" />
<metadata
   id="metadata55">
	<rdf:RDF>
		<cc:Work
   rdf:about="">
			<dc:format>image/svg+xml</dc:format>
			<dc:type
   rdf:resource="http://purl.org/dc/dcmitype/StillImage" />
			
		</cc:Work>
	</rdf:RDF>
	<ns:sfw>
		<ns:slices />
		<ns:sliceSourceBounds
   x="-7231"
   y="-7652"
   width="16383"
   height="16383"
   bottomLeftOrigin="true" />
	</ns:sfw>
</metadata>
<path
   id="path3"
   fill="#f4f4f4"
   d="m 10.975,3.421 c -2.833,0 -5.153,2.32 -5.153,5.152 v 324.854 c 0,2.833 2.32,5.129 5.153,5.129 H 140.13 c 2.832,0 5.152,-2.296 5.152,-5.129 V 8.573 c 0,-2.833 -2.32,-5.152 -5.152,-5.152 z m 0,1.534 H 140.13 c 2.004,0 3.618,1.615 3.618,3.619 v 324.854 c 0,2.005 -1.614,3.596 -3.618,3.596 H 10.975 c -2.004,0 -3.62,-1.591 -3.62,-3.596 V 8.573 c 0,-2.003 1.616,-3.618 3.62,-3.618 z" />
<g
   id="g5"
   transform="translate(-224,-4)">
	<path
   id="circle7"
   fill="#f4f4f4"
   d="m 299.563,84.906 c -29.611,0 -53.636,24.024 -53.636,53.636 0,29.611 24.024,53.636 53.636,53.636 29.61,0 53.612,-24.024 53.612,-53.636 0,-29.611 -24.002,-53.636 -53.612,-53.636 z m 0,1.534 c 28.782,0 52.077,23.319 52.077,52.102 0,28.782 -23.295,52.102 -52.077,52.102 -28.782,0 -52.103,-23.319 -52.103,-52.102 0,-28.782 23.32,-52.102 52.103,-52.102 z" />
	<path
   id="circle9"
   fill="#f4f4f4"
   d="m 299.563,109.876 c -15.829,0 -28.687,12.834 -28.687,28.663 0,15.829 12.858,28.688 28.687,28.688 15.829,0 28.663,-12.858 28.663,-28.688 0,-15.83 -12.834,-28.663 -28.663,-28.663 z m 0,1.534 c 15,0 27.129,12.129 27.129,27.129 0,15 -12.13,27.154 -27.129,27.154 -15,0 -27.153,-12.154 -27.153,-27.154 0,-15 12.153,-27.129 27.153,-27.129 z" />
	<path
   id="path11"
   fill="#f4f4f4"
   d="m 299.563,94.516 c -1.584,0 -2.9,1.292 -2.9,2.876 v 7.597 c 0,1.583 1.316,2.876 2.9,2.876 1.584,0 2.875,-1.293 2.875,-2.876 v -7.597 c 0,-1.584 -1.292,-2.876 -2.875,-2.876 z m 0,1.533 c 0.752,0 1.341,0.587 1.341,1.342 v 7.597 c 0,0.755 -0.587,1.342 -1.341,1.342 -0.754,0 -1.366,-0.588 -1.366,-1.342 v -7.597 c 0,-0.754 0.611,-1.342 1.366,-1.342 z" />
	<path
   id="circle13"
   fill="#f4f4f4"
   d="m 299.563,91.517 c -25.966,0 -47.045,21.055 -47.045,47.021 0,25.966 21.079,47.045 47.045,47.045 25.965,0 47.02,-21.08 47.02,-47.045 0,-25.968 -21.051,-47.02 -47.02,-47.021 z m 0,1.534 c 25.136,0 45.487,20.351 45.487,45.487 0,25.136 -20.351,45.511 -45.487,45.511 -25.137,0 -45.511,-20.375 -45.511,-45.511 0.001,-25.132 20.376,-45.485 45.512,-45.485 z" />
	<path
   id="path15"
   fill="#f4f4f4"
   d="m 270.444,106.563 c -0.74,0 -1.477,0.279 -2.037,0.839 -1.12,1.119 -1.12,2.955 0,4.074 l 5.368,5.368 c 1.12,1.12 2.955,1.12 4.074,0 1.12,-1.119 1.12,-2.954 0,-4.074 l -5.369,-5.369 c -0.56,-0.552 -1.297,-0.836 -2.037,-0.836 z m 0,1.51 c 0.343,0 0.692,0.141 0.958,0.407 l 5.369,5.369 c 0.533,0.534 0.533,1.384 0,1.917 -0.521,0.52 -1.334,0.517 -1.87,0.024 l -0.048,-0.024 -5.369,-5.368 c -0.534,-0.534 -0.533,-1.384 0,-1.917 0.268,-0.267 0.617,-0.408 0.96,-0.408 z" />
	<path
   id="path17"
   fill="#f4f4f4"
   d="m 258.389,135.66 c -1.584,0 -2.876,1.292 -2.876,2.875 0,1.583 1.292,2.9 2.876,2.9 h 7.597 c 1.583,0 2.876,-1.317 2.876,-2.9 10e-4,-1.583 -1.293,-2.875 -2.876,-2.875 z m 0,1.534 h 7.597 c 0.754,0 1.342,0.588 1.342,1.342 0,0.755 -0.588,1.366 -1.342,1.366 h -7.597 c -0.754,0 -1.342,-0.612 -1.342,-1.366 0,-0.754 0.587,-1.342 1.342,-1.342 z" />
	<path
   id="path19"
   fill="#f4f4f4"
   d="m 275.813,159.412 c -0.739,-0.001 -1.477,0.278 -2.037,0.838 l -5.368,5.369 c -1.12,1.118 -1.12,2.954 0,4.074 1.12,1.119 2.954,1.119 4.074,0 l 5.369,-5.368 c 1.12,-1.119 1.12,-2.954 0,-4.074 -0.561,-0.561 -1.299,-0.839 -2.038,-0.839 z m 0,1.509 c 0.344,0 0.692,0.141 0.959,0.408 0.533,0.533 0.533,1.36 0,1.894 l -5.369,5.368 c -0.534,0.533 -1.384,0.533 -1.917,0 -0.534,-0.534 -0.533,-1.36 0,-1.893 l 5.369,-5.369 c 0.266,-0.268 0.614,-0.408 0.958,-0.408 z" />
	<path
   id="path21"
   fill="#f4f4f4"
   d="m 299.563,169.235 c -1.583,0 -2.9,1.293 -2.9,2.876 v 7.597 c 0,1.584 1.317,2.876 2.9,2.876 1.583,0 2.875,-1.292 2.875,-2.876 v -7.597 c 0,-1.584 -1.292,-2.876 -2.875,-2.876 z m 0,1.534 c 0.752,0 1.341,0.588 1.341,1.342 v 7.597 c 0,0.754 -0.587,1.343 -1.341,1.343 -0.753,0 -1.366,-0.588 -1.366,-1.343 v -7.597 c 0,-0.754 0.612,-1.342 1.366,-1.342 z" />
	<path
   id="path23"
   fill="#f4f4f4"
   d="m 323.291,159.412 c -0.739,-0.001 -1.478,0.278 -2.037,0.838 -1.119,1.119 -1.12,2.954 0,4.074 l 5.368,5.368 c 1.119,1.119 2.954,1.119 4.074,0 1.119,-1.12 1.119,-2.955 0,-4.074 l -5.369,-5.369 c -0.558,-0.559 -1.297,-0.837 -2.036,-0.837 z m 0,1.509 c 0.343,0 0.692,0.14 0.958,0.408 l 5.369,5.369 c 0.533,0.533 0.533,1.359 0,1.893 -0.534,0.533 -1.384,0.533 -1.918,0 l -5.368,-5.368 c -0.534,-0.534 -0.532,-1.36 0,-1.894 0.268,-0.268 0.615,-0.408 0.959,-0.408 z" />
	<path
   id="path25"
   fill="#f4f4f4"
   d="m 333.114,135.66 c -1.584,0 -2.876,1.293 -2.876,2.875 0,1.307 0.909,2.384 2.109,2.732 v 0.167 h 0.767 7.598 c 1.583,0 2.875,-1.317 2.875,-2.9 0,-1.583 -1.292,-2.875 -2.875,-2.875 h -7.598 z m 0,1.534 h 7.598 c 0.754,0 1.342,0.588 1.342,1.342 0,0.753 -0.587,1.366 -1.342,1.366 h -6.83 -0.768 c -0.754,0 -1.342,-0.614 -1.342,-1.366 0,-0.755 0.586,-1.342 1.342,-1.342 z" />
	<path
   id="path27"
   fill="#f4f4f4"
   d="m 328.659,106.563 c -0.739,0 -1.478,0.28 -2.037,0.839 l -5.368,5.369 c -1.12,1.12 -1.12,2.954 0,4.074 1.118,1.12 2.954,1.12 4.073,0 l 5.369,-5.368 c 1.118,-1.119 1.119,-2.955 0,-4.074 -0.559,-0.56 -1.298,-0.84 -2.037,-0.84 z m 0,1.51 c 0.344,0 0.691,0.141 0.959,0.407 0.533,0.534 0.532,1.385 0,1.917 l -5.369,5.368 c -0.532,0.533 -1.385,0.533 -1.917,0 -0.534,-0.534 -0.534,-1.383 0,-1.917 l 5.32,-5.32 0.048,-0.048 c 0.267,-0.266 0.615,-0.407 0.959,-0.407 z" />
	<path
   id="circle29"
   fill="#f4f4f4"
   d="m 299.563,121.572 c -9.361,0 -16.968,7.607 -16.968,16.968 0,9.361 7.607,16.968 16.968,16.968 9.361,0 16.967,-7.606 16.967,-16.968 0,-9.361 -7.606,-16.968 -16.967,-16.968 z m 0,1.533 c 8.532,0 15.433,6.902 15.433,15.434 0,8.532 -6.901,15.434 -15.433,15.434 -8.532,0 -15.434,-6.902 -15.434,-15.434 0,-8.531 6.901,-15.434 15.434,-15.434 z" />
	<path
   id="circle31"
   fill="#f4f4f4"
   d="m 299.563,115.291 c -12.828,0 -23.247,10.42 -23.247,23.247 0,12.827 10.42,23.246 23.247,23.246 12.827,0 23.222,-10.419 23.222,-23.246 0,-12.823 -10.392,-23.245 -23.222,-23.245 z m 0,1.534 c 11.999,0 21.689,9.715 21.689,21.713 0,11.998 -9.69,21.712 -21.689,21.712 -11.999,0 -21.713,-9.715 -21.713,-21.712 0,-11.995 9.715,-21.711 21.713,-21.711 z" />
</g>
<path
   id="rect33"
   fill="#f4f4f4"
   d="m 12.054,9.795 v 0.767 37.075 0.767 h 0.767 124.938 0.767 V 47.637 10.563 9.796 H 137.759 12.82 12.054 Z m 1.533,1.534 H 136.991 V 46.871 H 13.587 Z" />
<path
   id="path35"
   fill="#f4f4f4"
   d="m 8.027,1.623 c -3.558,0 -6.471,2.89 -6.471,6.447 v 81.745 c 0,3.025 2.092,5.561 4.913,6.255 L 6.828,94.582 C 4.681,94.053 3.089,92.135 3.089,89.811 V 8.067 c 0,-2.729 2.208,-4.914 4.937,-4.914 h 5.824 c 1.397,0 2.651,0.581 3.547,1.51 L 18.5,3.584 C 17.327,2.367 15.671,1.619 13.85,1.619 H 8.027 Z" />
<path
   id="path37"
   fill="#f4f4f4"
   d="m 137.321,1.623 c -1.822,0 -3.475,0.748 -4.649,1.965 l 1.103,1.078 c 0.898,-0.93 2.147,-1.51 3.543,-1.51 h 5.848 c 2.731,0 4.914,2.184 4.914,4.913 v 81.745 c 0,2.32 -1.592,4.24 -3.739,4.769 l 0.384,1.486 c 2.821,-0.695 4.889,-3.231 4.889,-6.255 V 8.07 c -0.015,-3.561 -2.898,-6.45 -6.457,-6.45 h -5.848 z" />
</svg>
