<?xml version="1.0" encoding="UTF-8" standalone="no"?>
<!-- Generator: Adobe Illustrator 22.1.0, SVG Export Plug-In . SVG Version: 6.00 Build 0)  -->

<svg
   version="1.1"
   id="Layer_5"
   x="0px"
   y="0px"
   width="554"
   height="269"
   viewBox="0 0 554 269"
   enable-background="new 0 0 600 350"
   xml:space="preserve"
   sodipodi:docname="solarus.svg"
   inkscape:version="1.2.2 (732a01da63, 2022-12-09)"
   xmlns:inkscape="http://www.inkscape.org/namespaces/inkscape"
   xmlns:sodipodi="http://sodipodi.sourceforge.net/DTD/sodipodi-0.dtd"
   xmlns="http://www.w3.org/2000/svg"
   xmlns:svg="http://www.w3.org/2000/svg"><defs
   id="defs51" /><sodipodi:namedview
   id="namedview49"
   pagecolor="#000000"
   bordercolor="#111111"
   borderopacity="1"
   inkscape:showpageshadow="0"
   inkscape:pageopacity="0"
   inkscape:pagecheckerboard="1"
   inkscape:deskcolor="#d1d1d1"
   showgrid="false"
   inkscape:zoom="2.0383333"
   inkscape:cx="300.4906"
   inkscape:cy="175.14309"
   inkscape:window-width="1920"
   inkscape:window-height="1009"
   inkscape:window-x="-8"
   inkscape:window-y="-8"
   inkscape:window-maximized="1"
   inkscape:current-layer="Layer_5" />
<path
   fill="#f4f4f4"
   d="m 437.44,15.99 c 30.22,0 58.64,11.77 80.01,33.14 21.37,21.37 33.14,49.79 33.14,80.01 0,30.22 -11.77,58.64 -33.14,80.01 -21.37,21.37 -49.79,33.14 -80.01,33.14 -15.68,0 -30.85,-3.15 -45.11,-9.37 -13.76,-6 -26.04,-14.56 -36.5,-25.45 -0.38,-0.39 -0.9,-0.61 -1.44,-0.61 H 278 201.61 c -0.54,0 -1.07,0.22 -1.44,0.61 -10.46,10.89 -22.74,19.45 -36.5,25.45 -14.26,6.21 -29.43,9.37 -45.11,9.37 -30.22,0 -58.64,-11.77 -80.01,-33.14 C 17.18,187.78 5.41,159.36 5.41,129.14 5.41,98.92 17.18,70.5 38.55,49.13 59.92,27.76 88.34,15.99 118.56,15.99 H 278 437.44 m 0,-2 H 278 118.56 c -63.6,0 -115.15,51.56 -115.15,115.15 0,63.59 51.55,115.16 115.15,115.16 32.65,0 62.1,-13.61 83.05,-35.43 H 278 354.39 c 20.96,21.82 50.4,35.43 83.05,35.43 63.6,0 115.15,-51.56 115.15,-115.15 0,-63.59 -51.55,-115.16 -115.15,-115.16 z"
   id="path2" />
<path
   fill="#f4f4f4"
   d="m 550.6,121.14 v 2 4.35 23.65 c 0,30.22 -11.77,58.64 -33.14,80.01 -21.37,21.37 -49.79,33.14 -80.01,33.14 -15.68,0 -30.85,-3.15 -45.11,-9.37 -13.76,-6 -26.04,-14.56 -36.5,-25.45 -0.38,-0.39 -0.9,-0.61 -1.44,-0.61 H 278 201.61 c -0.54,0 -1.07,0.22 -1.44,0.61 -10.46,10.89 -22.74,19.45 -36.5,25.45 -14.26,6.21 -29.43,9.37 -45.11,9.37 -30.22,0 -58.64,-11.77 -80.01,-33.14 C 17.18,209.78 5.4,181.37 5.4,151.14 v -23.65 -4.35 -2 h -2 c 0,9.56 0,19.62 0,30 0,63.6 51.56,115.15 115.15,115.15 32.65,0 62.1,-13.61 83.05,-35.43 h 76.4 76.39 c 20.96,21.82 50.4,35.43 83.05,35.43 63.6,0 115.15,-51.56 115.15,-115.15 0,-14.6 0,-24.06 0,-30 z"
   id="path4" />
<path
   fill="#f4f4f4"
   d="m 52.22,37.46 c 0.62,-0.45 1.23,-0.89 1.86,-1.32 C 51.87,35.32 50.55,33.45 50.01,31.67 49.3,29.32 49.64,26.09 52.74,24.03 70.5,12.21 95.11,5.15 118.58,5.15 h 44.28 c 3.78,0 6.86,3.08 6.86,6.86 v 4 h 2 v -4 c 0,-4.89 -3.96,-8.86 -8.86,-8.86 h -44.28 c -23.54,0 -48.72,7.08 -66.95,19.22 -5.9,3.9 -4.72,12.11 0.59,15.09 z"
   id="path6" />
<path
   fill="#f4f4f4"
   d="m 386.3,15.99 v -4 c 0,-3.78 3.08,-6.86 6.86,-6.86 h 44.28 c 23.47,0 48.08,7.06 65.84,18.88 3.09,2.06 3.44,5.3 2.73,7.64 -0.54,1.78 -1.86,3.65 -4.07,4.47 0.62,0.43 1.24,0.88 1.86,1.32 5.31,-2.97 6.48,-11.18 0.59,-15.1 C 486.16,10.2 460.99,3.12 437.44,3.12 h -44.28 c -4.89,0 -8.86,3.97 -8.86,8.86 v 4 h 2 z"
   id="path8" />
<path
   fill="#f4f4f4"
   d="m 321.4,121.08 h -54.84 c -0.4,0 -0.77,-0.24 -0.92,-0.62 -0.15,-0.37 -0.07,-0.8 0.22,-1.09 L 289.2,96.03 c -0.64,-0.9 -0.95,-1.91 -0.93,-3.01 0.07,-3.1 2.79,-6.05 4.41,-7.53 0.39,-0.36 1,-0.35 1.38,0.03 l 2.44,2.45 c 1.38,1.38 1.52,2.71 1.4,3.58 -0.22,1.59 -1.42,2.83 -2.34,3.56 l 5.48,5.49 c 1.11,-3.13 3.18,-10.86 -1.34,-15.37 l -0.56,-0.56 c -1.93,-1.93 -3.23,-3.23 -4.13,-4.14 -0.39,-0.39 -0.39,-1.02 0,-1.41 l 8.64,-8.63 c 0.27,-0.27 0.68,-0.36 1.04,-0.23 1.96,0.7 4.16,0.21 5.62,-1.25 1.03,-1.02 1.59,-2.38 1.59,-3.82 0,-1.44 -0.56,-2.79 -1.59,-3.81 -1.02,-1.02 -2.37,-1.59 -3.81,-1.59 0,0 0,0 0,0 -1.44,0 -2.79,0.56 -3.81,1.58 -1.49,1.49 -1.97,3.66 -1.24,5.67 0.13,0.36 0.04,0.77 -0.23,1.05 l -8.62,8.61 c -0.39,0.39 -1.02,0.39 -1.41,0 -0.76,-0.75 -1.8,-1.79 -3.25,-3.25 l -1.46,-1.47 c -4.51,-4.51 -12.24,-2.44 -15.36,-1.34 l 5.48,5.49 c 0.73,-0.92 1.96,-2.12 3.55,-2.34 0.88,-0.12 2.21,0.02 3.59,1.4 0.85,0.86 1.67,1.69 2.44,2.44 0.38,0.38 0.4,0.99 0.04,1.39 -1.18,1.3 -4.28,4.33 -7.51,4.41 -1.13,0.02 -2.13,-0.28 -3.03,-0.93 l -13.39,13.39 c -8.74,8.74 -19.02,19.03 -24.89,24.9 -0.19,0.19 -0.44,0.29 -0.71,0.29 h -2.95 c -0.35,0 -0.67,-0.18 -0.85,-0.48 -4.98,-8.2 -7.62,-17.57 -7.62,-27.09 0,-28.84 23.47,-52.3 52.31,-52.3 28.84,0 52.3,23.46 52.3,52.3 0,9.51 -2.63,18.88 -7.61,27.09 -0.19,0.29 -0.52,0.48 -0.87,0.48 z m -52.42,-2 h 51.85 c 4.6,-7.78 7.03,-16.6 7.03,-25.57 0,-27.74 -22.56,-50.3 -50.3,-50.3 -27.74,0 -50.31,22.57 -50.31,50.3 0,8.97 2.43,17.8 7.04,25.57 h 1.96 c 5.91,-5.91 16,-16.01 24.6,-24.6 l 14.04,-14.04 c 0.39,-0.39 1.02,-0.39 1.41,0 0.69,0.69 1.43,1.01 2.34,0.99 2.04,-0.05 4.23,-1.9 5.42,-3.07 -0.56,-0.56 -1.15,-1.16 -1.75,-1.76 -0.65,-0.64 -1.26,-0.92 -1.9,-0.83 -1.29,0.18 -2.5,1.84 -2.82,2.41 -0.15,0.27 -0.43,0.46 -0.74,0.5 -0.32,0.04 -0.62,-0.06 -0.84,-0.28 l -7.41,-7.42 c -0.23,-0.23 -0.33,-0.56 -0.28,-0.88 0.06,-0.32 0.27,-0.6 0.57,-0.73 0.5,-0.23 12.28,-5.49 18.98,1.21 l 1.46,1.47 c 1.05,1.05 1.88,1.88 2.54,2.55 l 7.48,-7.48 c -0.69,-2.57 0.01,-5.26 1.9,-7.15 1.39,-1.4 3.25,-2.17 5.22,-2.17 0,0 0,0 0,0 1.97,0 3.83,0.77 5.22,2.17 1.4,1.39 2.17,3.25 2.17,5.22 0,1.98 -0.77,3.84 -2.18,5.23 -1.84,1.85 -4.57,2.56 -7.08,1.9 l -7.5,7.5 c 0.84,0.84 1.95,1.96 3.42,3.43 l 0.56,0.56 c 6.71,6.71 1.43,18.49 1.21,18.99 -0.14,0.3 -0.41,0.51 -0.73,0.57 -0.32,0.06 -0.65,-0.05 -0.88,-0.28 l -7.41,-7.42 c -0.22,-0.22 -0.33,-0.53 -0.28,-0.84 0.04,-0.31 0.23,-0.58 0.5,-0.73 0.61,-0.35 2.24,-1.53 2.41,-2.82 0.08,-0.62 -0.19,-1.24 -0.84,-1.89 l -1.75,-1.75 c -1.17,1.2 -3.03,3.41 -3.07,5.43 -0.02,0.88 0.31,1.64 0.99,2.32 0.19,0.19 0.29,0.44 0.29,0.71 0,0.27 -0.11,0.52 -0.29,0.71 z"
   id="path10" />
<path
   fill="#f4f4f4"
   d="m 128.11,71.42 c 2.21,0 4,1.79 4,4 v 31.46 h 31.46 c 2.21,0 4,1.79 4,4 v 18.53 c 0,2.21 -1.79,4 -4,4 h -31.46 v 31.46 c 0,2.21 -1.79,4 -4,4 h -18.53 c -2.21,0 -4,-1.79 -4,-4 V 133.41 H 74.12 c -2.21,0 -4,-1.79 -4,-4 v -18.53 c 0,-2.21 1.79,-4 4,-4 h 31.46 V 75.42 c 0,-2.21 1.79,-4 4,-4 h 18.53 m 0,-2 h -18.53 c -3.31,0 -6,2.69 -6,6 v 29.46 H 74.12 c -3.31,0 -6,2.69 -6,6 v 18.53 c 0,3.31 2.69,6 6,6 h 29.46 v 29.46 c 0,3.31 2.69,6 6,6 h 18.53 c 3.31,0 6,-2.69 6,-6 v -29.46 h 29.46 c 3.31,0 6,-2.69 6,-6 v -18.53 c 0,-3.31 -2.69,-6 -6,-6 H 134.11 V 75.42 c 0,-3.3 -2.7,-6 -6,-6 z"
   id="path12" />
<path
   fill="#f4f4f4"
   d="M 103.58,141.41 H 74.12 c -2.21,0 -4,-1.79 -4,-4 v -10 h -2 v 10 c 0,3.31 2.69,6 6,6 h 29.46 z"
   id="path14" />
<path
   fill="#f4f4f4"
   d="m 132.11,162.86 v 10 c 0,2.21 -1.79,4 -4,4 h -18.53 c -2.21,0 -4,-1.79 -4,-4 v -10 h -2 v 10 c 0,3.31 2.69,6 6,6 h 18.53 c 3.31,0 6,-2.69 6,-6 v -10 z"
   id="path16" />
<path
   fill="#f4f4f4"
   d="m 167.56,127.41 v 10 c 0,2.21 -1.79,4 -4,4 H 134.1 v 2 h 29.46 c 3.31,0 6,-2.69 6,-6 v -10 z"
   id="path18" />
<path
   fill="#f4f4f4"
   d="m 118.84,91.17 c -0.55,0 -1,-0.45 -1,-1 V 77.42 c 0,-0.55 0.45,-1 1,-1 0.55,0 1,0.45 1,1 v 12.75 c 0,0.56 -0.44,1 -1,1 z"
   id="path20" />
<path
   fill="#f4f4f4"
   d="m 118.84,163.86 c -0.55,0 -1,-0.45 -1,-1 v -12.75 c 0,-0.55 0.45,-1 1,-1 0.55,0 1,0.45 1,1 v 12.75 c 0,0.55 -0.44,1 -1,1 z"
   id="path22" />
<path
   fill="#f4f4f4"
   d="M 88.87,121.14 H 76.12 c -0.55,0 -1,-0.45 -1,-1 0,-0.55 0.45,-1 1,-1 h 12.75 c 0.55,0 1,0.45 1,1 0,0.55 -0.44,1 -1,1 z"
   id="path24" />
<path
   fill="#f4f4f4"
   d="m 161.56,121.14 h -12.75 c -0.55,0 -1,-0.45 -1,-1 0,-0.55 0.45,-1 1,-1 h 12.75 c 0.55,0 1,0.45 1,1 0,0.55 -0.45,1 -1,1 z"
   id="path26" />
<path
   fill="#f4f4f4"
   d="m 395.01,104.85 c 9.78,0 17.72,7.93 17.72,17.72 0,9.78 -7.93,17.72 -17.72,17.72 -9.79,0 -17.72,-7.93 -17.72,-17.72 0.01,-9.79 7.94,-17.72 17.72,-17.72 m 0,-2 c -10.87,0 -19.72,8.84 -19.72,19.72 0,10.88 8.84,19.72 19.72,19.72 10.88,0 19.72,-8.84 19.72,-19.72 0,-10.88 -8.85,-19.72 -19.72,-19.72 z"
   id="path28" />
<path
   fill="#f4f4f4"
   d="m 412.73,129.4 c 0,9.78 -7.93,17.72 -17.72,17.72 v 0 c -9.78,0 -17.72,-7.93 -17.72,-17.72 v -6.84 h -2 v 6.84 c 0,10.87 8.84,19.72 19.72,19.72 10.88,0 19.72,-8.84 19.72,-19.72 v -6.84 h -2 z"
   id="path30" />
<path
   fill="#f4f4f4"
   d="m 481.88,104.85 c 9.78,0 17.72,7.93 17.72,17.72 0,9.78 -7.93,17.72 -17.72,17.72 -9.79,0 -17.72,-7.93 -17.72,-17.72 0,-9.79 7.93,-17.72 17.72,-17.72 m 0,-2 c -10.87,0 -19.72,8.84 -19.72,19.72 0,10.88 8.84,19.72 19.72,19.72 10.88,0 19.72,-8.84 19.72,-19.72 0,-10.88 -8.85,-19.72 -19.72,-19.72 z"
   id="path32" />
<path
   fill="#f4f4f4"
   d="m 499.59,129.4 c 0,9.78 -7.93,17.72 -17.72,17.72 v 0 c -9.78,0 -17.72,-7.93 -17.72,-17.72 v -6.84 h -2 v 6.84 c 0,10.87 8.84,19.72 19.72,19.72 10.87,0 19.72,-8.84 19.72,-19.72 v -6.84 h -2 z"
   id="path34" />
<path
   fill="#f4f4f4"
   d="m 438.44,69.43 c 9.78,0 17.72,7.93 17.72,17.72 0,9.79 -7.93,17.72 -17.72,17.72 -9.79,0 -17.72,-7.93 -17.72,-17.72 0,-9.79 7.94,-17.72 17.72,-17.72 m 0,-2 c -10.87,0 -19.72,8.84 -19.72,19.72 0,10.88 8.84,19.72 19.72,19.72 10.88,0 19.72,-8.84 19.72,-19.72 0,-10.88 -8.85,-19.72 -19.72,-19.72 z"
   id="path36" />
<path
   fill="#f4f4f4"
   d="m 456.16,93.99 c 0,9.78 -7.93,17.72 -17.72,17.72 v 0 c -9.78,0 -17.72,-7.93 -17.72,-17.72 v -6.84 h -2 v 6.84 c 0,10.87 8.84,19.72 19.72,19.72 10.88,0 19.72,-8.84 19.72,-19.72 v -6.84 h -2 z"
   id="path38" />
<path
   fill="#f4f4f4"
   d="m 438.44,140.58 c 9.78,0 17.72,7.93 17.72,17.72 0,9.78 -7.93,17.72 -17.72,17.72 -9.79,0 -17.72,-7.93 -17.72,-17.72 0.01,-9.79 7.94,-17.72 17.72,-17.72 m 0,-2 c -10.87,0 -19.72,8.84 -19.72,19.72 0,10.88 8.84,19.72 19.72,19.72 10.88,0 19.72,-8.84 19.72,-19.72 0,-10.88 -8.85,-19.72 -19.72,-19.72 z"
   id="path40" />
<path
   fill="#f4f4f4"
   d="m 456.16,165.14 c 0,9.78 -7.93,17.72 -17.72,17.72 v 0 c -9.78,0 -17.72,-7.93 -17.72,-17.72 v -6.84 h -2 v 6.84 c 0,10.87 8.84,19.72 19.72,19.72 10.88,0 19.72,-8.84 19.72,-19.72 v -6.84 h -2 z"
   id="path42" />
<path
   fill="#f4f4f4"
   d="m 438.71,207.65 c -43.13,0 -78.22,-35.09 -78.22,-78.22 0,-43.13 35.09,-78.23 78.22,-78.23 43.13,0 78.23,35.09 78.23,78.23 0,43.13 -35.1,78.22 -78.23,78.22 z m 0,-154.45 c -42.03,0 -76.22,34.19 -76.22,76.23 0,42.03 34.19,76.22 76.22,76.22 42.03,0 76.23,-34.19 76.23,-76.22 0,-42.03 -34.2,-76.23 -76.23,-76.23 z"
   id="path44" />
<path
   fill="#f4f4f4"
   d="m 118.84,207.65 c -43.13,0 -78.23,-35.09 -78.23,-78.22 0,-43.13 35.09,-78.23 78.23,-78.23 43.14,0 78.23,35.09 78.23,78.23 0,43.13 -35.09,78.22 -78.23,78.22 z m 0,-154.45 c -42.03,0 -76.23,34.19 -76.23,76.23 0,42.03 34.19,76.22 76.23,76.22 42.04,0 76.23,-34.19 76.23,-76.22 0,-42.03 -34.2,-76.23 -76.23,-76.23 z"
   id="path46" />
</svg>
