<?xml version="1.0" encoding="UTF-8" standalone="no"?>
<svg
   enable-background="new 0 0 223.659 238.667"
   viewBox="0 0 144.659 243.667"
   version="1.1"
   id="svg8297"
   sodipodi:docname="supervision.svg"
   width="144.659"
   height="243.66701"
   inkscape:version="1.2.2 (732a01da63, 2022-12-09)"
   xmlns:inkscape="http://www.inkscape.org/namespaces/inkscape"
   xmlns:sodipodi="http://sodipodi.sourceforge.net/DTD/sodipodi-0.dtd"
   xmlns:xlink="http://www.w3.org/1999/xlink"
   xmlns="http://www.w3.org/2000/svg"
   xmlns:svg="http://www.w3.org/2000/svg">
  <defs
     id="defs8301" />
  <sodipodi:namedview
     id="namedview8299"
     pagecolor="#000000"
     bordercolor="#111111"
     borderopacity="1"
     inkscape:showpageshadow="0"
     inkscape:pageopacity="0"
     inkscape:pagecheckerboard="1"
     inkscape:deskcolor="#d1d1d1"
     showgrid="false"
     inkscape:zoom="2.5331373"
     inkscape:cx="100.4683"
     inkscape:cy="153.16975"
     inkscape:window-width="1920"
     inkscape:window-height="1009"
     inkscape:window-x="-8"
     inkscape:window-y="-8"
     inkscape:window-maximized="1"
     inkscape:current-layer="svg8297" />
  <linearGradient
     id="a">
    <stop
       offset="0"
       stop-color="#414143"
       id="stop7925" />
    <stop
       offset=".4938"
       stop-color="#686a6b"
       id="stop7927" />
    <stop
       offset="1"
       stop-color="#414243"
       id="stop7929" />
  </linearGradient>
  <linearGradient
     id="b"
     gradientTransform="matrix(1.05,0,0,1.3968,-3.5389,-46.5653)"
     gradientUnits="userSpaceOnUse"
     x1="20.1112"
     x2="121.4445"
     xlink:href="#a"
     y1="117.637"
     y2="117.637" />
  <linearGradient
     id="c"
     gradientTransform="matrix(11.7117,0,0,1.3968,-199.3592,-46.5653)"
     gradientUnits="userSpaceOnUse"
     x1="18.4405"
     x2="27.6905"
     xlink:href="#a"
     y1="118.512"
     y2="118.512" />
  <linearGradient
     id="d"
     gradientTransform="matrix(1.05,0,0,1.3968,-3.5389,-46.5653)"
     gradientUnits="userSpaceOnUse"
     x1="20.1112"
     x2="121.4445"
     xlink:href="#a"
     y1="119.387"
     y2="119.387" />
  <linearGradient
     id="e"
     gradientTransform="matrix(11.7117,0,0,1.3968,-199.3592,-46.5653)"
     gradientUnits="userSpaceOnUse"
     x1="18.4405"
     x2="27.6905"
     xlink:href="#a"
     y1="120.262"
     y2="120.262" />
  <linearGradient
     id="f"
     gradientTransform="matrix(1.05,0,0,1.3968,-3.5389,-46.5653)"
     gradientUnits="userSpaceOnUse"
     x1="20.1112"
     x2="121.4445"
     xlink:href="#a"
     y1="121.137"
     y2="121.137" />
  <linearGradient
     id="g"
     gradientTransform="matrix(11.7117,0,0,1.3968,-199.3592,-46.5653)"
     gradientUnits="userSpaceOnUse"
     x1="18.4405"
     x2="27.6905"
     xlink:href="#a"
     y1="122.012"
     y2="122.012" />
  <linearGradient
     id="h"
     gradientTransform="matrix(1.05,0,0,1.3968,-3.5389,-46.5653)"
     gradientUnits="userSpaceOnUse"
     x1="20.1112"
     x2="121.4445"
     xlink:href="#a"
     y1="122.887"
     y2="122.887" />
  <linearGradient
     id="i"
     gradientTransform="matrix(11.7117,0,0,1.3968,-199.3592,-46.5653)"
     gradientUnits="userSpaceOnUse"
     x1="18.4405"
     x2="27.6905"
     xlink:href="#a"
     y1="123.762"
     y2="123.762" />
  <linearGradient
     id="j"
     gradientTransform="matrix(1.05,0,0,1.3968,-3.5389,-46.5653)"
     gradientUnits="userSpaceOnUse"
     x1="20.1112"
     x2="121.4445"
     xlink:href="#a"
     y1="124.637"
     y2="124.637" />
  <linearGradient
     id="k"
     gradientTransform="matrix(11.7117,0,0,1.3968,-199.3592,-46.5653)"
     gradientUnits="userSpaceOnUse"
     x1="18.4405"
     x2="27.6905"
     xlink:href="#a"
     y1="125.512"
     y2="125.512" />
  <linearGradient
     id="l"
     gradientTransform="matrix(1.05,0,0,1.3968,-3.5389,-46.5653)"
     gradientUnits="userSpaceOnUse"
     x1="20.1112"
     x2="121.4445"
     xlink:href="#a"
     y1="126.387"
     y2="126.387" />
  <linearGradient
     id="m"
     gradientTransform="matrix(11.7117,0,0,1.3968,-199.3592,-46.5653)"
     gradientUnits="userSpaceOnUse"
     x1="18.4405"
     x2="27.6905"
     xlink:href="#a"
     y1="127.262"
     y2="127.262" />
  <linearGradient
     id="n"
     gradientTransform="matrix(1.05,0,0,1.3968,-3.5389,-46.5653)"
     gradientUnits="userSpaceOnUse"
     x1="20.1112"
     x2="121.4445"
     xlink:href="#a"
     y1="128.13699"
     y2="128.13699" />
  <linearGradient
     id="o"
     gradientTransform="matrix(11.7117,0,0,1.3968,-199.3592,-46.5653)"
     gradientUnits="userSpaceOnUse"
     x1="18.4405"
     x2="27.6905"
     xlink:href="#a"
     y1="129.01199"
     y2="129.01199" />
  <radialGradient
     id="p"
     cx="115.903"
     cy="64.819504"
     gradientUnits="userSpaceOnUse"
     r="1.7083">
    <stop
       offset="0"
       stop-color="#ec7baa"
       id="stop7946" />
    <stop
       offset=".44"
       stop-color="#ed578f"
       id="stop7948" />
    <stop
       offset=".7896"
       stop-color="#ed3981"
       id="stop7950" />
    <stop
       offset="1"
       stop-color="#ee2a7b"
       id="stop7952" />
  </radialGradient>
  <linearGradient
     id="q">
    <stop
       offset="0"
       stop-color="#54c5cd"
       id="stop7955" />
    <stop
       offset=".5364"
       stop-color="#54c3cb"
       id="stop7957" />
    <stop
       offset=".7296"
       stop-color="#52bdc5"
       id="stop7959" />
    <stop
       offset=".8668"
       stop-color="#4eb4bc"
       id="stop7961" />
    <stop
       offset=".9775"
       stop-color="#47a9b0"
       id="stop7963" />
    <stop
       offset="1"
       stop-color="#45a6ad"
       id="stop7965" />
  </linearGradient>
  <radialGradient
     id="r"
     cx="83.818497"
     cy="182.84821"
     gradientUnits="userSpaceOnUse"
     r="8.5148001"
     xlink:href="#q" />
  <radialGradient
     id="s"
     cx="108.2084"
     cy="169.6528"
     gradientUnits="userSpaceOnUse"
     r="8.5148001"
     xlink:href="#q" />
  <linearGradient
     id="t">
    <stop
       offset="0"
       id="stop7970" />
    <stop
       offset=".3975"
       stop-color="#020202"
       id="stop7972" />
    <stop
       offset=".5406"
       stop-color="#0c0c0c"
       id="stop7974" />
    <stop
       offset=".6427"
       stop-color="#181718"
       id="stop7976" />
    <stop
       offset=".7253"
       stop-color="#222122"
       id="stop7978" />
    <stop
       offset=".796"
       stop-color="#292829"
       id="stop7980" />
    <stop
       offset=".8586"
       stop-color="#2b2829"
       id="stop7982" />
    <stop
       offset=".9152"
       stop-color="#292728"
       id="stop7984" />
    <stop
       offset=".9656"
       stop-color="#252424"
       id="stop7986" />
    <stop
       offset="1"
       stop-color="#202021"
       id="stop7988" />
  </linearGradient>
  <linearGradient
     id="u"
     gradientUnits="userSpaceOnUse"
     x1="73.310699"
     x2="73.310699"
     xlink:href="#t"
     y1="151.7778"
     y2="148.0278" />
  <linearGradient
     id="v"
     gradientUnits="userSpaceOnUse"
     x1="97.935699"
     x2="97.935699"
     xlink:href="#t"
     y1="151.7778"
     y2="148.0278" />
  <linearGradient
     id="w"
     gradientUnits="userSpaceOnUse"
     x1="31.3703"
     x2="51.759399"
     y1="185.36749"
     y2="164.9783">
    <stop
       offset="0"
       id="stop7993" />
    <stop
       offset=".1082"
       stop-color="#0b0a0b"
       id="stop7995" />
    <stop
       offset=".2712"
       stop-color="#1d1d1d"
       id="stop7997" />
    <stop
       offset=".4687"
       stop-color="#2a2829"
       id="stop7999" />
    <stop
       offset=".6931"
       stop-color="#2a2828"
       id="stop8001" />
    <stop
       offset=".9374"
       stop-color="#232223"
       id="stop8003" />
    <stop
       offset="1"
       stop-color="#202021"
       id="stop8005" />
  </linearGradient>
  <linearGradient
     id="x"
     gradientUnits="userSpaceOnUse"
     x1="38.143299"
     x2="44.986401"
     xlink:href="#t"
     y1="175.1729"
     y2="175.1729" />
  <linearGradient
     id="y"
     gradientUnits="userSpaceOnUse"
     x1="41.5648"
     x2="41.5648"
     xlink:href="#t"
     y1="178.5945"
     y2="171.7513" />
  <radialGradient
     id="z"
     cx="41.5648"
     cy="175.1729"
     fx="44.389301"
     fy="172.0285"
     gradientUnits="userSpaceOnUse"
     r="4.2266998">
    <stop
       offset=".0708"
       stop-color="#1d1d1e"
       id="stop8010" />
    <stop
       offset=".8739"
       id="stop8012" />
  </radialGradient>
  <linearGradient
     id="A">
    <stop
       offset="0"
       stop-color="#717774"
       id="stop8015" />
    <stop
       offset=".4887"
       stop-color="#737976"
       id="stop8017" />
    <stop
       offset=".6648"
       stop-color="#79807c"
       id="stop8019" />
    <stop
       offset=".7902"
       stop-color="#848b88"
       id="stop8021" />
    <stop
       offset=".891"
       stop-color="#969e9a"
       id="stop8023" />
    <stop
       offset=".9222"
       stop-color="#9fa8a4"
       id="stop8025" />
  </linearGradient>
  <linearGradient
     id="B"
     gradientUnits="userSpaceOnUse"
     x1="105.9723"
     x2="105.9723"
     xlink:href="#A"
     y1="201.6217"
     y2="198.9445" />
  <linearGradient
     id="C"
     gradientUnits="userSpaceOnUse"
     x1="102.4306"
     x2="102.4306"
     xlink:href="#A"
     y1="205.3744"
     y2="202.6972" />
  <linearGradient
     id="D"
     gradientUnits="userSpaceOnUse"
     x1="98.888901"
     x2="98.888901"
     xlink:href="#A"
     y1="209.127"
     y2="206.44991" />
  <linearGradient
     id="E"
     gradientUnits="userSpaceOnUse"
     x1="189.7142"
     x2="189.7142"
     y1="182.13341"
     y2="167.9491">
    <stop
       offset="0"
       stop-color="#6b6b6b"
       id="stop8031" />
    <stop
       offset=".2802"
       stop-color="#6a6a6a"
       id="stop8033" />
    <stop
       offset=".4589"
       stop-color="#656565"
       id="stop8035" />
    <stop
       offset=".6091"
       stop-color="#5d5d5c"
       id="stop8037" />
    <stop
       offset=".7437"
       stop-color="#525151"
       id="stop8039" />
    <stop
       offset=".8678"
       stop-color="#434342"
       id="stop8041" />
    <stop
       offset=".9826"
       stop-color="#333332"
       id="stop8043" />
    <stop
       offset="1"
       stop-color="#30302f"
       id="stop8045" />
  </linearGradient>
  <linearGradient
     id="F"
     gradientUnits="userSpaceOnUse"
     x1="159.76669"
     x2="219.6617"
     y1="203.97569"
     y2="203.97569">
    <stop
       offset="0"
       stop-color="#bddeb1"
       id="stop8048" />
    <stop
       offset="1"
       stop-color="#91c2e8"
       id="stop8050" />
  </linearGradient>
  <path
     d="m 17.578,119.111 h 106.4 v 1.28 h -106.4 z"
     fill="url(#b)"
     id="path8053"
     style="fill:none;stroke:#ffffff;stroke-opacity:1" />
  <path
     d="M 124.364,121.556 H 17.192 c -0.321,0 -0.581,-0.26 -0.581,-0.581 v -0.003 c 0,-0.321 0.26,-0.581 0.581,-0.581 h 107.172 c 0.321,0 0.581,0.26 0.581,0.581 v 0.003 c -10e-4,0.321 -0.26,0.581 -0.581,0.581 z"
     fill="url(#c)"
     id="path8055"
     style="fill:none;stroke:#ffffff;stroke-opacity:1" />
  <path
     d="m 17.578,121.556 h 106.4 v 1.28 h -106.4 z"
     fill="url(#d)"
     id="path8057"
     style="fill:none;stroke:#ffffff;stroke-opacity:1" />
  <path
     d="M 124.364,124 H 17.192 c -0.321,0 -0.581,-0.26 -0.581,-0.581 v -0.003 c 0,-0.321 0.26,-0.581 0.581,-0.581 h 107.172 c 0.321,0 0.581,0.26 0.581,0.581 v 0.003 c -10e-4,0.321 -0.26,0.581 -0.581,0.581 z"
     fill="url(#e)"
     id="path8059"
     style="fill:none;stroke:#ffffff;stroke-opacity:1" />
  <path
     d="M 124.364,126.445 H 17.192 c -0.321,0 -0.581,-0.26 -0.581,-0.581 v -0.003 c 0,-0.321 0.26,-0.581 0.581,-0.581 h 107.172 c 0.321,0 0.581,0.26 0.581,0.581 v 0.003 c -10e-4,0.321 -0.26,0.581 -0.581,0.581 z"
     fill="url(#g)"
     id="path8063"
     style="fill:none;stroke:#ffffff;stroke-opacity:1" />
  <path
     d="M 124.364,128.889 H 17.192 c -0.321,0 -0.581,-0.26 -0.581,-0.581 v -0.003 c 0,-0.321 0.26,-0.581 0.581,-0.581 h 107.172 c 0.321,0 0.581,0.26 0.581,0.581 v 0.003 c -10e-4,0.321 -0.26,0.581 -0.581,0.581 z"
     fill="url(#i)"
     id="path8067"
     style="fill:none;stroke:#ffffff;stroke-opacity:1" />
  <path
     d="M 124.364,131.333 H 17.192 c -0.321,0 -0.581,-0.26 -0.581,-0.581 v -0.003 c 0,-0.321 0.26,-0.581 0.581,-0.581 h 107.172 c 0.321,0 0.581,0.26 0.581,0.581 v 0.003 c -10e-4,0.322 -0.26,0.581 -0.581,0.581 z"
     fill="url(#k)"
     id="path8071"
     style="fill:none;stroke:#ffffff;stroke-opacity:1" />
  <path
     d="m 17.578,131.333 h 106.4 v 1.28 h -106.4 z"
     fill="url(#l)"
     id="path8073"
     style="fill:none;stroke:#ffffff;stroke-opacity:1" />
  <path
     d="m 17.578,133.778 h 106.4 v 1.28 h -106.4 z"
     fill="url(#n)"
     id="path8077"
     style="fill:none;stroke:#ffffff;stroke-opacity:1" />
  <path
     d="M 124.364,136.222 H 17.192 c -0.321,0 -0.581,-0.26 -0.581,-0.581 v -0.003 c 0,-0.321 0.26,-0.581 0.581,-0.581 h 107.172 c 0.321,0 0.581,0.26 0.581,0.581 v 0.003 c -10e-4,0.321 -0.26,0.581 -0.581,0.581 z"
     fill="url(#o)"
     id="path8079"
     style="fill:none;stroke:#ffffff;stroke-opacity:1" />
  <path
     d="M 14.445,119.111 C 6.467,119.111 0,112.644 0,104.667 V 16.445 C 0,8.467 6.467,2 14.445,2 h 112.667 c 7.978,0 14.445,6.467 14.445,14.445 v 88.223 c 0,7.977 -6.467,14.444 -14.444,14.444 H 14.445 Z"
     fill="#717a76"
     id="path8081"
     style="fill:none;stroke:#ffffff;stroke-opacity:1" />
  <path
     d="M 123.667,109.111 H 17.889 C 13.532,109.111 10,105.579 10,101.222 V 19.889 C 10,15.532 13.532,12 17.889,12 h 105.778 c 4.357,0 7.889,3.532 7.889,7.889 v 81.333 c 0,4.357 -3.532,7.889 -7.889,7.889 z"
     fill="#0b0f0d"
     id="path8083"
     style="fill:none;stroke:#ffffff;stroke-opacity:1" />
  <path
     d="M 34.056,23.833 H 107.5 V 97.277 H 34.056 Z"
     fill="#68bd45"
     id="path8085"
     style="fill:none;stroke:#ffffff;stroke-opacity:1" />
  <circle
     cx="115.903"
     cy="66.819"
     fill="url(#p)"
     r="1.7079999"
     id="circle8137"
     style="fill:none;stroke:#ffffff;stroke-opacity:1" />
  <path
     d="M 84.444,240.667 H 57.111 c -27.062,0 -49,-21.938 -49,-49 v -49.306 c 0,-3.39 2.748,-6.139 6.139,-6.139 h 113.056 c 3.39,0 6.139,2.748 6.139,6.139 v 49.306 c 0,27.062 -21.939,49 -49.001,49 z"
     fill="#7c827f"
     id="path8139"
     style="fill:none;stroke:#ffffff;stroke-opacity:1" />
  <path
     d="M 82.834,235.445 H 58.721 c -24.269,0 -43.943,-19.674 -43.943,-43.943 V 146.95 c 0,-3.041 2.465,-5.505 5.505,-5.505 h 100.989 c 3.041,0 5.505,2.465 5.505,5.505 v 44.551 c 0.001,24.269 -19.673,43.944 -43.943,43.944 z"
     fill="#787f7c"
     id="path8141"
     style="fill:none;stroke:#ffffff;stroke-opacity:1" />
  <path
     d="m 8.111,167.778 h 6.667 v 23.723 c 0,24.269 19.674,43.943 43.943,43.943 h 24.113 c 24.269,0 43.943,-19.674 43.943,-43.943 v -23.723 h 6.667"
     fill="none"
     stroke="#717774"
     stroke-miterlimit="10"
     stroke-width="1.2"
     id="path8143"
     style="fill:none;stroke:#ffffff;stroke-opacity:1" />
  <circle
     cx="83.819"
     cy="184.84801"
     fill="url(#r)"
     r="8.5150003"
     id="circle8173"
     style="fill:none;stroke:#ffffff;stroke-opacity:1" />
  <circle
     cx="108.208"
     cy="171.653"
     fill="url(#s)"
     r="8.5150003"
     id="circle8175"
     style="fill:none;stroke:#ffffff;stroke-opacity:1" />
  <path
     d="M 78.458,153.778 H 68.163 c -1.036,0 -1.875,-0.839 -1.875,-1.875 0,-1.036 0.839,-1.875 1.875,-1.875 h 10.295 c 1.036,0 1.875,0.839 1.875,1.875 0,1.035 -0.839,1.875 -1.875,1.875 z"
     fill="url(#u)"
     id="path8177"
     style="fill:none;stroke:#ffffff;stroke-opacity:1" />
  <path
     d="M 103.083,153.778 H 92.788 c -1.036,0 -1.875,-0.839 -1.875,-1.875 0,-1.036 0.839,-1.875 1.875,-1.875 h 10.295 c 1.036,0 1.875,0.839 1.875,1.875 0,1.035 -0.839,1.875 -1.875,1.875 z"
     fill="url(#v)"
     id="path8179"
     style="fill:none;stroke:#ffffff;stroke-opacity:1" />
  <path
     d="m 57.915,181.212 -12.312,12.312 c -2.231,2.23 -5.847,2.23 -8.077,0 L 25.214,181.212 c -2.231,-2.231 -2.231,-5.847 0,-8.077 l 12.312,-12.312 c 2.231,-2.23 5.847,-2.23 8.077,0 l 12.312,12.312 c 2.231,2.23 2.231,5.846 0,8.077 z"
     fill="url(#w)"
     id="path8181"
     style="fill:none;stroke:#ffffff;stroke-opacity:1" />
  <path
     d="m 38.143,177.173 v 15.812 c 0,0.69 0.365,1.296 0.913,1.633 1.579,0.772 3.441,0.771 5.019,-0.001 0.547,-0.338 0.911,-0.942 0.911,-1.632 v -15.812 -15.812 c 0,-0.69 -0.364,-1.294 -0.911,-1.632 -1.579,-0.773 -3.44,-0.773 -5.019,-0.001 -0.548,0.337 -0.913,0.943 -0.913,1.633 z"
     fill="url(#x)"
     id="path8183"
     style="fill:none;stroke:#ffffff;stroke-opacity:1" />
  <path
     d="m 41.565,180.594 h 15.812 c 0.69,0 1.296,-0.365 1.633,-0.913 0.772,-1.579 0.771,-3.441 -10e-4,-5.019 -0.338,-0.547 -0.942,-0.911 -1.632,-0.911 H 41.565 25.753 c -0.69,0 -1.294,0.364 -1.632,0.911 -0.773,1.579 -0.773,3.44 -10e-4,5.019 0.337,0.548 0.943,0.913 1.633,0.913 z"
     fill="url(#y)"
     id="path8185"
     style="fill:none;stroke:#ffffff;stroke-opacity:1" />
  <circle
     cx="41.564999"
     cy="177.173"
     fill="url(#z)"
     r="3.079"
     id="circle8187"
     style="fill:none;stroke:#ffffff;stroke-opacity:1" />
  <path
     d="M 114.161,203.622 H 97.783 c -0.739,0 -1.339,-0.599 -1.339,-1.339 0,-0.739 0.599,-1.339 1.339,-1.339 h 16.378 c 0.739,0 1.339,0.599 1.339,1.339 0,0.739 -0.599,1.339 -1.339,1.339 z"
     fill="url(#B)"
     id="path8189"
     style="fill:none;stroke:#ffffff;stroke-opacity:1" />
  <path
     d="M 110.62,207.374 H 94.241 c -0.739,0 -1.339,-0.599 -1.339,-1.339 0,-0.739 0.599,-1.339 1.339,-1.339 h 16.378 c 0.739,0 1.339,0.599 1.339,1.339 0,0.74 -0.599,1.339 -1.338,1.339 z"
     fill="url(#C)"
     id="path8191"
     style="fill:none;stroke:#ffffff;stroke-opacity:1" />
  <path
     d="M 107.078,211.127 H 90.7 c -0.739,0 -1.339,-0.599 -1.339,-1.339 0,-0.739 0.599,-1.339 1.339,-1.339 h 16.378 c 0.739,0 1.339,0.599 1.339,1.339 0,0.74 -0.6,1.339 -1.339,1.339 z"
     fill="url(#D)"
     id="path8193"
     style="fill:none;stroke:#ffffff;stroke-opacity:1" />
</svg>
