<?xml version="1.0" encoding="UTF-8" standalone="no"?>
<svg
   version="1.0"
   width="202pt"
   height="107pt"
   viewBox="0 0 202 107"
   preserveAspectRatio="xMidYMid"
   id="svg34"
   sodipodi:docname="ngage.svg"
   inkscape:version="1.2.2 (732a01da63, 2022-12-09)"
   xmlns:inkscape="http://www.inkscape.org/namespaces/inkscape"
   xmlns:sodipodi="http://sodipodi.sourceforge.net/DTD/sodipodi-0.dtd"
   xmlns="http://www.w3.org/2000/svg"
   xmlns:svg="http://www.w3.org/2000/svg">
  <defs
     id="defs38" />
  <sodipodi:namedview
     id="namedview36"
     pagecolor="#000000"
     bordercolor="#111111"
     borderopacity="1"
     inkscape:showpageshadow="0"
     inkscape:pageopacity="0"
     inkscape:pagecheckerboard="1"
     inkscape:deskcolor="#d1d1d1"
     inkscape:document-units="pt"
     showgrid="false"
     inkscape:zoom="2.1375"
     inkscape:cx="200.46784"
     inkscape:cy="144.5614"
     inkscape:window-width="1920"
     inkscape:window-height="1009"
     inkscape:window-x="-8"
     inkscape:window-y="-8"
     inkscape:window-maximized="1"
     inkscape:current-layer="g32" />
  <metadata
     id="metadata2">
Created by potrace 1.10, written by Peter Selinger 2001-2011
</metadata>
  <g
     transform="matrix(0.1,0,0,-0.1,0,300)"
     fill="#000000"
     stroke="none"
     id="g32">
    <path
       d="m 675,2974 c -498,-24 -526,-27 -556,-55 -14,-13 -30,-34 -35,-46 -19,-50 -80,-445 -73,-476 23,-107 130,-206 332,-306 149,-75 323,-120 545,-142 240,-24 562,34 777,141 202,100 311,200 334,306 6,27 -36,312 -65,444 -12,54 -51,98 -93,105 -31,5 -856,46 -879,44 -7,-1 -136,-8 -287,-15 z m 598,-10 c 227,-8 235,-12 166,-79 -24,-23 -44,-47 -44,-53 0,-22 35,-31 84,-20 39,8 50,7 57,-3 6,-10 -2,-17 -30,-27 -22,-7 -52,-24 -66,-38 -25,-23 -26,-27 -12,-41 11,-11 36,-16 81,-17 76,-1 90,-20 23,-30 -44,-7 -107,-39 -107,-54 0,-24 42,-44 102,-47 l 63,-4 -57,9 c -107,17 -124,43 -47,72 61,23 99,23 99,-1 0,-10 3,-39 6,-63 l 6,-46 -66,-4 c -120,-7 -141,-71 -34,-103 28,-8 60,-15 70,-15 10,0 18,-4 18,-10 0,-6 -28,-10 -63,-10 -119,0 -128,-41 -21,-95 42,-21 59,-35 56,-46 -2,-14 -15,-16 -67,-15 -109,2 -126,-50 -35,-110 39,-26 40,-27 24,-51 -8,-14 -13,-27 -11,-30 3,-3 13,9 22,26 10,21 23,31 39,31 12,0 51,14 85,31 50,25 62,35 59,52 -3,21 -19,29 -80,42 -17,3 -28,12 -28,21 0,17 -5,18 125,-10 71,-16 89,-9 150,54 29,29 36,43 27,49 -11,6 -115,27 -234,46 -21,3 -38,11 -38,17 0,5 7,7 16,4 35,-13 210,-18 252,-7 41,12 42,13 42,56 0,77 5,75 -156,75 -89,0 -144,4 -144,10 0,6 43,10 109,10 128,0 168,7 181,29 8,17 -5,109 -19,123 -3,4 -69,1 -145,-7 -121,-13 -161,-14 -145,-2 2,2 64,10 138,19 74,9 137,22 141,28 10,17 -5,80 -25,99 -24,24 -143,13 -272,-25 -45,-13 -24,22 27,46 38,18 50,29 50,46 0,28 -17,34 -96,34 -41,0 -64,4 -64,11 0,9 48,10 177,4 197,-8 224,-15 248,-68 8,-18 31,-127 50,-243 39,-236 37,-263 -20,-338 -68,-90 -330,-241 -467,-270 -13,-3 -48,-12 -78,-20 -233,-64 -547,-64 -780,0 -30,8 -66,17 -79,20 -52,11 -180,66 -259,111 -156,90 -233,167 -253,250 -7,29 0,88 26,248 19,116 42,224 50,242 24,53 52,61 249,69 146,6 178,5 174,-6 -3,-10 -24,-13 -77,-11 -116,4 -137,-32 -43,-76 71,-35 67,-32 56,-43 -6,-6 -33,-1 -74,14 -36,13 -91,29 -122,36 -51,12 -60,11 -83,-4 -15,-10 -36,-37 -46,-61 -24,-54 -54,-233 -45,-268 9,-38 65,-50 204,-45 88,3 112,1 112,-9 0,-8 -12,-13 -29,-13 -58,0 -265,-31 -278,-42 -20,-16 -16,-50 12,-91 39,-56 71,-69 142,-56 32,6 80,17 107,25 27,8 53,14 56,14 6,0 30,-67 30,-82 0,-3 -22,-8 -49,-12 -52,-7 -77,-26 -67,-51 7,-18 125,-75 156,-75 12,0 26,-12 35,-31 9,-17 19,-29 22,-26 2,3 -3,17 -12,31 -17,26 -17,26 29,67 73,65 57,99 -48,99 h -55 l -11,41 c -6,23 -10,42 -8,44 2,1 26,14 55,29 54,27 85,60 76,81 -7,19 -58,35 -109,35 -61,0 -58,24 4,44 54,18 107,67 117,108 11,44 -12,94 -65,140 -59,52 -56,72 8,57 44,-10 82,1 82,23 0,6 -18,28 -40,50 -33,30 -39,42 -31,56 8,15 38,18 228,28 120,6 241,10 268,8 28,-2 137,-6 243,-10 z m -765,-55 c 32,-17 77,-61 77,-76 0,-30 -141,-1 -207,42 -20,13 -22,19 -12,31 14,17 110,19 142,3 z m 1122,-14 c 0,-15 -15,-26 -60,-44 -64,-26 -165,-40 -165,-24 0,6 20,29 45,52 45,41 46,42 113,39 59,-3 67,-5 67,-23 z M 351,2825 c 172,-53 259,-156 205,-242 -28,-44 -86,-71 -183,-84 -93,-13 -224,-7 -258,11 -20,11 -21,16 -15,73 14,132 55,257 87,271 19,7 80,-3 164,-29 z m 1488,-17 c 9,-12 16,-35 16,-50 0,-24 -4,-27 -47,-33 -27,-4 -55,-9 -65,-11 -12,-4 -20,7 -32,48 -18,63 -14,68 61,68 42,0 55,-4 67,-22 z m -144,-30 c 6,-24 13,-48 15,-55 4,-12 -91,-29 -116,-21 -7,2 -18,23 -24,46 l -13,42 42,10 c 22,6 46,13 51,15 26,9 35,2 45,-37 z m -140,-24 c 22,-56 5,-69 -70,-56 -57,10 -58,29 -5,59 51,29 63,29 75,-3 z m 327,-132 c 7,-61 0,-66 -87,-67 h -55 l -3,62 -3,62 63,3 c 35,2 66,0 71,-3 4,-3 10,-29 14,-57 z m -159,-14 3,-58 h -59 -59 l -7,38 c -12,76 -7,81 79,78 l 40,-1 z m -128,-149 v -51 l -47,7 c -51,7 -104,32 -111,53 -6,18 55,41 111,42 h 47 z m 130,-8 v -59 l -47,5 c -73,7 -73,7 -73,63 v 50 h 60 60 z m 168,10 c 2,-24 0,-47 -5,-52 -5,-5 -41,-11 -81,-15 l -73,-7 2,62 2,62 76,-3 76,-3 z M 409,2413 c 14,-85 12,-89 -52,-107 -32,-9 -61,-16 -64,-16 -8,0 -25,55 -32,107 l -6,42 42,4 c 109,9 105,11 112,-30 z m 121,27 c 43,-16 30,-49 -34,-82 -30,-16 -58,-25 -61,-21 -4,4 -10,32 -13,61 l -6,52 h 44 c 24,0 56,-5 70,-10 z M 267,2300 c 2,-12 -9,-16 -47,-18 -46,-3 -53,0 -82,30 -37,39 -50,79 -31,95 7,6 40,15 73,20 l 60,8 12,-60 c 6,-33 13,-67 15,-75 z m 1312,33 c -12,-66 -14,-66 -82,-32 -92,46 -83,66 31,68 l 58,1 z m 128,18 c 8,-7 -9,-92 -21,-104 -4,-4 -31,-2 -59,5 -40,9 -51,15 -48,27 3,9 8,32 11,52 l 7,36 51,-5 c 29,-2 55,-7 59,-11 z m 98,-17 c 31,-4 50,-12 50,-20 0,-7 -19,-29 -42,-48 -31,-27 -51,-36 -79,-36 h -37 l 15,61 c 11,42 20,59 29,55 8,-3 36,-8 64,-12 z M 580,2206 c 18,-13 18,-15 2,-40 -10,-14 -31,-33 -47,-41 l -30,-16 -20,46 c -11,26 -20,51 -20,56 0,14 94,11 115,-5 z m -109,-43 c 11,-27 21,-51 22,-55 7,-15 -23,-7 -90,24 -75,34 -86,58 -33,69 72,16 81,12 101,-38 z m 1071,35 c -31,-78 -40,-98 -47,-98 -4,0 -27,17 -50,38 -61,54 -52,72 36,72 49,0 65,-3 61,-12 z m 106,-10 c 28,-15 20,-26 -43,-58 -57,-29 -95,-39 -88,-22 2,4 11,28 22,54 18,45 19,46 55,41 20,-3 44,-10 54,-15 z"
       id="path4"
       style="stroke:none;stroke-opacity:1;fill:#ffffff;fill-opacity:1;stroke-width:0;stroke-dasharray:none" />
    <path
       d="m 676,2870 c -89,-230 -99,-425 -30,-615 34,-94 59,-122 145,-162 72,-33 201,-47 299,-34 138,20 223,71 262,159 88,199 74,461 -38,705 l -12,27 H 1004 706 Z m 624,60 c 4,-7 -97,-10 -295,-10 -198,0 -299,3 -295,10 4,6 113,10 295,10 182,0 291,-4 295,-10 z m 13,-82 c 62,-200 59,-454 -6,-588 -15,-30 -27,-39 -87,-59 -61,-22 -88,-25 -210,-25 -121,-1 -150,2 -213,23 -84,27 -92,37 -123,158 -33,132 -23,330 26,500 l 16,53 h 289 289 z m -638,-49 c -31,-121 -42,-248 -30,-347 10,-75 48,-213 64,-229 2,-3 35,-16 73,-30 126,-47 356,-42 475,9 42,18 50,26 68,75 58,156 62,325 11,524 -10,41 -18,75 -16,77 5,6 53,-150 66,-213 40,-198 -16,-466 -111,-529 -75,-50 -109,-59 -241,-64 -145,-5 -211,9 -291,61 -41,27 -52,42 -77,102 -16,38 -34,94 -40,123 -16,75 -13,244 4,327 16,75 55,199 61,193 1,-2 -6,-37 -16,-79 z"
       id="path6"
       style="stroke:none;stroke-opacity:1;fill:#ffffff;fill-opacity:1;stroke-width:0;stroke-dasharray:none" />
    <path
       d="m 278,2780 c -41,-25 -61,-63 -61,-120 0,-84 53,-140 133,-140 109,0 176,106 129,206 -33,69 -133,96 -201,54 z m 57,-5 c -11,-13 -8,-15 21,-15 33,1 33,1 14,17 -19,15 -18,15 14,9 39,-7 67,-29 87,-68 16,-31 19,-62 4,-38 -7,11 -10,6 -10,-20 0,-26 3,-31 10,-20 9,13 10,13 10,0 0,-26 -38,-78 -69,-95 -40,-20 -58,-20 -41,0 11,13 8,15 -19,15 -31,0 -42,-14 -18,-23 6,-3 1,-6 -12,-6 -31,-1 -101,68 -101,100 0,19 2,21 10,9 7,-11 10,-6 10,20 0,26 -3,31 -10,20 -8,-12 -10,-10 -10,9 0,30 70,101 100,101 19,0 20,-2 10,-15 z"
       id="path8"
       style="stroke:none;stroke-opacity:1;fill:#ffffff;fill-opacity:1;stroke-width:0;stroke-dasharray:none" />
  </g>
</svg>
