<?xml version="1.0" encoding="UTF-8" standalone="no"?>
<!-- Generator: Adobe Illustrator 13.0.0, SVG Export Plug-In . SVG Version: 6.00 Build 14948)  -->

<svg
   version="1.2"
   id="Layer_3"
   x="0px"
   y="0px"
   width="462.189"
   height="324.26001"
   viewBox="0 0 462.18897 324.26"
   xml:space="preserve"
   sodipodi:docname="ti99.svg"
   inkscape:version="1.2.2 (732a01da63, 2022-12-09)"
   xmlns:inkscape="http://www.inkscape.org/namespaces/inkscape"
   xmlns:sodipodi="http://sodipodi.sourceforge.net/DTD/sodipodi-0.dtd"
   xmlns="http://www.w3.org/2000/svg"
   xmlns:svg="http://www.w3.org/2000/svg"><defs
   id="defs4255" /><sodipodi:namedview
   id="namedview4253"
   pagecolor="#000000"
   bordercolor="#111111"
   borderopacity="1"
   inkscape:showpageshadow="0"
   inkscape:pageopacity="0"
   inkscape:pagecheckerboard="1"
   inkscape:deskcolor="#d1d1d1"
   showgrid="false"
   inkscape:zoom="2.0445042"
   inkscape:cx="300.07275"
   inkscape:cy="175.10358"
   inkscape:window-width="1920"
   inkscape:window-height="1009"
   inkscape:window-x="-8"
   inkscape:window-y="-8"
   inkscape:window-maximized="1"
   inkscape:current-layer="Layer_3" />




















<path
   fill="#f4f4f4"
   d="m 25.155887,312.63102 c -4.157,0 -7.526,-3.37 -7.528,-7.525 v 0 -129.399 c 0.002,-4.158 3.372,-7.528 7.528,-7.528 v 0 H 293.27589 c 4.159,0 7.528,3.37 7.528,7.528 v 0 129.398 c 0,4.155 -3.369,7.525 -7.528,7.525 v 0 H 25.155887 Z m -5.528,-136.924 v 129.398 c 0.006,3.05 2.476,5.52 5.527,5.524 v 0 H 293.27489 c 3.054,-0.005 5.523,-2.475 5.527,-5.524 v 0 -129.398 c -0.004,-3.054 -2.474,-5.523 -5.527,-5.527 v 0 l -268.120003,-0.002 c -3.051,0.006 -5.521,2.475 -5.527,5.529 z"
   id="path2" /><path
   fill="#f4f4f4"
   d="m 31.595887,301.20902 c -2.096,-0.002 -3.795,-1.699 -3.798,-3.796 v 0 -16.556 c 0.002,-2.101 1.702,-3.798 3.798,-3.8 v 0 h 16.555 c 2.098,0.002 3.798,1.701 3.798,3.8 v 0 16.556 c 0,2.095 -1.7,3.794 -3.798,3.796 v 0 z m -1.795,-20.352 -0.002,16.556 c 0.002,0.987 0.807,1.794 1.797,1.794 v 0 h 16.555 c 0.993,0 1.795,-0.805 1.797,-1.794 v 0 -16.556 c -0.002,-0.995 -0.803,-1.798 -1.797,-1.798 v 0 h -16.555 c -0.99,0.001 -1.795,0.805 -1.795,1.798 z"
   id="path4" /><path
   fill="#f4f4f4"
   d="m 31.596887,276.33202 c -2.097,-0.002 -3.797,-1.702 -3.797,-3.799 v 0 -16.553 c 0,-2.099 1.7,-3.799 3.797,-3.799 v 0 h 16.555 c 2.097,0 3.797,1.7 3.797,3.799 v 0 16.553 c 0,2.097 -1.698,3.797 -3.797,3.799 v 0 z m -1.796,-20.352 v 16.553 c 0.002,0.992 0.807,1.797 1.796,1.797 v 0 h 16.555 c 0.992,0 1.796,-0.805 1.796,-1.797 v 0 l 0.002,-16.553 c -0.002,-0.994 -0.804,-1.798 -1.798,-1.798 v 0 h -16.555 c -0.992,0.001 -1.794,0.804 -1.796,1.798 z"
   id="path6" /><path
   fill="#f4f4f4"
   d="m 55.45189,276.33002 c -2.099003,0 -3.799003,-1.698 -3.799003,-3.797 v 0 -16.553 c 0,-2.099 1.701,-3.799 3.799003,-3.799 v 0 h 16.55 c 2.099,0 3.799,1.7 3.799,3.799 v 0 16.553 c 0,2.097 -1.701,3.797 -3.799,3.799 v 0 z m -1.799003,-20.35 v 16.553 c 0,0.992 0.807003,1.797 1.799003,1.797 v 0 h 16.55 c 0.994,0 1.799,-0.805 1.799,-1.797 v 0 -16.553 c 0,-0.994 -0.805,-1.798 -1.799,-1.798 v 0 h -16.55 c -0.994,0.001 -1.799003,0.804 -1.799003,1.798 z"
   id="path8" /><path
   fill="#f4f4f4"
   d="m 79.15689,276.33002 c -2.099,0 -3.797,-1.7 -3.797,-3.797 v 0 -16.553 c 0,-2.099 1.701,-3.799 3.797,-3.799 v 0 h 16.555 c 2.097,0 3.797,1.698 3.797,3.799 v 0 16.553 c 0,2.099 -1.701,3.797 -3.797,3.799 v 0 z m -1.797,-20.35 v 16.553 c 0,0.992 0.805,1.797 1.796,1.797 v 0 h 16.555 c 0.99,0 1.796,-0.805 1.796,-1.797 v 0 l 0.002,-16.553 c -0.002,-0.994 -0.809,-1.798 -1.799,-1.798 v 0 h -16.555 c -0.99,0.001 -1.795,0.804 -1.795,1.798 z"
   id="path10" /><path
   fill="#f4f4f4"
   d="m 103.00989,276.33002 c -2.099,0 -3.797,-1.7 -3.797,-3.797 v 0 -16.553 c 0,-2.099 1.698,-3.799 3.797,-3.799 v 0 h 16.553 c 2.098,0 3.799,1.698 3.799,3.799 v 0 16.553 c 0,2.099 -1.701,3.797 -3.799,3.799 v 0 z m -1.799,-20.35 v 16.553 c 0.002,0.992 0.807,1.797 1.799,1.797 v 0 h 16.553 c 0.992,0 1.796,-0.805 1.798,-1.797 v 0 -16.553 c -0.002,-0.994 -0.807,-1.798 -1.798,-1.798 v 0 h -16.553 c -0.993,0.001 -1.797,0.804 -1.799,1.798 z"
   id="path12" /><path
   fill="#f4f4f4"
   d="m 126.71589,276.33202 c -2.098,-0.002 -3.799,-1.702 -3.799,-3.799 v 0 -16.553 c 0,-2.099 1.701,-3.799 3.799,-3.799 v 0 h 16.553 c 2.097,0 3.797,1.7 3.797,3.799 v 0 16.553 c 0,2.097 -1.698,3.797 -3.797,3.799 v 0 z m -1.798,-20.352 v 16.553 c 0.002,0.992 0.805,1.797 1.798,1.797 v 0 h 16.553 c 0.992,0 1.796,-0.805 1.799,-1.797 v 0 -16.553 c -0.002,-0.994 -0.805,-1.798 -1.799,-1.798 v 0 h -16.553 c -0.994,0.001 -1.796,0.804 -1.798,1.798 z"
   id="path14" /><path
   fill="#f4f4f4"
   d="m 150.56889,276.33202 c -2.099,-0.002 -3.799,-1.702 -3.799,-3.799 v 0 -16.553 c 0,-2.099 1.701,-3.799 3.799,-3.799 v 0 h 16.553 c 2.096,0 3.797,1.7 3.797,3.799 v 0 16.553 c 0,2.097 -1.698,3.797 -3.797,3.799 v 0 z m -1.798,-20.352 v 16.553 c 0,0.992 0.804,1.797 1.798,1.797 v 0 h 16.553 c 0.992,0 1.794,-0.805 1.796,-1.797 v 0 -16.553 c -0.002,-0.994 -0.805,-1.798 -1.796,-1.798 v 0 h -16.553 c -0.994,0.001 -1.798,0.804 -1.798,1.798 z"
   id="path16" /><path
   fill="#f4f4f4"
   d="m 174.27389,276.33202 c -2.098,-0.002 -3.797,-1.702 -3.797,-3.799 v 0 -16.553 c 0,-2.099 1.701,-3.799 3.797,-3.799 v 0 h 16.555 c 2.096,0 3.797,1.7 3.797,3.799 v 0 16.553 c 0,2.099 -1.701,3.797 -3.797,3.799 v 0 z m -1.797,-20.352 v 16.553 c 0,0.992 0.805,1.797 1.796,1.797 v 0 l 16.555,0.002 c 0.99,-0.002 1.796,-0.807 1.796,-1.799 v 0 -16.553 c 0,-0.994 -0.805,-1.798 -1.796,-1.798 v 0 h -16.555 c -0.991,0.001 -1.796,0.804 -1.796,1.798 z"
   id="path18" /><path
   fill="#f4f4f4"
   d="m 198.12689,276.33002 c -2.099,0 -3.797,-1.7 -3.797,-3.797 v 0 -16.553 c 0,-2.099 1.698,-3.799 3.797,-3.799 v 0 h 16.553 c 2.099,0 3.799,1.7 3.799,3.799 v 0 16.553 c 0,2.099 -1.7,3.797 -3.799,3.799 v 0 z m -1.797,-20.35 v 16.553 c 0,0.992 0.804,1.797 1.796,1.797 v 0 l 16.553,0.002 c 0.992,-0.002 1.796,-0.807 1.798,-1.799 v 0 -16.553 c -0.002,-0.994 -0.804,-1.798 -1.798,-1.798 v 0 h -16.553 c -0.991,0.001 -1.796,0.804 -1.796,1.798 z"
   id="path20" /><path
   fill="#f4f4f4"
   d="m 221.83389,276.33002 c -2.099,0 -3.797,-1.698 -3.799,-3.797 v 0 -16.553 c 0.002,-2.099 1.701,-3.799 3.799,-3.799 v 0 h 16.553 c 2.096,0 3.797,1.7 3.797,3.799 v 0 16.553 c 0,2.097 -1.699,3.797 -3.797,3.799 v 0 z m -1.799,-20.35 v 16.553 c 0.002,0.992 0.807,1.797 1.799,1.797 v 0 l 16.553,0.002 c 0.991,-0.002 1.796,-0.807 1.796,-1.799 v 0 l 0.002,-16.553 c -0.002,-0.994 -0.807,-1.798 -1.798,-1.798 v 0 h -16.553 c -0.992,0.001 -1.797,0.804 -1.799,1.798 z"
   id="path22" /><path
   fill="#f4f4f4"
   d="m 245.68389,276.33202 c -2.097,-0.002 -3.797,-1.702 -3.797,-3.799 v 0 -16.553 c 0,-2.099 1.7,-3.799 3.797,-3.799 v 0 h 16.553 c 2.099,0 3.799,1.7 3.799,3.799 v 0 16.553 c 0,2.097 -1.7,3.797 -3.799,3.799 v 0 z m -1.797,-20.352 v 16.553 c 0.002,0.992 0.807,1.797 1.797,1.797 v 0 l 16.553,0.002 c 0.994,-0.002 1.798,-0.807 1.798,-1.799 v 0 l 0.002,-16.553 c -0.002,-0.994 -0.806,-1.798 -1.8,-1.798 v 0 h -16.553 c -0.99,0.001 -1.795,0.804 -1.797,1.798 z"
   id="path24" /><path
   fill="#f4f4f4"
   d="m 38.722887,252.32702 c -2.099,-0.002 -3.798,-1.695 -3.798,-3.794 v 0 -16.555 c 0,-2.099 1.7,-3.799 3.798,-3.801 v 0 H 55.27589 c 2.096,0.002 3.796,1.702 3.796,3.801 v 0 16.555 h 0.002 c -0.002,2.099 -1.702,3.794 -3.798,3.794 v 0 z m -1.8,-20.348 v 16.555 c 0.002,0.991 0.804,1.796 1.8,1.796 v 0 H 55.27589 c 0.993,-0.003 1.795,-0.805 1.797,-1.796 v 0 -16.555 c -0.002,-0.995 -0.806,-1.797 -1.797,-1.8 v 0 H 38.722887 c -0.993,0.003 -1.797,0.804 -1.8,1.8 z"
   id="path26" /><path
   fill="#f4f4f4"
   d="m 62.57489,252.32702 c -2.096,-0.002 -3.798,-1.695 -3.798,-3.794 v 0 -16.555 c 0,-2.099 1.7,-3.799 3.798,-3.801 v 0 l 16.553,0.002 c 2.099,0 3.796,1.7 3.798,3.799 v 0 16.555 c 0,2.099 -1.702,3.794 -3.798,3.794 v 0 z m -1.799,-20.348 v 16.555 c 0.002,0.991 0.804,1.796 1.799,1.796 v 0 h 16.553 c 0.993,-0.003 1.795,-0.805 1.797,-1.796 v 0 -16.555 c -0.002,-0.995 -0.804,-1.797 -1.797,-1.8 v 0 h -16.553 c -0.993,0.003 -1.797,0.804 -1.799,1.8 z"
   id="path28" /><path
   fill="#f4f4f4"
   d="m 86.27989,252.32702 c -2.097,0 -3.796,-1.695 -3.798,-3.794 v 0 -16.555 c 0.002,-2.101 1.702,-3.799 3.798,-3.801 v 0 l 16.555,0.002 c 2.097,0 3.796,1.7 3.796,3.799 v 0 16.555 c 0,2.099 -1.702,3.794 -3.796,3.794 v 0 z m -1.797,-20.348 v 16.555 c 0.002,0.991 0.804,1.793 1.797,1.796 v 0 h 16.555 c 0.993,-0.003 1.795,-0.805 1.795,-1.796 v 0 h 0.002 l -0.002,-16.555 c 0,-0.995 -0.804,-1.797 -1.795,-1.8 v 0 h -16.555 c -0.991,0.003 -1.795,0.806 -1.797,1.8 z"
   id="path30" /><path
   fill="#f4f4f4"
   d="m 110.13289,252.32702 c -2.097,0 -3.798,-1.695 -3.798,-3.794 v 0 -16.555 c 0,-2.101 1.7,-3.799 3.798,-3.801 v 0 l 16.555,0.002 c 2.097,0 3.796,1.698 3.796,3.799 v 0 16.555 h 0.002 c -0.002,2.099 -1.704,3.794 -3.798,3.794 v 0 z m -1.8,-20.348 0.002,16.555 c 0,0.991 0.804,1.793 1.797,1.796 v 0 h 16.555 c 0.993,-0.003 1.795,-0.805 1.797,-1.796 v 0 -16.555 c -0.002,-0.993 -0.806,-1.797 -1.797,-1.8 v 0 h -16.555 c -0.991,0.003 -1.797,0.806 -1.799,1.8 z"
   id="path32" /><path
   fill="#f4f4f4"
   d="m 133.83989,252.32702 c -2.097,-0.002 -3.799,-1.695 -3.799,-3.794 v 0 -16.555 c 0,-2.099 1.7,-3.799 3.799,-3.801 v 0 h 16.555 c 2.097,0.002 3.796,1.702 3.796,3.801 v 0 16.555 c 0,2.099 -1.702,3.794 -3.796,3.794 v 0 z m -1.798,-20.348 v 16.555 c 0,0.991 0.802,1.796 1.798,1.796 v 0 h 16.555 c 0.991,-0.003 1.795,-0.805 1.795,-1.796 v 0 -16.555 c 0,-0.995 -0.806,-1.797 -1.795,-1.8 v 0 h -16.555 c -0.994,0.003 -1.798,0.804 -1.798,1.8 z"
   id="path34" /><path
   fill="#f4f4f4"
   d="m 157.69189,252.32702 c -2.097,-0.002 -3.798,-1.695 -3.798,-3.794 v 0 -16.555 c 0,-2.099 1.7,-3.799 3.798,-3.801 v 0 h 16.555 c 2.097,0.002 3.796,1.702 3.796,3.801 v 0 16.555 c 0,2.099 -1.702,3.794 -3.796,3.794 v 0 z m -1.798,-20.348 v 16.555 c 0.002,0.991 0.802,1.796 1.797,1.796 v 0 h 16.555 c 0.991,-0.003 1.795,-0.805 1.795,-1.796 v 0 h 0.002 l -0.002,-16.555 c 0,-0.995 -0.806,-1.797 -1.795,-1.8 v 0 h -16.555 c -0.993,0.003 -1.795,0.804 -1.797,1.8 z"
   id="path36" /><path
   fill="#f4f4f4"
   d="m 181.39889,252.32702 c -2.097,0 -3.798,-1.695 -3.798,-3.794 v 0 l -0.002,-16.555 c 0.002,-2.101 1.702,-3.799 3.8,-3.801 v 0 h 16.553 c 2.097,0.002 3.796,1.702 3.796,3.801 v 0 16.555 c 0,2.099 -1.7,3.794 -3.796,3.794 v 0 z m -1.8,-20.348 v 16.555 c 0.002,0.991 0.804,1.793 1.799,1.796 v 0 h 16.553 c 0.993,-0.003 1.795,-0.805 1.797,-1.796 v 0 -16.555 c -0.002,-0.995 -0.806,-1.797 -1.797,-1.8 v 0 h -16.553 c -0.992,0.003 -1.797,0.806 -1.799,1.8 z"
   id="path38" /><path
   fill="#f4f4f4"
   d="m 205.24989,252.32902 c -2.097,0 -3.799,-1.698 -3.799,-3.797 v 0 -16.555 c 0,-2.099 1.7,-3.799 3.799,-3.799 v 0 h 16.555 c 2.097,0 3.794,1.7 3.796,3.799 v 0 16.555 c 0,2.099 -1.702,3.797 -3.796,3.797 v 0 z m -1.797,-20.351 v 16.555 c 0,0.993 0.804,1.795 1.797,1.795 v 0 h 16.555 c 0.991,0 1.795,-0.802 1.795,-1.795 v 0 -16.555 c 0,-0.993 -0.807,-1.798 -1.795,-1.8 v 0 h -16.555 c -0.991,0.002 -1.797,0.806 -1.797,1.8 z"
   id="path40" /><path
   fill="#f4f4f4"
   d="m 228.95789,252.32702 c -2.099,-0.002 -3.799,-1.695 -3.799,-3.794 v 0 l -0.002,-16.555 c 0.002,-2.099 1.702,-3.799 3.801,-3.801 v 0 l 16.552,0.002 c 2.099,0 3.796,1.7 3.796,3.799 v 0 16.555 c 0,2.097 -1.699,3.794 -3.796,3.794 v 0 z m -1.8,-20.348 v 16.555 c 0.002,0.991 0.804,1.796 1.8,1.796 v 0 h 16.552 c 0.993,-0.003 1.795,-0.803 1.798,-1.796 v 0 -16.555 c -0.003,-0.995 -0.807,-1.797 -1.798,-1.8 v 0 h -16.552 c -0.995,0.003 -1.797,0.804 -1.8,1.8 z"
   id="path42" /><path
   fill="#f4f4f4"
   d="m 252.80989,252.32702 c -2.099,-0.002 -3.799,-1.697 -3.799,-3.794 v 0 l -0.002,-16.555 c 0.002,-2.099 1.7,-3.799 3.801,-3.801 v 0 l 16.553,0.002 c 2.097,0 3.796,1.7 3.796,3.799 v 0 16.555 c 0,2.097 -1.701,3.794 -3.796,3.794 v 0 z m -1.799,-20.348 v 16.555 c 0.002,0.993 0.803,1.796 1.8,1.796 v 0 h 16.553 c 0.993,-0.003 1.795,-0.803 1.795,-1.796 v 0 h 0.002 l -0.002,-16.555 c 0,-0.995 -0.804,-1.797 -1.795,-1.8 v 0 h -16.554 c -0.995,0.003 -1.798,0.804 -1.799,1.8 z"
   id="path44" /><path
   fill="#f4f4f4"
   d="m 276.51689,252.32702 c -2.097,0 -3.799,-1.695 -3.799,-3.794 v 0 l -0.002,-16.555 c 0.002,-2.101 1.702,-3.799 3.801,-3.801 v 0 l 16.553,0.002 c 2.097,0 3.796,1.7 3.796,3.799 v 0 16.555 c 0,2.097 -1.701,3.794 -3.796,3.794 v 0 z m -1.799,-20.348 v 16.555 c 0.002,0.991 0.805,1.793 1.8,1.796 v 0 h 16.553 c 0.993,-0.003 1.795,-0.803 1.795,-1.796 v 0 h 0.002 l -0.002,-16.555 c 0,-0.995 -0.804,-1.797 -1.795,-1.8 v 0 h -16.553 c -0.994,0.003 -1.799,0.806 -1.8,1.8 z"
   id="path46" /><path
   fill="#f4f4f4"
   d="m 32.965887,228.42502 c -2.099,-0.002 -3.798,-1.7 -3.798,-3.8 v 0 -16.552 c 0,-2.098 1.699,-3.798 3.798,-3.798 v 0 h 16.553 c 2.099,0 3.798,1.7 3.798,3.798 v 0 16.552 c 0,2.1 -1.699,3.798 -3.798,3.8 v 0 z m -1.798,-20.352 v 16.552 c 0.002,0.995 0.804,1.797 1.798,1.799 v 0 h 16.553 c 0.992,-0.002 1.796,-0.804 1.798,-1.799 v 0 -16.552 c -0.002,-0.993 -0.806,-1.797 -1.798,-1.799 v 0 h -16.553 c -0.994,0.002 -1.796,0.806 -1.798,1.799 z"
   id="path48" /><path
   fill="#f4f4f4"
   d="m 56.81789,228.42502 c -2.099,-0.002 -3.798003,-1.7 -3.798003,-3.8 v 0 -16.552 c 0,-2.098 1.699003,-3.798 3.798003,-3.798 v 0 h 16.555 c 2.097,0 3.796,1.7 3.796,3.798 v 0 16.552 c 0,2.1 -1.699,3.798 -3.796,3.8 v 0 z m -1.798,-20.352 v 16.552 c 0.002,0.995 0.804,1.797 1.798,1.799 v 0 h 16.555 c 0.992,-0.002 1.794,-0.804 1.796,-1.799 v 0 -16.552 c -0.002,-0.993 -0.806,-1.797 -1.796,-1.799 v 0 h -16.555 c -0.993,0.002 -1.796,0.806 -1.798,1.799 z"
   id="path50" /><path
   fill="#f4f4f4"
   d="m 80.52489,228.42502 c -2.097,-0.002 -3.8,-1.7 -3.8,-3.8 v 0 -16.552 c 0,-2.1 1.701,-3.798 3.8,-3.798 v 0 h 16.552 c 2.097,0 3.798,1.698 3.798,3.798 v 0 16.552 c 0,2.1 -1.701,3.798 -3.798,3.8 v 0 z m -1.798,-20.352 -0.002,16.552 c 0.002,0.993 0.806,1.797 1.801,1.799 v 0 h 16.552 c 0.993,-0.002 1.796,-0.804 1.798,-1.799 v 0 -16.552 c -0.002,-0.993 -0.806,-1.797 -1.798,-1.799 v 0 h -16.552 c -0.994,0.002 -1.799,0.806 -1.799,1.799 z"
   id="path52" /><path
   fill="#f4f4f4"
   d="m 104.37689,228.42502 c -2.097,-0.002 -3.798,-1.7 -3.798,-3.8 v 0 -16.552 c 0,-2.098 1.701,-3.798 3.798,-3.798 v 0 h 16.553 c 2.099,0 3.798,1.698 3.8,3.798 v 0 16.552 h -0.002 c 0,2.1 -1.699,3.798 -3.798,3.8 v 0 z m -1.797,-20.352 -0.002,16.552 c 0.002,0.995 0.806,1.797 1.798,1.799 v 0 h 16.553 c 0.993,-0.002 1.796,-0.804 1.798,-1.799 v 0 -16.552 c -0.002,-0.993 -0.806,-1.797 -1.798,-1.799 v 0 h -16.553 c -0.991,0.002 -1.796,0.806 -1.796,1.799 z"
   id="path54" /><path
   fill="#f4f4f4"
   d="m 128.08389,228.42502 c -2.099,-0.002 -3.798,-1.7 -3.8,-3.8 v 0 -16.552 c 0.002,-2.098 1.701,-3.798 3.8,-3.798 v 0 h 16.553 c 2.099,0 3.795,1.7 3.798,3.798 v 0 16.552 c 0,2.1 -1.701,3.798 -3.798,3.8 v 0 z m -1.799,-20.352 v 16.552 c 0.002,0.995 0.804,1.797 1.798,1.799 v 0 h 16.553 c 0.992,-0.002 1.796,-0.804 1.798,-1.799 v 0 h -0.002 v -16.552 c 0,-0.993 -0.804,-1.797 -1.796,-1.799 v 0 h -16.553 c -0.994,0.002 -1.796,0.806 -1.798,1.799 z"
   id="path56" /><path
   fill="#f4f4f4"
   d="m 151.93589,228.42302 c -2.097,0 -3.798,-1.698 -3.798,-3.798 v 0 -16.552 c 0,-2.1 1.701,-3.798 3.798,-3.798 v 0 h 16.552 c 2.099,0 3.798,1.7 3.798,3.798 v 0 16.552 c 0,2.1 -1.699,3.798 -3.798,3.8 v 0 z m -1.799,-20.35 v 16.552 c 0.002,0.995 0.806,1.797 1.798,1.799 v 0 h 16.552 c 0.993,-0.002 1.796,-0.804 1.799,-1.799 v 0 -16.552 c -0.002,-0.993 -0.806,-1.797 -1.799,-1.799 v 0 h -16.552 c -0.992,0.002 -1.796,0.806 -1.798,1.799 z"
   id="path58" /><path
   fill="#f4f4f4"
   d="m 175.64189,228.42302 c -2.099,0 -3.797,-1.698 -3.797,-3.798 v 0 -16.552 c 0,-2.098 1.699,-3.798 3.797,-3.798 v 0 h 16.553 c 2.097,0 3.798,1.698 3.798,3.798 v 0 16.552 c 0,2.1 -1.701,3.798 -3.798,3.8 v 0 z m -1.798,-20.35 v 16.552 c 0.002,0.995 0.804,1.797 1.798,1.799 v 0 h 16.553 c 0.993,-0.002 1.796,-0.804 1.798,-1.799 v 0 -16.552 c -0.002,-0.993 -0.806,-1.797 -1.798,-1.799 v 0 h -16.553 c -0.992,0.002 -1.796,0.806 -1.798,1.799 z"
   id="path60" /><path
   fill="#f4f4f4"
   d="m 199.49389,228.42502 c -2.097,-0.002 -3.798,-1.7 -3.798,-3.8 v 0 -16.552 c 0,-2.098 1.699,-3.798 3.798,-3.798 v 0 h 16.555 c 2.097,0 3.796,1.7 3.796,3.798 v 0 16.552 c 0,2.1 -1.699,3.798 -3.796,3.8 v 0 z m -1.798,-20.352 v 16.552 c 0.002,0.995 0.804,1.797 1.798,1.799 v 0 h 16.555 c 0.99,-0.002 1.794,-0.804 1.796,-1.799 v 0 -16.552 c -0.002,-0.993 -0.806,-1.797 -1.796,-1.799 v 0 h -16.555 c -0.992,0.002 -1.796,0.806 -1.798,1.799 z"
   id="path62" /><path
   fill="#f4f4f4"
   d="m 223.20089,228.42502 c -2.099,-0.002 -3.8,-1.7 -3.8,-3.8 v 0 -16.552 c 0,-2.098 1.701,-3.798 3.8,-3.798 v 0 h 16.552 c 2.099,0 3.798,1.7 3.798,3.798 v 0 16.552 c 0,2.1 -1.701,3.798 -3.798,3.8 v 0 z m -1.798,-20.352 -0.002,16.552 c 0.002,0.995 0.806,1.797 1.801,1.799 v 0 h 16.552 c 0.992,-0.002 1.796,-0.804 1.799,-1.799 v 0 -16.552 c -0.003,-0.993 -0.807,-1.797 -1.799,-1.799 v 0 h -16.552 c -0.995,0.002 -1.799,0.806 -1.799,1.799 z"
   id="path64" /><path
   fill="#f4f4f4"
   d="m 247.05289,228.42302 c -2.098,0 -3.798,-1.698 -3.798,-3.798 v 0 -16.552 c 0,-2.098 1.698,-3.798 3.798,-3.798 v 0 h 16.554 c 2.098,0 3.796,1.7 3.796,3.798 v 0 16.552 c 0,2.1 -1.698,3.798 -3.796,3.8 v 0 z m -1.798,-20.35 v 16.552 c 0.002,0.995 0.806,1.797 1.799,1.799 v 0 h 16.554 c 0.991,-0.002 1.795,-0.804 1.797,-1.799 v 0 h -0.002 v -16.552 c 0,-0.993 -0.804,-1.797 -1.795,-1.799 v 0 h -16.554 c -0.994,0.002 -1.797,0.806 -1.799,1.799 z"
   id="path66" /><path
   fill="#f4f4f4"
   d="m 270.75989,228.42502 c -2.099,-0.002 -3.798,-1.7 -3.798,-3.8 v 0 -16.552 c 0,-2.098 1.699,-3.798 3.798,-3.798 v 0 h 16.555 c 2.097,0 3.796,1.7 3.798,3.798 v 0 16.552 h -0.002 c 0,2.1 -1.699,3.798 -3.796,3.8 v 0 z m -1.798,-20.352 v 16.552 c 0.002,0.995 0.806,1.797 1.798,1.799 v 0 h 16.555 c 0.99,-0.002 1.795,-0.804 1.797,-1.799 v 0 -16.552 c -0.002,-0.993 -0.807,-1.797 -1.797,-1.799 v 0 h -16.555 c -0.993,0.002 -1.796,0.806 -1.798,1.799 z"
   id="path68" /><path
   fill="#f4f4f4"
   d="m 25.354887,204.32402 c -2.097,-0.002 -3.797,-1.7 -3.799,-3.797 v 0 l 0.002,-16.554 c 0,-2.099 1.698,-3.799 3.797,-3.799 v 0 h 16.554 c 2.097,0 3.797,1.7 3.797,3.799 v 0 16.554 c 0,2.097 -1.7,3.795 -3.797,3.797 v 0 z m -1.797,-20.35 v 16.554 c 0.002,0.99 0.804,1.793 1.797,1.796 v 0 h 16.554 c 0.994,-0.003 1.795,-0.806 1.797,-1.796 v 0 -16.554 c -0.002,-0.993 -0.806,-1.797 -1.797,-1.799 v 0 h -16.554 c -0.993,0.002 -1.795,0.805 -1.797,1.799 z"
   id="path70" /><path
   fill="#f4f4f4"
   d="m 49.207887,204.32402 c -2.097,-0.002 -3.797,-1.7 -3.797,-3.797 v 0 -16.554 c 0,-2.099 1.698,-3.799 3.797,-3.799 v 0 H 65.76189 c 2.097,0 3.797,1.7 3.797,3.799 v 0 16.554 c 0,2.097 -1.7,3.795 -3.797,3.797 v 0 z m -1.798,-20.35 v 16.554 c 0.002,0.992 0.804,1.793 1.797,1.796 v 0 H 65.76089 c 0.994,-0.003 1.795,-0.806 1.797,-1.796 v 0 -16.554 c -0.002,-0.993 -0.806,-1.797 -1.797,-1.799 v 0 H 49.206887 c -0.993,0.002 -1.795,0.805 -1.797,1.799 z"
   id="path72" /><path
   fill="#f4f4f4"
   d="m 72.91389,204.32202 c -2.097,0 -3.797,-1.698 -3.799,-3.795 v 0 l 0.002,-16.554 c 0,-2.099 1.7,-3.799 3.797,-3.799 v 0 h 16.554 c 2.099,0 3.797,1.7 3.799,3.799 v 0 16.554 c -0.002,2.097 -1.702,3.795 -3.799,3.797 v 0 z m -1.798,-20.348 -0.002,16.554 c 0.002,0.99 0.806,1.793 1.8,1.796 v 0 h 16.554 c 0.994,-0.003 1.797,-0.806 1.799,-1.796 v 0 h -0.002 l 0.002,-16.554 c -0.002,-0.993 -0.808,-1.797 -1.799,-1.799 v 0 h -16.554 c -0.992,0.002 -1.798,0.805 -1.798,1.799 z"
   id="path74" /><path
   fill="#f4f4f4"
   d="m 96.76589,204.32202 c -2.097,0 -3.797,-1.698 -3.797,-3.795 v 0 -16.554 c 0,-2.099 1.7,-3.799 3.797,-3.799 v 0 h 16.554 c 2.097,0 3.797,1.7 3.799,3.799 v 0 16.554 h -0.002 c 0,2.097 -1.7,3.795 -3.797,3.797 v 0 z m -1.797,-20.348 v 16.554 c 0.002,0.99 0.806,1.793 1.797,1.796 v 0 h 16.554 c 0.992,-0.003 1.797,-0.806 1.797,-1.796 v 0 -16.554 c 0,-0.993 -0.806,-1.797 -1.797,-1.799 v 0 h -16.554 c -0.991,0.002 -1.795,0.805 -1.797,1.799 z"
   id="path76" /><path
   fill="#f4f4f4"
   d="m 120.47189,204.32202 c -2.097,0 -3.797,-1.698 -3.797,-3.795 v 0 -16.554 c 0,-2.099 1.698,-3.799 3.797,-3.799 v 0 h 16.554 c 2.097,0 3.797,1.7 3.799,3.799 v 0 16.554 h -0.002 c 0,2.097 -1.7,3.795 -3.797,3.797 v 0 z m -1.797,-20.348 v 16.554 c 0.002,0.99 0.806,1.793 1.797,1.796 v 0 h 16.554 c 0.992,-0.003 1.797,-0.806 1.799,-1.796 v 0 h -0.002 l 0.002,-16.554 c -0.002,-0.993 -0.808,-1.797 -1.799,-1.799 v 0 h -16.554 c -0.992,0.002 -1.795,0.805 -1.797,1.799 z"
   id="path78" /><path
   fill="#f4f4f4"
   d="m 144.32389,204.32402 c -2.097,-0.002 -3.797,-1.7 -3.797,-3.797 v 0 -16.554 c 0,-2.099 1.7,-3.799 3.797,-3.799 v 0 h 16.554 c 2.097,0 3.797,1.7 3.797,3.799 v 0 16.554 c 0,2.097 -1.7,3.795 -3.797,3.797 v 0 z m -1.797,-20.35 v 16.554 c 0.002,0.99 0.806,1.793 1.797,1.796 v 0 h 16.554 c 0.992,-0.003 1.795,-0.806 1.797,-1.796 v 0 -16.554 c -0.002,-0.993 -0.806,-1.797 -1.797,-1.799 v 0 h -16.554 c -0.991,0.002 -1.795,0.805 -1.797,1.799 z"
   id="path80" /><path
   fill="#f4f4f4"
   d="m 168.03089,204.32202 c -2.097,0 -3.797,-1.698 -3.797,-3.795 v 0 -16.554 c 0,-2.099 1.7,-3.799 3.797,-3.799 v 0 h 16.554 c 2.099,0 3.797,1.7 3.797,3.799 v 0 16.554 c 0,2.097 -1.698,3.795 -3.797,3.797 v 0 z m -1.798,-20.348 v 16.554 c 0.002,0.99 0.806,1.793 1.797,1.796 v 0 h 16.554 c 0.994,-0.003 1.795,-0.804 1.797,-1.796 v 0 -16.554 c -0.002,-0.993 -0.806,-1.797 -1.797,-1.799 v 0 h -16.554 c -0.991,0.002 -1.795,0.805 -1.797,1.799 z"
   id="path82" /><path
   fill="#f4f4f4"
   d="m 191.88289,204.32202 c -2.097,0 -3.797,-1.698 -3.797,-3.795 v 0 -16.554 c 0,-2.099 1.7,-3.799 3.797,-3.799 v 0 h 16.554 c 2.099,0 3.797,1.7 3.797,3.799 v 0 16.554 c 0,2.097 -1.698,3.795 -3.797,3.797 v 0 z m -1.797,-20.348 v 16.554 c 0.002,0.99 0.806,1.793 1.797,1.796 v 0 h 16.554 c 0.994,-0.003 1.795,-0.804 1.797,-1.796 v 0 -16.554 c -0.002,-0.993 -0.806,-1.797 -1.797,-1.799 v 0 h -16.554 c -0.992,0.002 -1.795,0.805 -1.797,1.799 z"
   id="path84" /><path
   fill="#f4f4f4"
   d="m 215.59089,204.32402 c -2.099,-0.002 -3.799,-1.7 -3.799,-3.797 v 0 -16.554 c 0,-2.099 1.7,-3.799 3.799,-3.799 v 0 h 16.552 c 2.099,0 3.797,1.7 3.799,3.799 v 0 16.554 h -0.002 c 0,2.097 -1.698,3.795 -3.797,3.797 v 0 z m -1.798,-20.35 -0.002,16.554 c 0.002,0.992 0.806,1.793 1.799,1.796 v 0 h 16.552 c 0.994,-0.003 1.797,-0.804 1.799,-1.796 v 0 h -0.002 l 0.002,-16.554 c -0.002,-0.993 -0.805,-1.797 -1.799,-1.799 v 0 h -16.552 c -0.993,0.002 -1.797,0.805 -1.797,1.799 z"
   id="path86" /><path
   fill="#f4f4f4"
   d="m 239.44289,204.32402 c -2.099,-0.002 -3.799,-1.7 -3.802,-3.797 v 0 l 0.003,-16.554 c 0,-2.099 1.7,-3.799 3.799,-3.799 v 0 h 16.554 c 2.097,0 3.797,1.7 3.797,3.799 v 0 16.554 c 0,2.097 -1.7,3.795 -3.797,3.797 v 0 z m -1.8,-20.35 v 16.554 c 0.002,0.99 0.806,1.793 1.8,1.796 v 0 h 16.554 c 0.991,-0.003 1.795,-0.806 1.797,-1.796 v 0 -16.554 c -0.002,-0.993 -0.806,-1.797 -1.797,-1.799 v 0 h -16.554 c -0.994,0.002 -1.798,0.805 -1.8,1.799 z"
   id="path88" /><path
   fill="#f4f4f4"
   d="m 263.14889,204.32302 c -2.097,0 -3.797,-1.698 -3.8,-3.795 v 0 l 0.003,-16.556 c 0,-2.098 1.7,-3.798 3.797,-3.798 v 0 h 16.554 c 2.097,0 3.798,1.7 3.798,3.798 v 0 16.556 c 0,2.097 -1.701,3.795 -3.798,3.795 v 0 z m -1.799,-20.35 v 16.556 c 0.002,0.99 0.807,1.793 1.799,1.795 v 0 h 16.554 c 0.992,-0.002 1.797,-0.805 1.8,-1.795 v 0 h -0.003 l 0.003,-16.556 c -0.003,-0.991 -0.808,-1.796 -1.8,-1.798 v 0 h -16.554 c -0.992,0.002 -1.797,0.806 -1.799,1.798 z"
   id="path90" /><path
   fill="#f4f4f4"
   d="m 269.09889,276.33002 c -2.099,0 -3.799,-1.698 -3.799,-3.797 v 0 -16.553 c 0,-2.101 1.7,-3.799 3.799,-3.799 v 0 h 24.359 c 2.096,0 3.794,1.7 3.797,3.799 v 0 16.553 c -0.003,2.097 -1.701,3.797 -3.797,3.799 v 0 z m -1.798,-20.35 v 16.553 c 0,0.992 0.805,1.797 1.799,1.797 v 0 l 24.359,0.002 c 0.989,-0.002 1.794,-0.807 1.796,-1.799 v 0 -16.553 c -0.002,-0.994 -0.805,-1.798 -1.796,-1.798 v 0 h -24.359 c -0.995,0.001 -1.799,0.804 -1.799,1.798 z"
   id="path92" /><path
   fill="#f4f4f4"
   d="m 55.01089,301.20702 c -2.097003,0 -3.796003,-1.697 -3.798003,-3.794 v 0 -16.556 c 0,-2.101 1.701,-3.798 3.798003,-3.8 v 0 l 16.554,0.002 c 2.096,0 3.796,1.699 3.798,3.798 v 0 16.556 h -0.002 c 0,2.095 -1.697,3.794 -3.796,3.796 v 0 z m -1.798003,-20.35 v 16.556 c 0.002,0.987 0.805003,1.794 1.798003,1.794 v 0 l 16.554,0.002 c 0.993,-0.002 1.795,-0.807 1.797,-1.796 v 0 -16.556 c -0.002,-0.995 -0.805,-1.798 -1.797,-1.798 v 0 l -16.554,-0.002 c -0.993,0.003 -1.795003,0.807 -1.798003,1.8 z"
   id="path94" /><path
   fill="#f4f4f4"
   d="m 261.68589,301.20902 c -2.099,-0.002 -3.798,-1.699 -3.801,-3.796 v 0 -16.556 c 0,-2.101 1.702,-3.798 3.801,-3.8 v 0 h 16.552 c 2.097,0.002 3.796,1.701 3.798,3.8 v 0 16.556 h -0.002 c 0,2.095 -1.699,3.794 -3.796,3.796 v 0 z m -1.8,-20.352 -0.002,16.556 c 0.002,0.987 0.807,1.794 1.802,1.794 v 0 h 16.552 c 0.991,0 1.796,-0.805 1.798,-1.794 v 0 h -0.002 v -16.556 c 0,-0.995 -0.805,-1.798 -1.796,-1.798 v 0 h -16.552 c -0.995,0.001 -1.8,0.805 -1.8,1.798 z"
   id="path96" /><path
   fill="#f4f4f4"
   d="m 78.71789,301.20702 c -2.098,0 -3.798,-1.699 -3.798,-3.794 v 0 -16.556 c 0,-2.099 1.7,-3.798 3.798,-3.8 v 0 h 175.579 c 2.095,0.002 3.796,1.701 3.796,3.8 v 0 16.556 c -0.002,2.095 -1.699,3.794 -3.796,3.796 v 0 z m -1.798,-20.35 v 16.556 c 0.002,0.989 0.805,1.794 1.797,1.794 v 0 h 175.579 c 0.989,0 1.794,-0.805 1.796,-1.794 v 0 -16.556 c -0.002,-0.995 -0.805,-1.798 -1.796,-1.798 v 0 l -175.579,-0.002 c -0.992,0.003 -1.795,0.805 -1.797,1.8 z"
   id="path98" /><path
   fill="#f4f4f4"
   d="m 314.24289,312.19902 c -3.57,0 -6.462,-2.896 -6.464,-6.467 v 0 -173.657 c 0.002,-3.568 2.894,-6.462 6.464,-6.462 v 0 h 124.486 c 3.57,0 6.464,2.891 6.466,6.462 v 0 173.657 c -0.002,3.571 -2.896,6.467 -6.466,6.467 v 0 z m -4.462,-180.124 v 173.657 c 0.004,2.466 1.997,4.463 4.462,4.467 v 0 h 124.486 c 2.465,-0.004 4.46,-2.001 4.465,-4.467 v 0 -173.657 c -0.005,-2.463 -2,-4.457 -4.465,-4.46 v 0 h -124.486 c -2.465,0.003 -4.458,1.994 -4.462,4.46 z"
   id="path100" /><path
   fill="#f4f4f4"
   d="m 6.729887,322.73402 c -3.571,0 -6.463,-2.893 -6.463,-6.463 v 0 V 7.198023 c 0,-3.57 2.893,-6.463 6.463,-6.465 v 0 H 453.95089 c 3.568,0.002 6.461,2.895 6.463,6.465 v 0 309.072997 c -0.002,3.57 -2.895,6.463 -6.463,6.463 v 0 z M 2.264887,7.198023 V 316.27102 c 0.006,2.463 1.999,4.458 4.464,4.464 v 0 H 453.94989 c 2.462,-0.006 4.458,-2.001 4.462,-4.464 v 0 V 7.198023 c -0.004,-2.465 -2,-4.46 -4.462,-4.464 v 0 H 6.729887 c -2.466,0.004 -4.458,1.999 -4.465,4.464 z"
   id="path102" /><path
   fill="#f4f4f4"
   d="m 311.25989,83.09502 c -1.926,0 -3.488,-1.561 -3.488,-3.488 v 0 c 0,-1.926 1.561,-3.488 3.488,-3.488 v 0 h 130.845 c 1.925,0 3.483,1.563 3.485,3.488 v 0 c -0.002,1.928 -1.561,3.488 -3.485,3.488 v 0 z m -1.488,-3.488 c 0,0.822 0.665,1.487 1.487,1.489 v 0 h 130.845 c 0.817,-0.002 1.482,-0.667 1.484,-1.489 v 0 c -0.002,-0.823 -0.667,-1.487 -1.484,-1.487 v 0 h -130.844 c -0.821,0 -1.488,0.667 -1.488,1.487 z"
   id="path104" /><path
   fill="#f4f4f4"
   d="m 311.25989,72.08602 c -1.926,0 -3.488,-1.561 -3.488,-3.487997 v 0 c 0,-1.926 1.563,-3.486 3.488,-3.489 v 0 l 130.845,0.002 c 1.925,0 3.483,1.561 3.485,3.486 v 0 c -0.002,1.927997 -1.563,3.487997 -3.485,3.487997 v 0 h -130.845 z m -1.488,-3.487997 c 0,0.822 0.665,1.486997 1.487,1.486997 v 0 l 130.845,0.002 c 0.817,-0.002 1.482,-0.666997 1.484,-1.488997 v 0 c -0.002,-0.821 -0.667,-1.485 -1.484,-1.487 v 0 h -130.844 c -0.823,0.002 -1.488,0.666 -1.488,1.487 z"
   id="path106" /><path
   fill="#f4f4f4"
   d="m 311.25989,61.079023 c -1.928,-0.002 -3.488,-1.563 -3.488,-3.49 v 0 c 0,-1.926 1.563,-3.486 3.488,-3.489 v 0 l 130.845,0.002 c 1.925,0 3.483,1.561 3.485,3.486 v 0 c -0.002,1.927 -1.561,3.488 -3.485,3.49 v 0 h -130.845 z m -1.488,-3.491 c 0,0.822 0.667,1.487 1.487,1.489 v 0 h 130.845 c 0.817,-0.002 1.482,-0.667 1.484,-1.489 v 0 c -0.002,-0.821 -0.667,-1.485 -1.484,-1.487 v 0 h -130.844 c -0.823,0.003 -1.488,0.667 -1.488,1.487 z"
   id="path108" /><path
   fill="#f4f4f4"
   d="m 311.25989,50.069023 c -1.928,-0.002 -3.488,-1.563 -3.488,-3.49 v 0 c 0,-1.926 1.561,-3.486 3.488,-3.486 v 0 h 130.845 c 1.925,0 3.483,1.561 3.485,3.486 v 0 c -0.002,1.927 -1.561,3.488 -3.485,3.49 v 0 z m -1.488,-3.49 c 0,0.822 0.667,1.487 1.487,1.489 v 0 h 130.845 c 0.817,-0.002 1.482,-0.667 1.484,-1.489 v 0 c -0.002,-0.821 -0.667,-1.485 -1.484,-1.487 v 0 h -130.844 c -0.821,0.002 -1.488,0.666 -1.488,1.487 z"
   id="path110" /><path
   fill="#f4f4f4"
   d="m 311.25989,39.060023 c -1.926,-0.002 -3.488,-1.561 -3.488,-3.488 v 0 c 0,-1.928 1.561,-3.488 3.488,-3.488 v 0 h 130.845 c 1.925,0 3.483,1.561 3.485,3.488 v 0 c -0.002,1.925 -1.561,3.486 -3.485,3.488 v 0 z m -1.488,-3.488 c 0,0.82 0.665,1.485 1.487,1.487 v 0 h 130.845 c 0.817,-0.002 1.482,-0.667 1.484,-1.487 v 0 c -0.002,-0.823 -0.667,-1.487 -1.484,-1.489 v 0 h -130.844 c -0.821,0.002 -1.488,0.666 -1.488,1.489 z"
   id="path112" /><path
   fill="#f4f4f4"
   d="m 311.25989,28.049023 c -1.926,0 -3.488,-1.559 -3.488,-3.486 v 0 c 0,-1.928 1.561,-3.489 3.488,-3.489 v 0 h 130.845 c 1.925,0 3.483,1.561 3.485,3.489 v 0 c -0.002,1.925 -1.561,3.486 -3.485,3.486 v 0 z m -1.488,-3.487 c 0,0.82 0.665,1.484 1.487,1.487 v 0 h 130.845 c 0.817,-0.002 1.482,-0.667 1.484,-1.487 v 0 c -0.002,-0.823 -0.667,-1.487 -1.484,-1.489 v 0 h -130.844 c -0.821,0.002 -1.488,0.667 -1.488,1.489 z"
   id="path114" /><path
   fill="#f4f4f4"
   d="m 311.25989,17.039023 c -1.926,0 -3.488,-1.559 -3.488,-3.486 v 0 c 0,-1.928 1.563,-3.489 3.488,-3.489 v 0 h 130.845 c 1.925,0 3.483,1.561 3.485,3.489 v 0 c -0.002,1.927 -1.563,3.486 -3.485,3.486 v 0 z m -1.488,-3.486 c 0,0.82 0.665,1.484 1.487,1.487 v 0 h 130.845 c 0.817,-0.002 1.482,-0.665 1.484,-1.487 v 0 c -0.002,-0.823 -0.667,-1.487 -1.484,-1.489 v 0 h -130.844 c -0.823,0.002 -1.488,0.666 -1.488,1.489 z"
   id="path116" /><path
   id="path4021"
   style="fill:#f4f4f4"
   d="m 1.422887,106.21802 v -2 H 459.22789 v 2 z" /><path
   id="path4021-50"
   style="fill:#f4f4f4;stroke-width:0.544972"
   d="m 308.9901,172.99205 v -2 h 135.96554 v 2 z" /><path
   fill="#f4f4f4"
   d="m 325.55889,302.05102 c -1.9,0 -3.439,-1.539 -3.439,-3.438 v 0 -6.83 c 0,-1.9 1.539,-3.438 3.439,-3.439 v 0 l 101.854,0.002 c 1.899,0 3.438,1.537 3.44,3.438 v 0 h -0.002 l 0.002,6.83 c -0.002,1.899 -1.541,3.438 -3.44,3.438 v 0 h -101.854 z m -1.439,-10.269 v 6.83 c 0.002,0.794 0.644,1.438 1.439,1.438 v 0 h 101.854 c 0.796,0 1.438,-0.644 1.44,-1.438 v 0 -6.83 h -0.002 c 0,-0.793 -0.643,-1.438 -1.438,-1.438 v 0 l -101.854,-0.002 c -0.796,0.003 -1.437,0.647 -1.439,1.44 z"
   id="path124" /><path
   id="path4021-5"
   style="fill:#f4f4f4;stroke-width:0.819757"
   d="m 1.294797,146.96116 v -2 H 308.94065 v 2 z" /></svg>
