<?xml version="1.0" encoding="UTF-8" standalone="no"?>
<!-- Generator: Adobe Illustrator 13.0.0, SVG Export Plug-In . SVG Version: 6.00 Build 14948)  -->

<svg
   version="1.2"
   id="Layer_3"
   x="0px"
   y="0px"
   width="595.18903"
   height="286.26001"
   viewBox="0 0 595.189 286.26"
   xml:space="preserve"
   sodipodi:docname="trs-80.svg"
   inkscape:version="1.2.2 (732a01da63, 2022-12-09)"
   xmlns:inkscape="http://www.inkscape.org/namespaces/inkscape"
   xmlns:sodipodi="http://sodipodi.sourceforge.net/DTD/sodipodi-0.dtd"
   xmlns="http://www.w3.org/2000/svg"
   xmlns:svg="http://www.w3.org/2000/svg"><defs
   id="defs595" /><sodipodi:namedview
   id="namedview593"
   pagecolor="#000000"
   bordercolor="#111111"
   borderopacity="1"
   inkscape:showpageshadow="0"
   inkscape:pageopacity="0"
   inkscape:pagecheckerboard="1"
   inkscape:deskcolor="#d1d1d1"
   showgrid="false"
   inkscape:zoom="2.0445042"
   inkscape:cx="299.58363"
   inkscape:cy="175.10357"
   inkscape:window-width="1920"
   inkscape:window-height="1009"
   inkscape:window-x="-8"
   inkscape:window-y="-8"
   inkscape:window-maximized="1"
   inkscape:current-layer="Layer_3" />
<g
   id="g590"
   transform="translate(-2,-22)">
	<g
   id="g10">
		<polygon
   fill="#f4f4f4"
   points="165.048,38.753 160.078,38.753 160.078,36.753 165.048,36.753 "
   id="polygon2" />
		<polygon
   fill="#f4f4f4"
   points="165.103,28.813 160.13,28.813 160.13,26.813 165.103,26.813 "
   id="polygon4" />
		<polygon
   fill="#f4f4f4"
   points="174.044,38.755 169.072,38.755 169.072,36.755 174.044,36.755 "
   id="polygon6" />
		<polygon
   fill="#f4f4f4"
   points="174.097,28.813 169.125,28.813 169.125,26.813 174.097,26.813 "
   id="polygon8" />
	</g>
	<g
   id="g20">
		<polygon
   fill="#f4f4f4"
   points="182.267,38.754 177.295,38.754 177.295,36.754 182.267,36.754 "
   id="polygon12" />
		<polygon
   fill="#f4f4f4"
   points="182.32,28.812 177.35,28.812 177.35,26.812 182.32,26.812 "
   id="polygon14" />
		<polygon
   fill="#f4f4f4"
   points="191.262,38.754 186.291,38.754 186.291,36.754 191.262,36.754 "
   id="polygon16" />
		<polygon
   fill="#f4f4f4"
   points="191.316,28.813 186.345,28.813 186.345,26.813 191.316,26.813 "
   id="polygon18" />
	</g>
	<g
   id="g30">
		<polygon
   fill="#f4f4f4"
   points="199.487,38.754 194.516,38.754 194.516,36.754 199.487,36.754 "
   id="polygon22" />
		<polygon
   fill="#f4f4f4"
   points="199.538,28.813 194.568,28.813 194.568,26.813 199.538,26.813 "
   id="polygon24" />
		<polygon
   fill="#f4f4f4"
   points="208.481,38.754 203.51,38.754 203.51,36.754 208.481,36.754 "
   id="polygon26" />
		<polygon
   fill="#f4f4f4"
   points="208.533,28.813 203.562,28.813 203.562,26.813 208.533,26.813 "
   id="polygon28" />
	</g>
	<g
   id="g40">
		<polygon
   fill="#f4f4f4"
   points="216.703,38.755 211.733,38.755 211.733,36.754 216.703,36.754 "
   id="polygon32" />
		<polygon
   fill="#f4f4f4"
   points="216.756,28.813 211.787,28.813 211.787,26.813 216.756,26.813 "
   id="polygon34" />
		<polygon
   fill="#f4f4f4"
   points="225.698,38.754 220.729,38.754 220.729,36.753 225.698,36.753 "
   id="polygon36" />
		<polygon
   fill="#f4f4f4"
   points="225.751,28.813 220.782,28.813 220.782,26.812 225.751,26.812 "
   id="polygon38" />
	</g>
	<g
   id="g50">
		<polygon
   fill="#f4f4f4"
   points="233.923,38.753 228.951,38.753 228.951,36.755 233.923,36.755 "
   id="polygon42" />
		<polygon
   fill="#f4f4f4"
   points="233.975,28.813 229.004,28.813 229.004,26.812 233.975,26.812 "
   id="polygon44" />
		<polygon
   fill="#f4f4f4"
   points="242.918,38.754 237.947,38.754 237.947,36.755 242.918,36.755 "
   id="polygon46" />
		<polygon
   fill="#f4f4f4"
   points="242.971,28.811 237.999,28.811 237.999,26.813 242.971,26.813 "
   id="polygon48" />
	</g>
	<g
   id="g60">
		<polygon
   fill="#f4f4f4"
   points="251.14,38.754 246.171,38.754 246.171,36.755 251.14,36.755 "
   id="polygon52" />
		<polygon
   fill="#f4f4f4"
   points="251.194,28.812 246.224,28.812 246.224,26.813 251.194,26.813 "
   id="polygon54" />
		<polygon
   fill="#f4f4f4"
   points="260.137,38.754 255.167,38.754 255.167,36.753 260.137,36.753 "
   id="polygon56" />
		<polygon
   fill="#f4f4f4"
   points="260.19,28.813 255.218,28.813 255.218,26.812 260.19,26.812 "
   id="polygon58" />
	</g>
	<g
   id="g70">
		<polygon
   fill="#f4f4f4"
   points="268.359,38.754 263.389,38.754 263.389,36.753 268.359,36.753 "
   id="polygon62" />
		<polygon
   fill="#f4f4f4"
   points="268.412,28.812 263.441,28.812 263.441,26.813 268.412,26.813 "
   id="polygon64" />
		<polygon
   fill="#f4f4f4"
   points="277.354,38.754 272.384,38.754 272.384,36.753 277.354,36.753 "
   id="polygon66" />
		<polygon
   fill="#f4f4f4"
   points="277.408,28.813 272.436,28.813 272.436,26.812 277.408,26.812 "
   id="polygon68" />
	</g>
	<g
   id="g80">
		<polygon
   fill="#f4f4f4"
   points="285.578,38.754 280.607,38.754 280.607,36.753 285.578,36.753 "
   id="polygon72" />
		<polygon
   fill="#f4f4f4"
   points="285.631,28.812 280.661,28.812 280.661,26.813 285.631,26.813 "
   id="polygon74" />
		<polygon
   fill="#f4f4f4"
   points="294.574,38.753 289.602,38.753 289.602,36.754 294.574,36.754 "
   id="polygon76" />
		<polygon
   fill="#f4f4f4"
   points="294.625,28.812 289.655,28.812 289.655,26.813 294.625,26.813 "
   id="polygon78" />
	</g>
	<g
   id="g90">
		<polygon
   fill="#f4f4f4"
   points="302.796,38.754 297.825,38.754 297.825,36.755 302.796,36.755 "
   id="polygon82" />
		<polygon
   fill="#f4f4f4"
   points="302.85,28.812 297.879,28.812 297.879,26.813 302.85,26.813 "
   id="polygon84" />
		<polygon
   fill="#f4f4f4"
   points="311.792,38.755 306.819,38.755 306.819,36.754 311.792,36.754 "
   id="polygon86" />
		<polygon
   fill="#f4f4f4"
   points="311.846,28.813 306.873,28.813 306.873,26.812 311.846,26.812 "
   id="polygon88" />
	</g>
	<g
   id="g100">
		<polygon
   fill="#f4f4f4"
   points="320.016,38.754 315.044,38.754 315.044,36.755 320.016,36.755 "
   id="polygon92" />
		<polygon
   fill="#f4f4f4"
   points="320.068,28.812 315.096,28.812 315.096,26.813 320.068,26.813 "
   id="polygon94" />
		<polygon
   fill="#f4f4f4"
   points="329.01,38.754 324.04,38.754 324.04,36.754 329.01,36.754 "
   id="polygon96" />
		<polygon
   fill="#f4f4f4"
   points="329.063,28.813 324.091,28.813 324.091,26.812 329.063,26.812 "
   id="polygon98" />
	</g>
	<g
   id="g110">
		<polygon
   fill="#f4f4f4"
   points="337.232,38.754 332.263,38.754 332.263,36.755 337.232,36.755 "
   id="polygon102" />
		<polygon
   fill="#f4f4f4"
   points="337.286,28.813 332.315,28.813 332.315,26.812 337.286,26.812 "
   id="polygon104" />
		<polygon
   fill="#f4f4f4"
   points="346.228,38.753 341.258,38.753 341.258,36.754 346.228,36.754 "
   id="polygon106" />
		<polygon
   fill="#f4f4f4"
   points="346.281,28.813 341.309,28.813 341.309,26.812 346.281,26.812 "
   id="polygon108" />
	</g>
	<g
   id="g120">
		<polygon
   fill="#f4f4f4"
   points="354.452,38.754 349.481,38.754 349.481,36.754 354.452,36.754 "
   id="polygon112" />
		<polygon
   fill="#f4f4f4"
   points="354.502,28.812 349.533,28.812 349.533,26.813 354.502,26.813 "
   id="polygon114" />
		<polygon
   fill="#f4f4f4"
   points="363.448,38.754 358.476,38.754 358.476,36.754 363.448,36.754 "
   id="polygon116" />
		<polygon
   fill="#f4f4f4"
   points="363.5,28.813 358.529,28.813 358.529,26.812 363.5,26.812 "
   id="polygon118" />
	</g>
	<g
   id="g130">
		<polygon
   fill="#f4f4f4"
   points="371.671,38.754 366.7,38.754 366.7,36.755 371.671,36.755 "
   id="polygon122" />
		<polygon
   fill="#f4f4f4"
   points="371.724,28.813 366.753,28.813 366.753,26.812 371.724,26.812 "
   id="polygon124" />
		<polygon
   fill="#f4f4f4"
   points="380.665,38.755 375.694,38.755 375.694,36.753 380.665,36.753 "
   id="polygon126" />
		<polygon
   fill="#f4f4f4"
   points="380.719,28.812 375.746,28.812 375.746,26.812 380.719,26.812 "
   id="polygon128" />
	</g>
	<g
   id="g140">
		<polygon
   fill="#f4f4f4"
   points="388.889,38.753 383.917,38.753 383.917,36.754 388.889,36.754 "
   id="polygon132" />
		<polygon
   fill="#f4f4f4"
   points="388.941,28.813 383.971,28.813 383.971,26.812 388.941,26.812 "
   id="polygon134" />
		<polygon
   fill="#f4f4f4"
   points="397.886,38.754 392.913,38.754 392.913,36.755 397.886,36.755 "
   id="polygon136" />
		<polygon
   fill="#f4f4f4"
   points="397.937,28.813 392.964,28.813 392.964,26.813 397.937,26.813 "
   id="polygon138" />
	</g>
	<g
   id="g150">
		<polygon
   fill="#f4f4f4"
   points="406.107,38.754 401.137,38.754 401.137,36.755 406.107,36.755 "
   id="polygon142" />
		<polygon
   fill="#f4f4f4"
   points="406.16,28.813 401.189,28.813 401.189,26.813 406.16,26.813 "
   id="polygon144" />
		<polygon
   fill="#f4f4f4"
   points="415.103,38.754 410.131,38.754 410.131,36.754 415.103,36.754 "
   id="polygon146" />
		<polygon
   fill="#f4f4f4"
   points="415.155,28.812 410.185,28.812 410.185,26.812 415.155,26.812 "
   id="polygon148" />
	</g>
	<g
   id="g160">
		<polygon
   fill="#f4f4f4"
   points="423.324,38.753 418.355,38.753 418.355,36.754 423.324,36.754 "
   id="polygon152" />
		<polygon
   fill="#f4f4f4"
   points="423.378,28.813 418.407,28.813 418.407,26.812 423.378,26.812 "
   id="polygon154" />
		<polygon
   fill="#f4f4f4"
   points="432.32,38.755 427.35,38.755 427.35,36.753 432.32,36.753 "
   id="polygon156" />
		<polygon
   fill="#f4f4f4"
   points="432.374,28.812 427.401,28.812 427.401,26.813 432.374,26.813 "
   id="polygon158" />
	</g>
	<path
   fill="#f4f4f4"
   d="M 155.447,61.058 V 24.235 h 5.578 v 18.726 c 0.002,0.873 0.707,1.577 1.579,1.579 v 0 c 0.87,-0.002 1.574,-0.706 1.576,-1.579 v 0 -18.726 h 5.841 l -0.002,18.726 c 0.002,0.873 0.708,1.577 1.578,1.579 v 0 c 0.873,-0.002 1.577,-0.706 1.579,-1.579 v 0 -18.726 h 5.069 l -0.002,18.726 c 0.002,0.873 0.707,1.577 1.579,1.579 v 0 c 0.872,-0.002 1.576,-0.706 1.578,-1.579 v 0 -18.726 h 5.839 v 18.726 c 0.002,0.873 0.707,1.577 1.579,1.579 v 0 c 0.87,-0.002 1.574,-0.706 1.576,-1.579 v 0 -18.726 h 5.069 l -0.002,18.726 c 0.002,0.873 0.708,1.577 1.579,1.579 v 0 c 0.872,-0.002 1.576,-0.706 1.579,-1.579 v 0 -18.726 h 5.839 v 18.726 c 0.002,0.873 0.707,1.577 1.579,1.579 v 0 c 0.87,-0.002 1.574,-0.706 1.576,-1.579 v 0 -18.726 h 5.069 v 18.726 c 0.002,0.873 0.706,1.577 1.578,1.579 v 0 c 0.87,-0.002 1.574,-0.706 1.577,-1.579 v 0 -18.726 h 5.841 l -0.002,18.726 c 0.002,0.873 0.708,1.577 1.579,1.579 v 0 c 0.872,-0.002 1.576,-0.706 1.579,-1.579 v 0 -18.726 h 5.069 l -0.002,18.726 c 0.002,0.873 0.708,1.577 1.578,1.579 v 0 c 0.87,-0.002 1.577,-0.706 1.577,-1.579 v 0 -18.726 h 5.841 v 18.726 c 0.002,0.873 0.706,1.577 1.576,1.579 v 0 c 0.872,-0.002 1.576,-0.706 1.579,-1.579 v 0 -18.726 h 5.069 v 18.726 c 0,0.873 0.707,1.577 1.577,1.579 v 0 c 0.872,-0.002 1.576,-0.706 1.578,-1.579 v 0 -18.726 h 5.839 v 18.726 c 0.002,0.873 0.706,1.577 1.578,1.579 v 0 c 0.87,-0.002 1.574,-0.706 1.577,-1.579 v 0 -18.726 h 5.069 v 18.726 c 0.002,0.873 0.707,1.577 1.579,1.579 v 0 c 0.87,-0.002 1.574,-0.706 1.576,-1.579 v 0 -18.726 h 5.841 v 18.726 c 0,0.873 0.704,1.577 1.577,1.579 v 0 c 0.87,-0.002 1.576,-0.706 1.578,-1.579 v 0 -18.726 h 5.067 v 18.726 c 0.002,0.873 0.706,1.577 1.578,1.579 v 0 c 0.87,-0.002 1.574,-0.706 1.576,-1.579 v 0 -18.726 h 5.841 v 18.726 c 0.002,0.873 0.707,1.577 1.577,1.579 v 0 c 0.872,-0.002 1.576,-0.706 1.578,-1.579 v 0 -18.726 h 5.069 l -0.002,18.726 c 0.002,0.873 0.708,1.577 1.578,1.579 v 0 c 0.872,-0.002 1.576,-0.706 1.576,-1.579 v 0 -18.726 h 5.842 v 18.726 c 0.002,0.873 0.708,1.577 1.578,1.579 v 0 c 0.87,-0.002 1.574,-0.706 1.576,-1.579 v 0 -18.726 h 5.069 v 18.726 c 0.002,0.873 0.706,1.577 1.579,1.579 v 0 c 0.869,-0.002 1.573,-0.706 1.573,-1.579 v 0 -18.726 h 5.844 l -0.002,18.726 c 0.002,0.873 0.708,1.577 1.581,1.579 v 0 c 0.867,-0.002 1.573,-0.706 1.573,-1.579 v 0 -18.726 h 5.071 l -0.002,18.726 c 0.002,0.873 0.707,1.577 1.576,1.579 v 0 c 0.873,-0.002 1.577,-0.706 1.579,-1.579 v 0 -18.726 h 5.841 l -0.002,18.726 c 0.002,0.873 0.708,1.577 1.578,1.579 v 0 c 0.872,-0.002 1.577,-0.706 1.577,-1.579 v 0 -18.726 h 5.071 l -0.003,18.726 c 0.003,0.873 0.707,1.577 1.579,1.579 v 0 c 0.872,-0.002 1.576,-0.706 1.576,-1.579 v 0 -18.726 h 5.841 v 18.726 c 0.003,0.873 0.707,1.577 1.579,1.579 v 0 c 0.867,-0.002 1.574,-0.706 1.574,-1.579 v 0 -18.726 h 5.071 v 18.726 c 0,0.873 0.704,1.577 1.576,1.579 v 0 c 0.872,-0.002 1.576,-0.706 1.576,-1.579 v 0 -18.726 h 5.844 l -0.003,18.726 c 0.003,0.873 0.709,1.577 1.579,1.579 v 0 c 0.87,-0.002 1.576,-0.706 1.576,-1.579 v 0 -18.726 h 5.069 v 18.726 c 0.002,0.873 0.708,1.577 1.578,1.579 v 0 c 0.868,-0.002 1.574,-0.706 1.574,-1.579 v 0 -18.726 h 5.844 l -0.003,18.726 c 0.003,0.873 0.709,1.577 1.579,1.579 v 0 c 0.87,-0.002 1.576,-0.706 1.576,-1.579 v 0 -18.726 h 5.071 l -0.002,18.726 c 0.002,0.873 0.708,1.577 1.578,1.579 v 0 c 0.872,-0.002 1.576,-0.706 1.578,-1.579 v 0 -18.726 h 5.84 l -0.003,18.726 c 0.003,0.873 0.709,1.577 1.581,1.579 v 0 c 0.868,-0.002 1.574,-0.706 1.574,-1.579 v 0 -18.726 h 5.071 l -0.002,18.726 c 0.002,0.873 0.706,1.577 1.578,1.579 v 0 c 0.872,-0.002 1.576,-0.706 1.578,-1.579 v 0 -18.726 h 5.84 v 18.726 c 0.002,0.873 0.706,1.577 1.578,1.579 v 0 c 0.868,-0.002 1.574,-0.706 1.576,-1.579 v 0 -18.715 l 5.842,-0.062 -0.003,18.739 c 0.003,0.87 0.707,1.574 1.579,1.576 v 0 c 0.872,-0.002 1.576,-0.706 1.578,-1.576 v 0 -17.729 -1 h 143.29 V 61.057 H 155.447 Z m 2,-2 H 581.734 V 26.194 H 442.447 v 16.729 c 0,1.976 -1.603,3.576 -3.578,3.576 v 0 c -1.977,0 -3.576,-1.602 -3.578,-3.576 v 0 -16.718 l -1.84,0.019 v 16.737 c 0,1.977 -1.603,3.578 -3.576,3.578 v 0 c -1.977,0 -3.578,-1.602 -3.578,-3.578 v 0 l -0.002,-16.726 h -1.838 v 16.726 c 0,1.977 -1.602,3.578 -3.578,3.578 v 0 c -1.977,0 -3.576,-1.602 -3.578,-3.578 v 0 -16.726 h -1.07 v 16.726 c 0,1.977 -1.597,3.578 -3.573,3.578 v 0 c -1.977,0 -3.578,-1.602 -3.58,-3.578 v 0 -16.726 h -1.838 v 16.726 c 0,1.977 -1.602,3.578 -3.578,3.578 v 0 c -1.977,0 -3.576,-1.602 -3.578,-3.578 v 0 -16.726 h -1.067 v 16.726 c 0,1.977 -1.603,3.578 -3.578,3.578 v 0 c -1.977,0 -3.576,-1.602 -3.578,-3.578 v 0 -16.726 h -1.843 v 16.726 c 0,1.977 -1.597,3.578 -3.573,3.578 v 0 c -1.977,0 -3.578,-1.602 -3.578,-3.578 v 0 L 382.865,26.235 H 381.8 v 16.726 c 0,1.977 -1.603,3.578 -3.578,3.578 v 0 c -1.977,0 -3.578,-1.602 -3.578,-3.578 v 0 -16.726 h -1.84 v 16.726 c 0,1.977 -1.603,3.578 -3.578,3.578 v 0 c -1.977,0 -3.576,-1.602 -3.578,-3.578 v 0 -16.726 h -1.068 v 16.726 c 0,1.977 -1.602,3.578 -3.575,3.578 v 0 c -1.977,0 -3.578,-1.602 -3.58,-3.578 v 0 -16.726 h -1.838 v 16.726 c 0,1.977 -1.603,3.578 -3.578,3.578 v 0 c -1.977,0 -3.578,-1.602 -3.578,-3.578 v 0 l -0.002,-16.726 h -1.066 v 16.726 c 0,1.977 -1.602,3.578 -3.578,3.578 v 0 c -1.976,0 -3.577,-1.602 -3.577,-3.578 v 0 -16.726 h -1.841 v 16.726 c 0,1.977 -1.6,3.578 -3.578,3.578 v 0 c -1.976,0 -3.575,-1.602 -3.575,-3.578 v 0 l -0.002,-16.726 h -1.066 v 16.726 c 0,1.977 -1.602,3.578 -3.575,3.578 v 0 c -1.979,0 -3.581,-1.602 -3.581,-3.578 v 0 -16.726 h -1.84 v 16.726 c 0,1.977 -1.602,3.578 -3.575,3.578 v 0 c -1.979,0 -3.578,-1.602 -3.58,-3.578 v 0 -16.726 h -1.068 v 16.726 c 0,1.977 -1.602,3.578 -3.576,3.578 v 0 c -1.978,0 -3.578,-1.602 -3.578,-3.578 v 0 -16.726 h -1.84 v 16.726 c 0,1.977 -1.602,3.578 -3.578,3.578 v 0 c -1.976,0 -3.575,-1.602 -3.578,-3.578 v 0 -16.726 h -1.068 v 16.726 c 0,1.977 -1.602,3.578 -3.578,3.578 v 0 c -1.977,0 -3.576,-1.602 -3.576,-3.578 v 0 -16.726 h -1.842 v 16.726 c 0,1.977 -1.6,3.578 -3.576,3.578 v 0 c -1.976,0 -3.578,-1.602 -3.578,-3.578 v 0 -16.726 h -1.068 v 16.726 c 0,1.977 -1.602,3.578 -3.578,3.578 v 0 c -1.977,0 -3.576,-1.602 -3.578,-3.578 v 0 -16.726 h -1.84 v 16.726 c 0,1.977 -1.6,3.578 -3.576,3.578 v 0 c -1.976,0 -3.578,-1.602 -3.578,-3.578 v 0 -16.726 h -1.07 v 16.726 c 0,1.977 -1.6,3.578 -3.576,3.578 v 0 c -1.976,0 -3.578,-1.602 -3.578,-3.578 v 0 -16.726 h -1.84 v 16.726 c 0,1.977 -1.602,3.578 -3.578,3.578 v 0 c -1.977,0 -3.576,-1.602 -3.578,-3.578 v 0 -16.726 h -1.068 v 16.726 c 0,1.977 -1.602,3.578 -3.578,3.578 v 0 c -1.976,0 -3.576,-1.602 -3.576,-3.578 v 0 -16.726 h -1.84 v 16.726 c -0.002,1.977 -1.602,3.578 -3.578,3.578 v 0 c -1.976,0 -3.576,-1.602 -3.578,-3.578 v 0 -16.726 h -1.068 v 16.726 c -0.002,1.977 -1.602,3.578 -3.578,3.578 v 0 c -1.976,0 -3.576,-1.602 -3.578,-3.578 v 0 -16.726 h -1.84 v 16.726 c 0,1.977 -1.6,3.578 -3.576,3.578 v 0 c -1.976,0 -3.578,-1.602 -3.578,-3.578 v 0 -16.726 h -1.07 v 16.726 c 0,1.977 -1.6,3.578 -3.576,3.578 v 0 c -1.976,0 -3.578,-1.602 -3.578,-3.578 v 0 -16.726 h -1.84 v 16.726 c 0,1.977 -1.602,3.578 -3.578,3.578 v 0 c -1.976,0 -3.576,-1.602 -3.578,-3.578 v 0 -16.726 h -1.068 v 16.726 c 0,1.977 -1.602,3.578 -3.576,3.578 v 0 c -1.976,0 -3.578,-1.602 -3.578,-3.578 v 0 l -0.002,-16.726 h -1.838 v 16.726 c 0,1.977 -1.602,3.578 -3.578,3.578 v 0 c -1.976,0 -3.576,-1.602 -3.578,-3.578 v 0 -16.726 h -1.068 v 16.726 c 0,1.977 -1.602,3.578 -3.578,3.578 v 0 c -1.976,0 -3.576,-1.602 -3.578,-3.578 v 0 -16.726 h -1.84 v 16.726 c 0,1.977 -1.6,3.578 -3.576,3.578 v 0 c -1.977,0 -3.578,-1.602 -3.578,-3.578 v 0 -16.726 h -1.579 v 32.823 z m 284,-32.864 v -1 z"
   id="path162" />
	<polygon
   fill="#f4f4f4"
   points="441.314,38.715 436.345,38.715 436.345,36.715 441.314,36.715 "
   id="polygon164" />
	<polygon
   fill="#f4f4f4"
   points="441.369,28.773 436.397,28.773 436.397,26.774 441.369,26.774 "
   id="polygon166" />
	<path
   fill="#f4f4f4"
   d="M 17.418,60.532 V 24.13 h 17.467 v 35.4 1.001 H 17.418 Z m 16.466,-1.001 v -1 z m -14.465,-1 H 32.885 L 32.883,26.129 H 19.419 Z"
   id="path168" />
	<path
   fill="#f4f4f4"
   d="M 6.415,305.785 V 74.188 h 586.646 v 230.597 1 z m 585.646,-1 v -1.001 z M 8.415,303.784 H 591.061 L 591.06,76.188 H 8.415 Z"
   id="path170" />
	<polygon
   fill="#f4f4f4"
   points="8.03,75.814 6.402,74.653 17.606,58.95 19.233,60.112 "
   id="polygon172" />
	<polygon
   fill="#f4f4f4"
   points="591.209,75.712 581.886,60.582 583.587,59.532 592.913,74.665 "
   id="polygon174" />
	<polygon
   fill="#f4f4f4"
   points="586.209,28.442 588.258,67.37 586.262,67.475 584.313,30.443 582.526,30.443 582.526,28.442 "
   id="polygon176" />
	<polygon
   fill="#f4f4f4"
   points="18.209,29.707 17.331,29.707 13.84,66.674 11.85,66.487 15.511,27.707 18.209,27.707 "
   id="polygon178" />
	<polygon
   fill="#f4f4f4"
   points="5.565,298.397 7.268,298.397 7.268,300.396 3.5,300.396 6.375,209.416 8.372,209.479 "
   id="polygon180" />
	<polygon
   fill="#f4f4f4"
   points="591.121,209.479 593.12,209.415 595.993,300.396 592.225,300.396 592.225,298.398 593.927,298.396 "
   id="polygon182" />
	<polygon
   fill="#f4f4f4"
   points="37.567,27.393 156.134,27.393 156.134,29.392 37.567,29.392 33.885,29.392 33.885,27.391 "
   id="polygon184" />
	<polygon
   fill="#f4f4f4"
   points="38.565,32.334 152.398,32.334 152.398,28.708 154.398,28.708 154.398,34.335 36.567,34.335 36.567,28.393 38.567,28.393 "
   id="polygon186" />
	<polygon
   fill="#f4f4f4"
   points="124.625,57.586 124.625,58.849 64.341,58.849 64.341,57.848 64.341,57.586 56.03,57.586 56.03,58.849 33.884,58.849 33.884,56.849 54.031,56.849 54.031,55.586 66.341,55.586 66.341,56.585 66.339,56.847 122.624,56.847 122.624,55.586 134.829,55.586 134.829,56.585 134.829,57.058 156.554,57.06 156.554,59.06 132.83,59.06 132.83,58.059 132.828,57.586 "
   id="polygon188" />
	<path
   fill="#f4f4f4"
   d="m 45.405,283.828 c -10.838,0 -19.621,-8.784 -19.623,-19.621 v 0 l 0.002,-154.02 c 0,-10.837 8.783,-19.621 19.621,-19.621 v 0 h 507.507 c 10.835,0 19.619,8.784 19.621,19.621 v 0 154.02 h -0.002 c 0,10.837 -8.784,19.621 -19.619,19.621 v 0 z M 27.783,110.187 v 154.02 c 0.017,9.732 7.89,17.603 17.622,17.622 v 0 l 507.507,-0.002 c 9.729,-0.018 17.604,-7.888 17.62,-17.62 v 0 -154.02 c -0.017,-9.732 -7.891,-17.603 -17.62,-17.622 v 0 H 45.405 c -9.732,0.019 -17.605,7.89 -17.622,17.622 z"
   id="path190" />
	<path
   fill="#f4f4f4"
   d="m 53.61,266.468 c -6.129,0 -11.099,-4.967 -11.099,-11.097 v 0 -136.347 c 0,-6.129 4.97,-11.099 11.099,-11.099 v 0 h 491.095 c 6.131,0 11.099,4.97 11.101,11.099 v 0 136.347 c -0.002,6.13 -4.972,11.097 -11.101,11.097 v 0 z M 44.511,119.024 v 136.347 c 0.01,5.022 4.075,9.087 9.1,9.098 v 0 l 491.095,-0.002 c 5.024,-0.009 9.091,-4.073 9.1,-9.096 v 0 -136.347 c -0.009,-5.025 -4.075,-9.091 -9.1,-9.1 v 0 H 53.61 c -5.025,0.009 -9.089,4.075 -9.099,9.1 z"
   id="path192" />
	<path
   fill="#f4f4f4"
   d="m 426.93,229.726 c 0,-3.907 3.167,-7.075 7.075,-7.075 v 0 c 3.907,0 7.073,3.168 7.073,7.075 v 0 c 0,3.908 -3.166,7.075 -7.073,7.075 v 0 c -3.908,0 -7.075,-3.167 -7.075,-7.075 z m 1.997,0 c 0.007,2.802 2.273,5.069 5.078,5.075 v 0 c 2.803,-0.006 5.067,-2.273 5.074,-5.075 v 0 c -0.007,-2.803 -2.271,-5.07 -5.074,-5.076 v 0 c -2.805,0.005 -5.071,2.273 -5.078,5.076 z"
   id="path194" />
	<g
   id="g200">
		<path
   fill="#f4f4f4"
   d="m 72.548,147.797 c -3.168,0 -5.735,-2.565 -5.735,-5.733 v 0 -16.728 c 0,-3.167 2.567,-5.733 5.735,-5.735 v 0 h 17.043 c 3.167,0.002 5.733,2.567 5.735,5.735 v 0 16.728 h -0.002 c 0,3.167 -2.565,5.733 -5.733,5.735 v 0 z m -3.735,-22.46 v 16.728 c 0.004,2.061 1.672,3.731 3.735,3.733 v 0 h 17.043 c 2.061,-0.002 3.731,-1.672 3.735,-3.733 v 0 h -0.002 l 0.002,-16.728 c -0.004,-2.063 -1.674,-3.731 -3.735,-3.733 v 0 l -17.043,-0.002 c -2.063,0.004 -3.731,1.671 -3.735,3.735 z"
   id="path196" />
		<path
   fill="#f4f4f4"
   d="m 76.177,142.59 c -3.166,0 -5.733,-2.566 -5.733,-5.733 v 0 -9.311 c 0,-3.168 2.565,-5.733 5.733,-5.736 v 0 h 9.311 c 3.167,0.002 5.733,2.568 5.735,5.736 v 0 9.311 h -0.002 c 0,3.167 -2.566,5.733 -5.733,5.733 v 0 z m -3.733,-15.044 -0.002,9.311 c 0.004,2.062 1.673,3.73 3.735,3.732 v 0 l 9.311,0.002 c 2.062,-0.004 3.73,-1.673 3.735,-3.735 v 0 -9.311 c -0.004,-2.062 -1.673,-3.731 -3.735,-3.735 v 0 h -9.311 c -2.062,0.005 -3.731,1.674 -3.733,3.736 z"
   id="path198" />
	</g>
	<g
   id="g206">
		<path
   fill="#f4f4f4"
   d="m 99.44,147.797 c -3.167,0 -5.733,-2.565 -5.735,-5.733 v 0 l 0.002,-16.728 c 0,-3.167 2.565,-5.733 5.733,-5.735 v 0 h 17.043 c 3.168,0.002 5.735,2.567 5.735,5.735 v 0 16.728 c 0,3.167 -2.567,5.733 -5.735,5.735 v 0 z m -3.732,-22.46 v 16.728 c 0.002,2.061 1.672,3.731 3.733,3.733 v 0 h 17.043 c 2.062,-0.002 3.731,-1.672 3.735,-3.733 v 0 -16.728 c -0.004,-2.061 -1.674,-3.731 -3.735,-3.733 v 0 l -17.043,-0.002 c -2.062,0.004 -3.732,1.671 -3.733,3.735 z"
   id="path202" />
		<path
   fill="#f4f4f4"
   d="m 103.07,142.59 c -3.168,0 -5.733,-2.566 -5.736,-5.733 v 0 -9.311 c 0.002,-3.168 2.568,-5.733 5.736,-5.736 v 0 h 9.311 c 3.167,0.002 5.733,2.568 5.733,5.736 v 0 9.311 c 0,3.167 -2.566,5.733 -5.733,5.733 v 0 z m -3.735,-15.044 v 9.311 c 0.004,2.062 1.673,3.73 3.735,3.732 v 0 l 9.311,0.002 c 2.062,-0.004 3.73,-1.673 3.735,-3.735 v 0 h -0.002 l 0.002,-9.311 c -0.004,-2.062 -1.673,-3.731 -3.735,-3.735 v 0 h -9.311 c -2.062,0.005 -3.731,1.674 -3.735,3.736 z"
   id="path204" />
	</g>
	<g
   id="g212">
		<path
   fill="#f4f4f4"
   d="m 126.333,147.797 c -3.168,0 -5.733,-2.565 -5.733,-5.733 v 0 -16.728 c 0,-3.167 2.565,-5.733 5.733,-5.735 v 0 h 17.043 c 3.167,0.002 5.733,2.567 5.735,5.735 v 0 16.728 c -0.002,3.167 -2.567,5.733 -5.735,5.735 v 0 z m -3.733,-22.46 v 16.728 c 0.004,2.061 1.672,3.731 3.733,3.733 v 0 h 17.043 c 2.063,-0.002 3.731,-1.672 3.735,-3.733 v 0 -16.728 c -0.004,-2.063 -1.672,-3.731 -3.735,-3.733 v 0 l -17.043,-0.002 c -2.062,0.004 -3.729,1.671 -3.733,3.735 z"
   id="path208" />
		<path
   fill="#f4f4f4"
   d="m 129.964,142.59 c -3.168,0 -5.736,-2.566 -5.736,-5.733 v 0 -9.311 c 0,-3.168 2.568,-5.733 5.736,-5.736 v 0 h 9.311 c 3.166,0.002 5.731,2.568 5.733,5.736 v 0 9.311 c -0.002,3.167 -2.568,5.733 -5.733,5.733 v 0 z m -3.735,-15.044 v 9.311 c 0.004,2.062 1.671,3.73 3.735,3.732 v 0 h 9.311 c 2.062,-0.002 3.729,-1.67 3.733,-3.732 v 0 -9.311 c -0.004,-2.062 -1.673,-3.731 -3.733,-3.735 v 0 h -9.311 c -2.064,0.004 -3.731,1.673 -3.735,3.735 z"
   id="path210" />
	</g>
	<g
   id="g218">
		<path
   fill="#f4f4f4"
   d="m 153.227,147.797 c -3.167,0 -5.735,-2.565 -5.735,-5.733 v 0 -16.728 c 0,-3.167 2.567,-5.733 5.735,-5.735 v 0 h 17.043 c 3.166,0.002 5.733,2.567 5.733,5.735 v 0 16.728 c 0,3.167 -2.567,5.733 -5.733,5.735 v 0 z m -3.735,-22.46 v 16.728 c 0.004,2.061 1.672,3.731 3.735,3.733 v 0 h 17.043 c 2.062,-0.002 3.729,-1.672 3.733,-3.733 v 0 -16.728 c -0.004,-2.063 -1.672,-3.731 -3.733,-3.733 v 0 l -17.043,-0.002 c -2.063,0.004 -3.731,1.671 -3.735,3.735 z"
   id="path214" />
		<path
   fill="#f4f4f4"
   d="m 156.855,142.59 c -3.167,0 -5.733,-2.566 -5.733,-5.733 v 0 -9.311 c 0,-3.168 2.565,-5.733 5.733,-5.736 v 0 h 9.311 c 3.167,0.002 5.733,2.568 5.735,5.736 v 0 9.311 c -0.002,3.167 -2.568,5.733 -5.735,5.733 v 0 z m -3.732,-15.044 -0.002,9.311 c 0.004,2.062 1.673,3.73 3.735,3.732 v 0 l 9.311,0.002 c 2.064,-0.004 3.73,-1.673 3.735,-3.735 v 0 -9.311 c -0.004,-2.062 -1.671,-3.731 -3.735,-3.735 v 0 h -9.311 c -2.063,0.005 -3.731,1.674 -3.733,3.736 z"
   id="path216" />
	</g>
	<g
   id="g224">
		<path
   fill="#f4f4f4"
   d="m 180.12,147.797 c -3.168,0 -5.733,-2.565 -5.735,-5.733 v 0 -16.728 c 0.002,-3.167 2.567,-5.733 5.735,-5.735 v 0 h 17.043 c 3.166,0.002 5.733,2.567 5.735,5.735 v 0 16.728 c -0.002,3.167 -2.569,5.733 -5.735,5.735 v 0 z m -3.736,-22.46 v 16.728 c 0.004,2.061 1.672,3.731 3.735,3.733 v 0 h 17.043 c 2.061,-0.002 3.731,-1.672 3.735,-3.733 v 0 -16.728 c -0.004,-2.061 -1.674,-3.731 -3.735,-3.733 v 0 l -17.043,-0.002 c -2.063,0.004 -3.731,1.671 -3.735,3.735 z"
   id="path220" />
		<path
   fill="#f4f4f4"
   d="m 183.749,142.59 c -3.168,0 -5.733,-2.566 -5.733,-5.733 v 0 -9.311 c 0,-3.168 2.565,-5.733 5.733,-5.736 v 0 h 9.311 c 3.167,0.002 5.733,2.568 5.733,5.736 v 0 9.311 c 0,3.167 -2.565,5.733 -5.733,5.733 v 0 z m -3.733,-15.044 -0.002,9.311 c 0.004,2.062 1.673,3.73 3.735,3.732 v 0 l 9.311,0.002 c 2.062,-0.004 3.73,-1.673 3.735,-3.735 v 0 -9.311 c -0.004,-2.062 -1.673,-3.731 -3.735,-3.735 v 0 h -9.311 c -2.062,0.005 -3.731,1.674 -3.733,3.736 z"
   id="path222" />
	</g>
	<g
   id="g230">
		<path
   fill="#f4f4f4"
   d="m 207.012,147.797 c -3.167,0 -5.733,-2.565 -5.735,-5.733 v 0 -16.728 c 0.002,-3.167 2.567,-5.733 5.735,-5.735 v 0 h 17.043 c 3.168,0.002 5.735,2.567 5.735,5.735 v 0 16.728 c 0,3.167 -2.567,5.733 -5.735,5.735 v 0 z m -3.734,-22.46 -0.002,16.728 c 0.004,2.061 1.672,3.731 3.735,3.733 v 0 h 17.043 c 2.063,-0.002 3.731,-1.672 3.735,-3.733 v 0 -16.728 c -0.004,-2.063 -1.672,-3.731 -3.735,-3.733 v 0 l -17.043,-0.002 c -2.063,0.004 -3.73,1.671 -3.733,3.735 z"
   id="path226" />
		<path
   fill="#f4f4f4"
   d="m 210.643,142.59 c -3.168,0 -5.736,-2.566 -5.736,-5.733 v 0 -9.311 c 0,-3.168 2.568,-5.733 5.736,-5.736 v 0 h 9.311 c 3.166,0.002 5.733,2.568 5.733,5.736 v 0 9.311 c 0,3.167 -2.568,5.733 -5.733,5.733 v 0 z m -3.735,-15.044 v 9.311 c 0.004,2.062 1.67,3.73 3.735,3.732 v 0 l 9.311,0.002 c 2.062,-0.004 3.73,-1.673 3.732,-3.735 v 0 -9.311 c -0.002,-2.062 -1.67,-3.731 -3.732,-3.735 v 0 h -9.311 c -2.065,0.005 -3.731,1.674 -3.735,3.736 z"
   id="path228" />
	</g>
	<g
   id="g236">
		<path
   fill="#f4f4f4"
   d="m 233.906,147.797 c -3.168,0 -5.735,-2.565 -5.735,-5.733 v 0 -16.728 c 0,-3.167 2.567,-5.733 5.735,-5.735 v 0 h 17.041 c 3.167,0.002 5.735,2.567 5.735,5.735 v 0 16.728 c 0,3.167 -2.567,5.733 -5.735,5.735 v 0 z m -3.735,-22.46 v 16.728 c 0.004,2.061 1.672,3.731 3.735,3.733 v 0 h 17.041 c 2.063,-0.002 3.731,-1.672 3.735,-3.733 v 0 -16.728 c -0.004,-2.063 -1.672,-3.731 -3.735,-3.733 v 0 l -17.041,-0.002 c -2.063,0.004 -3.731,1.671 -3.735,3.735 z"
   id="path232" />
		<path
   fill="#f4f4f4"
   d="m 237.536,142.59 c -3.168,0 -5.736,-2.566 -5.736,-5.733 v 0 -9.311 c 0,-3.168 2.568,-5.733 5.736,-5.736 v 0 h 9.308 c 3.168,0.002 5.736,2.568 5.736,5.736 v 0 9.311 c 0,3.167 -2.568,5.733 -5.736,5.733 v 0 z m -3.735,-15.044 v 9.311 c 0.002,2.062 1.67,3.73 3.735,3.732 v 0 l 9.308,0.002 c 2.062,-0.004 3.731,-1.673 3.735,-3.735 v 0 -9.311 c -0.004,-2.062 -1.673,-3.731 -3.735,-3.735 v 0 h -9.308 c -2.064,0.005 -3.733,1.674 -3.735,3.736 z"
   id="path234" />
	</g>
	<g
   id="g242">
		<path
   fill="#f4f4f4"
   d="m 260.796,147.799 c -3.166,-0.002 -5.731,-2.569 -5.733,-5.735 v 0 -16.727 c 0.002,-3.168 2.567,-5.733 5.733,-5.735 v 0 h 17.045 c 3.166,0.002 5.733,2.567 5.735,5.735 v 0 16.727 h -0.002 c 0,3.168 -2.567,5.733 -5.733,5.735 v 0 z m -3.732,-22.462 v 16.727 c 0.004,2.063 1.672,3.73 3.732,3.734 v 0 h 17.045 c 2.06,-0.004 3.73,-1.672 3.734,-3.734 v 0 -16.727 c -0.004,-2.062 -1.674,-3.73 -3.734,-3.734 v 0 h -17.045 c -2.06,0.003 -3.728,1.672 -3.732,3.734 z"
   id="path238" />
		<path
   fill="#f4f4f4"
   d="m 264.429,142.591 c -3.168,0 -5.734,-2.566 -5.736,-5.734 v 0 -9.311 c 0.002,-3.167 2.568,-5.732 5.736,-5.734 v 0 h 9.309 c 3.168,0.002 5.734,2.568 5.734,5.734 v 0 9.311 c 0,3.168 -2.565,5.734 -5.734,5.734 v 0 z m -3.735,-15.046 -0.002,9.311 c 0.004,2.063 1.674,3.73 3.737,3.734 v 0 h 9.309 c 2.063,-0.004 3.73,-1.671 3.734,-3.734 v 0 -9.311 c -0.004,-2.061 -1.671,-3.73 -3.734,-3.735 v 0 h -9.309 c -2.063,0.005 -3.733,1.674 -3.735,3.735 z"
   id="path240" />
	</g>
	<g
   id="g248">
		<path
   fill="#f4f4f4"
   d="m 287.69,147.798 c -3.167,0 -5.733,-2.565 -5.735,-5.733 v 0 l 0.002,-16.727 c 0,-3.168 2.567,-5.735 5.733,-5.735 v 0 h 17.043 c 3.166,0 5.733,2.567 5.735,5.735 v 0 16.727 h -0.002 c 0,3.168 -2.567,5.733 -5.733,5.733 v 0 z m -3.734,-22.46 v 16.727 c 0.004,2.061 1.671,3.73 3.734,3.734 v 0 h 17.043 c 2.063,-0.004 3.73,-1.674 3.734,-3.734 v 0 -16.727 c -0.004,-2.063 -1.671,-3.732 -3.734,-3.734 v 0 l -17.043,-0.002 c -2.063,0.003 -3.73,1.673 -3.734,3.736 z"
   id="path244" />
		<path
   fill="#f4f4f4"
   d="m 291.32,142.59 c -3.167,0 -5.732,-2.566 -5.735,-5.732 v 0 -9.311 c 0.002,-3.169 2.568,-5.735 5.735,-5.735 v 0 h 9.311 c 3.167,0 5.732,2.566 5.734,5.735 v 0 9.311 h -0.002 c 0,3.167 -2.565,5.732 -5.732,5.734 v 0 z m -3.735,-15.043 v 9.311 c 0.004,2.062 1.673,3.73 3.735,3.732 v 0 l 9.311,0.002 c 2.062,-0.004 3.73,-1.673 3.734,-3.734 v 0 h -0.002 l 0.002,-9.311 c -0.004,-2.064 -1.673,-3.73 -3.734,-3.735 v 0 h -9.311 c -2.062,0.004 -3.73,1.671 -3.735,3.735 z"
   id="path246" />
	</g>
	<g
   id="g254">
		<path
   fill="#f4f4f4"
   d="m 314.583,147.798 c -3.166,0 -5.733,-2.567 -5.735,-5.733 v 0 l 0.002,-16.728 c 0,-3.168 2.567,-5.733 5.733,-5.735 v 0 l 17.044,0.002 c 3.168,0 5.733,2.565 5.733,5.733 v 0 16.728 c 0,3.166 -2.565,5.733 -5.733,5.733 v 0 z m -3.734,-22.461 v 16.728 c 0.004,2.061 1.673,3.73 3.734,3.734 v 0 h 17.044 c 2.061,-0.004 3.729,-1.673 3.733,-3.734 v 0 -16.728 c -0.004,-2.063 -1.673,-3.73 -3.733,-3.734 v 0 h -17.044 c -2.062,0.004 -3.73,1.673 -3.734,3.734 z"
   id="path250" />
		<path
   fill="#f4f4f4"
   d="m 318.214,142.59 c -3.169,0 -5.734,-2.566 -5.737,-5.732 v 0 l 0.003,-9.313 c 0,-3.167 2.565,-5.733 5.734,-5.735 v 0 l 9.311,0.002 c 3.166,0 5.732,2.566 5.734,5.733 v 0 9.313 h -0.002 c 0,3.167 -2.566,5.732 -5.732,5.732 v 0 z m -3.736,-15.045 v 9.313 c 0.004,2.06 1.672,3.73 3.736,3.732 v 0 h 9.311 c 2.063,-0.002 3.73,-1.67 3.734,-3.732 v 0 h -0.002 l 0.002,-9.313 c -0.004,-2.063 -1.672,-3.73 -3.734,-3.734 v 0 h -9.311 c -2.065,0.004 -3.733,1.674 -3.736,3.734 z"
   id="path252" />
	</g>
	<g
   id="g260">
		<path
   fill="#f4f4f4"
   d="m 341.279,147.798 c -3.168,0 -5.733,-2.567 -5.735,-5.733 v 0 l 0.002,-16.729 c 0,-3.166 2.565,-5.733 5.733,-5.733 v 0 h 17.043 c 3.167,0 5.734,2.565 5.734,5.733 v 0 16.729 c 0,3.166 -2.567,5.733 -5.734,5.733 v 0 z m -3.733,-22.462 -0.002,16.729 c 0.004,2.062 1.672,3.729 3.735,3.734 v 0 h 17.043 c 2.063,-0.004 3.73,-1.672 3.734,-3.734 v 0 -16.729 c -0.004,-2.062 -1.672,-3.729 -3.734,-3.734 v 0 h -17.043 c -2.063,0.005 -3.731,1.673 -3.733,3.734 z"
   id="path256" />
		<path
   fill="#f4f4f4"
   d="m 344.909,142.59 c -3.169,0 -5.734,-2.566 -5.736,-5.733 v 0 l 0.002,-9.312 c 0,-3.167 2.565,-5.732 5.734,-5.734 v 0 h 9.312 c 3.167,0.002 5.73,2.568 5.732,5.734 v 0 9.312 h -0.002 c 0,3.167 -2.563,5.733 -5.73,5.735 v 0 z m -3.734,-15.045 -0.002,9.312 c 0.004,2.063 1.672,3.73 3.736,3.734 v 0 h 9.312 c 2.061,-0.004 3.728,-1.671 3.732,-3.734 v 0 h -0.002 l 0.002,-9.312 c -0.005,-2.063 -1.672,-3.73 -3.732,-3.734 v 0 h -9.312 c -2.064,0.004 -3.732,1.672 -3.734,3.734 z"
   id="path258" />
	</g>
	<g
   id="g266">
		<path
   fill="#f4f4f4"
   d="m 368.172,147.799 c -3.166,-0.002 -5.733,-2.567 -5.735,-5.733 v 0 l 0.002,-16.729 c 0,-3.168 2.567,-5.733 5.733,-5.735 v 0 l 17.043,0.002 c 3.168,0 5.733,2.565 5.735,5.733 v 0 16.729 h -0.002 c 0,3.166 -2.565,5.731 -5.733,5.733 v 0 z m -3.734,-22.462 -0.002,16.729 c 0.004,2.06 1.674,3.729 3.735,3.731 v 0 l 17.043,0.002 c 2.063,-0.004 3.731,-1.674 3.735,-3.734 v 0 h -0.002 l 0.002,-16.729 c -0.004,-2.062 -1.673,-3.731 -3.735,-3.733 v 0 l -17.043,-0.002 c -2.061,0.004 -3.731,1.674 -3.733,3.736 z"
   id="path262" />
		<path
   fill="#f4f4f4"
   d="m 371.802,142.591 c -3.167,-0.002 -5.735,-2.566 -5.735,-5.735 v 0 -9.311 c 0,-3.167 2.568,-5.733 5.735,-5.735 v 0 h 9.311 c 3.167,0.002 5.732,2.568 5.734,5.735 v 0 9.311 h -0.002 c 0,3.169 -2.565,5.733 -5.732,5.735 v 0 z m -3.735,-15.045 -0.002,9.311 c 0.004,2.061 1.673,3.729 3.736,3.734 v 0 h 9.311 c 2.062,-0.004 3.729,-1.67 3.733,-3.734 v 0 -9.311 c -0.004,-2.062 -1.672,-3.73 -3.733,-3.734 v 0 h -9.311 c -2.063,0.004 -3.732,1.672 -3.734,3.734 z"
   id="path264" />
	</g>
	<g
   id="g272">
		<path
   fill="#f4f4f4"
   d="m 395.064,147.797 c -3.166,0 -5.733,-2.565 -5.735,-5.733 v 0 l 0.002,-16.727 c 0,-3.168 2.567,-5.733 5.733,-5.735 v 0 h 17.044 c 3.166,0.002 5.733,2.567 5.733,5.735 v 0 16.727 c 0,3.168 -2.567,5.733 -5.733,5.735 v 0 z m -3.733,-22.46 -0.002,16.727 c 0.004,2.063 1.673,3.731 3.735,3.733 v 0 l 17.044,0.002 c 2.061,-0.004 3.73,-1.673 3.732,-3.735 v 0 -16.727 c -0.002,-2.063 -1.672,-3.731 -3.732,-3.735 v 0 h -17.044 c -2.062,0.004 -3.731,1.673 -3.733,3.735 z"
   id="path268" />
		<path
   fill="#f4f4f4"
   d="m 398.694,142.591 c -3.167,0 -5.735,-2.566 -5.735,-5.735 v 0 -9.31 c 0,-3.168 2.568,-5.734 5.735,-5.734 v 0 h 9.312 c 3.166,0 5.732,2.566 5.734,5.734 v 0 9.31 h -0.002 c 0,3.169 -2.566,5.735 -5.732,5.735 v 0 z m -3.733,-15.045 -0.002,9.31 c 0.004,2.062 1.674,3.731 3.735,3.734 v 0 l 9.312,0.002 c 2.062,-0.004 3.729,-1.674 3.733,-3.736 v 0 -9.31 c -0.004,-2.062 -1.672,-3.731 -3.733,-3.735 v 0 h -9.312 c -2.061,0.004 -3.731,1.674 -3.733,3.735 z"
   id="path270" />
	</g>
	<g
   id="g278">
		<path
   fill="#f4f4f4"
   d="m 468.354,163.105 c -3.169,0 -5.735,-2.567 -5.735,-5.733 v 0 -16.729 c 0,-3.167 2.566,-5.733 5.735,-5.733 v 0 h 17.042 c 3.167,0 5.733,2.567 5.735,5.733 v 0 16.729 h -0.002 c 0,3.167 -2.566,5.733 -5.733,5.733 v 0 z m -3.734,-22.461 -0.003,16.729 c 0.005,2.062 1.673,3.73 3.737,3.732 v 0 h 17.042 c 2.063,-0.002 3.73,-1.67 3.734,-3.732 v 0 -16.729 c -0.004,-2.062 -1.672,-3.73 -3.734,-3.732 v 0 l -17.042,-0.002 c -2.064,0.003 -3.732,1.672 -3.734,3.734 z"
   id="path274" />
		<path
   fill="#f4f4f4"
   d="m 471.981,157.899 c -3.167,-0.002 -5.732,-2.567 -5.734,-5.735 v 0 l 0.002,-9.312 c 0,-3.167 2.565,-5.733 5.732,-5.733 v 0 h 9.313 c 3.165,0 5.732,2.565 5.734,5.733 v 0 9.312 h -0.002 c 0,3.167 -2.565,5.733 -5.732,5.735 v 0 z m -3.732,-15.046 -0.002,9.312 c 0.004,2.061 1.674,3.731 3.734,3.735 v 0 h 9.313 c 2.061,-0.004 3.73,-1.674 3.734,-3.735 v 0 h -0.002 l 0.002,-9.312 c -0.004,-2.061 -1.674,-3.729 -3.734,-3.733 v 0 h -9.313 c -2.062,0.004 -3.73,1.672 -3.732,3.733 z"
   id="path276" />
	</g>
	<g
   id="g284">
		<path
   fill="#f4f4f4"
   d="m 495.246,163.105 c -3.167,0 -5.733,-2.566 -5.735,-5.733 v 0 l 0.002,-16.728 c 0,-3.168 2.566,-5.735 5.733,-5.735 v 0 h 17.044 c 3.166,0 5.732,2.567 5.734,5.735 v 0 16.728 h -0.002 c 0,3.167 -2.566,5.733 -5.732,5.733 v 0 z m -3.734,-22.46 v 16.728 c 0.004,2.06 1.672,3.73 3.734,3.734 v 0 h 17.044 c 2.062,-0.004 3.729,-1.671 3.733,-3.734 v 0 -16.728 c -0.004,-2.062 -1.672,-3.731 -3.733,-3.734 v 0 l -17.044,-0.002 c -2.062,0.004 -3.73,1.674 -3.734,3.736 z"
   id="path280" />
		<path
   fill="#f4f4f4"
   d="m 498.876,157.898 c -3.169,0 -5.732,-2.567 -5.734,-5.734 v 0 l 0.002,-9.311 c 0,-3.167 2.563,-5.734 5.732,-5.734 v 0 h 9.311 c 3.168,0 5.733,2.567 5.736,5.734 v 0 9.311 h -0.003 c 0,3.167 -2.565,5.734 -5.733,5.734 v 0 z m -3.732,-15.044 -0.002,9.311 c 0.004,2.063 1.673,3.73 3.734,3.734 v 0 h 9.311 c 2.063,-0.004 3.731,-1.673 3.736,-3.734 v 0 h -0.003 l 0.003,-9.311 c -0.005,-2.063 -1.674,-3.73 -3.736,-3.734 v 0 h -9.311 c -2.062,0.004 -3.73,1.671 -3.732,3.734 z"
   id="path282" />
	</g>
	<g
   id="g290">
		<path
   fill="#f4f4f4"
   d="m 522.14,163.106 c -3.168,-0.002 -5.734,-2.569 -5.736,-5.734 v 0 l 0.002,-16.728 c 0,-3.168 2.566,-5.734 5.734,-5.734 v 0 h 17.042 c 3.167,0 5.733,2.566 5.733,5.734 v 0 16.728 c 0,3.166 -2.566,5.732 -5.733,5.734 v 0 z m -3.736,-22.462 v 16.728 c 0.005,2.063 1.671,3.729 3.735,3.733 v 0 h 17.042 c 2.063,-0.004 3.73,-1.671 3.735,-3.733 v 0 -16.728 c -0.005,-2.063 -1.673,-3.731 -3.735,-3.733 v 0 l -17.042,-0.002 c -2.064,0.004 -3.73,1.673 -3.735,3.735 z"
   id="path286" />
		<path
   fill="#f4f4f4"
   d="m 525.767,157.897 c -3.166,0 -5.73,-2.565 -5.733,-5.733 v 0 l 0.003,-9.311 c 0,-3.168 2.564,-5.733 5.73,-5.735 v 0 l 9.313,0.002 c 3.167,0 5.734,2.565 5.734,5.733 v 0 9.311 c 0,3.168 -2.567,5.733 -5.734,5.735 v 0 z m -3.734,-15.043 v 9.311 c 0.005,2.062 1.675,3.731 3.733,3.733 v 0 l 9.313,0.002 c 2.062,-0.004 3.731,-1.674 3.733,-3.735 v 0 -9.311 c -0.002,-2.062 -1.672,-3.731 -3.733,-3.733 v 0 l -9.313,-0.002 c -2.058,0.003 -3.728,1.673 -3.733,3.735 z"
   id="path288" />
	</g>
	<g
   id="g296">
		<path
   fill="#f4f4f4"
   d="m 468.354,189.143 c -3.169,0 -5.735,-2.567 -5.735,-5.733 v 0 -16.727 c 0,-3.167 2.566,-5.733 5.735,-5.736 v 0 l 17.042,0.002 c 3.167,0 5.733,2.564 5.735,5.733 v 0 16.727 h -0.002 c 0,3.168 -2.566,5.733 -5.733,5.735 v 0 z m -3.734,-22.46 -0.003,16.727 c 0.005,2.062 1.675,3.73 3.737,3.734 v 0 h 17.042 c 2.063,-0.004 3.73,-1.673 3.734,-3.734 v 0 -16.727 c -0.004,-2.062 -1.672,-3.73 -3.734,-3.735 v 0 h -17.042 c -2.064,0.004 -3.732,1.673 -3.734,3.735 z"
   id="path292" />
		<path
   fill="#f4f4f4"
   d="m 471.981,183.936 c -3.167,0 -5.732,-2.567 -5.734,-5.734 v 0 l 0.002,-9.31 c 0,-3.167 2.565,-5.732 5.732,-5.735 v 0 h 9.313 c 3.165,0.002 5.732,2.568 5.734,5.735 v 0 9.31 h -0.002 c 0,3.169 -2.567,5.734 -5.732,5.734 v 0 z m -3.732,-15.045 -0.002,9.31 c 0.004,2.063 1.672,3.73 3.734,3.734 v 0 h 9.313 c 2.061,-0.004 3.73,-1.672 3.734,-3.734 v 0 h -0.002 l 0.002,-9.31 c -0.004,-2.061 -1.674,-3.73 -3.734,-3.732 v 0 l -9.313,-0.002 c -2.062,0.004 -3.73,1.674 -3.732,3.734 z"
   id="path294" />
	</g>
	<g
   id="g302">
		<path
   fill="#f4f4f4"
   d="m 495.246,189.143 c -3.167,0 -5.733,-2.566 -5.735,-5.732 v 0 l 0.002,-16.728 c 0,-3.168 2.566,-5.735 5.733,-5.735 v 0 h 17.044 c 3.166,0 5.732,2.567 5.734,5.735 v 0 16.728 h -0.002 c 0,3.166 -2.564,5.732 -5.732,5.734 v 0 z m -3.734,-22.46 v 16.728 c 0.004,2.06 1.674,3.729 3.734,3.733 v 0 h 17.044 c 2.062,-0.004 3.729,-1.674 3.733,-3.733 v 0 -16.728 c -0.004,-2.062 -1.672,-3.731 -3.733,-3.734 v 0 l -17.044,-0.002 c -2.062,0.004 -3.73,1.674 -3.734,3.736 z"
   id="path298" />
		<path
   fill="#f4f4f4"
   d="m 498.876,183.936 c -3.169,0 -5.732,-2.567 -5.734,-5.734 v 0 l 0.002,-9.31 c 0,-3.167 2.563,-5.734 5.732,-5.734 v 0 h 9.311 c 3.168,0 5.733,2.567 5.736,5.734 v 0 9.31 h -0.003 c 0,3.167 -2.565,5.734 -5.733,5.734 v 0 z m -3.732,-15.044 -0.002,9.31 c 0.004,2.063 1.673,3.73 3.734,3.734 v 0 h 9.311 c 2.063,-0.004 3.731,-1.671 3.736,-3.734 v 0 h -0.003 l 0.003,-9.31 c -0.005,-2.063 -1.674,-3.73 -3.736,-3.734 v 0 h -9.311 c -2.062,0.004 -3.73,1.671 -3.732,3.734 z"
   id="path300" />
	</g>
	<g
   id="g308">
		<path
   fill="#f4f4f4"
   d="m 522.14,189.143 c -3.17,0 -5.734,-2.566 -5.736,-5.732 v 0 l 0.002,-16.728 c 0,-3.167 2.566,-5.734 5.734,-5.734 v 0 h 17.042 c 3.167,0 5.733,2.566 5.733,5.734 v 0 16.728 c 0,3.166 -2.566,5.732 -5.733,5.734 v 0 z m -3.736,-22.46 v 16.728 c 0.005,2.061 1.673,3.729 3.735,3.733 v 0 h 17.042 c 2.063,-0.004 3.73,-1.673 3.735,-3.733 v 0 -16.728 c -0.005,-2.063 -1.673,-3.731 -3.735,-3.735 v 0 H 522.14 c -2.065,0.004 -3.731,1.672 -3.736,3.735 z"
   id="path304" />
		<path
   fill="#f4f4f4"
   d="m 525.767,183.936 c -3.166,0 -5.73,-2.566 -5.733,-5.733 v 0 l 0.003,-9.31 c 0,-3.168 2.564,-5.734 5.73,-5.736 v 0 h 9.313 c 3.167,0.002 5.734,2.567 5.734,5.736 v 0 9.31 c 0,3.167 -2.567,5.733 -5.734,5.733 v 0 z m -3.734,-15.043 v 9.31 c 0.005,2.062 1.675,3.729 3.733,3.733 v 0 h 9.313 c 2.062,-0.004 3.731,-1.672 3.733,-3.733 v 0 -9.31 c -0.002,-2.063 -1.672,-3.731 -3.733,-3.736 v 0 h -9.313 c -2.058,0.004 -3.728,1.672 -3.733,3.736 z"
   id="path306" />
	</g>
	<g
   id="g314">
		<path
   fill="#f4f4f4"
   d="m 468.354,215.339 c -3.169,0 -5.735,-2.566 -5.735,-5.733 v 0 -16.727 c 0,-3.166 2.566,-5.735 5.735,-5.735 v 0 h 17.042 c 3.167,0 5.733,2.566 5.735,5.735 v 0 16.727 h -0.002 c 0,3.169 -2.566,5.733 -5.733,5.733 v 0 z m -3.734,-22.46 -0.003,16.727 c 0.005,2.063 1.673,3.73 3.737,3.732 v 0 l 17.042,0.002 c 2.063,-0.004 3.73,-1.672 3.734,-3.734 v 0 -16.727 c -0.004,-2.062 -1.672,-3.732 -3.734,-3.734 v 0 l -17.042,-0.002 c -2.062,0.003 -3.732,1.672 -3.734,3.736 z"
   id="path310" />
		<path
   fill="#f4f4f4"
   d="m 471.981,210.132 c -3.167,0 -5.732,-2.567 -5.734,-5.734 v 0 l 0.002,-9.31 c 0,-3.167 2.565,-5.733 5.732,-5.735 v 0 l 9.313,0.002 c 3.165,0 5.732,2.563 5.734,5.733 v 0 9.31 h -0.002 c 0,3.167 -2.565,5.734 -5.732,5.734 v 0 z m -3.732,-15.044 -0.002,9.31 c 0.004,2.063 1.674,3.73 3.734,3.734 v 0 h 9.313 c 2.061,-0.004 3.73,-1.674 3.734,-3.734 v 0 h -0.002 l 0.002,-9.31 c -0.004,-2.062 -1.674,-3.731 -3.734,-3.733 v 0 l -9.313,-0.002 c -2.062,0.003 -3.73,1.671 -3.732,3.735 z"
   id="path312" />
	</g>
	<g
   id="g320">
		<path
   fill="#f4f4f4"
   d="m 495.246,215.339 c -3.167,0 -5.733,-2.564 -5.735,-5.732 v 0 l 0.002,-16.728 c 0,-3.168 2.566,-5.735 5.733,-5.735 v 0 h 17.044 c 3.168,0 5.732,2.567 5.734,5.735 v 0 16.728 h -0.002 c 0,3.166 -2.566,5.732 -5.732,5.732 v 0 z m -3.734,-22.46 v 16.728 c 0.004,2.061 1.672,3.729 3.734,3.731 v 0 l 17.044,0.003 c 2.062,-0.005 3.729,-1.672 3.733,-3.734 v 0 -16.728 c -0.004,-2.063 -1.672,-3.731 -3.733,-3.734 v 0 l -17.044,-0.002 c -2.06,0.004 -3.73,1.673 -3.734,3.736 z"
   id="path316" />
		<path
   fill="#f4f4f4"
   d="m 498.876,210.132 c -3.169,0 -5.732,-2.567 -5.734,-5.734 v 0 l 0.002,-9.31 c 0,-3.167 2.563,-5.734 5.732,-5.734 v 0 h 9.311 c 3.168,0 5.733,2.567 5.736,5.734 v 0 9.31 h -0.003 c 0,3.167 -2.565,5.734 -5.733,5.734 v 0 z m -3.732,-15.044 -0.002,9.31 c 0.004,2.062 1.673,3.73 3.734,3.734 v 0 h 9.311 c 2.063,-0.004 3.731,-1.673 3.736,-3.734 v 0 h -0.003 l 0.003,-9.31 c -0.005,-2.063 -1.674,-3.73 -3.736,-3.734 v 0 h -9.311 c -2.062,0.003 -3.73,1.67 -3.732,3.734 z"
   id="path318" />
	</g>
	<g
   id="g326">
		<path
   fill="#f4f4f4"
   d="m 522.14,215.338 c -3.168,0 -5.734,-2.564 -5.736,-5.731 v 0 l 0.002,-16.729 c 0,-3.166 2.564,-5.734 5.734,-5.734 v 0 h 17.042 c 3.167,0 5.733,2.568 5.733,5.734 v 0 16.729 c 0,3.167 -2.566,5.731 -5.733,5.733 v 0 z m -3.736,-22.46 v 16.729 c 0.005,2.063 1.671,3.729 3.735,3.732 v 0 h 17.042 c 2.063,-0.004 3.73,-1.67 3.735,-3.732 v 0 -16.729 c -0.005,-2.063 -1.673,-3.731 -3.735,-3.733 v 0 l -17.042,-0.002 c -2.062,0.003 -3.73,1.672 -3.735,3.735 z"
   id="path322" />
		<path
   fill="#f4f4f4"
   d="m 525.767,210.132 c -3.166,0 -5.73,-2.567 -5.733,-5.734 v 0 l 0.003,-9.31 c 0,-3.169 2.566,-5.733 5.73,-5.736 v 0 l 9.313,0.003 c 3.167,0 5.734,2.564 5.734,5.733 v 0 9.31 c 0,3.167 -2.567,5.734 -5.734,5.734 v 0 z m -3.734,-15.044 v 9.31 c 0.005,2.062 1.675,3.731 3.733,3.733 v 0 h 9.313 c 2.062,-0.002 3.731,-1.672 3.733,-3.733 v 0 -9.31 c -0.002,-2.062 -1.672,-3.731 -3.733,-3.733 v 0 l -9.313,-0.003 c -2.06,0.004 -3.728,1.674 -3.733,3.736 z"
   id="path324" />
	</g>
	<g
   id="g332">
		<path
   fill="#f4f4f4"
   d="m 468.354,241.693 c -3.169,0 -5.735,-2.566 -5.735,-5.733 v 0 -16.729 c 0,-3.166 2.566,-5.733 5.735,-5.735 v 0 l 17.042,0.002 c 3.167,0 5.733,2.564 5.735,5.733 v 0 16.729 h -0.002 c 0,3.167 -2.566,5.733 -5.733,5.733 v 0 z m -3.734,-22.462 -0.003,16.729 c 0.005,2.061 1.673,3.73 3.737,3.732 v 0 l 17.042,0.003 c 2.063,-0.005 3.73,-1.675 3.734,-3.735 v 0 -16.729 c -0.004,-2.062 -1.672,-3.73 -3.734,-3.734 v 0 h -17.042 c -2.064,0.004 -3.732,1.67 -3.734,3.734 z"
   id="path328" />
		<path
   fill="#f4f4f4"
   d="m 471.981,236.484 c -3.167,0 -5.732,-2.565 -5.734,-5.732 v 0 l 0.002,-9.311 c 0,-3.167 2.565,-5.734 5.732,-5.736 v 0 l 9.313,0.002 c 3.167,0 5.732,2.567 5.734,5.734 v 0 9.311 h -0.002 c 0,3.167 -2.567,5.732 -5.732,5.732 v 0 z m -3.732,-15.043 -0.002,9.311 c 0.004,2.061 1.672,3.729 3.734,3.732 v 0 h 9.313 c 2.061,-0.004 3.73,-1.672 3.734,-3.732 v 0 h -0.002 l 0.002,-9.311 c -0.004,-2.063 -1.674,-3.732 -3.734,-3.734 v 0 l -9.313,-0.002 c -2.06,0.004 -3.73,1.674 -3.732,3.736 z"
   id="path330" />
	</g>
	<g
   id="g338">
		<path
   fill="#f4f4f4"
   d="m 495.246,241.691 c -3.167,0 -5.733,-2.564 -5.735,-5.73 v 0 l 0.002,-16.729 c 0,-3.168 2.566,-5.734 5.733,-5.734 v 0 h 17.044 c 3.166,0 5.732,2.566 5.734,5.734 v 0 16.729 h -0.002 c 0,3.166 -2.566,5.73 -5.732,5.733 v 0 z m -3.734,-22.46 v 16.729 c 0.004,2.059 1.674,3.729 3.734,3.732 v 0 h 17.044 c 2.062,-0.003 3.729,-1.674 3.733,-3.732 v 0 -16.729 c -0.004,-2.063 -1.672,-3.731 -3.733,-3.733 v 0 h -17.044 c -2.062,0.002 -3.73,1.671 -3.734,3.733 z"
   id="path334" />
		<path
   fill="#f4f4f4"
   d="m 498.876,236.484 c -3.167,0 -5.732,-2.565 -5.734,-5.731 v 0 l 0.002,-9.311 c 0,-3.169 2.563,-5.736 5.732,-5.736 v 0 h 9.311 c 3.168,0 5.733,2.567 5.736,5.736 v 0 9.311 h -0.003 c 0,3.166 -2.565,5.731 -5.733,5.731 v 0 z m -3.732,-15.042 -0.002,9.311 c 0.004,2.061 1.671,3.728 3.734,3.731 v 0 h 9.311 c 2.063,-0.004 3.731,-1.671 3.736,-3.731 v 0 h -0.003 l 0.003,-9.311 c -0.005,-2.063 -1.674,-3.732 -3.736,-3.736 v 0 h -9.311 c -2.062,0.004 -3.73,1.673 -3.732,3.736 z"
   id="path336" />
	</g>
	<g
   id="g344">
		<path
   fill="#f4f4f4"
   d="m 522.14,241.692 c -3.168,0 -5.734,-2.566 -5.736,-5.732 v 0 l 0.002,-16.729 c 0,-3.166 2.566,-5.732 5.734,-5.734 v 0 l 17.042,0.002 c 3.167,0 5.733,2.566 5.733,5.732 v 0 16.729 c 0,3.166 -2.566,5.732 -5.733,5.734 v 0 z m -3.736,-22.462 v 16.729 c 0.005,2.061 1.671,3.729 3.735,3.733 v 0 h 17.042 c 2.063,-0.004 3.73,-1.673 3.735,-3.733 v 0 -16.729 c -0.005,-2.063 -1.673,-3.729 -3.735,-3.733 v 0 H 522.14 c -2.065,0.004 -3.731,1.671 -3.736,3.733 z"
   id="path340" />
		<path
   fill="#f4f4f4"
   d="m 525.767,236.483 c -3.164,0 -5.73,-2.563 -5.733,-5.731 v 0 l 0.003,-9.311 c 0,-3.168 2.564,-5.735 5.73,-5.735 v 0 h 9.313 c 3.167,0 5.734,2.567 5.734,5.735 v 0 9.311 c 0,3.168 -2.567,5.731 -5.734,5.733 v 0 z m -3.734,-15.042 v 9.311 c 0.005,2.062 1.673,3.729 3.733,3.731 v 0 l 9.313,0.002 c 2.062,-0.004 3.731,-1.672 3.733,-3.733 v 0 -9.311 c -0.002,-2.063 -1.672,-3.731 -3.733,-3.735 v 0 h -9.313 c -2.058,0.004 -3.728,1.672 -3.733,3.735 z"
   id="path342" />
	</g>
	<g
   id="g350">
		<path
   fill="#f4f4f4"
   d="m 59.923,173.836 c -3.167,0 -5.733,-2.567 -5.735,-5.733 v 0 l 0.002,-16.728 c 0,-3.167 2.565,-5.735 5.733,-5.735 v 0 h 17.044 c 3.167,0 5.733,2.567 5.733,5.735 v 0 16.728 c 0,3.167 -2.565,5.733 -5.733,5.733 v 0 z m -3.733,-22.461 -0.002,16.728 c 0.004,2.062 1.673,3.73 3.735,3.733 v 0 h 17.044 c 2.062,-0.002 3.731,-1.671 3.733,-3.733 v 0 -16.728 c -0.002,-2.062 -1.671,-3.732 -3.733,-3.735 v 0 H 59.923 c -2.062,0.003 -3.731,1.674 -3.733,3.735 z"
   id="path346" />
		<path
   fill="#f4f4f4"
   d="m 63.552,168.63 c -3.166,-0.002 -5.733,-2.567 -5.735,-5.735 v 0 l 0.002,-9.312 c 0,-3.167 2.567,-5.733 5.733,-5.733 v 0 h 9.312 c 3.167,0 5.733,2.566 5.735,5.733 v 0 9.312 h -0.002 c 0,3.166 -2.566,5.733 -5.733,5.735 v 0 z m -3.735,-15.046 v 9.312 c 0.004,2.06 1.674,3.73 3.734,3.734 v 0 h 9.312 c 2.063,-0.004 3.73,-1.672 3.735,-3.734 v 0 -9.312 c -0.004,-2.061 -1.672,-3.73 -3.735,-3.732 v 0 h -9.312 c -2.059,0.002 -3.729,1.671 -3.734,3.732 z"
   id="path348" />
	</g>
	<g
   id="g356">
		<path
   fill="#f4f4f4"
   d="m 86.817,173.836 c -3.167,0 -5.735,-2.565 -5.735,-5.733 v 0 -16.728 c 0,-3.167 2.567,-5.735 5.735,-5.735 v 0 h 17.042 c 3.17,0 5.735,2.567 5.735,5.735 v 0 16.728 c 0,3.166 -2.567,5.733 -5.735,5.733 v 0 z m -3.735,-22.461 v 16.728 c 0.004,2.062 1.671,3.73 3.735,3.733 v 0 h 17.042 c 2.064,-0.002 3.731,-1.671 3.735,-3.733 v 0 -16.728 c -0.004,-2.062 -1.673,-3.732 -3.735,-3.735 v 0 H 86.817 c -2.062,0.003 -3.731,1.674 -3.735,3.735 z"
   id="path352" />
		<path
   fill="#f4f4f4"
   d="m 90.445,168.628 c -3.167,0 -5.733,-2.567 -5.733,-5.733 v 0 -9.312 c 0,-3.167 2.568,-5.733 5.733,-5.733 v 0 h 9.312 c 3.168,0 5.733,2.566 5.735,5.733 v 0 9.312 h -0.002 c 0,3.167 -2.565,5.733 -5.733,5.735 v 0 z m -3.733,-15.044 -0.002,9.312 c 0.004,2.062 1.674,3.73 3.734,3.734 v 0 h 9.312 c 2.061,-0.004 3.73,-1.674 3.735,-3.734 v 0 -9.312 c -0.004,-2.061 -1.672,-3.73 -3.735,-3.732 v 0 l -9.312,-0.002 c -2.061,0.004 -3.729,1.673 -3.732,3.734 z"
   id="path354" />
	</g>
	<g
   id="g362">
		<path
   fill="#f4f4f4"
   d="m 113.708,173.836 c -3.167,0 -5.733,-2.565 -5.735,-5.733 v 0 -16.728 c 0.002,-3.167 2.567,-5.735 5.735,-5.735 v 0 h 17.044 c 3.167,0 5.732,2.567 5.735,5.735 v 0 16.728 h -0.002 c 0,3.167 -2.567,5.733 -5.732,5.733 v 0 z m -3.734,-22.461 v 16.728 c 0.004,2.062 1.673,3.73 3.735,3.733 v 0 h 17.044 c 2.062,-0.002 3.73,-1.671 3.735,-3.733 v 0 h -0.002 l 0.002,-16.728 c -0.004,-2.062 -1.673,-3.732 -3.735,-3.735 v 0 h -17.044 c -2.062,0.003 -3.731,1.674 -3.735,3.735 z"
   id="path358" />
		<path
   fill="#f4f4f4"
   d="m 117.338,168.628 c -3.167,0 -5.733,-2.567 -5.735,-5.733 v 0 l 0.002,-9.312 c 0,-3.167 2.566,-5.733 5.733,-5.733 v 0 h 9.312 c 3.165,0 5.733,2.566 5.733,5.733 v 0 9.312 c 0,3.166 -2.565,5.733 -5.733,5.735 v 0 z m -3.734,-15.044 v 9.312 c 0.004,2.062 1.672,3.73 3.735,3.734 v 0 h 9.312 c 2.06,-0.004 3.73,-1.672 3.732,-3.734 v 0 -9.312 c -0.002,-2.063 -1.67,-3.73 -3.732,-3.732 v 0 l -9.312,-0.002 c -2.063,0.004 -3.731,1.673 -3.735,3.734 z"
   id="path360" />
	</g>
	<g
   id="g368">
		<path
   fill="#f4f4f4"
   d="m 140.602,173.836 c -3.167,0 -5.734,-2.565 -5.734,-5.733 v 0 -16.728 c 0,-3.167 2.567,-5.735 5.734,-5.735 v 0 h 17.044 c 3.167,0 5.733,2.567 5.733,5.735 v 0 16.728 c 0,3.166 -2.567,5.733 -5.733,5.733 v 0 z m -3.735,-22.461 v 16.728 c 0.004,2.062 1.673,3.73 3.735,3.733 v 0 h 17.044 c 2.062,-0.002 3.729,-1.671 3.733,-3.733 v 0 -16.728 c -0.004,-2.062 -1.671,-3.732 -3.733,-3.735 v 0 h -17.044 c -2.061,0.003 -3.73,1.674 -3.735,3.735 z"
   id="path364" />
		<path
   fill="#f4f4f4"
   d="m 144.231,168.628 c -3.167,0 -5.733,-2.567 -5.735,-5.733 v 0 l 0.002,-9.312 c 0,-3.167 2.566,-5.733 5.733,-5.733 v 0 h 9.31 c 3.167,0 5.735,2.566 5.735,5.733 v 0 9.312 c 0,3.166 -2.567,5.733 -5.735,5.735 v 0 z m -3.734,-15.044 v 9.312 c 0.004,2.062 1.672,3.73 3.734,3.734 v 0 h 9.31 c 2.062,-0.004 3.732,-1.672 3.734,-3.734 v 0 -9.312 c -0.002,-2.061 -1.672,-3.73 -3.734,-3.732 v 0 l -9.31,-0.002 c -2.062,0.004 -3.73,1.671 -3.734,3.734 z"
   id="path366" />
	</g>
	<g
   id="g374">
		<path
   fill="#f4f4f4"
   d="m 167.494,173.836 c -3.167,0 -5.733,-2.567 -5.733,-5.733 v 0 -16.728 c 0,-3.167 2.565,-5.735 5.733,-5.735 v 0 h 17.044 c 3.167,0 5.732,2.567 5.734,5.735 v 0 16.728 c -0.002,3.166 -2.567,5.733 -5.734,5.733 v 0 z m -3.733,-22.461 v 16.728 c 0.004,2.062 1.671,3.73 3.733,3.733 v 0 h 17.044 c 2.062,-0.002 3.73,-1.671 3.734,-3.733 v 0 -16.728 c -0.004,-2.062 -1.673,-3.732 -3.734,-3.735 v 0 h -17.044 c -2.062,0.003 -3.729,1.674 -3.733,3.735 z"
   id="path370" />
		<path
   fill="#f4f4f4"
   d="m 171.125,168.628 c -3.167,0 -5.733,-2.567 -5.735,-5.733 v 0 -9.312 c 0.002,-3.167 2.568,-5.733 5.735,-5.733 v 0 h 9.31 c 3.167,0 5.735,2.566 5.735,5.733 v 0 9.312 c 0,3.167 -2.567,5.733 -5.735,5.735 v 0 z m -3.735,-15.044 v 9.312 c 0.004,2.062 1.672,3.73 3.734,3.734 v 0 h 9.31 c 2.062,-0.004 3.732,-1.674 3.736,-3.734 v 0 h -0.002 l 0.002,-9.312 c -0.004,-2.061 -1.674,-3.73 -3.736,-3.732 v 0 l -9.31,-0.002 c -2.062,0.004 -3.73,1.673 -3.734,3.734 z"
   id="path372" />
	</g>
	<g
   id="g380">
		<path
   fill="#f4f4f4"
   d="m 194.388,173.836 c -3.167,0 -5.735,-2.565 -5.735,-5.733 v 0 -16.728 c 0,-3.167 2.567,-5.735 5.735,-5.735 v 0 h 17.044 c 3.166,0 5.733,2.567 5.733,5.735 v 0 16.728 c 0,3.167 -2.567,5.733 -5.733,5.733 v 0 z m -3.735,-22.461 v 16.728 c 0.004,2.062 1.673,3.73 3.735,3.733 v 0 h 17.044 c 2.06,-0.002 3.729,-1.671 3.733,-3.733 v 0 -16.728 c -0.004,-2.062 -1.673,-3.732 -3.733,-3.735 v 0 h -17.044 c -2.062,0.003 -3.731,1.674 -3.735,3.735 z"
   id="path376" />
		<path
   fill="#f4f4f4"
   d="m 198.018,168.628 c -3.167,0 -5.733,-2.567 -5.735,-5.733 v 0 l 0.002,-9.312 c 0,-3.167 2.566,-5.733 5.733,-5.733 v 0 h 9.31 c 3.167,0 5.735,2.566 5.735,5.733 v 0 9.312 c 0,3.166 -2.568,5.733 -5.735,5.735 v 0 z m -3.735,-15.044 v 9.312 c 0.004,2.062 1.672,3.73 3.734,3.734 v 0 h 9.31 c 2.063,-0.004 3.73,-1.672 3.734,-3.734 v 0 -9.312 c -0.004,-2.061 -1.672,-3.73 -3.734,-3.732 v 0 l -9.31,-0.002 c -2.062,0.004 -3.73,1.671 -3.734,3.734 z"
   id="path378" />
	</g>
	<g
   id="g386">
		<path
   fill="#f4f4f4"
   d="m 221.282,173.836 c -3.167,0 -5.735,-2.565 -5.737,-5.733 v 0 l 0.002,-16.728 c 0,-3.167 2.565,-5.735 5.735,-5.735 v 0 h 17.042 c 3.167,0 5.735,2.567 5.735,5.735 v 0 16.728 c 0,3.167 -2.567,5.733 -5.735,5.733 v 0 z m -3.735,-22.461 -0.002,16.728 c 0.004,2.062 1.673,3.73 3.737,3.733 v 0 h 17.042 c 2.062,-0.002 3.731,-1.671 3.735,-3.733 v 0 -16.728 c -0.004,-2.062 -1.673,-3.732 -3.735,-3.735 v 0 h -17.042 c -2.064,0.003 -3.733,1.674 -3.735,3.735 z"
   id="path382" />
		<path
   fill="#f4f4f4"
   d="m 224.911,168.628 c -3.167,0 -5.733,-2.567 -5.735,-5.733 v 0 l 0.002,-9.312 c 0,-3.167 2.565,-5.733 5.733,-5.733 v 0 h 9.31 c 3.167,0 5.733,2.566 5.735,5.733 v 0 9.312 h -0.002 c 0,3.166 -2.565,5.733 -5.733,5.735 v 0 z m -3.735,-15.044 v 9.312 c 0.004,2.062 1.672,3.73 3.734,3.734 v 0 h 9.31 c 2.063,-0.004 3.73,-1.672 3.734,-3.734 v 0 -9.312 c -0.004,-2.063 -1.672,-3.73 -3.734,-3.732 v 0 l -9.31,-0.002 c -2.062,0.004 -3.73,1.671 -3.734,3.734 z"
   id="path384" />
	</g>
	<g
   id="g392">
		<path
   fill="#f4f4f4"
   d="m 248.173,173.836 c -3.167,0 -5.733,-2.565 -5.735,-5.733 v 0 l 0.002,-16.728 c 0,-3.167 2.565,-5.735 5.733,-5.735 v 0 h 17.044 c 3.167,0 5.732,2.567 5.732,5.735 v 0 16.728 c 0,3.166 -2.565,5.733 -5.732,5.733 v 0 z m -3.733,-22.461 -0.002,16.728 c 0.004,2.062 1.673,3.73 3.735,3.733 v 0 h 17.044 c 2.062,-0.002 3.73,-1.671 3.733,-3.733 v 0 -16.728 c -0.002,-2.062 -1.671,-3.732 -3.733,-3.735 v 0 h -17.044 c -2.061,0.003 -3.731,1.674 -3.733,3.735 z"
   id="path388" />
		<path
   fill="#f4f4f4"
   d="m 251.802,168.628 c -3.167,0 -5.733,-2.567 -5.733,-5.733 v 0 -9.312 c 0,-3.167 2.568,-5.733 5.733,-5.733 v 0 h 9.312 c 3.167,0 5.733,2.566 5.735,5.733 v 0 9.312 c -0.002,3.167 -2.568,5.733 -5.735,5.735 v 0 z m -3.733,-15.044 -0.002,9.312 c 0.004,2.062 1.674,3.73 3.734,3.734 v 0 h 9.312 c 2.061,-0.004 3.73,-1.674 3.734,-3.734 v 0 -9.312 c -0.004,-2.061 -1.672,-3.73 -3.734,-3.732 v 0 l -9.312,-0.002 c -2.06,0.004 -3.73,1.673 -3.732,3.734 z"
   id="path390" />
	</g>
	<g
   id="g398">
		<path
   fill="#f4f4f4"
   d="m 275.066,173.835 c -3.167,0 -5.733,-2.565 -5.735,-5.732 v 0 -16.728 c 0.002,-3.167 2.567,-5.735 5.735,-5.735 v 0 h 17.044 c 3.167,0 5.733,2.567 5.733,5.735 v 0 16.728 c 0,3.167 -2.565,5.732 -5.733,5.735 v 0 z m -3.734,-22.46 v 16.728 c 0.004,2.062 1.673,3.73 3.735,3.733 v 0 h 17.044 c 2.062,-0.002 3.729,-1.671 3.733,-3.733 v 0 -16.728 c -0.004,-2.062 -1.671,-3.731 -3.733,-3.735 v 0 h -17.044 c -2.062,0.004 -3.731,1.673 -3.735,3.735 z"
   id="path394" />
		<path
   fill="#f4f4f4"
   d="m 278.696,168.629 c -3.168,0 -5.734,-2.568 -5.734,-5.734 v 0 -9.311 c 0,-3.168 2.566,-5.734 5.734,-5.734 v 0 h 9.311 c 3.166,0 5.734,2.566 5.734,5.734 v 0 9.311 c 0,3.166 -2.568,5.734 -5.734,5.734 v 0 z m -3.735,-15.044 v 9.311 c 0.004,2.061 1.672,3.731 3.735,3.733 v 0 h 9.311 c 2.061,-0.002 3.731,-1.672 3.735,-3.733 v 0 -9.311 c -0.004,-2.063 -1.674,-3.731 -3.735,-3.735 v 0 h -9.311 c -2.063,0.004 -3.731,1.672 -3.735,3.735 z"
   id="path396" />
	</g>
	<g
   id="g404">
		<path
   fill="#f4f4f4"
   d="m 301.96,173.836 c -3.167,0 -5.735,-2.565 -5.735,-5.733 v 0 -16.727 c 0,-3.168 2.565,-5.735 5.735,-5.737 v 0 l 17.042,0.002 c 3.168,0 5.733,2.567 5.735,5.735 v 0 16.727 h -0.002 c 0,3.166 -2.565,5.733 -5.733,5.733 v 0 z m -3.734,-22.46 v 16.727 c 0.002,2.06 1.672,3.73 3.734,3.732 v 0 h 17.042 c 2.063,-0.002 3.731,-1.67 3.735,-3.732 v 0 h -0.002 l 0.002,-16.727 c -0.004,-2.063 -1.673,-3.733 -3.735,-3.737 v 0 H 301.96 c -2.063,0.005 -3.732,1.675 -3.734,3.737 z"
   id="path400" />
		<path
   fill="#f4f4f4"
   d="m 305.588,168.63 c -3.168,-0.002 -5.731,-2.568 -5.734,-5.734 v 0 l 0.003,-9.311 c 0,-3.168 2.565,-5.734 5.731,-5.734 v 0 h 9.313 c 3.164,0 5.732,2.566 5.734,5.734 v 0 9.311 h -0.002 c 0,3.166 -2.566,5.732 -5.732,5.734 v 0 z m -3.733,-15.045 -0.002,9.311 c 0.004,2.061 1.674,3.731 3.734,3.733 v 0 l 9.313,0.002 c 2.06,-0.004 3.729,-1.674 3.733,-3.735 v 0 -9.311 c -0.004,-2.061 -1.674,-3.73 -3.733,-3.735 v 0 h -9.313 c -2.062,0.004 -3.73,1.672 -3.732,3.735 z"
   id="path402" />
	</g>
	<g
   id="g410">
		<path
   fill="#f4f4f4"
   d="m 328.853,173.837 c -3.167,-0.002 -5.735,-2.568 -5.735,-5.733 v 0 -16.728 c 0,-3.167 2.565,-5.735 5.735,-5.735 v 0 h 17.042 c 3.168,0 5.733,2.568 5.735,5.735 v 0 16.728 h -0.002 c 0,3.166 -2.565,5.731 -5.733,5.733 v 0 z m -3.735,-22.461 -0.002,16.728 c 0.004,2.061 1.674,3.729 3.736,3.732 v 0 h 17.042 c 2.063,-0.004 3.73,-1.671 3.735,-3.732 v 0 -16.728 c -0.005,-2.063 -1.674,-3.732 -3.735,-3.736 v 0 h -17.042 c -2.062,0.004 -3.732,1.673 -3.734,3.736 z"
   id="path406" />
		<path
   fill="#f4f4f4"
   d="m 332.483,168.629 c -3.171,0 -5.735,-2.568 -5.737,-5.734 v 0 l 0.002,-9.312 c 0,-3.166 2.566,-5.732 5.735,-5.732 v 0 h 9.308 c 3.168,0 5.734,2.566 5.736,5.732 v 0 9.312 h -0.002 c 0,3.166 -2.566,5.734 -5.734,5.734 v 0 z m -3.735,-15.046 -0.002,9.312 c 0.004,2.062 1.673,3.731 3.737,3.735 v 0 h 9.308 c 2.063,-0.004 3.732,-1.673 3.736,-3.735 v 0 h -0.002 l 0.002,-9.312 c -0.004,-2.06 -1.673,-3.729 -3.736,-3.732 v 0 h -9.308 c -2.064,0.003 -3.733,1.67 -3.735,3.732 z"
   id="path408" />
	</g>
	<g
   id="g416">
		<path
   fill="#f4f4f4"
   d="m 355.745,173.836 c -3.168,0 -5.733,-2.568 -5.735,-5.733 v 0 l 0.002,-16.729 c 0,-3.165 2.565,-5.733 5.733,-5.735 v 0 h 17.041 c 3.17,0.002 5.735,2.567 5.737,5.735 v 0 16.729 h -0.002 c 0,3.167 -2.567,5.733 -5.735,5.733 v 0 z m -3.734,-22.461 v 16.729 c 0.004,2.061 1.673,3.73 3.734,3.732 v 0 l 17.041,0.002 c 2.063,-0.004 3.732,-1.673 3.736,-3.734 v 0 -16.729 c -0.004,-2.061 -1.673,-3.73 -3.736,-3.734 v 0 h -17.041 c -2.061,0.004 -3.73,1.672 -3.734,3.734 z"
   id="path412" />
		<path
   fill="#f4f4f4"
   d="m 359.375,168.63 c -3.168,-0.002 -5.734,-2.568 -5.736,-5.734 v 0 l 0.002,-9.311 c 0,-3.168 2.566,-5.732 5.734,-5.734 v 0 h 9.31 c 3.166,0.002 5.734,2.566 5.736,5.734 v 0 9.311 h -0.002 c 0,3.166 -2.566,5.732 -5.734,5.734 v 0 z m -3.734,-15.046 -0.002,9.311 c 0.004,2.061 1.674,3.73 3.736,3.734 v 0 h 9.31 c 2.063,-0.004 3.732,-1.674 3.736,-3.734 v 0 h -0.002 l 0.002,-9.311 c -0.004,-2.06 -1.674,-3.73 -3.736,-3.734 v 0 h -9.31 c -2.062,0.004 -3.732,1.672 -3.734,3.734 z"
   id="path414" />
	</g>
	<g
   id="g422">
		<path
   fill="#f4f4f4"
   d="m 382.638,173.836 c -3.168,0 -5.733,-2.567 -5.735,-5.733 v 0 l 0.002,-16.729 c 0,-3.167 2.565,-5.735 5.733,-5.735 v 0 h 17.043 c 3.167,0 5.732,2.568 5.734,5.735 v 0 16.729 h -0.002 c 0,3.166 -2.565,5.733 -5.732,5.733 v 0 z m -3.735,-22.461 v 16.729 c 0.004,2.062 1.672,3.73 3.734,3.732 v 0 l 17.043,0.002 c 2.062,-0.004 3.729,-1.672 3.733,-3.734 v 0 -16.729 c -0.004,-2.062 -1.672,-3.732 -3.733,-3.734 v 0 l -17.043,-0.002 c -2.062,0.004 -3.73,1.674 -3.734,3.736 z"
   id="path418" />
		<path
   fill="#f4f4f4"
   d="m 386.267,168.628 c -3.168,0 -5.732,-2.566 -5.734,-5.734 v 0 l 0.002,-9.31 c 0,-3.166 2.564,-5.732 5.732,-5.732 v 0 h 9.313 c 3.165,0 5.731,2.566 5.731,5.732 v 0 9.31 c 0,3.168 -2.566,5.734 -5.731,5.734 v 0 z m -3.733,-15.045 -0.002,9.31 c 0.004,2.063 1.674,3.732 3.734,3.736 v 0 h 9.313 c 2.061,-0.004 3.729,-1.673 3.733,-3.736 v 0 h -0.002 l 0.002,-9.31 c -0.004,-2.061 -1.673,-3.73 -3.733,-3.734 v 0 h -9.313 c -2.06,0.005 -3.73,1.674 -3.732,3.734 z"
   id="path420" />
	</g>
	<g
   id="g428">
		<path
   fill="#f4f4f4"
   d="m 408.677,173.835 c -3.167,0 -5.734,-2.565 -5.734,-5.732 v 0 -16.727 c 0,-3.169 2.567,-5.734 5.734,-5.736 v 0 h 17.042 c 3.167,0.002 5.734,2.567 5.734,5.736 v 0 16.727 c 0,3.167 -2.567,5.732 -5.734,5.734 v 0 z m -3.736,-22.459 v 16.727 c 0.004,2.062 1.673,3.729 3.735,3.733 v 0 h 17.042 c 2.062,-0.004 3.73,-1.671 3.735,-3.733 v 0 -16.727 c -0.005,-2.062 -1.674,-3.733 -3.735,-3.735 v 0 l -17.042,-0.002 c -2.062,0.004 -3.731,1.675 -3.735,3.737 z"
   id="path424" />
		<path
   fill="#f4f4f4"
   d="m 412.306,168.63 c -3.168,-0.002 -5.734,-2.568 -5.734,-5.736 v 0 -9.311 c 0,-3.167 2.566,-5.733 5.734,-5.733 v 0 h 9.31 c 3.168,0 5.733,2.566 5.733,5.733 v 0 9.311 c 0,3.167 -2.565,5.733 -5.733,5.736 v 0 z m -3.734,-15.046 -0.003,9.311 c 0.005,2.063 1.675,3.731 3.736,3.735 v 0 h 9.31 c 2.062,-0.004 3.731,-1.672 3.735,-3.735 v 0 h -0.002 l 0.002,-9.311 c -0.004,-2.063 -1.672,-3.729 -3.735,-3.733 v 0 h -9.31 c -2.063,0.004 -3.731,1.67 -3.733,3.733 z"
   id="path426" />
	</g>
	<g
   id="g434">
		<path
   fill="#f4f4f4"
   d="m 66.235,200.031 c -3.167,0 -5.732,-2.566 -5.735,-5.732 v 0 -16.729 c 0.002,-3.167 2.567,-5.732 5.735,-5.734 v 0 l 17.045,0.002 c 3.165,0 5.732,2.565 5.732,5.732 v 0 16.729 c 0,3.166 -2.565,5.732 -5.732,5.735 v 0 z M 62.5,177.569 v 16.729 c 0.004,2.061 1.672,3.73 3.734,3.732 v 0 l 17.045,0.002 c 2.06,-0.004 3.73,-1.674 3.732,-3.734 v 0 -16.729 c -0.002,-2.062 -1.672,-3.729 -3.732,-3.734 v 0 H 66.235 c -2.062,0.005 -3.731,1.673 -3.735,3.734 z"
   id="path430" />
		<path
   fill="#f4f4f4"
   d="m 69.866,194.823 c -3.169,0 -5.735,-2.567 -5.735,-5.732 v 0 -9.311 c 0,-3.167 2.565,-5.735 5.735,-5.735 v 0 h 9.311 c 3.166,0 5.733,2.568 5.733,5.735 v 0 9.311 c 0,3.165 -2.567,5.732 -5.733,5.735 v 0 z M 66.13,179.78 v 9.311 c 0.004,2.061 1.673,3.729 3.736,3.734 v 0 h 9.311 c 2.061,-0.005 3.73,-1.674 3.734,-3.734 v 0 h -0.002 l 0.002,-9.311 c -0.004,-2.063 -1.673,-3.732 -3.734,-3.734 v 0 l -9.311,-0.002 c -2.063,0.004 -3.732,1.674 -3.736,3.736 z"
   id="path432" />
	</g>
	<g
   id="g440">
		<path
   fill="#f4f4f4"
   d="m 93.128,200.031 c -3.167,0 -5.732,-2.566 -5.734,-5.732 v 0 -16.729 c 0.002,-3.167 2.567,-5.732 5.734,-5.734 v 0 l 17.043,0.002 c 3.167,0 5.734,2.565 5.734,5.732 v 0 16.729 c 0,3.166 -2.567,5.732 -5.734,5.735 v 0 z m -3.734,-22.462 v 16.729 c 0.004,2.061 1.672,3.73 3.734,3.732 v 0 l 17.043,0.002 c 2.062,-0.004 3.73,-1.674 3.734,-3.734 v 0 -16.729 c -0.004,-2.062 -1.672,-3.729 -3.734,-3.734 v 0 H 93.128 c -2.062,0.005 -3.73,1.673 -3.734,3.734 z"
   id="path436" />
		<path
   fill="#f4f4f4"
   d="m 96.758,194.823 c -3.169,0 -5.735,-2.565 -5.735,-5.732 v 0 -9.311 c 0,-3.17 2.565,-5.735 5.735,-5.735 v 0 h 9.311 c 3.167,0 5.733,2.568 5.735,5.735 v 0 9.311 h -0.002 c 0,3.165 -2.565,5.732 -5.733,5.735 v 0 z M 93.022,179.78 v 9.311 c 0.004,2.061 1.673,3.729 3.736,3.734 v 0 h 9.311 c 2.061,-0.005 3.73,-1.674 3.734,-3.734 v 0 -9.311 c -0.004,-2.063 -1.673,-3.732 -3.734,-3.734 v 0 l -9.311,-0.002 c -2.062,0.004 -3.732,1.674 -3.736,3.736 z"
   id="path438" />
	</g>
	<g
   id="g446">
		<path
   fill="#f4f4f4"
   d="m 120.021,200.031 c -3.167,0 -5.732,-2.566 -5.734,-5.732 v 0 -16.729 c 0.002,-3.167 2.567,-5.732 5.734,-5.734 v 0 l 17.043,0.002 c 3.167,0 5.732,2.565 5.734,5.732 v 0 16.729 c -0.002,3.166 -2.567,5.732 -5.734,5.735 v 0 z m -3.734,-22.462 v 16.729 c 0.004,2.061 1.672,3.73 3.734,3.732 v 0 l 17.043,0.002 c 2.062,-0.004 3.73,-1.674 3.734,-3.734 v 0 -16.729 c -0.004,-2.062 -1.672,-3.729 -3.734,-3.734 v 0 h -17.043 c -2.062,0.005 -3.73,1.673 -3.734,3.734 z"
   id="path442" />
		<path
   fill="#f4f4f4"
   d="m 123.651,194.823 c -3.167,0 -5.733,-2.567 -5.735,-5.732 v 0 -9.311 c 0.002,-3.167 2.568,-5.735 5.735,-5.735 v 0 h 9.31 c 3.167,0 5.733,2.568 5.733,5.735 v 0 9.311 c 0,3.165 -2.565,5.732 -5.733,5.735 v 0 z m -3.734,-15.043 v 9.311 c 0.002,2.061 1.671,3.729 3.734,3.734 v 0 h 9.31 c 2.061,-0.005 3.73,-1.674 3.734,-3.734 v 0 -9.311 c -0.004,-2.063 -1.673,-3.732 -3.734,-3.734 v 0 l -9.31,-0.002 c -2.063,0.004 -3.732,1.674 -3.734,3.736 z"
   id="path444" />
	</g>
	<g
   id="g452">
		<path
   fill="#f4f4f4"
   d="m 146.915,200.031 c -3.167,0 -5.735,-2.566 -5.735,-5.732 v 0 -16.729 c 0,-3.167 2.567,-5.732 5.735,-5.734 v 0 l 17.042,0.002 c 3.167,0 5.733,2.565 5.735,5.732 v 0 16.729 c -0.002,3.166 -2.567,5.732 -5.735,5.735 v 0 z m -3.735,-22.462 -0.002,16.729 c 0.004,2.061 1.672,3.73 3.737,3.732 v 0 l 17.042,0.002 c 2.062,-0.004 3.73,-1.674 3.734,-3.734 v 0 -16.729 c -0.004,-2.062 -1.672,-3.729 -3.734,-3.734 v 0 h -17.042 c -2.065,0.005 -3.733,1.673 -3.735,3.734 z"
   id="path448" />
		<path
   fill="#f4f4f4"
   d="m 150.544,194.823 c -3.167,0 -5.733,-2.567 -5.735,-5.732 v 0 l 0.002,-9.311 c 0,-3.167 2.565,-5.735 5.733,-5.735 v 0 h 9.31 c 3.167,0 5.733,2.568 5.733,5.735 v 0 9.311 c 0,3.165 -2.566,5.732 -5.733,5.735 v 0 z M 146.81,179.78 v 9.311 c 0.004,2.061 1.671,3.729 3.734,3.734 v 0 h 9.31 c 2.061,-0.005 3.73,-1.674 3.734,-3.734 v 0 -9.311 c -0.004,-2.063 -1.673,-3.732 -3.734,-3.734 v 0 l -9.31,-0.002 c -2.063,0.004 -3.73,1.674 -3.734,3.736 z"
   id="path450" />
	</g>
	<g
   id="g458">
		<path
   fill="#f4f4f4"
   d="m 173.808,200.031 c -3.167,0 -5.734,-2.566 -5.734,-5.732 v 0 -16.729 c 0,-3.167 2.567,-5.732 5.734,-5.734 v 0 l 17.043,0.002 c 3.167,0 5.732,2.565 5.734,5.732 v 0 16.729 h -0.002 c 0,3.166 -2.565,5.732 -5.732,5.735 v 0 z m -3.735,-22.462 v 16.729 c 0.004,2.061 1.672,3.73 3.734,3.732 v 0 l 17.043,0.002 c 2.062,-0.004 3.73,-1.674 3.734,-3.734 v 0 h -0.002 l 0.002,-16.729 c -0.004,-2.062 -1.672,-3.729 -3.734,-3.734 v 0 h -17.043 c -2.061,0.005 -3.73,1.673 -3.734,3.734 z"
   id="path454" />
		<path
   fill="#f4f4f4"
   d="m 177.437,194.823 c -3.167,0 -5.733,-2.567 -5.735,-5.732 v 0 -9.311 c 0.002,-3.167 2.568,-5.735 5.735,-5.735 v 0 h 9.311 c 3.167,0 5.733,2.568 5.735,5.735 v 0 9.311 h -0.002 c 0,3.165 -2.566,5.732 -5.733,5.735 v 0 z m -3.735,-15.043 v 9.311 c 0.004,2.061 1.673,3.729 3.734,3.734 v 0 h 9.311 c 2.063,-0.005 3.729,-1.674 3.734,-3.734 v 0 -9.311 c -0.004,-2.063 -1.671,-3.732 -3.734,-3.734 v 0 l -9.311,-0.002 c -2.061,0.004 -3.729,1.674 -3.734,3.736 z"
   id="path456" />
	</g>
	<g
   id="g464">
		<path
   fill="#f4f4f4"
   d="m 200.701,200.031 c -3.169,0 -5.734,-2.566 -5.734,-5.732 v 0 -16.729 c 0,-3.167 2.565,-5.732 5.734,-5.734 v 0 l 17.043,0.002 c 3.167,0 5.732,2.565 5.734,5.732 v 0 16.729 h -0.002 c 0,3.166 -2.565,5.732 -5.732,5.735 v 0 z m -3.735,-22.462 v 16.729 c 0.002,2.061 1.672,3.73 3.734,3.732 v 0 l 17.043,0.002 c 2.06,-0.004 3.73,-1.674 3.734,-3.734 v 0 h -0.002 l 0.002,-16.729 c -0.004,-2.062 -1.672,-3.729 -3.734,-3.734 v 0 H 200.7 c -2.063,0.005 -3.731,1.673 -3.734,3.734 z"
   id="path460" />
		<path
   fill="#f4f4f4"
   d="m 204.329,194.823 c -3.167,0 -5.733,-2.567 -5.735,-5.732 v 0 l 0.002,-9.311 c 0,-3.167 2.565,-5.735 5.733,-5.735 v 0 h 9.311 c 3.167,0 5.733,2.568 5.735,5.735 v 0 9.311 h -0.002 c 0,3.165 -2.566,5.732 -5.733,5.735 v 0 z m -3.734,-15.043 v 9.311 c 0.004,2.061 1.673,3.729 3.734,3.734 v 0 h 9.311 c 2.061,-0.005 3.73,-1.674 3.734,-3.734 v 0 -9.311 c -0.004,-2.063 -1.673,-3.732 -3.734,-3.734 v 0 l -9.311,-0.002 c -2.06,0.004 -3.73,1.674 -3.734,3.736 z"
   id="path462" />
	</g>
	<g
   id="g470">
		<path
   fill="#f4f4f4"
   d="m 227.592,200.031 c -3.167,0 -5.732,-2.566 -5.734,-5.732 v 0 l 0.002,-16.729 c 0,-3.167 2.565,-5.732 5.732,-5.734 v 0 l 17.045,0.002 c 3.166,0 5.732,2.565 5.735,5.732 v 0 16.729 h -0.002 c 0,3.166 -2.565,5.732 -5.732,5.735 v 0 z m -3.732,-22.462 -0.002,16.729 c 0.004,2.061 1.674,3.73 3.734,3.732 v 0 l 17.045,0.002 c 2.06,-0.004 3.73,-1.674 3.734,-3.734 v 0 h -0.002 l 0.002,-16.729 c -0.004,-2.062 -1.672,-3.729 -3.734,-3.734 v 0 h -17.045 c -2.062,0.005 -3.73,1.673 -3.732,3.734 z"
   id="path466" />
		<path
   fill="#f4f4f4"
   d="m 231.222,194.823 c -3.167,0 -5.733,-2.567 -5.735,-5.732 v 0 l 0.002,-9.311 c 0,-3.167 2.565,-5.735 5.733,-5.735 v 0 h 9.311 c 3.169,0 5.735,2.568 5.735,5.735 v 0 9.311 c 0,3.165 -2.565,5.732 -5.735,5.735 v 0 z m -3.734,-15.043 v 9.311 c 0.004,2.061 1.671,3.729 3.734,3.734 v 0 h 9.311 c 2.063,-0.005 3.732,-1.674 3.736,-3.734 v 0 h -0.002 l 0.002,-9.311 c -0.004,-2.063 -1.673,-3.732 -3.736,-3.734 v 0 l -9.311,-0.002 c -2.063,0.004 -3.73,1.674 -3.734,3.736 z"
   id="path468" />
	</g>
	<g
   id="g476">
		<path
   fill="#f4f4f4"
   d="m 254.485,200.031 c -3.167,0 -5.733,-2.566 -5.735,-5.732 v 0 -16.729 c 0.002,-3.167 2.567,-5.732 5.735,-5.734 v 0 l 17.042,0.002 c 3.169,0 5.735,2.565 5.735,5.732 v 0 16.729 c 0,3.166 -2.565,5.732 -5.735,5.735 v 0 z m -3.734,-22.462 v 16.729 c 0.004,2.061 1.672,3.73 3.734,3.732 v 0 l 17.042,0.002 c 2.064,-0.004 3.732,-1.674 3.736,-3.734 v 0 h -0.002 l 0.002,-16.729 c -0.004,-2.062 -1.672,-3.729 -3.736,-3.734 v 0 h -17.042 c -2.062,0.005 -3.73,1.673 -3.734,3.734 z"
   id="path472" />
		<path
   fill="#f4f4f4"
   d="m 258.116,194.823 c -3.169,0 -5.735,-2.567 -5.735,-5.732 v 0 -9.311 c 0,-3.167 2.566,-5.735 5.735,-5.735 v 0 h 9.311 c 3.167,0 5.733,2.568 5.733,5.735 v 0 9.311 c 0,3.165 -2.565,5.732 -5.733,5.735 v 0 z m -3.734,-15.043 -0.002,9.311 c 0.004,2.061 1.673,3.729 3.736,3.734 v 0 h 9.311 c 2.061,-0.005 3.73,-1.674 3.734,-3.734 v 0 h -0.002 l 0.002,-9.311 c -0.004,-2.063 -1.673,-3.732 -3.734,-3.734 v 0 l -9.311,-0.002 c -2.062,0.004 -3.732,1.674 -3.734,3.736 z"
   id="path474" />
	</g>
	<g
   id="g482">
		<path
   fill="#f4f4f4"
   d="m 281.378,200.031 c -3.167,0 -5.734,-2.566 -5.734,-5.732 v 0 -16.729 c 0,-3.167 2.567,-5.732 5.734,-5.734 v 0 l 17.043,0.002 c 3.167,0 5.734,2.565 5.734,5.732 v 0 16.729 c 0,3.166 -2.567,5.732 -5.734,5.735 v 0 z m -3.734,-22.462 v 16.729 c 0.004,2.061 1.672,3.73 3.734,3.732 v 0 l 17.043,0.002 c 2.062,-0.004 3.73,-1.674 3.734,-3.734 v 0 -16.729 c -0.004,-2.062 -1.672,-3.729 -3.734,-3.734 v 0 h -17.043 c -2.062,0.005 -3.73,1.673 -3.734,3.734 z"
   id="path478" />
		<path
   fill="#f4f4f4"
   d="m 285.007,194.826 c -3.167,-0.003 -5.733,-2.57 -5.733,-5.735 v 0 -9.311 c 0,-3.167 2.566,-5.735 5.733,-5.735 v 0 h 9.313 c 3.167,0 5.732,2.568 5.732,5.735 v 0 9.311 c 0,3.165 -2.565,5.732 -5.732,5.735 v 0 z m -3.732,-15.046 -0.002,9.311 c 0.004,2.061 1.673,3.729 3.734,3.734 v 0 h 9.313 c 2.061,-0.005 3.73,-1.674 3.734,-3.734 v 0 h -0.002 l 0.002,-9.311 c -0.004,-2.063 -1.673,-3.732 -3.734,-3.734 v 0 h -9.313 c -2.061,0.002 -3.73,1.672 -3.732,3.734 z"
   id="path480" />
	</g>
	<g
   id="g488">
		<path
   fill="#f4f4f4"
   d="m 308.271,200.032 c -3.168,0 -5.733,-2.567 -5.735,-5.733 v 0 l 0.002,-16.729 c 0,-3.168 2.565,-5.733 5.733,-5.733 v 0 h 17.043 c 3.168,0 5.732,2.567 5.735,5.733 v 0 16.729 h -0.003 c 0,3.166 -2.564,5.733 -5.732,5.733 v 0 z m -3.734,-22.462 v 16.729 c 0.003,2.06 1.672,3.729 3.734,3.733 v 0 h 17.043 c 2.062,-0.004 3.73,-1.674 3.733,-3.733 v 0 -16.729 c -0.003,-2.062 -1.67,-3.729 -3.733,-3.733 v 0 h -17.043 c -2.062,0.004 -3.731,1.671 -3.734,3.733 z"
   id="path484" />
		<path
   fill="#f4f4f4"
   d="m 311.9,194.823 c -3.168,0 -5.734,-2.565 -5.734,-5.732 v 0 -9.312 c 0,-3.168 2.566,-5.734 5.734,-5.734 v 0 h 9.312 c 3.167,0 5.732,2.568 5.735,5.734 v 0 9.312 h -0.003 c 0,3.165 -2.565,5.732 -5.732,5.734 v 0 z m -3.733,-15.044 -0.002,9.312 c 0.004,2.062 1.675,3.729 3.735,3.731 v 0 l 9.312,0.003 c 2.062,-0.005 3.729,-1.673 3.734,-3.734 v 0 h -0.003 l 0.003,-9.312 c -0.005,-2.063 -1.673,-3.731 -3.734,-3.733 v 0 l -9.312,-0.002 c -2.06,0.004 -3.731,1.675 -3.733,3.735 z"
   id="path486" />
	</g>
	<g
   id="g494">
		<path
   fill="#f4f4f4"
   d="m 335.164,200.031 c -3.168,0 -5.733,-2.567 -5.735,-5.731 v 0 l 0.002,-16.729 c 0,-3.167 2.565,-5.735 5.733,-5.735 v 0 h 17.043 c 3.168,0 5.733,2.567 5.735,5.735 v 0 16.729 h -0.002 c 0,3.166 -2.565,5.731 -5.733,5.733 v 0 z m -3.735,-22.46 V 194.3 c 0.005,2.061 1.674,3.729 3.735,3.731 v 0 l 17.043,0.002 c 2.063,-0.005 3.731,-1.673 3.735,-3.733 v 0 h -0.002 l 0.002,-16.729 c -0.004,-2.064 -1.673,-3.73 -3.735,-3.735 v 0 h -17.043 c -2.063,0.005 -3.73,1.671 -3.735,3.735 z"
   id="path490" />
		<path
   fill="#f4f4f4"
   d="m 338.794,194.823 c -3.169,0 -5.734,-2.566 -5.734,-5.733 v 0 -9.311 c 0,-3.166 2.565,-5.732 5.734,-5.734 v 0 h 9.311 c 3.167,0.002 5.732,2.568 5.734,5.734 v 0 9.311 h -0.002 c 0,3.167 -2.565,5.733 -5.732,5.735 v 0 z m -3.733,-15.044 -0.002,9.311 c 0.004,2.062 1.674,3.731 3.735,3.733 v 0 l 9.311,0.002 c 2.062,-0.004 3.729,-1.674 3.733,-3.735 v 0 -9.311 c -0.004,-2.062 -1.672,-3.731 -3.733,-3.733 v 0 l -9.311,-0.002 c -2.062,0.004 -3.731,1.674 -3.733,3.735 z"
   id="path492" />
	</g>
	<g
   id="g500">
		<path
   fill="#f4f4f4"
   d="m 411.045,200.031 c -3.17,0 -5.736,-2.566 -5.736,-5.731 v 0 -16.73 c 0,-3.168 2.566,-5.734 5.736,-5.734 v 0 h 17.041 c 3.166,0 5.733,2.566 5.736,5.734 v 0 16.73 h -0.003 c 0,3.165 -2.567,5.731 -5.733,5.733 v 0 z m -3.736,-22.461 v 16.73 c 0.005,2.061 1.672,3.729 3.736,3.731 v 0 l 17.041,0.002 c 2.061,-0.004 3.731,-1.673 3.734,-3.733 v 0 -16.73 c -0.003,-2.063 -1.674,-3.73 -3.734,-3.734 v 0 h -17.041 c -2.065,0.004 -3.732,1.672 -3.736,3.734 z"
   id="path496" />
		<path
   fill="#f4f4f4"
   d="m 414.672,194.823 c -3.168,0 -5.734,-2.565 -5.734,-5.733 v 0 -9.311 c 0,-3.167 2.566,-5.733 5.734,-5.733 v 0 h 9.312 c 3.168,0 5.733,2.566 5.733,5.733 v 0 9.311 c 0,3.166 -2.565,5.733 -5.733,5.735 v 0 z m -3.734,-15.044 v 9.311 c 0.003,2.062 1.674,3.73 3.734,3.734 v 0 h 9.312 c 2.062,-0.004 3.729,-1.673 3.734,-3.734 v 0 h -0.002 l 0.002,-9.311 c -0.005,-2.062 -1.673,-3.73 -3.734,-3.734 v 0 h -9.312 c -2.061,0.004 -3.732,1.673 -3.734,3.734 z"
   id="path498" />
	</g>
	<g
   id="g506">
		<path
   fill="#f4f4f4"
   d="m 106.791,226.07 c -3.167,0 -5.732,-2.567 -5.734,-5.734 v 0 l 0.002,-16.727 c 0,-3.167 2.565,-5.734 5.732,-5.736 v 0 l 17.043,0.002 c 3.169,0 5.734,2.567 5.736,5.734 v 0 16.727 h -0.002 c 0,3.167 -2.565,5.734 -5.734,5.736 v 0 z m -3.734,-22.461 v 16.727 c 0.004,2.063 1.673,3.731 3.734,3.734 v 0 l 17.043,0.002 c 2.063,-0.005 3.731,-1.674 3.736,-3.736 v 0 h -0.002 l 0.002,-16.727 c -0.004,-2.063 -1.673,-3.731 -3.736,-3.735 v 0 h -17.043 c -2.061,0.004 -3.73,1.673 -3.734,3.735 z"
   id="path502" />
		<path
   fill="#f4f4f4"
   d="m 110.422,220.863 c -3.169,0 -5.735,-2.568 -5.735,-5.735 v 0 -9.311 c 0,-3.167 2.568,-5.732 5.735,-5.734 v 0 l 9.311,0.002 c 3.165,0 5.732,2.565 5.732,5.732 v 0 9.311 c 0,3.167 -2.565,5.735 -5.732,5.735 v 0 z m -3.735,-15.046 v 9.311 c 0.004,2.063 1.672,3.731 3.735,3.733 v 0 l 9.311,0.003 c 2.061,-0.005 3.729,-1.673 3.733,-3.736 v 0 -9.311 c -0.004,-2.062 -1.672,-3.729 -3.733,-3.733 v 0 h -9.311 c -2.063,0.004 -3.732,1.672 -3.735,3.733 z"
   id="path504" />
	</g>
	<g
   id="g512">
		<path
   fill="#f4f4f4"
   d="m 66.393,226.071 c -3.167,0 -5.734,-2.568 -5.734,-5.735 v 0 -16.727 c 0,-3.169 2.567,-5.734 5.734,-5.734 v 0 h 30.932 c 3.167,0 5.732,2.567 5.734,5.734 v 0 16.727 h -0.002 c 0,3.167 -2.565,5.735 -5.732,5.735 v 0 z m -3.734,-22.462 v 16.727 c 0.004,2.062 1.673,3.731 3.734,3.735 v 0 h 30.932 c 2.06,-0.004 3.729,-1.674 3.733,-3.735 v 0 -16.727 c -0.004,-2.063 -1.673,-3.732 -3.733,-3.736 v 0 H 66.393 c -2.06,0.004 -3.729,1.674 -3.734,3.736 z"
   id="path508" />
		<path
   fill="#f4f4f4"
   d="m 70.023,220.863 c -3.167,0 -5.734,-2.568 -5.734,-5.735 v 0 -9.311 c 0,-3.167 2.567,-5.732 5.734,-5.734 v 0 l 23.197,0.002 c 3.167,0 5.734,2.565 5.734,5.732 v 0 9.311 c 0,3.167 -2.567,5.735 -5.734,5.735 v 0 z m -3.733,-15.046 -0.002,9.311 c 0.004,2.063 1.674,3.731 3.735,3.733 v 0 l 23.197,0.003 c 2.061,-0.005 3.731,-1.673 3.735,-3.736 v 0 h -0.002 l 0.002,-9.311 c -0.004,-2.062 -1.672,-3.729 -3.735,-3.733 v 0 H 70.023 c -2.063,0.004 -3.731,1.672 -3.733,3.733 z"
   id="path510" />
	</g>
	<g
   id="g518">
		<path
   fill="#f4f4f4"
   d="m 375.484,226.071 c -3.168,0 -5.733,-2.567 -5.733,-5.735 v 0 -16.728 c 0,-3.166 2.565,-5.733 5.733,-5.733 v 0 h 30.929 c 3.168,0 5.733,2.567 5.735,5.733 v 0 16.728 h -0.002 c 0,3.168 -2.565,5.735 -5.733,5.735 v 0 z m -3.733,-22.463 -0.002,16.728 c 0.004,2.063 1.674,3.732 3.735,3.737 v 0 h 30.929 c 2.062,-0.005 3.73,-1.674 3.734,-3.737 v 0 -16.728 c -0.004,-2.062 -1.673,-3.73 -3.734,-3.735 v 0 h -30.929 c -2.061,0.005 -3.731,1.674 -3.733,3.735 z"
   id="path514" />
		<path
   fill="#f4f4f4"
   d="m 379.113,220.862 c -3.168,0 -5.734,-2.566 -5.734,-5.733 v 0 -9.312 c 0,-3.166 2.566,-5.732 5.734,-5.734 v 0 l 23.198,0.002 c 3.166,0 5.732,2.564 5.734,5.732 v 0 9.312 h -0.002 c 0,3.167 -2.566,5.733 -5.732,5.735 v 0 z m -3.732,-15.045 -0.003,9.312 c 0.005,2.063 1.673,3.731 3.735,3.733 v 0 l 23.198,0.002 c 2.06,-0.004 3.73,-1.673 3.734,-3.735 v 0 h -0.002 l 0.002,-9.312 c -0.004,-2.062 -1.672,-3.73 -3.734,-3.732 v 0 l -23.198,-0.002 c -2.062,0.004 -3.73,1.673 -3.732,3.734 z"
   id="path516" />
	</g>
	<g
   id="g524">
		<path
   fill="#f4f4f4"
   d="m 361.95,200.032 c -3.169,0 -5.734,-2.566 -5.734,-5.732 v 0 -16.728 c 0,-3.168 2.565,-5.734 5.734,-5.734 v 0 h 39.452 c 3.166,0 5.732,2.566 5.732,5.734 v 0 16.728 c 0,3.166 -2.566,5.732 -5.732,5.734 v 0 z m -3.733,-22.46 -0.002,16.728 c 0.005,2.063 1.673,3.73 3.735,3.732 v 0 h 39.452 c 2.062,-0.002 3.729,-1.67 3.732,-3.732 v 0 -16.728 c -0.004,-2.062 -1.671,-3.73 -3.732,-3.734 v 0 H 361.95 c -2.062,0.004 -3.73,1.672 -3.733,3.734 z"
   id="path520" />
		<path
   fill="#f4f4f4"
   d="m 365.579,194.826 c -3.168,0 -5.733,-2.568 -5.733,-5.735 v 0 -9.308 c 0,-3.169 2.565,-5.736 5.733,-5.736 v 0 h 31.72 c 3.167,0 5.733,2.567 5.735,5.736 v 0 9.308 h -0.002 c 0,3.167 -2.566,5.735 -5.733,5.735 v 0 z m -3.732,-15.043 -0.002,9.308 c 0.004,2.063 1.674,3.732 3.734,3.735 v 0 h 31.72 c 2.063,-0.003 3.73,-1.672 3.735,-3.735 v 0 h -0.002 l 0.002,-9.308 c -0.005,-2.065 -1.672,-3.733 -3.735,-3.737 v 0 h -31.72 c -2.06,0.004 -3.73,1.672 -3.732,3.737 z"
   id="path522" />
	</g>
	<g
   id="g530">
		<path
   fill="#f4f4f4"
   d="m 133.303,252.424 c -3.167,0 -5.733,-2.566 -5.733,-5.733 v 0 -16.729 c 0,-3.167 2.567,-5.733 5.733,-5.733 v 0 h 205.149 c 3.167,0 5.733,2.566 5.733,5.733 v 0 16.729 c 0,3.167 -2.566,5.733 -5.733,5.735 v 0 z m -3.733,-22.462 v 16.729 c 0.002,2.063 1.672,3.731 3.733,3.733 v 0 l 205.149,0.002 c 2.061,-0.004 3.731,-1.673 3.735,-3.735 v 0 h -0.002 l 0.002,-16.729 c -0.004,-2.061 -1.673,-3.731 -3.735,-3.733 v 0 H 133.303 c -2.063,10e-4 -3.731,1.672 -3.733,3.733 z"
   id="path526" />
		<path
   fill="#f4f4f4"
   d="m 136.933,247.216 c -3.167,0 -5.734,-2.567 -5.734,-5.732 v 0 -9.312 c 0,-3.167 2.568,-5.734 5.734,-5.734 v 0 h 197.416 c 3.167,0 5.732,2.567 5.734,5.734 v 0 9.312 h -0.002 c 0,3.165 -2.565,5.732 -5.732,5.734 v 0 z m -3.735,-15.044 v 9.312 c 0.004,2.062 1.673,3.729 3.735,3.733 v 0 h 197.416 c 2.063,-0.004 3.73,-1.672 3.735,-3.733 v 0 h -0.003 l 0.003,-9.312 c -0.005,-2.062 -1.672,-3.73 -3.735,-3.733 v 0 l -197.416,-0.002 c -2.061,0.004 -3.731,1.673 -3.735,3.735 z"
   id="path528" />
	</g>
	<g
   id="g536">
		<path
   fill="#f4f4f4"
   d="m 133.685,226.07 c -3.167,0 -5.734,-2.567 -5.734,-5.734 v 0 -16.727 c 0,-3.167 2.567,-5.734 5.734,-5.736 v 0 l 17.043,0.002 c 3.167,0 5.734,2.567 5.734,5.734 v 0 16.727 c 0,3.167 -2.567,5.734 -5.734,5.736 v 0 z m -3.734,-22.461 v 16.727 c 0.004,2.063 1.671,3.731 3.734,3.734 v 0 l 17.043,0.002 c 2.063,-0.005 3.731,-1.674 3.734,-3.736 v 0 -16.727 c -0.002,-2.063 -1.671,-3.731 -3.734,-3.735 v 0 h -17.043 c -2.063,0.004 -3.73,1.673 -3.734,3.735 z"
   id="path532" />
		<path
   fill="#f4f4f4"
   d="m 137.315,220.863 c -3.169,0 -5.734,-2.568 -5.737,-5.735 v 0 l 0.002,-9.311 c 0,-3.167 2.567,-5.732 5.734,-5.734 v 0 l 9.309,0.002 c 3.167,0 5.734,2.565 5.734,5.732 v 0 9.311 c 0,3.167 -2.567,5.735 -5.734,5.735 v 0 z m -3.735,-15.046 v 9.311 c 0.004,2.063 1.672,3.731 3.735,3.733 v 0 l 9.309,0.003 c 2.061,-0.005 3.731,-1.673 3.735,-3.736 v 0 -9.311 c -0.004,-2.062 -1.672,-3.729 -3.735,-3.733 v 0 h -9.309 c -2.063,0.004 -3.732,1.672 -3.735,3.733 z"
   id="path534" />
	</g>
	<g
   id="g542">
		<path
   fill="#f4f4f4"
   d="m 160.578,226.07 c -3.169,0 -5.734,-2.567 -5.736,-5.734 v 0 l 0.002,-16.727 c 0,-3.167 2.565,-5.734 5.734,-5.736 v 0 l 17.043,0.002 c 3.167,0 5.734,2.565 5.734,5.734 v 0 16.727 c 0,3.167 -2.567,5.734 -5.734,5.736 v 0 z m -3.736,-22.461 v 16.727 c 0.004,2.063 1.673,3.731 3.736,3.734 v 0 l 17.043,0.002 c 2.061,-0.005 3.729,-1.674 3.734,-3.736 v 0 -16.727 c -0.004,-2.063 -1.673,-3.731 -3.734,-3.735 v 0 h -17.043 c -2.062,0.004 -3.732,1.673 -3.736,3.735 z"
   id="path538" />
		<path
   fill="#f4f4f4"
   d="m 164.208,220.863 c -3.169,0 -5.734,-2.568 -5.736,-5.735 v 0 l 0.002,-9.311 c 0,-3.167 2.567,-5.732 5.734,-5.734 v 0 l 9.309,0.002 c 3.167,0 5.735,2.565 5.735,5.732 v 0 9.311 c 0,3.167 -2.566,5.735 -5.735,5.735 v 0 z m -3.735,-15.046 v 9.311 c 0.004,2.063 1.672,3.731 3.735,3.733 v 0 l 9.309,0.003 c 2.063,-0.005 3.731,-1.673 3.735,-3.736 v 0 -9.311 c -0.004,-2.062 -1.672,-3.729 -3.735,-3.733 v 0 h -9.309 c -2.063,0.004 -3.731,1.672 -3.735,3.733 z"
   id="path540" />
	</g>
	<g
   id="g548">
		<path
   fill="#f4f4f4"
   d="m 187.472,226.07 c -3.169,0 -5.734,-2.567 -5.734,-5.734 v 0 -16.727 c 0,-3.167 2.565,-5.734 5.734,-5.736 v 0 l 17.041,0.002 c 3.169,0 5.734,2.565 5.736,5.734 v 0 16.727 h -0.002 c 0,3.167 -2.565,5.734 -5.734,5.736 v 0 z m -3.734,-22.461 -0.002,16.727 c 0.004,2.063 1.673,3.731 3.736,3.734 v 0 l 17.041,0.002 c 2.063,-0.005 3.732,-1.674 3.736,-3.736 v 0 -16.727 c -0.004,-2.063 -1.673,-3.731 -3.736,-3.735 v 0 h -17.041 c -2.063,0.004 -3.732,1.673 -3.734,3.735 z"
   id="path544" />
		<path
   fill="#f4f4f4"
   d="m 191.099,220.863 c -3.167,0 -5.732,-2.568 -5.732,-5.735 v 0 -9.311 c 0,-3.167 2.565,-5.732 5.732,-5.734 v 0 l 9.313,0.002 c 3.165,0 5.732,2.565 5.732,5.732 v 0 9.311 c 0,3.167 -2.568,5.735 -5.732,5.735 v 0 z m -3.733,-15.046 v 9.311 c 0.004,2.063 1.672,3.731 3.733,3.733 v 0 l 9.313,0.003 c 2.061,-0.005 3.729,-1.673 3.733,-3.736 v 0 h -0.002 l 0.002,-9.311 c -0.004,-2.062 -1.672,-3.729 -3.733,-3.733 v 0 h -9.313 c -2.061,0.004 -3.729,1.672 -3.733,3.733 z"
   id="path546" />
	</g>
	<g
   id="g554">
		<path
   fill="#f4f4f4"
   d="m 214.363,226.072 c -3.167,-0.002 -5.734,-2.569 -5.734,-5.736 v 0 -16.727 c 0,-3.169 2.567,-5.734 5.734,-5.736 v 0 l 17.043,0.002 c 3.167,0 5.734,2.567 5.734,5.734 v 0 16.727 c 0,3.167 -2.567,5.734 -5.734,5.736 v 0 z m -3.734,-22.463 v 16.727 c 0.002,2.063 1.673,3.731 3.734,3.734 v 0 l 17.043,0.002 c 2.063,-0.005 3.729,-1.674 3.734,-3.736 v 0 -16.727 c -0.004,-2.063 -1.671,-3.731 -3.734,-3.735 v 0 h -17.043 c -2.06,0.004 -3.732,1.673 -3.734,3.735 z"
   id="path550" />
		<path
   fill="#f4f4f4"
   d="m 217.993,220.863 c -3.167,0 -5.733,-2.568 -5.735,-5.735 v 0 -9.311 c 0.002,-3.167 2.567,-5.732 5.735,-5.734 v 0 l 9.311,0.002 c 3.167,0 5.733,2.565 5.735,5.732 v 0 9.311 h -0.002 c 0,3.167 -2.565,5.735 -5.733,5.735 v 0 z m -3.734,-15.046 v 9.311 c 0.002,2.063 1.672,3.731 3.734,3.733 v 0 l 9.311,0.003 c 2.062,-0.005 3.729,-1.673 3.734,-3.736 v 0 -9.311 c -0.004,-2.062 -1.672,-3.729 -3.734,-3.733 v 0 h -9.311 c -2.062,0.004 -3.732,1.672 -3.734,3.733 z"
   id="path552" />
	</g>
	<g
   id="g560">
		<path
   fill="#f4f4f4"
   d="m 241.257,226.07 c -3.169,0 -5.734,-2.567 -5.736,-5.734 v 0 l 0.002,-16.727 c 0,-3.167 2.565,-5.734 5.734,-5.736 v 0 l 17.043,0.002 c 3.167,0 5.732,2.565 5.734,5.734 v 0 16.727 c -0.002,3.167 -2.567,5.734 -5.734,5.736 v 0 z m -3.734,-22.461 -0.002,16.727 c 0.004,2.063 1.673,3.731 3.736,3.734 v 0 l 17.043,0.002 c 2.061,-0.005 3.73,-1.674 3.734,-3.736 v 0 -16.727 c -0.004,-2.063 -1.673,-3.731 -3.734,-3.735 v 0 h -17.043 c -2.063,0.004 -3.732,1.673 -3.734,3.735 z"
   id="path556" />
		<path
   fill="#f4f4f4"
   d="m 244.886,220.863 c -3.167,0 -5.733,-2.568 -5.735,-5.735 v 0 -9.311 c 0.002,-3.167 2.568,-5.732 5.735,-5.734 v 0 l 9.311,0.002 c 3.167,0 5.732,2.565 5.734,5.732 v 0 9.311 c -0.002,3.167 -2.567,5.735 -5.734,5.735 v 0 z m -3.734,-15.046 v 9.311 c 0.002,2.063 1.672,3.731 3.733,3.733 v 0 l 9.311,0.003 c 2.061,-0.005 3.729,-1.673 3.733,-3.736 v 0 -9.311 c -0.004,-2.062 -1.672,-3.729 -3.733,-3.733 v 0 h -9.311 c -2.063,0.004 -3.731,1.672 -3.733,3.733 z"
   id="path558" />
	</g>
	<g
   id="g566">
		<path
   fill="#f4f4f4"
   d="m 268.148,226.07 c -3.167,0 -5.734,-2.567 -5.734,-5.734 v 0 -16.727 c 0,-3.169 2.567,-5.734 5.734,-5.736 v 0 l 17.045,0.002 c 3.167,0 5.732,2.565 5.734,5.734 v 0 16.727 c -0.002,3.169 -2.567,5.734 -5.734,5.736 v 0 z m -3.733,-22.461 v 16.727 c 0.004,2.063 1.673,3.731 3.734,3.734 v 0 l 17.045,0.002 c 2.061,-0.005 3.73,-1.674 3.734,-3.736 v 0 -16.727 c -0.004,-2.063 -1.673,-3.731 -3.734,-3.735 v 0 h -17.045 c -2.061,0.004 -3.73,1.673 -3.734,3.735 z"
   id="path562" />
		<path
   fill="#f4f4f4"
   d="m 271.779,220.863 c -3.167,0 -5.735,-2.568 -5.735,-5.735 v 0 -9.311 c 0,-3.167 2.568,-5.732 5.735,-5.734 v 0 l 9.311,0.002 c 3.167,0 5.732,2.565 5.734,5.732 v 0 9.311 h -0.002 c 0,3.167 -2.565,5.735 -5.732,5.735 v 0 z m -3.734,-15.046 -0.002,9.311 c 0.004,2.063 1.674,3.731 3.735,3.733 v 0 l 9.311,0.003 c 2.061,-0.005 3.729,-1.673 3.733,-3.736 v 0 -9.311 c -0.004,-2.062 -1.672,-3.729 -3.733,-3.733 v 0 h -9.311 c -2.06,0.004 -3.731,1.672 -3.733,3.733 z"
   id="path564" />
	</g>
	<g
   id="g572">
		<path
   fill="#f4f4f4"
   d="m 295.042,226.072 c -3.167,-0.002 -5.734,-2.567 -5.736,-5.736 v 0 l 0.002,-16.727 c 0,-3.169 2.567,-5.734 5.734,-5.736 v 0 l 17.043,0.002 c 3.167,0 5.731,2.567 5.734,5.734 v 0 16.727 h -0.003 c 0,3.167 -2.564,5.734 -5.731,5.736 v 0 z m -3.734,-22.463 -0.002,16.727 c 0.004,2.063 1.676,3.731 3.736,3.734 v 0 l 17.043,0.002 c 2.061,-0.005 3.729,-1.674 3.733,-3.736 v 0 -16.727 c -0.004,-2.063 -1.673,-3.731 -3.733,-3.735 v 0 h -17.043 c -2.06,0.004 -3.731,1.673 -3.734,3.735 z"
   id="path568" />
		<path
   fill="#f4f4f4"
   d="m 298.672,220.863 c -3.167,0 -5.734,-2.568 -5.734,-5.735 v 0 -9.311 c 0,-3.167 2.567,-5.732 5.734,-5.734 v 0 l 9.311,0.002 c 3.165,0 5.735,2.565 5.735,5.732 v 0 9.311 c 0,3.17 -2.568,5.735 -5.735,5.735 v 0 z m -3.734,-15.046 -0.002,9.311 c 0.004,2.063 1.674,3.731 3.735,3.733 v 0 l 9.311,0.003 c 2.06,-0.005 3.731,-1.675 3.736,-3.736 v 0 h -0.003 l 0.003,-9.311 c -0.005,-2.062 -1.675,-3.729 -3.736,-3.733 v 0 h -9.311 c -2.062,0.004 -3.731,1.672 -3.733,3.733 z"
   id="path570" />
	</g>
	<g
   id="g578">
		<path
   fill="#f4f4f4"
   d="m 321.934,226.07 c -3.167,0 -5.732,-2.567 -5.734,-5.734 v 0 l 0.002,-16.727 c 0,-3.167 2.565,-5.734 5.732,-5.736 v 0 l 17.045,0.002 c 3.167,0 5.734,2.565 5.734,5.734 v 0 16.727 c 0,3.167 -2.567,5.734 -5.734,5.736 v 0 z m -3.733,-22.461 -0.002,16.727 c 0.005,2.063 1.674,3.731 3.734,3.734 v 0 l 17.045,0.002 c 2.063,-0.005 3.731,-1.674 3.735,-3.736 v 0 h -0.002 l 0.002,-16.727 c -0.004,-2.063 -1.673,-3.731 -3.735,-3.735 v 0 h -17.045 c -2.06,0.004 -3.729,1.673 -3.732,3.735 z"
   id="path574" />
		<path
   fill="#f4f4f4"
   d="m 325.564,220.863 c -3.167,0 -5.734,-2.565 -5.736,-5.735 v 0 l 0.002,-9.311 c 0,-3.167 2.567,-5.732 5.734,-5.734 v 0 l 9.31,0.002 c 3.167,0 5.734,2.565 5.734,5.732 v 0 9.311 c 0,3.167 -2.565,5.735 -5.734,5.735 v 0 z m -3.735,-15.046 v 9.311 c 0.004,2.062 1.675,3.731 3.735,3.733 v 0 l 9.31,0.003 c 2.063,-0.005 3.731,-1.673 3.735,-3.736 v 0 h -0.002 l 0.002,-9.311 c -0.004,-2.062 -1.673,-3.729 -3.735,-3.733 v 0 h -9.31 c -2.062,0.004 -3.731,1.672 -3.735,3.733 z"
   id="path576" />
	</g>
	<g
   id="g584">
		<path
   fill="#f4f4f4"
   d="m 348.827,226.071 c -3.167,0 -5.733,-2.568 -5.733,-5.735 v 0 -16.727 c 0,-3.167 2.566,-5.734 5.733,-5.736 v 0 l 17.044,0.002 c 3.167,0 5.732,2.565 5.734,5.734 v 0 16.727 h -0.002 c 0,3.167 -2.565,5.735 -5.732,5.735 v 0 z m -3.733,-22.462 v 16.727 c 0.004,2.063 1.672,3.731 3.733,3.735 v 0 h 17.044 c 2.06,-0.004 3.73,-1.673 3.732,-3.735 v 0 -16.727 c -0.002,-2.062 -1.673,-3.733 -3.732,-3.735 v 0 h -17.044 c -2.061,0.002 -3.729,1.672 -3.733,3.735 z"
   id="path580" />
		<path
   fill="#f4f4f4"
   d="m 352.457,220.862 c -3.167,0 -5.733,-2.566 -5.735,-5.734 v 0 l 0.002,-9.31 c 0,-3.169 2.566,-5.733 5.733,-5.735 v 0 l 9.311,0.002 c 3.167,0 5.733,2.564 5.735,5.733 v 0 9.31 h -0.002 c 0,3.168 -2.566,5.734 -5.733,5.736 v 0 z m -3.733,-15.044 -0.002,9.31 c 0.005,2.063 1.675,3.731 3.735,3.735 v 0 h 9.311 c 2.06,-0.004 3.73,-1.673 3.735,-3.735 v 0 h -0.002 l 0.002,-9.31 c -0.005,-2.063 -1.673,-3.731 -3.735,-3.733 v 0 l -9.311,-0.002 c -2.062,0.004 -3.73,1.673 -3.733,3.735 z"
   id="path582" />
	</g>
	<polygon
   fill="#f4f4f4"
   points="219.625,108.767 217.624,108.767 217.624,91.514 219.625,91.514 "
   id="polygon586" />
	<polygon
   fill="#f4f4f4"
   points="375.538,108.874 373.538,108.874 373.538,91.514 375.538,91.514 "
   id="polygon588" />
</g>
</svg>
