<?xml version="1.0" encoding="UTF-8" standalone="no"?>
<!-- Generator: Adobe Illustrator 13.0.0, SVG Export Plug-In . SVG Version: 6.00 Build 14948)  -->

<svg
   version="1.2"
   id="Layer_3"
   x="0px"
   y="0px"
   width="582.18903"
   height="217.25999"
   viewBox="0 0 582.189 217.25998"
   xml:space="preserve"
   sodipodi:docname="vectrex.svg"
   inkscape:version="1.2.2 (732a01da63, 2022-12-09)"
   xmlns:inkscape="http://www.inkscape.org/namespaces/inkscape"
   xmlns:sodipodi="http://sodipodi.sourceforge.net/DTD/sodipodi-0.dtd"
   xmlns="http://www.w3.org/2000/svg"
   xmlns:svg="http://www.w3.org/2000/svg"
   xmlns:rdf="http://www.w3.org/1999/02/22-rdf-syntax-ns#"
   xmlns:cc="http://creativecommons.org/ns#"
   xmlns:dc="http://purl.org/dc/elements/1.1/"
   xmlns:ns="&amp;ns_sfw;"><defs
   id="defs1964" /><sodipodi:namedview
   id="namedview1962"
   pagecolor="#000000"
   bordercolor="#111111"
   borderopacity="1"
   inkscape:showpageshadow="0"
   inkscape:pageopacity="0"
   inkscape:pagecheckerboard="1"
   inkscape:deskcolor="#d1d1d1"
   showgrid="false"
   inkscape:zoom="2.0445042"
   inkscape:cx="299.58363"
   inkscape:cy="175.10357"
   inkscape:window-width="1920"
   inkscape:window-height="1009"
   inkscape:window-x="-8"
   inkscape:window-y="-8"
   inkscape:window-maximized="1"
   inkscape:current-layer="Layer_3" />
<metadata
   id="metadata55">
	<rdf:RDF>
		<cc:Work
   rdf:about="">
			<dc:format>image/svg+xml</dc:format>
			<dc:type
   rdf:resource="http://purl.org/dc/dcmitype/StillImage" />
			
		</cc:Work>
	</rdf:RDF>
	<ns:sfw>
		<ns:slices />
		<ns:sliceSourceBounds
   x="-7231"
   y="-7652"
   width="16383"
   height="16383"
   bottomLeftOrigin="true" />
	</ns:sfw>
</metadata>
<path
   id="path3"
   fill="#f4f4f4"
   d="m 33.132,22.143 c -7.519,0 -13.624,6.105 -13.624,13.624 v 142.041 c 0,7.52 6.105,13.653 13.624,13.653 H 551.26 c 7.519,0 13.625,-6.134 13.625,-13.653 V 35.767 c 0,-7.519 -6.106,-13.624 -13.625,-13.624 H 338.896 v 1.933 H 551.26 c 6.474,0 11.691,5.215 11.691,11.69 v 142.041 c 0,6.475 -5.218,11.72 -11.691,11.72 H 33.132 c -6.475,0 -11.691,-5.245 -11.691,-11.72 V 35.767 c 0,-6.474 5.216,-11.69 11.691,-11.69 H 286.067 V 22.144 H 33.132 Z" />
<path
   id="path5"
   fill="#f4f4f4"
   d="M 17.455,3.474 C 9.936,3.474 3.831,9.579 3.831,17.099 v 185.394 c 0,7.52 6.105,13.625 13.624,13.624 h 549.458 c 7.518,0 13.654,-6.104 13.654,-13.624 V 17.108 c 0,-7.525 -6.129,-13.629 -13.65,-13.629 h -228.073 -0.756 l -0.181,0.694 -0.121,0.454 -0.029,0.121 v 0.151 31.174 c 0,14.148 -11.47,25.587 -25.617,25.587 -14.147,0 -25.586,-11.44 -25.586,-25.587 V 4.898 4.687 l -0.061,-0.151 -0.174,-0.454 -0.27,-0.604 H 285.41 17.463 Z m 0,1.933 H 284.62 v 30.661 c 0,15.192 12.327,27.521 27.518,27.521 15.193,0 27.551,-12.327 27.551,-27.521 V 5.407 H 566.91 c 6.474,0 11.721,5.217 11.721,11.692 v 185.385 c 0,6.474 -5.247,11.689 -11.721,11.689 H 17.454 c -6.47,0.01 -11.687,-5.209 -11.687,-11.677 V 17.103 c 0,-6.475 5.217,-11.69 11.691,-11.69 z" />
<path
   id="path7"
   fill="#f4f4f4"
   d="m 281.831,23.2 v 12.867 c 0,16.728 13.574,30.3 30.299,30.3 16.727,0 30.329,-13.572 30.329,-30.3 V 23.29 h -1.934 v 12.777 c 0,15.682 -12.714,28.367 -28.396,28.367 -15.682,0 -28.365,-12.684 -28.365,-28.367 V 23.2 Z" />
<path
   id="line9"
   fill="#f4f4f4"
   d="M 285.524,4.32 V 6.254 H 338.66 V 4.32 Z" />
<path
   id="circle11"
   fill="#f4f4f4"
   d="m 143.726,73.043 c -19.673,0 -35.646,15.974 -35.646,35.646 0,19.672 15.973,35.646 35.646,35.646 19.672,0 35.645,-15.974 35.645,-35.646 0,-19.672 -15.973,-35.646 -35.645,-35.646 z m 0,1.934 c 18.627,0 33.712,15.085 33.712,33.713 0,18.626 -15.085,33.712 -33.712,33.712 -18.628,0 -33.713,-15.086 -33.713,-33.712 0,-18.628 15.085,-33.713 33.713,-33.713 z" />
<path
   id="circle13"
   fill="#f4f4f4"
   d="m 143.726,92.377 c -8.993,0 -16.313,7.32 -16.313,16.313 0,8.992 7.319,16.313 16.313,16.313 8.992,0 16.282,-7.32 16.282,-16.313 -0.001,-8.993 -7.29,-16.313 -16.282,-16.313 z m 0,1.934 c 7.947,0 14.349,6.431 14.349,14.379 0,7.947 -6.401,14.379 -14.349,14.379 -7.948,0 -14.379,-6.432 -14.379,-14.379 0,-7.948 6.43,-14.379 14.379,-14.379 z" />
<path
   id="circle15"
   fill="#f4f4f4"
   d="m 143.726,95.941 c -7.029,0 -12.749,5.719 -12.749,12.748 0,7.028 5.72,12.748 12.749,12.748 7.028,0 12.748,-5.719 12.748,-12.748 -10e-4,-7.028 -5.72,-12.748 -12.748,-12.748 z m 0,1.934 c 5.983,0 10.815,4.831 10.815,10.815 0,5.982 -4.832,10.814 -10.815,10.814 -5.984,0 -10.815,-4.831 -10.815,-10.814 0,-5.983 4.83,-10.815 10.815,-10.815 z" />
<path
   id="circle17"
   fill="#f4f4f4"
   d="m 143.938,82.378 c -14.763,0 -26.733,12.002 -26.733,26.764 0,14.763 11.972,26.735 26.733,26.735 14.763,0 26.765,-11.973 26.765,-26.735 0,-14.762 -12.002,-26.764 -26.765,-26.764 z m 0,1.934 c 13.718,0 24.832,11.114 24.832,24.831 0,13.718 -11.114,24.801 -24.832,24.801 -13.717,0 -24.8,-11.084 -24.8,-24.801 0,-13.718 11.083,-24.831 24.8,-24.831 z" />
<path
   id="circle19"
   fill="#f4f4f4"
   d="m 273.102,84.825 c -13.458,0 -24.377,10.92 -24.377,24.378 0,13.458 10.92,24.408 24.377,24.408 13.458,0 24.378,-10.95 24.378,-24.408 0,-13.458 -10.92,-24.378 -24.378,-24.378 z m 0,1.933 c 12.413,0 22.445,10.032 22.445,22.445 0,12.413 -10.032,22.474 -22.445,22.474 -12.413,0 -22.444,-10.062 -22.444,-22.474 0,-12.412 10.031,-22.445 22.444,-22.445 z" />
<path
   id="circle21"
   fill="#f4f4f4"
   d="m 348.231,84.825 c -13.458,0 -24.378,10.92 -24.378,24.378 0,13.458 10.92,24.408 24.378,24.408 13.458,0 24.377,-10.95 24.377,-24.408 0,-13.458 -10.919,-24.378 -24.377,-24.378 z m 0,1.933 c 12.411,0 22.444,10.032 22.444,22.445 0,12.413 -10.033,22.474 -22.444,22.474 -12.414,0 -22.445,-10.062 -22.445,-22.474 0,-12.412 10.031,-22.445 22.445,-22.445 z" />
<path
   id="circle23"
   fill="#f4f4f4"
   d="m 423.359,84.825 c -13.458,0 -24.378,10.92 -24.378,24.378 0,13.458 10.92,24.408 24.378,24.408 13.458,0 24.377,-10.95 24.377,-24.408 0,-13.458 -10.919,-24.378 -24.377,-24.378 z m 0,1.933 c 12.413,0 22.444,10.032 22.444,22.445 0,12.413 -10.031,22.474 -22.444,22.474 -12.412,0 -22.445,-10.062 -22.445,-22.474 0,-12.412 10.033,-22.445 22.445,-22.445 z" />
<path
   id="circle25"
   fill="#f4f4f4"
   d="m 498.489,84.825 c -13.456,0 -24.381,10.92 -24.381,24.383 0,13.458 10.921,24.408 24.379,24.408 13.457,0 24.377,-10.95 24.377,-24.408 0,-13.458 -10.92,-24.378 -24.377,-24.378 z m 0,1.933 c 12.411,0 22.443,10.032 22.443,22.445 0,12.413 -10.032,22.474 -22.443,22.474 -12.414,0 -22.445,-10.062 -22.445,-22.474 0,-12.412 10.031,-22.445 22.445,-22.445 z" />
<path
   id="path27"
   fill="#f4f4f4"
   d="m 143.599,56.157 c -14.418,0 -27.459,5.835 -36.915,15.285 -9.449,9.456 -15.283,22.498 -15.285,36.915 0.003,14.418 5.836,27.458 15.285,36.915 9.456,9.451 22.496,15.283 36.915,15.284 14.419,-0.002 27.459,-5.835 36.915,-15.284 9.45,-9.455 15.284,-22.495 15.285,-36.915 C 195.798,93.94 189.964,80.898 180.514,71.442 171.06,61.993 158.02,56.158 143.597,56.157 Z m 0,1.934 c 13.897,10e-4 26.447,5.608 35.555,14.711 9.104,9.109 14.71,21.66 14.711,35.555 -0.001,13.898 -5.608,26.416 -14.711,35.524 -9.108,9.103 -21.658,14.74 -35.555,14.741 -13.896,0 -26.446,-5.638 -35.554,-14.741 -9.1,-9.105 -14.706,-21.623 -14.708,-35.524 0.002,-13.896 5.609,-26.445 14.708,-35.555 9.105,-9.104 21.663,-14.711 35.554,-14.711 z" />
<path
   id="path29"
   fill="#f4f4f4"
   d="m 273.102,80.505 c -7.936,0.001 -15.094,3.196 -20.3,8.398 -5.202,5.206 -8.426,12.364 -8.428,20.3 0.001,7.935 3.227,15.125 8.428,20.331 5.206,5.201 12.364,8.396 20.3,8.397 7.936,-0.001 15.094,-3.197 20.3,-8.397 5.2,-5.206 8.426,-12.395 8.427,-20.331 -0.001,-7.935 -3.227,-15.093 -8.427,-20.3 -5.206,-5.201 -12.364,-8.397 -20.3,-8.398 z m 0,1.933 c 7.416,10e-4 14.08,2.968 18.941,7.824 4.855,4.86 7.852,11.525 7.854,18.941 -0.002,7.415 -2.999,14.079 -7.854,18.941 -4.861,4.855 -11.526,7.853 -18.941,7.854 -7.416,-10e-4 -14.08,-2.998 -18.94,-7.854 -4.856,-4.861 -7.853,-11.526 -7.854,-18.941 0,-7.416 2.997,-14.08 7.854,-18.941 4.859,-4.856 11.524,-7.823 18.94,-7.824 z" />
<path
   id="path31"
   fill="#f4f4f4"
   d="m 348.231,80.505 c -7.938,0.001 -15.095,3.198 -20.3,8.398 -5.202,5.206 -8.427,12.364 -8.429,20.3 0.002,7.935 3.227,15.125 8.429,20.331 5.203,5.201 12.362,8.396 20.3,8.397 7.933,-0.002 15.092,-3.197 20.3,-8.397 5.199,-5.206 8.426,-12.395 8.428,-20.331 -0.002,-7.936 -3.229,-15.094 -8.428,-20.3 -5.208,-5.2 -12.365,-8.397 -20.3,-8.398 z m 0,1.933 c 7.414,10e-4 14.079,2.969 18.94,7.824 4.854,4.859 7.853,11.524 7.854,18.941 -0.002,7.415 -3,14.08 -7.854,18.941 -4.861,4.855 -11.526,7.852 -18.94,7.854 -7.416,-0.002 -14.083,-2.999 -18.94,-7.854 -4.856,-4.86 -7.853,-11.526 -7.854,-18.941 0.002,-7.417 2.998,-14.08 7.854,-18.941 4.857,-4.854 11.524,-7.823 18.94,-7.824 z" />
<path
   id="path33"
   fill="#f4f4f4"
   d="m 423.359,80.505 c -7.936,0.001 -15.091,3.198 -20.3,8.398 -5.2,5.207 -8.427,12.364 -8.429,20.3 0.002,7.934 3.229,15.125 8.429,20.331 5.209,5.2 12.364,8.396 20.3,8.397 7.933,-0.001 15.092,-3.197 20.3,-8.397 5.199,-5.206 8.426,-12.396 8.428,-20.331 -0.002,-7.936 -3.229,-15.092 -8.428,-20.3 -5.208,-5.2 -12.365,-8.397 -20.3,-8.398 z m 0,1.933 c 7.414,10e-4 14.079,2.969 18.94,7.824 4.855,4.861 7.853,11.524 7.854,18.941 -0.002,7.414 -2.999,14.079 -7.854,18.941 -4.861,4.855 -11.526,7.853 -18.94,7.854 -7.414,-10e-4 -14.077,-2.998 -18.94,-7.854 -4.854,-4.861 -7.853,-11.527 -7.854,-18.941 0.002,-7.416 3,-14.079 7.854,-18.941 4.852,-4.869 11.513,-7.838 18.927,-7.838 z" />
<path
   id="path35"
   fill="#f4f4f4"
   d="m 498.489,80.505 c -7.936,0.001 -15.096,3.197 -20.3,8.398 -5.202,5.207 -8.429,12.365 -8.429,20.3 0,7.935 3.227,15.125 8.429,20.331 5.204,5.2 12.364,8.396 20.3,8.397 7.933,-0.002 15.09,-3.197 20.3,-8.397 5.198,-5.206 8.423,-12.395 8.427,-20.331 -0.002,-7.935 -3.229,-15.092 -8.427,-20.3 -5.208,-5.201 -12.365,-8.395 -20.3,-8.398 z m 0,1.933 c 7.414,0.002 14.076,2.968 18.94,7.824 4.855,4.861 7.853,11.525 7.854,18.941 -0.002,7.415 -2.999,14.079 -7.854,18.941 -4.862,4.855 -11.526,7.852 -18.94,7.854 -7.416,-0.002 -14.081,-2.998 -18.941,-7.854 -4.855,-4.861 -7.854,-11.526 -7.854,-18.941 0,-7.416 2.998,-14.079 7.854,-18.941 4.86,-4.856 11.525,-7.823 18.941,-7.824 z" />
<path
   id="path37"
   fill="none"
   stroke="#f4f4f4"
   stroke-width="1.9333"
   d="M 198.167,111.682" />
<path
   id="path39"
   fill="#f4f4f4"
   d="m 143.599,49.481 c -32.501,0.003 -58.872,26.374 -58.875,58.875 0.002,32.5 26.373,58.873 58.875,58.875 31.051,-0.003 56.452,-24.095 58.665,-54.587 h 35.676 c 1.732,17.927 16.789,31.958 35.162,31.959 18.368,-0.001 33.421,-14.041 35.163,-31.959 h 4.803 c 1.741,17.917 16.795,31.956 35.163,31.959 18.366,-0.003 33.39,-14.044 35.132,-31.959 h 4.833 c 1.737,17.921 16.793,31.958 35.163,31.959 18.37,-0.001 33.425,-14.036 35.162,-31.959 h 4.803 c 1.745,17.916 16.796,31.958 35.161,31.959 19.535,-0.001 35.371,-15.868 35.373,-35.403 -0.002,-19.535 -15.838,-35.373 -35.373,-35.374 -17.772,0.001 -32.471,13.122 -34.981,30.207 h -5.195 c -2.514,-17.094 -17.178,-30.214 -34.953,-30.217 -17.776,0.003 -32.44,13.123 -34.951,30.208 h -5.226 c -2.512,-17.086 -17.178,-30.208 -34.951,-30.208 -17.773,10e-4 -32.44,13.12 -34.951,30.208 h -5.226 C 305.532,86.949 290.866,73.819 273.101,73.816 255.33,73.82 240.664,86.941 238.15,104.024 H 202.264 C 200.054,73.531 174.652,49.472 143.599,49.468 Z m 0,1.934 c 30.316,0.003 55.059,23.664 56.821,53.529 v 0.03 l 0.03,0.061 v 0.936 h 0.967 37.428 0.363 l 0.272,-0.211 0.09,-0.06 0.272,-0.242 0.06,-0.393 c 2.042,-16.523 16.113,-29.299 33.199,-29.301 17.06,0.003 31.123,12.756 33.2,29.241 l 0.029,0.182 0.091,0.181 0.091,0.151 0.302,0.453 h 0.544 6.706 0.815 l 0.121,-0.815 0.031,-0.211 c 2.103,-16.458 16.158,-29.18 33.198,-29.181 17.065,0.001 31.131,12.744 33.199,29.242 l 0.029,0.272 0.182,0.211 0.091,0.151 0.302,0.332 h 0.453 6.677 0.694 l 0.211,-0.664 0.061,-0.151 0.03,-0.091 v -0.09 c 2.117,-16.493 16.171,-29.219 33.232,-29.221 17.063,0.001 31.117,12.728 33.195,29.211 v 0.03 l 0.03,0.151 0.121,0.816 h 0.815 6.767 0.635 l 0.241,-0.574 0.03,-0.091 0.061,-0.121 0.03,-0.151 c 2.054,-16.509 16.123,-29.271 33.198,-29.272 18.489,0.001 33.438,14.949 33.44,33.44 -0.002,18.49 -14.951,33.469 -33.44,33.471 -17.654,-0.002 -32.105,-13.64 -33.38,-30.962 v -0.242 l -0.12,-0.181 -0.061,-0.091 -0.272,-0.483 h -0.544 -6.403 -0.847 l -0.121,0.846 v 0.091 l -0.029,0.029 v 0.03 c -1.286,17.313 -15.709,30.962 -33.359,30.962 -17.668,-0.002 -32.125,-13.684 -33.379,-31.024 v -0.302 l -0.211,-0.242 -0.03,-0.03 -0.302,-0.363 h -0.453 -6.344 -0.423 l -0.272,0.302 -0.09,0.091 -0.241,0.242 -0.031,0.362 c -1.272,17.322 -15.694,30.958 -33.35,30.962 -17.646,-0.004 -32.095,-13.625 -33.38,-30.933 v -0.09 -0.061 l -0.03,-0.121 -0.181,-0.755 h -0.756 -6.374 -0.544 l -0.271,0.483 -0.091,0.151 -0.12,0.181 -0.031,0.241 c -1.299,17.295 -15.715,30.901 -33.349,30.903 -17.583,-0.002 -31.976,-13.53 -33.351,-30.752 0,0.006 -0.002,-0.07 0,-0.09 v -0.061 c 0,-0.084 0.006,-0.182 -0.06,-0.362 -0.067,-0.181 -0.237,-0.444 -0.483,-0.574 l -0.242,-0.121 h -0.242 -37.306 -0.967 v 0.967 0.029 0.03 c -1.75,29.879 -26.527,53.557 -56.851,53.56 -31.493,-0.029 -56.975,-25.511 -56.977,-56.965 0.002,-31.457 25.485,-56.939 56.941,-56.942 z" />
<path
   id="path41"
   fill="none"
   stroke="#f4f4f4"
   stroke-width="1.9333"
   d="M 238.748,111.663" />
</svg>
