<?xml version="1.0" encoding="UTF-8" standalone="no"?>
<!-- Generator: Adobe Illustrator 13.0.0, SVG Export Plug-In . SVG Version: 6.00 Build 14948)  -->

<svg
   version="1.2"
   id="Layer_3"
   x="0px"
   y="0px"
   width="261.189"
   height="337.26001"
   viewBox="0 0 261.18897 337.26"
   xml:space="preserve"
   sodipodi:docname="videopac.svg"
   inkscape:version="1.2.2 (732a01da63, 2022-12-09)"
   xmlns:inkscape="http://www.inkscape.org/namespaces/inkscape"
   xmlns:sodipodi="http://sodipodi.sourceforge.net/DTD/sodipodi-0.dtd"
   xmlns="http://www.w3.org/2000/svg"
   xmlns:svg="http://www.w3.org/2000/svg"
   xmlns:rdf="http://www.w3.org/1999/02/22-rdf-syntax-ns#"
   xmlns:cc="http://creativecommons.org/ns#"
   xmlns:dc="http://purl.org/dc/elements/1.1/"
   xmlns:ns="&amp;ns_sfw;"><defs
   id="defs16" /><sodipodi:namedview
   id="namedview14"
   pagecolor="#000000"
   bordercolor="#111111"
   borderopacity="1"
   inkscape:showpageshadow="0"
   inkscape:pageopacity="0"
   inkscape:pagecheckerboard="1"
   inkscape:deskcolor="#d1d1d1"
   showgrid="false"
   inkscape:zoom="2.0445042"
   inkscape:cx="299.58363"
   inkscape:cy="175.10357"
   inkscape:window-width="1920"
   inkscape:window-height="1009"
   inkscape:window-x="-8"
   inkscape:window-y="-8"
   inkscape:window-maximized="1"
   inkscape:current-layer="Layer_3" />
<metadata
   id="metadata55">
	<rdf:RDF>
		<cc:Work
   rdf:about="">
			<dc:format>image/svg+xml</dc:format>
			<dc:type
   rdf:resource="http://purl.org/dc/dcmitype/StillImage" />
			
		</cc:Work>
	</rdf:RDF>
	<ns:sfw>
		<ns:slices />
		<ns:sliceSourceBounds
   x="-7231"
   y="-7652"
   width="16383"
   height="16383"
   bottomLeftOrigin="true" />
	</ns:sfw>
</metadata>
<path
   id="path3"
   fill="#f4f4f4"
   d="m 12.012,1.94 c -4.947,0 -8.98,4.033 -8.98,8.98 v 315.1 c 0,4.947 4.033,8.955 8.98,8.955 H 250.47 c 4.947,0 8.98,-4.008 8.98,-8.955 V 325.224 10.92 c 0,-4.946 -4.029,-8.979 -8.98,-8.979 z m 0,1.592 H 250.47 c 4.087,0 7.388,3.301 7.388,7.388 v 315.1 c 0,4.086 -3.302,7.363 -7.388,7.363 H 12.012 C 7.927,333.391 4.625,330.11 4.625,326.02 V 10.92 c 0,-4.086 3.302,-7.388 7.387,-7.388 z" />
<path
   id="path5"
   fill="#f4f4f4"
   d="m 47.087,27.338 c -8.276,0 -15,6.725 -15,15 v 52.14 0.796 h 0.796 68.383 0.796 V 94.478 28.134 27.338 h -0.796 z m 0,1.592 H 100.47 V 93.682 H 33.679 V 42.338 c 0,-7.415 5.993,-13.408 13.408,-13.408 z" />
<path
   id="path7"
   fill="#f4f4f4"
   d="m 103.482,27.338 v 0.796 68.235 H 33.108 32.312 v 0.796 195.695 c 0,8.276 6.725,15 15,15 h 167.866 c 8.277,0 15.001,-6.725 15.001,-15 V 42.334 c 0,-8.276 -6.724,-15 -15.001,-15 h -110.893 -0.796 z m 1.592,1.592 h 110.099 c 7.417,0 13.408,5.992 13.408,13.408 v 250.525 c 0,7.415 -5.991,13.409 -13.408,13.409 H 47.307 c -7.415,0 -13.408,-5.994 -13.408,-13.409 V 97.964 h 70.374 0.796 V 97.168 28.934 Z" />
<path
   id="path9"
   fill="#f4f4f4"
   d="m 51.391,100.122 c -5.424,0.002 -9.826,4.403 -9.826,9.826 v 117.741 c 0.001,5.422 4.402,9.825 9.826,9.825 h 159.698 c 5.422,0 9.825,-4.402 9.826,-9.825 V 109.948 c -0.001,-5.423 -4.404,-9.825 -9.826,-9.826 z m 0,1.592 h 159.698 c 4.554,0.001 8.221,3.682 8.234,8.234 0,0.009 0,0.016 0,0.025 v 117.716 c -0.001,4.563 -3.673,8.234 -8.234,8.234 H 51.391 c -4.564,0 -8.232,-3.671 -8.234,-8.234 v -117.716 -0.025 c 0.014,-4.552 3.678,-8.233 8.234,-8.234 z m 0,1.866 c -3.519,0.006 -6.387,2.849 -6.394,6.368 v 117.741 c 0.008,3.518 2.875,6.386 6.394,6.392 h 159.698 c 3.518,-0.006 6.386,-2.874 6.394,-6.392 V 109.948 c -0.008,-3.52 -2.875,-6.362 -6.394,-6.368 z m 0,1.592 h 159.698 c 2.652,0.004 4.783,2.125 4.802,4.776 0,0.009 0,0.016 0,0.025 v 117.716 c -0.007,2.662 -2.141,4.796 -4.802,4.802 H 51.391 c -2.662,-0.007 -4.796,-2.14 -4.801,-4.802 V 109.973 c 0,-0.009 0,-0.017 0,-0.025 0.017,-2.651 2.147,-4.772 4.801,-4.776 z" />
<path
   id="path11"
   fill="#f4f4f4"
   d="m 131.24,119.68 c -2.409,0 -4.81,0.928 -6.643,2.761 l -4.303,4.279 c -2.78,2.908 -4.33,3.781 -9.278,3.781 h -5.921 c -5.185,0 -9.402,4.218 -9.402,9.402 v 5.597 c 0,2.452 -0.125,3.951 -0.572,5.199 -0.447,1.247 -1.245,2.344 -2.811,4.005 l -4.697,4.696 c -3.667,3.666 -3.667,9.643 0,13.309 l 4.502,4.502 h 0.025 v 0.025 c 1.443,1.275 2.284,2.27 2.811,3.731 0.527,1.461 0.747,3.469 0.747,6.716 v 4.528 c 0,5.185 4.219,9.402 9.403,9.402 h 5.597 c 5.245,0 6.943,1.182 9.577,3.731 l 4.328,4.329 c 3.667,3.666 9.617,3.666 13.284,0 l 4.079,-4.055 c 1.686,-1.696 2.721,-2.675 3.932,-3.234 1.209,-0.562 2.713,-0.771 5.473,-0.771 h 6.02 c 5.186,0 9.403,-4.218 9.403,-9.402 v -5.498 c 0,-3.162 0.4,-5.07 1.169,-6.567 0.767,-1.497 1.959,-2.653 3.731,-4.254 l 0.024,-0.024 3.159,-3.159 c 3.667,-3.666 3.667,-9.643 0,-13.309 l -3.433,-3.434 -0.024,-0.024 c -1.69,-1.464 -2.814,-2.523 -3.532,-3.98 -0.721,-1.455 -1.095,-3.39 -1.095,-6.667 v -5.397 c 0,-5.186 -4.22,-9.402 -9.403,-9.402 h -6.02 c -2.729,0 -4.357,-0.36 -5.697,-1.045 -1.34,-0.686 -2.447,-1.744 -4.029,-3.284 l -3.757,-3.731 c -1.833,-1.833 -4.233,-2.761 -6.642,-2.761 z m 0,1.592 c 1.997,0 3.993,0.759 5.522,2.289 l 3.756,3.731 v 0.025 c 1.582,1.539 2.814,2.731 4.428,3.557 1.614,0.826 3.549,1.219 6.418,1.219 h 6.02 c 4.324,0 7.812,3.486 7.812,7.811 v 5.398 c 0,3.396 0.396,5.596 1.269,7.363 0.865,1.751 2.165,2.985 3.855,4.452 0.015,0.013 0.035,0.012 0.05,0.025 l 3.384,3.383 c 3.058,3.057 3.058,8.011 0,11.069 l -3.135,3.109 -0.025,0.025 c -1.775,1.604 -3.14,2.917 -4.055,4.7 -0.919,1.794 -1.343,3.996 -1.343,7.289 v 5.497 c 0,4.325 -3.485,7.812 -7.811,7.812 h -6.021 c -2.838,0 -4.613,0.211 -6.144,0.92 -1.531,0.709 -2.686,1.854 -4.378,3.558 l -4.068,4.044 c -3.059,3.059 -7.986,3.059 -11.045,0 L 121.4,204.22 h -0.025 v -0.025 c -2.725,-2.638 -5.154,-4.179 -10.671,-4.179 h -5.597 c -4.324,0 -7.811,-3.486 -7.811,-7.812 v -4.527 c 0,-3.315 -0.21,-5.501 -0.846,-7.264 -0.632,-1.751 -1.697,-3.013 -3.208,-4.354 l -0.025,-0.024 -4.478,-4.453 c -3.058,-3.057 -3.058,-8.012 0,-11.069 l 4.727,-4.701 0.025,-0.025 c 1.619,-1.717 2.605,-3.007 3.159,-4.552 0.554,-1.545 0.647,-3.25 0.647,-5.746 v -5.597 c 0,-4.325 3.486,-7.811 7.811,-7.811 h 5.92 c 5.169,0 7.52,-1.217 10.423,-4.254 l 4.278,-4.279 c 1.529,-1.53 3.525,-2.289 5.523,-2.289 z" />
<path
   id="path13"
   fill="#f4f4f4"
   d="m 131.24,124.704 c -2.166,0 -4.323,0.814 -5.971,2.463 l -3.831,3.831 c -2.468,2.58 -3.817,3.333 -8.208,3.333 h -5.249 c -4.661,0 -8.458,3.796 -8.458,8.458 v 4.975 c 0,2.181 -0.105,3.509 -0.498,4.603 -0.392,1.094 -1.096,2.058 -2.487,3.532 l -4.179,4.179 c -3.296,3.296 -3.296,8.67 0,11.965 l 4.005,4.005 v 0.025 h 0.025 c 1.28,1.132 2,1.999 2.463,3.283 0.463,1.284 0.671,3.059 0.671,5.945 v 4.03 c 0,4.662 3.796,8.458 8.458,8.458 h 4.975 c 4.653,0 6.121,1.046 8.458,3.309 l 3.856,3.855 c 3.295,3.298 8.644,3.298 11.939,0 l 3.633,-3.632 c 1.498,-1.509 2.398,-2.37 3.457,-2.86 1.059,-0.491 2.4,-0.672 4.852,-0.672 h 5.373 c 4.661,0 8.433,-3.796 8.433,-8.458 v -4.876 c 0,-2.808 0.345,-4.48 1.021,-5.796 0.674,-1.315 1.731,-2.357 3.308,-3.781 l 0.025,-0.024 2.811,-2.812 c 3.295,-3.296 3.295,-8.669 0,-11.965 l -3.034,-3.034 -0.025,-0.025 -0.024,-0.024 c -1.502,-1.303 -2.479,-2.229 -3.11,-3.508 -0.631,-1.278 -0.97,-2.986 -0.97,-5.895 v -4.801 c 0,-4.661 -3.771,-8.458 -8.433,-8.458 h -5.373 c -2.42,0 -3.849,-0.319 -5.025,-0.92 -1.174,-0.601 -2.158,-1.549 -3.557,-2.911 h -0.025 l -3.309,-3.333 h -0.025 c -1.649,-1.65 -3.807,-2.464 -5.972,-2.464 z m 0,1.567 c 1.755,0 3.506,0.67 4.851,2.015 l 3.334,3.358 h 0.024 c 1.407,1.369 2.503,2.441 3.955,3.183 1.45,0.743 3.187,1.096 5.747,1.095 h 5.373 c 3.799,0 6.841,3.066 6.841,6.866 v 4.801 c 0,3.027 0.334,5.002 1.118,6.592 0.781,1.579 1.972,2.669 3.482,3.98 0.011,0.009 0.016,0.017 0.025,0.024 l 3.017,3.01 c 2.687,2.687 2.687,7.038 0,9.727 l -2.786,2.762 c -1.594,1.44 -2.829,2.616 -3.656,4.229 -0.827,1.613 -1.194,3.604 -1.194,6.542 v 4.876 c 0,3.802 -3.04,6.865 -6.841,6.865 h -5.373 c -2.529,0 -4.119,0.183 -5.498,0.821 -1.379,0.638 -2.422,1.667 -3.93,3.185 l -3.633,3.632 c -2.688,2.689 -7.014,2.688 -9.701,0 l -3.856,-3.881 h -0.025 c -2.428,-2.35 -4.627,-3.757 -9.552,-3.757 h -4.975 c -3.801,0 -6.865,-3.063 -6.865,-6.865 v -4.03 c 0,-2.954 -0.2,-4.906 -0.771,-6.492 -0.565,-1.567 -1.52,-2.689 -2.86,-3.88 l -0.025,-0.025 -3.98,-3.979 c -2.688,-2.688 -2.688,-7.039 0,-9.728 l 4.204,-4.179 v -0.024 c 1.444,-1.531 2.337,-2.689 2.836,-4.08 0.498,-1.392 0.597,-2.925 0.597,-5.149 v -4.975 c 0,-3.8 3.064,-6.866 6.865,-6.866 h 5.249 c 4.604,0 6.744,-1.133 9.329,-3.831 h 0.025 l 3.806,-3.805 c 1.344,-1.344 3.096,-2.016 4.851,-2.015 h -0.008 z" />
<path
   id="circle15"
   fill="#f4f4f4"
   d="m 131.24,143.012 c -12.714,0 -23.036,10.346 -23.036,23.06 0,12.714 10.321,23.036 23.036,23.036 12.713,0 23.035,-10.321 23.035,-23.036 0,-12.714 -10.322,-23.06 -23.035,-23.06 z m 0,1.592 c 11.852,0 21.442,9.614 21.442,21.468 0,11.854 -9.589,21.444 -21.442,21.444 -11.853,0 -21.443,-9.59 -21.443,-21.444 0,-11.853 9.589,-21.468 21.443,-21.468 z" />
<path
   id="circle17"
   fill="#f4f4f4"
   d="m 131.24,150.772 c -8.434,0 -15.299,6.865 -15.299,15.299 0,8.435 6.864,15.275 15.299,15.275 8.433,0 15.299,-6.841 15.299,-15.275 0,-8.433 -6.864,-15.299 -15.299,-15.299 z m 0,1.593 c 7.573,0 13.706,6.133 13.706,13.706 0,7.574 -6.133,13.683 -13.706,13.683 -7.574,0 -13.707,-6.108 -13.707,-13.683 0,-7.573 6.133,-13.706 13.707,-13.706 z" />
<path
   id="path19"
   fill="#f4f4f4"
   d="m 104.573,34.005 c -0.44,0.02 -0.781,0.391 -0.761,0.831 0.02,0.44 0.392,0.78 0.832,0.761 10e-4,0 0.002,0 0.004,0 h 108.809 c 4.325,0 7.812,3.486 7.812,7.811 v 248.383 c 0,4.324 -3.486,7.812 -7.812,7.812 H 49.029 c -4.325,0 -7.812,-3.488 -7.812,-7.812 V 97.211 c 0.006,-0.44 -0.345,-0.802 -0.785,-0.808 -0.439,-0.006 -0.801,0.345 -0.807,0.785 0,0.008 0,0.015 0,0.023 v 194.58 c 0,5.184 4.218,9.403 9.403,9.403 h 164.426 c 5.186,0 9.403,-4.22 9.403,-9.403 V 43.408 c 0,-5.185 -4.218,-9.403 -9.403,-9.403 H 104.647 c -0.024,-0.001 -0.049,-0.001 -0.074,0 z" />
<path
   id="path21"
   fill="#f4f4f4"
   d="m 49.027,34.005 c -5.185,0 -9.403,4.218 -9.403,9.403 v 51.095 c -0.006,0.44 0.345,0.801 0.785,0.807 0.439,0.006 0.801,-0.345 0.807,-0.785 0,-0.007 0,-0.015 0,-0.022 V 43.408 c 0,-4.325 3.487,-7.811 7.811,-7.811 h 52.14 c 0.439,0.006 0.801,-0.345 0.807,-0.785 0.006,-0.439 -0.345,-0.801 -0.785,-0.807 -0.007,0 -0.015,0 -0.022,0 z" />
</svg>
