<?xml version="1.0" encoding="UTF-8" standalone="no"?>
<svg
   id="Layer_3"
   version="1.1"
   viewBox="0 0 547.99999 232.4"
   width="548"
   height="232.39999"
   sodipodi:docname="vircon32.svg"
   inkscape:version="1.4 (e7c3feb100, 2024-10-09)"
   xmlns:inkscape="http://www.inkscape.org/namespaces/inkscape"
   xmlns:sodipodi="http://sodipodi.sourceforge.net/DTD/sodipodi-0.dtd"
   xmlns="http://www.w3.org/2000/svg"
   xmlns:svg="http://www.w3.org/2000/svg">
  <sodipodi:namedview
     id="namedview1"
     pagecolor="#ffffff"
     bordercolor="#000000"
     borderopacity="0.25"
     inkscape:showpageshadow="2"
     inkscape:pageopacity="0.0"
     inkscape:pagecheckerboard="true"
     inkscape:deskcolor="#d1d1d1"
     inkscape:zoom="3.3558394"
     inkscape:cx="235.70854"
     inkscape:cy="40.675367"
     inkscape:window-width="3840"
     inkscape:window-height="2064"
     inkscape:window-x="0"
     inkscape:window-y="0"
     inkscape:window-maximized="1"
     inkscape:current-layer="Layer_3" />
  <!-- Generator: Adobe Illustrator 29.3.1, SVG Export Plug-In . SVG Version: 2.1.0 Build 151)  -->
  <defs
     id="defs1">
    <style
       id="style1">
      .st0 {
        fill: #f4f4f4;
      }
    </style>
  </defs>
  <g
     id="g35"
     transform="translate(-25.6,-36.300003)">
    <g
       id="path3"
       style="fill:#ffffff;fill-opacity:0.811765">
      <path
         class="st0"
         d="m 131.4,36.9 c -22.1,0 -42.8,4.7 -60.8,14.9 0,0 0,0 0,0 v 0 c -1,0.6 -1.5,1.5 -1.6,2.5 -0.1,1 0,13.1 0,14.4 h 1.9 c 0,-1.4 0,-13.6 0,-14.2 0,-0.6 0,-0.7 0.7,-1 v 0 c 17.7,-9.9 38.1,-14.6 59.9,-14.6 h 62.6 c 1.4,0 2.9,0.2 3.9,0.6 1,0.4 1.6,1 1.6,2.3 v 4.9 c 0.1,0 1.9,0 1.9,0 v -4.9 c 0,-2 -1.2,-3.4 -2.7,-4 -1.5,-0.7 -3.2,-0.8 -4.7,-0.8 h -62.6 v 0 z"
         id="path1"
         style="fill:#ffffff;fill-opacity:0.811765" />
    </g>
    <g
       id="path31"
       data-name="path3"
       style="fill:#ffffff;fill-opacity:0.811765">
      <path
         class="st0"
         d="m 468.3,36.9 v 0 h -62.6 c -1.5,0 -3.2,0.1 -4.7,0.8 -1.5,0.7 -2.7,2.1 -2.7,4 v 4.9 c 0,0 1.8,0 1.8,0 v -4.9 c 0.1,-1.3 0.7,-1.8 1.7,-2.3 1,-0.5 2.5,-0.6 3.9,-0.6 h 62.6 c 21.8,0 42.2,4.7 59.9,14.6 v 0 c 0.6,0.3 0.6,0.4 0.7,1 0.1,0.6 0,12.8 0,14.2 h 1.9 c 0,-1.3 0.1,-13.5 0,-14.4 -0.1,-0.9 -0.6,-1.9 -1.6,-2.4 v 0 c 0,0 0,0 0,0 -18,-10.1 -38.7,-14.9 -60.8,-14.9 v 0 z"
         id="path2"
         style="fill:#ffffff;fill-opacity:0.811765" />
    </g>
    <g
       id="path5"
       style="fill:#ffffff;fill-opacity:0.811765">
      <path
         class="st0"
         d="M 462.7,268.1 H 136.5 C 75.3,268.1 25.6,218.3 25.6,157.2 25.6,96.1 75.4,46.3 136.5,46.3 h 326.2 c 61.2,0 110.9,49.8 110.9,110.9 0,61.1 -49.8,110.9 -110.9,110.9 z M 136.5,48.2 c -60.1,0 -108.9,48.9 -108.9,108.9 0,60 48.9,108.9 108.9,108.9 h 326.2 c 60.1,0 108.9,-48.9 108.9,-108.9 0,-60 -48.9,-108.9 -108.9,-108.9 H 136.5 Z"
         id="path4"
         style="fill:#ffffff;fill-opacity:0.811765" />
    </g>
    <g
       id="circle9"
       style="fill:#ffffff;fill-opacity:0.811765">
      <path
         class="st0"
         d="m 131,73.8 c -45.9,0 -83.1,37.2 -83.1,83.1 0,45.9 37.2,83.1 83.1,83.1 45.9,0 83.1,-37.2 83.1,-83.1 0,-45.9 -37.2,-83.1 -83.1,-83.1 z m 0,2.4 c 44.6,0 80.7,36.1 80.7,80.7 0,44.6 -36.1,80.7 -80.7,80.7 -44.6,0 -80.7,-36.1 -80.7,-80.7 0,-44.6 36.1,-80.7 80.7,-80.7 z"
         id="path6"
         style="fill:#ffffff;fill-opacity:0.811765" />
    </g>
    <g
       id="circle91"
       data-name="circle9"
       style="fill:#ffffff;fill-opacity:0.811765">
      <path
         class="st0"
         d="m 463.2,73.8 c -45.9,0 -83.1,37.2 -83.1,83.1 0,45.9 37.2,83.1 83.1,83.1 45.9,0 83.1,-37.2 83.1,-83.1 0,-45.9 -37.2,-83.1 -83.1,-83.1 z m 0,2.4 c 44.6,0 80.7,36.1 80.7,80.7 0,44.6 -36.1,80.7 -80.7,80.7 -44.6,0 -80.7,-36.1 -80.7,-80.7 0,-44.6 36.1,-80.7 80.7,-80.7 z"
         id="path7"
         style="fill:#ffffff;fill-opacity:0.811765" />
    </g>
    <g
       id="path11"
       style="fill:#ffffff;fill-opacity:0.811765">
      <path
         class="st0"
         d="m 119.8,105.3 c -3.1,0 -5.6,2.5 -5.6,5.6 v 26.2 c 0,0.5 0,0.7 0,0.6 0,0 0,0 -0.6,0 H 87.4 c -3.1,0 -5.7,2.5 -5.7,5.6 v 22.3 c 0,3.1 2.6,5.6 5.7,5.6 h 26.1 c 0.5,0 0.6,0 0.6,0.1 0,0 0,0.1 0,0.5 V 198 c 0,3.1 2.5,5.6 5.6,5.6 H 142 c 3.1,0 5.6,-2.5 5.6,-5.6 v -26.3 c 0,-0.3 0,-0.4 0,-0.4 0,0 0.2,-0.1 0.6,-0.1 h 26.1 c 3.1,0 5.7,-2.5 5.7,-5.6 v -22.3 c 0,-3.1 -2.6,-5.6 -5.7,-5.6 h -26.2 c -0.3,0 -0.5,0 -0.5,-0.1 0,0 -0.1,-0.2 -0.1,-0.5 v -26.2 c 0,-3.1 -2.5,-5.6 -5.6,-5.6 h -22.3 z m 0,2 h 22.3 c 2.1,0 3.7,1.6 3.7,3.7 v 26.2 c 0,0.7 0.2,1.4 0.7,1.8 0.5,0.5 1.2,0.7 1.9,0.7 h 26.2 c 2.1,0 3.7,1.6 3.7,3.7 v 22.3 c 0,2.1 -1.7,3.7 -3.7,3.7 h -26.1 c -0.7,0 -1.4,0.2 -1.9,0.7 -0.5,0.5 -0.7,1.1 -0.7,1.8 v 26.3 c 0,2.1 -1.6,3.7 -3.7,3.7 h -22.3 c -2.1,0 -3.7,-1.6 -3.7,-3.7 V 172 c 0,-0.7 -0.2,-1.4 -0.7,-1.9 -0.5,-0.5 -1.2,-0.6 -1.9,-0.6 H 87.5 c -2.1,0 -3.7,-1.6 -3.7,-3.7 v -22.3 c 0,-2.1 1.7,-3.7 3.7,-3.7 h 26.2 c 0.8,0 1.6,-0.1 2.1,-0.7 0.5,-0.6 0.5,-1.2 0.5,-1.8 v -26.2 c 0,-2.1 1.6,-3.7 3.7,-3.7 v 0 z"
         id="path8"
         style="fill:#ffffff;fill-opacity:0.811765" />
    </g>
    <g
       id="path13"
       style="fill:#ffffff;fill-opacity:0.811765">
      <path
         class="st0"
         d="m 117.7,102.8 c -3.1,0 -5.6,2.5 -5.6,5.6 v 26.2 c 0,0.5 0,0.6 0,0.5 0,0 0,0 -0.6,0 H 85.3 c -3.1,0 -5.7,2.6 -5.7,5.7 v 27.5 c 0,3.1 2.6,5.7 5.7,5.7 h 26.1 c 0.5,0 0.6,0 0.6,0.1 0,0 0,0 0,0.5 v 26.2 c 0,3.1 2.5,5.6 5.6,5.6 h 26.5 c 3.1,0 5.6,-2.5 5.6,-5.6 v -26.3 c 0,-0.3 0,-0.4 0,-0.4 0,0 0.2,-0.1 0.6,-0.1 h 26.1 c 3.1,0 5.7,-2.6 5.7,-5.7 v -27.5 c 0,-3.1 -2.6,-5.7 -5.7,-5.7 h -26.2 c -0.3,0 -0.5,0 -0.5,-0.1 0,0 -0.1,-0.2 -0.1,-0.5 v -26.2 c 0,-3.1 -2.5,-5.6 -5.6,-5.6 h -26.5 z m 0,1.9 h 26.5 c 2.1,0 3.7,1.6 3.7,3.7 v 26.2 c 0,0.7 0.2,1.4 0.7,1.8 0.5,0.5 1.2,0.7 1.9,0.7 h 26.2 c 2.1,0 3.7,1.7 3.7,3.7 v 27.5 c 0,2.1 -1.7,3.7 -3.7,3.7 h -26.1 c -0.7,0 -1.4,0.2 -1.9,0.7 -0.5,0.5 -0.7,1.2 -0.7,1.8 v 26.3 c 0,2.1 -1.6,3.7 -3.7,3.7 h -26.5 c -2.1,0 -3.7,-1.6 -3.7,-3.7 v -26.2 c 0,-0.7 -0.2,-1.4 -0.7,-1.9 -0.5,-0.5 -1.2,-0.6 -1.9,-0.6 H 85.4 c -2.1,0 -3.7,-1.7 -3.7,-3.7 v -27.5 c 0,-2.1 1.7,-3.7 3.7,-3.7 h 26.2 c 0.8,0 1.6,-0.1 2.1,-0.7 0.5,-0.6 0.5,-1.2 0.5,-1.8 v -26.2 c 0,-2.1 1.6,-3.7 3.7,-3.7 v 0 z"
         id="path9"
         style="fill:#ffffff;fill-opacity:0.811765" />
    </g>
    <g
       id="circle15"
       style="fill:#ffffff;fill-opacity:0.811765">
      <path
         class="st0"
         d="m 131,141.9 c -7,0 -12.6,5.7 -12.6,12.6 0,6.9 5.7,12.6 12.6,12.6 6.9,0 12.7,-5.7 12.7,-12.6 0,-6.9 -5.7,-12.6 -12.7,-12.6 z m 0,2 c 5.9,0 10.7,4.8 10.7,10.7 0,5.9 -4.8,10.7 -10.7,10.7 -5.9,0 -10.7,-4.8 -10.7,-10.7 0,-5.9 4.8,-10.7 10.7,-10.7 z"
         id="path10"
         style="fill:#ffffff;fill-opacity:0.811765" />
    </g>
    <g
       id="path17"
       style="fill:#ffffff;fill-opacity:0.811765">
      <path
         class="st0"
         d="m 131,109.5 c -1.4,0 -2.6,0.8 -3.3,2 v 0 c 0,0 0,0 0,0 l -7.3,15.2 c -0.2,0.5 -0.4,1 -0.4,1.6 0,2.1 1.7,3.7 3.8,3.7 h 14.4 c 2.1,0 3.8,-1.7 3.8,-3.7 0,-2 -0.1,-1.1 -0.4,-1.6 l -7.3,-15.3 v 0 c 0,0 0,0 0,0 -0.7,-1.1 -1.9,-1.8 -3.2,-1.8 v 0 z m 0,1.9 c 0.7,0 1.2,0.4 1.6,0.9 v 0 c 0,0 7.3,15.2 7.3,15.2 0.1,0.2 0.2,0.5 0.2,0.8 0,1 -0.8,1.8 -1.8,1.8 h -14.4 c -1,0 -1.8,-0.8 -1.8,-1.8 0,-1 0,-0.5 0.2,-0.8 l 7.2,-15.2 v 0 c 0.3,-0.6 0.9,-1 1.6,-1 v 0 z"
         id="path12"
         style="fill:#ffffff;fill-opacity:0.811765" />
    </g>
    <g
       id="path19"
       style="fill:#ffffff;fill-opacity:0.811765">
      <path
         class="st0"
         d="m 104.7,143.6 c -0.6,0 -1.1,0.1 -1.6,0.4 l -15.3,7.3 v 0 c -1.1,0.7 -1.8,1.9 -1.8,3.2 0,1.3 0.8,2.6 1.9,3.3 v 0 c 0,0 0,0 0,0 l 15.2,7.3 v 0 c 0.5,0.3 1,0.4 1.6,0.4 2.1,0 3.8,-1.7 3.8,-3.7 v -14.4 c 0,-2.1 -1.7,-3.8 -3.8,-3.8 z m 0,1.9 c 1,0 1.8,0.8 1.8,1.8 v 14.4 c 0,1 -0.8,1.8 -1.8,1.8 -1,0 -0.5,0 -0.8,-0.1 v 0 l -15.2,-7.3 c 0,0 0,0 0,0 -0.6,-0.3 -0.9,-0.9 -0.9,-1.6 0,-0.7 0.3,-1.2 0.8,-1.5 l 15.3,-7.3 c 0.2,-0.1 0.5,-0.2 0.8,-0.2 z"
         id="path14"
         style="fill:#ffffff;fill-opacity:0.811765" />
    </g>
    <g
       id="path21"
       style="fill:#ffffff;fill-opacity:0.811765">
      <path
         class="st0"
         d="m 123.8,177.1 c -2.1,0 -3.8,1.7 -3.8,3.8 0,2.1 0.1,1.1 0.4,1.6 l 7.3,15.3 v 0 c 0,0 0,0 0,0 0.7,1.1 1.8,1.8 3.2,1.8 1.4,0 2.7,-0.8 3.3,-2 v 0 c 0,0 0,0 0,0 l 7.3,-15.2 v 0 c 0.2,-0.5 0.4,-1 0.4,-1.6 0,-2.1 -1.7,-3.8 -3.8,-3.8 h -14.4 z m 0,1.9 h 14.4 c 1,0 1.8,0.8 1.8,1.8 0,1 0,0.5 -0.2,0.8 l -7.2,15.2 c 0,0 0,0 0,0 -0.3,0.5 -0.9,0.9 -1.6,0.9 -0.7,0 -1.2,-0.3 -1.5,-0.8 v 0 c 0,0 0,0 0,0 l -7.3,-15.2 c 0,0 0,0 0,0 -0.1,-0.2 -0.2,-0.5 -0.2,-0.8 0,-1 0.8,-1.8 1.8,-1.8 v 0 z"
         id="path15"
         style="fill:#ffffff;fill-opacity:0.811765" />
    </g>
    <g
       id="path23"
       style="fill:#ffffff;fill-opacity:0.811765">
      <path
         class="st0"
         d="m 157.2,143.6 c -2.1,0 -3.8,1.7 -3.8,3.8 v 14.4 c 0,2.1 1.7,3.7 3.8,3.7 2.1,0 1.1,-0.1 1.6,-0.4 l 15.3,-7.3 v 0 c 1.1,-0.7 1.8,-1.9 1.8,-3.2 0,-1.3 -0.8,-2.6 -1.9,-3.3 v 0 c 0,0 0,0 0,0 L 158.8,144 c -0.5,-0.2 -1,-0.4 -1.6,-0.4 z m 0,1.9 c 0.3,0 0.5,0 0.8,0.2 0,0 0,0 0,0 l 15.2,7.2 v 0 c 0.5,0.3 0.9,0.9 0.9,1.6 0,0.7 -0.3,1.2 -0.8,1.5 0,0 0,0 0,0 l -15.2,7.3 c -0.2,0.1 -0.5,0.2 -0.8,0.2 -1,0 -1.8,-0.8 -1.8,-1.8 v -14.4 c 0,-1 0.8,-1.8 1.8,-1.8 v 0 z"
         id="path16"
         style="fill:#ffffff;fill-opacity:0.811765" />
    </g>
    <g
       id="path25"
       style="fill:#ffffff;fill-opacity:0.811765">
      <path
         class="st0"
         d="m 319.8,216.3 c -1.6,-1.6 -3.8,-2.6 -6.3,-2.6 h -32.9 c -4.9,-0.1 -8.9,3.8 -8.9,8.7 0,4.9 3.9,8.8 8.8,8.9 h 32.9 c 4.9,0.1 8.8,-3.8 8.9,-8.7 0,-2.4 -1,-4.6 -2.6,-6.2 v 0 c 0,0 0,0 0,0 z m -1.3,1.4 c 1.2,1.3 2,3 2,4.9 0,3.8 -3.1,6.9 -6.9,6.9 h -32.9 c -3.8,-0.1 -6.9,-3.2 -6.9,-7.1 0,-3.8 3.1,-6.9 7,-6.9 h 32.9 c 1.9,0.1 3.6,0.9 4.9,2.1 v 0 z"
         id="path18"
         style="fill:#ffffff;fill-opacity:0.811765" />
    </g>
    <g
       id="path27"
       style="fill:#ffffff;fill-opacity:0.811765">
      <path
         class="st0"
         d="m 321.2,211.3 c -2.2,-1.5 -4.8,-2.3 -7.6,-2.3 h -32.9 c -7.5,-0.1 -13.6,5.9 -13.6,13.4 0,7.5 6.1,13.6 13.6,13.6 h 32.9 c 7.5,0.2 13.6,-5.9 13.6,-13.4 0,-4.7 -2.3,-8.9 -5.9,-11.3 v 0 z m 0.6,3 c 2.1,2.1 3.4,5.1 3.4,8.3 0,6.5 -5.3,11.6 -11.7,11.6 h -32.9 c -6.5,-0.1 -11.7,-5.4 -11.6,-11.8 0,-6.5 5.2,-11.6 11.7,-11.6 h 32.9 c 3.2,0.1 6.1,1.4 8.2,3.5 z"
         id="path20"
         style="fill:#ffffff;fill-opacity:0.811765" />
    </g>
    <g
       id="circle35"
       style="fill:#ffffff;fill-opacity:0.811765">
      <path
         class="st0"
         d="m 418.7,132.8 c -12.6,0 -22.8,10.2 -22.8,22.8 0,12.6 10.2,22.8 22.8,22.8 12.6,0 22.8,-10.2 22.8,-22.8 0,-12.6 -10.2,-22.8 -22.8,-22.8 z m 0,1.9 c 11.5,0 20.8,9.3 20.8,20.8 0,11.5 -9.3,20.8 -20.8,20.8 -11.5,0 -20.8,-9.3 -20.8,-20.8 0,-11.5 9.3,-20.8 20.8,-20.8 z"
         id="path22"
         style="fill:#ffffff;fill-opacity:0.811765" />
    </g>
    <g
       id="circle37"
       style="fill:#ffffff;fill-opacity:0.811765">
      <path
         class="st0"
         d="m 464.5,89.8 c -12.6,0 -22.7,10.2 -22.7,22.8 0,12.6 10.2,22.8 22.7,22.8 12.5,0 22.8,-10.2 22.8,-22.8 0,-12.6 -10.2,-22.8 -22.8,-22.8 z m 0,1.9 c 11.5,0 20.8,9.3 20.8,20.8 0,11.5 -9.3,20.8 -20.8,20.8 -11.5,0 -20.8,-9.3 -20.8,-20.8 0,-11.5 9.3,-20.8 20.8,-20.8 z"
         id="path24"
         style="fill:#ffffff;fill-opacity:0.811765" />
    </g>
    <g
       id="circle371"
       data-name="circle37"
       style="fill:#ffffff;fill-opacity:0.811765">
      <path
         class="st0"
         d="m 464.5,93.1 c -10.8,0 -19.6,8.8 -19.6,19.6 0,10.8 8.8,19.6 19.6,19.6 10.8,0 19.6,-8.8 19.6,-19.6 0,-10.8 -8.8,-19.6 -19.6,-19.6 z m 0,1.7 c 9.9,0 18,8 18,18 0,10 -8,18 -18,18 -10,0 -17.9,-8 -17.9,-18 0,-9.9 8,-18 17.9,-18 z"
         id="path26"
         style="fill:#ffffff;fill-opacity:0.811765" />
    </g>
    <g
       id="circle372"
       data-name="circle37"
       style="fill:#ffffff;fill-opacity:0.811765">
      <path
         class="st0"
         d="m 418.7,136 c -10.8,0 -19.6,8.8 -19.6,19.6 0,10.8 8.8,19.6 19.6,19.6 10.8,0 19.6,-8.8 19.6,-19.6 0,-10.8 -8.8,-19.6 -19.6,-19.6 z m 0,1.6 c 9.9,0 18,8 18,18 0,10 -8,18 -18,18 -10,0 -17.9,-8 -17.9,-18 0,-9.9 8,-18 17.9,-18 z"
         id="path28"
         style="fill:#ffffff;fill-opacity:0.811765" />
    </g>
    <g
       id="circle373"
       data-name="circle37"
       style="fill:#ffffff;fill-opacity:0.811765">
      <path
         class="st0"
         d="m 466.3,178 c -10.8,0 -19.6,8.8 -19.6,19.6 0,10.8 8.8,19.6 19.6,19.6 10.8,0 19.6,-8.8 19.6,-19.6 0,-10.8 -8.8,-19.6 -19.6,-19.6 z m 0,1.7 c 9.9,0 18,8 18,18 0,10 -8,18 -18,18 -10,0 -17.9,-8 -17.9,-18 0,-9.9 8,-18 17.9,-18 z"
         id="path29"
         style="fill:#ffffff;fill-opacity:0.811765" />
    </g>
    <g
       id="circle374"
       data-name="circle37"
       style="fill:#ffffff;fill-opacity:0.811765">
      <path
         class="st0"
         d="m 509.9,135 c -10.8,0 -19.6,8.8 -19.6,19.6 0,10.8 8.8,19.6 19.6,19.6 10.8,0 19.6,-8.8 19.6,-19.6 0,-10.8 -8.8,-19.6 -19.6,-19.6 z m 0,1.6 c 9.9,0 18,8 18,18 0,10 -8,18 -18,18 -10,0 -17.9,-8 -17.9,-18 0,-9.9 8,-18 17.9,-18 z"
         id="path30"
         style="fill:#ffffff;fill-opacity:0.811765" />
    </g>
    <g
       id="circle41"
       style="fill:#ffffff;fill-opacity:0.811765">
      <path
         class="st0"
         d="m 466.3,174.9 c -12.6,0 -22.8,10.2 -22.8,22.8 0,12.6 10.2,22.7 22.8,22.7 12.6,0 22.7,-10.2 22.7,-22.7 0,-12.5 -10.2,-22.8 -22.7,-22.8 z m 0,1.9 c 11.5,0 20.8,9.3 20.8,20.8 0,11.5 -9.3,20.8 -20.8,20.8 -11.5,0 -20.8,-9.3 -20.8,-20.8 0,-11.5 9.3,-20.8 20.8,-20.8 z"
         id="path32"
         style="fill:#ffffff;fill-opacity:0.811765" />
    </g>
    <g
       id="circle43"
       style="fill:#ffffff;fill-opacity:0.811765">
      <path
         class="st0"
         d="m 509.9,131.8 c -12.6,0 -22.8,10.2 -22.8,22.8 0,12.6 10.2,22.8 22.8,22.8 12.6,0 22.8,-10.2 22.8,-22.8 0,-12.6 -10.2,-22.8 -22.8,-22.8 z m 0,1.9 c 11.5,0 20.8,9.3 20.8,20.8 0,11.5 -9.3,20.8 -20.8,20.8 -11.5,0 -20.8,-9.3 -20.8,-20.8 0,-11.5 9.3,-20.8 20.8,-20.8 z"
         id="path33"
         style="fill:#ffffff;fill-opacity:0.811765" />
    </g>
    <path
       class="st0"
       d="m 348.4,240.9 h -99.8 c -12.9,0 -23.4,-10.5 -23.4,-23.4 0,-12.9 10.5,-23.4 23.4,-23.4 h 99.8 c 12.9,0 23.4,10.5 23.4,23.4 0,12.9 -10.5,23.4 -23.4,23.4 z m -99.8,-44.8 c -11.8,0 -21.4,9.6 -21.4,21.4 0,11.8 9.6,21.4 21.4,21.4 h 99.8 c 11.8,0 21.4,-9.6 21.4,-21.4 0,-11.8 -9.6,-21.4 -21.4,-21.4 z"
       id="path34"
       style="fill:#ffffff;fill-opacity:0.811765" />
  </g>
</svg>
