<?xml version="1.0" encoding="UTF-8" standalone="no"?>
<!-- Generator: Adobe Illustrator 13.0.0, SVG Export Plug-In . SVG Version: 6.00 Build 14948)  -->

<svg
   version="1.2"
   id="Layer_3"
   x="0px"
   y="0px"
   width="401.189"
   height="326.26001"
   viewBox="0 0 401.18897 326.26"
   xml:space="preserve"
   sodipodi:docname="virtualboy.svg"
   inkscape:version="1.2.2 (732a01da63, 2022-12-09)"
   xmlns:inkscape="http://www.inkscape.org/namespaces/inkscape"
   xmlns:sodipodi="http://sodipodi.sourceforge.net/DTD/sodipodi-0.dtd"
   xmlns="http://www.w3.org/2000/svg"
   xmlns:svg="http://www.w3.org/2000/svg"
   xmlns:rdf="http://www.w3.org/1999/02/22-rdf-syntax-ns#"
   xmlns:cc="http://creativecommons.org/ns#"
   xmlns:dc="http://purl.org/dc/elements/1.1/"
   xmlns:ns="&amp;ns_sfw;"><defs
   id="defs84" /><sodipodi:namedview
   id="namedview82"
   pagecolor="#000000"
   bordercolor="#111111"
   borderopacity="1"
   inkscape:showpageshadow="0"
   inkscape:pageopacity="0"
   inkscape:pagecheckerboard="1"
   inkscape:deskcolor="#d1d1d1"
   showgrid="false"
   inkscape:zoom="2.0445042"
   inkscape:cx="299.58363"
   inkscape:cy="175.10357"
   inkscape:window-width="1920"
   inkscape:window-height="1009"
   inkscape:window-x="-8"
   inkscape:window-y="-8"
   inkscape:window-maximized="1"
   inkscape:current-layer="Layer_3" />
<metadata
   id="metadata55">
	<rdf:RDF>
		<cc:Work
   rdf:about="">
			<dc:format>image/svg+xml</dc:format>
			<dc:type
   rdf:resource="http://purl.org/dc/dcmitype/StillImage" />
			
		</cc:Work>
	</rdf:RDF>
	<ns:sfw>
		<ns:slices />
		<ns:sliceSourceBounds
   x="-7231"
   y="-7652"
   width="16383"
   height="16383"
   bottomLeftOrigin="true" />
	</ns:sfw>
</metadata>
<path
   fill="#f4f4f4"
   d="m 139.748,88.47 c 0,-6.771 5.488,-12.26 12.258,-12.26 v 0 c 6.77,0 12.258,5.488 12.258,12.26 v 0 h 0.002 c -0.002,6.771 -5.49,12.258 -12.26,12.258 v 0 c -6.77,0.001 -12.258,-5.487 -12.258,-12.258 z m 1.999,0 c 0.01,5.664 4.593,10.248 10.259,10.257 v 0 c 5.667,-0.01 10.25,-4.593 10.26,-10.257 v 0 c -0.01,-5.667 -4.593,-10.25 -10.26,-10.26 v 0 c -5.666,0.01 -10.249,4.593 -10.259,10.26 z"
   id="path3" />
<path
   fill="#f4f4f4"
   d="m 110.472,76.46 c 0,-6.772 5.489,-12.259 12.259,-12.261 v 0 c 6.772,0.002 12.259,5.489 12.259,12.261 v 0 c 0,6.77 -5.487,12.257 -12.259,12.259 v 0 C 115.961,88.717 110.472,83.23 110.472,76.46 Z m 2,0 c 0.01,5.664 4.593,10.247 10.26,10.259 v 0 c 5.666,-0.012 10.249,-4.595 10.259,-10.259 v 0 c -0.01,-5.667 -4.593,-10.25 -10.259,-10.26 v 0 c -5.665,0.01 -10.25,4.593 -10.26,10.26 z"
   id="path5" />
<path
   fill="#f4f4f4"
   d="m 66.768,81.664 c -1.588,0 -2.875,-1.287 -2.876,-2.875 v 0 -12.428 c 0.002,-0.281 -0.026,-0.476 -0.055,-0.564 v 0 c -0.008,-0.075 -0.021,-0.059 -0.021,-0.063 v 0 c 0,0.002 -0.006,-0.008 -0.069,-0.028 v 0 C 63.664,65.679 63.486,65.649 63.22,65.651 v 0 H 50.757 C 49.167,65.649 47.88,64.362 47.88,62.775 v 0 -12.51 c 0,-1.59 1.287,-2.876 2.877,-2.876 v 0 h 12.478 c 0.45,-0.004 0.548,-0.1 0.548,-0.104 v 0 c 0.008,0 0.11,-0.124 0.11,-0.594 v 0 -12.441 c 0.002,-1.588 1.289,-2.875 2.876,-2.877 v 0 l 12.51,0.002 c 1.588,0 2.877,1.284 2.877,2.875 v 0 12.486 c 0.004,0.497 0.089,0.554 0.091,0.554 v 0 c 0,-0.002 0.033,0.022 0.125,0.049 v 0 c 0.091,0.024 0.244,0.049 0.488,0.049 v 0 h 12.433 c 1.588,0 2.875,1.287 2.876,2.876 v 0 12.511 c -0.002,1.588 -1.289,2.875 -2.876,2.876 v 0 H 82.846 c -0.479,0.002 -0.574,0.098 -0.574,0.102 v 0 c -0.004,0 -0.116,0.135 -0.116,0.656 v 0 12.38 c 0,1.588 -1.289,2.875 -2.877,2.875 v 0 z M 49.879,50.265 v 12.511 c 0,0.482 0.393,0.875 0.877,0.875 v 0 h 12.463 c 0.769,0 1.527,0.145 2.077,0.739 v 0 c 0.525,0.604 0.59,1.301 0.596,1.973 v 0 12.427 c 0,0.482 0.391,0.875 0.875,0.875 v 0 h 12.51 c 0.485,0 0.875,-0.393 0.877,-0.875 v 0 -12.38 c 0,-0.747 0.139,-1.484 0.682,-2.052 v 0 c 0.554,-0.562 1.295,-0.707 2.007,-0.707 v 0 H 95.29 c 0.482,0 0.875,-0.393 0.875,-0.875 v 0 -12.511 c 0,-0.482 -0.393,-0.877 -0.875,-0.877 v 0 H 82.859 c -0.686,-0.002 -1.393,-0.104 -1.971,-0.629 v 0 c -0.574,-0.535 -0.737,-1.285 -0.733,-2.021 v 0 -12.488 c -0.002,-0.482 -0.393,-0.875 -0.877,-0.875 v 0 h -12.51 c -0.484,0 -0.875,0.391 -0.875,0.875 v 0 12.439 c 0,0.717 -0.148,1.441 -0.68,1.993 v 0 c -0.542,0.547 -1.272,0.707 -1.979,0.704 v 0 H 50.756 c -0.485,0 -0.877,0.396 -0.877,0.879 z"
   id="path7" />
<path
   fill="#f4f4f4"
   d="m 55.936,47.96 c 1.841,-3.668 4.824,-6.661 8.49,-8.51 v 0 l 0.9,1.787 c -3.28,1.654 -5.955,4.337 -7.604,7.62 v 0 l 0.002,0.002 z"
   id="path9" />
<path
   fill="#f4f4f4"
   d="m 55.97,65.146 1.782,-0.905 c 1.659,3.274 4.344,5.947 7.629,7.59 v 0 l -0.895,1.788 c -3.67,-1.835 -6.664,-4.816 -8.516,-8.473 z"
   id="path11" />
<path
   fill="#f4f4f4"
   d="m 80.743,71.792 c 3.256,-1.649 5.917,-4.313 7.562,-7.572 v 0 l 1.786,0.903 c -1.839,3.641 -4.806,6.61 -8.444,8.453 v 0 z"
   id="path13" />
<path
   fill="#f4f4f4"
   d="m 80.744,41.249 0.903,-1.786 c 3.653,1.851 6.627,4.835 8.464,8.494 v 0 l -1.788,0.897 c -1.644,-3.273 -4.312,-5.953 -7.579,-7.605 z"
   id="path15" />
<path
   fill="#f4f4f4"
   d="m 66.862,56.521 c 0.002,-3.404 2.758,-6.161 6.162,-6.163 v 0 c 3.402,0.002 6.158,2.758 6.161,6.163 v 0 c -0.002,3.402 -2.758,6.158 -6.161,6.16 v 0 c -3.403,-0.003 -6.16,-2.759 -6.162,-6.16 z m 2.001,0 c 0.004,2.295 1.863,4.155 4.162,4.16 v 0 c 2.297,-0.004 4.156,-1.863 4.16,-4.16 v 0 c -0.004,-2.299 -1.862,-4.158 -4.16,-4.162 v 0 c -2.299,0.003 -4.158,1.862 -4.162,4.162 z"
   id="path17" />
<path
   fill="#f4f4f4"
   d="M 33.122,324.163 C 22.234,323.855 5.85,316.53 3.636,289.054 v 0 C 3.248,280.237 3.064,271.968 3.064,264.175 v 0 C 3.054,203.536 14.336,171.64 29.984,134.372 v 0 c 2.229,-5.316 3.191,-10.547 3.191,-16.011 v 0 C 33.183,106.556 28.625,93.603 22.461,76.93 v 0 l 0.002,0.002 1.875,-0.694 c 6.154,16.684 10.83,29.792 10.838,42.123 v 0 c 0.002,5.701 -1.015,11.224 -3.347,16.784 v 0 C 16.215,172.372 5.075,203.77 5.065,264.174 v 0 c 0,7.76 0.184,15.998 0.566,24.752 v 0 c 2.292,26.607 17.434,32.793 27.563,33.236 v 0 c 0.176,0.006 0.36,0.008 0.554,0.008 v 0 c 10.131,0.006 28.966,-9.506 31.822,-33.282 v 0 C 68.574,264.105 78.32,177.48 80.967,163.84 v 0 c 2.603,-13.643 9.672,-27.791 27.542,-29.329 v 0 c 5.774,-0.503 9.888,-0.671 12.817,-0.673 v 0 c 5.864,0.019 6.965,0.625 7.34,0.836 v 0 l -1.111,1.664 -0.013,0.011 c -0.122,-0.042 -0.379,-0.115 -0.824,-0.19 v 0 c -0.893,-0.156 -2.539,-0.322 -5.393,-0.318 v 0 c -2.852,-0.002 -6.911,0.164 -12.646,0.662 v 0 c -16.658,1.463 -23.099,14.34 -25.751,27.719 v 0 c -2.606,13.383 -12.377,100.15 -15.375,124.906 v 0 c -3.042,24.85 -22.646,35.037 -33.807,35.041 v 0 c -0.205,0 -0.413,0 -0.624,-0.006 z"
   id="path19" />
<path
   fill="#f4f4f4"
   d="m 238.321,88.47 c 0,-6.773 5.486,-12.259 12.259,-12.261 v 0 c 6.771,0.002 12.259,5.488 12.261,12.261 v 0 c -0.002,6.769 -5.49,12.257 -12.261,12.257 v 0 c -6.771,0.002 -12.259,-5.488 -12.259,-12.257 z m 12.259,10.259 c 5.666,-0.011 10.249,-4.593 10.261,-10.257 v 0 c -0.012,-5.666 -4.595,-10.25 -10.261,-10.261 v 0 c -5.666,0.011 -10.249,4.595 -10.259,10.261 v 0 c 0.01,5.663 4.593,10.246 10.259,10.257 z"
   id="path21" />
<path
   fill="#f4f4f4"
   d="m 267.593,76.459 c 0.002,-6.772 5.491,-12.259 12.262,-12.261 v 0 c 6.771,0.002 12.26,5.491 12.26,12.261 v 0 c 0,6.77 -5.489,12.259 -12.26,12.259 v 0 c -6.771,0 -12.26,-5.487 -12.262,-12.259 z m 12.26,10.258 c 5.666,-0.008 10.25,-4.593 10.26,-10.258 v 0 c -0.01,-5.666 -4.594,-10.25 -10.26,-10.26 v 0 c -5.664,0.011 -10.248,4.595 -10.26,10.26 v 0 c 0.011,5.666 4.595,10.25 10.26,10.258 z"
   id="path23" />
<path
   fill="#f4f4f4"
   d="m 323.308,81.665 c -1.59,-0.002 -2.877,-1.289 -2.877,-2.877 v 0 -12.379 c 0,-0.52 -0.107,-0.656 -0.114,-0.656 v 0 c 0,0 -0.098,-0.101 -0.572,-0.103 v 0 h -12.45 c -1.588,0 -2.875,-1.287 -2.877,-2.875 v 0 -12.51 c 0.002,-1.588 1.289,-2.875 2.877,-2.877 v 0 h 12.434 c 0.484,0.002 0.612,-0.09 0.612,-0.096 v 0 c -0.007,-0.008 0.088,-0.059 0.092,-0.556 v 0 -12.485 c 0,-1.59 1.287,-2.877 2.878,-2.877 v 0 h 12.511 c 1.587,0 2.873,1.287 2.873,2.877 v 0 12.438 c 0.003,0.469 0.104,0.595 0.112,0.595 v 0 c 0,0.004 0.098,0.101 0.547,0.103 v 0 h 12.479 c 1.589,0.002 2.875,1.289 2.878,2.877 v 0 l -0.003,12.511 c 0,1.588 -1.286,2.875 -2.875,2.877 v 0 L 339.37,65.65 c -0.403,-0.002 -0.559,0.06 -0.594,0.08 v 0 c -0.002,0.003 -0.021,0.029 -0.037,0.1 v 0 c -0.025,0.101 -0.047,0.283 -0.044,0.53 v 0 12.427 c -0.003,1.589 -1.289,2.875 -2.876,2.877 v 0 h -12.511 z m -0.876,-15.256 v 12.378 c 0,0.484 0.392,0.876 0.876,0.876 v 0 h 12.512 c 0.481,0 0.874,-0.392 0.874,-0.876 v 0 l 0.002,-12.427 c 0.005,-0.67 0.068,-1.366 0.596,-1.972 v 0 c 0.549,-0.595 1.31,-0.74 2.079,-0.737 v 0 h 12.462 c 0.484,0 0.876,-0.392 0.876,-0.876 v 0 -12.51 c 0,-0.484 -0.394,-0.876 -0.876,-0.876 v 0 l -12.479,-0.002 c -0.705,0.004 -1.438,-0.155 -1.978,-0.705 v 0 c -0.532,-0.551 -0.682,-1.276 -0.68,-1.993 v 0 l -0.002,-12.438 c 0,-0.484 -0.393,-0.876 -0.874,-0.876 v 0 l -12.512,-0.002 c -0.484,0.002 -0.875,0.394 -0.878,0.878 v 0 12.483 c 0.005,0.74 -0.158,1.488 -0.732,2.024 v 0 c -0.578,0.522 -1.284,0.625 -1.97,0.629 v 0 l -12.435,-0.002 c -0.48,0.002 -0.876,0.396 -0.876,0.878 v 0 12.511 c 0,0.482 0.395,0.876 0.876,0.876 v 0 h 12.45 c 0.709,-0.002 1.45,0.145 2.004,0.706 v 0 c 0.545,0.567 0.684,1.304 0.685,2.053 z"
   id="path25" />
<path
   fill="#f4f4f4"
   d="m 337.262,41.236 0.9,-1.786 c 3.664,1.851 6.647,4.84 8.489,8.511 v 0 h 0.002 l -1.789,0.896 c -1.646,-3.282 -4.324,-5.966 -7.602,-7.621 z"
   id="path27" />
<path
   fill="#f4f4f4"
   d="m 337.205,71.831 c 3.284,-1.642 5.969,-4.315 7.629,-7.589 v 0 l 1.783,0.904 c -1.854,3.66 -4.849,6.639 -8.518,8.473 v 0 0.002 z"
   id="path29" />
<path
   fill="#f4f4f4"
   d="m 312.494,65.123 h 0.002 l 1.785,-0.902 c 1.645,3.258 4.306,5.922 7.563,7.571 v 0 l -0.903,1.785 c -3.639,-1.845 -6.606,-4.815 -8.447,-8.454 z"
   id="path31" />
<path
   fill="#f4f4f4"
   d="m 312.476,47.956 c 1.836,-3.657 4.811,-6.642 8.463,-8.492 v 0 l 0.904,1.785 c -3.27,1.653 -5.937,4.332 -7.58,7.606 v 0 z"
   id="path33" />
<path
   fill="#f4f4f4"
   d="m 323.4,56.521 c 0.002,-3.404 2.76,-6.16 6.161,-6.162 v 0 c 3.401,0.002 6.159,2.758 6.161,6.162 v 0 c -0.002,3.402 -2.76,6.16 -6.161,6.16 v 0 c -3.403,-0.002 -6.159,-2.76 -6.161,-6.16 z m 6.162,4.157 c 2.299,-0.004 4.156,-1.863 4.16,-4.159 v 0 c -0.004,-2.298 -1.861,-4.157 -4.16,-4.161 v 0 c -2.298,0.004 -4.156,1.863 -4.16,4.161 v 0 c 0.003,2.296 1.863,4.155 4.16,4.159 z"
   id="path35" />
<g
   id="g41"
   transform="translate(-98,-8)">
	<path
   fill="#f4f4f4"
   d="m 240.05,135.564 -0.047,-0.008 -85.933,-20.442 0.23,-0.974 0.298,-0.955 -0.298,0.955 -0.23,0.974 -0.039,-0.011 -0.027,-0.009 C 132.358,108.362 116.648,88.175 116.645,64.316 v 0 c 0,-29.362 23.806,-53.166 53.17,-53.168 v 0 c 5.151,0 10.135,0.734 14.789,2.087 v 0 c 0.785,0.191 2.231,0.853 4.596,1.973 v 0 c 2.33,1.111 5.43,2.652 9.068,4.497 v 0 c 7.273,3.692 16.695,8.602 26.357,13.726 v 0 c 19.335,10.258 39.567,21.333 45.583,25.287 v 0 c 11.246,7.595 18.64,20.466 18.642,35.062 v 0 c -0.002,23.354 -18.932,42.283 -42.285,42.283 v 0 c -2.215,0 -4.391,-0.169 -6.515,-0.499 z m 6.515,-1.5 c 11.127,-0.002 21.192,-4.507 28.485,-11.799 v 0 c 7.292,-7.293 11.799,-17.358 11.799,-28.485 v 0 c 0,-13.909 -7.043,-26.164 -17.751,-33.397 v 0 C 258.886,53.658 204.489,24.719 188.337,17.013 v 0 c -2.271,-1.093 -3.904,-1.781 -4.23,-1.841 v 0 c -4.534,-1.317 -9.329,-2.021 -14.291,-2.021 v 0 c -14.135,0 -26.919,5.726 -36.183,14.985 v 0 c -9.26,9.264 -14.985,22.048 -14.985,36.181 v 0 c -0.002,22.957 15.12,42.383 35.94,48.865 v 0 l 85.794,20.41 c 2.015,0.311 4.079,0.472 6.183,0.472 z"
   id="path37" />
	<path
   fill="#f4f4f4"
   d="m 309.737,93.778 c 0,-14.592 7.396,-27.467 18.65,-35.069 v 0 c 10.476,-6.881 64.696,-35.716 80.997,-43.501 v 0 c 2.365,-1.119 3.813,-1.781 4.535,-1.958 v 0 c 4.713,-1.367 9.697,-2.101 14.853,-2.101 v 0 c 29.362,0 53.166,23.803 53.168,53.169 v 0 c -0.002,23.857 -15.713,44.046 -37.358,50.776 v 0 l -0.025,0.007 -85.985,20.455 -0.036,0.006 c -2.122,0.33 -4.299,0.5 -6.513,0.5 v 0 c -23.355,10e-4 -42.286,-18.928 -42.286,-42.284 z m 104.681,-78.59 c -0.264,0.042 -1.897,0.732 -4.171,1.826 v 0 c -2.305,1.102 -5.396,2.637 -9.023,4.477 v 0 c -7.259,3.682 -16.674,8.59 -26.325,13.709 v 0 c -19.293,10.233 -39.594,21.353 -45.398,25.176 v 0 c -10.719,7.243 -17.764,19.497 -17.762,33.403 v 0 c 0,11.129 4.507,21.193 11.798,28.486 v 0 c 7.293,7.291 17.357,11.797 28.486,11.8 v 0 c 2.096,0 4.153,-0.162 6.164,-0.47 v 0 l 85.84,-20.42 c 20.808,-6.491 35.916,-25.91 35.912,-48.856 v 0 c 0,-14.134 -5.726,-26.92 -14.984,-36.184 v 0 C 455.691,18.876 442.906,13.15 428.774,13.15 v 0 c -4.964,-0.001 -9.759,0.704 -14.356,2.038 z"
   id="path39" />
</g>
<path
   fill="#f4f4f4"
   d="m 335.034,289.13 c -3,-24.758 -12.771,-111.525 -15.378,-124.908 v 0 c -2.652,-13.379 -9.091,-26.256 -25.752,-27.717 v 0 c -5.734,-0.5 -9.795,-0.664 -12.647,-0.664 v 0 c -4.275,-0.004 -5.849,0.381 -6.213,0.51 v 0 l -0.013,-0.012 -1.112,-1.662 c 0.375,-0.215 1.473,-0.816 7.338,-0.838 v 0 c 2.932,0.002 7.043,0.17 12.82,0.672 v 0 c 17.87,1.541 24.941,15.687 27.543,29.33 v 0 c 2.648,13.639 12.393,100.266 15.398,125.049 v 0 c 2.852,23.777 21.687,33.287 31.819,33.283 v 0 c 0.191,0 0.377,-0.002 0.554,-0.008 v 0 c 10.131,-0.447 25.271,-6.631 27.562,-33.197 v 0 c 0.381,-8.795 0.565,-17.032 0.565,-24.793 v 0 C 397.507,203.771 386.37,172.372 370.756,135.147 v 0 c -2.338,-5.56 -3.35,-11.084 -3.35,-16.783 v 0 c 0.011,-12.331 4.686,-25.44 10.84,-42.125 v 0 h 0.002 l 1.875,0.693 c -6.164,16.673 -10.727,29.626 -10.715,41.431 v 0 c 0,5.465 0.96,10.691 3.191,16.008 v 0 c 15.648,37.268 26.93,69.166 26.918,129.805 v 0 c -0.002,7.791 -0.188,16.062 -0.571,24.918 v 0 c -2.21,27.438 -18.597,34.764 -29.485,35.07 v 0 c -0.211,0.008 -0.42,0.01 -0.624,0.01 v 0 c -11.16,-0.007 -30.767,-10.195 -33.803,-35.044 z"
   id="path43" />
<path
   fill="#f4f4f4"
   d="m 134.868,202.938 c -4.077,-0.002 -7.381,-3.305 -7.381,-7.381 v 0 -72.059 h 2 l -0.002,72.059 c 0.006,2.973 2.41,5.374 5.382,5.38 v 0 h 132.852 c 2.974,-0.006 5.374,-2.407 5.38,-5.38 v 0 -72.059 h 2.002 l -0.003,72.059 c 0,4.076 -3.303,7.379 -7.379,7.381 v 0 z"
   id="path45" />
<polygon
   fill="#f4f4f4"
   points="348.337,47.556 348.337,49.554 250.38,49.554 250.38,47.556 "
   id="polygon47"
   transform="translate(-98,-8)" />
<polygon
   fill="#f4f4f4"
   points="335.828,54.311 335.828,56.311 262.267,56.311 262.267,54.311 "
   id="polygon49"
   transform="translate(-98,-8)" />
<path
   fill="#f4f4f4"
   d="m 192.888,62.447 c -0.713,0 -1.378,-0.247 -1.844,-0.619 v 0 L 180.948,54.9 180.89,54.844 c -0.584,-0.555 -0.951,-1.349 -0.951,-2.217 v 0 c 0.002,-1.693 1.374,-3.064 3.065,-3.064 v 0 h 36.578 c 1.691,0 3.063,1.372 3.063,3.064 v 0 c 0.002,0.869 -0.365,1.663 -0.95,2.219 v 0 l -0.06,0.054 -10.04,6.889 c -0.52,0.411 -1.186,0.658 -1.896,0.658 v 0 -1 -1 c 0.252,0 0.475,-0.084 0.712,-0.268 v 0 l 9.953,-6.83 c 0.176,-0.192 0.281,-0.44 0.281,-0.721 v 0 c 0,-0.587 -0.478,-1.064 -1.063,-1.064 v 0 h -36.578 c -0.588,0 -1.062,0.477 -1.064,1.064 v 0 c 0,0.281 0.106,0.53 0.282,0.72 v 0 l 10.008,6.87 c 0.184,0.145 0.404,0.229 0.658,0.229 v 0 h 16.811 v 1 1 z"
   id="path51" />
<path
   fill="#f4f4f4"
   d="m 196.954,58.804 c 0,0.622 -0.504,1.126 -1.126,1.126 h -0.281 c -0.622,0 -1.126,-0.504 -1.126,-1.126 v -6.287 c 0,-0.622 0.504,-1.126 1.126,-1.126 h 0.281 c 0.622,0 1.126,0.504 1.126,1.126 z"
   id="path53" />
<path
   fill="#f4f4f4"
   d="m 202.562,58.804 c 0,0.622 -0.506,1.126 -1.127,1.126 h -0.28 c -0.622,0 -1.128,-0.504 -1.128,-1.126 v -6.287 c 0,-0.622 0.506,-1.126 1.128,-1.126 h 0.28 c 0.621,0 1.127,0.504 1.127,1.126 z"
   id="path55" />
<path
   fill="#f4f4f4"
   d="m 208.166,58.804 c 0,0.622 -0.504,1.126 -1.126,1.126 h -0.281 c -0.621,0 -1.126,-0.504 -1.126,-1.126 v -6.287 c 0,-0.622 0.505,-1.126 1.126,-1.126 h 0.281 c 0.622,0 1.126,0.504 1.126,1.126 z"
   id="path57" />
<path
   fill="#f4f4f4"
   d="m 142.874,170.663 c -5.735,0 -10.383,-4.65 -10.383,-10.384 v 0 -14.011 h 2 v 14.011 c 0.008,4.63 3.752,8.373 8.384,8.382 v 0 H 258.72 c 4.627,-0.01 8.373,-3.754 8.383,-8.382 v 0 -14.011 h 0.002 1.996 l 0.002,14.011 c -0.002,5.735 -4.648,10.384 -10.383,10.384 v 0 z"
   id="path59" />
<g
   id="g69"
   transform="translate(-98,-8)">
	<path
   fill="#f4f4f4"
   d="m 148.631,64.521 c 0,-3.027 0.602,-5.918 1.692,-8.554 v 0 l 1.847,0.762 c -0.991,2.399 -1.54,5.029 -1.54,7.792 v 0 c 0,2.759 0.546,5.384 1.538,7.781 v 0 l -1.849,0.764 c -1.088,-2.633 -1.688,-5.523 -1.688,-8.545 z"
   id="path61" />
	<path
   fill="#f4f4f4"
   d="m 162.591,85.271 0.753,-1.854 c 2.371,0.963 4.96,1.494 7.681,1.494 v 0 c 2.739,0 5.349,-0.538 7.734,-1.517 v 0 l 0.759,1.85 c -2.619,1.075 -5.491,1.667 -8.493,1.667 v 0 c -2.982,0.001 -5.831,-0.583 -8.434,-1.64 z"
   id="path63" />
	<path
   fill="#f4f4f4"
   d="m 189.888,72.279 c 0.985,-2.392 1.528,-5.01 1.53,-7.761 v 0 c -0.002,-2.72 -0.532,-5.313 -1.5,-7.684 v 0 h 0.002 l 1.851,-0.754 c 1.061,2.604 1.646,5.455 1.646,8.438 v 0 c 0,3.015 -0.597,5.896 -1.68,8.525 v 0 z"
   id="path65" />
	<path
   fill="#f4f4f4"
   d="m 162.446,43.828 c 2.644,-1.097 5.542,-1.701 8.579,-1.701 v 0 c 3.018,0 5.903,0.598 8.536,1.685 v 0 l -0.765,1.849 c -2.396,-0.987 -5.019,-1.534 -7.771,-1.534 v 0 c -2.771,0 -5.406,0.551 -7.81,1.55 v 0 z"
   id="path67" />
</g>
<g
   id="g79"
   transform="translate(-98,-8)">
	<path
   fill="#f4f4f4"
   d="m 405.168,64.521 c 0,-3.027 0.603,-5.918 1.694,-8.555 v 0 l 1.85,0.765 c -0.995,2.399 -1.543,5.028 -1.543,7.79 v 0 c 0,2.758 0.548,5.384 1.538,7.781 v 0 h 0.002 l -1.851,0.765 c -1.087,-2.635 -1.69,-5.525 -1.69,-8.546 z"
   id="path71" />
	<path
   fill="#f4f4f4"
   d="m 419.13,85.271 0.753,-1.853 c 2.37,0.964 4.961,1.495 7.681,1.495 v 0 c 2.739,0 5.351,-0.54 7.733,-1.518 v 0 0.002 l 0.759,1.849 c -2.619,1.075 -5.49,1.667 -8.492,1.667 v 0 c -2.982,-10e-4 -5.833,-0.584 -8.434,-1.642 z"
   id="path73" />
	<path
   fill="#f4f4f4"
   d="m 446.426,72.28 c 0.985,-2.391 1.529,-5.011 1.529,-7.762 v 0 c 0,-2.721 -0.532,-5.313 -1.497,-7.684 v 0 l 1.852,-0.754 c 1.063,2.606 1.646,5.458 1.646,8.438 v 0 c 0.002,3.015 -0.599,5.897 -1.678,8.524 v 0 z"
   id="path75" />
	<path
   fill="#f4f4f4"
   d="m 418.985,43.829 c 2.641,-1.096 5.542,-1.702 8.576,-1.702 v 0 c 3.021,0 5.903,0.6 8.537,1.686 v 0 l -0.766,1.849 c -2.395,-0.989 -5.018,-1.533 -7.771,-1.533 v 0 c -2.77,0 -5.404,0.55 -7.81,1.547 v 0 z"
   id="path77" />
</g>
</svg>
