<?xml version="1.0" encoding="UTF-8" standalone="no"?>
<!-- Generator: Adobe Illustrator 18.0.0, SVG Export Plug-In . SVG Version: 6.00 Build 0)  -->

<svg
   version="1.1"
   id="Capa_1"
   x="0px"
   y="0px"
   viewBox="0 0 58.779 31"
   xml:space="preserve"
   sodipodi:docname="vpinball.svg"
   width="58.778999"
   height="31"
   inkscape:version="1.2.2 (732a01da63, 2022-12-09)"
   xmlns:inkscape="http://www.inkscape.org/namespaces/inkscape"
   xmlns:sodipodi="http://sodipodi.sourceforge.net/DTD/sodipodi-0.dtd"
   xmlns="http://www.w3.org/2000/svg"
   xmlns:svg="http://www.w3.org/2000/svg"><defs
   id="defs49" /><sodipodi:namedview
   id="namedview47"
   pagecolor="#ffffff"
   bordercolor="#111111"
   borderopacity="1"
   inkscape:showpageshadow="0"
   inkscape:pageopacity="0"
   inkscape:pagecheckerboard="1"
   inkscape:deskcolor="#d1d1d1"
   showgrid="false"
   inkscape:zoom="20.571166"
   inkscape:cx="24.038501"
   inkscape:cy="18.229399"
   inkscape:window-width="1920"
   inkscape:window-height="1009"
   inkscape:window-x="-8"
   inkscape:window-y="-8"
   inkscape:window-maximized="1"
   inkscape:current-layer="g14" />
<g
   id="g14"
   style="fill:none;fill-opacity:1;stroke:#000000;stroke-opacity:1"
   transform="translate(0.02847609,-14.07653)">
	<path
   d="m 58.425,27.888 v 0 c -0.599,-1.699 -1.903,-3.055 -3.577,-3.72 -1.674,-0.663 -3.551,-0.571 -5.152,0.253 l -18.911,9.747 c -1.455,0.75 -2.141,2.48 -1.598,4.023 0.47,1.334 1.742,2.199 3.114,2.199 0.216,0 0.436,-0.021 0.654,-0.066 L 53.798,36.06 c 1.765,-0.36 3.285,-1.467 4.172,-3.034 0.888,-1.566 1.053,-3.44 0.455,-5.138 z"
   id="path2"
   style="fill:none;fill-opacity:1;stroke:#ffffff;stroke-opacity:1;stroke-width:0.4;stroke-dasharray:none"
   sodipodi:nodetypes="ssccccscccs" />
	<path
   d="M 11.194,22.149 C 10.107,20.713 8.453,19.82 6.656,19.696 4.858,19.578 3.098,20.232 1.824,21.506 0.55,22.78 -0.11,24.541 0.014,26.338 c 0.124,1.797 1.018,3.451 2.453,4.538 l 16.958,12.847 c 0.588,0.446 1.289,0.665 1.987,0.665 0.851,0 1.697,-0.325 2.333,-0.961 1.158,-1.157 1.285,-3.015 0.296,-4.319 z"
   id="path4"
   style="fill:none;fill-opacity:1;stroke:#ffffff;stroke-opacity:1;stroke-width:0.4;stroke-dasharray:none"
   sodipodi:nodetypes="ccssccsccc" />
	<path
   d="m 41,21.892 c 0,-4.136 -3.364,-7.5 -7.5,-7.5 -4.136,0 -7.5,3.364 -7.5,7.5 0,4.136 3.364,7.5 7.5,7.5 4.136,0 7.5,-3.365 7.5,-7.5 z"
   id="path6"
   style="fill:none;fill-opacity:1;stroke:#ffffff;stroke-opacity:1;stroke-width:0.4;stroke-dasharray:none"
   sodipodi:nodetypes="sssss" />
	<circle
   cx="6.5"
   cy="25.892"
   r="2.5"
   id="circle8"
   style="fill:none;fill-opacity:1;stroke:#ffffff;stroke-opacity:1;stroke-width:0.4;stroke-dasharray:none" />
	<circle
   cx="52.576"
   cy="29.948999"
   r="2.5"
   id="circle10"
   style="fill:none;fill-opacity:1;stroke:#ffffff;stroke-opacity:1;stroke-width:0.4;stroke-dasharray:none" />
	<path
   d="m 35,19.392 c 0,-0.553 -0.448,-1 -1,-1 -2.206,0 -4,1.794 -4,4 0,0.553 0.448,1 1,1 0.552,0 1,-0.447 1,-1 0,-1.103 0.897,-2 2,-2 0.552,0 1,-0.448 1,-1 z"
   id="path12"
   style="fill:none;fill-opacity:1;stroke:#ffffff;stroke-opacity:1;stroke-width:0.4;stroke-dasharray:none" />
</g>
<g
   id="g16"
   style="fill:none;fill-opacity:1;stroke:#000000;stroke-opacity:1"
   transform="translate(0.02847609,-14.07653)">
</g>
<g
   id="g18"
   style="fill:none;fill-opacity:1;stroke:#000000;stroke-opacity:1"
   transform="translate(0.02847609,-14.07653)">
</g>
<g
   id="g20"
   style="fill:none;fill-opacity:1;stroke:#000000;stroke-opacity:1"
   transform="translate(0.02847609,-14.07653)">
</g>
<g
   id="g22"
   style="fill:none;fill-opacity:1;stroke:#000000;stroke-opacity:1"
   transform="translate(0.02847609,-14.07653)">
</g>
<g
   id="g24"
   style="fill:none;fill-opacity:1;stroke:#000000;stroke-opacity:1"
   transform="translate(0.02847609,-14.07653)">
</g>
<g
   id="g26"
   style="fill:none;fill-opacity:1;stroke:#000000;stroke-opacity:1"
   transform="translate(0.02847609,-14.07653)">
</g>
<g
   id="g28"
   style="fill:none;fill-opacity:1;stroke:#000000;stroke-opacity:1"
   transform="translate(0.02847609,-14.07653)">
</g>
<g
   id="g30"
   style="fill:none;fill-opacity:1;stroke:#000000;stroke-opacity:1"
   transform="translate(0.02847609,-14.07653)">
</g>
<g
   id="g32"
   style="fill:none;fill-opacity:1;stroke:#000000;stroke-opacity:1"
   transform="translate(0.02847609,-14.07653)">
</g>
<g
   id="g34"
   style="fill:none;fill-opacity:1;stroke:#000000;stroke-opacity:1"
   transform="translate(0.02847609,-14.07653)">
</g>
<g
   id="g36"
   style="fill:none;fill-opacity:1;stroke:#000000;stroke-opacity:1"
   transform="translate(0.02847609,-14.07653)">
</g>
<g
   id="g38"
   style="fill:none;fill-opacity:1;stroke:#000000;stroke-opacity:1"
   transform="translate(0.02847609,-14.07653)">
</g>
<g
   id="g40"
   style="fill:none;fill-opacity:1;stroke:#000000;stroke-opacity:1"
   transform="translate(0.02847609,-14.07653)">
</g>
<g
   id="g42"
   style="fill:none;fill-opacity:1;stroke:#000000;stroke-opacity:1"
   transform="translate(0.02847609,-14.07653)">
</g>
<g
   id="g44"
   style="fill:none;fill-opacity:1;stroke:#000000;stroke-opacity:1"
   transform="translate(0.02847609,-14.07653)">
</g>
</svg>
