<?xml version="1.0" encoding="UTF-8" standalone="no"?>
<!-- Created with Inkscape (http://www.inkscape.org/) -->

<svg
   width="1787"
   height="900"
   viewBox="0 0 472.81084 238.1256"
   version="1.1"
   id="svg5"
   inkscape:version="1.2.2 (732a01da63, 2022-12-09)"
   xml:space="preserve"
   sodipodi:docname="vsmile.svg"
   xmlns:inkscape="http://www.inkscape.org/namespaces/inkscape"
   xmlns:sodipodi="http://sodipodi.sourceforge.net/DTD/sodipodi-0.dtd"
   xmlns="http://www.w3.org/2000/svg"
   xmlns:svg="http://www.w3.org/2000/svg"><sodipodi:namedview
     id="namedview7"
     pagecolor="#000000"
     bordercolor="#111111"
     borderopacity="1"
     inkscape:showpageshadow="0"
     inkscape:pageopacity="0"
     inkscape:pagecheckerboard="1"
     inkscape:deskcolor="#d1d1d1"
     inkscape:document-units="mm"
     showgrid="false"
     inkscape:zoom="0.45041229"
     inkscape:cx="903.61655"
     inkscape:cy="552.82684"
     inkscape:window-width="1920"
     inkscape:window-height="1009"
     inkscape:window-x="-8"
     inkscape:window-y="-8"
     inkscape:window-maximized="1"
     inkscape:current-layer="layer1" /><defs
     id="defs2"><inkscape:path-effect
       effect="bspline"
       id="path-effect9522"
       is_visible="true"
       lpeversion="1"
       weight="33.333333"
       steps="2"
       helper_size="0"
       apply_no_weight="true"
       apply_with_weight="true"
       only_selected="false" /></defs><g
     inkscape:label="Layer 1"
     inkscape:groupmode="layer"
     id="layer1"><path
       id="rect9615-3"
       style="fill:none;stroke:#ffffff;stroke-width:2.69999;stroke-linecap:round;stroke-linejoin:round;stroke-opacity:1;paint-order:fill markers stroke"
       d="m 283.51213,95.464065 -24.10712,1.70746 1.34044,10.294525 24.08262,-1.92569 c 1.98723,-0.1589 2.91618,-3.54942 2.61205,-5.963045 -0.29591,-2.34839 -2.15393,-4.2389 -3.92799,-4.11325 z"
       sodipodi:nodetypes="sccsss" /><ellipse
       style="fill:none;stroke:#ffffff;stroke-width:2.7;stroke-linecap:round;stroke-linejoin:round;stroke-dasharray:none;stroke-opacity:1;paint-order:fill markers stroke"
       id="path9556-4"
       cx="256.56454"
       cy="138.8127"
       rx="9.7612429"
       ry="9.34587" /><ellipse
       style="fill:none;stroke:#ffffff;stroke-width:2.7;stroke-linecap:round;stroke-linejoin:round;stroke-dasharray:none;stroke-opacity:1;paint-order:fill markers stroke"
       id="path9556-3"
       cx="232.47296"
       cy="140.05881"
       rx="9.7612429"
       ry="9.34587" /><path
       style="fill:none;stroke:#ffffff;stroke-width:3.81701;stroke-linecap:round;stroke-linejoin:round;stroke-opacity:1;paint-order:fill markers stroke"
       d="m 400.23914,9.008927 -5.19215,13.914959 c 0,0 42.20665,3.720247 50.88308,75.805399 7.08087,58.829055 -26.7915,73.313175 -26.7915,73.313175 l 9.76125,24.29926"
       id="path9520-6"
       sodipodi:nodetypes="ccscc" /><path
       id="rect8957"
       style="fill:none;stroke:#ffffff;stroke-width:3.81701;stroke-linecap:round;stroke-linejoin:round;stroke-opacity:1;paint-order:fill markers stroke"
       d="M 66.499175,27.697522 C 110.39907,18.797567 175.06585,36.191807 228.03025,35.589591 280.17414,34.996705 332.07157,1.301212 381.25388,4.021316 c 19.638,1.08611 42.62285,5.901041 56.84817,22.057088 12.67837,14.399126 23.88758,35.794782 27.26467,60.713291 5.18492,38.257925 1.98893,64.329855 -8.92572,84.277175 -10.91465,19.94732 -33.98053,34.11244 -51.92629,36.29207 C 365.32338,212.12098 265.08139,192.63178 249.83728,192.40755 228.25575,192.0901 143.61776,234.51406 88.513894,232.69863 79.671164,232.40731 18.237386,234.30468 6.0625436,137.88246 -5.2867614,47.998317 55.431582,29.941288 66.499175,27.697522 Z"
       sodipodi:nodetypes="sssssssssss" /><ellipse
       style="fill:none;stroke:#ffffff;stroke-width:3.81701;stroke-linecap:round;stroke-linejoin:round;stroke-opacity:1;paint-order:fill markers stroke"
       id="path9375"
       cx="111.59971"
       cy="118.25177"
       rx="64.382668"
       ry="62.513493" /><ellipse
       style="fill:none;stroke:#ffffff;stroke-width:3.81701;stroke-linecap:round;stroke-linejoin:round;stroke-opacity:1;paint-order:fill markers stroke"
       id="path9375-0"
       cx="369.54575"
       cy="97.27549"
       rx="64.382668"
       ry="62.513493" /><ellipse
       style="fill:none;stroke:#ffffff;stroke-width:3.10712;stroke-linecap:round;stroke-linejoin:round;stroke-opacity:1;paint-order:fill markers stroke"
       id="path9375-4"
       cx="241.74329"
       cy="105.23198"
       rx="52.408611"
       ry="50.88707" /><ellipse
       style="fill:none;stroke:#ffffff;stroke-width:3.81701;stroke-linecap:round;stroke-linejoin:round;stroke-opacity:1;paint-order:fill markers stroke"
       id="path9412"
       cx="109.93822"
       cy="118.25179"
       rx="33.645134"
       ry="31.36059" /><path
       style="fill:none;stroke:#ffffff;stroke-width:3.81701;stroke-linecap:round;stroke-linejoin:round;stroke-opacity:1;paint-order:fill markers stroke"
       d="m 50.955389,34.969679 9.761243,14.745703 c 0,0 -33.148286,9.388254 -27.206869,77.051518 5.464473,62.23163 45.483241,75.8054 45.483241,75.8054 l -8.515131,27.20687"
       id="path9520"
       sodipodi:nodetypes="ccscc" /><ellipse
       style="fill:none;stroke:#ffffff;stroke-width:2.7;stroke-linecap:round;stroke-linejoin:round;stroke-dasharray:none;stroke-opacity:1;paint-order:fill markers stroke"
       id="path9556"
       cx="211.49669"
       cy="126.55922"
       rx="9.7612429"
       ry="9.34587" /><ellipse
       style="fill:none;stroke:#ffffff;stroke-width:2.7;stroke-linecap:round;stroke-linejoin:round;stroke-dasharray:none;stroke-opacity:1;paint-order:fill markers stroke"
       id="path9556-5"
       cx="275.46399"
       cy="122.19781"
       rx="9.7612429"
       ry="9.34587" /><path
       id="rect9615"
       style="fill:none;stroke:#ffffff;stroke-width:2.69999;stroke-linecap:round;stroke-linejoin:round;stroke-opacity:1;paint-order:fill markers stroke"
       d="m 197.04684,101.94321 25.11525,-2.00344 1.10142,10.11579 -25.11741,1.85658 c -1.98816,0.14695 -3.2743,-2.48231 -3.41333,-4.91105 -0.13527,-2.36309 0.54502,-4.87486 2.31407,-5.05788 z"
       sodipodi:nodetypes="sccsss" /><path
       id="rect9615-1"
       style="fill:none;stroke:#ffffff;stroke-width:2.7;stroke-linecap:round;stroke-linejoin:round;stroke-dasharray:none;stroke-opacity:1;paint-order:fill markers stroke"
       d="m 225.28979,99.562885 30.98075,-1.95905 1.35865,9.891675 -31.35057,2.25602 c -0.24048,-3.00958 -0.98883,-10.188645 -0.98883,-10.188645 z"
       sodipodi:nodetypes="ccccc" /></g></svg>
