<?xml version="1.0" encoding="UTF-8" standalone="no"?>
<svg
   version="1.1"
   width="1000"
   height="708"
   viewBox="0 0 1000 708"
   xml:space="preserve"
   id="svg177"
   sodipodi:docname="xbox360.svg"
   inkscape:version="1.2.2 (732a01da63, 2022-12-09)"
   xmlns:inkscape="http://www.inkscape.org/namespaces/inkscape"
   xmlns:sodipodi="http://sodipodi.sourceforge.net/DTD/sodipodi-0.dtd"
   xmlns="http://www.w3.org/2000/svg"
   xmlns:svg="http://www.w3.org/2000/svg"><sodipodi:namedview
   id="namedview179"
   pagecolor="#ffffff"
   bordercolor="#111111"
   borderopacity="1"
   inkscape:showpageshadow="0"
   inkscape:pageopacity="0"
   inkscape:pagecheckerboard="1"
   inkscape:deskcolor="#d1d1d1"
   showgrid="false"
   inkscape:zoom="1.14"
   inkscape:cx="500.4386"
   inkscape:cy="626.31579"
   inkscape:window-width="1920"
   inkscape:window-height="1009"
   inkscape:window-x="-8"
   inkscape:window-y="-8"
   inkscape:window-maximized="1"
   inkscape:current-layer="svg177" />
<desc
   id="desc2">Created with Fabric.js 3.5.0</desc>
<defs
   id="defs4">
</defs>
<g
   transform="matrix(2.2315,0,0,2.2315,500.5494,351.3204)"
   id="937113">
<g
   vector-effect="non-scaling-stroke"
   id="g174">
		<g
   transform="translate(-7e-4,5e-4)"
   id="g8">
<path
   style="opacity:1;fill:#f5f1f1;fill-opacity:0;fill-rule:nonzero;stroke:none;stroke-width:1;stroke-linecap:butt;stroke-linejoin:miter;stroke-miterlimit:4;stroke-dasharray:none;stroke-dashoffset:0"
   transform="translate(-255.2627,-178.7955)"
   d="m 427.721,61.417 c -2.42,-6.751 -7.005,-10.316 -7.005,-10.316 -0.256,-8.916 -3.313,-10.444 -3.313,-10.444 -14.901,-11.08 -38.209,-16.812 -48.526,-17.067 -10.317,-0.255 -18.468,-1.019 -20.888,2.931 -2.42,3.947 -5.35,4.584 -5.35,4.584 0,0 -3.662,-0.19 -7.579,2.007 -3.916,2.197 -19.678,10.698 -26.555,13.468 -6.877,2.771 -23.404,3.439 -29.803,3.822 -5.679,0.339 -17.823,0.753 -20.49,0.842 -3.75,-0.089 -20.708,-0.503 -26.386,-0.842 -6.4,-0.383 -22.926,-1.052 -29.804,-3.822 -6.878,-2.77 -22.639,-11.271 -26.556,-13.468 -3.917,-2.197 -7.579,-2.007 -7.579,-2.007 0,0 -2.929,-0.637 -5.349,-4.584 -2.42,-3.949 -10.572,-3.186 -20.888,-2.931 -10.317,0.256 -33.625,5.987 -48.527,17.067 0,0 -3.057,1.528 -3.311,10.444 0,0 -4.586,3.565 -7.005,10.316 -2.42,6.751 -94.412,242.133 -22.163,270.779 20.399,8.087 42.414,-9.935 54.258,-18.723 11.845,-8.789 44.706,-44.706 68.395,-51.967 23.305,-7.141 48.829,-10.213 74.388,-9.947 v 0.014 c 0.211,-0.003 0.42,-0.004 0.631,-0.006 0.211,0.002 0.424,0.003 0.636,0.006 v -0.014 c 25.363,-0.264 44.972,2.808 68.273,9.947 23.691,7.261 56.551,43.178 68.396,51.967 11.845,8.788 33.859,26.81 54.257,18.723 C 522.132,303.55 430.141,68.168 427.721,61.417 Z"
   stroke-linecap="round"
   id="path6" />
</g>
		<g
   id="g12">
<path
   style="opacity:1;fill:#fbfbfb;fill-rule:nonzero;stroke:none;stroke-width:1;stroke-linecap:butt;stroke-linejoin:miter;stroke-miterlimit:4;stroke-dasharray:none;stroke-dashoffset:0"
   transform="translate(-255.2634,-178.7951)"
   d="m 439.042,335.732 c -10e-4,0 -0.002,0 -0.003,0 -16.233,-0.002 -31.773,-11.658 -42.057,-19.371 -0.786,-0.59 -1.537,-1.153 -2.251,-1.683 -3.345,-2.482 -8.355,-7.106 -14.158,-12.461 -14.726,-13.59 -36.98,-34.127 -53.784,-39.276 -22.942,-7.03 -41.735,-9.897 -64.866,-9.897 -0.487,0 -0.977,10e-4 -1.468,0.004 v 0.032 l -2.149,-0.013 -2.118,0.026 v -0.046 c -0.512,-0.003 -1.025,-0.004 -1.537,-0.004 -25.619,0 -49.478,3.33 -70.912,9.897 -16.802,5.149 -39.056,25.686 -53.781,39.275 -5.803,5.354 -10.814,9.979 -14.16,12.462 -0.715,0.53 -1.467,1.094 -2.253,1.685 -10.282,7.713 -25.82,19.369 -42.055,19.369 -3.977,0 -7.812,-0.721 -11.396,-2.142 C 30.189,321.732 23.664,275.235 40.699,195.39 52.049,142.195 70.677,89.348 80.771,62.58 c 0.324,-0.857 0.537,-1.422 0.626,-1.671 2.059,-5.746 5.581,-9.304 6.942,-10.524 0.373,-8.215 3.106,-10.479 3.967,-10.991 14.655,-10.857 38.037,-17.026 49.308,-17.307 1.159,-0.028 2.291,-0.063 3.39,-0.098 9.247,-0.284 16.217,-0.491 18.813,3.744 1.751,2.857 3.722,3.683 4.266,3.864 0.921,0.011 4.43,0.134 8.117,2.202 3.845,2.157 19.579,10.646 26.382,13.385 5.993,2.414 20.343,3.214 27.24,3.598 l 2.093,0.119 c 5.703,0.34 22.936,0.759 26.333,0.839 2.325,-0.079 14.638,-0.497 20.365,-0.839 l 2.094,-0.119 c 6.896,-0.385 21.246,-1.184 27.238,-3.598 6.809,-2.741 22.538,-11.228 26.382,-13.385 3.693,-2.071 7.222,-2.222 8.121,-2.202 0.518,-0.172 2.5,-0.99 4.262,-3.864 2.596,-4.235 9.568,-4.028 18.813,-3.744 1.1,0.034 2.231,0.069 3.39,0.098 11.271,0.28 34.653,6.448 49.307,17.307 0.862,0.513 3.595,2.778 3.969,10.991 1.361,1.221 4.883,4.778 6.942,10.524 0.089,0.249 0.303,0.815 0.627,1.675 10.095,26.771 28.725,79.623 40.072,132.815 17.032,79.839 10.507,126.333 -19.397,138.189 -3.583,1.424 -7.416,2.144 -11.391,2.144 z M 261.923,250.044 c 23.45,0 42.497,2.905 65.745,10.028 17.457,5.351 39.122,25.343 54.94,39.941 5.739,5.296 10.695,9.869 13.911,12.256 0.718,0.532 1.474,1.1 2.264,1.692 9.964,7.474 25.023,18.77 40.256,18.771 0.001,0 0.002,0 0.004,0 3.594,0 7.055,-0.649 10.286,-1.931 15.357,-6.089 24.179,-22.658 26.22,-49.247 1.686,-21.945 -1.226,-50.722 -8.65,-85.527 -11.308,-53 -29.881,-105.691 -39.945,-132.383 -0.333,-0.884 -0.553,-1.465 -0.645,-1.722 -2.23,-6.223 -6.474,-9.606 -6.517,-9.641 l -0.553,-0.434 -0.022,-0.705 c -0.218,-7.591 -2.53,-9.168 -2.554,-9.184 l -0.155,-0.1 C 402.357,31.335 379.732,25.356 368.841,25.087 c -1.166,-0.029 -2.303,-0.064 -3.409,-0.099 -2.197,-0.068 -4.272,-0.133 -6.159,-0.133 -4.206,0 -8.684,0.291 -10.004,2.446 -2.724,4.441 -6.165,5.234 -6.31,5.266 l -0.196,0.043 -0.352,-0.013 c -0.791,0 -3.606,0.131 -6.616,1.819 -3.88,2.177 -19.784,10.754 -26.729,13.551 -6.452,2.599 -20.594,3.387 -28.192,3.81 l -2.082,0.118 c -5.765,0.345 -18.113,0.764 -20.53,0.844 -3.491,-0.08 -20.771,-0.5 -26.525,-0.844 l -2.081,-0.118 c -7.598,-0.423 -21.742,-1.211 -28.194,-3.81 -6.939,-2.794 -22.847,-11.373 -26.729,-13.551 -3.009,-1.688 -5.825,-1.819 -6.616,-1.819 l -0.352,0.011 -0.196,-0.041 c -0.145,-0.031 -3.586,-0.824 -6.309,-5.266 -1.321,-2.155 -5.799,-2.446 -10.005,-2.446 -1.886,0 -3.961,0.064 -6.158,0.133 -1.105,0.034 -2.243,0.069 -3.409,0.099 -10.892,0.27 -33.517,6.248 -47.669,16.771 l -0.224,0.138 v 0 c 0.013,0 -2.268,1.608 -2.483,9.146 l -0.021,0.707 -0.558,0.435 c -0.04,0.031 -4.284,3.415 -6.514,9.638 -0.092,0.256 -0.311,0.837 -0.643,1.718 -10.064,26.688 -28.636,79.374 -39.945,132.377 -7.427,34.809 -10.338,63.586 -8.654,85.533 2.041,26.591 10.862,43.162 26.22,49.251 3.232,1.281 6.694,1.931 10.291,1.931 15.234,0 30.291,-11.295 40.254,-18.77 0.791,-0.593 1.547,-1.16 2.267,-1.694 3.216,-2.386 8.173,-6.96 13.912,-12.257 15.818,-14.598 37.481,-34.589 54.937,-39.939 21.719,-6.654 45.873,-10.028 71.791,-10.028 1.018,0 2.035,0.005 3.053,0.016 l 0.808,0.009 0.428,-0.009 c 1.003,-0.011 2,-0.016 2.985,-0.016 z"
   stroke-linecap="round"
   id="path10" />
</g>
		<g
   transform="translate(82.3961,-76.7051)"
   id="g16">
<path
   style="opacity:1;fill:#f5f1f1;fill-opacity:0;fill-rule:nonzero;stroke:none;stroke-width:1;stroke-linecap:butt;stroke-linejoin:miter;stroke-miterlimit:4;stroke-dasharray:none;stroke-dashoffset:0"
   transform="translate(-337.6595,-102.09)"
   d="m 352.523,102.087 c 0,8.209 -6.66,14.865 -14.864,14.865 -8.211,0 -14.863,-6.656 -14.863,-14.865 0,-8.207 6.652,-14.859 14.863,-14.859 8.204,0 14.864,6.652 14.864,14.859 z"
   stroke-linecap="round"
   id="path14" />
</g>
		<g
   transform="translate(82.3941,-76.7051)"
   id="g20">
<path
   style="opacity:1;fill:#fbfbfb;fill-rule:nonzero;stroke:none;stroke-width:1;stroke-linecap:butt;stroke-linejoin:miter;stroke-miterlimit:4;stroke-dasharray:none;stroke-dashoffset:0"
   transform="translate(-337.6575,-102.09)"
   d="m 337.659,118.368 c -8.979,0 -16.279,-7.303 -16.279,-16.281 0,-8.975 7.301,-16.275 16.279,-16.275 8.971,0 16.276,7.301 16.276,16.275 0,8.978 -7.306,16.281 -16.276,16.281 z m 0,-29.724 c -7.412,0 -13.447,6.031 -13.447,13.443 0,7.418 6.035,13.449 13.447,13.449 7.413,0 13.444,-6.031 13.444,-13.449 0,-7.412 -6.031,-13.443 -13.444,-13.443 z"
   stroke-linecap="round"
   id="path18" />
</g>
		<g
   transform="translate(82.4586,-76.4751)"
   id="g24">
<path
   style="opacity:1;fill:#fbfbfb;fill-rule:nonzero;stroke:none;stroke-width:1;stroke-linecap:butt;stroke-linejoin:miter;stroke-miterlimit:4;stroke-dasharray:none;stroke-dashoffset:0"
   transform="translate(-337.722,-102.32)"
   d="m 346.59,111.81 h -4.601 l -4.41,-7.178 -4.414,7.178 h -4.311 l 6.297,-9.789 -5.901,-9.191 h 4.445 l 4.09,6.826 4.011,-6.826 h 4.339 l -5.961,9.412 z"
   stroke-linecap="round"
   id="path22" />
</g>
		<g
   transform="translate(117.1206,-110.9621)"
   id="g28">
<path
   style="opacity:1;fill:#f5f1f1;fill-opacity:0;fill-rule:nonzero;stroke:none;stroke-width:1;stroke-linecap:butt;stroke-linejoin:miter;stroke-miterlimit:4;stroke-dasharray:none;stroke-dashoffset:0"
   transform="translate(-372.384,-67.833)"
   d="m 387.244,67.835 c 0,8.203 -6.661,14.859 -14.86,14.859 -8.211,0 -14.86,-6.656 -14.86,-14.859 0,-8.207 6.649,-14.863 14.86,-14.863 8.199,0 14.86,6.656 14.86,14.863 z"
   stroke-linecap="round"
   id="path26" />
</g>
		<g
   transform="translate(117.1176,-110.9621)"
   id="g32">
<path
   style="opacity:1;fill:#fbfbfb;fill-rule:nonzero;stroke:none;stroke-width:1;stroke-linecap:butt;stroke-linejoin:miter;stroke-miterlimit:4;stroke-dasharray:none;stroke-dashoffset:0"
   transform="translate(-372.381,-67.833)"
   d="m 372.383,84.11 c -8.982,0 -16.28,-7.301 -16.28,-16.275 0,-8.979 7.298,-16.279 16.28,-16.279 8.975,0 16.276,7.301 16.276,16.279 0.001,8.975 -7.301,16.275 -16.276,16.275 z m 0,-29.722 c -7.416,0 -13.448,6.031 -13.448,13.447 0,7.412 6.032,13.443 13.448,13.443 7.408,0 13.444,-6.031 13.444,-13.443 10e-4,-7.416 -6.035,-13.447 -13.444,-13.447 z"
   stroke-linecap="round"
   id="path30" />
</g>
		<g
   transform="translate(152.3726,-76.7051)"
   id="g36">
<path
   style="opacity:1;fill:#f5f1f1;fill-opacity:0;fill-rule:nonzero;stroke:none;stroke-width:1;stroke-linecap:butt;stroke-linejoin:miter;stroke-miterlimit:4;stroke-dasharray:none;stroke-dashoffset:0"
   transform="translate(-407.636,-102.09)"
   d="m 422.5,102.087 c 0,8.209 -6.656,14.865 -14.863,14.865 -8.212,0 -14.865,-6.656 -14.865,-14.865 0,-8.207 6.652,-14.859 14.865,-14.859 8.207,0 14.863,6.652 14.863,14.859 z"
   stroke-linecap="round"
   id="path34" />
</g>
		<g
   transform="translate(152.3726,-76.7051)"
   id="g40">
<path
   style="opacity:1;fill:#fbfbfb;fill-rule:nonzero;stroke:none;stroke-width:1;stroke-linecap:butt;stroke-linejoin:miter;stroke-miterlimit:4;stroke-dasharray:none;stroke-dashoffset:0"
   transform="translate(-407.636,-102.09)"
   d="m 407.637,118.368 c -8.979,0 -16.281,-7.303 -16.281,-16.281 0,-8.975 7.302,-16.275 16.281,-16.275 8.971,0 16.279,7.301 16.279,16.275 0,8.978 -7.309,16.281 -16.279,16.281 z m 0,-29.724 c -7.414,0 -13.449,6.031 -13.449,13.443 0,7.418 6.035,13.449 13.449,13.449 7.412,0 13.447,-6.031 13.447,-13.449 0,-7.412 -6.035,-13.443 -13.447,-13.443 z"
   stroke-linecap="round"
   id="path38" />
</g>
		<g
   transform="translate(117.1591,-109.4466)"
   id="g44">
<path
   style="opacity:1;fill:#fbfbfb;fill-rule:nonzero;stroke:none;stroke-width:1;stroke-linecap:butt;stroke-linejoin:miter;stroke-miterlimit:4;stroke-dasharray:none;stroke-dashoffset:0"
   transform="translate(-372.4225,-69.3485)"
   d="m 372.422,67.673 3.96,-7.82 h 4.335 l -6.293,11.598 v 7.393 h -3.999 v -7.262 l -6.297,-11.729 h 4.358 z"
   stroke-linecap="round"
   id="path42" />
</g>
		<g
   transform="translate(117.1206,-42.1191)"
   id="g48">
<path
   style="opacity:1;fill:#f5f1f1;fill-opacity:0;fill-rule:nonzero;stroke:none;stroke-width:1;stroke-linecap:butt;stroke-linejoin:miter;stroke-miterlimit:4;stroke-dasharray:none;stroke-dashoffset:0"
   transform="translate(-372.384,-136.676)"
   d="m 387.244,136.675 c 0,8.207 -6.661,14.863 -14.86,14.863 -8.211,0 -14.86,-6.656 -14.86,-14.863 0,-8.209 6.649,-14.861 14.86,-14.861 8.199,-10e-4 14.86,6.652 14.86,14.861 z"
   stroke-linecap="round"
   id="path46" />
</g>
		<g
   transform="translate(117.1176,-42.1231)"
   id="g52">
<path
   style="opacity:1;fill:#fbfbfb;fill-rule:nonzero;stroke:none;stroke-width:1;stroke-linecap:butt;stroke-linejoin:miter;stroke-miterlimit:4;stroke-dasharray:none;stroke-dashoffset:0"
   transform="translate(-372.381,-136.672)"
   d="m 372.383,152.95 c -8.982,0 -16.28,-7.301 -16.28,-16.275 0,-8.974 7.298,-16.281 16.28,-16.281 8.975,0 16.276,7.307 16.276,16.281 0,8.974 -7.301,16.275 -16.276,16.275 z m 0,-29.721 c -7.416,0 -13.448,6.031 -13.448,13.445 0,7.416 6.032,13.447 13.448,13.447 7.408,0 13.444,-6.031 13.444,-13.447 10e-4,-7.413 -6.035,-13.445 -13.444,-13.445 z"
   stroke-linecap="round"
   id="path50" />
</g>
		<g
   transform="translate(153.5071,-76.6581)"
   id="g56">
<path
   style="opacity:1;fill:#fbfbfb;fill-rule:nonzero;stroke:none;stroke-width:1;stroke-linecap:butt;stroke-linejoin:miter;stroke-miterlimit:4;stroke-dasharray:none;stroke-dashoffset:0"
   transform="translate(-408.7705,-102.137)"
   d="m 401.735,92.647 h 5.91 c 2.689,0 4.644,0.379 5.861,1.146 1.219,0.764 1.823,1.98 1.823,3.654 0,1.135 -0.265,2.064 -0.803,2.793 -0.53,0.727 -1.234,1.162 -2.12,1.309 v 0.127 c 1.202,0.273 2.073,0.771 2.606,1.506 0.53,0.74 0.795,1.717 0.795,2.939 0,1.729 -0.625,3.082 -1.878,4.051 -1.25,0.965 -2.947,1.455 -5.091,1.455 h -7.104 v -18.98 z m 4.026,7.514 h 2.333 c 1.092,0 1.883,-0.17 2.374,-0.51 0.49,-0.332 0.728,-0.891 0.728,-1.67 0,-0.727 -0.261,-1.25 -0.799,-1.566 -0.53,-0.316 -1.369,-0.475 -2.52,-0.475 h -2.117 v 4.221 z m 0,3.192 v 4.949 h 2.619 c 1.107,0 1.922,-0.209 2.452,-0.637 0.53,-0.424 0.795,-1.076 0.795,-1.945 0,-1.574 -1.127,-2.367 -3.374,-2.367 z"
   stroke-linecap="round"
   id="path54" />
</g>
		<g
   transform="translate(116.8991,-43.5801)"
   id="g60">
<path
   style="opacity:1;fill:#fbfbfb;fill-rule:nonzero;stroke:none;stroke-width:1;stroke-linecap:butt;stroke-linejoin:miter;stroke-miterlimit:4;stroke-dasharray:none;stroke-dashoffset:0"
   transform="translate(-372.1625,-135.215)"
   d="m 376.999,144.747 -1.376,-4.521 h -6.922 l -1.368,4.521 h -4.343 l 6.7,-19.064 h 4.92 l 6.725,19.064 z m -2.333,-7.894 c -1.273,-4.098 -1.993,-6.412 -2.151,-6.945 -0.158,-0.539 -0.277,-0.967 -0.345,-1.273 -0.288,1.111 -1.104,3.844 -2.456,8.219 h 4.952 z"
   stroke-linecap="round"
   id="path58" />
</g>
		<g
   transform="translate(-45.0174,-90.4591)"
   id="g64">
<circle
   style="opacity:1;fill:#f5f1f1;fill-opacity:0;fill-rule:nonzero;stroke:none;stroke-width:1;stroke-linecap:butt;stroke-linejoin:miter;stroke-miterlimit:4;stroke-dasharray:none;stroke-dashoffset:0"
   cx="0"
   cy="0"
   r="9.3470001"
   id="circle62" />
</g>
		<g
   transform="translate(-45.0179,-90.4596)"
   id="g68">
<path
   style="opacity:1;fill:#fbfbfb;fill-rule:nonzero;stroke:none;stroke-width:1;stroke-linecap:butt;stroke-linejoin:miter;stroke-miterlimit:4;stroke-dasharray:none;stroke-dashoffset:0"
   transform="translate(-210.2455,-88.3355)"
   d="m 210.246,98.682 c -5.706,0 -10.347,-4.641 -10.347,-10.346 0,-5.705 4.642,-10.347 10.347,-10.347 5.705,0 10.346,4.642 10.346,10.347 0,5.705 -4.641,10.346 -10.346,10.346 z m 0,-18.693 c -4.603,0 -8.347,3.744 -8.347,8.347 0,4.602 3.745,8.346 8.347,8.346 4.602,0 8.346,-3.744 8.346,-8.346 0,-4.603 -3.744,-8.347 -8.346,-8.347 z"
   stroke-linecap="round"
   id="path66" />
</g>
		<g
   transform="translate(-46.4029,-90.4596)"
   id="g72">
<polygon
   style="opacity:1;fill:#fbfbfb;fill-rule:nonzero;stroke:none;stroke-width:1;stroke-linecap:butt;stroke-linejoin:miter;stroke-miterlimit:4;stroke-dasharray:none;stroke-dashoffset:0"
   points="-4.8465,0.0005 -0.0005,-2.7995 4.8465,-5.5965 4.8465,0.0005 4.8465,5.5965 -0.0005,2.7975 "
   id="polygon70" />
</g>
		<g
   transform="translate(41.8886,-90.4591)"
   id="g76">
<circle
   style="opacity:1;fill:#f5f1f1;fill-opacity:0;fill-rule:nonzero;stroke:none;stroke-width:1;stroke-linecap:butt;stroke-linejoin:miter;stroke-miterlimit:4;stroke-dasharray:none;stroke-dashoffset:0"
   cx="0"
   cy="0"
   r="9.3470001"
   id="circle74" />
</g>
		<g
   transform="translate(41.8891,-90.4596)"
   id="g80">
<path
   style="opacity:1;fill:#fbfbfb;fill-rule:nonzero;stroke:none;stroke-width:1;stroke-linecap:butt;stroke-linejoin:miter;stroke-miterlimit:4;stroke-dasharray:none;stroke-dashoffset:0"
   transform="translate(-297.1525,-88.3355)"
   d="m 297.152,98.682 c -5.705,0 -10.346,-4.641 -10.346,-10.346 0,-5.705 4.641,-10.347 10.346,-10.347 5.706,0 10.347,4.642 10.347,10.347 0,5.705 -4.642,10.346 -10.347,10.346 z m 0,-18.693 c -4.602,0 -8.346,3.744 -8.346,8.347 0,4.602 3.744,8.346 8.346,8.346 4.603,0 8.347,-3.744 8.347,-8.346 0,-4.603 -3.745,-8.347 -8.347,-8.347 z"
   stroke-linecap="round"
   id="path78" />
</g>
		<g
   transform="translate(43.2741,-90.4596)"
   id="g84">
<polygon
   style="opacity:1;fill:#fbfbfb;fill-rule:nonzero;stroke:none;stroke-width:1;stroke-linecap:butt;stroke-linejoin:miter;stroke-miterlimit:4;stroke-dasharray:none;stroke-dashoffset:0"
   points="4.8465,0.0005 0.0005,-2.7995 -4.8465,-5.5965 -4.8465,0.0005 -4.8465,5.5965 0.0005,2.7975 "
   id="polygon82" />
</g>
		<g
   transform="translate(-1.3889,-90.4576)"
   id="g88">
<path
   style="opacity:1;fill:#f5f1f1;fill-opacity:0;fill-rule:nonzero;stroke:none;stroke-width:1;stroke-linecap:butt;stroke-linejoin:miter;stroke-miterlimit:4;stroke-dasharray:none;stroke-dashoffset:0"
   transform="translate(-253.8745,-88.3375)"
   d="m 275.646,88.337 c 0,12.026 -9.742,21.778 -21.772,21.778 -12.02,0 -21.771,-9.752 -21.771,-21.778 0,-12.025 9.751,-21.777 21.771,-21.777 12.029,0 21.772,9.752 21.772,21.777 z"
   stroke-linecap="round"
   id="path86" />
</g>
		<g
   transform="translate(-1.3899,-90.4596)"
   id="g92">
<path
   style="opacity:1;fill:#fbfbfb;fill-rule:nonzero;stroke:none;stroke-width:1;stroke-linecap:butt;stroke-linejoin:miter;stroke-miterlimit:4;stroke-dasharray:none;stroke-dashoffset:0"
   transform="translate(-253.8735,-88.3355)"
   d="m 253.873,111.947 c -13.015,0 -23.609,-10.594 -23.609,-23.61 0,-13.015 10.594,-23.613 23.609,-23.613 13.022,0 23.61,10.599 23.61,23.613 0,13.017 -10.587,23.61 -23.61,23.61 z m 0,-43.545 c -10.994,0 -19.933,8.941 -19.933,19.935 0,10.994 8.939,19.936 19.933,19.936 10.995,0 19.934,-8.941 19.934,-19.936 0,-10.993 -8.939,-19.935 -19.934,-19.935 z"
   stroke-linecap="round"
   id="path90" />
</g>
		<g
   transform="translate(0.4051,-91.9735)"
   id="g96">
<path
   style="opacity:1;fill:#fbfbfb;fill-rule:nonzero;stroke:none;stroke-width:1;stroke-linecap:butt;stroke-linejoin:miter;stroke-miterlimit:4;stroke-dasharray:none;stroke-dashoffset:0"
   transform="translate(-255.6685,-86.8216)"
   d="m 239.23,71.796 c 0,0 0.733,-0.093 2.038,-0.041 0.636,0.062 1.436,0.077 2.319,0.262 0.902,0.127 1.899,0.363 2.987,0.672 1.063,0.329 2.239,0.692 3.407,1.227 1.181,0.522 2.434,1.083 3.625,1.839 1.241,0.687 2.433,1.543 3.644,2.41 1.18,0.904 2.299,1.93 3.418,2.942 1.026,1.113 2.125,2.17 3.044,3.34 0.909,1.171 1.791,2.353 2.571,3.521 0.769,1.19 1.437,2.386 2.073,3.502 0.605,1.144 1.064,2.278 1.519,3.305 0.954,2.027 1.365,3.891 1.746,5.132 0.338,1.272 0.486,1.997 0.486,1.997 0,0 -0.477,-0.585 -1.235,-1.632 -0.381,-0.519 -0.854,-1.151 -1.335,-1.884 -0.473,-0.75 -1.088,-1.53 -1.741,-2.397 -0.657,-0.856 -1.329,-1.807 -2.047,-2.793 -0.781,-0.938 -1.611,-1.923 -2.403,-2.976 -0.811,-1.031 -1.796,-1.986 -2.668,-3.055 -0.914,-1.01 -1.931,-1.97 -2.885,-2.986 -1.012,-0.934 -2.023,-1.889 -3.049,-2.788 -1.078,-0.826 -2.042,-1.785 -3.121,-2.505 -1.047,-0.779 -2.073,-1.512 -3.079,-2.165 -0.997,-0.658 -1.971,-1.241 -2.884,-1.786 -1.828,-1.051 -3.436,-1.832 -4.578,-2.366 -1.159,-0.512 -1.852,-0.775 -1.852,-0.775 z"
   stroke-linecap="round"
   id="path94" />
</g>
		<g
   transform="translate(-2.9554,-91.9749)"
   id="g100">
<path
   style="opacity:1;fill:#fbfbfb;fill-rule:nonzero;stroke:none;stroke-width:1;stroke-linecap:butt;stroke-linejoin:miter;stroke-miterlimit:4;stroke-dasharray:none;stroke-dashoffset:0"
   transform="translate(-252.308,-86.8201)"
   d="m 268.748,71.796 c 0,0 -0.698,0.263 -1.848,0.774 -1.149,0.534 -2.75,1.315 -4.588,2.366 -0.904,0.545 -1.888,1.128 -2.883,1.786 -1.007,0.653 -2.033,1.386 -3.07,2.165 -1.079,0.72 -2.047,1.679 -3.121,2.505 -1.026,0.899 -2.043,1.854 -3.059,2.788 -0.954,1.017 -1.961,1.972 -2.885,2.986 -0.871,1.068 -1.847,2.023 -2.668,3.049 -0.792,1.059 -1.622,2.044 -2.399,2.981 -0.722,0.986 -1.389,1.937 -2.047,2.793 -0.646,0.867 -1.271,1.647 -1.744,2.397 -0.483,0.732 -0.955,1.365 -1.326,1.884 -0.77,1.047 -1.242,1.632 -1.242,1.632 0,0 0.155,-0.725 0.493,-1.997 0.38,-1.241 0.78,-3.104 1.739,-5.132 0.447,-1.026 0.909,-2.168 1.521,-3.305 0.64,-1.116 1.309,-2.312 2.068,-3.502 0.786,-1.169 1.664,-2.351 2.576,-3.521 0.92,-1.17 2.013,-2.227 3.04,-3.34 1.129,-1.013 2.237,-2.038 3.429,-2.942 1.205,-0.867 2.392,-1.724 3.633,-2.41 1.196,-0.756 2.444,-1.316 3.63,-1.839 1.174,-0.534 2.346,-0.897 3.412,-1.227 1.079,-0.309 2.074,-0.545 2.972,-0.672 0.889,-0.185 1.699,-0.2 2.335,-0.262 1.304,-0.05 2.032,0.043 2.032,0.043 z"
   stroke-linecap="round"
   id="path98" />
</g>
		<g
   transform="translate(-124.2084,-76.5431)"
   id="g104">
<circle
   style="opacity:1;fill:#f5f1f1;fill-opacity:0;fill-rule:nonzero;stroke:none;stroke-width:1;stroke-linecap:butt;stroke-linejoin:miter;stroke-miterlimit:4;stroke-dasharray:none;stroke-dashoffset:0"
   cx="0"
   cy="0"
   r="37.834999"
   id="circle102" />
</g>
		<g
   transform="translate(-124.2084,-76.5426)"
   id="g108">
<path
   style="opacity:1;fill:#fbfbfb;fill-rule:nonzero;stroke:none;stroke-width:1;stroke-linecap:butt;stroke-linejoin:miter;stroke-miterlimit:4;stroke-dasharray:none;stroke-dashoffset:0"
   transform="translate(-131.055,-102.2525)"
   d="m 131.055,141.588 c -21.689,0 -39.335,-17.646 -39.335,-39.336 0,-21.69 17.646,-39.335 39.335,-39.335 21.689,0 39.335,17.646 39.335,39.335 0,21.689 -17.646,39.336 -39.335,39.336 z m 0,-75.671 c -20.036,0 -36.335,16.3 -36.335,36.335 0,20.036 16.3,36.336 36.335,36.336 20.035,0 36.335,-16.3 36.335,-36.336 0,-20.035 -16.3,-36.335 -36.335,-36.335 z"
   stroke-linecap="round"
   id="path106" />
</g>
		<g
   transform="translate(-124.2084,-76.5431)"
   id="g112">
<circle
   style="opacity:1;fill:#f5f1f1;fill-opacity:0;fill-rule:nonzero;stroke:none;stroke-width:1;stroke-linecap:butt;stroke-linejoin:miter;stroke-miterlimit:4;stroke-dasharray:none;stroke-dashoffset:0"
   cx="0"
   cy="0"
   r="23.686001"
   id="circle110" />
</g>
		<g
   transform="translate(-124.2084,-76.5426)"
   id="g116">
<path
   style="opacity:1;fill:#fbfbfb;fill-rule:nonzero;stroke:none;stroke-width:1;stroke-linecap:butt;stroke-linejoin:miter;stroke-miterlimit:4;stroke-dasharray:none;stroke-dashoffset:0"
   transform="translate(-131.055,-102.2525)"
   d="m 131.055,127.438 c -13.887,0 -25.186,-11.298 -25.186,-25.186 0,-13.887 11.298,-25.185 25.186,-25.185 13.888,0 25.186,11.298 25.186,25.185 -0.001,13.888 -11.299,25.186 -25.186,25.186 z m 0,-47.371 c -12.233,0 -22.186,9.952 -22.186,22.185 0,12.233 9.953,22.186 22.186,22.186 12.233,0 22.186,-9.952 22.186,-22.186 C 153.24,90.02 143.288,80.067 131.055,80.067 Z"
   stroke-linecap="round"
   id="path114" />
</g>
		<g
   transform="translate(-127.4514,-78.7051)"
   id="g120">
<circle
   style="opacity:1;fill:#f5f1f1;fill-opacity:0;fill-rule:nonzero;stroke:none;stroke-width:1;stroke-linecap:butt;stroke-linejoin:miter;stroke-miterlimit:4;stroke-dasharray:none;stroke-dashoffset:0"
   cx="0"
   cy="0"
   r="22.063999"
   id="circle118" />
</g>
		<g
   transform="translate(-127.4509,-78.7046)"
   id="g124">
<path
   style="opacity:1;fill:#fbfbfb;fill-rule:nonzero;stroke:none;stroke-width:1;stroke-linecap:butt;stroke-linejoin:miter;stroke-miterlimit:4;stroke-dasharray:none;stroke-dashoffset:0"
   transform="translate(-127.8125,-100.0905)"
   d="m 127.812,123.654 c -12.993,0 -23.563,-10.571 -23.563,-23.564 0,-12.993 10.57,-23.563 23.563,-23.563 12.993,0 23.564,10.57 23.564,23.563 0,12.993 -10.571,23.564 -23.564,23.564 z m 0,-44.128 c -11.339,0 -20.563,9.225 -20.563,20.563 0,11.338 9.225,20.564 20.563,20.564 11.338,0 20.564,-9.226 20.564,-20.564 0,-11.338 -9.226,-20.563 -20.564,-20.563 z"
   stroke-linecap="round"
   id="path122" />
</g>
		<g
   transform="translate(55.0626,11.0329)"
   id="g128">
<circle
   style="opacity:1;fill:#f5f1f1;fill-opacity:0;fill-rule:nonzero;stroke:none;stroke-width:1;stroke-linecap:butt;stroke-linejoin:miter;stroke-miterlimit:4;stroke-dasharray:none;stroke-dashoffset:0"
   cx="0"
   cy="0"
   r="42.609001"
   id="circle126" />
</g>
		<g
   transform="translate(55.0611,11.0324)"
   id="g132">
<path
   style="opacity:1;fill:#fbfbfb;fill-rule:nonzero;stroke:none;stroke-width:1;stroke-linecap:butt;stroke-linejoin:miter;stroke-miterlimit:4;stroke-dasharray:none;stroke-dashoffset:0"
   transform="translate(-310.3245,-189.8275)"
   d="m 310.315,233.949 c -19.152,0 -36.005,-12.246 -41.936,-30.473 -3.646,-11.204 -2.71,-23.157 2.634,-33.657 5.345,-10.501 14.458,-18.291 25.664,-21.937 4.438,-1.443 9.032,-2.176 13.657,-2.176 19.153,0 36.006,12.246 41.936,30.473 3.646,11.203 2.71,23.156 -2.634,33.657 -5.345,10.5 -14.458,18.29 -25.661,21.936 -4.439,1.445 -9.035,2.177 -13.66,2.177 z m 0.019,-85.242 c -4.309,0 -8.591,0.683 -12.729,2.029 -10.443,3.396 -18.937,10.657 -23.918,20.443 -4.981,9.786 -5.853,20.927 -2.455,31.369 5.528,16.987 21.234,28.4 39.083,28.4 4.31,0 8.593,-0.683 12.731,-2.03 10.441,-3.396 18.935,-10.657 23.916,-20.443 4.981,-9.786 5.854,-20.926 2.456,-31.368 -5.528,-16.987 -21.234,-28.4 -39.084,-28.4 z"
   stroke-linecap="round"
   id="path130" />
</g>
		<g
   transform="translate(-53.9374,11.0329)"
   id="g136">
<circle
   style="opacity:1;fill:#f5f1f1;fill-opacity:0;fill-rule:nonzero;stroke:none;stroke-width:1;stroke-linecap:butt;stroke-linejoin:miter;stroke-miterlimit:4;stroke-dasharray:none;stroke-dashoffset:0"
   cx="0"
   cy="0"
   r="42.609001"
   id="circle134" />
</g>
		<g
   transform="translate(-53.9389,11.0324)"
   id="g140">
<path
   style="opacity:1;fill:#fbfbfb;fill-rule:nonzero;stroke:none;stroke-width:1;stroke-linecap:butt;stroke-linejoin:miter;stroke-miterlimit:4;stroke-dasharray:none;stroke-dashoffset:0"
   transform="translate(-201.3245,-189.8275)"
   d="m 201.315,233.949 c -19.152,0 -36.005,-12.246 -41.936,-30.473 -3.646,-11.204 -2.71,-23.157 2.634,-33.657 5.345,-10.501 14.458,-18.291 25.664,-21.937 4.438,-1.443 9.032,-2.176 13.657,-2.176 19.153,0 36.006,12.246 41.936,30.473 3.646,11.203 2.71,23.156 -2.634,33.657 -5.345,10.5 -14.458,18.29 -25.661,21.936 -4.439,1.445 -9.035,2.177 -13.66,2.177 z m 0.019,-85.242 c -4.309,0 -8.591,0.683 -12.729,2.029 -10.443,3.396 -18.937,10.657 -23.918,20.443 -4.981,9.786 -5.853,20.927 -2.455,31.369 5.528,16.987 21.234,28.4 39.083,28.4 4.31,0 8.593,-0.683 12.731,-2.03 10.441,-3.396 18.935,-10.657 23.916,-20.443 4.981,-9.786 5.854,-20.926 2.456,-31.368 -5.528,-16.987 -21.234,-28.4 -39.084,-28.4 z"
   stroke-linecap="round"
   id="path138" />
</g>
		<g
   transform="translate(-53.9374,11.0329)"
   id="g144">
<circle
   style="opacity:1;fill:#f5f1f1;fill-opacity:0;fill-rule:nonzero;stroke:none;stroke-width:1;stroke-linecap:butt;stroke-linejoin:miter;stroke-miterlimit:4;stroke-dasharray:none;stroke-dashoffset:0"
   cx="0"
   cy="0"
   r="31.794001"
   id="circle142" />
</g>
		<g
   transform="translate(-53.9389,11.0324)"
   id="g148">
<path
   style="opacity:1;fill:#fbfbfb;fill-rule:nonzero;stroke:none;stroke-width:1;stroke-linecap:butt;stroke-linejoin:miter;stroke-miterlimit:4;stroke-dasharray:none;stroke-dashoffset:0"
   transform="translate(-201.3245,-189.8275)"
   d="m 201.317,223.131 c -14.457,0 -27.177,-9.243 -31.654,-23.001 -2.752,-8.457 -2.045,-17.479 1.988,-25.405 4.034,-7.926 10.914,-13.806 19.372,-16.558 3.349,-1.09 6.818,-1.643 10.309,-1.643 14.457,0 27.178,9.244 31.654,23.002 2.752,8.456 2.045,17.479 -1.989,25.404 -4.034,7.925 -10.913,13.806 -19.369,16.558 -3.35,1.09 -6.819,1.643 -10.311,1.643 z m 0.015,-63.607 c -3.175,0 -6.331,0.503 -9.38,1.496 -7.696,2.503 -13.956,7.854 -17.626,15.065 -3.671,7.211 -4.313,15.421 -1.81,23.116 4.074,12.519 15.648,20.929 28.801,20.929 3.176,0 6.333,-0.503 9.382,-1.496 7.694,-2.503 13.953,-7.854 17.624,-15.064 3.67,-7.212 4.313,-15.421 1.81,-23.116 -4.073,-12.518 -15.647,-20.93 -28.801,-20.93 z"
   stroke-linecap="round"
   id="path146" />
</g>
		<g
   transform="translate(55.0626,11.0319)"
   id="g152">
<circle
   style="opacity:1;fill:#f5f1f1;fill-opacity:0;fill-rule:nonzero;stroke:none;stroke-width:1;stroke-linecap:butt;stroke-linejoin:miter;stroke-miterlimit:4;stroke-dasharray:none;stroke-dashoffset:0"
   cx="0"
   cy="0"
   r="26.674"
   id="circle150" />
</g>
		<g
   transform="translate(55.0665,11.0324)"
   id="g156">
<path
   style="opacity:1;fill:#fbfbfb;fill-rule:nonzero;stroke:none;stroke-width:1;stroke-linecap:butt;stroke-linejoin:miter;stroke-miterlimit:4;stroke-dasharray:none;stroke-dashoffset:0"
   transform="translate(-310.3299,-189.8275)"
   d="m 310.319,218.009 c -12.234,0 -22.999,-7.821 -26.787,-19.463 -4.807,-14.772 3.302,-30.702 18.075,-35.511 2.834,-0.922 5.768,-1.389 8.721,-1.389 12.234,0 23,7.821 26.788,19.464 2.329,7.156 1.731,14.791 -1.683,21.497 -3.414,6.707 -9.235,11.683 -16.391,14.012 -2.833,0.922 -5.769,1.39 -8.723,1.39 z m 0.01,-53.363 c -2.638,0 -5.259,0.418 -7.793,1.242 -13.2,4.296 -20.446,18.53 -16.151,31.729 3.385,10.401 13.003,17.391 23.934,17.391 2.639,0 5.262,-0.418 7.796,-1.243 6.394,-2.08 11.595,-6.526 14.645,-12.519 3.05,-5.993 3.584,-12.814 1.504,-19.209 -3.385,-10.401 -13.004,-17.391 -23.935,-17.391 z"
   stroke-linecap="round"
   id="path154" />
</g>
		<g
   transform="translate(56.2476,6.8059)"
   id="g160">
<circle
   style="opacity:1;fill:#f5f1f1;fill-opacity:0;fill-rule:nonzero;stroke:none;stroke-width:1;stroke-linecap:butt;stroke-linejoin:miter;stroke-miterlimit:4;stroke-dasharray:none;stroke-dashoffset:0"
   cx="0"
   cy="0"
   r="24.847"
   id="circle158" />
</g>
		<g
   transform="translate(56.2522,6.8064)"
   id="g164">
<path
   style="opacity:1;fill:#fbfbfb;fill-rule:nonzero;stroke:none;stroke-width:1;stroke-linecap:butt;stroke-linejoin:miter;stroke-miterlimit:4;stroke-dasharray:none;stroke-dashoffset:0"
   transform="translate(-311.5156,-185.6015)"
   d="m 311.503,211.956 c -11.44,0 -21.506,-7.315 -25.048,-18.202 -4.496,-13.814 3.088,-28.712 16.904,-33.208 2.65,-0.861 5.395,-1.299 8.156,-1.299 11.441,0 21.509,7.315 25.051,18.203 2.177,6.691 1.618,13.831 -1.574,20.103 -3.192,6.272 -8.636,10.925 -15.328,13.103 -2.652,0.862 -5.397,1.3 -8.161,1.3 z m 0.012,-49.709 c -2.446,0 -4.878,0.388 -7.228,1.152 -12.243,3.984 -18.963,17.185 -14.979,29.427 3.139,9.647 12.059,16.13 22.196,16.13 2.448,0 4.881,-0.389 7.232,-1.154 5.93,-1.929 10.754,-6.052 13.583,-11.61 2.829,-5.558 3.324,-11.884 1.395,-17.813 -3.14,-9.65 -12.061,-16.132 -22.199,-16.132 z"
   stroke-linecap="round"
   id="path162" />
</g>
		<g
   transform="translate(-54.3744,11.1524)"
   id="g168">
<path
   style="opacity:1;fill:#f5f1f1;fill-opacity:0;fill-rule:nonzero;stroke:none;stroke-width:1;stroke-linecap:butt;stroke-linejoin:miter;stroke-miterlimit:4;stroke-dasharray:none;stroke-dashoffset:0"
   transform="translate(-200.889,-189.9475)"
   d="m 225.222,181.255 -14.833,-1 -1,-15.193 c 0,-2.824 -2.239,-5.113 -5,-5.113 h -7 c -2.761,0 -5,2.289 -5,5.113 l -1,15.193 -14.833,1 c -2.762,0 -5,2.289 -5,5.113 v 7.159 c 0,2.824 2.238,5.113 5,5.113 l 14.833,1 1,15.193 c 0,2.824 2.239,5.113 5,5.113 h 7 c 2.761,0 5,-2.289 5,-5.113 l 1,-15.193 14.833,-1 c 2.762,0 5,-2.289 5,-5.113 v -7.159 c 0,-2.824 -2.239,-5.113 -5,-5.113 z"
   stroke-linecap="round"
   id="path166" />
</g>
		<g
   transform="translate(-54.3744,11.1529)"
   id="g172">
<path
   style="opacity:1;fill:#fbfbfb;fill-rule:nonzero;stroke:none;stroke-width:1;stroke-linecap:butt;stroke-linejoin:miter;stroke-miterlimit:4;stroke-dasharray:none;stroke-dashoffset:0"
   transform="translate(-200.889,-189.948)"
   d="m 204.389,221.447 h -7 c -3.584,0 -6.5,-2.967 -6.5,-6.613 l -0.91,-13.785 -13.477,-0.908 c -3.56,-0.029 -6.446,-2.985 -6.446,-6.613 v -7.159 c 0,-3.628 2.887,-6.584 6.446,-6.613 l 13.476,-0.908 0.914,-13.884 c -0.003,-3.548 2.913,-6.515 6.497,-6.515 h 7 c 3.584,0 6.5,2.967 6.5,6.613 l 0.91,13.785 13.477,0.908 c 3.56,0.029 6.446,2.985 6.446,6.613 v 7.159 c 0,3.628 -2.887,6.584 -6.446,6.613 l -13.476,0.908 -0.914,13.884 c 0.003,3.548 -2.913,6.515 -6.497,6.515 z m -27.833,-38.692 c -1.93,0 -3.5,1.621 -3.5,3.613 v 7.159 c 0,1.992 1.57,3.613 3.5,3.613 l 0.101,0.003 16.143,1.089 1.086,16.503 c 0.003,2.091 1.574,3.712 3.503,3.712 h 7 c 1.93,0 3.5,-1.621 3.5,-3.613 l 1.089,-16.602 16.244,-1.092 c 1.93,0 3.5,-1.621 3.5,-3.613 v -7.159 c 0,-1.992 -1.57,-3.613 -3.5,-3.613 l -0.101,-0.003 -16.143,-1.089 -1.086,-16.503 c -0.003,-2.091 -1.574,-3.712 -3.503,-3.712 h -7 c -1.93,0 -3.5,1.621 -3.5,3.613 l -1.089,16.602 z"
   stroke-linecap="round"
   id="path170" />
</g>
</g>
</g>
</svg>
