<svg id="svg" version="1.1" xmlns="http://www.w3.org/2000/svg" xmlns:xlink="http://www.w3.org/1999/xlink" width="400" height="237.65432098765433" viewBox="0, 0, 400,237.65432098765433"><g id="svgg"><path id="path0" d="M101.754 11.307 C 87.222 24.021,73.152 44.548,66.609 62.581 C 65.609 65.337,64.547 68.148,64.248 68.827 C 62.989 71.688,62.263 74.192,60.488 81.790 C 59.457 86.204,58.346 90.787,58.020 91.975 C 53.357 108.950,53.369 152.110,58.042 174.074 C 58.367 175.602,59.463 181.034,60.477 186.145 C 63.483 201.299,66.791 210.203,72.140 217.540 C 79.837 228.098,92.143 233.957,99.107 230.379 C 101.934 228.926,110.559 219.125,116.358 210.777 C 117.716 208.822,120.014 205.528,121.465 203.457 C 122.916 201.386,125.353 197.798,126.881 195.483 L 129.658 191.275 131.650 192.495 C 143.862 199.971,159.692 205.779,178.395 209.643 C 202.635 214.651,237.564 208.752,262.657 195.412 C 270.675 191.149,270.100 191.095,273.597 196.454 C 291.682 224.172,299.411 232.156,307.265 231.233 C 323.820 229.287,335.444 211.263,340.743 179.321 C 341.138 176.944,341.699 174.028,341.991 172.840 C 342.499 170.774,343.093 166.211,344.443 154.012 C 345.927 140.606,344.927 109.100,342.620 96.605 C 340.869 87.118,337.327 73.004,335.803 69.444 C 335.513 68.765,334.444 65.988,333.429 63.272 C 331.011 56.802,324.924 44.171,323.757 43.203 C 323.252 42.784,322.840 42.183,322.840 41.867 C 322.840 41.376,320.725 38.054,316.229 31.481 C 311.583 24.689,295.454 8.018,293.549 8.039 C 292.853 8.046,290.789 9.389,288.961 11.022 C 284.875 14.674,284.402 14.687,280.565 11.254 C 276.109 7.268,275.396 7.120,271.041 9.282 C 266.715 11.428,266.725 11.426,265.711 10.041 C 265.029 9.107,264.659 9.068,262.822 9.732 C 261.663 10.151,259.968 10.494,259.056 10.494 C 258.143 10.494,256.256 11.320,254.861 12.331 C 252.909 13.745,251.873 14.096,250.361 13.856 C 248.816 13.610,248.085 13.877,246.931 15.105 C 245.740 16.373,244.874 16.669,242.331 16.680 C 240.175 16.690,238.716 17.071,237.654 17.901 C 236.592 18.732,235.134 19.113,232.973 19.122 C 231.247 19.130,229.627 19.344,229.373 19.599 C 228.339 20.636,224.385 21.375,223.315 20.731 C 222.530 20.259,221.796 20.349,220.537 21.072 C 218.026 22.515,215.442 22.999,214.486 22.205 C 213.872 21.696,212.727 21.755,210.069 22.433 C 207.620 23.057,206.242 23.150,205.727 22.724 C 205.214 22.299,203.986 22.352,201.894 22.888 C 199.669 23.459,198.419 23.497,197.387 23.027 C 196.602 22.669,194.489 22.518,192.692 22.690 C 190.586 22.893,188.877 22.711,187.884 22.180 C 186.643 21.516,186.104 21.505,185.108 22.127 C 183.827 22.927,182.550 22.721,179.205 21.175 C 177.873 20.560,176.901 20.454,176.197 20.848 C 175.170 21.423,170.984 20.572,170.000 19.588 C 169.751 19.339,167.937 19.136,165.968 19.136 C 163.056 19.136,162.270 18.912,161.747 17.936 C 161.238 16.985,160.487 16.751,158.116 16.805 C 155.733 16.859,154.669 16.524,152.873 15.154 C 151.233 13.903,150.161 13.524,148.932 13.758 C 147.029 14.122,144.162 12.874,143.613 11.443 C 143.360 10.785,142.402 10.494,140.488 10.494 C 138.970 10.494,137.556 10.216,137.346 9.877 C 136.773 8.950,135.114 9.133,133.867 10.261 C 132.840 11.191,132.477 11.125,128.765 9.335 C 123.717 6.900,124.081 6.854,120.129 10.433 C 115.245 14.856,114.809 14.882,110.753 11.000 C 106.322 6.761,106.977 6.738,101.754 11.307 M108.174 11.157 C 109.191 12.835,119.453 21.093,125.319 24.955 C 127.860 26.627,130.658 28.478,131.538 29.068 C 137.918 33.342,154.816 40.509,164.658 43.115 C 169.356 44.359,169.349 44.227,164.895 47.726 C 156.810 54.079,150.178 63.946,146.675 74.839 C 143.590 84.429,143.669 83.883,144.124 92.589 C 144.935 108.101,150.722 121.165,161.264 131.286 L 165.239 135.103 163.638 137.609 C 161.630 140.751,161.829 140.812,159.259 136.258 C 152.026 123.442,133.217 114.773,120.766 118.517 C 81.549 130.308,81.620 181.949,120.863 190.060 C 127.113 191.352,127.149 191.404,124.496 195.380 C 108.817 218.878,99.525 229.680,95.062 229.596 C 81.938 229.351,68.838 214.096,64.083 193.519 C 63.042 189.014,62.296 185.529,61.703 182.407 C 61.158 179.540,60.782 177.413,59.247 168.519 C 56.308 151.492,56.320 110.263,59.267 96.605 C 59.634 94.907,60.185 92.269,60.494 90.741 C 62.225 82.162,63.916 75.254,64.799 73.148 C 65.607 71.224,67.306 66.636,68.343 63.580 C 73.359 48.805,84.984 31.165,99.358 16.518 C 106.209 9.536,106.926 9.100,108.174 11.157 M127.997 11.482 C 158.551 26.928,204.894 33.697,229.012 26.236 C 229.522 26.079,231.045 25.810,232.398 25.639 C 236.324 25.143,252.990 19.839,256.920 17.835 C 258.179 17.192,259.520 16.667,259.899 16.667 C 260.277 16.667,263.801 15.139,267.729 13.272 C 276.144 9.272,275.188 9.413,277.821 11.779 C 278.985 12.825,280.618 14.181,281.448 14.791 L 282.957 15.901 281.139 17.504 C 279.126 19.278,268.768 26.543,268.250 26.543 C 268.070 26.543,266.108 27.654,263.889 29.012 C 261.670 30.370,259.726 31.481,259.569 31.481 C 259.412 31.481,256.986 32.549,254.179 33.854 C 247.144 37.124,242.634 38.889,241.312 38.889 C 240.698 38.889,240.025 39.167,239.815 39.506 C 239.605 39.846,238.890 40.123,238.227 40.123 C 237.563 40.123,236.538 40.383,235.948 40.700 C 235.359 41.017,233.149 41.628,231.037 42.057 C 226.708 42.939,225.882 43.918,228.122 45.514 C 240.594 54.398,247.513 63.418,250.740 75.000 C 251.636 78.215,251.561 80.864,250.574 80.864 C 249.839 80.864,249.835 85.374,250.567 89.268 C 250.879 90.927,250.933 93.395,250.686 94.753 C 250.167 97.611,250.713 100.378,251.752 100.154 C 252.668 99.957,252.661 100.082,251.482 104.785 C 248.994 114.705,244.594 122.225,236.813 129.858 L 231.860 134.716 233.060 136.743 C 233.719 137.858,236.507 142.060,239.254 146.082 C 243.621 152.475,244.293 153.822,244.600 156.790 C 245.572 166.181,251.331 174.690,260.281 179.957 C 264.193 182.259,269.355 188.947,268.126 190.122 C 267.163 191.042,255.347 196.923,250.633 198.827 C 248.095 199.852,245.178 201.058,244.151 201.505 C 243.124 201.953,238.812 203.201,234.568 204.277 C 230.324 205.354,225.880 206.482,224.691 206.783 C 201.789 212.597,164.706 207.218,139.544 194.434 C 132.149 190.676,132.323 191.168,137.801 189.504 C 147.371 186.597,152.581 182.626,158.598 173.653 C 163.799 165.896,165.172 157.282,163.233 144.578 C 162.868 142.185,163.041 141.664,165.057 139.076 C 168.028 135.262,167.952 134.937,162.919 129.938 C 153.931 121.010,145.902 105.072,147.159 98.655 C 147.337 97.745,147.192 96.904,146.837 96.785 C 145.840 96.453,145.889 86.436,146.890 85.817 C 147.406 85.498,147.571 84.677,147.344 83.553 C 147.148 82.584,147.230 80.957,147.526 79.938 C 147.822 78.920,148.389 76.836,148.786 75.309 C 151.569 64.599,162.266 50.677,171.518 45.726 C 172.964 44.951,173.293 43.298,172.068 42.955 C 171.644 42.836,170.046 42.407,168.519 42.003 C 149.348 36.928,131.906 28.401,118.170 17.390 C 116.563 16.101,116.487 15.890,117.442 15.356 C 118.027 15.028,119.776 13.661,121.328 12.318 C 124.675 9.422,124.071 9.497,127.997 11.482 M300.351 16.584 C 317.332 33.463,330.394 55.625,335.872 76.852 C 343.236 105.387,344.898 135.989,340.718 166.049 C 340.364 168.596,340.059 171.096,340.040 171.605 C 340.021 172.114,339.643 174.059,339.199 175.926 C 338.755 177.793,338.078 181.127,337.695 183.333 C 332.743 211.828,320.367 229.109,304.997 228.990 C 298.819 228.943,290.449 218.909,267.991 184.629 L 267.020 183.148 271.452 183.585 C 290.631 185.474,308.127 167.481,304.514 149.582 C 301.930 136.782,295.653 129.263,284.060 125.081 C 273.668 121.333,260.514 124.510,252.951 132.595 C 250.040 135.707,245.062 144.917,245.062 147.191 C 245.062 150.484,243.594 149.040,237.441 139.692 L 234.515 135.249 238.900 130.742 C 258.293 110.807,261.023 83.705,246.007 60.185 C 243.468 56.208,232.194 44.643,231.173 44.968 C 230.833 45.076,230.770 44.951,231.031 44.689 C 231.293 44.428,233.237 43.743,235.352 43.167 C 254.786 37.878,274.831 26.840,288.889 13.686 C 293.832 9.061,292.423 8.704,300.351 16.584 M263.724 12.177 C 263.293 12.330,262.529 12.868,262.026 13.371 C 261.309 14.088,261.111 14.108,261.111 13.462 C 261.111 12.628,263.630 11.131,264.198 11.627 C 264.367 11.776,264.154 12.023,263.724 12.177 M146.380 15.717 C 148.324 16.561,148.356 16.620,146.877 16.643 C 146.008 16.656,144.758 16.259,144.099 15.760 C 142.550 14.589,143.729 14.566,146.380 15.717 M255.910 15.358 C 255.449 16.104,253.086 16.672,253.086 16.037 C 253.086 15.754,253.573 15.396,254.167 15.240 C 255.964 14.771,256.261 14.791,255.910 15.358 M156.084 19.068 C 156.721 19.471,156.744 19.709,156.180 20.058 C 155.770 20.310,154.988 20.068,154.438 19.517 C 153.307 18.386,154.496 18.061,156.084 19.068 M160.494 18.871 C 160.494 19.065,160.077 19.641,159.568 20.150 C 158.801 20.917,158.642 20.927,158.642 20.209 C 158.642 19.732,158.827 19.156,159.053 18.930 C 159.557 18.426,160.494 18.388,160.494 18.871 M165.123 21.605 C 164.914 21.944,164.342 22.222,163.852 22.222 C 163.363 22.222,162.963 21.944,162.963 21.605 C 162.963 21.265,163.535 20.988,164.234 20.988 C 164.933 20.988,165.333 21.265,165.123 21.605 M236.774 21.530 C 236.337 22.238,233.951 22.861,233.951 22.267 C 233.951 21.486,234.725 20.988,235.942 20.988 C 236.584 20.988,236.959 21.232,236.774 21.530 M173.302 23.265 C 172.708 23.420,171.736 23.420,171.142 23.265 C 170.548 23.110,171.034 22.983,172.222 22.983 C 173.410 22.983,173.897 23.110,173.302 23.265 M228.395 23.078 C 228.395 23.209,227.576 23.437,226.576 23.584 C 225.575 23.731,224.897 23.623,225.069 23.345 C 225.375 22.850,228.395 22.608,228.395 23.078 M191.667 25.926 C 191.457 26.265,190.901 26.543,190.432 26.543 C 189.963 26.543,189.407 26.265,189.198 25.926 C 188.980 25.574,189.512 25.309,190.432 25.309 C 191.352 25.309,191.884 25.574,191.667 25.926 M210.237 25.772 C 209.614 26.395,206.793 26.421,207.177 25.800 C 207.344 25.530,208.205 25.309,209.090 25.309 C 209.975 25.309,210.491 25.517,210.237 25.772 M286.111 30.830 C 282.754 32.205,281.367 36.565,282.657 41.690 C 285.735 53.910,299.223 56.268,299.011 44.549 C 298.863 36.409,291.531 28.612,286.111 30.830 M293.322 35.712 C 296.798 39.415,298.084 45.344,296.076 48.408 C 292.382 54.047,282.574 44.091,284.261 36.413 C 285.261 31.858,289.403 31.538,293.322 35.712 M191.667 42.307 C 184.709 43.584,184.405 43.685,177.059 47.184 C 174.457 48.423,171.992 49.842,171.582 50.336 C 171.172 50.830,170.523 51.245,170.140 51.258 C 169.060 51.294,161.957 58.185,161.493 59.646 C 161.266 60.362,160.531 61.445,159.861 62.051 C 159.190 62.658,158.642 63.377,158.642 63.649 C 158.642 63.921,157.848 65.489,156.878 67.134 C 155.909 68.779,154.761 71.222,154.329 72.562 C 153.897 73.903,153.339 75.278,153.090 75.617 C 152.841 75.957,152.604 76.651,152.562 77.160 C 152.521 77.670,152.044 80.309,151.503 83.025 C 146.339 108.938,167.278 135.680,195.269 138.921 C 217.866 141.538,241.346 125.180,246.943 102.922 C 247.350 101.303,247.926 99.828,248.224 99.644 C 248.942 99.201,248.927 80.247,248.208 80.247 C 247.902 80.247,247.040 78.236,246.294 75.779 C 244.171 68.788,238.393 59.042,234.621 56.088 C 233.743 55.400,231.902 53.818,230.530 52.573 C 227.986 50.263,227.320 49.823,221.914 46.876 C 213.308 42.184,201.803 40.446,191.667 42.307 M213.272 45.593 C 222.567 48.283,235.609 57.921,238.877 64.513 C 239.380 65.528,240.438 67.368,241.227 68.602 C 244.714 74.052,247.403 88.306,246.277 95.370 C 239.895 135.416,193.674 150.982,165.923 122.432 C 156.490 112.726,150.954 94.674,153.795 82.879 C 160.855 53.566,186.110 37.733,213.272 45.593 M310.661 44.873 C 304.620 46.064,305.201 57.977,311.573 63.586 C 316.075 67.549,319.911 67.629,322.272 63.808 C 326.739 56.580,318.600 43.308,310.661 44.873 M316.062 48.465 C 320.740 51.707,323.231 61.003,320.056 63.369 C 315.538 66.737,307.976 58.802,308.794 51.551 C 309.347 46.641,311.879 45.566,316.062 48.465 M97.840 52.277 C 96.481 52.428,95.106 52.811,94.784 53.128 C 94.461 53.444,93.750 53.704,93.202 53.704 C 91.301 53.704,86.066 56.674,82.816 59.595 C 64.409 76.145,71.354 104.847,95.370 111.479 C 101.074 113.054,108.984 112.282,120.062 109.069 C 132.044 105.594,141.816 89.629,138.889 78.312 C 138.549 77.000,137.978 74.799,137.619 73.421 C 135.220 64.217,125.872 56.395,114.815 54.340 C 112.608 53.930,110.525 53.369,110.185 53.093 C 109.406 52.461,101.114 51.913,97.840 52.277 M274.383 54.448 C 263.846 58.130,267.096 76.597,278.975 80.543 C 283.753 82.130,290.741 79.000,290.741 75.273 C 290.741 74.654,291.040 73.962,291.407 73.735 C 293.593 72.384,289.782 61.915,285.638 57.889 C 282.034 54.387,278.047 53.168,274.383 54.448 M109.117 55.252 C 132.767 60.828,138.027 92.938,117.440 106.060 C 105.676 113.558,87.453 110.019,79.872 98.765 C 75.615 92.446,73.242 83.605,74.593 79.098 C 74.987 77.784,75.309 75.993,75.309 75.119 C 75.309 74.245,75.586 73.358,75.926 73.148 C 76.265 72.938,76.543 72.351,76.543 71.843 C 76.543 70.544,81.354 63.608,83.518 61.787 C 84.510 60.952,85.658 59.933,86.070 59.521 C 90.001 55.590,101.510 53.458,109.117 55.252 M281.750 57.412 C 286.330 59.673,290.478 68.267,289.284 73.022 C 286.440 84.355,270.597 77.826,270.421 65.247 C 270.312 57.472,275.126 54.142,281.750 57.412 M129.308 63.828 C 132.045 66.594,133.512 68.939,136.064 74.630 C 137.470 77.766,136.834 88.226,134.995 92.223 C 132.910 96.754,124.251 105.556,121.879 105.556 C 121.768 105.556,122.896 104.318,124.387 102.806 C 134.174 92.879,134.934 71.424,125.792 63.151 C 125.187 62.603,124.691 61.781,124.691 61.324 C 124.691 60.867,124.483 60.527,124.228 60.567 C 123.204 60.729,122.787 60.461,123.149 59.875 C 123.727 58.939,125.763 60.246,129.308 63.828 M97.222 60.715 C 80.090 65.112,74.678 86.932,87.859 98.463 C 106.065 114.389,132.739 94.803,122.278 73.190 C 117.552 63.426,107.044 58.194,97.222 60.715 M110.781 64.125 C 122.842 69.460,125.987 87.180,116.505 96.382 C 107.499 105.121,91.662 103.397,85.757 93.034 C 82.865 87.957,81.632 79.858,83.270 76.689 C 83.575 76.100,84.322 74.413,84.931 72.941 C 88.425 64.492,101.518 60.027,110.781 64.125 M179.297 63.002 C 178.805 63.797,179.636 64.793,186.574 71.724 C 189.545 74.692,191.975 77.512,191.975 77.991 C 191.975 79.326,183.297 91.132,178.748 95.988 C 176.521 98.364,174.697 100.517,174.695 100.772 C 174.677 103.089,187.700 95.011,195.736 87.720 L 199.805 84.028 203.742 87.230 C 212.594 94.430,223.826 101.730,224.703 100.853 C 225.042 100.514,223.648 98.575,221.199 95.978 C 216.641 91.147,213.179 86.770,209.661 81.393 L 207.284 77.761 213.888 70.608 C 220.693 63.238,221.825 60.648,216.892 63.733 C 214.233 65.396,207.573 68.519,206.686 68.519 C 206.371 68.519,204.963 69.074,203.558 69.753 C 202.153 70.432,200.413 70.988,199.691 70.988 C 198.970 70.988,197.230 70.432,195.825 69.753 C 194.419 69.074,192.895 68.519,192.437 68.519 C 191.979 68.519,191.341 68.283,191.019 67.994 C 190.696 67.706,189.246 67.011,187.797 66.451 C 186.347 65.891,184.061 64.738,182.716 63.889 C 179.932 62.131,179.848 62.110,179.297 63.002 M101.317 68.110 C 100.940 68.564,99.556 69.258,98.241 69.652 C 95.076 70.601,90.353 75.618,89.787 78.633 C 89.556 79.868,89.002 80.864,88.548 80.864 C 87.127 80.864,86.896 82.091,88.110 83.196 C 88.752 83.781,89.641 85.370,90.085 86.728 C 91.308 90.469,96.488 95.062,99.482 95.062 C 100.082 95.062,100.871 95.617,101.235 96.296 C 101.598 96.975,102.302 97.531,102.799 97.531 C 103.297 97.531,103.704 96.975,103.704 96.296 C 103.704 95.465,104.115 95.062,104.963 95.062 C 106.246 95.062,109.936 93.306,111.877 91.771 C 112.467 91.304,113.668 89.300,114.545 87.317 C 115.422 85.335,116.605 83.363,117.175 82.936 C 118.120 82.226,118.062 82.020,116.512 80.560 C 115.579 79.682,114.813 78.488,114.811 77.907 C 114.800 75.185,109.380 70.114,105.710 69.393 C 104.599 69.174,103.704 68.616,103.704 68.141 C 103.704 67.049,102.214 67.029,101.317 68.110 M297.367 68.418 C 292.293 71.764,290.732 78.449,293.670 84.251 C 298.967 94.712,307.983 97.647,313.754 90.789 C 321.517 81.563,307.158 61.961,297.367 68.418 M192.931 70.978 C 199.229 73.781,200.301 73.909,203.892 72.286 C 211.077 69.038,212.802 68.522,210.765 70.230 C 210.065 70.816,208.307 72.750,206.858 74.527 L 204.222 77.758 206.313 80.391 C 207.462 81.840,208.804 83.609,209.294 84.323 C 209.784 85.037,211.083 86.808,212.180 88.258 C 216.119 93.465,213.635 92.650,205.651 86.117 C 203.157 84.077,200.746 82.143,200.293 81.820 C 199.697 81.396,198.632 81.997,196.462 83.981 C 192.107 87.962,190.165 89.522,189.780 89.350 C 189.593 89.266,188.731 89.880,187.865 90.714 C 185.183 93.295,184.532 92.621,186.791 89.600 C 189.638 85.793,195.062 77.903,195.062 77.568 C 195.062 77.422,193.048 75.331,190.586 72.921 C 185.381 67.825,185.544 67.690,192.931 70.978 M304.446 69.863 C 315.083 73.051,316.984 91.975,306.666 91.975 C 300.062 91.975,295.081 86.063,295.068 78.210 C 295.056 70.979,298.358 68.039,304.446 69.863 M108.866 73.261 C 112.208 75.607,113.272 77.838,113.272 82.504 C 113.272 92.052,101.833 96.856,94.857 90.239 C 85.066 80.951,97.812 65.504,108.866 73.261 M272.833 85.957 C 262.529 92.970,270.811 113.239,283.296 111.565 C 286.502 111.135,290.710 108.169,290.728 106.327 C 290.735 105.563,291.057 104.938,291.443 104.938 C 291.929 104.938,292.026 103.920,291.757 101.637 C 290.635 92.087,284.374 84.568,277.544 84.568 C 275.791 84.568,274.173 85.045,272.833 85.957 M279.877 87.095 C 285.472 88.649,290.135 96.775,289.110 103.187 C 287.922 110.618,278.448 111.606,273.696 104.795 C 266.946 95.121,270.644 84.532,279.877 87.095 M297.840 98.682 C 286.791 103.709,294.048 124.700,306.831 124.689 C 316.927 124.681,319.081 110.439,310.311 101.669 C 306.178 97.536,302.364 96.623,297.840 98.682 M306.223 101.282 C 313.690 105.019,316.323 117.964,310.355 121.602 C 302.848 126.179,293.996 117.288,295.223 106.404 C 295.908 100.328,300.264 98.299,306.223 101.282 M136.676 121.591 C 167.075 129.366,171.151 171.324,142.859 185.252 C 129.675 191.742,110.568 188.058,102.364 177.444 C 101.588 176.439,100.588 175.239,100.143 174.777 C 95.601 170.061,91.255 148.576,94.444 146.605 C 94.784 146.395,95.062 145.678,95.062 145.012 C 95.062 142.692,98.717 135.761,101.825 132.187 C 110.585 122.116,123.442 118.207,136.676 121.591 M119.899 126.857 C 106.865 131.873,96.426 147.245,98.807 157.915 C 101.837 171.494,115.390 183.514,127.667 183.511 C 138.232 183.508,151.046 174.127,154.892 163.580 C 155.326 162.392,155.960 160.827,156.301 160.102 C 157.652 157.238,156.641 148.704,154.437 144.364 C 146.964 129.644,132.157 122.139,119.899 126.857 M285.338 127.741 C 310.303 137.303,306.984 175.414,280.715 180.835 C 263.031 184.485,246.951 171.821,246.783 154.112 C 246.593 134.044,266.408 120.491,285.338 127.741 M134.683 128.796 C 150.232 133.670,158.861 151.268,152.160 164.443 C 140.680 187.019,113.972 186.585,103.250 163.649 C 94.690 145.338,115.135 122.669,134.683 128.796 M269.136 131.919 C 249.225 139.225,246.671 164.247,264.913 173.300 C 286.352 183.941,307.113 157.235,291.354 139.287 C 286.081 133.282,275.229 129.683,269.136 131.919 M283.412 135.673 C 300.151 143.883,297.298 168.556,279.115 172.831 C 264.209 176.335,252.478 163.755,255.708 147.728 C 257.834 137.177,273.012 130.572,283.412 135.673 M273.769 140.718 C 273.542 142.064,273.499 143.396,273.674 143.680 C 274.147 144.445,273.406 145.279,270.899 146.802 C 269.662 147.553,268.191 149.135,267.629 150.318 C 266.650 152.383,266.475 152.469,263.279 152.469 C 261.448 152.469,259.786 152.733,259.587 153.055 C 259.064 153.902,261.311 154.937,263.694 154.948 C 266.100 154.959,266.840 155.372,267.835 157.262 C 268.240 158.031,269.636 159.332,270.938 160.154 C 273.094 161.515,273.343 161.957,273.738 165.118 C 274.280 169.456,275.543 169.373,275.802 164.983 C 275.970 162.119,276.188 161.719,278.357 160.283 C 279.662 159.420,281.105 157.865,281.564 156.826 C 282.423 154.886,282.805 154.733,286.296 154.926 C 288.410 155.042,290.361 153.970,289.772 153.016 C 289.586 152.715,287.852 152.459,285.920 152.447 L 282.407 152.424 281.173 149.823 C 280.354 148.099,279.262 146.925,277.932 146.339 C 276.123 145.543,275.926 145.199,275.926 142.840 C 275.926 138.004,274.470 136.571,273.769 140.718 M278.430 149.537 C 284.042 155.451,275.881 162.830,270.110 157.059 C 268.709 155.657,268.873 151.735,270.415 149.775 C 272.141 147.581,276.453 147.453,278.430 149.537 M174.246 170.534 C 168.883 172.590,166.409 177.566,169.068 180.946 C 174.037 187.263,186.309 186.618,190.272 179.832 C 193.652 174.045,182.286 167.451,174.246 170.534 M216.901 170.324 C 207.584 171.850,205.775 179.638,213.778 183.774 C 224.424 189.276,237.615 179.653,228.894 172.746 C 225.606 170.142,222.207 169.455,216.901 170.324 M185.294 173.204 C 188.643 174.937,189.909 178.548,187.809 180.381 C 181.926 185.512,168.036 182.375,170.298 176.426 C 171.880 172.264,180.073 170.504,185.294 173.204 M227.160 174.020 C 231.450 177.461,229.424 181.730,223.022 182.742 C 216.707 183.740,211.567 181.527,211.234 177.665 C 210.771 172.290,221.845 169.756,227.160 174.020 " stroke="none" fill="#FFFFFF" fill-rule="evenodd"></path></g></svg>