<?xml version="1.0" encoding="UTF-8" standalone="no"?>
<!-- Uploaded to: SVG Repo, www.svgrepo.com, Generator: SVG Repo Mixer Tools -->

<svg
   fill="#000000"
   version="1.1"
   id="Capa_1"
   width="820"
   height="580"
   viewBox="0 0 594.5328 420.5232"
   xml:space="preserve"
   sodipodi:docname="xbox-control-for-one-svgrepo-com.svg"
   inkscape:version="1.2.2 (732a01da63, 2022-12-09)"
   xmlns:inkscape="http://www.inkscape.org/namespaces/inkscape"
   xmlns:sodipodi="http://sodipodi.sourceforge.net/DTD/sodipodi-0.dtd"
   xmlns="http://www.w3.org/2000/svg"
   xmlns:svg="http://www.w3.org/2000/svg"><defs
   id="defs41" /><sodipodi:namedview
   id="namedview39"
   pagecolor="#000000"
   bordercolor="#111111"
   borderopacity="1"
   inkscape:showpageshadow="0"
   inkscape:pageopacity="0"
   inkscape:pagecheckerboard="1"
   inkscape:deskcolor="#d1d1d1"
   showgrid="false"
   inkscape:zoom="1.4654788"
   inkscape:cx="424.77585"
   inkscape:cy="179.46353"
   inkscape:window-width="1920"
   inkscape:window-height="1009"
   inkscape:window-x="-8"
   inkscape:window-y="-8"
   inkscape:window-maximized="1"
   inkscape:current-layer="g34" />
<g
   id="g36"
   style="fill:none;fill-opacity:1;stroke:#ffffff;stroke-width:3.24745;stroke-dasharray:none;stroke-opacity:1">
	<g
   id="g34"
   style="fill:none;fill-opacity:1;stroke:#ffffff;stroke-width:3.24745;stroke-dasharray:none;stroke-opacity:1">
		<path
   d="m 312.3034,47.34544 c -3.182,1.512 -8.127,3.941 -8.616,6.634 0,0 13.488,13.14 12.895,25.251 2.754,-3.874 4.412,-8.58 4.412,-13.684 -10e-4,-7.35 -3.428,-13.843 -8.691,-18.201 z"
   id="path2"
   style="fill:none;fill-opacity:1;stroke:#ffffff;stroke-width:1.57986;stroke-dasharray:none;stroke-opacity:1" />
		
		<circle
   cx="407.18237"
   cy="129.43982"
   r="18.77"
   id="circle6"
   style="fill:none;fill-opacity:1;stroke:#ffffff;stroke-width:3.24745;stroke-dasharray:none;stroke-opacity:1" />
		<path
   d="m 149.3894,85.49844 c -23.69,0 -42.962,19.266 -42.962,42.956 0,23.69 19.272,42.962 42.962,42.962 23.685,0 42.957,-19.272 42.957,-42.962 0,-23.69 -19.267,-42.956 -42.957,-42.956 z m 0,76.2 c -18.329,0 -33.244,-14.92 -33.244,-33.25 0,-18.33 14.915,-33.244 33.244,-33.244 18.33,0 33.244,14.915 33.244,33.244 0,18.329 -14.909,33.25 -33.244,33.25 z"
   id="path8"
   style="fill:none;fill-opacity:1;stroke:#ffffff;stroke-width:3.24745;stroke-dasharray:none;stroke-opacity:1" />
		<circle
   cx="256.26938"
   cy="129.43982"
   r="9.8039999"
   id="circle10"
   style="fill:none;fill-opacity:1;stroke:#ffffff;stroke-width:3.24745;stroke-dasharray:none;stroke-opacity:1" />
		<path
   d="m 297.0464,59.97144 c -12.007,9.272 -15.973,17.062 -17.283,21.445 4.345,4.786 10.551,7.852 17.509,7.852 6.769,0 12.846,-2.882 17.173,-7.448 -1.181,-4.291 -5.012,-12.283 -17.399,-21.849 z"
   id="path12"
   style="fill:none;fill-opacity:1;stroke:#ffffff;stroke-width:1.57986;stroke-dasharray:none;stroke-opacity:1" />
		<path
   d="m 513.0154,69.07844 c -16.255,-10.392 -4.528,-16.329 -21.353,-29.193 -16.824,-12.864 -85.104,-34.639 -96.983,-24.743 -11.879,9.896 -25.233,11.873 -25.233,11.873 h -72.112 -0.122 -72.118 c 0,0 -13.36,-1.977 -25.233,-11.873 -11.873,-9.896 -80.16,11.873 -96.983,24.743 -16.824,12.864 -5.098,18.801 -21.353,29.193 -16.255,10.392 -58.808,153.886 -58.808,153.886 0,0 -55.417,159.824 43.544,179.12 0,0 24.248,-15.336 45.025,-40.079 20.784,-24.743 61.353,-59.872 83.128,-60.368 21.298,-0.483 99.389,-0.019 102.792,0 v 0 h 0.061 0.062 v 0 c 3.403,-0.019 81.494,-0.483 102.792,0 21.769,0.496 62.345,35.625 83.128,60.368 20.783,24.743 45.024,40.079 45.024,40.079 98.961,-19.296 43.544,-179.12 43.544,-179.12 0,0 -42.547,-143.494 -58.802,-153.886 z m -67.718,-2.626 c 13.728,0 24.89,11.169 24.89,24.89 0,13.721 -11.169,24.89 -24.89,24.89 -13.721,0 -24.89,-11.163 -24.89,-24.89 0,-13.727 11.162,-24.89 24.89,-24.89 z m -38.115,38.097 c 13.727,0 24.89,11.163 24.89,24.89 0,13.727 -11.169,24.89 -24.89,24.89 -13.722,0 -24.891,-11.169 -24.891,-24.89 0,-13.721 11.163,-24.89 24.891,-24.89 z m -67.786,8.966 c 8.782,0 15.924,7.148 15.924,15.93 0,8.782 -7.142,15.924 -15.924,15.924 -8.782,0 -15.925,-7.142 -15.925,-15.924 0,-8.782 7.143,-15.93 15.925,-15.93 z m -239.084,14.933 c 0,-27.062 22.02,-49.076 49.083,-49.076 27.062,0 49.076,22.014 49.076,49.076 0,27.063 -22.014,49.083 -49.076,49.083 -27.063,-0.001 -49.083,-22.02 -49.083,-49.083 z m 163.337,106.475 c 0,1.689 -1.371,3.06 -3.06,3.06 h -22.448 v 22.455 c 0,1.688 -1.371,3.06 -3.06,3.06 h -24.235 c -1.689,0 -3.06,-1.371 -3.06,-3.06 v -22.455 h -22.448 c -1.689,0 -3.06,-1.37 -3.06,-3.06 v -24.235 c 0,-1.689 1.371,-3.059 3.06,-3.059 h 22.448 v -22.455 c 0,-1.689 1.371,-3.06 3.06,-3.06 h 24.235 c 1.689,0 3.06,1.371 3.06,3.06 v 22.455 h 22.448 c 1.689,0 3.06,1.37 3.06,3.059 z m -7.38,-89.559 c -8.782,0 -15.924,-7.142 -15.924,-15.924 0,-8.782 7.142,-15.931 15.924,-15.931 8.782,0 15.924,7.148 15.924,15.931 0,8.783 -7.149,15.924 -15.924,15.924 z m 41.003,-49.97 c -16.457,0 -29.841,-13.391 -29.841,-29.847 0,-16.451 13.391,-29.841 29.841,-29.841 16.45,0 29.841,13.391 29.841,29.841 0,16.462 -13.384,29.847 -29.841,29.847 z m 75.277,171.696 c -27.063,0 -49.077,-22.021 -49.077,-49.083 0,-27.062 22.014,-49.076 49.077,-49.076 27.062,0 49.076,22.014 49.076,49.076 0,27.063 -22.014,49.083 -49.076,49.083 z m 72.748,-72.662 c -13.728,0 -24.89,-11.163 -24.89,-24.89 0,-13.727 11.169,-24.89 24.89,-24.89 13.721,0 24.89,11.169 24.89,24.89 0,13.721 -11.163,24.89 -24.89,24.89 z m 41.053,-40.093 c -13.727,0 -24.89,-11.169 -24.89,-24.89 0,-13.721 11.163,-24.89 24.89,-24.89 13.728,0 24.891,11.163 24.891,24.89 -10e-4,13.728 -11.164,24.89 -24.891,24.89 z"
   id="path14"
   style="fill:none;fill-opacity:1;stroke:#ffffff;stroke-width:1.72487;stroke-dasharray:none;stroke-opacity:1"
   sodipodi:nodetypes="scsccccscsccccscccscsccssssssssssssssssssscssscsssscsssscsssscsssssssssssssssssssssssssscs" />
		<path
   d="m 307.2424,44.09644 c -3.042,-1.42 -6.396,-2.271 -9.97,-2.271 -3.604,0 -6.989,0.869 -10.049,2.313 5.397,0.417 8.959,2.705 9.822,3.33 0.894,-0.637 4.585,-3.036 10.197,-3.372 z"
   id="path16"
   style="fill:none;fill-opacity:1;stroke:#ffffff;stroke-width:1.57986;stroke-dasharray:none;stroke-opacity:1" />
		<circle
   cx="445.29736"
   cy="169.53783"
   r="18.77"
   id="circle18"
   style="fill:none;fill-opacity:1;stroke:#ffffff;stroke-width:3.24745;stroke-dasharray:none;stroke-opacity:1" />
		<path
   d="m 282.0774,47.48644 c -5.171,4.352 -8.525,10.79 -8.525,18.066 0,4.829 1.469,9.314 3.954,13.066 -0.11,-11.934 12.907,-24.627 12.907,-24.627 -0.478,-2.612 -5.154,-4.987 -8.336,-6.505 z"
   id="path20"
   style="fill:none;fill-opacity:1;stroke:#ffffff;stroke-width:1.57986;stroke-dasharray:none;stroke-opacity:1" />
		<circle
   cx="486.35037"
   cy="129.43982"
   r="18.77"
   id="circle22"
   style="fill:none;fill-opacity:1;stroke:#ffffff;stroke-width:3.24745;stroke-dasharray:none;stroke-opacity:1" />
		<circle
   cx="339.39636"
   cy="129.43982"
   r="9.8039999"
   id="circle24"
   style="fill:none;fill-opacity:1;stroke:#ffffff;stroke-width:3.24745;stroke-dasharray:none;stroke-opacity:1" />
		<circle
   cx="445.29736"
   cy="91.342636"
   r="18.77"
   id="circle26"
   style="fill:none;fill-opacity:1;stroke:#ffffff;stroke-width:3.24745;stroke-dasharray:none;stroke-opacity:1" />
		<path
   d="m 372.5494,175.05844 c -23.685,0 -42.957,19.266 -42.957,42.956 0,23.69 19.272,42.962 42.957,42.962 23.684,0 42.956,-19.271 42.956,-42.962 0,-23.691 -19.273,-42.956 -42.956,-42.956 z m 0,76.199 c -18.33,0 -33.244,-14.92 -33.244,-33.25 0,-18.329 14.914,-33.243 33.244,-33.243 18.329,0 33.243,14.915 33.243,33.243 0,18.33 -14.914,33.25 -33.243,33.25 z"
   id="path28"
   style="fill:none;fill-opacity:1;stroke:#ffffff;stroke-width:3.24745;stroke-dasharray:none;stroke-opacity:1" />
		
		<path
   d="m 232.0214,210.68844 v -22.454 h -18.115 v 22.454 c 0,1.689 -1.371,3.061 -3.06,3.061 h -22.448 v 18.114 h 22.448 c 1.689,0 3.06,1.371 3.06,3.061 v 22.454 h 18.115 v -22.454 c 0,-1.689 1.371,-3.061 3.06,-3.061 h 22.448 v -18.114 h -22.448 c -1.689,-0.001 -3.06,-1.372 -3.06,-3.061 z"
   id="path32"
   style="fill:none;fill-opacity:1;stroke:#ffffff;stroke-width:3.24745;stroke-dasharray:none;stroke-opacity:1" />
	</g>
</g>
</svg>
