<?xml version="1.0" encoding="UTF-8" standalone="no"?>
<svg
   id="svg"
   version="1.1"
   width="293"
   height="228.65401"
   viewBox="0 0 293 228.654"
   sodipodi:docname="xbox.svg"
   inkscape:version="1.2.2 (732a01da63, 2022-12-09)"
   xmlns:inkscape="http://www.inkscape.org/namespaces/inkscape"
   xmlns:sodipodi="http://sodipodi.sourceforge.net/DTD/sodipodi-0.dtd"
   xmlns="http://www.w3.org/2000/svg"
   xmlns:svg="http://www.w3.org/2000/svg">
  <defs
     id="defs7" />
  <sodipodi:namedview
     id="namedview5"
     pagecolor="#ffffff"
     bordercolor="#111111"
     borderopacity="1"
     inkscape:showpageshadow="0"
     inkscape:pageopacity="0"
     inkscape:pagecheckerboard="1"
     inkscape:deskcolor="#d1d1d1"
     showgrid="false"
     inkscape:zoom="3.0575"
     inkscape:cx="200"
     inkscape:cy="118.72445"
     inkscape:window-width="1920"
     inkscape:window-height="1009"
     inkscape:window-x="-8"
     inkscape:window-y="-8"
     inkscape:window-maximized="1"
     inkscape:current-layer="svg" />
  <g
     id="svgg"
     transform="translate(-54,-4)">
    <path
       id="path0"
       d="M 101.754,11.307 C 87.222,24.021 73.152,44.548 66.609,62.581 c -1,2.756 -2.062,5.567 -2.361,6.246 -1.259,2.861 -1.985,5.365 -3.76,12.963 -1.031,4.414 -2.142,8.997 -2.468,10.185 -4.663,16.975 -4.651,60.135 0.022,82.099 0.325,1.528 1.421,6.96 2.435,12.071 3.006,15.154 6.314,24.058 11.663,31.395 7.697,10.558 20.003,16.417 26.967,12.839 2.827,-1.453 11.452,-11.254 17.251,-19.602 1.358,-1.955 3.656,-5.249 5.107,-7.32 1.451,-2.071 3.888,-5.659 5.416,-7.974 l 2.777,-4.208 1.992,1.22 c 12.212,7.476 28.042,13.284 46.745,17.148 24.24,5.008 59.169,-0.891 84.262,-14.231 8.018,-4.263 7.443,-4.317 10.94,1.042 18.085,27.718 25.814,35.702 33.668,34.779 16.555,-1.946 28.179,-19.97 33.478,-51.912 0.395,-2.377 0.956,-5.293 1.248,-6.481 0.508,-2.066 1.102,-6.629 2.452,-18.828 1.484,-13.406 0.484,-44.912 -1.823,-57.407 -1.751,-9.487 -5.293,-23.601 -6.817,-27.161 -0.29,-0.679 -1.359,-3.456 -2.374,-6.172 -2.418,-6.47 -8.505,-19.101 -9.672,-20.069 -0.505,-0.419 -0.917,-1.02 -0.917,-1.336 0,-0.491 -2.115,-3.813 -6.611,-10.386 -4.646,-6.792 -20.775,-23.463 -22.68,-23.442 -0.696,0.007 -2.76,1.35 -4.588,2.983 -4.086,3.652 -4.559,3.665 -8.396,0.232 -4.456,-3.986 -5.169,-4.134 -9.524,-1.972 -4.326,2.146 -4.316,2.144 -5.33,0.759 -0.682,-0.934 -1.052,-0.973 -2.889,-0.309 -1.159,0.419 -2.854,0.762 -3.766,0.762 -0.913,0 -2.8,0.826 -4.195,1.837 -1.952,1.414 -2.988,1.765 -4.5,1.525 -1.545,-0.246 -2.276,0.021 -3.43,1.249 -1.191,1.268 -2.057,1.564 -4.6,1.575 -2.156,0.01 -3.615,0.391 -4.677,1.221 -1.062,0.831 -2.52,1.212 -4.681,1.221 -1.726,0.008 -3.346,0.222 -3.6,0.477 -1.034,1.037 -4.988,1.776 -6.058,1.132 -0.785,-0.472 -1.519,-0.382 -2.778,0.341 -2.511,1.443 -5.095,1.927 -6.051,1.133 -0.614,-0.509 -1.759,-0.45 -4.417,0.228 -2.449,0.624 -3.827,0.717 -4.342,0.291 -0.513,-0.425 -1.741,-0.372 -3.833,0.164 -2.225,0.571 -3.475,0.609 -4.507,0.139 -0.785,-0.358 -2.898,-0.509 -4.695,-0.337 -2.106,0.203 -3.815,0.021 -4.808,-0.51 -1.241,-0.664 -1.78,-0.675 -2.776,-0.053 -1.281,0.8 -2.558,0.594 -5.903,-0.952 -1.332,-0.615 -2.304,-0.721 -3.008,-0.327 -1.027,0.575 -5.213,-0.276 -6.197,-1.26 -0.249,-0.249 -2.063,-0.452 -4.032,-0.452 -2.912,0 -3.698,-0.224 -4.221,-1.2 -0.509,-0.951 -1.26,-1.185 -3.631,-1.131 -2.383,0.054 -3.447,-0.281 -5.243,-1.651 -1.64,-1.251 -2.712,-1.63 -3.941,-1.396 -1.903,0.364 -4.77,-0.884 -5.319,-2.315 -0.253,-0.658 -1.211,-0.949 -3.125,-0.949 -1.518,0 -2.932,-0.278 -3.142,-0.617 -0.573,-0.927 -2.232,-0.744 -3.479,0.384 -1.027,0.93 -1.39,0.864 -5.102,-0.926 -5.048,-2.435 -4.684,-2.481 -8.636,1.098 -4.884,4.423 -5.32,4.449 -9.376,0.567 -4.431,-4.239 -3.776,-4.262 -8.999,0.307 m 6.42,-0.15 c 1.017,1.678 11.279,9.936 17.145,13.798 2.541,1.672 5.339,3.523 6.219,4.113 6.38,4.274 23.278,11.441 33.12,14.047 4.698,1.244 4.691,1.112 0.237,4.611 -8.085,6.353 -14.717,16.22 -18.22,27.113 -3.085,9.59 -3.006,9.044 -2.551,17.75 0.811,15.512 6.598,28.576 17.14,38.697 l 3.975,3.817 -1.601,2.506 c -2.008,3.142 -1.809,3.203 -4.379,-1.351 -7.233,-12.816 -26.042,-21.485 -38.493,-17.741 -39.217,11.791 -39.146,63.432 0.097,71.543 6.25,1.292 6.286,1.344 3.633,5.32 -15.679,23.498 -24.971,34.3 -29.434,34.216 -13.124,-0.245 -26.224,-15.5 -30.979,-36.077 -1.041,-4.505 -1.787,-7.99 -2.38,-11.112 -0.545,-2.867 -0.921,-4.994 -2.456,-13.888 -2.939,-17.027 -2.927,-58.256 0.02,-71.914 0.367,-1.698 0.918,-4.336 1.227,-5.864 1.731,-8.579 3.422,-15.487 4.305,-17.593 0.808,-1.924 2.507,-6.512 3.544,-9.568 5.016,-14.775 16.641,-32.415 31.015,-47.062 6.851,-6.982 7.568,-7.418 8.816,-5.361 m 19.823,0.325 c 30.554,15.446 76.897,22.215 101.015,14.754 0.51,-0.157 2.033,-0.426 3.386,-0.597 3.926,-0.496 20.592,-5.8 24.522,-7.804 1.259,-0.643 2.6,-1.168 2.979,-1.168 0.378,0 3.902,-1.528 7.83,-3.395 8.415,-4 7.459,-3.859 10.092,-1.493 1.164,1.046 2.797,2.402 3.627,3.012 l 1.509,1.11 -1.818,1.603 c -2.013,1.774 -12.371,9.039 -12.889,9.039 -0.18,0 -2.142,1.111 -4.361,2.469 -2.219,1.358 -4.163,2.469 -4.32,2.469 -0.157,0 -2.583,1.068 -5.39,2.373 -7.035,3.27 -11.545,5.035 -12.867,5.035 -0.614,0 -1.287,0.278 -1.497,0.617 -0.21,0.34 -0.925,0.617 -1.588,0.617 -0.664,0 -1.689,0.26 -2.279,0.577 -0.589,0.317 -2.799,0.928 -4.911,1.357 -4.329,0.882 -5.155,1.861 -2.915,3.457 12.472,8.884 19.391,17.904 22.618,29.486 0.896,3.215 0.821,5.864 -0.166,5.864 -0.735,0 -0.739,4.51 -0.007,8.404 0.312,1.659 0.366,4.127 0.119,5.485 -0.519,2.858 0.027,5.625 1.066,5.401 0.916,-0.197 0.909,-0.072 -0.27,4.631 -2.488,9.92 -6.888,17.44 -14.669,25.073 l -4.953,4.858 1.2,2.027 c 0.659,1.115 3.447,5.317 6.194,9.339 4.367,6.393 5.039,7.74 5.346,10.708 0.972,9.391 6.731,17.9 15.681,23.167 3.912,2.302 9.074,8.99 7.845,10.165 -0.963,0.92 -12.779,6.801 -17.493,8.705 -2.538,1.025 -5.455,2.231 -6.482,2.678 -1.027,0.448 -5.339,1.696 -9.583,2.772 -4.244,1.077 -8.688,2.205 -9.877,2.506 -22.902,5.814 -59.985,0.435 -85.147,-12.349 -7.395,-3.758 -7.221,-3.266 -1.743,-4.93 9.57,-2.907 14.78,-6.878 20.797,-15.851 5.201,-7.757 6.574,-16.371 4.635,-29.075 -0.365,-2.393 -0.192,-2.914 1.824,-5.502 2.971,-3.814 2.895,-4.139 -2.138,-9.138 -8.988,-8.928 -17.017,-24.866 -15.76,-31.283 0.178,-0.91 0.033,-1.751 -0.322,-1.87 -0.997,-0.332 -0.948,-10.349 0.053,-10.968 0.516,-0.319 0.681,-1.14 0.454,-2.264 -0.196,-0.969 -0.114,-2.596 0.182,-3.615 0.296,-1.018 0.863,-3.102 1.26,-4.629 2.783,-10.71 13.48,-24.632 22.732,-29.583 1.446,-0.775 1.775,-2.428 0.55,-2.771 -0.424,-0.119 -2.022,-0.548 -3.549,-0.952 -19.171,-5.075 -36.613,-13.602 -50.349,-24.613 -1.607,-1.289 -1.683,-1.5 -0.728,-2.034 0.585,-0.328 2.334,-1.695 3.886,-3.038 3.347,-2.896 2.743,-2.821 6.669,-0.836 m 172.354,5.102 c 16.981,16.879 30.043,39.041 35.521,60.268 7.364,28.535 9.026,59.137 4.846,89.197 -0.354,2.547 -0.659,5.047 -0.678,5.556 -0.019,0.509 -0.397,2.454 -0.841,4.321 -0.444,1.867 -1.121,5.201 -1.504,7.407 -4.952,28.495 -17.328,45.776 -32.698,45.657 -6.178,-0.047 -14.548,-10.081 -37.006,-44.361 l -0.971,-1.481 4.432,0.437 c 19.179,1.889 36.675,-16.104 33.062,-34.003 -2.584,-12.8 -8.861,-20.319 -20.454,-24.501 -10.392,-3.748 -23.546,-0.571 -31.109,7.514 -2.911,3.112 -7.889,12.322 -7.889,14.596 0,3.293 -1.468,1.849 -7.621,-7.499 l -2.926,-4.443 4.385,-4.507 c 19.393,-19.935 22.123,-47.037 7.107,-70.557 -2.539,-3.977 -13.813,-15.542 -14.834,-15.217 -0.34,0.108 -0.403,-0.017 -0.142,-0.279 0.262,-0.261 2.206,-0.946 4.321,-1.522 19.434,-5.289 39.479,-16.327 53.537,-29.481 4.943,-4.625 3.534,-4.982 11.462,2.898 m -36.627,-4.407 c -0.431,0.153 -1.195,0.691 -1.698,1.194 -0.717,0.717 -0.915,0.737 -0.915,0.091 0,-0.834 2.519,-2.331 3.087,-1.835 0.169,0.149 -0.044,0.396 -0.474,0.55 m -117.344,3.54 c 1.944,0.844 1.976,0.903 0.497,0.926 -0.869,0.013 -2.119,-0.384 -2.778,-0.883 -1.549,-1.171 -0.37,-1.194 2.281,-0.043 m 109.53,-0.359 c -0.461,0.746 -2.824,1.314 -2.824,0.679 0,-0.283 0.487,-0.641 1.081,-0.797 1.797,-0.469 2.094,-0.449 1.743,0.118 m -99.826,3.71 c 0.637,0.403 0.66,0.641 0.096,0.99 -0.41,0.252 -1.192,0.01 -1.742,-0.541 -1.131,-1.131 0.058,-1.456 1.646,-0.449 m 4.41,-0.197 c 0,0.194 -0.417,0.77 -0.926,1.279 -0.767,0.767 -0.926,0.777 -0.926,0.059 0,-0.477 0.185,-1.053 0.411,-1.279 0.504,-0.504 1.441,-0.542 1.441,-0.059 m 4.629,2.734 c -0.209,0.339 -0.781,0.617 -1.271,0.617 -0.489,0 -0.889,-0.278 -0.889,-0.617 0,-0.34 0.572,-0.617 1.271,-0.617 0.699,0 1.099,0.277 0.889,0.617 m 71.651,-0.075 c -0.437,0.708 -2.823,1.331 -2.823,0.737 0,-0.781 0.774,-1.279 1.991,-1.279 0.642,0 1.017,0.244 0.832,0.542 m -63.472,1.735 c -0.594,0.155 -1.566,0.155 -2.16,0 -0.594,-0.155 -0.108,-0.282 1.08,-0.282 1.188,0 1.675,0.127 1.08,0.282 m 55.093,-0.187 c 0,0.131 -0.819,0.359 -1.819,0.506 -1.001,0.147 -1.679,0.039 -1.507,-0.239 0.306,-0.495 3.326,-0.737 3.326,-0.267 m -36.728,2.848 c -0.21,0.339 -0.766,0.617 -1.235,0.617 -0.469,0 -1.025,-0.278 -1.234,-0.617 -0.218,-0.352 0.314,-0.617 1.234,-0.617 0.92,0 1.452,0.265 1.235,0.617 m 18.57,-0.154 c -0.623,0.623 -3.444,0.649 -3.06,0.028 0.167,-0.27 1.028,-0.491 1.913,-0.491 0.885,0 1.401,0.208 1.147,0.463 m 75.874,5.058 c -3.357,1.375 -4.744,5.735 -3.454,10.86 3.078,12.22 16.566,14.578 16.354,2.859 -0.148,-8.14 -7.48,-15.937 -12.9,-13.719 m 7.211,4.882 c 3.476,3.703 4.762,9.632 2.754,12.696 -3.694,5.639 -13.502,-4.317 -11.815,-11.995 1,-4.555 5.142,-4.875 9.061,-0.701 m -101.655,6.595 c -6.958,1.277 -7.262,1.378 -14.608,4.877 -2.602,1.239 -5.067,2.658 -5.477,3.152 -0.41,0.494 -1.059,0.909 -1.442,0.922 -1.08,0.036 -8.183,6.927 -8.647,8.388 -0.227,0.716 -0.962,1.799 -1.632,2.405 -0.671,0.607 -1.219,1.326 -1.219,1.598 0,0.272 -0.794,1.84 -1.764,3.485 -0.969,1.645 -2.117,4.088 -2.549,5.428 -0.432,1.341 -0.99,2.716 -1.239,3.055 -0.249,0.34 -0.486,1.034 -0.528,1.543 -0.041,0.51 -0.518,3.149 -1.059,5.865 -5.164,25.913 15.775,52.655 43.766,55.896 22.597,2.617 46.077,-13.741 51.674,-35.999 0.407,-1.619 0.983,-3.094 1.281,-3.278 0.718,-0.443 0.703,-19.397 -0.016,-19.397 -0.306,0 -1.168,-2.011 -1.914,-4.468 -2.123,-6.991 -7.901,-16.737 -11.673,-19.691 -0.878,-0.688 -2.719,-2.27 -4.091,-3.515 -2.544,-2.31 -3.21,-2.75 -8.616,-5.697 -8.606,-4.692 -20.111,-6.43 -30.247,-4.569 m 21.605,3.286 c 9.295,2.69 22.337,12.328 25.605,18.92 0.503,1.015 1.561,2.855 2.35,4.089 3.487,5.45 6.176,19.704 5.05,26.768 -6.382,40.046 -52.603,55.612 -80.354,27.062 -9.433,-9.706 -14.969,-27.758 -12.128,-39.553 7.06,-29.313 32.315,-45.146 59.477,-37.286 m 97.389,-0.72 c -6.041,1.191 -5.46,13.104 0.912,18.713 4.502,3.963 8.338,4.043 10.699,0.222 4.467,-7.228 -3.672,-20.5 -11.611,-18.935 m 5.401,3.592 c 4.678,3.242 7.169,12.538 3.994,14.904 -4.518,3.368 -12.08,-4.567 -11.262,-11.818 0.553,-4.91 3.085,-5.985 7.268,-3.086 M 97.84,52.277 c -1.359,0.151 -2.734,0.534 -3.056,0.851 -0.323,0.316 -1.034,0.576 -1.582,0.576 -1.901,0 -7.136,2.97 -10.386,5.891 -18.407,16.55 -11.462,45.252 12.554,51.884 5.704,1.575 13.614,0.803 24.692,-2.41 11.982,-3.475 21.754,-19.44 18.827,-30.757 -0.34,-1.312 -0.911,-3.513 -1.27,-4.891 -2.399,-9.204 -11.747,-17.026 -22.804,-19.081 -2.207,-0.41 -4.29,-0.971 -4.63,-1.247 -0.779,-0.632 -9.071,-1.18 -12.345,-0.816 m 176.543,2.171 c -10.537,3.682 -7.287,22.149 4.592,26.095 4.778,1.587 11.766,-1.543 11.766,-5.27 0,-0.619 0.299,-1.311 0.666,-1.538 2.186,-1.351 -1.625,-11.82 -5.769,-15.846 -3.604,-3.502 -7.591,-4.721 -11.255,-3.441 m -165.266,0.804 c 23.65,5.576 28.91,37.686 8.323,50.808 -11.764,7.498 -29.987,3.959 -37.568,-7.295 -4.257,-6.319 -6.63,-15.16 -5.279,-19.667 0.394,-1.314 0.716,-3.105 0.716,-3.979 0,-0.874 0.277,-1.761 0.617,-1.971 0.339,-0.21 0.617,-0.797 0.617,-1.305 0,-1.299 4.811,-8.235 6.975,-10.056 0.992,-0.835 2.14,-1.854 2.552,-2.266 3.931,-3.931 15.44,-6.063 23.047,-4.269 m 172.633,2.16 c 4.58,2.261 8.728,10.855 7.534,15.61 -2.844,11.333 -18.687,4.804 -18.863,-7.775 -0.109,-7.775 4.705,-11.105 11.329,-7.835 m -152.442,6.416 c 2.737,2.766 4.204,5.111 6.756,10.802 1.406,3.136 0.77,13.596 -1.069,17.593 -2.085,4.531 -10.744,13.333 -13.116,13.333 -0.111,0 1.017,-1.238 2.508,-2.75 9.787,-9.927 10.547,-31.382 1.405,-39.655 -0.605,-0.548 -1.101,-1.37 -1.101,-1.827 0,-0.457 -0.208,-0.797 -0.463,-0.757 -1.024,0.162 -1.441,-0.106 -1.079,-0.692 0.578,-0.936 2.614,0.371 6.159,3.953 M 97.222,60.715 c -17.132,4.397 -22.544,26.217 -9.363,37.748 18.206,15.926 44.88,-3.66 34.419,-25.273 -4.726,-9.764 -15.234,-14.996 -25.056,-12.475 m 13.559,3.41 c 12.061,5.335 15.206,23.055 5.724,32.257 -9.006,8.739 -24.843,7.015 -30.748,-3.348 -2.892,-5.077 -4.125,-13.176 -2.487,-16.345 0.305,-0.589 1.052,-2.276 1.661,-3.748 3.494,-8.449 16.587,-12.914 25.85,-8.816 m 68.516,-1.123 c -0.492,0.795 0.339,1.791 7.277,8.722 2.971,2.968 5.401,5.788 5.401,6.267 0,1.335 -8.678,13.141 -13.227,17.997 -2.227,2.376 -4.051,4.529 -4.053,4.784 -0.018,2.317 13.005,-5.761 21.041,-13.052 l 4.069,-3.692 3.937,3.202 c 8.852,7.2 20.084,14.5 20.961,13.623 0.339,-0.339 -1.055,-2.278 -3.504,-4.875 -4.558,-4.831 -8.02,-9.208 -11.538,-14.585 l -2.377,-3.632 6.604,-7.153 c 6.805,-7.37 7.937,-9.96 3.004,-6.875 -2.659,1.663 -9.319,4.786 -10.206,4.786 -0.315,0 -1.723,0.555 -3.128,1.234 -1.405,0.679 -3.145,1.235 -3.867,1.235 -0.721,0 -2.461,-0.556 -3.866,-1.235 -1.406,-0.679 -2.93,-1.234 -3.388,-1.234 -0.458,0 -1.096,-0.236 -1.418,-0.525 -0.323,-0.288 -1.773,-0.983 -3.222,-1.543 -1.45,-0.56 -3.736,-1.713 -5.081,-2.562 -2.784,-1.758 -2.868,-1.779 -3.419,-0.887 m -77.98,5.108 c -0.377,0.454 -1.761,1.148 -3.076,1.542 -3.165,0.949 -7.888,5.966 -8.454,8.981 -0.231,1.235 -0.785,2.231 -1.239,2.231 -1.421,0 -1.652,1.227 -0.438,2.332 0.642,0.585 1.531,2.174 1.975,3.532 1.223,3.741 6.403,8.334 9.397,8.334 0.6,0 1.389,0.555 1.753,1.234 0.363,0.679 1.067,1.235 1.564,1.235 0.498,0 0.905,-0.556 0.905,-1.235 0,-0.831 0.411,-1.234 1.259,-1.234 1.283,0 4.973,-1.756 6.914,-3.291 0.59,-0.467 1.791,-2.471 2.668,-4.454 0.877,-1.982 2.06,-3.954 2.63,-4.381 0.945,-0.71 0.887,-0.916 -0.663,-2.376 -0.933,-0.878 -1.699,-2.072 -1.701,-2.653 -0.011,-2.722 -5.431,-7.793 -9.101,-8.514 -1.111,-0.219 -2.006,-0.777 -2.006,-1.252 0,-1.092 -1.49,-1.112 -2.387,-0.031 m 196.05,0.308 c -5.074,3.346 -6.635,10.031 -3.697,15.833 5.297,10.461 14.313,13.396 20.084,6.538 7.763,-9.226 -6.596,-28.828 -16.387,-22.371 m -104.436,2.56 c 6.298,2.803 7.37,2.931 10.961,1.308 7.185,-3.248 8.91,-3.764 6.873,-2.056 -0.7,0.586 -2.458,2.52 -3.907,4.297 l -2.636,3.231 2.091,2.633 c 1.149,1.449 2.491,3.218 2.981,3.932 0.49,0.714 1.789,2.485 2.886,3.935 3.939,5.207 1.455,4.392 -6.529,-2.141 -2.494,-2.04 -4.905,-3.974 -5.358,-4.297 -0.596,-0.424 -1.661,0.177 -3.831,2.161 -4.355,3.981 -6.297,5.541 -6.682,5.369 -0.187,-0.084 -1.049,0.53 -1.915,1.364 -2.682,2.581 -3.333,1.907 -1.074,-1.114 2.847,-3.807 8.271,-11.697 8.271,-12.032 0,-0.146 -2.014,-2.237 -4.476,-4.647 -5.205,-5.096 -5.042,-5.231 2.345,-1.943 m 111.515,-1.115 c 10.637,3.188 12.538,22.112 2.22,22.112 -6.604,0 -11.585,-5.912 -11.598,-13.765 -0.012,-7.231 3.29,-10.171 9.378,-8.347 m -195.58,3.398 c 3.342,2.346 4.406,4.577 4.406,9.243 0,9.548 -11.439,14.352 -18.415,7.735 -9.791,-9.288 2.955,-24.735 14.009,-16.978 m 163.967,12.696 c -10.304,7.013 -2.022,27.282 10.463,25.608 3.206,-0.43 7.414,-3.396 7.432,-5.238 0.007,-0.764 0.329,-1.389 0.715,-1.389 0.486,0 0.583,-1.018 0.314,-3.301 -1.122,-9.55 -7.383,-17.069 -14.213,-17.069 -1.753,0 -3.371,0.477 -4.711,1.389 m 7.044,1.138 c 5.595,1.554 10.258,9.68 9.233,16.092 -1.188,7.431 -10.662,8.419 -15.414,1.608 -6.75,-9.674 -3.052,-20.263 6.181,-17.7 m 17.963,11.587 c -11.049,5.027 -3.792,26.018 8.991,26.007 10.096,-0.008 12.25,-14.25 3.48,-23.02 -4.133,-4.133 -7.947,-5.046 -12.471,-2.987 m 8.383,2.6 c 7.467,3.737 10.1,16.682 4.132,20.32 -7.507,4.577 -16.359,-4.314 -15.132,-15.198 0.685,-6.076 5.041,-8.105 11,-5.122 m -169.547,20.309 c 30.399,7.775 34.475,49.733 6.183,63.661 -13.184,6.49 -32.291,2.806 -40.495,-7.808 -0.776,-1.005 -1.776,-2.205 -2.221,-2.667 -4.542,-4.716 -8.888,-26.201 -5.699,-28.172 0.34,-0.21 0.618,-0.927 0.618,-1.593 0,-2.32 3.655,-9.251 6.763,-12.825 8.76,-10.071 21.617,-13.98 34.851,-10.596 m -16.777,5.266 c -13.034,5.016 -23.473,20.388 -21.092,31.058 3.03,13.579 16.583,25.599 28.86,25.596 10.565,-0.003 23.379,-9.384 27.225,-19.931 0.434,-1.188 1.068,-2.753 1.409,-3.478 1.351,-2.864 0.34,-11.398 -1.864,-15.738 -7.473,-14.72 -22.28,-22.225 -34.538,-17.507 m 165.439,0.884 c 24.965,9.562 21.646,47.673 -4.623,53.094 -17.684,3.65 -33.764,-9.014 -33.932,-26.723 -0.19,-20.068 19.625,-33.621 38.555,-26.371 m -150.655,1.055 c 15.549,4.874 24.178,22.472 17.477,35.647 -11.48,22.576 -38.188,22.142 -48.91,-0.794 -8.56,-18.311 11.885,-40.98 31.433,-34.853 m 134.453,3.123 c -19.911,7.306 -22.465,32.328 -4.223,41.381 21.439,10.641 42.2,-16.065 26.441,-34.013 -5.273,-6.005 -16.125,-9.604 -22.218,-7.368 m 14.276,3.754 c 16.739,8.21 13.886,32.883 -4.297,37.158 -14.906,3.504 -26.637,-9.076 -23.407,-25.103 2.126,-10.551 17.304,-17.156 27.704,-12.055 m -9.643,5.045 c -0.227,1.346 -0.27,2.678 -0.095,2.962 0.473,0.765 -0.268,1.599 -2.775,3.122 -1.237,0.751 -2.708,2.333 -3.27,3.516 -0.979,2.065 -1.154,2.151 -4.35,2.151 -1.831,0 -3.493,0.264 -3.692,0.586 -0.523,0.847 1.724,1.882 4.107,1.893 2.406,0.011 3.146,0.424 4.141,2.314 0.405,0.769 1.801,2.07 3.103,2.892 2.156,1.361 2.405,1.803 2.8,4.964 0.542,4.338 1.805,4.255 2.064,-0.135 0.168,-2.864 0.386,-3.264 2.555,-4.7 1.305,-0.863 2.748,-2.418 3.207,-3.457 0.859,-1.94 1.241,-2.093 4.732,-1.9 2.114,0.116 4.065,-0.956 3.476,-1.91 -0.186,-0.301 -1.92,-0.557 -3.852,-0.569 l -3.513,-0.023 -1.234,-2.601 c -0.819,-1.724 -1.911,-2.898 -3.241,-3.484 -1.809,-0.796 -2.006,-1.14 -2.006,-3.499 0,-4.836 -1.456,-6.269 -2.157,-2.122 m 4.661,8.819 c 5.612,5.914 -2.549,13.293 -8.32,7.522 -1.401,-1.402 -1.237,-5.324 0.305,-7.284 1.726,-2.194 6.038,-2.322 8.015,-0.238 m -104.184,20.997 c -5.363,2.056 -7.837,7.032 -5.178,10.412 4.969,6.317 17.241,5.672 21.204,-1.114 3.38,-5.787 -7.986,-12.381 -16.026,-9.298 m 42.655,-0.21 c -9.317,1.526 -11.126,9.314 -3.123,13.45 10.646,5.502 23.837,-4.121 15.116,-11.028 -3.288,-2.604 -6.687,-3.291 -11.993,-2.422 m -31.607,2.88 c 3.349,1.733 4.615,5.344 2.515,7.177 -5.883,5.131 -19.773,1.994 -17.511,-3.955 1.582,-4.162 9.775,-5.922 14.996,-3.222 m 41.866,0.816 c 4.29,3.441 2.264,7.71 -4.138,8.722 -6.315,0.998 -11.455,-1.215 -11.788,-5.077 -0.463,-5.375 10.611,-7.909 15.926,-3.645"
       stroke="none"
       fill="#ffffff"
       fill-rule="evenodd" />
  </g>
</svg>
