<svg id="svg" version="1.1" xmlns="http://www.w3.org/2000/svg" xmlns:xlink="http://www.w3.org/1999/xlink" width="400" height="478.5" viewBox="0, 0, 400,478.5"><g id="svgg"><path id="path0" d="M195.375 8.717 C 193.863 9.246,191.725 10.076,190.625 10.561 C 189.525 11.047,187.556 11.864,186.250 12.379 C 184.944 12.893,183.649 13.453,183.373 13.623 C 183.097 13.793,181.185 14.692,179.123 15.622 C 177.062 16.552,174.306 17.816,173.000 18.432 C 166.126 21.671,165.292 22.052,158.853 24.893 C 155.840 26.222,152.363 27.786,151.125 28.367 C 149.888 28.949,147.525 30.011,145.875 30.728 C 144.225 31.445,142.650 32.130,142.375 32.250 C 140.243 33.179,139.257 33.591,138.500 33.868 C 137.783 34.131,129.723 37.593,126.875 38.861 C 125.524 39.462,124.416 39.915,121.500 41.057 C 117.568 42.598,105.798 47.255,104.875 47.635 C 103.219 48.317,101.552 48.966,100.184 49.460 C 97.656 50.374,96.028 50.968,94.684 51.468 C 93.964 51.736,91.406 52.654,89.000 53.507 C 86.594 54.360,83.388 55.508,81.875 56.059 C 76.595 57.980,71.470 59.668,60.000 63.263 C 57.731 63.974,54.740 64.937,53.353 65.403 C 51.966 65.869,50.639 66.250,50.403 66.250 C 50.168 66.250,49.659 66.414,49.272 66.614 C 48.885 66.814,47.062 67.372,45.222 67.854 C 43.381 68.337,40.806 69.029,39.500 69.393 C 38.194 69.757,36.731 70.143,36.250 70.250 C 35.769 70.357,34.250 70.747,32.875 71.117 C 28.852 72.197,20.783 74.276,18.750 74.755 C 17.719 74.998,16.204 75.378,15.385 75.599 C 14.565 75.819,13.700 76.000,13.461 76.000 C 11.865 76.000,11.417 77.416,10.339 85.875 C 9.161 95.122,8.675 121.027,9.426 134.500 C 9.788 141.002,10.447 148.907,10.885 152.000 C 11.089 153.444,11.368 155.975,11.504 157.625 C 11.639 159.275,11.859 161.131,11.992 161.750 C 12.124 162.369,12.351 164.169,12.495 165.750 C 12.640 167.331,12.918 169.469,13.114 170.500 C 13.309 171.531,13.590 173.387,13.737 174.625 C 13.885 175.863,14.110 177.438,14.238 178.125 C 14.366 178.813,14.716 181.006,15.015 183.000 C 16.246 191.208,18.480 202.784,20.417 211.000 C 21.102 213.903,21.740 216.834,22.120 218.821 C 22.325 219.892,22.595 220.961,22.721 221.196 C 22.847 221.432,23.028 222.188,23.123 222.875 C 23.218 223.563,23.451 224.688,23.640 225.375 C 23.830 226.063,24.613 229.156,25.382 232.250 C 26.151 235.344,27.008 238.662,27.286 239.625 C 27.564 240.588,28.011 242.162,28.279 243.125 C 28.933 245.478,29.665 248.031,30.250 250.000 C 30.515 250.894,30.965 252.439,31.249 253.435 C 33.657 261.871,35.478 267.497,37.259 272.000 C 37.558 272.756,37.960 273.825,38.153 274.375 C 38.346 274.925,38.611 275.564,38.743 275.794 C 38.874 276.025,39.384 277.263,39.876 278.544 C 40.367 279.826,40.873 281.100,41.000 281.375 C 41.127 281.650,41.634 282.926,42.127 284.211 C 43.266 287.182,44.772 290.545,47.294 295.750 C 51.765 304.980,53.709 308.736,57.886 316.211 C 58.167 316.714,58.944 318.137,59.612 319.375 C 60.959 321.867,62.033 323.668,64.833 328.125 C 65.870 329.775,67.586 332.531,68.647 334.250 C 71.752 339.281,79.366 350.429,83.500 355.996 C 84.944 357.941,86.294 359.778,86.500 360.078 C 87.512 361.553,91.731 367.051,92.868 368.375 C 93.577 369.200,95.426 371.533,96.979 373.560 C 98.531 375.587,100.498 378.005,101.350 378.935 C 102.202 379.864,103.773 381.720,104.842 383.058 C 105.911 384.397,107.761 386.582,108.955 387.914 C 110.148 389.246,112.420 391.807,114.003 393.605 C 115.587 395.404,117.162 397.160,117.503 397.508 C 117.845 397.857,120.501 400.670,123.405 403.760 C 128.874 409.578,140.818 421.448,145.148 425.367 C 146.510 426.601,148.525 428.474,149.625 429.531 C 150.725 430.588,152.919 432.542,154.500 433.873 C 157.298 436.229,159.668 438.298,161.988 440.411 C 162.613 440.980,164.150 442.218,165.402 443.161 C 168.237 445.295,171.575 447.943,173.729 449.769 C 175.251 451.058,177.138 452.389,185.314 457.942 C 188.305 459.973,192.622 462.383,194.152 462.875 C 194.580 463.012,195.094 463.262,195.294 463.430 C 195.495 463.598,196.241 463.861,196.952 464.013 C 197.664 464.166,198.309 464.394,198.388 464.520 C 198.572 464.819,200.428 464.819,200.612 464.520 C 200.691 464.394,201.336 464.166,202.048 464.013 C 202.759 463.861,203.505 463.598,203.706 463.430 C 203.906 463.262,204.420 463.012,204.848 462.875 C 206.378 462.383,210.695 459.973,213.686 457.942 C 221.862 452.389,223.749 451.058,225.271 449.769 C 227.425 447.943,230.763 445.295,233.598 443.161 C 234.850 442.218,236.387 440.980,237.012 440.411 C 239.332 438.298,241.702 436.229,244.500 433.873 C 246.081 432.542,248.275 430.588,249.375 429.531 C 250.475 428.474,252.490 426.601,253.852 425.367 C 258.182 421.448,270.126 409.578,275.595 403.760 C 278.499 400.670,281.155 397.857,281.497 397.508 C 281.838 397.160,283.413 395.404,284.997 393.605 C 286.580 391.807,288.852 389.246,290.045 387.914 C 291.239 386.582,293.089 384.397,294.158 383.058 C 295.227 381.720,296.798 379.864,297.650 378.935 C 298.502 378.005,300.469 375.587,302.021 373.560 C 303.574 371.533,305.423 369.200,306.132 368.375 C 307.269 367.051,311.488 361.553,312.500 360.078 C 312.706 359.778,314.056 357.941,315.500 355.996 C 319.634 350.429,327.248 339.281,330.353 334.250 C 331.414 332.531,333.130 329.775,334.167 328.125 C 336.967 323.668,338.041 321.867,339.388 319.375 C 340.056 318.137,340.833 316.714,341.114 316.211 C 345.291 308.736,347.235 304.980,351.706 295.750 C 354.228 290.545,355.734 287.182,356.873 284.211 C 357.366 282.926,357.873 281.650,358.000 281.375 C 358.127 281.100,358.633 279.826,359.124 278.544 C 359.616 277.263,360.126 276.025,360.257 275.794 C 360.389 275.564,360.654 274.925,360.847 274.375 C 361.040 273.825,361.442 272.756,361.741 272.000 C 363.522 267.497,365.343 261.871,367.751 253.435 C 368.035 252.439,368.485 250.894,368.750 250.000 C 369.335 248.031,370.067 245.478,370.721 243.125 C 370.989 242.162,371.436 240.588,371.714 239.625 C 371.992 238.662,372.849 235.344,373.618 232.250 C 374.387 229.156,375.170 226.063,375.360 225.375 C 375.549 224.688,375.782 223.563,375.877 222.875 C 375.972 222.188,376.153 221.432,376.279 221.196 C 376.405 220.961,376.675 219.892,376.880 218.821 C 377.260 216.834,377.898 213.903,378.583 211.000 C 380.520 202.784,382.754 191.208,383.985 183.000 C 384.284 181.006,384.634 178.813,384.762 178.125 C 384.890 177.438,385.115 175.863,385.263 174.625 C 385.410 173.387,385.691 171.531,385.886 170.500 C 386.082 169.469,386.360 167.331,386.505 165.750 C 386.649 164.169,386.876 162.369,387.008 161.750 C 387.141 161.131,387.361 159.275,387.496 157.625 C 387.632 155.975,387.911 153.444,388.115 152.000 C 390.258 136.853,390.556 100.753,388.661 85.875 C 387.583 77.416,387.135 76.000,385.539 76.000 C 385.300 76.000,384.435 75.819,383.615 75.599 C 382.796 75.378,381.281 74.998,380.250 74.755 C 378.217 74.276,370.148 72.197,366.125 71.117 C 364.750 70.747,363.231 70.357,362.750 70.250 C 362.269 70.143,360.806 69.757,359.500 69.393 C 358.194 69.029,355.619 68.337,353.778 67.854 C 351.938 67.372,350.115 66.814,349.728 66.614 C 349.341 66.414,348.832 66.250,348.597 66.250 C 348.361 66.250,347.034 65.869,345.647 65.403 C 344.260 64.937,341.269 63.974,339.000 63.263 C 327.530 59.668,322.405 57.980,317.125 56.059 C 315.613 55.508,312.406 54.360,310.000 53.507 C 307.594 52.654,305.036 51.736,304.316 51.468 C 302.972 50.968,301.344 50.374,298.816 49.460 C 297.448 48.966,295.781 48.317,294.125 47.635 C 293.202 47.255,281.432 42.598,277.500 41.057 C 274.584 39.915,273.476 39.462,272.125 38.861 C 269.277 37.593,261.217 34.131,260.500 33.868 C 259.743 33.591,258.757 33.179,256.625 32.250 C 256.350 32.130,254.775 31.445,253.125 30.728 C 251.475 30.011,249.112 28.949,247.875 28.367 C 246.637 27.786,243.160 26.222,240.147 24.893 C 233.708 22.052,232.874 21.671,226.000 18.432 C 224.694 17.816,221.938 16.552,219.877 15.622 C 217.815 14.692,215.903 13.793,215.627 13.623 C 215.351 13.453,214.056 12.891,212.750 12.375 C 211.444 11.859,209.250 10.953,207.875 10.364 C 201.080 7.449,199.570 7.250,195.375 8.717 M200.625 21.500 C 201.175 21.766,201.700 21.987,201.792 21.992 C 201.884 21.996,203.291 22.632,204.917 23.404 C 206.544 24.176,210.463 25.927,213.625 27.295 C 227.064 33.109,226.055 32.507,225.217 34.201 C 222.329 40.037,214.041 37.978,215.757 31.851 C 216.431 29.441,214.405 29.977,213.098 32.554 C 211.634 35.441,212.701 39.059,215.673 41.286 C 216.912 42.215,216.901 42.124,216.128 44.995 C 213.613 54.332,226.721 60.016,231.126 51.498 C 232.090 49.634,231.013 48.342,229.695 49.781 C 226.611 53.148,222.098 52.147,221.801 48.030 C 221.632 45.700,223.128 42.889,224.821 42.353 C 226.473 41.830,229.345 39.480,231.907 36.556 L 232.625 35.737 234.500 36.501 C 235.531 36.921,236.713 37.423,237.125 37.615 C 237.537 37.808,239.225 38.546,240.875 39.256 C 243.783 40.508,244.847 40.973,246.813 41.854 C 248.058 42.411,248.079 42.327,245.513 47.074 C 244.282 49.351,242.310 53.106,241.130 55.419 C 239.949 57.732,238.640 60.244,238.220 61.000 C 236.714 63.713,233.040 70.676,231.723 73.313 C 230.228 76.307,230.141 76.362,228.219 75.522 C 227.617 75.259,225.775 74.852,224.125 74.617 C 220.866 74.154,219.803 73.740,218.575 72.459 C 214.919 68.645,218.222 63.489,223.123 65.361 C 226.614 66.694,226.329 64.051,222.795 62.327 C 214.727 58.391,207.829 69.042,213.837 76.161 C 214.629 77.100,214.649 77.338,214.013 78.232 C 211.804 81.334,212.028 84.928,214.603 87.709 C 216.515 89.774,218.516 89.430,217.044 87.289 C 213.743 82.489,219.588 77.721,224.452 81.244 C 226.587 82.790,226.587 82.802,224.519 86.834 C 223.520 88.781,222.476 90.572,222.199 90.813 C 221.419 91.490,177.581 91.490,176.801 90.813 C 176.524 90.572,175.480 88.781,174.481 86.834 C 172.413 82.802,172.413 82.790,174.548 81.244 C 179.412 77.721,185.257 82.489,181.956 87.289 C 180.484 89.430,182.485 89.774,184.397 87.709 C 186.972 84.928,187.196 81.334,184.987 78.232 C 184.351 77.338,184.371 77.100,185.163 76.161 C 191.171 69.042,184.273 58.391,176.205 62.327 C 172.671 64.051,172.386 66.694,175.877 65.361 C 180.778 63.489,184.081 68.645,180.425 72.459 C 179.197 73.740,178.134 74.154,174.875 74.617 C 173.225 74.852,171.383 75.259,170.781 75.522 C 168.859 76.362,168.772 76.307,167.277 73.313 C 165.960 70.676,162.286 63.713,160.780 61.000 C 160.360 60.244,159.051 57.732,157.870 55.419 C 156.690 53.106,154.718 49.351,153.487 47.074 C 150.921 42.327,150.942 42.411,152.188 41.854 C 154.153 40.973,155.217 40.508,158.125 39.256 C 159.775 38.546,161.463 37.808,161.875 37.615 C 162.287 37.423,163.469 36.921,164.500 36.501 L 166.375 35.737 167.093 36.556 C 169.655 39.480,172.527 41.830,174.179 42.353 C 175.872 42.889,177.368 45.700,177.199 48.030 C 176.902 52.147,172.389 53.148,169.305 49.781 C 167.987 48.342,166.910 49.634,167.874 51.498 C 172.279 60.016,185.387 54.332,182.872 44.995 C 182.099 42.124,182.088 42.215,183.327 41.286 C 186.299 39.059,187.366 35.441,185.902 32.554 C 184.595 29.977,182.569 29.441,183.243 31.851 C 184.959 37.978,176.671 40.037,173.783 34.201 C 172.945 32.507,171.936 33.109,185.375 27.295 C 188.537 25.927,192.456 24.176,194.083 23.404 C 195.709 22.632,197.116 21.996,197.208 21.992 C 197.300 21.987,197.825 21.766,198.375 21.500 C 198.925 21.234,199.431 21.017,199.500 21.017 C 199.569 21.017,200.075 21.234,200.625 21.500 M190.125 35.842 C 185.282 38.117,186.771 45.250,192.089 45.250 C 197.672 45.250,198.639 37.330,193.275 35.535 C 192.061 35.128,191.536 35.179,190.125 35.842 M205.625 35.552 C 200.355 37.394,201.396 45.250,206.911 45.250 C 212.229 45.250,213.718 38.117,208.875 35.842 C 207.525 35.208,206.795 35.143,205.625 35.552 M150.299 68.188 C 150.506 68.428,151.710 70.511,152.974 72.816 C 154.238 75.121,156.055 78.314,157.011 79.912 C 157.968 81.509,158.750 82.868,158.750 82.932 C 158.750 82.996,158.961 83.346,159.219 83.711 C 159.477 84.076,160.284 85.500,161.013 86.875 C 161.742 88.250,163.089 90.669,164.006 92.250 C 164.923 93.831,166.321 96.250,167.111 97.625 C 169.266 101.373,167.810 101.000,180.294 101.000 C 191.813 101.000,191.857 101.005,192.129 102.310 C 192.390 103.559,193.359 105.070,194.549 106.083 C 195.141 106.587,195.822 107.168,196.063 107.375 C 196.472 107.726,196.500 109.022,196.500 127.965 L 196.500 148.180 195.840 149.153 C 195.478 149.687,194.703 150.688,194.119 151.375 C 193.535 152.063,191.436 154.762,189.455 157.375 C 185.836 162.147,179.329 170.647,176.441 174.375 C 175.589 175.475,173.399 178.344,171.573 180.750 C 169.748 183.156,167.019 186.700,165.509 188.625 C 164.000 190.550,162.289 192.800,161.708 193.625 C 161.128 194.450,159.796 196.194,158.748 197.500 C 157.701 198.806,155.253 201.969,153.309 204.528 C 149.230 209.895,149.401 209.736,144.094 213.116 C 136.079 218.221,135.308 218.619,134.070 218.288 C 126.753 216.331,122.440 225.701,128.784 229.772 C 132.464 232.133,138.047 229.657,138.322 225.541 C 138.406 224.289,138.644 224.021,140.826 222.713 C 141.816 222.120,144.399 220.535,146.567 219.192 L 150.508 216.750 199.500 216.750 L 248.492 216.750 252.433 219.192 C 254.601 220.535,257.184 222.120,258.174 222.713 C 260.356 224.021,260.594 224.289,260.678 225.541 C 260.953 229.657,266.536 232.133,270.216 229.772 C 276.560 225.701,272.247 216.331,264.930 218.288 C 263.692 218.619,262.921 218.221,254.906 213.116 C 249.599 209.736,249.770 209.895,245.691 204.528 C 243.747 201.969,241.299 198.806,240.252 197.500 C 239.204 196.194,237.872 194.450,237.292 193.625 C 236.711 192.800,235.000 190.550,233.491 188.625 C 231.981 186.700,229.252 183.156,227.427 180.750 C 225.601 178.344,223.411 175.475,222.559 174.375 C 219.671 170.647,213.164 162.147,209.545 157.375 C 207.564 154.762,205.465 152.063,204.881 151.375 C 204.297 150.688,203.522 149.687,203.160 149.153 L 202.500 148.180 202.500 127.965 C 202.500 109.022,202.528 107.726,202.938 107.375 C 203.178 107.168,203.859 106.587,204.451 106.083 C 205.641 105.070,206.610 103.559,206.871 102.310 C 207.143 101.005,207.187 101.000,218.706 101.000 C 231.190 101.000,229.734 101.373,231.889 97.625 C 232.679 96.250,234.077 93.831,234.994 92.250 C 235.911 90.669,237.258 88.250,237.987 86.875 C 238.716 85.500,239.523 84.076,239.781 83.711 C 240.039 83.346,240.250 82.996,240.250 82.932 C 240.250 82.868,241.046 81.486,242.019 79.861 C 242.992 78.236,244.854 74.967,246.158 72.597 C 249.139 67.178,248.871 67.329,252.875 68.833 C 253.425 69.039,254.831 69.517,256.000 69.893 C 257.169 70.270,258.575 70.724,259.125 70.902 C 261.255 71.591,268.461 73.816,270.125 74.299 C 271.087 74.579,272.325 74.949,272.875 75.123 C 273.425 75.296,274.831 75.733,276.000 76.094 C 277.169 76.454,281.050 77.698,284.625 78.858 C 290.804 80.862,296.530 82.655,300.375 83.790 C 301.337 84.075,302.631 84.471,303.250 84.671 C 303.869 84.871,304.938 85.187,305.625 85.372 C 306.313 85.558,307.212 85.833,307.625 85.984 C 309.449 86.653,324.495 91.478,326.000 91.877 C 326.897 92.115,332.875 93.954,334.500 94.492 C 335.256 94.743,336.353 95.076,336.938 95.234 C 337.960 95.509,338.400 96.224,337.782 96.605 C 337.662 96.679,335.923 98.908,333.916 101.557 C 331.909 104.207,329.082 107.882,327.634 109.725 C 324.794 113.337,324.513 114.055,325.462 115.279 C 330.647 121.963,336.842 133.652,338.478 139.839 C 339.098 142.181,339.340 142.297,342.250 141.634 C 343.144 141.431,344.944 141.035,346.250 140.755 C 347.556 140.475,349.637 140.024,350.875 139.752 C 352.113 139.480,354.250 139.026,355.625 138.744 C 357.000 138.461,358.705 138.084,359.415 137.905 C 361.090 137.482,361.498 137.711,361.505 139.075 C 361.515 140.974,360.745 152.304,360.364 155.875 C 360.158 157.800,359.876 161.037,359.737 163.068 C 359.597 165.099,359.382 167.027,359.259 167.352 C 359.135 167.676,358.964 169.052,358.877 170.409 C 358.791 171.765,358.560 173.721,358.364 174.754 C 358.169 175.788,357.895 177.726,357.757 179.060 C 357.618 180.395,357.390 182.002,357.248 182.632 C 357.107 183.263,356.831 184.925,356.635 186.327 C 356.108 190.094,355.792 191.867,353.380 204.625 C 352.626 208.613,351.879 212.381,351.719 213.000 C 351.560 213.619,351.288 214.912,351.116 215.875 C 350.812 217.571,350.256 220.072,349.725 222.125 C 349.582 222.675,349.320 223.800,349.142 224.625 C 348.964 225.450,348.648 226.688,348.440 227.375 C 348.232 228.063,347.928 229.131,347.766 229.750 C 347.603 230.369,347.321 231.438,347.139 232.125 C 346.488 234.581,343.209 245.643,342.858 246.568 C 342.661 247.086,342.500 247.740,342.500 248.021 C 342.500 248.302,342.289 249.059,342.031 249.704 C 341.773 250.348,341.217 251.944,340.796 253.250 C 339.823 256.264,338.562 259.782,337.279 263.058 C 334.379 270.462,331.490 277.712,331.176 278.375 C 330.980 278.788,330.326 280.183,329.722 281.477 C 329.119 282.771,327.158 286.765,325.364 290.352 C 322.144 296.794,318.922 302.384,313.140 311.561 C 310.839 315.212,302.378 326.240,300.582 327.928 C 299.724 328.734,298.464 327.957,285.694 318.749 C 283.134 316.903,282.953 316.991,279.293 321.875 C 277.851 323.800,275.302 327.063,273.629 329.125 C 267.487 336.699,267.176 337.219,267.848 338.804 C 268.361 340.014,270.104 344.529,271.108 347.250 C 272.132 350.024,274.018 354.635,274.450 355.421 C 274.906 356.250,274.822 356.679,273.954 357.955 C 272.338 360.333,264.914 369.885,264.560 370.043 C 264.458 370.088,262.700 371.925,260.654 374.125 C 254.711 380.512,247.630 386.844,239.267 393.250 C 237.741 394.419,235.960 395.783,235.309 396.282 C 233.419 397.729,226.923 402.000,226.611 402.000 C 226.215 402.000,225.594 401.244,225.378 400.500 C 225.278 400.156,224.436 398.131,223.506 396.000 C 222.576 393.869,221.562 391.450,221.252 390.625 C 220.942 389.800,220.546 388.844,220.371 388.500 C 220.196 388.156,219.934 387.481,219.790 387.000 C 219.266 385.253,217.445 380.612,216.748 379.246 C 215.974 377.729,216.215 377.750,199.500 377.750 C 182.785 377.750,183.026 377.729,182.252 379.246 C 181.555 380.612,179.734 385.253,179.210 387.000 C 179.066 387.481,178.804 388.156,178.629 388.500 C 178.454 388.844,178.058 389.800,177.748 390.625 C 177.438 391.450,176.424 393.869,175.494 396.000 C 174.564 398.131,173.722 400.156,173.622 400.500 C 173.406 401.244,172.785 402.000,172.389 402.000 C 172.077 402.000,165.581 397.729,163.691 396.282 C 163.040 395.783,161.259 394.419,159.733 393.250 C 151.370 386.844,144.289 380.512,138.346 374.125 C 136.300 371.925,134.542 370.088,134.440 370.043 C 134.086 369.885,126.662 360.333,125.046 357.955 C 124.178 356.679,124.094 356.250,124.550 355.421 C 124.982 354.635,126.868 350.024,127.892 347.250 C 128.896 344.529,130.639 340.014,131.152 338.804 C 131.824 337.219,131.513 336.699,125.371 329.125 C 123.698 327.063,121.149 323.800,119.707 321.875 C 116.047 316.991,115.866 316.903,113.306 318.749 C 100.536 327.957,99.276 328.734,98.418 327.928 C 96.622 326.240,88.161 315.212,85.860 311.561 C 80.078 302.384,76.856 296.794,73.636 290.352 C 71.842 286.765,69.881 282.771,69.278 281.477 C 68.674 280.183,68.020 278.788,67.824 278.375 C 67.510 277.712,64.621 270.462,61.721 263.058 C 60.438 259.782,59.177 256.264,58.204 253.250 C 57.783 251.944,57.227 250.348,56.969 249.704 C 56.711 249.059,56.500 248.302,56.500 248.021 C 56.500 247.740,56.339 247.086,56.142 246.568 C 55.791 245.643,52.512 234.581,51.861 232.125 C 51.679 231.438,51.397 230.369,51.234 229.750 C 51.072 229.131,50.768 228.063,50.560 227.375 C 50.352 226.688,50.036 225.450,49.858 224.625 C 49.680 223.800,49.418 222.675,49.275 222.125 C 48.744 220.072,48.188 217.571,47.884 215.875 C 47.712 214.912,47.440 213.619,47.281 213.000 C 47.121 212.381,46.374 208.613,45.620 204.625 C 43.208 191.867,42.892 190.094,42.365 186.327 C 42.169 184.925,41.893 183.263,41.752 182.632 C 41.610 182.002,41.382 180.395,41.243 179.060 C 41.105 177.726,40.831 175.788,40.636 174.754 C 40.440 173.721,40.209 171.765,40.123 170.409 C 40.036 169.052,39.865 167.676,39.741 167.352 C 39.618 167.027,39.403 165.099,39.263 163.068 C 39.124 161.037,38.842 157.800,38.636 155.875 C 38.255 152.304,37.485 140.974,37.495 139.075 C 37.502 137.711,37.910 137.482,39.585 137.905 C 40.295 138.084,42.000 138.461,43.375 138.744 C 44.750 139.026,46.888 139.480,48.125 139.752 C 49.362 140.024,51.444 140.475,52.750 140.755 C 54.056 141.035,55.856 141.431,56.750 141.634 C 59.660 142.297,59.902 142.181,60.522 139.839 C 62.158 133.652,68.353 121.963,73.538 115.279 C 74.487 114.055,74.206 113.337,71.366 109.725 C 69.918 107.882,67.091 104.207,65.084 101.557 C 63.077 98.908,61.338 96.679,61.218 96.605 C 60.600 96.224,61.040 95.509,62.063 95.234 C 62.647 95.076,63.744 94.743,64.500 94.492 C 66.125 93.954,72.103 92.115,73.000 91.877 C 74.505 91.478,89.551 86.653,91.375 85.984 C 91.787 85.833,92.688 85.558,93.375 85.372 C 94.063 85.187,95.131 84.871,95.750 84.671 C 96.369 84.471,97.662 84.075,98.625 83.790 C 102.470 82.655,108.196 80.862,114.375 78.858 C 117.950 77.698,121.831 76.454,123.000 76.094 C 124.169 75.733,125.575 75.296,126.125 75.123 C 126.675 74.949,127.912 74.579,128.875 74.299 C 130.539 73.816,137.745 71.591,139.875 70.902 C 140.425 70.724,141.831 70.269,143.000 69.892 C 144.169 69.514,145.631 69.019,146.250 68.792 C 147.156 68.459,148.943 67.945,149.774 67.780 C 149.856 67.763,150.092 67.947,150.299 68.188 M190.931 73.991 C 186.801 74.789,185.926 80.721,189.620 82.885 C 193.408 85.105,198.061 81.312,196.585 77.206 C 196.028 75.659,194.296 74.000,193.235 74.000 C 192.853 74.000,192.391 73.957,192.208 73.904 C 192.025 73.852,191.450 73.891,190.931 73.991 M205.957 73.944 C 202.586 74.251,201.041 79.181,203.428 82.017 C 205.197 84.120,209.344 83.940,210.801 81.698 C 213.355 77.767,210.697 73.513,205.957 73.944 M128.000 98.140 C 126.281 99.043,124.200 100.207,123.375 100.727 C 112.322 107.694,109.351 109.773,102.125 115.600 C 95.338 121.073,84.783 131.784,80.296 137.750 C 73.620 146.627,71.146 150.395,67.102 157.847 C 66.290 159.343,65.365 161.031,65.048 161.597 C 63.469 164.408,59.717 173.333,58.875 176.280 C 58.694 176.915,58.426 177.646,58.279 177.905 C 58.000 178.398,57.187 180.839,56.249 184.000 C 55.943 185.031,55.543 186.325,55.359 186.875 C 54.954 188.090,53.630 193.806,53.275 195.875 C 52.208 202.088,51.852 205.139,52.101 205.926 C 52.382 206.811,53.140 207.146,68.250 213.059 C 70.381 213.893,72.582 214.784,73.141 215.038 C 73.700 215.292,74.246 215.500,74.354 215.500 C 74.554 215.500,75.045 215.708,77.547 216.851 C 78.329 217.208,79.032 217.500,79.108 217.500 C 79.184 217.500,80.907 218.193,82.936 219.039 C 86.760 220.635,87.600 220.965,91.375 222.359 C 92.612 222.817,94.019 223.361,94.500 223.570 C 98.055 225.112,98.568 225.096,99.020 223.435 C 101.893 212.893,105.632 207.867,112.326 205.550 C 114.480 204.805,119.398 204.504,121.415 204.994 C 122.080 205.156,123.244 205.440,124.000 205.625 C 124.756 205.811,125.967 206.196,126.690 206.481 C 128.594 207.232,129.349 207.167,130.109 206.188 C 131.596 204.271,135.919 198.448,139.993 192.875 C 148.103 181.781,148.864 180.744,152.342 176.052 C 154.249 173.480,156.359 170.588,157.031 169.625 C 158.744 167.172,159.827 165.695,162.101 162.715 C 164.569 159.481,164.537 159.656,162.972 157.868 C 156.545 150.527,156.894 142.662,163.989 134.942 C 165.140 133.690,166.007 133.027,167.380 132.348 L 169.225 131.436 172.050 131.555 C 173.978 131.635,175.192 131.813,175.875 132.112 C 178.475 133.254,180.680 134.498,182.445 135.819 C 185.962 138.449,187.047 137.720,185.843 133.538 C 182.878 123.240,169.803 116.597,158.250 119.519 C 143.546 123.238,136.732 136.001,140.443 152.875 C 140.715 154.113,141.069 155.453,141.229 155.855 C 141.574 156.721,141.344 157.125,137.986 161.554 C 136.810 163.106,134.954 165.648,133.861 167.205 C 132.769 168.761,131.420 170.617,130.864 171.330 C 130.308 172.042,128.809 174.059,127.533 175.813 C 124.880 179.456,124.758 179.526,122.317 178.794 C 109.742 175.022,93.957 180.163,86.219 190.550 C 84.589 192.738,84.800 192.719,79.574 191.127 C 77.088 190.370,74.886 189.750,74.680 189.750 C 74.474 189.750,74.053 189.546,73.745 189.296 L 73.185 188.843 73.610 187.109 C 74.361 184.044,75.552 179.779,76.153 178.000 C 76.363 177.381,76.635 176.481,76.758 176.000 C 77.714 172.271,85.232 154.617,87.511 150.750 C 87.876 150.131,88.995 148.162,89.998 146.375 C 94.159 138.962,97.426 134.067,103.844 125.625 C 110.751 116.540,121.951 105.384,130.947 98.626 C 131.890 97.918,132.249 97.488,132.197 97.129 C 132.071 96.247,131.209 96.455,128.000 98.140 M266.917 96.667 C 266.489 97.095,266.858 97.728,268.063 98.633 C 277.046 105.381,288.252 116.545,295.156 125.625 C 301.574 134.067,304.841 138.962,309.002 146.375 C 310.005 148.162,311.124 150.131,311.489 150.750 C 313.768 154.617,321.286 172.271,322.242 176.000 C 322.365 176.481,322.637 177.381,322.847 178.000 C 323.448 179.779,324.639 184.044,325.390 187.109 L 325.815 188.843 325.255 189.296 C 324.947 189.546,324.526 189.750,324.320 189.750 C 324.114 189.750,321.912 190.370,319.426 191.127 C 314.200 192.719,314.411 192.738,312.781 190.550 C 305.043 180.163,289.258 175.022,276.683 178.794 C 274.242 179.526,274.120 179.456,271.467 175.813 C 270.191 174.059,268.692 172.042,268.136 171.330 C 267.580 170.617,266.231 168.761,265.139 167.205 C 264.046 165.648,262.190 163.106,261.014 161.554 C 257.656 157.125,257.426 156.721,257.771 155.855 C 260.059 150.116,260.068 139.987,257.790 133.875 C 255.500 127.728,251.704 124.028,244.250 120.675 C 232.442 115.364,216.490 121.964,213.157 133.538 C 211.953 137.720,213.038 138.449,216.555 135.819 C 218.320 134.498,220.525 133.254,223.125 132.112 C 223.808 131.813,225.022 131.635,226.950 131.555 L 229.775 131.436 231.620 132.348 C 232.993 133.027,233.860 133.690,235.011 134.942 C 242.106 142.662,242.455 150.527,236.028 157.868 C 234.463 159.656,234.431 159.481,236.899 162.715 C 239.173 165.695,240.256 167.172,241.969 169.625 C 242.641 170.588,244.751 173.480,246.658 176.052 C 250.136 180.744,250.897 181.781,259.007 192.875 C 263.081 198.448,267.404 204.271,268.891 206.188 C 269.651 207.167,270.406 207.232,272.310 206.481 C 273.033 206.196,274.244 205.811,275.000 205.625 C 275.756 205.440,276.920 205.156,277.585 204.994 C 279.602 204.504,284.520 204.805,286.674 205.550 C 293.368 207.867,297.107 212.893,299.980 223.435 C 300.432 225.096,300.945 225.112,304.500 223.570 C 304.981 223.361,306.387 222.817,307.625 222.359 C 311.400 220.965,312.240 220.635,316.064 219.039 C 318.093 218.193,319.816 217.500,319.892 217.500 C 319.968 217.500,320.671 217.208,321.453 216.851 C 323.955 215.708,324.446 215.500,324.646 215.500 C 324.754 215.500,325.300 215.292,325.859 215.038 C 326.418 214.784,328.619 213.893,330.750 213.059 C 345.860 207.146,346.618 206.811,346.899 205.926 C 347.148 205.139,346.792 202.088,345.725 195.875 C 345.370 193.806,344.046 188.090,343.641 186.875 C 343.457 186.325,343.057 185.031,342.751 184.000 C 341.813 180.839,341.000 178.398,340.721 177.905 C 340.574 177.646,340.306 176.915,340.125 176.280 C 339.283 173.333,335.531 164.408,333.952 161.597 C 333.635 161.031,332.710 159.343,331.898 157.847 C 327.854 150.395,325.380 146.627,318.704 137.750 C 309.974 126.142,295.194 113.097,279.625 103.257 C 278.250 102.388,276.524 101.292,275.791 100.821 C 272.164 98.496,267.344 96.239,266.917 96.667 M50.173 108.374 C 58.453 112.467,55.724 124.796,46.448 125.201 C 35.858 125.664,33.493 110.549,43.694 107.604 C 45.652 107.039,48.046 107.323,50.173 108.374 M355.191 107.606 C 363.357 109.780,364.253 120.942,356.552 124.567 C 352.592 126.430,347.410 124.751,345.133 120.867 C 341.123 114.024,347.537 105.569,355.191 107.606 M202.453 155.520 C 203.871 157.365,205.797 159.897,206.734 161.147 C 207.672 162.396,209.549 164.836,210.907 166.569 C 212.264 168.301,213.937 170.485,214.623 171.422 C 215.310 172.359,216.997 174.542,218.373 176.275 C 219.749 178.007,221.899 180.820,223.151 182.525 C 224.403 184.230,226.541 187.031,227.902 188.750 C 229.263 190.469,230.873 192.550,231.480 193.375 C 232.086 194.200,234.587 197.463,237.037 200.625 C 243.195 208.575,245.019 211.072,244.941 211.446 C 244.843 211.922,154.157 211.922,154.059 211.446 C 153.981 211.072,155.805 208.575,161.963 200.625 C 164.413 197.463,166.914 194.200,167.520 193.375 C 168.127 192.550,169.737 190.469,171.098 188.750 C 172.459 187.031,174.597 184.230,175.849 182.525 C 177.101 180.820,179.251 178.007,180.627 176.275 C 182.003 174.542,183.690 172.359,184.377 171.422 C 185.063 170.485,186.739 168.297,188.101 166.559 C 189.463 164.820,191.210 162.549,191.983 161.512 C 192.757 160.474,193.912 158.950,194.551 158.125 C 195.190 157.300,196.517 155.578,197.500 154.298 C 199.653 151.497,199.294 151.408,202.453 155.520 M198.412 158.818 C 197.596 159.666,192.176 166.642,187.410 172.979 C 185.901 174.984,183.899 177.560,182.959 178.703 C 179.289 183.169,178.125 182.875,199.500 182.875 C 220.875 182.875,219.711 183.169,216.041 178.703 C 215.101 177.560,213.099 174.984,211.590 172.979 C 203.325 161.989,200.105 158.000,199.500 158.000 C 199.335 158.000,198.846 158.368,198.412 158.818 M177.768 185.688 C 175.719 188.213,172.573 192.253,169.931 195.750 C 168.321 197.881,165.606 201.425,163.897 203.625 C 158.661 210.369,157.135 209.750,178.996 209.750 C 197.915 209.750,197.500 209.776,197.500 208.591 C 197.500 207.926,192.141 200.539,188.637 196.375 C 188.058 195.688,186.644 193.831,185.493 192.250 C 183.491 189.497,182.106 187.721,180.375 185.688 C 179.922 185.156,179.350 184.750,179.053 184.750 C 178.749 184.750,178.209 185.144,177.768 185.688 M218.968 185.226 C 218.779 185.488,217.944 186.529,217.112 187.539 C 216.280 188.549,214.657 190.669,213.507 192.250 C 212.356 193.831,210.942 195.688,210.363 196.375 C 206.859 200.539,201.500 207.926,201.500 208.591 C 201.500 209.776,201.085 209.750,220.004 209.750 C 241.865 209.750,240.339 210.369,235.103 203.625 C 233.394 201.425,230.679 197.881,229.069 195.750 C 226.427 192.253,223.281 188.213,221.232 185.688 C 220.382 184.639,219.518 184.463,218.968 185.226 M77.500 231.247 C 77.000 231.566,77.070 238.338,77.599 240.875 C 77.800 241.838,78.037 243.188,78.125 243.875 C 78.443 246.367,79.872 250.417,81.079 252.250 C 83.403 255.778,85.706 257.147,91.625 258.520 C 92.725 258.775,94.075 259.095,94.625 259.232 C 96.948 259.810,100.212 260.475,101.375 260.607 C 102.063 260.686,103.356 260.915,104.250 261.117 C 106.364 261.594,111.092 262.430,113.621 262.772 C 114.719 262.921,115.693 263.090,115.786 263.147 C 116.127 263.358,135.839 265.968,141.125 266.502 C 142.637 266.655,144.325 266.859,144.875 266.957 L 145.875 267.133 145.875 269.254 L 145.875 271.375 139.625 271.294 C 136.188 271.249,132.988 271.111,132.515 270.988 C 132.042 270.865,128.948 270.697,125.640 270.615 C 122.332 270.533,118.514 270.300,117.156 270.098 C 115.798 269.895,112.986 269.624,110.906 269.495 C 108.827 269.365,106.731 269.150,106.250 269.016 C 105.769 268.881,104.019 268.656,102.361 268.515 C 100.703 268.374,98.565 268.097,97.611 267.900 C 94.245 267.204,91.039 266.906,90.626 267.249 C 88.831 268.739,95.985 280.150,100.764 283.420 C 103.817 285.508,109.922 286.083,117.875 285.031 C 118.975 284.885,121.394 284.585,123.250 284.363 C 127.056 283.909,135.966 282.551,136.235 282.384 C 136.332 282.324,137.416 282.152,138.643 282.001 C 139.871 281.850,141.430 281.563,142.108 281.363 C 142.786 281.163,143.690 281.000,144.118 281.000 C 144.545 281.000,145.554 280.828,146.358 280.619 C 148.068 280.173,148.317 280.302,149.364 282.175 C 150.153 283.588,150.130 283.628,147.581 285.239 C 143.717 287.683,138.604 290.243,129.750 294.168 C 128.031 294.930,126.168 295.766,125.609 296.026 C 125.050 296.287,124.425 296.500,124.221 296.500 C 124.017 296.500,123.743 296.601,123.612 296.725 C 123.296 297.024,120.715 298.026,117.526 299.086 C 112.069 300.902,112.829 302.473,120.701 305.650 C 132.571 310.441,137.191 308.696,152.750 293.544 C 156.415 289.975,155.746 290.193,158.025 291.825 C 160.578 293.653,160.577 293.992,158.001 298.250 C 157.876 298.456,156.734 300.369,155.463 302.500 C 151.727 308.764,148.307 313.128,145.938 314.653 C 143.608 316.152,146.313 317.141,149.687 316.023 C 150.478 315.761,151.671 315.480,152.338 315.400 C 153.499 315.259,154.288 315.039,157.625 313.925 C 160.078 313.106,162.914 311.530,163.902 310.437 C 165.681 308.468,167.880 302.822,168.377 298.948 C 168.632 296.959,169.008 296.718,171.375 297.029 C 178.887 298.016,183.120 295.294,183.077 289.503 C 183.043 284.934,180.700 282.947,175.000 282.656 C 164.861 282.137,158.828 277.852,156.525 269.533 C 154.512 262.260,155.799 252.233,159.784 244.151 C 160.916 241.854,160.346 241.181,158.196 242.278 C 155.795 243.502,153.121 246.709,151.130 250.750 C 150.487 252.056,149.818 253.406,149.645 253.750 C 149.471 254.094,149.069 255.088,148.751 255.960 C 148.091 257.767,147.912 257.895,146.585 257.501 C 145.445 257.162,142.546 256.391,137.250 255.017 C 135.119 254.464,132.813 253.848,132.125 253.648 C 131.438 253.448,129.975 253.039,128.875 252.739 C 125.296 251.763,123.398 251.210,122.125 250.769 C 121.438 250.531,120.313 250.141,119.625 249.902 C 118.938 249.663,117.869 249.316,117.250 249.129 C 116.631 248.943,115.000 248.378,113.625 247.873 C 112.250 247.368,109.944 246.530,108.500 246.010 C 107.056 245.490,104.862 244.671,103.625 244.191 C 102.388 243.710,100.816 243.108,100.133 242.854 C 99.449 242.599,98.497 242.190,98.017 241.945 C 97.537 241.700,97.026 241.500,96.881 241.500 C 96.533 241.500,86.678 236.531,85.317 235.669 C 84.736 235.301,84.199 235.000,84.126 235.000 C 83.842 235.000,79.854 232.423,79.063 231.730 C 78.151 230.928,78.049 230.897,77.500 231.247 M319.937 231.730 C 319.146 232.423,315.158 235.000,314.874 235.000 C 314.801 235.000,314.264 235.301,313.683 235.669 C 312.322 236.531,302.467 241.500,302.119 241.500 C 301.974 241.500,301.463 241.700,300.983 241.945 C 300.503 242.190,299.551 242.599,298.867 242.854 C 298.184 243.108,296.613 243.710,295.375 244.191 C 294.137 244.671,291.944 245.490,290.500 246.010 C 289.056 246.530,286.750 247.368,285.375 247.873 C 284.000 248.378,282.369 248.943,281.750 249.129 C 281.131 249.316,280.063 249.663,279.375 249.902 C 278.688 250.141,277.563 250.531,276.875 250.769 C 275.602 251.210,273.704 251.763,270.125 252.739 C 269.025 253.039,267.563 253.448,266.875 253.648 C 266.188 253.848,263.881 254.464,261.750 255.017 C 256.454 256.391,253.555 257.162,252.415 257.501 C 251.088 257.895,250.909 257.767,250.249 255.960 C 249.931 255.088,249.529 254.094,249.355 253.750 C 249.182 253.406,248.513 252.056,247.870 250.750 C 245.879 246.709,243.205 243.502,240.804 242.278 C 238.654 241.181,238.084 241.854,239.216 244.151 C 243.201 252.233,244.488 262.260,242.475 269.533 C 240.172 277.852,234.139 282.137,224.000 282.656 C 218.300 282.947,215.957 284.934,215.923 289.503 C 215.880 295.294,220.113 298.016,227.625 297.029 C 229.992 296.718,230.368 296.959,230.623 298.948 C 231.120 302.822,233.319 308.468,235.098 310.437 C 236.733 312.247,243.063 314.963,246.662 315.400 C 247.329 315.480,248.522 315.761,249.313 316.023 C 252.687 317.141,255.392 316.152,253.063 314.653 C 250.693 313.128,247.273 308.764,243.537 302.500 C 242.266 300.369,241.124 298.456,240.999 298.250 C 238.423 293.992,238.422 293.653,240.975 291.825 C 243.254 290.193,242.585 289.975,246.250 293.544 C 261.809 308.696,266.429 310.441,278.299 305.650 C 286.171 302.473,286.931 300.902,281.474 299.086 C 278.285 298.026,275.704 297.024,275.387 296.725 C 275.257 296.601,274.983 296.500,274.779 296.500 C 274.575 296.500,273.950 296.287,273.391 296.026 C 272.832 295.766,270.969 294.930,269.250 294.168 C 260.396 290.243,255.283 287.683,251.419 285.239 C 248.870 283.628,248.847 283.588,249.636 282.175 C 250.683 280.302,250.932 280.173,252.642 280.619 C 253.446 280.828,254.455 281.000,254.882 281.000 C 255.310 281.000,256.214 281.163,256.892 281.363 C 257.570 281.563,259.129 281.850,260.357 282.001 C 261.584 282.152,262.668 282.324,262.765 282.384 C 263.034 282.551,271.944 283.909,275.750 284.363 C 277.606 284.585,280.025 284.885,281.125 285.031 C 289.078 286.083,295.183 285.508,298.236 283.420 C 303.015 280.150,310.169 268.739,308.374 267.249 C 307.961 266.906,304.755 267.204,301.389 267.900 C 300.435 268.097,298.297 268.374,296.639 268.515 C 294.981 268.656,293.231 268.881,292.750 269.016 C 292.269 269.150,290.173 269.365,288.094 269.495 C 286.014 269.624,283.202 269.895,281.844 270.098 C 280.486 270.300,276.668 270.533,273.360 270.615 C 270.052 270.697,266.958 270.865,266.485 270.988 C 266.012 271.111,262.813 271.249,259.375 271.294 L 253.125 271.375 253.125 269.254 L 253.125 267.133 254.125 266.957 C 254.675 266.859,256.363 266.655,257.875 266.502 C 263.161 265.968,282.873 263.358,283.214 263.147 C 283.307 263.090,284.281 262.921,285.379 262.772 C 287.908 262.430,292.636 261.594,294.750 261.117 C 295.644 260.915,296.938 260.686,297.625 260.607 C 298.788 260.475,302.052 259.810,304.375 259.232 C 304.925 259.095,306.275 258.775,307.375 258.520 C 313.294 257.147,315.597 255.778,317.921 252.250 C 319.128 250.417,320.557 246.367,320.875 243.875 C 320.963 243.188,321.200 241.838,321.401 240.875 C 321.930 238.338,322.000 231.566,321.500 231.247 C 320.951 230.897,320.849 230.928,319.937 231.730 M198.969 231.753 C 198.447 232.057,197.582 234.288,197.404 235.787 C 196.946 239.656,195.036 242.147,189.592 245.978 C 187.165 247.686,186.114 248.593,185.561 249.457 C 181.899 255.176,179.186 262.036,180.191 263.041 C 180.660 263.510,181.627 263.063,182.046 262.184 C 184.121 257.834,187.437 257.367,187.847 261.366 C 188.212 264.935,189.440 265.120,190.864 261.820 C 191.549 260.232,192.076 259.835,192.663 260.464 C 193.258 261.104,196.077 266.732,197.564 270.250 C 197.974 271.220,199.075 272.500,199.500 272.500 C 199.925 272.500,201.026 271.220,201.436 270.250 C 202.923 266.732,205.742 261.104,206.337 260.464 C 206.924 259.835,207.451 260.232,208.136 261.820 C 209.560 265.120,210.788 264.935,211.153 261.366 C 211.563 257.367,214.879 257.834,216.954 262.184 C 217.373 263.063,218.340 263.510,218.809 263.041 C 219.814 262.036,217.101 255.176,213.439 249.457 C 212.886 248.593,211.835 247.686,209.408 245.978 C 203.964 242.147,202.054 239.656,201.596 235.787 C 201.411 234.224,200.540 232.039,199.984 231.741 C 199.447 231.454,199.480 231.454,198.969 231.753 M198.820 277.800 C 198.677 277.979,198.250 278.744,197.872 279.500 C 196.994 281.257,196.159 282.334,193.471 285.173 C 189.050 289.843,187.425 293.128,187.019 298.211 C 186.847 300.361,186.887 300.317,183.403 302.248 C 179.631 304.337,179.299 304.854,181.063 305.898 C 186.335 309.019,187.828 309.953,189.626 311.251 C 193.666 314.168,195.103 316.142,195.505 319.333 C 195.629 320.318,195.804 321.590,195.894 322.158 C 196.051 323.146,196.007 323.239,194.893 324.283 C 191.391 327.565,191.348 329.235,194.639 334.156 C 196.354 336.720,196.388 336.884,195.847 339.942 C 195.422 342.348,195.282 342.720,194.438 343.696 C 192.849 345.533,193.189 347.049,196.180 351.466 C 199.498 356.366,199.502 356.366,202.820 351.466 C 205.811 347.049,206.151 345.533,204.563 343.696 C 203.718 342.720,203.578 342.348,203.153 339.942 C 202.612 336.884,202.646 336.720,204.361 334.156 C 207.652 329.235,207.609 327.565,204.107 324.283 C 202.993 323.239,202.949 323.146,203.106 322.158 C 203.196 321.590,203.371 320.318,203.495 319.333 C 203.897 316.142,205.334 314.168,209.374 311.251 C 211.172 309.953,212.665 309.019,217.938 305.898 C 219.701 304.854,219.369 304.337,215.597 302.248 C 212.113 300.317,212.153 300.361,211.981 298.211 C 211.572 293.084,209.985 289.901,205.431 285.079 C 202.762 282.253,202.203 281.518,201.000 279.265 C 200.111 277.598,199.378 277.106,198.820 277.800 M201.411 291.909 C 202.356 292.357,203.622 294.009,203.895 295.149 C 203.991 295.548,204.169 296.003,204.292 296.160 C 204.415 296.317,204.744 298.002,205.022 299.904 C 205.591 303.793,205.516 304.249,204.192 304.915 C 203.472 305.277,202.053 306.741,200.111 309.125 L 199.500 309.875 198.889 309.125 C 196.947 306.741,195.528 305.277,194.808 304.915 C 193.484 304.249,193.409 303.793,193.978 299.904 C 194.256 298.002,194.585 296.317,194.708 296.160 C 194.831 296.003,195.009 295.548,195.105 295.149 C 195.787 292.300,198.883 290.709,201.411 291.909 M181.067 316.313 C 180.780 316.622,179.705 318.281,178.676 320.000 C 177.648 321.719,175.640 324.882,174.216 327.029 C 172.791 329.177,171.512 331.127,171.374 331.363 C 171.142 331.759,170.764 331.771,166.374 331.523 C 149.762 330.587,148.473 331.642,156.905 339.277 C 157.713 340.009,158.744 340.978,159.196 341.429 C 160.495 342.728,162.068 342.053,161.648 340.377 C 161.561 340.032,161.561 339.467,161.648 339.122 L 161.806 338.494 171.569 338.560 L 181.333 338.625 182.123 339.750 C 183.218 341.309,183.902 341.355,185.125 339.951 C 188.733 335.808,187.887 333.411,182.628 332.878 C 179.447 332.556,179.448 332.559,182.181 329.070 C 183.388 327.529,185.303 325.075,186.438 323.615 L 188.500 320.962 188.500 318.656 C 188.500 315.673,188.599 315.750,184.744 315.750 C 181.791 315.750,181.554 315.786,181.067 316.313 M210.800 316.050 C 210.610 316.240,210.500 317.196,210.500 318.656 L 210.500 320.962 212.563 323.615 C 213.697 325.075,215.612 327.529,216.819 329.070 C 219.552 332.559,219.553 332.556,216.372 332.878 C 211.113 333.411,210.267 335.808,213.875 339.951 C 215.098 341.355,215.782 341.309,216.877 339.750 L 217.667 338.625 227.431 338.560 L 237.194 338.494 237.352 339.122 C 237.439 339.467,237.439 340.032,237.352 340.377 C 236.932 342.053,238.505 342.728,239.804 341.429 C 240.256 340.978,241.287 340.009,242.095 339.277 C 250.527 331.642,249.238 330.587,232.626 331.523 C 228.236 331.771,227.858 331.759,227.626 331.363 C 227.488 331.127,226.209 329.177,224.784 327.029 C 223.360 324.882,221.352 321.719,220.324 320.000 C 217.609 315.462,218.019 315.750,214.256 315.750 C 212.135 315.750,211.002 315.848,210.800 316.050 M141.240 342.268 C 141.044 342.636,141.037 343.126,141.219 343.956 C 141.359 344.599,141.584 345.631,141.718 346.250 C 143.085 352.550,149.125 361.388,160.214 373.313 C 162.740 376.028,164.879 378.250,164.969 378.250 C 165.058 378.250,165.805 378.905,166.628 379.706 C 168.425 381.454,169.279 382.041,169.674 381.797 C 170.099 381.534,171.508 379.469,177.925 369.700 C 180.694 365.484,180.225 365.810,183.552 365.793 C 189.837 365.761,193.627 362.147,192.094 357.647 C 191.391 355.586,188.212 353.251,186.108 353.250 C 185.686 353.250,184.730 353.059,183.983 352.825 C 182.173 352.259,176.161 352.198,175.154 352.735 C 174.466 353.103,169.500 359.831,169.500 360.396 C 169.500 360.802,167.046 363.496,166.675 363.498 C 166.107 363.501,165.015 362.938,163.393 361.807 C 160.451 359.756,152.253 352.238,148.882 348.500 C 143.228 342.232,141.858 341.114,141.240 342.268 M254.044 344.313 C 252.691 345.722,250.925 347.606,250.118 348.500 C 246.747 352.238,238.549 359.756,235.607 361.807 C 233.985 362.938,232.893 363.501,232.325 363.498 C 231.954 363.496,229.500 360.802,229.500 360.396 C 229.500 359.831,224.534 353.103,223.846 352.735 C 222.839 352.198,216.827 352.259,215.017 352.825 C 214.270 353.059,213.314 353.250,212.892 353.250 C 210.788 353.251,207.609 355.586,206.906 357.647 C 205.373 362.147,209.163 365.761,215.448 365.793 C 218.775 365.810,218.306 365.484,221.075 369.700 C 227.492 379.469,228.901 381.534,229.326 381.797 C 229.721 382.041,230.575 381.454,232.372 379.706 C 233.195 378.905,233.942 378.250,234.031 378.250 C 234.121 378.250,236.260 376.028,238.786 373.313 C 249.875 361.388,255.915 352.550,257.282 346.250 C 257.416 345.631,257.641 344.599,257.781 343.956 C 258.439 340.947,257.156 341.070,254.044 344.313 M202.533 416.359 C 206.977 418.014,208.901 424.488,206.180 428.629 C 202.420 434.349,193.113 432.689,191.735 426.052 C 190.924 422.145,193.190 417.342,196.244 416.495 C 196.728 416.360,197.294 416.135,197.500 415.994 C 198.039 415.625,201.173 415.852,202.533 416.359 " stroke="none" fill="#FFFFFF" fill-rule="evenodd"></path></g></svg>