<?xml version="1.0" encoding="UTF-8" standalone="no"?>
<!-- Generator: Adobe Illustrator 13.0.0, SVG Export Plug-In . SVG Version: 6.00 Build 14948)  -->

<svg
   version="1.2"
   id="Layer_3"
   x="0px"
   y="0px"
   width="550.18903"
   height="341.26001"
   viewBox="0 0 550.189 341.26"
   xml:space="preserve"
   sodipodi:docname="zxspectrum.svg"
   inkscape:version="1.2.2 (732a01da63, 2022-12-09)"
   xmlns:inkscape="http://www.inkscape.org/namespaces/inkscape"
   xmlns:sodipodi="http://sodipodi.sourceforge.net/DTD/sodipodi-0.dtd"
   xmlns="http://www.w3.org/2000/svg"
   xmlns:svg="http://www.w3.org/2000/svg"
   xmlns:rdf="http://www.w3.org/1999/02/22-rdf-syntax-ns#"
   xmlns:cc="http://creativecommons.org/ns#"
   xmlns:dc="http://purl.org/dc/elements/1.1/"
   xmlns:ns="&amp;ns_sfw;"><defs
   id="defs79" /><sodipodi:namedview
   id="namedview77"
   pagecolor="#ffffff"
   bordercolor="#111111"
   borderopacity="1"
   inkscape:showpageshadow="0"
   inkscape:pageopacity="0"
   inkscape:pagecheckerboard="1"
   inkscape:deskcolor="#d1d1d1"
   showgrid="false"
   inkscape:zoom="2.0445042"
   inkscape:cx="299.58363"
   inkscape:cy="175.10357"
   inkscape:window-width="1920"
   inkscape:window-height="1009"
   inkscape:window-x="-8"
   inkscape:window-y="-8"
   inkscape:window-maximized="1"
   inkscape:current-layer="Layer_3" />
<metadata
   id="metadata55">
	<rdf:RDF>
		<cc:Work
   rdf:about="">
			<dc:format>image/svg+xml</dc:format>
			<dc:type
   rdf:resource="http://purl.org/dc/dcmitype/StillImage" />
			
		</cc:Work>
	</rdf:RDF>
	<ns:sfw>
		<ns:slices />
		<ns:sliceSourceBounds
   x="-7231"
   y="-7652"
   width="16383"
   height="16383"
   bottomLeftOrigin="true" />
	</ns:sfw>
</metadata>
<path
   id="path3"
   fill="#f4f4f4"
   d="M 11.325,2.909 C 8.881,2.909 6.6,2.854 4.738,3.559 3.807,3.911 2.986,4.502 2.42,5.369 1.854,6.236 1.572,7.331 1.572,8.677 v 325.047 c 0,1.345 0.277,2.418 0.876,3.224 0.599,0.805 1.471,1.274 2.403,1.499 1.865,0.447 4.084,0.169 6.475,0.169 h 526.988 c 2.391,0 4.609,0.278 6.475,-0.169 0.934,-0.225 1.806,-0.694 2.404,-1.499 0.448,-0.604 0.658,-1.412 0.763,-2.318 h 0.113 V 333.725 8.677 c 0,-1.346 -0.254,-2.441 -0.82,-3.308 -0.566,-0.867 -1.415,-1.457 -2.347,-1.81 -1.863,-0.701 -4.144,-0.646 -6.587,-0.646 H 11.327 Z m 0,1.809 h 526.988 c 2.447,0 4.595,0.029 5.938,0.537 0.672,0.253 1.141,0.597 1.471,1.103 0.335,0.504 0.543,1.217 0.543,2.318 v 324.143 0.904 c 0,1.101 -0.212,1.749 -0.509,2.149 -0.298,0.4 -0.716,0.631 -1.386,0.791 -1.341,0.322 -3.549,0.142 -6.051,0.142 H 11.331 c -2.501,0 -4.71,0.181 -6.051,-0.142 -0.669,-0.163 -1.087,-0.398 -1.384,-0.796 -0.298,-0.398 -0.509,-1.05 -0.509,-2.154 V 8.677 C 3.387,7.576 3.595,6.863 3.924,6.359 4.254,5.853 4.722,5.509 5.395,5.256 6.738,4.747 8.885,4.719 11.332,4.719 h -0.007 z" />
<path
   id="path5"
   fill="#f4f4f4"
   d="m 28.318,94.32 c -8.13,0 -15.267,4.208 -19.368,10.574 l 1.499,0.99 c 3.78,-5.868 10.365,-9.755 17.87,-9.755 h 492.489 c 7.604,0 14.257,3.983 18.011,9.98 l 1.528,-0.958 c -4.073,-6.509 -11.299,-10.83 -19.538,-10.83 H 28.32 Z" />
<path
   id="path7"
   fill="#f4f4f4"
   d="m 18.14,104.047 c -3.426,0 -6.545,1.346 -8.85,3.533 l 1.244,1.33 c 1.982,-1.882 4.653,-3.054 7.606,-3.054 h 512.847 c 3.265,0 6.176,1.43 8.199,3.676 l 1.357,-1.217 c -2.353,-2.611 -5.77,-4.27 -9.557,-4.27 z" />
<path
   id="path9"
   fill="#f4f4f4"
   d="m 26.114,131.308 c -1.712,0 -3.11,1.398 -3.11,3.11 v 17.926 c 0,1.712 1.398,3.139 3.11,3.139 h 28.783 c 1.711,0 3.139,-1.427 3.139,-3.139 v -0.905 h -0.028 v -17.021 c 0,-1.712 -1.399,-3.11 -3.11,-3.11 z m 0,1.809 h 28.783 c 0.733,0 1.301,0.567 1.301,1.301 v 17.926 0.057 c -0.035,0.701 -0.591,1.272 -1.301,1.272 H 26.114 c -0.734,0 -1.301,-0.595 -1.301,-1.329 v -17.926 c 0,-0.733 0.566,-1.301 1.301,-1.301 z" />
<path
   id="path11"
   fill="#f4f4f4"
   d="m 73.898,131.308 c -1.712,0 -3.11,1.398 -3.11,3.11 v 17.926 c 0,1.712 1.398,3.139 3.11,3.139 h 28.783 c 1.712,0 3.11,-1.427 3.11,-3.139 v -0.905 -17.021 c 0,-1.711 -1.398,-3.11 -3.11,-3.11 z m 0,1.809 h 28.783 c 0.734,0 1.301,0.567 1.301,1.301 v 17.926 c 0,0.734 -0.568,1.329 -1.301,1.329 H 73.898 c -0.733,0 -1.301,-0.595 -1.301,-1.329 v -17.926 c 0.001,-0.733 0.569,-1.301 1.301,-1.301 z" />
<path
   id="path13"
   fill="#f4f4f4"
   d="m 121.683,131.308 c -1.712,0 -3.11,1.398 -3.11,3.11 v 17.926 c 0,1.711 1.398,3.139 3.11,3.139 h 28.783 c 1.711,0 3.11,-1.427 3.11,-3.139 v -17.926 c 0,-1.712 -1.399,-3.11 -3.11,-3.11 z m 0,1.809 h 28.783 c 0.733,0 1.301,0.567 1.301,1.301 v 17.926 c 0,0.734 -0.568,1.329 -1.301,1.329 h -28.783 c -0.734,0 -1.301,-0.594 -1.301,-1.329 v -17.926 c 0,-0.733 0.567,-1.301 1.301,-1.301 z" />
<path
   id="path15"
   fill="#f4f4f4"
   d="m 169.465,131.308 c -1.712,0 -3.139,1.398 -3.139,3.11 v 17.926 c 0,1.711 1.427,3.139 3.139,3.139 h 28.783 c 1.712,0 3.11,-1.427 3.11,-3.139 v -17.926 c 0,-1.711 -1.398,-3.11 -3.11,-3.11 z m 0,1.809 h 28.783 c 0.734,0 1.301,0.567 1.301,1.301 v 17.926 c 0,0.735 -0.566,1.329 -1.301,1.329 h -28.783 c -0.735,0 -1.33,-0.594 -1.33,-1.329 v -17.926 c 0,-0.733 0.596,-1.301 1.33,-1.301 z" />
<path
   id="path17"
   fill="#f4f4f4"
   d="m 217.256,131.308 c -1.711,0 -3.139,1.398 -3.139,3.11 v 17.926 c 0,1.711 1.426,3.139 3.139,3.139 h 28.783 c 1.712,0 3.11,-1.427 3.11,-3.139 v -17.926 c 0,-1.712 -1.398,-3.11 -3.11,-3.11 z m 0,1.809 h 28.783 c 0.733,0 1.301,0.567 1.301,1.301 v 17.926 c 0,0.734 -0.568,1.329 -1.301,1.329 h -28.783 c -0.734,0 -1.329,-0.594 -1.329,-1.329 v -17.926 c 0,-0.733 0.596,-1.301 1.329,-1.301 z" />
<path
   id="path19"
   fill="#f4f4f4"
   d="m 265.011,131.308 c -1.712,0 -3.11,1.398 -3.11,3.11 v 17.926 c 0,1.712 1.398,3.139 3.11,3.139 h 28.783 c 1.711,0 3.139,-1.427 3.139,-3.139 v -17.926 c 0,-1.711 -1.426,-3.11 -3.139,-3.11 z m 0,1.809 h 28.783 c 0.734,0 1.329,0.567 1.329,1.301 v 17.926 c 0,0.734 -0.596,1.329 -1.329,1.329 h -28.783 c -0.733,0 -1.301,-0.595 -1.301,-1.329 v -17.926 c 0,-0.733 0.568,-1.301 1.301,-1.301 z" />
<path
   id="path21"
   fill="#f4f4f4"
   d="m 312.793,131.308 c -1.712,0 -3.11,1.398 -3.11,3.11 v 17.926 c 0,1.711 1.398,3.139 3.11,3.139 h 28.783 c 1.712,0 3.139,-1.427 3.139,-3.139 v -17.926 c 0,-1.711 -1.426,-3.11 -3.139,-3.11 z m 0,1.809 h 28.783 c 0.734,0 1.329,0.567 1.329,1.301 v 17.926 c 0,0.734 -0.596,1.329 -1.329,1.329 h -28.783 c -0.735,0 -1.301,-0.594 -1.301,-1.329 v -17.926 c 0,-0.733 0.567,-1.301 1.301,-1.301 z" />
<path
   id="path23"
   fill="#f4f4f4"
   d="m 360.575,131.308 c -1.712,0 -3.11,1.398 -3.11,3.11 v 17.926 c 0,1.711 1.398,3.139 3.11,3.139 h 28.783 c 1.711,0 3.11,-1.427 3.11,-3.139 v -17.926 c 0,-1.711 -1.397,-3.11 -3.11,-3.11 z m 0,1.809 h 28.783 c 0.734,0 1.301,0.567 1.301,1.301 v 17.926 c 0,0.734 -0.567,1.329 -1.301,1.329 h -28.783 c -0.734,0 -1.301,-0.594 -1.301,-1.329 v -17.926 c 0,-0.733 0.568,-1.301 1.301,-1.301 z" />
<path
   id="path25"
   fill="#f4f4f4"
   d="m 408.357,131.308 c -1.712,0 -3.11,1.398 -3.11,3.11 v 17.926 c 0,1.711 1.397,3.139 3.11,3.139 h 28.782 c 1.713,0 3.11,-1.427 3.11,-3.139 v -17.926 c 0,-1.711 -1.397,-3.11 -3.11,-3.11 z m 0,1.809 h 28.782 c 0.735,0 1.301,0.567 1.301,1.301 v 17.926 c 0,0.734 -0.566,1.329 -1.301,1.329 h -28.782 c -0.734,0 -1.301,-0.594 -1.301,-1.329 v -17.926 c 0.001,-0.733 0.568,-1.301 1.301,-1.301 z" />
<path
   id="path27"
   fill="#f4f4f4"
   d="m 456.148,131.308 c -1.711,0 -3.138,1.398 -3.138,3.11 v 17.926 c 0,1.711 1.426,3.139 3.138,3.139 h 28.783 c 1.712,0 3.11,-1.427 3.11,-3.139 v -17.926 c 0,-1.711 -1.398,-3.11 -3.11,-3.11 z m 0,1.809 h 28.783 c 0.734,0 1.301,0.567 1.301,1.301 v 17.926 c 0,0.734 -0.567,1.329 -1.301,1.329 h -28.783 c -0.733,0 -1.329,-0.594 -1.329,-1.329 v -17.926 c 0,-0.733 0.596,-1.301 1.329,-1.301 z" />
<path
   id="path29"
   fill="#f4f4f4"
   d="m 51.363,178.014 c -1.712,0 -3.11,1.397 -3.11,3.11 v 17.954 c 0,1.711 1.398,3.11 3.11,3.11 h 28.783 c 1.712,0 3.11,-1.398 3.11,-3.11 v -17.954 c 0,-1.713 -1.397,-3.11 -3.11,-3.11 z m 0,1.809 h 28.783 c 0.734,0 1.3,0.567 1.3,1.301 v 17.954 c 0,0.732 -0.566,1.301 -1.3,1.301 H 51.363 c -0.733,0 -1.301,-0.569 -1.301,-1.301 v -17.954 c 0,-0.735 0.568,-1.301 1.301,-1.301 z" />
<path
   id="path31"
   fill="#f4f4f4"
   d="m 99.144,178.014 c -1.712,0 -3.139,1.397 -3.139,3.11 v 17.954 c 0,1.711 1.426,3.11 3.139,3.11 h 28.783 c 1.712,0 3.11,-1.399 3.11,-3.11 v -17.954 c 0,-1.712 -1.397,-3.11 -3.11,-3.11 z m 0,1.809 h 28.783 c 0.734,0 1.301,0.566 1.301,1.301 v 17.954 c 0,0.733 -0.566,1.301 -1.301,1.301 H 99.144 c -0.734,0 -1.329,-0.569 -1.329,-1.301 v -17.954 c 0,-0.735 0.595,-1.301 1.329,-1.301 z" />
<path
   id="path33"
   fill="#f4f4f4"
   d="m 146.936,178.014 c -1.712,0 -3.139,1.397 -3.139,3.11 v 17.954 c 0,1.711 1.426,3.11 3.139,3.11 h 28.783 c 1.712,0 3.11,-1.398 3.11,-3.11 v -17.954 c 0,-1.713 -1.397,-3.11 -3.11,-3.11 z m 0,1.809 h 28.783 c 0.734,0 1.301,0.567 1.301,1.301 v 17.954 c 0,0.732 -0.566,1.301 -1.301,1.301 h -28.783 c -0.734,0 -1.33,-0.569 -1.33,-1.301 v -17.954 c 0,-0.735 0.596,-1.301 1.33,-1.301 z" />
<path
   id="path35"
   fill="#f4f4f4"
   d="m 194.69,178.014 c -1.712,0 -3.11,1.397 -3.11,3.11 v 17.954 c 0,1.711 1.397,3.11 3.11,3.11 h 28.783 c 1.711,0 3.139,-1.398 3.139,-3.11 v -17.954 c 0,-1.712 -1.426,-3.11 -3.139,-3.11 z m 0,1.809 h 28.783 c 0.734,0 1.329,0.566 1.329,1.301 v 17.954 c 0,0.732 -0.596,1.301 -1.329,1.301 H 194.69 c -0.734,0 -1.301,-0.569 -1.301,-1.301 v -17.954 c 10e-4,-0.735 0.567,-1.301 1.301,-1.301 z" />
<path
   id="path37"
   fill="#f4f4f4"
   d="m 242.473,178.014 c -1.712,0 -3.11,1.397 -3.11,3.11 v 17.954 c 0,1.711 1.397,3.11 3.11,3.11 h 28.783 c 1.712,0 3.139,-1.399 3.139,-3.11 v -17.954 c 0,-1.712 -1.426,-3.11 -3.139,-3.11 z m 0,1.809 h 28.783 c 0.734,0 1.329,0.566 1.329,1.301 v 17.954 c 0,0.733 -0.595,1.301 -1.329,1.301 h -28.783 c -0.734,0 -1.301,-0.569 -1.301,-1.301 v -17.954 c 0,-0.735 0.567,-1.301 1.301,-1.301 z" />
<path
   id="path39"
   fill="#f4f4f4"
   d="m 290.255,178.014 c -1.712,0 -3.111,1.396 -3.111,3.11 v 17.954 c 0,1.711 1.398,3.11 3.111,3.11 h 28.783 c 1.711,0 3.139,-1.398 3.139,-3.11 v -17.954 c 0,-1.713 -1.427,-3.11 -3.139,-3.11 z m 0,1.809 h 28.783 c 0.732,0 1.329,0.567 1.329,1.301 v 17.954 c 0,0.732 -0.598,1.301 -1.329,1.301 h -28.783 c -0.734,0 -1.301,-0.569 -1.301,-1.301 v -17.954 c 0,-0.734 0.568,-1.301 1.301,-1.301 z" />
<path
   id="path41"
   fill="#f4f4f4"
   d="m 338.046,178.014 c -1.712,0 -3.11,1.397 -3.11,3.11 v 17.954 c 0,1.711 1.397,3.11 3.11,3.11 h 28.783 c 1.712,0 3.11,-1.398 3.11,-3.11 v -17.954 c 0,-1.712 -1.397,-3.11 -3.11,-3.11 z m 0,1.809 h 28.783 c 0.733,0 1.301,0.566 1.301,1.301 v 17.954 c 0,0.732 -0.568,1.301 -1.301,1.301 h -28.783 c -0.733,0 -1.301,-0.569 -1.301,-1.301 v -17.954 c 0,-0.735 0.568,-1.301 1.301,-1.301 z" />
<path
   id="path43"
   fill="#f4f4f4"
   d="m 385.828,178.014 c -1.712,0 -3.11,1.397 -3.11,3.11 v 17.954 c 0,1.71 1.396,3.11 3.11,3.11 h 28.783 c 1.712,0 3.11,-1.398 3.11,-3.11 v -17.954 c 0,-1.713 -1.398,-3.11 -3.11,-3.11 z m 0,1.809 h 28.783 c 0.734,0 1.301,0.567 1.301,1.301 v 17.954 c 0,0.732 -0.568,1.301 -1.301,1.301 h -28.783 c -0.735,0 -1.3,-0.568 -1.3,-1.301 v -17.954 c 0,-0.735 0.565,-1.301 1.3,-1.301 z" />
<path
   id="path45"
   fill="#f4f4f4"
   d="m 433.61,178.014 c -1.712,0 -3.139,1.396 -3.139,3.11 v 17.954 c 0,1.711 1.426,3.11 3.139,3.11 h 28.783 c 1.712,0 3.109,-1.398 3.109,-3.11 v -17.954 c 0,-1.712 -1.396,-3.11 -3.109,-3.11 z m 0,1.809 h 28.783 c 0.733,0 1.3,0.566 1.3,1.301 v 17.954 c 0,0.732 -0.567,1.301 -1.3,1.301 H 433.61 c -0.732,0 -1.329,-0.569 -1.329,-1.301 v -17.954 c 0,-0.734 0.598,-1.301 1.329,-1.301 z" />
<path
   id="path47"
   fill="#f4f4f4"
   d="m 481.392,178.014 c -1.711,0 -3.138,1.397 -3.138,3.11 v 17.954 c 0,1.711 1.426,3.11 3.138,3.11 h 28.784 c 1.712,0 3.11,-1.399 3.11,-3.11 v -17.954 c 0,-1.712 -1.398,-3.11 -3.11,-3.11 z m 0,1.809 h 28.784 c 0.733,0 1.301,0.566 1.301,1.301 v 17.954 c 0,0.733 -0.567,1.301 -1.301,1.301 h -28.784 c -0.733,0 -1.328,-0.569 -1.328,-1.301 v -17.954 c -0.001,-0.735 0.595,-1.301 1.328,-1.301 z" />
<path
   id="path49"
   fill="#f4f4f4"
   d="m 63.549,224.728 c -1.712,0 -3.138,1.427 -3.138,3.139 v 17.926 c 0,1.711 1.426,3.11 3.138,3.11 h 28.784 c 1.711,0 3.11,-1.398 3.11,-3.11 v -0.905 -17.021 c 0,-1.711 -1.398,-3.139 -3.11,-3.139 z m 0,1.81 h 28.784 c 0.733,0 1.3,0.595 1.3,1.328 v 17.926 c 0,0.734 -0.567,1.301 -1.3,1.301 H 63.549 c -0.733,0 -1.329,-0.567 -1.329,-1.301 v -17.926 c 10e-4,-0.734 0.596,-1.328 1.329,-1.328 z" />
<path
   id="path51"
   fill="#f4f4f4"
   d="m 111.304,224.728 c -1.712,0 -3.11,1.427 -3.11,3.139 v 17.926 c 0,1.711 1.398,3.11 3.11,3.11 h 28.784 c 1.712,0 3.138,-1.399 3.138,-3.11 v -17.926 c 0,-1.711 -1.426,-3.139 -3.138,-3.139 z m 0,1.81 h 28.784 c 0.733,0 1.329,0.595 1.329,1.328 v 17.926 c 0,0.735 -0.594,1.301 -1.329,1.301 h -28.784 c -0.734,0 -1.3,-0.567 -1.3,-1.301 v -17.926 c 0,-0.734 0.566,-1.328 1.3,-1.328 z" />
<path
   id="path53"
   fill="#f4f4f4"
   d="m 159.086,224.728 c -1.711,0 -3.11,1.427 -3.11,3.139 v 17.926 c 0,1.711 1.398,3.11 3.11,3.11 h 28.784 c 1.712,0 3.138,-1.398 3.138,-3.11 v -17.926 c 0,-1.712 -1.426,-3.139 -3.138,-3.139 z m 0,1.81 h 28.784 c 0.733,0 1.329,0.595 1.329,1.328 v 17.926 c 0,0.734 -0.594,1.301 -1.329,1.301 h -28.784 c -0.733,0 -1.3,-0.567 -1.3,-1.301 v -17.926 c 0,-0.734 0.568,-1.328 1.3,-1.328 z" />
<path
   id="path55"
   fill="#f4f4f4"
   d="m 206.878,224.728 c -1.712,0 -3.11,1.427 -3.11,3.139 v 17.926 c 0,1.711 1.398,3.11 3.11,3.11 h 28.783 c 1.711,0 3.138,-1.398 3.138,-3.11 v -17.926 c 0,-1.712 -1.426,-3.139 -3.138,-3.139 z m 0,1.81 h 28.783 c 0.733,0 1.329,0.595 1.329,1.328 v 17.926 c 0,0.734 -0.595,1.301 -1.329,1.301 h -28.783 c -0.734,0 -1.301,-0.567 -1.301,-1.301 v -17.926 c 0,-0.734 0.567,-1.328 1.301,-1.328 z" />
<path
   id="path57"
   fill="#f4f4f4"
   d="m 254.66,224.728 c -1.711,0 -3.11,1.427 -3.11,3.139 v 17.926 c 0,1.711 1.398,3.11 3.11,3.11 h 28.784 c 1.711,0 3.11,-1.398 3.11,-3.11 v -17.926 c 0,-1.711 -1.398,-3.139 -3.11,-3.139 z m 0,1.81 h 28.784 c 0.733,0 1.301,0.595 1.301,1.328 v 17.926 c 0,0.734 -0.567,1.301 -1.301,1.301 H 254.66 c -0.734,0 -1.3,-0.567 -1.3,-1.301 v -17.926 c -0.001,-0.734 0.567,-1.328 1.3,-1.328 z" />
<path
   id="path59"
   fill="#f4f4f4"
   d="m 302.442,224.728 c -1.713,0 -3.11,1.427 -3.11,3.139 v 17.926 c 0,1.711 1.397,3.11 3.11,3.11 h 28.783 c 1.711,0 3.11,-1.398 3.11,-3.11 v -17.926 c 0,-1.711 -1.398,-3.139 -3.11,-3.139 z m 0,1.81 h 28.783 c 0.734,0 1.301,0.595 1.301,1.328 v 17.926 c 0,0.734 -0.567,1.301 -1.301,1.301 h -28.783 c -0.734,0 -1.301,-0.567 -1.301,-1.301 v -17.926 c 10e-4,-0.734 0.568,-1.328 1.301,-1.328 z" />
<path
   id="path61"
   fill="#f4f4f4"
   d="m 350.225,224.728 c -1.712,0 -3.139,1.427 -3.139,3.139 v 17.926 c 0,1.711 1.426,3.11 3.139,3.11 h 28.782 c 1.712,0 3.11,-1.398 3.11,-3.11 v -17.926 c 0,-1.711 -1.396,-3.139 -3.11,-3.139 z m 0,1.81 h 28.782 c 0.734,0 1.301,0.595 1.301,1.328 v 17.926 c 0,0.734 -0.566,1.301 -1.301,1.301 h -28.782 c -0.734,0 -1.329,-0.567 -1.329,-1.301 v -17.926 c 0,-0.734 0.595,-1.328 1.329,-1.328 z" />
<path
   id="path63"
   fill="#f4f4f4"
   d="m 398.016,224.728 c -1.712,0 -3.139,1.427 -3.139,3.139 v 17.926 c 0,1.711 1.426,3.11 3.139,3.11 h 28.783 c 1.711,0 3.11,-1.398 3.11,-3.11 v -17.926 c 0,-1.711 -1.398,-3.139 -3.11,-3.139 z m 0,1.81 h 28.783 c 0.734,0 1.301,0.595 1.301,1.328 v 17.926 c 0,0.734 -0.567,1.301 -1.301,1.301 h -28.783 c -0.735,0 -1.329,-0.567 -1.329,-1.301 v -17.926 c 0,-0.734 0.594,-1.328 1.329,-1.328 z" />
<path
   id="path65"
   fill="#f4f4f4"
   d="m 445.771,224.728 c -1.712,0 -3.109,1.427 -3.109,3.139 v 17.926 c 0,1.711 1.396,3.11 3.109,3.11 h 28.783 c 1.712,0 3.139,-1.399 3.139,-3.11 v -17.926 c 0,-1.71 -1.425,-3.139 -3.139,-3.139 z m 0,1.81 h 28.783 c 0.735,0 1.329,0.594 1.329,1.328 v 17.926 c 0,0.735 -0.595,1.301 -1.329,1.301 h -28.783 c -0.735,0 -1.3,-0.566 -1.3,-1.301 v -17.926 c 0,-0.734 0.565,-1.328 1.3,-1.328 z" />
<path
   id="path67"
   fill="#f4f4f4"
   d="m 86.084,271.46 c -1.71,0 -3.139,1.398 -3.139,3.11 v 17.927 c 0,1.711 1.427,3.138 3.139,3.138 h 28.783 c 1.712,0 3.11,-1.427 3.11,-3.138 V 274.57 c 0,-1.712 -1.398,-3.11 -3.11,-3.11 z m 0,1.81 h 28.783 c 0.735,0 1.301,0.566 1.301,1.301 v 17.927 c 0,0.733 -0.566,1.328 -1.301,1.328 H 86.084 c -0.733,0 -1.329,-0.596 -1.329,-1.328 V 274.57 c 0,-0.735 0.595,-1.3 1.329,-1.3 z" />
<path
   id="path69"
   fill="#f4f4f4"
   d="m 26.735,271.46 c -1.711,0 -3.11,1.398 -3.11,3.11 v 17.927 c 0,1.711 1.398,3.138 3.11,3.138 h 37.209 c 1.711,0 3.11,-1.426 3.11,-3.138 v -0.905 -17.022 c 0,-1.712 -1.399,-3.11 -3.11,-3.11 z m 0,1.81 h 37.209 c 0.735,0 1.301,0.566 1.301,1.301 v 17.927 c 0,0.733 -0.567,1.328 -1.301,1.328 H 26.735 c -0.733,0 -1.301,-0.596 -1.301,-1.328 V 274.57 c 10e-4,-0.735 0.567,-1.3 1.301,-1.3 z" />
<path
   id="path71"
   fill="#f4f4f4"
   d="m 133.87,271.46 c -1.71,0 -3.138,1.398 -3.138,3.11 v 17.927 c 0,1.71 1.426,3.138 3.138,3.138 h 28.784 c 1.711,0 3.11,-1.426 3.11,-3.138 V 274.57 c 0,-1.712 -1.398,-3.11 -3.11,-3.11 z m 0,1.81 h 28.784 c 0.733,0 1.3,0.566 1.3,1.301 v 17.927 c 0,0.733 -0.567,1.328 -1.3,1.328 H 133.87 c -0.734,0 -1.329,-0.596 -1.329,-1.328 V 274.57 c 0,-0.735 0.595,-1.3 1.329,-1.3 z" />
<path
   id="path73"
   fill="#f4f4f4"
   d="m 181.625,271.46 c -1.711,0 -3.11,1.398 -3.11,3.11 v 17.927 c 0,1.711 1.398,3.138 3.11,3.138 h 28.783 c 1.712,0 3.139,-1.426 3.139,-3.138 V 274.57 c 0,-1.712 -1.427,-3.11 -3.139,-3.11 z m 0,1.81 h 28.783 c 0.735,0 1.329,0.566 1.329,1.301 v 17.927 c 0,0.733 -0.594,1.328 -1.329,1.328 h -28.783 c -0.733,0 -1.301,-0.596 -1.301,-1.328 V 274.57 c 0,-0.735 0.567,-1.3 1.301,-1.3 z" />
<path
   id="path75"
   fill="#f4f4f4"
   d="m 229.407,271.46 c -1.711,0 -3.11,1.398 -3.11,3.11 v 17.927 c 0,1.71 1.398,3.138 3.11,3.138 h 28.783 c 1.711,0 3.139,-1.426 3.139,-3.138 V 274.57 c 0,-1.712 -1.427,-3.11 -3.139,-3.11 z m 0,1.81 h 28.783 c 0.733,0 1.329,0.566 1.329,1.301 v 17.927 c 0,0.733 -0.596,1.328 -1.329,1.328 h -28.783 c -0.734,0 -1.301,-0.596 -1.301,-1.328 V 274.57 c 0,-0.736 0.566,-1.3 1.301,-1.3 z" />
<path
   id="path77"
   fill="#f4f4f4"
   d="m 277.189,271.46 c -1.712,0 -3.11,1.398 -3.11,3.11 v 17.927 c 0,1.71 1.398,3.138 3.11,3.138 h 28.783 c 1.712,0 3.11,-1.427 3.11,-3.138 V 274.57 c 0,-1.712 -1.398,-3.11 -3.11,-3.11 z m 0,1.81 h 28.783 c 0.735,0 1.3,0.565 1.3,1.301 v 17.927 c 0,0.733 -0.564,1.328 -1.3,1.328 h -28.783 c -0.735,0 -1.301,-0.596 -1.301,-1.328 V 274.57 c 0.001,-0.736 0.566,-1.3 1.301,-1.3 z" />
<path
   id="path79"
   fill="#f4f4f4"
   d="m 324.98,271.46 c -1.711,0 -3.11,1.398 -3.11,3.11 v 17.927 c 0,1.71 1.398,3.138 3.11,3.138 h 28.783 c 1.712,0 3.11,-1.426 3.11,-3.138 V 274.57 c 0,-1.712 -1.397,-3.11 -3.11,-3.11 z m 0,1.81 h 28.783 c 0.736,0 1.301,0.566 1.301,1.301 v 17.927 c 0,0.733 -0.566,1.328 -1.301,1.328 H 324.98 c -0.734,0 -1.301,-0.596 -1.301,-1.328 V 274.57 c 0.001,-0.736 0.568,-1.3 1.301,-1.3 z" />
<path
   id="path81"
   fill="#f4f4f4"
   d="m 372.763,271.46 c -1.711,0 -3.11,1.398 -3.11,3.11 v 17.927 c 0,1.71 1.397,3.138 3.11,3.138 h 28.783 c 1.712,0 3.11,-1.426 3.11,-3.138 V 274.57 c 0,-1.712 -1.398,-3.11 -3.11,-3.11 z m 0,1.81 h 28.783 c 0.736,0 1.301,0.566 1.301,1.301 v 17.927 c 0,0.733 -0.565,1.328 -1.301,1.328 h -28.783 c -0.736,0 -1.301,-0.596 -1.301,-1.328 V 274.57 c 0,-0.736 0.565,-1.3 1.301,-1.3 z" />
<path
   id="path83"
   fill="#f4f4f4"
   d="m 420.545,271.46 c -1.711,0 -3.139,1.398 -3.139,3.11 v 17.927 c 0,1.71 1.426,3.138 3.139,3.138 h 28.783 c 1.711,0 3.11,-1.426 3.11,-3.138 V 274.57 c 0,-1.712 -1.398,-3.11 -3.11,-3.11 z m 0,1.81 h 28.783 c 0.734,0 1.301,0.566 1.301,1.301 v 17.927 c 0,0.733 -0.567,1.328 -1.301,1.328 h -28.783 c -0.734,0 -1.329,-0.596 -1.329,-1.328 V 274.57 c 0,-0.735 0.596,-1.3 1.329,-1.3 z" />
<path
   id="path85"
   fill="#f4f4f4"
   d="m 469.458,271.46 c -1.71,0 -3.11,1.398 -3.11,3.11 v 17.927 c 0,1.71 1.398,3.138 3.11,3.138 h 49.623 c 1.711,0 3.109,-1.426 3.109,-3.138 V 274.57 c 0,-1.712 -1.398,-3.11 -3.109,-3.11 z m 0,1.81 h 49.623 c 0.734,0 1.3,0.566 1.3,1.301 v 17.927 c 0,0.733 -0.567,1.328 -1.3,1.328 h -49.623 c -0.734,0 -1.301,-0.596 -1.301,-1.328 V 274.57 c 0,-0.735 0.567,-1.3 1.301,-1.3 z" />
<path
   id="path87"
   fill="#f4f4f4"
   d="m 493.553,224.728 c -1.712,0 -3.11,1.427 -3.11,3.139 v 17.926 c 0,1.711 1.398,3.11 3.11,3.11 h 28.783 c 1.712,0 3.139,-1.398 3.139,-3.11 v -17.926 c 0,-1.711 -1.425,-3.139 -3.139,-3.139 z m 0,1.81 h 28.783 c 0.735,0 1.329,0.595 1.329,1.328 v 17.926 c 0,0.734 -0.594,1.301 -1.329,1.301 h -28.783 c -0.734,0 -1.301,-0.566 -1.301,-1.301 v -17.926 c 0,-0.734 0.567,-1.328 1.301,-1.328 z" />
<path
   id="path89"
   fill="none"
   stroke="#f4f4f4"
   stroke-width="1.8096"
   d="M 465.649,337.465" />
<path
   id="line91"
   fill="#f4f4f4"
   d="m 483.094,294.424 -14.618,34.156 1.668,0.706 14.59,-34.155 z" />
<path
   id="line93"
   fill="#f4f4f4"
   d="m 503.025,247.8 -10.349,24.204 1.669,0.706 10.349,-24.203 z" />
<path
   id="line95"
   fill="#f4f4f4"
   d="m 546.229,146.743 -33.533,78.406 1.669,0.707 33.532,-78.406 z" />
<path
   id="path97"
   fill="none"
   stroke="#f4f4f4"
   stroke-width="1.8096"
   d="M 472.888,337.465" />
<path
   id="line99"
   fill="#f4f4f4"
   d="m 490.269,294.506 -14.533,33.957 1.668,0.735 14.533,-33.985 z" />
<path
   id="line101"
   fill="#f4f4f4"
   d="m 510.21,247.882 -10.292,24.09 1.64,0.707 10.323,-24.095 -1.664,-0.706 z" />
<path
   id="line103"
   fill="#f4f4f4"
   d="m 546.311,163.429 -26.465,61.893 1.668,0.706 26.466,-61.893 z" />
<path
   id="path105"
   fill="none"
   stroke="#f4f4f4"
   stroke-width="1.8096"
   d="M 480.116,337.465" />
<path
   id="line107"
   fill="#f4f4f4"
   d="m 497.543,294.397 -14.788,34.608 1.668,0.706 14.788,-34.607 z" />
<path
   id="line109"
   fill="#f4f4f4"
   d="m 517.476,247.764 -10.35,24.231 1.669,0.706 10.35,-24.23 z" />
<path
   id="line111"
   fill="#f4f4f4"
   d="m 546.148,180.728 -22.507,52.592 1.668,0.707 22.507,-52.592 z" />
<path
   id="path113"
   fill="none"
   stroke="#f4f4f4"
   stroke-width="1.8096"
   d="M 487.354,337.465" />
<path
   id="line115"
   fill="#f4f4f4"
   d="m 504.637,294.705 -14.59,34.184 1.668,0.707 14.59,-34.185 -1.665,-0.706 z" />
<path
   id="line117"
   fill="#f4f4f4"
   d="m 546.456,196.878 -32.148,75.239 1.64,0.735 32.177,-75.269 z" />
<path
   id="path119"
   fill="none"
   stroke="#f4f4f4"
   stroke-width="1.8096"
   d="M 494.584,337.465" />
<path
   id="line121"
   fill="#f4f4f4"
   d="m 512.02,294.397 -14.621,34.183 1.664,0.733 14.622,-34.211 -1.668,-0.707 z" />
<path
   id="line123"
   fill="#f4f4f4"
   d="m 546.43,213.897 -25.958,60.706 1.669,0.707 25.957,-60.707 z" />
<path
   id="polygon125"
   fill="#f4f4f4"
   d="m 21.562,12.042 v 0.905 13.176 0.905 h 0.905 25.221 v 0.311 H 22.353 21.448 v 0.905 4.863 0.905 h 0.905 33.76 0.905 V 33.107 20.58 19.675 H 56.113 29.336 v -0.17 h 27.116 0.905 V 18.6 12.945 12.04 H 56.452 22.466 Z m 1.809,1.809 h 32.176 v 3.845 H 28.432 27.527 v 0.905 1.979 0.905 h 0.905 26.776 v 10.716 h -31.95 v -3.054 h 25.334 0.905 V 28.242 26.121 25.216 H 48.592 23.371 Z" />
<path
   id="rect127"
   fill="#f4f4f4"
   d="m 57.696,11.815 v 0.904 20.386 0.905 h 0.905 6.871 0.905 V 33.105 12.72 11.816 h -0.905 -6.871 -0.905 z m 1.81,1.81 h 5.061 v 18.576 h -5.061 z" />
<path
   id="rect129"
   fill="#f4f4f4"
   d="m 57.498,7.065 v 0.905 2.714 0.905 h 0.905 7.125 0.905 V 10.684 7.97 7.065 h -0.905 -7.125 z m 1.81,1.81 h 5.316 V 9.78 h -5.316 z" />
<path
   id="rect131"
   fill="#f4f4f4"
   d="m 181.254,11.815 v 0.904 20.839 0.905 h 0.905 6.871 0.905 V 33.558 12.72 11.816 h -0.905 -6.871 -0.905 z m 1.809,1.81 h 5.062 v 19.029 h -5.062 z" />
<path
   id="rect133"
   fill="#f4f4f4"
   d="m 181.028,7.065 v 0.905 2.714 0.905 h 0.905 7.153 0.905 V 10.684 7.97 7.065 h -0.905 -7.153 z m 1.809,1.81 h 5.344 V 9.78 h -5.344 z" />
<path
   id="polygon135"
   fill="#f4f4f4"
   d="m 66.575,12.042 v 0.905 20.047 0.905 h 0.905 6.022 0.905 V 32.994 19.902 H 92.87 v 13.26 0.905 h 0.905 6.079 0.905 V 33.162 12.945 12.04 H 99.854 67.479 Z m 1.809,1.809 h 30.565 v 18.407 h -4.27 V 18.998 18.093 H 93.774 73.502 72.598 v 0.905 13.091 H 68.385 V 13.851 Z" />
<path
   id="polygon137"
   fill="#f4f4f4"
   d="m 101.442,11.759 v 0.905 20.611 0.905 h 0.904 33.93 0.905 v -0.905 -6.164 -0.905 h -0.905 -25.448 v -6.361 h 25.023 0.905 V 18.94 12.663 11.758 h -0.905 -33.506 -0.903 z m 1.81,1.809 h 31.696 v 4.467 h -25.023 -0.905 v 0.905 8.171 0.905 h 0.905 25.447 v 4.354 h -32.12 z" />
<path
   id="rect139"
   fill="#f4f4f4"
   d="m 137.091,7.348 v 0.905 25.022 0.905 h 0.905 6.701 0.905 V 33.275 8.252 7.348 h -0.905 -6.701 z m 1.809,1.809 h 4.892 V 32.37 H 138.9 Z" />
<path
   id="polygon141"
   fill="#f4f4f4"
   d="m 145.578,11.759 v 0.905 5.429 0.905 h 0.905 26.38 v 1.301 h -26.352 -0.905 v 0.904 12.074 0.905 h 0.905 33.45 0.905 V 33.277 12.664 11.759 h -0.905 -33.478 z m 1.81,1.809 h 31.668 V 32.37 h -31.64 V 22.106 h 26.352 0.905 v -0.905 -3.11 -0.905 h -0.905 -26.38 z" />
<path
   id="polygon143"
   fill="#f4f4f4"
   d="m 189.687,11.759 v 0.905 20.837 0.905 h 0.905 6.813 0.905 V 33.501 19.392 h 27.087 0.905 v -0.905 -5.825 -0.905 h -0.905 -34.806 z m 1.81,1.809 h 32.997 v 4.015 h -27.088 -0.904 v 0.905 14.109 h -5.005 z" />
<path
   id="rect145"
   fill="#f4f4f4"
   d="m 152.645,24.284 v 0.905 4.043 0.905 h 0.904 20.16 0.905 v -0.905 -4.043 -0.905 h -0.905 -20.16 z m 1.809,1.81 h 18.35 v 2.234 h -18.35 z" />
<path
   id="line147"
   fill="#f4f4f4"
   d="m 2.419,328.154 v 1.81 h 544.74 v -1.81 z" />
</svg>
