<?xml version="1.0" encoding="UTF-8" standalone="no"?>
<svg
   viewBox="0 -256 1792 1792"
   id="svg2"
   version="1.1"
   inkscape:version="1.1 (c68e22c387, 2021-05-23)"
   width="100%"
   height="100%"
   sodipodi:docname="star2.svg"
   xmlns:inkscape="http://www.inkscape.org/namespaces/inkscape"
   xmlns:sodipodi="http://sodipodi.sourceforge.net/DTD/sodipodi-0.dtd"
   xmlns="http://www.w3.org/2000/svg"
   xmlns:svg="http://www.w3.org/2000/svg"
   xmlns:rdf="http://www.w3.org/1999/02/22-rdf-syntax-ns#"
   xmlns:cc="http://creativecommons.org/ns#"
   xmlns:dc="http://purl.org/dc/elements/1.1/">
  <metadata
     id="metadata12">
    <rdf:RDF>
      <cc:Work
         rdf:about="">
        <dc:format>image/svg+xml</dc:format>
        <dc:type
           rdf:resource="http://purl.org/dc/dcmitype/StillImage" />
      </cc:Work>
    </rdf:RDF>
  </metadata>
  <defs
     id="defs10" />
  <sodipodi:namedview
     pagecolor="#ffffff"
     bordercolor="#666666"
     borderopacity="1"
     objecttolerance="10"
     gridtolerance="10"
     guidetolerance="10"
     inkscape:pageopacity="0"
     inkscape:pageshadow="2"
     inkscape:window-width="2560"
     inkscape:window-height="1377"
     id="namedview8"
     showgrid="false"
     inkscape:zoom="0.13169643"
     inkscape:cx="-596.06779"
     inkscape:cy="899.7966"
     inkscape:window-x="-8"
     inkscape:window-y="-8"
     inkscape:window-maximized="1"
     inkscape:current-layer="g4"
     inkscape:pagecheckerboard="0" />
  <g
     transform="matrix(1,0,0,-1,60.745763,1353.7627)"
     id="g4">
    <path
       d="m 1664,889 q 0,-22 -26,-48 l -363,-354 86,-500 q 1,-7 1,-20 0,-21 -10.5,-35.5 Q 1341,-83 1321,-83 q -19,0 -40,12 L 832,165 383,-71 q -22,-12 -40,-12 -21,0 -31.5,14.5 Q 301,-54 301,-33 q 0,6 2,20 L 389,487 25,841 q -25,27 -25,48 0,37 56,46 l 502,73 225,455 q 19,41 49,41 30,0 49,-41 l 225,-455 502,-73 q 56,-9 56,-46 z"
       id="path6"
       inkscape:connector-curvature="0"
       style="fill:#bbbbbb;fill-opacity:1" />
  </g>
</svg>
