<?xml version="1.0" encoding="UTF-8" standalone="no"?>
<svg
   width="100%"
   height="100%"
   viewBox="0 0 168 62"
   version="1.1"
   style="fill-rule:evenodd;clip-rule:evenodd;stroke-linejoin:round;stroke-miterlimit:2;"
   id="svg7418"
   sodipodi:docname="androidgames.svg"
   inkscape:version="1.2.2 (732a01da63, 2022-12-09)"
   xmlns:inkscape="http://www.inkscape.org/namespaces/inkscape"
   xmlns:sodipodi="http://sodipodi.sourceforge.net/DTD/sodipodi-0.dtd"
   xmlns="http://www.w3.org/2000/svg"
   xmlns:svg="http://www.w3.org/2000/svg">
  <defs
     id="defs7422" />
  <sodipodi:namedview
     id="namedview7420"
     pagecolor="#000000"
     bordercolor="#111111"
     borderopacity="1"
     inkscape:showpageshadow="0"
     inkscape:pageopacity="0"
     inkscape:pagecheckerboard="1"
     inkscape:deskcolor="#d1d1d1"
     showgrid="false"
     inkscape:zoom="7.2797619"
     inkscape:cx="84.343418"
     inkscape:cy="31.044971"
     inkscape:window-width="1920"
     inkscape:window-height="1009"
     inkscape:window-x="-8"
     inkscape:window-y="-8"
     inkscape:window-maximized="1"
     inkscape:current-layer="svg7418" />
  <path
     d="m 15.02545,61.345649 c -3.700518,0 -6.7484114,-0.90471 -9.1426891,-2.715117 C 3.5241891,56.820123 2.1633985,54.466296 1.8013804,51.570039 h 5.8775847 c 1.0523317,3.114021 3.5547189,4.671031 7.5101369,4.671031 2.140369,0 3.899876,-0.706742 5.27852,-2.118247 1.415341,-1.375871 2.122516,-3.330795 2.122516,-5.865762 v -3.205085 c -0.870828,1.231353 -2.08681,2.245935 -3.645967,3.042752 -1.560149,0.795828 -3.247252,1.19374 -5.061308,1.19374 -3.664813,0 -6.7662655,-1.321429 -9.3063422,-3.964288 -2.5033789,-2.679483 -3.75506842,-5.955838 -3.75506842,-9.830051 0,-3.83858 1.25168952,-7.0793 3.75506842,-9.72216 2.5400767,-2.679483 5.6415292,-4.019719 9.3063422,-4.019719 1.814056,0 3.501159,0.398903 5.061308,1.195721 1.559157,0.760192 2.775139,1.755967 3.645967,2.987321 V 22.29567 h 5.986685 v 25.472413 c 0,4.489891 -1.288387,7.875127 -3.86417,10.155707 -2.540077,2.281569 -5.768482,3.421859 -9.687203,3.421859 z M 9.2024159,41.467783 c 1.5601491,1.55701 3.4823151,2.33601 5.7684841,2.33601 2.285176,0 4.209326,-0.779 5.768482,-2.33601 1.560149,-1.592645 2.34072,-3.584193 2.34072,-5.973654 0,-2.389462 -0.780571,-4.364182 -2.34072,-5.920203 -1.559156,-1.593635 -3.483306,-2.389461 -5.768482,-2.389461 -2.286169,0 -4.208335,0.795826 -5.7684841,2.389461 -1.5601485,1.556021 -2.3397269,3.530741 -2.3397269,5.920203 0,2.389461 0.7795784,4.381009 2.3397269,5.973654 z m 37.5635791,8.527428 c -3.699526,0 -6.819824,-1.37587 -9.359901,-4.128601 -2.503379,-2.750751 -3.755068,-6.081546 -3.755068,-9.992385 0,-3.910838 1.251689,-7.241633 3.755068,-9.993374 2.540077,-2.75273 5.660375,-4.128601 9.359901,-4.128601 1.850754,0 3.556701,0.416721 5.11685,1.250161 1.559157,0.795828 2.757288,1.773784 3.591416,2.932881 V 22.29567 h 5.985695 v 27.156121 h -5.985695 v -3.638632 c -0.834128,1.158106 -2.032259,2.15388 -3.591416,2.986331 -1.560149,0.796818 -3.266096,1.195721 -5.11685,1.195721 z M 42.03199,42.065643 c 1.523451,1.664903 3.465453,2.498344 5.823033,2.498344 2.35758,0 4.299584,-0.833441 5.823034,-2.498344 1.524443,-1.665892 2.286168,-3.729698 2.286168,-6.191418 0,-2.462709 -0.761725,-4.526515 -2.286168,-6.191418 -1.52345,-1.665892 -3.465454,-2.498342 -5.823034,-2.498342 -2.35758,0 -4.299582,0.83245 -5.823033,2.498342 -1.523452,1.664903 -2.286169,3.728709 -2.286169,6.191418 0,2.46172 0.762717,4.525526 2.286169,6.191418 z m 61.18302,7.386148 V 34.190516 c 0,-2.209311 -0.41756,-3.928656 -1.2517,-5.16001 -0.79841,-1.230365 -1.995548,-1.846041 -3.591409,-1.846041 -1.923158,0 -3.465453,0.741385 -4.625895,2.226138 -1.161432,1.484752 -1.778351,3.566375 -1.849763,6.245859 V 49.451791 H 85.909558 V 34.190516 c 0,-2.209311 -0.417561,-3.928656 -1.25169,-5.16001 -0.798423,-1.230365 -1.996554,-1.846041 -3.592409,-1.846041 -1.995561,0 -3.591416,0.778009 -4.788554,2.33502 -1.161433,1.557011 -1.741654,3.747515 -1.741654,6.571514 V 49.451791 H 68.549557 V 22.29567 h 5.985694 v 3.693073 c 1.668258,-2.823999 4.245032,-4.236493 7.728339,-4.236493 4.099234,0 6.911072,1.79259 8.434523,5.376783 0.761725,-1.701525 1.923158,-3.022956 3.483307,-3.964289 1.595855,-0.941333 3.337508,-1.412494 5.22496,-1.412494 3.04689,0 5.44119,1.032398 7.18382,3.096203 1.74066,2.063807 2.6115,4.852172 2.6115,8.364106 v 16.239232 z m 24.66681,0.54342 c -4.06353,0 -7.40202,-1.321429 -10.01351,-3.965279 -2.61248,-2.679483 -3.91873,-6.064719 -3.91873,-10.155707 0,-4.091977 1.2884,-7.459396 3.86418,-10.102256 2.57577,-2.679483 5.95098,-4.019719 10.12261,-4.019719 4.20833,0 7.60138,1.466935 10.17618,4.399815 2.57678,2.896259 3.71936,6.625957 3.42875,11.188106 h -21.65959 c 0.0724,2.09944 0.87083,3.856397 2.39428,5.267902 1.52445,1.412494 3.46546,2.118247 5.82404,2.118247 3.3375,0 5.62367,-1.266989 6.85651,-3.800966 h 6.25845 c -0.83413,2.642859 -2.42998,4.815546 -4.78856,6.517073 -2.35857,1.702516 -5.20711,2.552784 -8.54461,2.552784 z m -0.10811,-23.245284 c -1.95986,0 -3.64696,0.561236 -5.06131,1.68272 -1.37864,1.086838 -2.26832,2.643849 -2.66703,4.67202 h 15.07483 c -0.43641,-2.100429 -1.32509,-3.675257 -2.66703,-4.725472 -1.34195,-1.086839 -2.9031,-1.629268 -4.67946,-1.629268 z m 28.47543,23.245284 c -3.22938,0 -5.94999,-0.796817 -8.16375,-2.389461 -2.17707,-1.593635 -3.33751,-3.729699 -3.4833,-6.409182 h 6.20489 c 0.43541,2.679483 2.30403,4.01873 5.60484,4.01873 1.34292,0 2.41311,-0.235581 3.21054,-0.705752 0.79843,-0.507786 1.19814,-1.230365 1.19814,-2.172689 0,-0.941333 -0.30846,-1.683708 -0.92539,-2.226137 -0.61691,-0.54342 -1.65139,-0.996765 -3.10145,-1.358054 l -4.46323,-1.195721 c -4.64375,-1.230364 -6.96562,-3.964289 -6.96562,-8.199793 0,-2.28157 0.92537,-4.110785 2.77613,-5.486656 1.84976,-1.411504 4.29858,-2.118246 7.34648,-2.118246 2.93879,0 5.35093,0.742376 7.23738,2.227128 1.88647,1.484753 2.9388,3.457494 3.157,5.920204 h -5.98669 c -0.58021,-2.244947 -2.06797,-3.367419 -4.46224,-3.367419 -1.19812,0 -2.15821,0.253398 -2.88424,0.760193 -0.72602,0.471161 -1.08902,1.140291 -1.08902,2.009365 0,1.557011 1.21598,2.64286 3.64695,3.259527 l 4.57135,1.19473 c 4.82526,1.231355 7.23837,3.964289 7.23837,8.200783 0,2.570601 -0.99877,4.56215 -2.99433,5.974644 -1.95886,1.375871 -4.51581,2.063806 -7.67281,2.063806 z"
     style="fill:#a4c639;fill-opacity:1;fill-rule:nonzero;stroke:#ffffff;stroke-width:0.594499;stroke-dasharray:none;stroke-opacity:1"
     id="path7416" />
  <g
     id="g2650"
     style="clip-rule:evenodd;fill:#a4c639;fill-opacity:1;fill-rule:evenodd;stroke-linejoin:round;stroke-miterlimit:2"
     transform="translate(-0.15731835,1.81735)">
    <path
       d="m 126.235,11.068 c -0.584,0 -1.065,-0.481 -1.065,-1.065 0,-0.583 0.481,-1.064 1.065,-1.064 0.584,0 1.064,0.481 1.064,1.064 0,0.584 -0.48,1.065 -1.064,1.065 m -11.72,0 c -0.584,0 -1.065,-0.481 -1.065,-1.065 0,-0.583 0.481,-1.064 1.065,-1.064 0.584,0 1.064,0.481 1.064,1.064 0,0.584 -0.48,1.065 -1.064,1.065 m 12.097,-6.387 2.129,-3.67 c 0.038,-0.066 0.058,-0.142 0.058,-0.218 0,-0.241 -0.199,-0.44 -0.44,-0.44 -0.159,0 -0.306,0.087 -0.383,0.226 l -2.151,3.714 C 124.116,3.512 122.259,3.111 120.38,3.118 118.5,3.113 116.64,3.51 114.925,4.282 l -2.151,-3.715 c -0.078,-0.136 -0.224,-0.221 -0.381,-0.221 -0.242,0 -0.44,0.199 -0.44,0.44 0,0.075 0.019,0.148 0.056,0.214 l 2.118,3.67 c -3.717,2.027 -6.165,5.804 -6.498,10.024 h 25.469 C 132.775,10.476 130.329,6.7 126.612,4.681"
       style="fill:#a4c639;fill-opacity:1;fill-rule:nonzero;stroke:#ffffff;stroke-width:0.4;stroke-dasharray:none;stroke-opacity:1"
       id="path2" />
    <path
       d="m 38.983,4.72 c 1.38,0 2.527,0.712 3.072,1.48 V 4.909 h 2.104 v 9.584 h -1.514 c -0.334,0 -0.601,-0.267 -0.601,-0.601 v -0.69 c -0.534,0.779 -1.681,1.492 -3.061,1.492 -2.627,0 -4.62,-2.249 -4.62,-4.987 0,-2.739 1.993,-4.987 4.62,-4.987 m 0.379,1.914 c -1.704,0 -2.861,1.347 -2.861,3.073 0,1.725 1.146,3.072 2.861,3.072 1.703,0 2.86,-1.347 2.86,-3.072 0,-1.726 -1.146,-3.073 -2.86,-3.073"
       style="fill:#a4c639;fill-opacity:1;fill-rule:nonzero;stroke:#ffffff;stroke-width:0.4;stroke-dasharray:none;stroke-opacity:1"
       id="path4" />
    <path
       d="m 46.553,4.909 h 2.115 v 1.302 c 0.578,-0.957 1.669,-1.491 2.916,-1.491 2.226,0 3.662,1.569 3.662,4.007 v 5.766 h -1.514 c -0.334,0 -0.601,-0.267 -0.601,-0.601 v -4.82 c 0,-1.514 -0.768,-2.438 -1.992,-2.438 -1.403,0 -2.471,1.091 -2.471,3.139 v 4.72 h -1.514 c -0.334,0 -0.601,-0.267 -0.601,-0.601 z"
       style="fill:#a4c639;fill-opacity:1;fill-rule:nonzero;stroke:#ffffff;stroke-width:0.4;stroke-dasharray:none;stroke-opacity:1"
       id="path6" />
    <path
       d="m 61.536,4.72 c 1.38,0 2.527,0.712 3.072,1.48 V 0.122 h 2.104 v 14.382 h -1.514 c -0.334,0 -0.601,-0.267 -0.601,-0.601 v -0.69 c -0.534,0.768 -1.692,1.481 -3.072,1.481 -2.628,0 -4.62,-2.249 -4.62,-4.987 0.011,-2.739 2.004,-4.987 4.631,-4.987 m 0.378,1.914 c -1.703,0 -2.861,1.347 -2.861,3.073 0,1.725 1.147,3.072 2.861,3.072 1.703,0 2.861,-1.347 2.861,-3.072 0,-1.726 -1.158,-3.073 -2.861,-3.073"
       style="fill:#a4c639;fill-opacity:1;fill-rule:nonzero;stroke:#ffffff;stroke-width:0.4;stroke-dasharray:none;stroke-opacity:1"
       id="path8" />
    <path
       d="m 69.083,4.909 h 2.126 v 1.703 c 0.367,-1.091 1.436,-1.803 2.527,-1.803 0.267,0 0.534,0.022 0.824,0.078 v 2.17 C 74.192,6.946 73.892,6.879 73.502,6.879 c -1.213,0 -2.304,1.013 -2.304,2.939 v 4.675 h -1.514 c -0.334,0 -0.601,-0.267 -0.601,-0.601 z"
       style="fill:#a4c639;fill-opacity:1;fill-rule:nonzero;stroke:#ffffff;stroke-width:0.4;stroke-dasharray:none;stroke-opacity:1"
       id="path10" />
    <path
       d="m 80.259,14.694 c -2.839,0 -5.02,-2.204 -5.02,-4.987 0,-2.783 2.181,-4.987 5.02,-4.987 2.838,0 5.02,2.204 5.02,4.987 0,2.783 -2.182,4.987 -5.02,4.987 m 0,-1.96 c 1.692,0 2.872,-1.324 2.872,-3.027 0,-1.703 -1.191,-3.028 -2.872,-3.028 -1.703,0 -2.894,1.325 -2.894,3.028 0,1.703 1.191,3.027 2.894,3.027"
       style="fill:#a4c639;fill-opacity:1;fill-rule:nonzero;stroke:#ffffff;stroke-width:0.4;stroke-dasharray:none;stroke-opacity:1"
       id="path12" />
    <path
       d="M 88.04,2.816 C 87.272,2.816 86.626,2.182 86.626,1.403 86.626,0.635 87.283,0 88.04,0 c 0.79,0 1.402,0.635 1.402,1.403 0,0.79 -0.612,1.413 -1.402,1.413 m -1.046,2.093 h 2.103 v 9.584 h -1.502 c -0.334,0 -0.601,-0.267 -0.601,-0.601 z"
       style="fill:#a4c639;fill-opacity:1;fill-rule:nonzero;stroke:#ffffff;stroke-width:0.4;stroke-dasharray:none;stroke-opacity:1"
       id="path14" />
    <path
       d="m 95.453,4.72 c 1.381,0 2.527,0.712 3.073,1.48 V 0.122 h 2.104 v 14.382 h -1.514 c -0.334,0 -0.601,-0.267 -0.601,-0.601 v -0.69 c -0.535,0.768 -1.692,1.481 -3.073,1.481 -2.627,0 -4.619,-2.249 -4.619,-4.987 0.011,-2.739 2.003,-4.987 4.63,-4.987 m 0.39,1.914 c -1.703,0 -2.861,1.347 -2.861,3.073 0,1.725 1.147,3.072 2.861,3.072 1.703,0 2.861,-1.347 2.861,-3.072 0,-1.726 -1.158,-3.073 -2.861,-3.073"
       style="fill:#a4c639;fill-opacity:1;fill-rule:nonzero;stroke:#ffffff;stroke-width:0.4;stroke-dasharray:none;stroke-opacity:1"
       id="path16" />
  </g>
</svg>
