<?xml version="1.0" encoding="UTF-8" standalone="no"?>
<svg
   width="100%"
   height="100%"
   viewBox="0 0 168 62"
   version="1.1"
   style="fill-rule:evenodd;clip-rule:evenodd;stroke-linejoin:round;stroke-miterlimit:2;"
   id="svg20"
   sodipodi:docname="androidapps.svg"
   inkscape:version="1.2.2 (732a01da63, 2022-12-09)"
   xmlns:inkscape="http://www.inkscape.org/namespaces/inkscape"
   xmlns:sodipodi="http://sodipodi.sourceforge.net/DTD/sodipodi-0.dtd"
   xmlns="http://www.w3.org/2000/svg"
   xmlns:svg="http://www.w3.org/2000/svg">
  <defs
     id="defs24" />
  <sodipodi:namedview
     id="namedview22"
     pagecolor="#000000"
     bordercolor="#111111"
     borderopacity="1"
     inkscape:showpageshadow="0"
     inkscape:pageopacity="0"
     inkscape:pagecheckerboard="1"
     inkscape:deskcolor="#d1d1d1"
     showgrid="false"
     inkscape:zoom="7.2797619"
     inkscape:cx="83.450531"
     inkscape:cy="31.044971"
     inkscape:window-width="1920"
     inkscape:window-height="1009"
     inkscape:window-x="-8"
     inkscape:window-y="-8"
     inkscape:window-maximized="1"
     inkscape:current-layer="svg20" />
  <g
     id="g2650"
     style="fill:#a4c639;fill-opacity:1"
     transform="translate(0,2)">
    <path
       d="m 126.235,11.068 c -0.584,0 -1.065,-0.481 -1.065,-1.065 0,-0.583 0.481,-1.064 1.065,-1.064 0.584,0 1.064,0.481 1.064,1.064 0,0.584 -0.48,1.065 -1.064,1.065 m -11.72,0 c -0.584,0 -1.065,-0.481 -1.065,-1.065 0,-0.583 0.481,-1.064 1.065,-1.064 0.584,0 1.064,0.481 1.064,1.064 0,0.584 -0.48,1.065 -1.064,1.065 m 12.097,-6.387 2.129,-3.67 c 0.038,-0.066 0.058,-0.142 0.058,-0.218 0,-0.241 -0.199,-0.44 -0.44,-0.44 -0.159,0 -0.306,0.087 -0.383,0.226 l -2.151,3.714 C 124.116,3.512 122.259,3.111 120.38,3.118 118.5,3.113 116.64,3.51 114.925,4.282 l -2.151,-3.715 c -0.078,-0.136 -0.224,-0.221 -0.381,-0.221 -0.242,0 -0.44,0.199 -0.44,0.44 0,0.075 0.019,0.148 0.056,0.214 l 2.118,3.67 c -3.717,2.027 -6.165,5.804 -6.498,10.024 h 25.469 C 132.775,10.476 130.329,6.7 126.612,4.681"
       style="fill:#a4c639;fill-opacity:1;fill-rule:nonzero;stroke:#ffffff;stroke-width:0.4;stroke-dasharray:none;stroke-opacity:1"
       id="path2" />
    <path
       d="m 38.983,4.72 c 1.38,0 2.527,0.712 3.072,1.48 V 4.909 h 2.104 v 9.584 h -1.514 c -0.334,0 -0.601,-0.267 -0.601,-0.601 v -0.69 c -0.534,0.779 -1.681,1.492 -3.061,1.492 -2.627,0 -4.62,-2.249 -4.62,-4.987 0,-2.739 1.993,-4.987 4.62,-4.987 m 0.379,1.914 c -1.704,0 -2.861,1.347 -2.861,3.073 0,1.725 1.146,3.072 2.861,3.072 1.703,0 2.86,-1.347 2.86,-3.072 0,-1.726 -1.146,-3.073 -2.86,-3.073"
       style="fill:#a4c639;fill-opacity:1;fill-rule:nonzero;stroke:#ffffff;stroke-width:0.4;stroke-dasharray:none;stroke-opacity:1"
       id="path4" />
    <path
       d="m 46.553,4.909 h 2.115 v 1.302 c 0.578,-0.957 1.669,-1.491 2.916,-1.491 2.226,0 3.662,1.569 3.662,4.007 v 5.766 h -1.514 c -0.334,0 -0.601,-0.267 -0.601,-0.601 v -4.82 c 0,-1.514 -0.768,-2.438 -1.992,-2.438 -1.403,0 -2.471,1.091 -2.471,3.139 v 4.72 h -1.514 c -0.334,0 -0.601,-0.267 -0.601,-0.601 z"
       style="fill:#a4c639;fill-opacity:1;fill-rule:nonzero;stroke:#ffffff;stroke-width:0.4;stroke-dasharray:none;stroke-opacity:1"
       id="path6" />
    <path
       d="m 61.536,4.72 c 1.38,0 2.527,0.712 3.072,1.48 V 0.122 h 2.104 v 14.382 h -1.514 c -0.334,0 -0.601,-0.267 -0.601,-0.601 v -0.69 c -0.534,0.768 -1.692,1.481 -3.072,1.481 -2.628,0 -4.62,-2.249 -4.62,-4.987 0.011,-2.739 2.004,-4.987 4.631,-4.987 m 0.378,1.914 c -1.703,0 -2.861,1.347 -2.861,3.073 0,1.725 1.147,3.072 2.861,3.072 1.703,0 2.861,-1.347 2.861,-3.072 0,-1.726 -1.158,-3.073 -2.861,-3.073"
       style="fill:#a4c639;fill-opacity:1;fill-rule:nonzero;stroke:#ffffff;stroke-width:0.4;stroke-dasharray:none;stroke-opacity:1"
       id="path8" />
    <path
       d="m 69.083,4.909 h 2.126 v 1.703 c 0.367,-1.091 1.436,-1.803 2.527,-1.803 0.267,0 0.534,0.022 0.824,0.078 v 2.17 C 74.192,6.946 73.892,6.879 73.502,6.879 c -1.213,0 -2.304,1.013 -2.304,2.939 v 4.675 h -1.514 c -0.334,0 -0.601,-0.267 -0.601,-0.601 z"
       style="fill:#a4c639;fill-opacity:1;fill-rule:nonzero;stroke:#ffffff;stroke-width:0.4;stroke-dasharray:none;stroke-opacity:1"
       id="path10" />
    <path
       d="m 80.259,14.694 c -2.839,0 -5.02,-2.204 -5.02,-4.987 0,-2.783 2.181,-4.987 5.02,-4.987 2.838,0 5.02,2.204 5.02,4.987 0,2.783 -2.182,4.987 -5.02,4.987 m 0,-1.96 c 1.692,0 2.872,-1.324 2.872,-3.027 0,-1.703 -1.191,-3.028 -2.872,-3.028 -1.703,0 -2.894,1.325 -2.894,3.028 0,1.703 1.191,3.027 2.894,3.027"
       style="fill:#a4c639;fill-opacity:1;fill-rule:nonzero;stroke:#ffffff;stroke-width:0.4;stroke-dasharray:none;stroke-opacity:1"
       id="path12" />
    <path
       d="M 88.04,2.816 C 87.272,2.816 86.626,2.182 86.626,1.403 86.626,0.635 87.283,0 88.04,0 c 0.79,0 1.402,0.635 1.402,1.403 0,0.79 -0.612,1.413 -1.402,1.413 m -1.046,2.093 h 2.103 v 9.584 h -1.502 c -0.334,0 -0.601,-0.267 -0.601,-0.601 z"
       style="fill:#a4c639;fill-opacity:1;fill-rule:nonzero;stroke:#ffffff;stroke-width:0.4;stroke-dasharray:none;stroke-opacity:1"
       id="path14" />
    <path
       d="m 95.453,4.72 c 1.381,0 2.527,0.712 3.073,1.48 V 0.122 h 2.104 v 14.382 h -1.514 c -0.334,0 -0.601,-0.267 -0.601,-0.601 v -0.69 c -0.535,0.768 -1.692,1.481 -3.073,1.481 -2.627,0 -4.619,-2.249 -4.619,-4.987 0.011,-2.739 2.003,-4.987 4.63,-4.987 m 0.39,1.914 c -1.703,0 -2.861,1.347 -2.861,3.073 0,1.725 1.147,3.072 2.861,3.072 1.703,0 2.861,-1.347 2.861,-3.072 0,-1.726 -1.158,-3.073 -2.861,-3.073"
       style="fill:#a4c639;fill-opacity:1;fill-rule:nonzero;stroke:#ffffff;stroke-width:0.4;stroke-dasharray:none;stroke-opacity:1"
       id="path16" />
  </g>
  <path
     d="m 35.279591,50.090284 c -3.783188,0 -6.972347,-1.381165 -9.569476,-4.142514 -2.559127,-2.76037 -3.839191,-6.102592 -3.839191,-10.026666 0,-3.923095 1.280064,-7.265317 3.839191,-10.026666 2.597129,-2.76135 5.786288,-4.142514 9.569476,-4.142514 1.892094,0 3.63518,0.418267 5.23026,1.253823 1.594079,0.799312 2.81814,1.779841 3.671182,2.943545 v -3.651759 h 6.120305 v 27.247142 h -6.120305 v -3.65078 c -0.853042,1.162725 -2.077103,2.161865 -3.671182,2.996441 -1.59508,0.800292 -3.338166,1.199948 -5.23026,1.199948 z M 30.43935,42.134385 c 1.558077,1.670131 3.542176,2.505687 5.952296,2.505687 2.41112,0 4.395219,-0.835556 5.953296,-2.505687 1.558077,-1.672091 2.337116,-3.742858 2.337116,-6.213281 0,-2.470423 -0.779039,-4.541191 -2.337116,-6.212302 -1.558077,-1.671111 -3.542176,-2.506666 -5.953296,-2.506666 -2.41012,0 -4.394219,0.835555 -5.952296,2.506666 -1.558077,1.671111 -2.337116,3.741879 -2.337116,6.212302 0,2.470423 0.779039,4.54119 2.337116,6.213281 z m 33.228652,18.800488 h -6.120304 v -38.63734 h 6.120304 v 3.651759 c 0.853043,-1.163704 2.077104,-2.144233 3.671183,-2.943545 1.632081,-0.835556 3.394169,-1.253823 5.285263,-1.253823 3.784188,0 6.955346,1.381164 9.514473,4.142514 2.596129,2.761349 3.894193,6.103571 3.894193,10.026666 0,3.924074 -1.298064,7.266296 -3.894193,10.026666 -2.559127,2.761349 -5.730285,4.142514 -9.514473,4.142514 -1.891094,0 -3.653182,-0.399656 -5.285263,-1.199948 -1.594079,-0.834576 -2.81814,-1.833716 -3.671183,-2.996441 z m 7.84439,-16.294801 c 2.41112,0 4.395219,-0.835556 5.952296,-2.505687 1.558078,-1.672091 2.337117,-3.742858 2.337117,-6.213281 0,-2.470423 -0.779039,-4.541191 -2.337117,-6.212302 -1.557077,-1.671111 -3.541176,-2.506666 -5.952296,-2.506666 -2.448121,0 -4.451221,0.835555 -6.008298,2.506666 -1.558078,1.671111 -2.337117,3.741879 -2.337117,6.212302 0,2.470423 0.779039,4.54119 2.337117,6.213281 1.557077,1.670131 3.560177,2.505687 6.008298,2.505687 z m 25.828285,16.294801 h -6.119305 v -38.63734 h 6.119305 v 3.651759 c 0.853042,-1.163704 2.078103,-2.144233 3.672183,-2.943545 1.63208,-0.835556 3.39417,-1.253823 5.28526,-1.253823 3.78419,0 6.95535,1.381164 9.51348,4.142514 2.59612,2.761349 3.89519,6.103571 3.89519,10.026666 0,3.924074 -1.29907,7.266296 -3.89519,10.026666 -2.55813,2.761349 -5.72929,4.142514 -9.51348,4.142514 -1.89109,0 -3.65318,-0.399656 -5.28526,-1.199948 -1.59408,-0.834576 -2.819141,-1.833716 -3.672183,-2.996441 z m 7.845393,-16.294801 c 2.41112,0 4.39522,-0.835556 5.95229,-2.505687 1.55808,-1.672091 2.33712,-3.742858 2.33712,-6.213281 0,-2.470423 -0.77904,-4.541191 -2.33712,-6.212302 -1.55707,-1.671111 -3.54117,-2.506666 -5.95229,-2.506666 -2.44812,0 -4.45122,0.835555 -6.009302,2.506666 -1.558077,1.671111 -2.336116,3.741879 -2.336116,6.212302 0,2.470423 0.778039,4.54119 2.336116,6.213281 1.558082,1.670131 3.561182,2.505687 6.009302,2.505687 z m 29.50046,5.450212 c -3.30116,0 -6.0833,-0.800292 -8.34541,-2.397937 -2.22611,-1.598624 -3.41217,-3.741878 -3.56118,-6.430741 h 6.34232 c 0.44602,2.688863 2.35611,4.032804 5.73128,4.032804 1.37207,0 2.46712,-0.23705 3.28217,-0.708214 0.81604,-0.509365 1.22406,-1.235211 1.22406,-2.180476 0,-0.944286 -0.31502,-1.688743 -0.94505,-2.233373 -0.63103,-0.545608 -1.68908,-1.000119 -3.17116,-1.362553 l -4.56323,-1.199947 c -4.74723,-1.234232 -7.12035,-3.97697 -7.12035,-8.228214 0,-2.288227 0.94505,-4.123902 2.83714,-5.504087 1.8911,-1.416428 4.39422,-2.125622 7.51038,-2.125622 3.00514,0 5.47127,0.745437 7.39936,2.235331 1.9291,1.488915 3.00415,3.468584 3.22716,5.939007 h -6.1193 c -0.59403,-2.251983 -2.11511,-3.378465 -4.56223,-3.378465 -1.22506,0 -2.20711,0.254683 -2.94914,0.763069 -0.74204,0.472143 -1.11306,1.144113 -1.11306,2.016892 0,1.561401 1.24306,2.65164 3.72819,3.268756 l 4.67323,1.199947 c 4.93324,1.235212 7.39937,3.97697 7.39937,8.228214 0,2.579153 -1.02005,4.577434 -3.06016,5.994841 -2.0031,1.380185 -4.61723,2.070768 -7.84439,2.070768 z"
     style="fill:#a4c639;fill-opacity:1;fill-rule:nonzero;stroke:#ffffff;stroke-width:0.593848;stroke-dasharray:none;stroke-opacity:1"
     id="path18" />
</svg>
