<?xml version="1.0" encoding="UTF-8" standalone="no"?>
<!-- Generator: Adobe Illustrator 26.0.3, SVG Export Plug-In . SVG Version: 6.00 Build 0)  -->

<svg
   version="1.1"
   id="Layer_1"
   x="0px"
   y="0px"
   viewBox="0 0 3839 1558.9"
   style="enable-background:new 0 0 3839 1558.9;"
   xml:space="preserve"
   sodipodi:docname="logo.svg"
   inkscape:version="1.1.2 (0a00cf5339, 2022-02-04)"
   xmlns:inkscape="http://www.inkscape.org/namespaces/inkscape"
   xmlns:sodipodi="http://sodipodi.sourceforge.net/DTD/sodipodi-0.dtd"
   xmlns="http://www.w3.org/2000/svg"
   xmlns:svg="http://www.w3.org/2000/svg"><defs
   id="defs77">
	<linearGradient
   id="SVGID_1_"
   gradientUnits="userSpaceOnUse"
   x1="1919.5"
   y1="0"
   x2="1919.5"
   y2="1558.8749">
		<stop
   offset="0"
   style="stop-color:#007CFF"
   id="stop4" />
		<stop
   offset="0.7926"
   style="stop-color:#034EA2"
   id="stop6" />
		<stop
   offset="1"
   style="stop-color:#034EA2"
   id="stop8" />
	</linearGradient>
	
	
	
</defs><sodipodi:namedview
   id="namedview75"
   pagecolor="#ffffff"
   bordercolor="#666666"
   borderopacity="1.0"
   inkscape:pageshadow="2"
   inkscape:pageopacity="0.0"
   inkscape:pagecheckerboard="0"
   showgrid="false"
   inkscape:zoom="0.42465841"
   inkscape:cx="1920.367"
   inkscape:cy="778.2726"
   inkscape:window-width="3840"
   inkscape:window-height="2065"
   inkscape:window-x="0"
   inkscape:window-y="0"
   inkscape:window-maximized="1"
   inkscape:current-layer="Layer_1" />
<style
   type="text/css"
   id="style2">
	.st0{fill-rule:evenodd;clip-rule:evenodd;fill:#034EA2;}
	.st1{fill:#FFFFFF;}
	.st2{fill:#231F20;}
	.st3{fill:#034EA2;}
	.st4{fill:#FFCB04;}
	.st5{fill:url(#SVGID_1_);}
	.st6{fill-rule:evenodd;clip-rule:evenodd;fill:url(#rect4789_00000134226836866076084100000006880021628576717466_);}
	.st7{fill:url(#SVGID_00000111895356764379914990000014443022304178195125_);}
	.st8{fill:url(#SVGID_00000139284760716328070180000000294968434725602434_);}
	.st9{fill:url(#SVGID_00000016767607370912999320000015265545269686296713_);}
	.st10{fill:url(#SVGID_00000085240064061706963770000007769410364625254561_);}
	.st11{fill:url(#SVGID_00000098906978147719279980000003695051628665015941_);}
	.st12{fill:url(#SVGID_00000057142406866258011870000013756389679370705044_);}
	.st13{fill:url(#SVGID_00000016774761930930692690000000233776172686486173_);}
	.st14{fill:url(#SVGID_00000104678994707674757050000002867201130351754129_);}
	.st15{fill:url(#SVGID_00000088829443290499354060000000103556663694533293_);}
	.st16{fill:url(#SVGID_00000160905678355232936120000013143699755777387420_);}
	.st17{fill:url(#SVGID_00000026124988288772784160000015067953542999658417_);}
	.st18{fill:url(#SVGID_00000143618130065680189900000011287215546306581379_);}
	.st19{fill:url(#SVGID_00000145040226532280595700000006676476011710343074_);}
	.st20{display:none;}
	.st21{display:inline;fill:#FF0642;}
	.st22{display:inline;fill:#FFFFFF;stroke:#000000;stroke-width:0.5156;stroke-miterlimit:10;}
	.st23{display:inline;fill:#FFCB04;}
	.st24{fill-rule:evenodd;clip-rule:evenodd;fill:url(#rect4789_00000131348832420312960000000000481628399388720536_);}
	.st25{fill:url(#SVGID_00000078010572202836851010000009987330876938020002_);}
	.st26{fill:url(#SVGID_00000112602413888299362310000010558244428830123952_);}
	.st27{fill:url(#SVGID_00000151537464932610758560000009095924251172470199_);}
	.st28{fill:url(#SVGID_00000157276475580789902710000010443352254282370483_);}
	.st29{fill:url(#SVGID_00000108293218447527238730000004711464414536895371_);}
	.st30{fill:url(#SVGID_00000180352328562008261160000009815233246274305209_);}
	.st31{fill:url(#SVGID_00000035506380589226871050000002002622622545418421_);}
	.st32{fill:url(#SVGID_00000045619987202570516340000011967830695078014380_);}
	.st33{fill:url(#SVGID_00000057845220872217970980000006965626214287518593_);}
	.st34{fill:url(#SVGID_00000155827645804141855980000010500279393726518203_);}
	.st35{fill:url(#SVGID_00000174598335566037708420000004379236887328938650_);}
	.st36{fill:url(#SVGID_00000021831913471430530030000004818444711303833269_);}
	.st37{fill:url(#SVGID_00000041999103692473973950000006859778958591531180_);}
	.st38{fill:url(#SVGID_00000150101282249229469840000004352035056662430594_);}
	.st39{fill-rule:evenodd;clip-rule:evenodd;fill:url(#rect4789_00000128471310629531012960000000111040477966360466_);}
	.st40{fill:url(#SVGID_00000128487507030424476030000009299213541321838006_);}
	.st41{fill:url(#SVGID_00000031208833349332054230000013839055063398939041_);}
	.st42{fill:url(#SVGID_00000057139130002445676040000004756944945939041716_);}
	.st43{fill:url(#SVGID_00000019658358082544400590000010738303335348376710_);}
	.st44{fill:url(#SVGID_00000145766886565954000820000018179471410483193238_);}
	.st45{fill:url(#SVGID_00000108297084453822908220000002879987574830681517_);}
	.st46{fill:url(#SVGID_00000122000307839668888700000011828205857149415057_);}
	.st47{fill:url(#SVGID_00000134929842339719582260000018200293634144536976_);}
	.st48{fill:url(#SVGID_00000164502290637284230210000011880500221386864791_);}
	.st49{fill:url(#SVGID_00000079469597394221130630000014892267677812944777_);}
	.st50{fill:url(#SVGID_00000183233571967408588390000008067543413933239449_);}
	.st51{fill:url(#SVGID_00000002345680839519400550000005800734048554370207_);}
	.st52{fill:url(#SVGID_00000159466378238549467350000017846170683906001072_);}
	.st53{fill-rule:evenodd;clip-rule:evenodd;fill:url(#rect4789_00000118397932764224830900000011068979481191257782_);}
	.st54{fill:url(#SVGID_00000019659357885569495690000015859256285365957780_);}
	.st55{fill:url(#SVGID_00000103232591393442362960000001572393769538579845_);}
	.st56{fill:url(#SVGID_00000066499783117739726910000004499640802761478051_);}
	.st57{fill:url(#SVGID_00000029760596886618116130000006961244394299753910_);}
	.st58{fill:url(#SVGID_00000120556773382548029200000013627696093088003737_);}
	.st59{fill:url(#SVGID_00000138534396623558667830000000411148332409142421_);}
	.st60{fill:url(#SVGID_00000098210560802066272860000015596147105287129749_);}
	.st61{fill:url(#SVGID_00000074430911946409479000000014629287477925239192_);}
	.st62{fill:url(#SVGID_00000162314121606107492240000013224588707523568572_);}
	.st63{fill:url(#SVGID_00000087406189586896484220000003286221356759539073_);}
	.st64{fill:url(#SVGID_00000073695081334046230370000002684081990606947756_);}
	.st65{fill:url(#SVGID_00000106147103179355099300000010710806872513245852_);}
	.st66{fill:url(#SVGID_00000175296239488993343770000006441139863101276579_);}
	.st67{fill:url(#SVGID_00000174602894395437796870000014892476972716573589_);}
	.st68{fill-rule:evenodd;clip-rule:evenodd;fill:url(#rect4789_00000048478420860039464200000003476096209072373381_);}
	.st69{fill:url(#SVGID_00000101076557306205415130000010840834357401767062_);}
	.st70{fill:url(#SVGID_00000058564664042183202010000003946273685529409920_);}
	.st71{fill:url(#SVGID_00000044171588378579449700000014259003335303329692_);}
	.st72{fill:url(#SVGID_00000176008564913256832730000004580123721618902682_);}
	.st73{fill:url(#SVGID_00000160909890816469421500000016812562794765861296_);}
	.st74{fill:url(#SVGID_00000140735563807287043270000018058879371131497899_);}
	.st75{fill:url(#SVGID_00000112619246658382294780000001953240981650848680_);}
	.st76{fill:url(#SVGID_00000002364546293671776780000003193863088002496905_);}
	.st77{fill:url(#SVGID_00000089537299913543190830000014440267469201358249_);}
	.st78{fill:url(#SVGID_00000037660988613835335600000015964538966422333833_);}
	.st79{fill:url(#SVGID_00000161608347755677718100000007160757502343754147_);}
	.st80{fill:url(#SVGID_00000065790458110887288810000002107878280593952128_);}
	.st81{fill:url(#SVGID_00000020365750086699327700000010280836192318237572_);}
	.st82{fill:url(#SVGID_00000021802202596817194230000008029869989722998969_);}
	.st83{fill-rule:evenodd;clip-rule:evenodd;fill:url(#rect4789_00000142142932184879534030000010684533422383053994_);}
	.st84{fill:url(#SVGID_00000160189626346041875760000017950861894209440447_);}
	.st85{fill:url(#SVGID_00000063627543068636578660000003004207373379965882_);}
	.st86{fill:url(#SVGID_00000072980412998597396980000012765880290300068506_);}
	.st87{fill:url(#SVGID_00000107580144768863353280000009592173886595313572_);}
	.st88{fill:url(#SVGID_00000059289083881546138100000001770278047505814455_);}
	.st89{fill:url(#SVGID_00000018958057559296801130000001708475669290016427_);}
	.st90{fill:url(#SVGID_00000031182133748207335340000012335906982915599551_);}
	.st91{fill:url(#SVGID_00000174586990785432290210000009556993783330870201_);}
	.st92{fill:url(#SVGID_00000126309257179649201580000014004656227486647223_);}
	.st93{fill:url(#SVGID_00000153687079463838030020000010158867100562285444_);}
	.st94{fill:url(#SVGID_00000057143786424531534990000007486067021941379721_);}
	.st95{fill:url(#SVGID_00000095302388281957991440000016737602891727169725_);}
	.st96{fill:url(#SVGID_00000050650197502768650470000004072041430877635498_);}
	.st97{fill:url(#SVGID_00000038396150451781953180000016767079611246038959_);}
	.st98{fill:url(#SVGID_00000003795055824341300450000004822275864747922586_);}
	.st99{fill:url(#SVGID_00000142141632050703422550000012667255561887095944_);}
	.st100{fill:url(#SVGID_00000102504038539054703950000015771703248308164261_);}
	.st101{fill-rule:evenodd;clip-rule:evenodd;fill:url(#rect4789_00000003068100994549372530000012174113614474856883_);}
	.st102{fill:url(#SVGID_00000036240575740866719190000000406309563771277482_);}
	.st103{fill:url(#SVGID_00000119819321148190398120000006121303007261937055_);}
	.st104{fill:url(#SVGID_00000076579352343326262420000004495514937739746176_);}
	.st105{fill:url(#SVGID_00000136399570075023699180000003173267857155450043_);}
	.st106{fill:url(#SVGID_00000034770130680018881750000000450143213202748041_);}
	.st107{fill:url(#SVGID_00000048499676094636569370000012074007612346602387_);}
	.st108{fill:url(#SVGID_00000075883899742086852580000001496332780185284777_);}
	.st109{fill:url(#SVGID_00000066511523415672184440000013710508124609878713_);}
	.st110{fill:url(#SVGID_00000002355531192076673390000000140751951437803710_);}
	.st111{fill:url(#SVGID_00000155858900919652849420000005932222323214360989_);}
	.st112{fill:url(#SVGID_00000139994771047646419750000011445975186703400629_);}
	.st113{fill:url(#SVGID_00000097484604070770734680000007926318922663024298_);}
	.st114{fill:url(#SVGID_00000128471955835086611960000008191928692073538689_);}
	.st115{fill:url(#SVGID_00000113313538921070454190000014584438902909131952_);}
	.st116{fill-rule:evenodd;clip-rule:evenodd;fill:url(#rect4789_00000041997931182874372210000003063382120043295617_);}
	.st117{fill:url(#SVGID_00000164475295183976267540000000204391406885855660_);}
	.st118{fill:url(#SVGID_00000097492914271685331840000008411662361580672405_);}
	.st119{fill:url(#SVGID_00000139271448591336355680000008013168152374113215_);}
	.st120{fill:url(#SVGID_00000127002796333929412520000008676699856047365527_);}
	.st121{fill:url(#SVGID_00000148648129903688187170000006621203809588399242_);}
	.st122{fill:url(#SVGID_00000016069413098340019130000011841097732821808035_);}
	.st123{fill:url(#SVGID_00000071538156671898828950000001556900955658240422_);}
	.st124{fill:url(#SVGID_00000170278386366668552630000014725632258668693411_);}
	.st125{fill:url(#SVGID_00000155110866365786494740000006118676161333300904_);}
	.st126{fill:url(#SVGID_00000055671556718154735600000008285503067571686060_);}
	.st127{fill:url(#SVGID_00000169525131032911678780000016632294120561812407_);}
	.st128{fill:url(#SVGID_00000048481362051576043120000006205906760373314219_);}
	.st129{fill:url(#SVGID_00000161603056835559571550000014045365014038954118_);}
</style>
<g
   id="g1994"><path
     class="st5"
     d="m 2994.2,170.2 c 9.6,-19 28.3,-34.4 56.1,-46.1 17.6,-7.3 43.6,-14.8 78,-22.5 34,-7.6 63.4,-12.9 88.2,-15.8 V 0 H 2351.9 1487.3 622.6 v 85.8 c 24.7,2.9 54.2,8.2 88.2,15.8 34.4,7.7 60.4,15.2 78,22.5 27.8,11.7 46.5,27.1 56.1,46.1 9.5,19.1 14.3,41 14.3,65.9 l 0.8,1105.2 c 0,27.9 -4.9,50.7 -14.8,68.7 -9.9,18 -28.4,32.4 -55.5,43.4 -14.7,5.9 -41.2,10.3 -79.7,13.2 -38.5,3 -67.6,5.2 -87.4,6.7 v 85.7 h 864.6 864.6 864.6 v -85.7 c -19.8,-1.5 -48.9,-3.7 -87.4,-6.7 -38.5,-2.9 -65,-7.3 -79.7,-13.2 -27.1,-11 -45.6,-25.4 -55.5,-43.4 -9.9,-18 -14.8,-40.8 -14.8,-68.7 l 0.8,-1105.2 c 0.1,-24.9 4.9,-46.8 14.4,-65.9 z M 1709.7,1409.9 c -9.9,18 -28.4,32.4 -55.5,43.4 -14.7,5.9 -41.2,10.3 -79.7,13.2 -0.4,0 -0.8,0.1 -1.2,0.1 -57.4,4.5 -115.1,4.5 -172.5,0 -0.4,0 -0.8,-0.1 -1.2,-0.1 -38.5,-2.9 -65,-7.3 -79.7,-13.2 -27.1,-11 -45.6,-25.4 -55.5,-43.4 -9.9,-18 -14.8,-40.8 -14.8,-68.7 L 1250.4,236 c 0,-24.9 4.8,-46.8 14.3,-65.9 9.6,-19 28.3,-34.4 56.1,-46.1 17.6,-7.3 43.6,-14.8 78,-22.5 0.3,-0.1 0.7,-0.2 1,-0.2 57.4,-12.8 116.9,-12.8 174.3,0 0.3,0.1 0.7,0.2 1,0.2 34.4,7.7 60.4,15.2 78,22.5 27.8,11.7 46.5,27.1 56.1,46.1 9.5,19.1 14.3,41 14.3,65.9 l 0.8,1105.2 c 0.2,27.9 -4.7,50.7 -14.6,68.7 z m 864.7,0 c -9.9,18 -28.4,32.4 -55.5,43.4 -14.7,5.9 -41.2,10.3 -79.7,13.2 -0.4,0 -0.8,0.1 -1.2,0.1 -57.4,4.5 -115.1,4.5 -172.5,0 -0.4,0 -0.8,-0.1 -1.2,-0.1 -38.5,-2.9 -65,-7.3 -79.7,-13.2 -27.1,-11 -45.6,-25.4 -55.5,-43.4 -9.9,-18 -14.8,-40.8 -14.8,-68.7 L 2115.1,236 c 0,-24.9 4.8,-46.8 14.3,-65.9 9.6,-19 28.3,-34.4 56.1,-46.1 17.6,-7.3 43.6,-14.8 78,-22.5 0.3,-0.1 0.7,-0.2 1,-0.2 57.4,-12.8 116.9,-12.8 174.3,0 0.3,0.1 0.7,0.2 1,0.2 34.4,7.7 60.4,15.2 78,22.5 27.8,11.7 46.5,27.1 56.1,46.1 9.5,19.1 14.3,41 14.3,65.9 l 0.8,1105.2 c 0.2,27.9 -4.7,50.7 -14.6,68.7 z"
     id="path11"
     style="fill:#034ea2;fill-opacity:1" /><g
     id="g36">
		<path
   id="rect4789_00000049185632029727977890000004632454358355052949_"
   class="st0"
   d="M 464.1,1015.7 H 3375 c 85.3,0 154.4,69.1 154.4,154.4 v 0 c 0,85.3 -69.1,154.4 -154.4,154.4 H 464.1 c -85.3,0 -154.4,-69.1 -154.4,-154.4 v 0 c 0,-85.3 69.1,-154.4 154.4,-154.4 z" />
		<g
   id="g34">
			<path
   class="st1"
   d="M 916.7,1099.8 H 977 c 35.5,0 58.4,18.3 58.4,49.4 v 0.4 c 0,33.1 -25.5,50.6 -60.5,50.6 h -19.3 v 40.2 h -39 z m 57.4,69.8 c 13.9,0 22.3,-7.2 22.3,-18.3 v -0.4 c 0,-12 -8.4,-18.5 -22.5,-18.5 h -18.3 v 37.2 z"
   id="path14" />
			<path
   class="st1"
   d="m 1112.1,1099.8 h 39 v 106.4 h 68.1 v 34.1 h -107 z"
   id="path16" />
			<path
   class="st1"
   d="m 1344.7,1098.8 h 37.6 l 59.9,141.6 h -41.8 l -10.2,-25.1 h -54.4 l -10,25.1 h -41 z m 34.1,86.1 -15.7,-40 -15.9,40 z"
   id="path18" />
			<path
   class="st1"
   d="m 1534.4,1187.7 -53.4,-88 h 44.4 l 28.9,51.2 29.1,-51.2 h 43.6 l -53.4,87.4 v 53.2 h -39.2 z"
   id="path20" />
			<path
   class="st1"
   d="m 1804.6,1219.5 21.7,-25.9 c 13.9,11 29.3,16.9 45.6,16.9 10.4,0 16.1,-3.6 16.1,-9.6 v -0.4 c 0,-5.8 -4.6,-9 -23.7,-13.5 -29.9,-6.8 -53,-15.3 -53,-44.2 v -0.4 c 0,-26.1 20.7,-45 54.4,-45 23.9,0 42.6,6.4 57.8,18.7 l -19.5,27.5 c -12.9,-9 -26.9,-13.9 -39.4,-13.9 -9.4,0 -14.1,4 -14.1,9 v 0.4 c 0,6.4 4.8,9.2 24.3,13.7 32.3,7 52.4,17.5 52.4,43.8 v 0.4 c 0,28.7 -22.7,45.8 -56.8,45.8 -24.8,-0.1 -48.5,-8 -65.8,-23.3 z"
   id="path22" />
			<path
   class="st1"
   d="m 2040.9,1187.7 -53.4,-88 h 44.4 l 28.9,51.2 29.1,-51.2 h 43.6 l -53.4,87.4 v 53.2 h -39.2 z"
   id="path24" />
			<path
   class="st1"
   d="m 2188.1,1219.5 21.7,-25.9 c 13.9,11 29.3,16.9 45.6,16.9 10.4,0 16.1,-3.6 16.1,-9.6 v -0.4 c 0,-5.8 -4.6,-9 -23.7,-13.5 -29.9,-6.8 -53,-15.3 -53,-44.2 v -0.4 c 0,-26.1 20.7,-45 54.4,-45 23.9,0 42.6,6.4 57.8,18.7 l -19.5,27.5 c -12.9,-9 -26.9,-13.9 -39.4,-13.9 -9.4,0 -14.1,4 -14.1,9 v 0.4 c 0,6.4 4.8,9.2 24.3,13.7 32.3,7 52.4,17.5 52.4,43.8 v 0.4 c 0,28.7 -22.7,45.8 -56.8,45.8 -24.8,-0.1 -48.5,-8 -65.8,-23.3 z"
   id="path26" />
			<path
   class="st1"
   d="M 2420.2,1133.9 H 2378 v -34.1 h 123.3 v 34.1 h -42.2 v 106.4 h -39 z"
   id="path28" />
			<path
   class="st1"
   d="m 2578.7,1099.8 h 113.1 v 33.1 h -74.5 v 21.3 h 67.5 v 30.7 h -67.5 v 22.3 h 75.5 v 33.1 h -114.1 z"
   id="path30" />
			<path
   class="st1"
   d="m 2773,1099.8 h 41.2 l 33.5,54.4 33.5,-54.4 h 41.2 v 140.6 h -38.8 v -80.7 l -36,55 h -0.8 l -35.7,-54.6 v 80.3 h -38.2 v -140.6 z"
   id="path32" />
		</g>
	</g><g
     id="g70">
		<g
   id="g68">
			<path
   class="st2"
   d="m 1511.9,421.6 v 236.3 c 0,0 159.1,-66.3 159.1,-159.8 0.1,-115.6 -159.1,-76.5 -159.1,-76.5"
   id="path38" />
			<path
   class="st2"
   d="m 2742.6,409.7 c -69.4,0 -162.5,40.8 -162.5,204 0,163.2 82.9,204 162.5,204 79.5,0 164.2,-51 164.2,-204 0,-153.1 -94.8,-204 -164.2,-204"
   id="path40" />
			<polyline
   class="st2"
   points="899.1,615.4 1010.8,615.4 953.3,453.9 899.1,615.4    "
   id="polyline42" />
			<path
   class="st2"
   d="m 585.9,890.8 h -176 C 200,890.8 83.2,725.9 83.2,606.9 c 0,-182.4 158,-283.7 301.3,-283.7 138.8,0 222.6,106.5 222.6,106.5 l -95.7,100.7 c 0,0 -5.1,2.6 -9.3,2.6 -4.3,0 -10.2,-4.3 -10.2,-4.3 L 480,518.5 c 0,0 -3.4,-0.8 -3.4,-4.3 0,-3.4 9.3,-11.9 9.3,-28 0,-16.1 -3.4,-83.3 -106.6,-83.3 -103.2,0 -149,96.9 -149,176.8 0,79.9 49.1,226.1 209.9,226.1 93.6,0 113.4,-52.7 113.4,-52.7 h 32.2 v 137.7 z m 689,1.7 h -212.4 v -40.8 c 0,0 13.5,1.7 20.3,-10.2 6.8,-11.9 6.8,-21.3 1.7,-33.2 C 1079.4,796.4 1043.9,702 1043.9,702 H 870.3 c 0,0 -35.6,95.2 -38.9,103.7 -3.4,8.5 -3.4,22.1 0,30.6 5.6,14.1 25.4,16.2 25.4,16.2 v 39.9 H 686.7 v -39.9 c 0,0 15.4,-5.3 27,-17 12.7,-12.7 16.9,-26.3 16.9,-26.3 L 903.3,338.4 h 144.8 l 176,462.3 c 5.1,12.8 13.6,24.7 22.1,34.9 8.4,10.2 28.7,17 28.7,17 z m 402.9,-217.6 c -72.3,33.4 -167.5,59.5 -167.5,59.5 v 88.4 c 0,0 0.8,6 9.3,16.2 8.5,10.2 17.8,12.7 17.8,12.7 v 40.8 H 1341 v -39.9 c 0,0 11.9,-2.6 20.3,-11 8.5,-8.5 10.2,-18.7 10.2,-18.7 V 423.3 c 0,0 0.8,-17 -6,-23.8 -6.8,-6.8 -22.8,-16.1 -22.8,-16.1 v -45.1 c 0,0 170.9,0 270.8,0 99.9,0 199.8,35.7 199.8,151.3 0,115.6 -72.9,156.4 -135.5,185.3 z m 494.3,-271 c -103.2,0 -149,96.9 -149,176.8 0,79.9 49.1,226.1 209.9,226.1 93.6,0 113.4,-52.7 113.4,-52.7 h 32.2 v 137.7 h -176.1 c -209.9,0 -326.7,-164.9 -326.7,-283.8 0,-182.5 158,-283.7 301.3,-283.7 138.8,0 222.6,106.5 222.6,106.5 l -95.6,100.7 c 0,0 -5.1,2.5 -9.3,2.5 -4.2,0 -10.2,-4.2 -10.2,-4.2 l -11.9,-10.2 c 0,0 -3.4,-0.9 -3.4,-4.3 0,-3.4 9.3,-11.9 9.3,-28 0.2,-16.3 -3.2,-83.4 -106.5,-83.4 z m 570.5,504.5 c -182.8,0 -314.3,-134.1 -314.3,-297.2 0,-163.1 134.8,-289.6 314.3,-289.6 179.4,0 314.2,126.5 314.2,289.6 0,163.1 -131.4,297.2 -314.2,297.2 z M 3759.1,892.8 H 3556.8 V 856 c 0,0 17.8,-2.6 23.7,-11 6,-8.5 8.5,-13.6 6.8,-27.2 -1.7,-13.6 -49.9,-323 -49.9,-323 l -88.1,273.6 h -106.6 l -87.2,-256.6 -44,302.5 c 0,0 -1.7,18.2 5.1,28.1 9.3,13.6 26.2,13.6 26.2,13.6 v 36.5 h -175.2 v -39.1 c 0,0 14,-2.1 24.1,-14 10.2,-11.9 11.9,-27.2 11.9,-27.2 l 63.9,-399.1 c 0,0 3.8,-14.9 -0.4,-21.7 -4.5,-7.2 -28.4,-13.2 -28.4,-13.2 v -39.6 h 201.5 l 72.8,225.7 77.8,-226.1 h 210.8 v 33.2 c 0,0 -14.1,5.9 -20.3,13.6 -7.6,9.3 -7.6,16.1 -6,29.7 1.7,13.6 55.9,382.4 57.6,396.1 1.7,13.6 3.4,21.3 6.8,30.6 3.4,9.3 19.5,16.9 19.5,16.9 v 34.5 z"
   id="path44" />
			<path
   class="st1"
   d="m 1511.9,421.6 v 236.3 c 0,0 159.1,-66.3 159.1,-159.8 0.1,-115.6 -159.1,-76.5 -159.1,-76.5"
   id="path46" />
			<path
   class="st1"
   d="m 2742.6,409.7 c -69.4,0 -162.5,40.8 -162.5,204 0,163.2 82.9,204 162.5,204 79.5,0 164.2,-51 164.2,-204 0,-153.1 -94.8,-204 -164.2,-204"
   id="path48" />
			<polyline
   class="st1"
   points="899.1,615.4 1010.8,615.4 953.3,453.9 899.1,615.4    "
   id="polyline50" />
			<path
   class="st1"
   d="m 2745.1,995.5 c -132.8,0 -234.3,-66 -285.8,-108.4 v 91.4 h -238.2 c -200.4,0 -360.4,-110.2 -416.5,-283.5 -41.8,30.4 -116.9,73.9 -201.2,96.1 2.3,0.6 4.6,1.2 6.8,1.5 l 17.8,3.1 0.1,182.7 H 418.3 C 183.8,978.5 0,818.3 0,613.7 0,395.4 163.1,237 387.8,237 c 228.9,0 320,172.6 323.8,180 l 6.9,13.5 -202.4,214.7 -155.3,-107 19,-18.2 c 5.7,-6.3 9,-11.7 10.5,-16.3 3.5,-10 -6.1,-19.6 -16.1,-16.1 -3.1,1.1 -6.7,2.6 -10.5,4.5 -22.5,11.7 -48.2,42.3 -46.4,90.1 3.7,95.6 62,139.1 114.6,139.1 46.4,0 59.6,-33.7 60.9,-37.5 l 5,-14.4 15.3,-0.2 h 165.7 v 24 l 166.5,-441 h 261.5 l 177.3,459.7 c 0.2,-94.3 0.6,-242.7 0.6,-248.7 0,-2.3 -0.1,-4.2 -0.3,-5.7 -0.4,-3.6 -2.4,-6.8 -5.4,-8.8 -3.6,-2.4 -7.9,-4.1 -10.1,-4.8 l -15.4,-4.5 -0.2,-16.1 v -171 h 346.5 c 153.9,0 212.4,36.6 263.3,117.9 76,-89.5 173.5,-134.9 290.2,-134.9 126.9,0 226.4,42 289.7,121.7 75.5,-77.2 190.1,-122.5 312.1,-122.5 118.2,0 223.9,46.5 294.2,127.1 V 252.3 h 349.3 l 15.4,39.2 11.5,-39.2 h 360.9 v 181.1 l -12.1,5.9 c -17.2,8.3 -18.3,11.8 -16.1,25.8 l 45.2,288.9 c 1.3,6.5 3.3,11 6.4,13.7 1.4,1.2 4.3,1.5 5.5,1.4 l 23,-1.6 0.7,23 V 978.6 H 3471.1 V 852.7 h -143.3 v 126.1 h -348.5 v -60.5 c -45.9,30.9 -131.7,77.2 -234.2,77.2 z m -328.6,-212.9 37.3,41 c 1.2,1.3 119.3,128.9 291.3,128.9 133.7,0 240.4,-92.3 241.4,-93.2 l 35.6,-31.3 v 107.9 h 262.7 V 809.8 H 3514 v 125.8 h 282.1 v -127 c -4.9,-1.9 -10.1,-4.7 -14.9,-9 -13.5,-12.1 -17.9,-27.6 -20,-38.2 l -45.3,-289.8 c -5.5,-35 9.2,-52.9 27.7,-64.5 v -112 h -285.8 l -37.7,129 -50.6,-129 h -277.1 v 213.8 l -40.1,-69.8 c -58.1,-101.3 -169.2,-161.7 -297.1,-161.7 -119.8,0 -231.1,47.6 -297.5,127.4 l -18.5,22.2 -15.9,-24.2 c -53.5,-81.5 -146.9,-124.6 -269.9,-124.6 -114.4,0 -204.6,46.7 -275.6,142.6 l -19.9,26.8 -16.2,-29.2 C 1799.4,342 1765.1,295.1 1599.8,295.1 H 1296.2 V 409 c 6.4,3.4 13.5,8.3 19.3,15.1 8,9.2 11.9,22 11.9,39 0,8.8 -0.8,325.6 -0.8,325.6 l -0.1,34.7 -31,-15.6 c -18.2,-9.2 -32.5,-34 -36.4,-41.4 l -1.1,-2.3 -180.9,-469 H 875 L 677.5,818.4 636,810.8 V 712.1 H 526.6 c -11.4,19.8 -38.6,52.1 -94.7,52.1 -72.5,0 -152.7,-56.4 -157.5,-180.4 -2.6,-67.9 35.9,-112.4 69.6,-129.8 25.2,-13 50.2,-13.1 67.1,-0.2 18.2,13.9 22.7,30.1 23.3,41.2 0.8,13.5 -3.8,25.8 -9.2,35.4 l 85,58.5 L 666,423.7 C 641.6,386.1 557.8,279.8 388,279.8 184.9,279.8 43.1,417.1 43.1,613.6 43.1,794.1 208,935.5 418.5,935.5 h 1166.9 v -105 c -20.6,-7 -38.1,-20.3 -38.1,-40.9 0,-13.4 5.3,-30.6 30.3,-36.2 108.2,-24.4 202.3,-89.9 224.3,-111 l 27,-25.9 8.7,36.4 c 41.8,174.4 188.8,282.7 383.8,282.7 h 195.3 v -153 z"
   id="path52" />
			<path
   class="st3"
   d="M 692.6,426.7 513.1,617.1 394.6,535.5 c 0,0 38.9,-37.4 3.4,-64.6 -27.8,-21.2 -105.5,23.8 -102.2,112.2 3.9,101.9 66.7,159.7 136.1,159.7 64.3,0 81.2,-52.1 81.2,-52.1 H 657.4 V 810.8 L 860.2,273.6 h 231.9 l 186.2,482.7 c 0,0 13.5,25.5 27.1,32.3 0,0 0.8,-316.7 0.8,-325.6 0,-8.9 -1.2,-18.7 -6.7,-25 -9.1,-10.5 -24.5,-14.9 -24.5,-14.9 V 273.7 c 0,0 214.9,0 325,0 168.5,0 211.8,45.9 260.7,134.3 67.5,-91.2 160.4,-151.3 292.9,-151.3 136.4,0 232.8,50.4 287.8,134.3 76.9,-92.3 200.8,-135.1 314,-135.1 139.2,0 255.6,67.7 315.7,172.5 V 273.7 h 313.2 l 33,84.1 24.6,-84.1 h 323.3 v 146.2 c -22.9,11.1 -32.1,22.3 -28,48.5 l 45.2,288.9 c 1.9,9.4 5.2,19.2 13.2,26.4 9.4,8.4 22,6.8 22,6.8 v 166.6 h -325 V 831.2 h -186.2 v 126.1 h -305.6 v -81.9 c 0,0 -111.7,98.6 -255.6,98.6 C 2561,974 2438,838 2438,838 v 119 c 0,0 -13.5,0 -216.7,0 -192.8,0 -358.4,-106 -404.6,-299.1 -21.9,21 -118.5,90.3 -234.5,116.4 -9,2 -13.5,5.5 -13.5,15.3 0,17.9 38.1,24.3 38.1,24.3 v 143.2 c 0,0 -1002.1,0 -1188.4,0 -220.1,0 -396.9,-151.3 -396.9,-343.3 0,-192 137.9,-355.3 366.4,-355.3 218.3,-0.1 304.7,168.2 304.7,168.2"
   id="path54" />
			<path
   class="st4"
   d="m 903.3,338.3 h 144.8 l 176.1,462.4 c 5.1,12.7 13.5,24.6 22,34.9 8.4,10.2 28.8,17 28.8,17 v 39.9 h -212.5 v -40.8 c 0,0 13.5,1.7 20.3,-10.2 6.8,-11.9 6.8,-21.3 1.7,-33.2 C 1079.4,796.4 1043.9,702 1043.9,702 H 870.3 c 0,0 -35.6,95.2 -39,103.7 -3.4,8.5 -3.4,22.1 0,30.6 5.6,14.1 25.4,16.2 25.4,16.2 v 39.9 h -170 v -39.9 c 0,0 15.5,-5.3 27,-17 12.7,-12.8 17,-26.4 17,-26.4 L 903.3,338.3 m -4.2,277.1 h 111.7 L 953.3,453.9 Z"
   id="path56" />
			<path
   class="st4"
   d="m 1342.6,338.3 c 0,0 171,0 270.8,0 99.9,0 199.8,35.7 199.8,151.3 0,115.6 -72.8,156.3 -135.4,185.2 -72.3,33.4 -167.6,59.5 -167.6,59.5 v 88.3 c 0,0 0.8,6 9.3,16.2 8.4,10.2 17.8,12.7 17.8,12.7 v 40.8 h -196.4 v -39.9 c 0,0 11.9,-2.6 20.3,-11 8.5,-8.5 10.2,-18.7 10.2,-18.7 V 423.3 c 0,0 0.8,-17 -6,-23.8 -6.8,-6.8 -22.8,-16.1 -22.8,-16.1 v -45.1 m 169.3,83.3 v 236.3 c 0,0 159.1,-66.3 159.1,-159.8 0.1,-115.6 -159.1,-76.5 -159.1,-76.5 z"
   id="path58" />
			<path
   class="st4"
   d="m 2742.6,908.4 c -182.8,0 -314.3,-134.1 -314.3,-297.2 0,-163.1 134.8,-289.7 314.3,-289.7 179.5,0 314.3,126.5 314.3,289.7 0,163.2 -131.4,297.2 -314.3,297.2 M 2580.1,613.7 c 0,163.2 82.9,204 162.5,204 79.5,0 164.2,-51 164.2,-204 0,-153 -94.8,-204 -164.2,-204 -69.4,0 -162.5,40.8 -162.5,204 z"
   id="path60" />
			<path
   class="st4"
   d="m 3138.7,338.7 h 201.5 l 72.8,225.7 77.8,-226.1 h 210.8 v 33.2 c 0,0 -14,5.9 -20.3,13.6 -7.6,9.3 -7.6,16.2 -5.9,29.8 1.7,13.6 55.8,382.4 57.5,396 1.7,13.7 3.4,21.3 6.8,30.6 3.3,9.3 19.4,17 19.4,17 v 34.3 H 3556.8 V 856 c 0,0 17.8,-2.6 23.7,-11.1 6,-8.5 8.5,-13.6 6.8,-27.2 -1.7,-13.6 -49.9,-323 -49.9,-323 l -88,273.7 h -106.6 l -87.2,-256.7 -44,302.6 c 0,0 -1.7,18.1 5.1,28 9.3,13.7 26.2,13.7 26.2,13.7 v 36.5 h -175.2 v -39.1 c 0,0 13.9,-2.2 24.1,-14 10.2,-11.9 11.9,-27.2 11.9,-27.2 l 63.9,-399 c 0,0 3.8,-14.9 -0.4,-21.7 -4.4,-7.2 -28.4,-13.2 -28.4,-13.2 v -39.6"
   id="path62" />
			<path
   class="st4"
   d="m 607.1,429.7 -94.5,99.5 c -5,5.2 -13.1,5.7 -18.7,1.2 l -16.1,-13.2 c -0.7,-0.6 -1.1,-1.6 -1.1,-2.9 0,-3.4 9.3,-11.9 9.3,-28 0,-16.2 -3.3,-83.3 -106.6,-83.3 -103.2,0 -149,96.9 -149,176.8 0,79.9 49.1,226.1 209.9,226.1 93.6,0 113.4,-52.7 113.4,-52.7 h 32.2 v 137.7 h -176 C 200,890.7 83.1,725.9 83.1,606.9 c 0,-182.5 158,-283.7 301.3,-283.7 138.9,0 222.7,106.5 222.7,106.5"
   id="path64" />
			<path
   class="st4"
   d="m 2399.8,430.7 -94.5,99.5 c -5,5.2 -13.1,5.7 -18.7,1.2 l -16.1,-13.2 c -0.7,-0.6 -1.1,-1.6 -1.1,-2.9 0,-3.4 9.3,-11.9 9.3,-28 0,-16.2 -3.3,-83.3 -106.6,-83.3 -103.2,0 -149,96.9 -149,176.8 0,79.9 49.1,226.1 209.9,226.1 93.6,0 113.4,-52.7 113.4,-52.7 h 32.2 v 137.7 h -176.1 c -209.9,0 -326.7,-164.9 -326.7,-283.8 0,-182.5 158,-283.7 301.3,-283.7 138.9,-0.2 222.7,106.3 222.7,106.3"
   id="path66" />
		</g>
	</g></g>
</svg>
