<?xml version="1.0" encoding="UTF-8" standalone="no"?>
<svg
   height="169.60123"
   viewBox="0 0 592.78383 107.69682"
   width="933.51758"
   version="1.1"
   id="svg18"
   sodipodi:docname="electron.svg"
   inkscape:version="1.1 (c68e22c387, 2021-05-23)"
   xmlns:inkscape="http://www.inkscape.org/namespaces/inkscape"
   xmlns:sodipodi="http://sodipodi.sourceforge.net/DTD/sodipodi-0.dtd"
   xmlns="http://www.w3.org/2000/svg"
   xmlns:svg="http://www.w3.org/2000/svg">
  <defs
     id="defs22" />
  <sodipodi:namedview
     id="namedview20"
     pagecolor="#ffffff"
     bordercolor="#666666"
     borderopacity="1.0"
     inkscape:pageshadow="2"
     inkscape:pageopacity="0.0"
     inkscape:pagecheckerboard="true"
     showgrid="false"
     inkscape:zoom="1"
     inkscape:cx="618.5"
     inkscape:cy="103.5"
     inkscape:window-width="2560"
     inkscape:window-height="1377"
     inkscape:window-x="-8"
     inkscape:window-y="-8"
     inkscape:window-maximized="1"
     inkscape:current-layer="svg18"
     fit-margin-top="0"
     fit-margin-left="0"
     fit-margin-right="0"
     fit-margin-bottom="0" />
  <path
     style="fill:#ffffff;fill-opacity:1;stroke:#ffffff;stroke-width:0;stroke-linejoin:round"
     d="m 17.267787,37.015233 c -4.725521,0.06611 -9.4694798,1.147464 -13.7392677,3.133223 -1.0124475,0.836219 -0.3949793,2.369987 -0.5653939,3.519743 0.083841,1.867895 -0.1731883,3.785078 0.1341142,5.620664 0.5781607,1.295992 2.2713162,0.670812 3.3984339,0.815909 1.0130774,0.171434 2.2586538,-0.20238 2.3503275,-1.385827 0.4443967,-2.339919 2.016954,-4.503979 4.36398,-5.199323 1.968911,-0.686504 4.120532,-0.414768 6.164389,-0.330136 3.137521,0.461578 5.937939,3.047607 6.193603,6.286442 0.10512,0.931573 0.125792,1.870207 0.119979,2.806941 -4.454371,0.15016 -8.942855,-0.119489 -13.372205,0.456519 -3.9973657,0.705593 -7.9604708,2.623448 -10.2863117,6.063282 -2.61486277,4.119125 -2.6246057,9.640166 -0.4793291,13.960345 2.5494696,4.8779 8.3360696,7.223197 13.6394498,6.984532 3.752209,0.104579 7.575252,-1.012171 10.500245,-3.406668 -0.145185,1.032434 0.07383,2.569459 1.427815,2.487887 4.151685,-0.0301 8.320719,0.05982 12.461643,-0.0447 1.554697,-0.273647 1.037351,-2.148917 1.118632,-3.277002 0.01544,-1.099115 0.253671,-2.886926 -1.269992,-3.006059 -1.575774,0 -3.151551,7e-6 -4.727325,0 -0.06219,-7.273749 0.13933,-14.554577 -0.14981,-21.823808 -0.44516,-4.831742 -3.19688,-9.57245 -7.660577,-11.710192 -2.96138,-1.499514 -6.333612,-1.981584 -9.6224,-1.951768 z m 8.422014,24.890593 c -0.110174,2.933231 0.399783,6.306733 -1.647118,8.736777 -1.611477,2.019796 -4.24608,3.01789 -6.796782,2.784387 -3.415037,0.221996 -6.909243,-2.327472 -7.2932006,-5.804968 -0.2066126,-2.462277 -0.1489089,-5.325272 1.8642976,-7.114111 1.714256,-1.499576 4.054421,-1.873519 6.259252,-1.794508 2.527844,-0.04921 5.070313,-0.06461 7.613551,-0.09599 1e-6,1.096138 0,2.192275 0,3.288413 z"
     id="path876" />
  <path
     style="fill:#ffffff;fill-opacity:1;stroke:#ffffff;stroke-width:0;stroke-linejoin:round"
     d="m 63.943043,37.016466 c -4.081648,-0.08671 -8.235674,0.916469 -11.595817,3.296462 -5.293672,3.59572 -8.011303,10.004738 -8.292182,16.253694 -0.332121,6.273565 1.150426,13.02846 5.660453,17.645076 3.166971,3.341879 7.72169,5.236999 12.281245,5.498829 3.079867,0.04521 6.26299,0.03651 9.123907,-1.270775 4.598031,-1.714926 7.866396,-6.000898 9.153662,-10.638254 0.367443,-0.917461 0.671151,-2.330286 -0.495529,-2.808542 -1.732071,-0.411982 -3.564262,-0.188551 -5.333957,-0.173241 -0.927424,-0.01594 -1.600226,0.779983 -1.61986,1.656849 -0.76503,2.708053 -2.210989,5.607337 -5.03465,6.60919 -2.522799,0.812146 -5.442953,1.002437 -7.91371,-0.08939 -3.502316,-1.82513 -4.955434,-5.883518 -5.359046,-9.588107 C 54.0189,58.486176 53.934717,53.32399 55.712145,48.630103 56.773316,45.679595 59.452,43.18801 62.684766,43.062487 c 2.941112,-0.152802 6.448161,0.160118 8.314433,2.765005 1.277926,1.709435 1.807058,3.838973 2.241348,5.844331 0.586562,1.383382 2.356606,0.748488 3.535751,0.934244 1.03752,0.102955 2.659724,0.169433 2.746331,-1.236235 -0.07431,-3.286839 0.159582,-6.595003 -0.160909,-9.869249 -0.388391,-1.393529 -2.117986,-1.533364 -3.227071,-2.105966 -3.879248,-1.462606 -8.027431,-2.436176 -12.191606,-2.378151 z"
     id="path915" />
  <path
     style="fill:#ffffff;fill-opacity:1;stroke:#ffffff;stroke-width:0;stroke-linejoin:round"
     d="m 104.32475,37.024173 c -6.150863,-0.03783 -12.269395,3.120572 -15.533962,8.383174 -2.624818,4.001233 -3.523909,8.866337 -3.407386,13.588269 -0.01569,5.645918 1.871638,11.435031 5.937811,15.464316 3.759207,3.835224 9.302617,5.658817 14.615287,5.223277 6.46262,0.133941 12.79871,-3.545752 15.95034,-9.177728 3.18987,-5.616443 3.51643,-12.480979 2.17271,-18.688378 -1.3246,-5.95255 -5.53112,-11.293605 -11.28275,-13.496932 -2.68121,-1.047094 -5.59443,-1.327957 -8.45205,-1.295998 z m 1.31901,5.992385 c 3.20143,-0.05329 6.01429,2.197657 7.21711,5.069071 2.06421,4.614435 1.839,9.819953 1.52332,14.748646 -0.47335,3.4291 -1.41652,7.305649 -4.37685,9.512605 -2.21432,1.602823 -5.19824,1.685316 -7.76266,1.04589 -3.476826,-1.100944 -5.389187,-4.666147 -6.040779,-8.04163 -0.919944,-4.795287 -0.929056,-9.935513 0.171075,-14.720184 0.697751,-2.9406 2.468792,-5.908303 5.371884,-7.082975 1.24275,-0.462881 2.58093,-0.570612 3.8969,-0.531423 z"
     id="path954" />
  <path
     style="fill:#ffffff;fill-opacity:1;stroke:#ffffff;stroke-width:0;stroke-linejoin:round"
     d="m 155.16693,36.998588 c -3.89682,0.01405 -7.95615,1.366963 -10.51559,4.427547 -0.77914,1.151621 -0.28208,-1.040598 -0.42082,-1.576232 0.25163,-1.153316 -0.7313,-2.188915 -1.90128,-1.912385 -4.15174,0.02977 -8.32068,-0.05956 -12.46165,0.0447 -1.55469,0.273648 -1.03735,2.148915 -1.11863,3.277 -0.0154,1.099117 -0.25367,2.886927 1.27,3.006057 1.68099,0 3.36197,0 5.04297,0 0,9.411908 0,18.823816 0,28.235722 -1.79992,0.108115 -3.66482,-0.233178 -5.41719,0.203759 -1.01781,0.959924 -0.44523,2.505127 -0.56622,3.755639 -0.1156,1.003942 0.31303,2.356187 1.53628,2.283289 6.68764,0.11557 13.39471,0.12126 20.07265,0.04039 1.5547,-0.273647 1.03735,-2.148917 1.11863,-3.277001 0.0154,-1.099115 0.25368,-2.886927 -1.26999,-3.006059 -2.10185,6e-6 -4.20371,0 -6.30557,0 0.069,-6.476755 -0.15496,-12.963039 0.1798,-19.433661 0.26057,-3.491464 2.18604,-7.257011 5.73676,-8.33198 2.15339,-0.627099 5.04736,-0.88385 6.54631,1.140526 0.90305,1.038513 0.4879,2.629985 1.30754,3.641077 1.08658,0.709734 2.51726,0.236123 3.75115,0.421615 1.09591,0.272082 2.29595,-0.518046 2.04864,-1.72523 -0.0798,-3.045525 0.16385,-6.115257 -0.14704,-9.147018 -0.34972,-1.47101 -2.1553,-1.279099 -3.29741,-1.611559 -1.71093,-0.307806 -3.44964,-0.485065 -5.18934,-0.456184 z"
     id="path993" />
  <path
     style="fill:#ffffff;fill-opacity:1;stroke:#ffffff;stroke-width:0;stroke-linejoin:round"
     d="m 189.78283,37.017391 c -3.54836,-0.0491 -7.18587,1.257398 -9.53511,3.991532 -0.30919,0.193461 -0.9608,1.435234 -0.80085,0.418333 -0.12738,-1.164873 0.43957,-3.07926 -1.10029,-3.448641 -4.31653,-0.09603 -8.65144,-0.01346 -12.97502,-0.0411 -1.38731,0.09806 -1.34835,1.651492 -1.26999,2.690408 0.14561,1.181506 -0.49553,2.987416 0.90337,3.558823 1.78668,0.182221 3.60908,0.02698 5.40959,0.07853 0,9.411908 0,18.823816 0,28.235722 -1.79991,0.108115 -3.66481,-0.233178 -5.41718,0.203759 -1.05882,0.998938 -0.3941,2.619598 -0.58013,3.907067 -0.21063,1.047351 0.32492,2.405496 1.58564,2.216939 6.04562,-0.02978 12.10846,0.05956 18.14331,-0.0447 1.5547,-0.273647 1.03735,-2.148917 1.11863,-3.277002 0.0154,-1.099115 0.25367,-2.886926 -1.26999,-3.006059 -1.52317,0 -3.04633,7e-6 -4.5695,0 0.0494,-6.377789 -0.12456,-12.848439 0.19235,-19.144189 0.3567,-3.185107 1.40969,-6.867431 4.53621,-8.368378 2.22224,-0.949974 4.92794,-1.026189 7.13044,0.01819 2.37538,1.381522 2.69306,4.572077 2.82644,6.903364 0.23181,6.860609 0.0917,13.727699 0.13492,20.591016 -1.69504,0.105036 -3.45354,-0.22879 -5.10123,0.203759 -1.05882,0.998938 -0.39409,2.619598 -0.58013,3.907067 -0.21063,1.047351 0.32492,2.405496 1.58564,2.216939 5.99298,-0.02997 12.00327,0.05969 17.98549,-0.0447 1.55469,-0.273647 1.03735,-2.148917 1.11863,-3.277002 0.0154,-1.099115 0.25367,-2.886926 -1.26999,-3.006059 -1.51916,7e-6 -3.03832,0 -4.55748,0 -0.0933,-7.687065 0.0497,-15.380594 -0.24259,-23.063283 -0.40938,-4.224192 -2.18063,-8.81014 -6.14086,-10.880583 -2.21345,-1.191346 -4.77623,-1.548179 -7.26032,-1.539745 z"
     id="path1032" />
  <path
     style="fill:#ffffff;fill-opacity:1;stroke:#ffffff;stroke-width:0;stroke-linejoin:round"
     d="m 247.06096,0.00208216 c -5.18248,0.12740117 -10.13301,2.46075844 -13.85492,6.01242154 -5.74417,5.1845613 -9.41623,12.2322773 -12.03215,19.4154363 -3.06177,8.62394 -4.46483,17.770675 -4.81249,26.891769 -0.10075,1.111959 0.59398,2.452915 1.88248,2.201855 19.47993,0.06825 38.95993,0.115332 58.43994,0.15811 1.3358,-0.08396 1.37628,-1.569702 1.21886,-2.584505 -0.33781,-8.159618 -1.58356,-16.310454 -3.9068,-24.145111 -2.08541,-6.362865 -4.90166,-12.603033 -9.0863,-17.872966 -2.85881,-3.097989 -5.74349,-6.4084357 -9.67058,-8.1675935 -2.5437,-1.21094095 -5.34809,-1.95620996 -8.17804,-1.90941634 z"
     id="path1071" />
  <path
     style="fill:#ffffff;fill-opacity:1;stroke:#ffffff;stroke-width:0;stroke-linejoin:round"
     d="m 215.18542,56.606696 c -1.00869,0.959872 -0.46258,2.500015 -0.55515,3.750789 0.382,6.894871 4.24578,13.198347 9.37761,17.646758 2.83637,2.615407 6.18397,4.639115 9.70339,6.195475 -5.72432,-1.108748 -11.44004,-2.400015 -17.24938,-2.960746 -1.26857,-0.09397 -2.03363,1.19949 -1.85413,2.339316 -0.22008,1.063879 0.48331,2.127981 1.61878,2.114976 7.0873,1.237095 14.16942,2.522449 21.11961,4.497916 6.54766,1.841304 12.96259,4.006623 19.19998,6.70999 5.97313,2.717617 11.82201,5.73187 17.28931,9.3749 1.25117,0.73832 2.66654,1.92854 4.19389,1.18576 2.62044,-0.91489 5.30186,-1.79396 7.71396,-3.17991 1.01589,-0.77995 0.37995,-2.23074 -0.63037,-2.65928 -4.41725,-2.451681 -9.07835,-4.442508 -13.70511,-6.462596 -6.60867,-2.785562 -13.37134,-5.218673 -20.28102,-7.146959 -0.18782,-0.869677 -0.0116,-1.451103 0.97407,-1.305751 5.26242,-0.638182 10.32796,-2.645335 14.76087,-5.519219 4.2113,-3.108916 8.10613,-6.879148 10.38408,-11.664763 1.95065,-3.626309 2.55392,-7.806552 2.51004,-11.869854 -0.42226,-1.475179 -2.27366,-1.062192 -3.43359,-1.17936 -20.14839,-0.145197 -40.29808,-0.03744 -60.44698,-0.0712 -0.22995,0.06792 -0.45991,0.135836 -0.68986,0.203754 z"
     id="path1110" />
  <path
     style="fill:#ffffff;fill-opacity:1;stroke:#ffffff;stroke-width:0;stroke-linejoin:round"
     d="m 305.80884,36.994272 c -5.57505,-0.01642 -11.22237,2.433365 -14.56254,6.984654 -3.03405,3.974971 -4.49933,8.998994 -4.40225,13.975439 -0.16491,5.144499 1.06124,10.457336 4.24029,14.590413 3.54178,4.798005 9.56338,7.369216 15.45999,7.214288 5.33723,0.111017 11.04278,-1.548556 14.53087,-5.810385 1.82425,-2.223529 3.16578,-4.917251 3.70257,-7.741529 -0.0813,-1.433881 -1.76876,-1.473054 -2.85081,-1.434287 -1.42192,0.08047 -2.90163,-0.218961 -4.27606,0.198507 -0.83168,0.836257 -0.75177,2.152682 -1.37691,3.139879 -1.26009,3.278189 -4.5393,5.567136 -8.04785,5.627689 -2.88025,0.151677 -6.07938,-0.410229 -8.00878,-2.758479 -2.56927,-2.876931 -3.08708,-6.938812 -3.2029,-10.617119 9.15349,-0.02988 18.32423,0.05961 27.46696,-0.0447 1.53344,-0.257144 1.03547,-2.070378 0.98494,-3.174083 -0.37322,-5.597061 -1.92993,-11.529394 -6.16879,-15.476282 -3.55383,-3.485967 -8.62262,-4.792501 -13.48873,-4.673999 z m 0.50183,6.016737 c 2.58169,-0.07572 5.1893,1.089643 6.60519,3.301361 1.59119,2.240145 2.06014,5.09377 2.3014,7.723209 -6.03894,2e-6 -12.07787,0 -18.11679,0 0.52022,-3.672729 1.57297,-7.813414 4.89223,-9.941686 1.27593,-0.830473 2.81166,-1.128871 4.31797,-1.082884 z"
     id="path1149" />
  <path
     style="fill:#ffffff;fill-opacity:1;stroke:#ffffff;stroke-width:0;stroke-linejoin:round"
     d="m 329.4501,20.464968 c -1.04681,0.97498 -0.40371,2.561431 -0.58013,3.824769 -0.207,1.02352 0.36253,2.307784 1.56866,2.139143 1.60846,0.02139 3.21692,0.04275 4.82537,0.06454 0.0253,15.335862 0.0505,30.671723 0.0755,46.007582 -1.87875,0.08478 -3.80705,-0.173056 -5.65365,0.134119 -1.32263,0.602735 -0.65286,2.350574 -0.81591,3.503239 -0.071,1.027576 -0.10547,2.610574 1.26999,2.690407 6.46649,-0.02978 12.95019,0.05956 19.4059,-0.0447 1.5547,-0.273647 1.03736,-2.148917 1.11864,-3.277002 0.0154,-1.099115 0.25367,-2.886926 -1.26999,-3.006059 -1.681,7e-6 -3.36199,0 -5.04298,0 0,-16.98993 0,-33.979862 0,-50.969795 -0.0981,-1.387313 -1.65149,-1.348349 -2.69041,-1.269991 -3.88869,0.02976 -7.7946,-0.05955 -11.67252,0.0447 -0.1795,0.05302 -0.359,0.106032 -0.5385,0.159048 z"
     id="path1188" />
  <path
     style="fill:#ffffff;fill-opacity:1;stroke:#ffffff;stroke-width:0;stroke-linejoin:round"
     d="m 373.01881,36.999204 c -4.8968,0.0063 -9.85721,1.862182 -13.19043,5.523416 -4.20586,4.219959 -5.90556,10.349891 -5.68511,16.191257 -0.0499,4.243778 0.86708,8.549547 3.12184,12.184339 2.80563,4.763213 7.88772,8.044691 13.37848,8.668401 3.76,0.44483 7.68349,0.194297 11.26546,-1.103745 4.64063,-1.622419 8.17027,-5.637456 9.64515,-10.272652 0.28761,-1.036517 1.1565,-2.601336 -0.12975,-3.254503 -1.35559,-0.398787 -2.86072,-0.02585 -4.27592,-0.113786 -1.10028,-0.06499 -2.63962,-0.06071 -2.84212,1.334821 -0.83221,3.091626 -2.87631,6.098625 -6.05845,7.08405 -2.23679,0.652926 -4.69078,0.680745 -6.94827,0.108198 -3.34852,-0.853269 -5.48693,-4.003429 -6.24854,-7.215209 -0.50243,-1.88197 -0.70562,-3.828935 -0.79189,-5.770449 9.15513,-0.02988 18.32752,0.0596 27.47189,-0.0447 1.5271,-0.250228 1.03873,-2.065039 1.0055,-3.160174 -0.3612,-5.734895 -1.98961,-11.839327 -6.42492,-15.794996 -3.57658,-3.265807 -8.54765,-4.49013 -13.29292,-4.364262 z m 0.62266,6.009956 c 2.72321,-0.06731 5.49709,1.26647 6.82405,3.705784 1.26821,2.222334 1.87282,4.782692 2.04894,7.320635 -6.04212,0 -12.08424,0 -18.12635,0 0.50789,-3.783342 1.6746,-8.047295 5.17459,-10.128795 1.22475,-0.726109 2.677,-0.920991 4.07877,-0.897624 z"
     id="path1227" />
  <path
     style="fill:#ffffff;fill-opacity:1;stroke:#ffffff;stroke-width:0;stroke-linejoin:round"
     d="m 417.33503,36.992731 c -4.92111,-0.04159 -9.95753,1.635608 -13.44619,5.198332 -3.7815,3.537899 -5.72188,8.655625 -6.01518,13.758341 -0.47744,6.150496 0.71045,12.825162 4.97596,17.525053 3.34242,3.980695 8.47933,6.224583 13.64842,6.257266 5.22998,0.345263 10.88101,-1.332783 14.24032,-5.547362 1.85881,-2.294973 3.063,-5.109091 3.69083,-7.966566 0.1373,-1.284485 -1.33537,-1.54467 -2.30369,-1.424204 -1.62181,0.08964 -3.30906,-0.177565 -4.87715,0.268103 -0.94521,1.048538 -0.86554,2.619656 -1.55419,3.834017 -1.06786,2.63635 -3.62739,4.514414 -6.45846,4.76308 -3.03863,0.456539 -6.51568,-0.321647 -8.36376,-2.96321 -2.76054,-3.84163 -2.90644,-8.7967 -2.88908,-13.345068 0.051,-3.705851 0.50774,-7.507166 2.51733,-10.73575 1.52927,-2.499805 4.51455,-3.814317 7.39491,-3.580028 2.81333,-0.138493 5.81701,0.98308 7.32496,3.469674 1.00218,1.681786 1.34712,3.653391 1.8942,5.485497 0.78363,1.125061 2.39952,0.461743 3.56677,0.640053 1.0406,0.139161 2.60526,-0.0527 2.52549,-1.427815 -0.0299,-3.24752 0.0596,-6.51229 -0.0447,-9.749041 -0.33188,-1.367946 -2.07209,-1.411421 -3.13735,-2.001965 -4.03915,-1.560879 -8.34585,-2.506098 -12.68944,-2.458407 z"
     id="path1266" />
  <path
     style="fill:#ffffff;fill-opacity:1;stroke:#ffffff;stroke-width:0;stroke-linejoin:round"
     d="m 444.03042,26.304461 c -1.05881,0.998938 -0.39409,2.619601 -0.58013,3.907072 0,2.575328 0,5.150657 0,7.725985 -1.74704,0.109982 -3.56016,-0.237119 -5.25936,0.203753 -1.05828,0.99786 -0.39453,2.616987 -0.58013,3.903373 -0.20655,1.039517 0.31591,2.387624 1.5668,2.218241 1.4004,0.02083 2.80079,0.04158 4.20118,0.06281 0.10284,8.888795 -2.5e-4,17.782378 0.26479,26.667958 0.26574,3.36251 2.29174,6.78765 5.60954,7.902 3.0362,1.123575 6.37417,0.923068 9.52894,0.527418 3.9043,-0.547205 7.03233,-3.872238 7.7118,-7.698247 0.16259,-1.256139 0.6672,-2.656232 0.18258,-3.849137 -0.86939,-1.035463 -2.41544,-0.413359 -3.59676,-0.58359 -1.28139,-0.04445 -3.20466,-0.182017 -3.58588,1.425442 -0.22072,1.670425 -0.20704,3.854572 -1.97742,4.7338 -1.0338,0.422491 -2.24587,0.223094 -3.33773,0.150425 -1.47661,-0.504571 -1.45131,-2.319891 -1.59236,-3.566625 -0.18929,-8.566754 -0.0996,-17.181292 -0.1249,-25.76986 3.78085,-0.03014 7.57908,0.05991 11.34916,-0.0447 1.5547,-0.273649 1.03735,-2.148916 1.11863,-3.277001 0.0154,-1.099117 0.25367,-2.886927 -1.26999,-3.006057 -3.7327,0 -7.46541,0 -11.19811,0 -0.0302,-3.57052 0.0599,-7.158429 -0.0447,-10.718179 -0.27365,-1.554698 -2.14892,-1.037352 -3.277,-1.118631 -1.68902,0.107043 -3.47221,-0.233867 -5.10894,0.203753 z"
     id="path1305" />
  <path
     style="fill:#ffffff;fill-opacity:1;stroke:#ffffff;stroke-width:0;stroke-linejoin:round"
     d="m 494.20555,37.001362 c -3.73899,-0.02064 -7.65758,1.179762 -10.19969,4.045785 -0.30809,0.167065 -0.97191,1.374043 -0.92691,0.699728 -0.16442,-1.225662 0.49074,-2.896439 -0.74905,-3.69777 -2.70184,-0.257222 -5.4539,-0.04015 -8.17541,-0.111587 -1.90486,0.106062 -3.87229,-0.220602 -5.73473,0.178819 -1.16981,0.85423 -0.47757,2.535079 -0.66455,3.774183 -0.15714,1.010216 0.13638,2.459839 1.42782,2.374759 1.62838,0 3.25676,0 4.88515,0 0,9.411909 0,18.823817 0,28.235722 -1.79992,0.108115 -3.66482,-0.233178 -5.41719,0.203759 -1.05882,0.998938 -0.3941,2.619598 -0.58013,3.907067 -0.21063,1.047351 0.32492,2.405496 1.58564,2.216939 6.67692,-0.02978 13.37106,0.05956 20.0372,-0.0447 1.5547,-0.273647 1.03735,-2.148917 1.11864,-3.277002 0.0154,-1.099115 0.25367,-2.886926 -1.27,-3.006059 -2.16125,7e-6 -4.32249,0 -6.48374,0 0.10894,-6.459438 -0.0543,-12.951889 0.28822,-19.381232 0.31152,-3.300022 1.93871,-6.904047 5.21344,-8.173873 1.87227,-0.692625 4.10814,-0.975217 5.95971,-0.116519 1.50638,0.808338 1.92321,2.602979 2.04991,4.155473 0.42792,1.454323 2.25897,0.829189 3.38885,0.962099 1.06304,0.04396 2.74996,0.181299 2.84824,-1.269992 -0.0808,-3.197768 0.16533,-6.419184 -0.14519,-9.603537 -0.3595,-1.505515 -2.21648,-1.277443 -3.38111,-1.614653 -1.67506,-0.290453 -3.37358,-0.470279 -5.07512,-0.457405 z"
     id="path1344" />
  <path
     style="fill:#ffffff;fill-opacity:1;stroke:#ffffff;stroke-width:0;stroke-linejoin:round"
     d="m 523.30653,37.011843 c -6.07628,-0.08341 -12.18597,2.890721 -15.57226,7.99132 -2.68588,3.905079 -3.73227,8.724281 -3.61544,13.41419 -0.21446,5.733675 1.63507,11.667549 5.67894,15.830502 3.71258,3.87566 9.19535,5.811681 14.51982,5.455414 6.1517,0.17418 12.32197,-2.963806 15.63238,-8.181616 2.58154,-3.98775 3.68401,-8.812414 3.48051,-13.533375 0.1434,-5.772485 -1.84961,-11.766035 -6.03445,-15.845918 -3.41093,-3.410537 -8.23819,-5.097662 -13.01262,-5.118129 -0.35885,-0.01073 -0.71787,-0.01438 -1.07688,-0.01239 z m 0.75768,5.994851 c 2.87182,-0.09696 5.59694,1.575165 6.96337,4.072294 1.86189,3.191352 2.25428,6.988658 2.14146,10.615523 0.0373,3.098206 0.10058,6.271141 -0.95222,9.204353 -0.86438,2.914061 -2.7949,5.876508 -5.94492,6.582374 -2.85477,0.615468 -6.21777,0.316078 -8.3243,-1.922558 -2.68984,-2.859736 -3.45645,-6.964879 -3.61885,-10.760227 -0.20495,-4.516307 -0.13582,-9.26437 1.99013,-13.377868 0.81574,-1.609064 2.14767,-2.885542 3.73376,-3.721561 1.26672,-0.516791 2.64975,-0.705252 4.01157,-0.69233 z"
     id="path1383" />
  <path
     style="fill:#ffffff;fill-opacity:1;stroke:#ffffff;stroke-width:0;stroke-linejoin:round"
     d="m 572.37905,37.083049 c -3.6514,-0.04833 -7.16777,1.903322 -9.46205,4.676772 -0.19207,-1.218117 0.45666,-3.096411 -0.98872,-3.675299 -4.38406,-0.182574 -8.79826,-0.07803 -13.19387,-0.150395 -1.39226,0.08987 -1.35782,1.64944 -1.27801,2.690409 0.14091,1.189432 -0.49667,2.981392 0.90338,3.562214 1.78666,0.182221 3.60908,0.02697 5.40959,0.07853 0,9.411909 0,18.823817 0,28.235722 -1.79992,0.108115 -3.66482,-0.233178 -5.4172,0.203759 -1.05881,0.998938 -0.39408,2.619598 -0.58012,3.907067 -0.21063,1.047351 0.32492,2.405496 1.58564,2.216939 6.04562,-0.02978 12.10846,0.05956 18.14331,-0.0447 1.5547,-0.273647 1.03735,-2.148917 1.11863,-3.277002 0.0154,-1.099115 0.25367,-2.886926 -1.26999,-3.006059 -1.47056,0 -2.94112,7e-6 -4.41168,0 0.0635,-6.525783 -0.14392,-13.134865 0.15755,-19.596781 0.23798,-3.149297 1.68174,-6.582798 4.66123,-8.012015 2.37533,-0.903527 5.36069,-1.010631 7.49829,0.524697 2.18481,1.836861 2.1069,4.997065 2.3275,7.602486 0.27438,6.485568 0.14089,12.983427 0.1761,19.481613 -1.74703,0.109982 -3.56016,-0.237115 -5.25936,0.203759 -1.05503,1.001173 -0.40101,2.617122 -0.58013,3.908299 -0.21389,1.047484 0.32848,2.412093 1.59119,2.216761 6.01916,-0.05677 12.05613,0.0057 18.0642,-0.125349 1.51737,-0.267316 1.05493,-2.096123 1.16114,-3.206301 0.057,-1.096023 0.29688,-2.87817 -1.22907,-2.997169 -1.57578,7e-6 -3.15155,0 -4.72733,0 -0.0938,-7.805213 0.0448,-15.616594 -0.22934,-23.41777 -0.37772,-3.494984 -1.66376,-7.092085 -4.46716,-9.374507 -2.45608,-2.168086 -5.86519,-2.786558 -9.04899,-2.626915 -0.21825,-0.0011 -0.43648,-4.86e-4 -0.65473,0.0013 z"
     id="path1422" />
  <g
     id="g124940"
     transform="translate(1.0766338,0.22494711)">
    <g
       id="g53812"
       transform="matrix(1.0739438,0,0,1,-20.029824,-0.23997174)"
       style="fill:#79bc38;fill-opacity:1">
      <path
         d="m 247.80621,53.41929 -27.46701,-0.122161 -0.0821,-0.732965 c -0.11407,-1.000373 0.38143,-7.564356 0.77382,-10.261515 0.17612,-1.209104 0.38144,-2.693311 0.45626,-3.298344 0.34859,-2.808738 1.71556,-8.623404 2.93012,-12.46041 1.26203,-3.987062 2.50306,-6.925657 4.4732,-10.591445 1.82323,-3.393572 3.17102,-5.312556 5.57735,-7.9394958 2.60618,-2.8443287 5.19319,-4.6892467 8.17897,-5.83198 3.36905,-1.0542389 6.27635,-1.40821684 9.44828,-0.3212736 3.58076,1.2466183 5.65767,2.6529113 8.83143,5.981074 4.26423,4.4718584 7.7364,10.9059854 10.42378,19.3148864 1.62157,5.074006 2.9292,12.091042 3.57437,19.178298 0.27557,3.023241 0.4663,5.881998 0.42432,6.352366 l -0.0757,0.856088 z"
         fill="#52ad67"
         id="path6"
         style="fill:#79bc38;fill-opacity:1;stroke-width:0.936886" />
      <path
         d="m 272.95355,105.07355 c -1.13216,-0.83781 -2.68273,-1.91032 -3.44552,-2.38261 -2.30567,-1.42842 -4.6652,-2.849142 -5.69828,-3.431091 -1.1687,-0.657937 -8.62917,-4.391058 -8.77538,-4.391058 -0.0558,0 -0.63389,-0.236627 -1.28317,-0.526158 -0.64928,-0.289531 -1.31203,-0.554052 -1.47363,-0.586757 -0.16063,-0.03463 -0.76567,-0.279912 -1.34377,-0.547319 -0.57713,-0.267407 -1.87569,-0.782022 -2.8828,-1.144657 a 557.46919,557.46919 0 0 1 -3.05402,-1.106182 c -1.81125,-0.665632 -6.9449,-2.217172 -11.60529,-3.506113 -1.46977,-0.406883 -6.73135,-1.554425 -8.67342,-1.891089 -4.47667,-0.778175 -5.88969,-1.061934 -6.07822,-1.222571 -0.11736,-0.100999 -0.13756,-0.584833 -0.0462,-1.077324 l 0.16834,-0.894564 1.26778,0.163522 c 1.95746,0.250093 6.70923,1.071553 8.47431,1.464007 0.87436,0.193341 2.96264,0.637737 4.64307,0.985944 4.8268,1.001335 5.45107,1.14081 6.23021,1.387055 0.40303,0.127932 1.33703,0.332816 2.07673,0.454977 0.7397,0.122161 1.89301,0.37514 2.56538,0.559824 l 1.22161,0.336664 0.077,-0.846469 c 0.0423,-0.465558 0.024,-0.900335 -0.0404,-0.964782 -0.0644,-0.06445 -0.97921,-0.22797 -2.03152,-0.362636 -12.67206,-2.274885 -24.64094,-13.41365 -24.7102,-26.367513 l 0.0741,-1.56693 h 58.3929 l -0.0385,2.565379 c -0.0673,4.34104 -1.57366,8.580119 -4.73253,13.315536 -1.19948,1.798747 -5.47319,5.951256 -7.49317,7.284444 -3.58595,2.362419 -8.70228,4.367012 -11.96792,4.686361 -2.62117,0.255865 -2.52113,0.178913 -2.52113,1.967079 0,1.512102 0.024,1.572701 0.6714,1.712176 1.969,0.425159 11.25708,3.744664 14.96519,5.348146 4.5517,1.968041 5.68,2.493237 10.38368,4.834493 5.42317,2.701006 7.00068,3.611926 6.88333,3.974556 -0.10292,0.31743 -7.1719,3.29931 -7.82022,3.29931 -0.17603,0 -1.24758,-0.68583 -2.37973,-1.52365 z"
         fill="#38894b"
         id="path8"
         style="fill:#79bc38;fill-opacity:1;stroke-width:0.961897" />
    </g>
    <g
       aria-label="electron"
       id="text1501-2"
       style="font-size:73.8105px;line-height:1.25;font-family:'DejaVu Serif';-inkscape-font-specification:'DejaVu Serif';text-align:center;letter-spacing:0px;word-spacing:0px;text-anchor:middle;stroke-width:1.84526"
       transform="translate(0,-3.6191278)">
      <path
         d="m 323.24749,62.481243 h -28.57995 v 0.288322 q 0,7.748661 2.91927,11.713093 2.91926,3.928391 8.61362,3.928391 4.36088,0 7.13598,-2.270538 2.81114,-2.306578 3.92839,-6.811614 h 5.33396 q -1.58577,6.30705 -5.87456,9.478595 -4.25276,3.171545 -11.20853,3.171545 -8.39739,0 -13.51511,-5.514164 -5.08168,-5.550203 -5.08168,-14.704436 0,-9.082151 5.0096,-14.632355 5.0096,-5.550203 13.15471,-5.550203 8.6857,0 13.3349,5.370002 4.6492,5.333962 4.8294,15.533362 z m -7.82074,-3.82027 q -0.21624,-6.703493 -2.84719,-10.091279 -2.5949,-3.423827 -7.49637,-3.423827 -4.57712,0 -7.20806,3.423827 -2.63094,3.423827 -3.20759,10.091279 z"
         id="path53877" />
      <path
         d="m 342.06052,77.113598 h 6.27101 v 3.82027 h -19.28156 v -3.82027 h 6.37913 V 28.675457 h -6.37913 v -3.82027 h 13.01055 z"
         id="path53879" />
      <path
         d="m 390.5347,62.481243 h -28.57995 v 0.288322 q 0,7.748661 2.91927,11.713093 2.91926,3.928391 8.61362,3.928391 4.36088,0 7.13598,-2.270538 2.81114,-2.306578 3.92839,-6.811614 h 5.33396 q -1.58577,6.30705 -5.87456,9.478595 -4.25276,3.171545 -11.20853,3.171545 -8.39739,0 -13.51511,-5.514164 -5.08168,-5.550203 -5.08168,-14.704436 0,-9.082151 5.0096,-14.632355 5.0096,-5.550203 13.1547,-5.550203 8.68571,0 13.33491,5.370002 4.6492,5.333962 4.8294,15.533362 z m -7.82074,-3.82027 q -0.21625,-6.703493 -2.84719,-10.091279 -2.5949,-3.423827 -7.49638,-3.423827 -4.57711,0 -7.20805,3.423827 -2.63094,3.423827 -3.20759,10.091279 z"
         id="path53881" />
      <path
         d="m 432.16123,69.437018 q -1.40558,6.126848 -5.40605,9.334433 -4.00047,3.207586 -10.34356,3.207586 -8.36134,0 -13.44302,-5.514164 -5.08168,-5.550203 -5.08168,-14.704436 0,-9.190272 5.08168,-14.668395 5.08168,-5.514163 13.44302,-5.514163 3.64007,0 7.2441,0.864966 3.60403,0.828927 7.2441,2.558861 v 9.802957 h -3.85632 q -0.75684,-5.04564 -3.3157,-7.352218 -2.52282,-2.306578 -7.2441,-2.306578 -5.37,0 -8.10906,4.180673 -2.73906,4.144632 -2.73906,12.433897 0,8.289266 2.70302,12.469939 2.73906,4.180673 8.1451,4.180673 4.2888,0 6.84766,-2.234498 2.55886,-2.234498 3.4959,-6.739533 z"
         id="path53883" />
      <path
         d="m 443.51392,46.479357 h -5.83853 v -3.85631 h 5.83853 V 30.729753 h 6.66745 v 11.893294 h 12.46994 v 3.85631 h -12.46994 v 24.327192 q 0,4.865438 0.93705,6.234969 0.93705,1.369531 3.45987,1.369531 2.5949,0 3.78423,-1.513692 1.18933,-1.549733 1.26141,-4.97356 h 5.0096 q -0.28833,5.225842 -2.84719,7.640541 -2.55886,2.414699 -7.7847,2.414699 -5.7304,0 -8.10906,-2.52282 -2.37866,-2.55886 -2.37866,-8.649668 z"
         id="path53885" />
      <path
         d="m 500.4936,42.550966 v 9.586716 h -3.82027 q -0.1802,-2.847183 -1.58577,-4.252754 -1.40557,-1.405571 -4.10859,-1.405571 -4.90148,0 -7.53242,3.387787 -2.5949,3.387786 -2.5949,9.730876 v 17.515578 h 7.67658 v 3.82027 h -20.29068 v -3.82027 h 5.98269 V 46.407277 h -6.34309 v -3.78423 h 12.9745 v 6.811613 q 1.94617,-4.000471 5.0096,-5.910606 3.06342,-1.946175 7.46034,-1.946175 1.62181,0 3.38778,0.252282 1.80202,0.252282 3.78423,0.720805 z"
         id="path53887" />
      <path
         d="m 522.69443,78.411049 q 5.33396,0 8.03698,-4.216714 2.73906,-4.216713 2.73906,-12.433898 0,-8.217184 -2.73906,-12.397857 -2.70302,-4.216713 -8.03698,-4.216713 -5.33396,0 -8.07303,4.216713 -2.70302,4.180673 -2.70302,12.397857 0,8.217185 2.73906,12.433898 2.73907,4.216714 8.03699,4.216714 z m 0,3.567988 q -8.36135,0 -13.44303,-5.514164 -5.08168,-5.550203 -5.08168,-14.704436 0,-9.154232 5.04564,-14.668395 5.08168,-5.514163 13.47907,-5.514163 8.39738,0 13.44302,5.514163 5.08168,5.514163 5.08168,14.668395 0,9.154233 -5.08168,14.704436 -5.04564,5.514164 -13.44302,5.514164 z"
         id="path53889" />
      <path
         d="m 547.95866,80.933868 v -3.82027 h 5.98269 V 46.479357 h -6.34309 v -3.85631 h 12.9745 v 6.811613 q 1.83806,-3.89235 4.75732,-5.874566 2.9553,-1.982215 6.84766,-1.982215 6.34309,0 9.33443,3.640068 2.99134,3.640069 2.99134,11.35269 v 20.542961 h 5.91061 v 3.82027 h -18.30847 v -3.82027 h 5.73041 V 58.660973 q 0,-7.027855 -1.72993,-9.622756 -1.72994,-2.63094 -6.09081,-2.63094 -4.61316,0 -7.02786,3.387786 -2.4147,3.351747 -2.4147,9.802957 v 17.515578 h 5.76645 v 3.82027 z"
         id="path53891" />
    </g>
    <g
       aria-label="acorn"
       id="text1501-2-6"
       style="font-size:73.8105px;line-height:1.25;font-family:'DejaVu Serif';-inkscape-font-specification:'DejaVu Serif';text-align:center;letter-spacing:0px;word-spacing:0px;text-anchor:middle;stroke-width:1.84526"
       transform="translate(0,-3.6191278)">
      <path
         d="M 25.832787,68.896414 V 60.78735 H 17.29124 q -4.937519,0 -7.3522181,2.126377 -2.414699,2.126376 -2.414699,6.523291 0,4.000471 2.4507393,6.34309 2.4507398,2.342618 6.6314118,2.342618 4.144633,0 6.667453,-2.55886 2.55886,-2.55886 2.55886,-6.667452 z M 32.464199,57.00312 v 20.110478 h 5.910607 v 3.82027 H 25.832787 v -4.144632 q -2.198457,2.666981 -5.08168,3.928391 -2.883223,1.26141 -6.739533,1.26141 -6.3791302,0 -10.1273197,-3.387787 -3.74818954,-3.387787 -3.74818954,-9.154232 0,-5.946647 4.28879374,-9.226313 4.2887938,-3.279666 12.1095355,-3.279666 h 9.298393 v -2.63094 q 0,-4.360875 -2.666981,-6.739533 -2.630941,-2.414699 -7.424298,-2.414699 -3.964432,0 -6.30705,1.802014 -2.3426185,1.802014 -2.919263,5.333962 H 3.091368 v -7.748661 q 3.4598673,-1.477652 6.7034928,-2.198457 3.2796662,-0.756846 6.3791302,-0.756846 7.964903,0 12.109535,3.964431 4.180673,3.928391 4.180673,11.46081 z"
         id="path53848" />
      <path
         d="m 78.415563,69.437018 q -1.405571,6.126848 -5.406043,9.334433 -4.000471,3.207586 -10.343561,3.207586 -8.361346,0 -13.443026,-5.514164 -5.08168,-5.550203 -5.08168,-14.704436 0,-9.190272 5.08168,-14.668395 5.08168,-5.514163 13.443026,-5.514163 3.640068,0 7.244097,0.864966 3.604028,0.828927 7.244097,2.558861 v 9.802957 h -3.856311 q -0.756846,-5.04564 -3.315706,-7.352218 -2.52282,-2.306578 -7.244097,-2.306578 -5.370002,0 -8.109064,4.180673 -2.739061,4.144632 -2.739061,12.433897 0,8.289266 2.703021,12.469939 2.739062,4.180673 8.145104,4.180673 4.288794,0 6.847654,-2.234498 2.55886,-2.234498 3.495908,-6.739533 z"
         id="path53850" />
      <path
         d="m 104.00417,78.411049 q 5.33396,0 8.03698,-4.216714 2.73906,-4.216713 2.73906,-12.433898 0,-8.217184 -2.73906,-12.397857 -2.70302,-4.216713 -8.03698,-4.216713 -5.333962,0 -8.073024,4.216713 -2.703021,4.180673 -2.703021,12.397857 0,8.217185 2.739061,12.433898 2.739062,4.216714 8.036984,4.216714 z m 0,3.567988 q -8.361346,0 -13.443026,-5.514164 -5.08168,-5.550203 -5.08168,-14.704436 0,-9.154232 5.04564,-14.668395 5.08168,-5.514163 13.479066,-5.514163 8.39739,0 13.44303,5.514163 5.08168,5.514163 5.08168,14.668395 0,9.154233 -5.08168,14.704436 -5.04564,5.514164 -13.44303,5.514164 z"
         id="path53852" />
      <path
         d="m 161.52446,42.550966 v 9.586716 h -3.82027 q -0.1802,-2.847183 -1.58577,-4.252754 -1.40557,-1.405571 -4.10859,-1.405571 -4.90148,0 -7.53242,3.387787 -2.5949,3.387786 -2.5949,9.730876 v 17.515578 h 7.67658 v 3.82027 h -20.29068 v -3.82027 h 5.98268 V 46.407277 H 128.908 v -3.78423 h 12.97451 v 6.811613 q 1.94617,-4.000471 5.0096,-5.910606 3.06342,-1.946175 7.46033,-1.946175 1.62182,0 3.38779,0.252282 1.80201,0.252282 3.78423,0.720805 z"
         id="path53854" />
      <path
         d="m 164.55185,80.933868 v -3.82027 h 5.98269 V 46.479357 h -6.34309 v -3.85631 h 12.9745 v 6.811613 q 1.83806,-3.89235 4.75732,-5.874566 2.9553,-1.982215 6.84765,-1.982215 6.34309,0 9.33444,3.640068 2.99134,3.640069 2.99134,11.35269 v 20.542961 h 5.91061 v 3.82027 h -18.30847 v -3.82027 h 5.73041 V 58.660973 q 0,-7.027855 -1.72993,-9.622756 -1.72994,-2.63094 -6.09081,-2.63094 -4.61316,0 -7.02786,3.387786 -2.4147,3.351747 -2.4147,9.802957 v 17.515578 h 5.76645 v 3.82027 z"
         id="path53856" />
    </g>
  </g>
</svg>
