<?xml version="1.0" encoding="UTF-8" standalone="no"?>
<!-- Generator: Adobe Illustrator 26.0.3, SVG Export Plug-In . SVG Version: 6.00 Build 0)  -->

<svg
   version="1.1"
   id="Layer_1"
   x="0px"
   y="0px"
   viewBox="0 0 4689.0001 999"
   xml:space="preserve"
   width="4689"
   height="999"
   xmlns:xlink="http://www.w3.org/1999/xlink"
   xmlns="http://www.w3.org/2000/svg"
   xmlns:svg="http://www.w3.org/2000/svg"><defs
   id="defs148"><linearGradient
   id="linearGradient34773"
   gradientUnits="userSpaceOnUse"
   x1="15.196"
   y1="312.37051"
   x2="3854.196"
   y2="312.37051"
   gradientTransform="translate(1160.9631,-2.2896484e-5)">
				<stop
   offset="0"
   style="stop-color:#f3dd42;stop-opacity:1"
   id="stop34769" />
				<stop
   offset="1"
   style="stop-color:#d7861b;stop-opacity:1"
   id="stop34771" />
			</linearGradient>
	
	

		
	
			<linearGradient
   id="SVGID_1_"
   gradientUnits="userSpaceOnUse"
   x1="15.196"
   y1="312.37051"
   x2="3854.196"
   y2="312.37051"
   gradientTransform="translate(1160.9631,-2.2896484e-5)">
				<stop
   offset="0"
   style="stop-color:#FF2422"
   id="stop4" />
				<stop
   offset="1"
   style="stop-color:#C24FFF"
   id="stop6" />
			</linearGradient>
			
		<linearGradient
   xlink:href="#linearGradient34773"
   id="linearGradient6574"
   gradientUnits="userSpaceOnUse"
   gradientTransform="translate(833.68668,630.53366)"
   x1="15.196"
   y1="312.37051"
   x2="3588.2239"
   y2="316.50259" /></defs>
<style
   type="text/css"
   id="style2">
	.st0{fill:#FFFFFF;}
	.st1{fill:#FF0000;}
	.st2{fill:url(#SVGID_1_);}
	.st3{fill:url(#SVGID_00000060022068257817767130000001067164073883981741_);}
	.st4{fill:url(#SVGID_00000144308182761068376180000004131709304805192586_);}
	.st5{fill:url(#SVGID_00000000935997520668853970000011105419993307822477_);}
	.st6{fill:url(#SVGID_00000018200174457167754170000000853354448091225986_);}
	.st7{fill:url(#SVGID_00000072987630451721579260000010409738167651109522_);}
	.st8{fill:#3636FF;}
	.st9{display:none;}
	.st10{display:inline;}
	.st11{enable-background:new    ;}
	.st12{fill:url(#SVGID_00000099639162208554751810000013272208193612295339_);}
	.st13{fill:url(#SVGID_00000158736166008707814920000018426778185460247990_);}
	.st14{fill:url(#SVGID_00000133527000259551881150000004185836194023049859_);}
	.st15{fill:url(#SVGID_00000093164219829473752460000004603917870326250679_);}
	.st16{fill:url(#SVGID_00000156556395246081825560000005894267688922753411_);}
	.st17{fill:url(#SVGID_00000135690321830567168220000000437954853257014148_);}
	.st18{fill:url(#SVGID_00000040565659643257570880000002075315462357006765_);}
	.st19{fill:url(#SVGID_00000017508175736194757820000008863537906517323707_);}
	.st20{fill:url(#SVGID_00000126293465477839731700000000626789561221784705_);}
	.st21{fill:url(#SVGID_00000087403315896914670680000008996143154280075168_);}
	.st22{fill:url(#SVGID_00000151540686432933406660000011628697137491540393_);}
	.st23{fill:url(#SVGID_00000143589059756432772880000012524823099024141722_);}
	.st24{fill:url(#SVGID_00000052088033699595628130000015515451372212444082_);}
	.st25{fill:url(#SVGID_00000126294377186336552610000001799937443100725399_);}
	.st26{fill:url(#SVGID_00000070835762807858034660000013936331226864194476_);}
	.st27{fill:url(#SVGID_00000092457199491666826160000016742156659903073436_);}
	.st28{fill:url(#SVGID_00000138556585880754416440000017272986633013561527_);}
	.st29{fill:url(#SVGID_00000032624778419303139080000015394367773870234245_);}
	.st30{fill:url(#SVGID_00000040539262103052545880000003837399106474199717_);}
	.st31{fill:url(#SVGID_00000115483974547727894610000006699104590764616355_);}
	.st32{fill:url(#SVGID_00000041285316495664937430000010139118778734034608_);}
	.st33{fill:url(#SVGID_00000178199001922562380240000009661348160359078294_);}
	.st34{fill:url(#SVGID_00000145019290134935790460000010249637267404127883_);}
	.st35{fill:url(#SVGID_00000117636406951782473700000003654222835714608307_);}
	.st36{fill:url(#SVGID_00000158745280490234840560000003483236744759648947_);}
	.st37{fill:url(#SVGID_00000146474604070782972690000015670225624893543309_);}
	.st38{fill:url(#SVGID_00000173847499186819278890000011550608873747634579_);}
	.st39{fill:url(#SVGID_00000141427567100195222880000010417319602782459071_);}
</style>

<g
   id="g2084"
   transform="translate(-0.08784144,2.8778325e-5)"><polygon
     fill-rule="evenodd"
     clip-rule="evenodd"
     points="5.7451172,0 15.874512,0 12.246094,21.316895 2.4189453,21.316895 "
     id="polygon4"
     transform="matrix(26.533497,0,0,26.533497,13.336883,11.436843)"
     style="stroke:#ffffff;stroke-width:0.68389;stroke-miterlimit:4;stroke-dasharray:none;stroke-opacity:1" /><polygon
     fill-rule="evenodd"
     clip-rule="evenodd"
     points="18.595703,35.527832 0,35.527832 1.8144531,24.492676 11.79248,24.492676 11.490234,26.910645 19.805664,26.910645 "
     id="polygon6"
     transform="matrix(26.533497,0,0,26.533497,13.336883,11.436843)"
     style="stroke:#ffffff;stroke-width:0.68389;stroke-miterlimit:4;stroke-dasharray:none;stroke-opacity:1" /><polygon
     fill-rule="evenodd"
     clip-rule="evenodd"
     points="131.83398,1.8144531 141.05566,1.8144531 140.14941,7.8613281 130.92676,7.8613281 "
     id="polygon8"
     transform="matrix(26.533497,0,0,26.533497,13.336883,11.436843)"
     style="stroke:#ffffff;stroke-width:0.68389;stroke-miterlimit:4;stroke-dasharray:none;stroke-opacity:1" /><polygon
     fill-rule="evenodd"
     clip-rule="evenodd"
     points="130.54883,10.431641 139.77051,10.431641 138.1084,21.619629 128.88574,21.619629 "
     id="polygon10"
     transform="matrix(26.533497,0,0,26.533497,13.336883,11.436843)"
     style="stroke:#ffffff;stroke-width:0.68389;stroke-miterlimit:4;stroke-dasharray:none;stroke-opacity:1" /><polygon
     fill-rule="evenodd"
     clip-rule="evenodd"
     points="128.43262,24.492676 137.6543,24.492676 135.99121,35.527832 126.76855,35.527832 "
     id="polygon12"
     transform="matrix(26.533497,0,0,26.533497,13.336883,11.436843)"
     style="stroke:#ffffff;stroke-width:0.68389;stroke-miterlimit:4;stroke-dasharray:none;stroke-opacity:1" /><polygon
     fill-rule="evenodd"
     clip-rule="evenodd"
     points="86.251465,24.492676 95.473633,24.492676 93.810547,35.527832 84.588379,35.527832 "
     id="polygon14"
     transform="matrix(26.533497,0,0,26.533497,13.336883,11.436843)"
     style="stroke:#ffffff;stroke-width:0.68389;stroke-miterlimit:4;stroke-dasharray:none;stroke-opacity:1" /><path
     fill-rule="evenodd"
     clip-rule="evenodd"
     d="m 805.58472,661.31334 c -2.05902,18.91542 -3.48519,43.0132 -1.36117,64.67538 2.91495,26.42979 13.17596,47.5738 38.25834,47.5738 33.03742,0 52.93751,-29.07306 64.35144,-63.38009 6.45214,-17.87875 11.0645,-32.64862 14.40687,-49.49107 l 228.0352,-0.62112 -46.4593,294.87418 H 900.08345 l 11.90641,-58.71565 c -50.2295,63.89795 -90.45748,79.28948 -174.99402,79.28948 -161.44249,0 -187.23729,-179.10113 -177.00228,-314.15234 l 245.59034,-0.0502 z"
     id="path16"
     style="stroke:#ffffff;stroke-width:18.146;stroke-miterlimit:4;stroke-dasharray:none;stroke-opacity:1" /><path
     fill-rule="evenodd"
     clip-rule="evenodd"
     d="m 931.41159,585.08129 c 0.1859,-16.7907 -0.0252,-26.74078 -0.8411,-38.50464 -2.35884,-30.4204 -11.88067,-56.81139 -42.24901,-56.81139 -31.70277,0 -50.67025,31.70302 -63.95003,70.02616 -1.89183,5.95964 -3.54993,11.71211 -10.99943,25.18614 l -247.71487,-0.15952 c 32.88187,-141.20417 106.8854,-306.3908 268.13346,-309.72049 44.02386,-0.90748 126.25429,5.10473 158.42355,68.00507 l 7.02205,1.36118 10.40359,-56.83715 h 198.6773 l -45.76,297.45245 z"
     id="path18"
     style="stroke:#ffffff;stroke-width:18.146;stroke-miterlimit:4;stroke-dasharray:none;stroke-opacity:1" /><path
     fill-rule="evenodd"
     clip-rule="evenodd"
     d="m 1222.8135,585.08129 c -14.7956,-29.53924 -20.9754,-64.88268 -15.0935,-106.95019 20.1204,-143.99094 128.3662,-217.0748 290.8321,-217.0748 70.0001,0 118.6623,16.44098 174.6312,50.77401 l -26.6499,184.89228 c -40.6294,-33.99604 -114.2055,-52.05635 -157.8019,-52.05635 -18.4879,0 -41.4585,4.36612 -47.1073,26.31329 -8.227,31.85827 27.4664,49.37458 70.8814,64.71412 35.9002,12.69685 66.4113,28.39908 90.7681,49.07665 l -380.4602,0.31024 z"
     id="path20"
     style="stroke:#ffffff;stroke-width:18.146;stroke-miterlimit:4;stroke-dasharray:none;stroke-opacity:1" /><path
     fill-rule="evenodd"
     clip-rule="evenodd"
     d="m 1658.7765,661.93502 c 11.0514,30.31666 14.3552,66.80021 8.9783,105.30479 -21.9858,157.17995 -156.8688,216.31037 -300.8338,216.31037 -95.1085,0 -135.1163,-17.72357 -210.7391,-62.65435 l 33.8145,-206.87847 c 25.7564,33.01162 113.0397,85.66389 171.4443,82.65819 22.4264,-1.14091 67.7199,-16.58339 71.2181,-41.66583 3.5109,-25.08263 -7.2814,-43.58337 -63.626,-61.51418 -26.365,-8.34373 -51.4217,-17.20539 -73.6148,-30.88684 l 363.3585,-0.67393 z"
     id="path22"
     style="stroke:#ffffff;stroke-width:18.146;stroke-miterlimit:4;stroke-dasharray:none;stroke-opacity:1" /><path
     fill-rule="evenodd"
     clip-rule="evenodd"
     d="m 1926.6119,661.41684 c -9.7428,58.97491 -11.9711,151.58293 41.7956,158.11282 34.6307,4.24936 70.7256,-23.83878 81.6733,-94.99204 h 217.5022 c -37.9089,223.56542 -168.9307,264.14309 -324.7894,263.00292 -169.8117,-1.24442 -271.4759,-139.50832 -259.0125,-326.43469 l 242.8308,0.31024 z"
     id="path24"
     style="stroke:#ffffff;stroke-width:18.146;stroke-miterlimit:4;stroke-dasharray:none;stroke-opacity:1" /><path
     fill-rule="evenodd"
     clip-rule="evenodd"
     d="m 4209.2055,585.02955 c 31.897,-175.25326 117.2759,-318.41502 361.4149,-323.97325 47.911,-1.08784 86.0009,15.13263 105.9267,26.71498 l -31.5605,189.76389 c -96.8832,-39.28207 -149.5871,37.83091 -168.1919,107.80532 z"
     id="path26"
     style="stroke:#ffffff;stroke-width:18.146;stroke-miterlimit:4;stroke-dasharray:none;stroke-opacity:1" /><path
     fill-rule="evenodd"
     clip-rule="evenodd"
     d="m 4471.1977,661.41684 c 6.5297,43.68711 31.6897,84.42003 80.6889,84.42003 l 53.2742,-4.04211 -31.0423,212.37142 c -37.8306,10.00208 -73.9259,16.01353 -122.8987,15.33981 -186.3822,-2.64271 -262.7697,-139.66358 -251.9386,-308.34814 l 271.9165,0.26502 z"
     id="path28"
     style="stroke:#ffffff;stroke-width:18.146;stroke-miterlimit:4;stroke-dasharray:none;stroke-opacity:1" /><path
     fill-rule="evenodd"
     clip-rule="evenodd"
     d="m 3094.3321,661.41684 c -29.1766,47.26275 -58.3531,82.08801 -124.5313,76.07655 l 11.427,-76.28378 -257.691,0.1595 -46.5891,292.7494 h 260.7487 c 215.7659,0 363.9026,-94.3701 436.507,-293.37132 l -279.8713,0.67392 z"
     id="path30"
     style="stroke:#ffffff;stroke-width:18.146;stroke-miterlimit:4;stroke-dasharray:none;stroke-opacity:1" /><path
     fill-rule="evenodd"
     clip-rule="evenodd"
     d="m 2990.9446,585.23673 51.0719,-329.09046 c 104.2941,0 128.3402,80.22217 108.2846,224.62784 -5.0008,36.10781 -12.0229,74.19772 -21.4288,105.03262 l 271.3204,0.31023 c 9.8206,-40.62942 14.122,-85.72844 18.8898,-133.41892 C 3455.1773,91.658569 3258.6376,11.436152 3062.0721,11.436152 H 2817.3627 L 2783.263,268.16843 c -40.1111,8.01973 -138.3941,20.05559 -190.5541,90.26325 -10.0278,10.02782 -16.0393,6.01145 -14.044,-6.02446 l 10.0279,-64.1832 h -230.6395 l -44.1274,296.85652 h 244.7091 c 10.0022,-42.13226 120.3338,-104.30718 188.533,-72.21568 l -11.4529,71.95644 255.2295,0.41386 z"
     id="path32-3"
     style="stroke:#ffffff;stroke-width:18.146;stroke-miterlimit:4;stroke-dasharray:none;stroke-opacity:1" /><path
     fill-rule="evenodd"
     clip-rule="evenodd"
     d="m 3734.0123,585.08129 c -14.7956,-29.53924 -20.9886,-64.88268 -15.1065,-106.95019 20.1333,-143.99094 128.366,-217.0748 290.8319,-217.0748 70.0132,0 118.6751,16.44098 174.6443,50.77401 l -26.663,184.89228 c -40.6294,-33.99604 -114.2184,-52.05635 -157.8019,-52.05635 -18.4749,0 -41.4586,4.36612 -47.1072,26.31329 -8.214,31.85827 27.4664,49.37458 70.894,64.71412 35.8877,12.69685 66.4115,28.39908 90.7428,49.07665 l -380.4344,0.31024 z"
     id="path34"
     style="stroke:#ffffff;stroke-width:18.146;stroke-miterlimit:4;stroke-dasharray:none;stroke-opacity:1" /><path
     fill-rule="evenodd"
     clip-rule="evenodd"
     d="m 4169.9492,661.93502 c 11.0644,30.31666 14.3551,66.80021 8.9914,105.30479 -21.973,157.17995 -156.869,216.31037 -300.8339,216.31037 -95.1216,0 -135.129,-17.72357 -210.7391,-62.65435 l 33.8145,-206.87847 c 25.7561,33.01162 113.0267,85.66389 171.4314,82.65819 22.4393,-1.14091 67.7328,-16.58339 71.231,-41.66583 3.5239,-25.08263 -7.2813,-43.58337 -63.613,-61.51418 -26.378,-8.34373 -51.4346,-17.20539 -73.6151,-30.88684 l 363.3328,-0.67393 z"
     id="path36"
     style="stroke:#ffffff;stroke-width:18.146;stroke-miterlimit:4;stroke-dasharray:none;stroke-opacity:1" /><polygon
     fill-rule="evenodd"
     clip-rule="evenodd"
     points="170.74902,4.762207 172.65234,4.762207 172.65234,5.0429688 171.85938,5.0429688 171.85938,7.105957 171.54199,7.105957 171.54199,5.0429688 170.74902,5.0429688 "
     id="polygon38"
     transform="matrix(26.533497,0,0,26.533497,13.336883,11.436843)" /><path
     fill-rule="evenodd"
     clip-rule="evenodd"
     d="m 4653.3826,199.98281 v -36.71673 c 0,-1.82552 0.1884,-9.70383 0.1884,-15.50805 h -0.1884 l -17.491,52.22478 h -8.3173 l -17.4904,-52.13435 h -0.1571 c 0,5.71379 0.1571,13.59077 0.1571,15.41762 v 36.71673 h -8.1361 v -62.18786 h 12.0486 l 17.7498,52.56153 h 0.1569 l 17.6725,-52.56153 h 11.9448 v 62.18786 z"
     id="path40"
     style="stroke-width:26.5335" /><path
     fill-rule="evenodd"
     clip-rule="evenodd"
     d="m 2024.8687,261.0563 c -196.3452,1.33468 -292.9696,139.11965 -331.0985,323.92126 l 592.8447,0.15951 c 6.5557,-85.74145 3.4592,-168.77537 -22.4522,-206.46378 -45.1898,-65.75054 -104.6829,-118.51958 -239.294,-117.61271 z m 3.8222,154.79619 c 46.2391,0 53.7537,50.19075 49.7243,88.48815 h -120.204 c 3.6664,-35.65437 26.8962,-88.48815 70.4797,-88.48815 z"
     id="path42"
     style="stroke:#ffffff;stroke-width:18.146;stroke-miterlimit:4;stroke-dasharray:none;stroke-opacity:1" /></g></svg>
