<?xml version="1.0" encoding="UTF-8" standalone="no"?>
<!-- Generator: Adobe Illustrator 26.0.3, SVG Export Plug-In . SVG Version: 6.00 Build 0)  -->

<svg
   version="1.1"
   id="Layer_1"
   x="0px"
   y="0px"
   viewBox="0 0 5039.817 638.47399"
   xml:space="preserve"
   width="5039.8169"
   height="638.474"
   sodipodi:docname="pcarcade.svg"
   inkscape:version="1.1 (c68e22c387, 2021-05-23)"
   xmlns:inkscape="http://www.inkscape.org/namespaces/inkscape"
   xmlns:sodipodi="http://sodipodi.sourceforge.net/DTD/sodipodi-0.dtd"
   xmlns:xlink="http://www.w3.org/1999/xlink"
   xmlns="http://www.w3.org/2000/svg"
   xmlns:svg="http://www.w3.org/2000/svg"><sodipodi:namedview
   id="namedview84"
   pagecolor="#ffffff"
   bordercolor="#666666"
   borderopacity="1.0"
   inkscape:pageshadow="2"
   inkscape:pageopacity="0.0"
   inkscape:pagecheckerboard="0"
   showgrid="false"
   fit-margin-top="0"
   fit-margin-left="0"
   fit-margin-right="0"
   fit-margin-bottom="0"
   inkscape:zoom="0.29805537"
   inkscape:cx="2632.0613"
   inkscape:cy="608.94726"
   inkscape:window-width="2560"
   inkscape:window-height="1377"
   inkscape:window-x="-8"
   inkscape:window-y="-8"
   inkscape:window-maximized="1"
   inkscape:current-layer="Layer_1" /><defs
   id="defs148"><linearGradient
   id="linearGradient34773"
   gradientUnits="userSpaceOnUse"
   x1="15.196"
   y1="312.37051"
   x2="3854.196"
   y2="312.37051"
   gradientTransform="translate(1160.9631,-2.2896484e-5)">
				<stop
   offset="0"
   style="stop-color:#f3dd42;stop-opacity:1"
   id="stop34769" />
				<stop
   offset="1"
   style="stop-color:#d7861b;stop-opacity:1"
   id="stop34771" />
			</linearGradient>
	
	

		
	
			<linearGradient
   id="SVGID_1_"
   gradientUnits="userSpaceOnUse"
   x1="15.196"
   y1="312.37051"
   x2="3854.196"
   y2="312.37051"
   gradientTransform="translate(1160.9631,-2.2896484e-5)">
				<stop
   offset="0"
   style="stop-color:#FF2422"
   id="stop4" />
				<stop
   offset="1"
   style="stop-color:#C24FFF"
   id="stop6" />
			</linearGradient>
			
		<linearGradient
   xlink:href="#linearGradient34773"
   id="linearGradient6574"
   gradientUnits="userSpaceOnUse"
   gradientTransform="translate(1160.9631,-7.145e-5)"
   x1="15.196"
   y1="312.37051"
   x2="3588.2239"
   y2="316.50259" /></defs>
<style
   type="text/css"
   id="style2">
	.st0{fill:#FFFFFF;}
	.st1{fill:#FF0000;}
	.st2{fill:url(#SVGID_1_);}
	.st3{fill:url(#SVGID_00000060022068257817767130000001067164073883981741_);}
	.st4{fill:url(#SVGID_00000144308182761068376180000004131709304805192586_);}
	.st5{fill:url(#SVGID_00000000935997520668853970000011105419993307822477_);}
	.st6{fill:url(#SVGID_00000018200174457167754170000000853354448091225986_);}
	.st7{fill:url(#SVGID_00000072987630451721579260000010409738167651109522_);}
	.st8{fill:#3636FF;}
	.st9{display:none;}
	.st10{display:inline;}
	.st11{enable-background:new    ;}
	.st12{fill:url(#SVGID_00000099639162208554751810000013272208193612295339_);}
	.st13{fill:url(#SVGID_00000158736166008707814920000018426778185460247990_);}
	.st14{fill:url(#SVGID_00000133527000259551881150000004185836194023049859_);}
	.st15{fill:url(#SVGID_00000093164219829473752460000004603917870326250679_);}
	.st16{fill:url(#SVGID_00000156556395246081825560000005894267688922753411_);}
	.st17{fill:url(#SVGID_00000135690321830567168220000000437954853257014148_);}
	.st18{fill:url(#SVGID_00000040565659643257570880000002075315462357006765_);}
	.st19{fill:url(#SVGID_00000017508175736194757820000008863537906517323707_);}
	.st20{fill:url(#SVGID_00000126293465477839731700000000626789561221784705_);}
	.st21{fill:url(#SVGID_00000087403315896914670680000008996143154280075168_);}
	.st22{fill:url(#SVGID_00000151540686432933406660000011628697137491540393_);}
	.st23{fill:url(#SVGID_00000143589059756432772880000012524823099024141722_);}
	.st24{fill:url(#SVGID_00000052088033699595628130000015515451372212444082_);}
	.st25{fill:url(#SVGID_00000126294377186336552610000001799937443100725399_);}
	.st26{fill:url(#SVGID_00000070835762807858034660000013936331226864194476_);}
	.st27{fill:url(#SVGID_00000092457199491666826160000016742156659903073436_);}
	.st28{fill:url(#SVGID_00000138556585880754416440000017272986633013561527_);}
	.st29{fill:url(#SVGID_00000032624778419303139080000015394367773870234245_);}
	.st30{fill:url(#SVGID_00000040539262103052545880000003837399106474199717_);}
	.st31{fill:url(#SVGID_00000115483974547727894610000006699104590764616355_);}
	.st32{fill:url(#SVGID_00000041285316495664937430000010139118778734034608_);}
	.st33{fill:url(#SVGID_00000178199001922562380240000009661348160359078294_);}
	.st34{fill:url(#SVGID_00000145019290134935790460000010249637267404127883_);}
	.st35{fill:url(#SVGID_00000117636406951782473700000003654222835714608307_);}
	.st36{fill:url(#SVGID_00000158745280490234840560000003483236744759648947_);}
	.st37{fill:url(#SVGID_00000146474604070782972690000015670225624893543309_);}
	.st38{fill:url(#SVGID_00000173847499186819278890000011550608873747634579_);}
	.st39{fill:url(#SVGID_00000141427567100195222880000010417319602782459071_);}
</style>

<path
   style="fill:#ffffff;stroke:#000000;stroke-width:0.503262;stroke-linejoin:round"
   d="m 4775.8157,12.18954 c -83.529,0.445929 -167.227,-0.319685 -250.6504,0.882321 -16.7109,3.071515 -14.6214,24.029299 -19.8107,36.571726 -49.5868,185.115993 -99.8431,370.054383 -148.7144,555.359993 -2.6444,12.68955 10.3191,20.90146 21.6525,19.33149 139.8411,2.29996 279.7252,0.75388 419.5833,1.22494 25.8301,-0.61257 51.9972,1.22069 77.6185,-0.9074 15.3005,-4.21147 13.0328,-24.04057 18.1508,-36.18886 11.4821,-44.70663 24.4716,-89.63068 35.2376,-134.02648 1.4464,-14.67631 -15.3496,-18.42766 -26.6857,-17.45597 -92.612,-1.59124 -185.2513,-0.19894 -277.8713,-1.26189 2.8688,-11.12886 6.0092,-22.18516 9.0332,-33.27231 91.7903,-0.30714 183.7479,0.60188 275.4342,-0.45698 16.7572,-3.04826 14.6225,-24.06192 19.7796,-36.62818 9.9566,-38.6227 21.138,-77.09371 30.3371,-115.81007 2.222,-14.67942 -14.5748,-19.36293 -26.1688,-17.21395 -84.4922,-0.45415 -168.9933,-0.061 -253.4791,-1.22605 2.8257,-9.0586 4.4129,-19.66361 7.8897,-27.84325 98.5383,-1.03377 197.2437,0.25344 295.6794,-0.90257 16.7104,-3.04334 14.6724,-23.99554 19.8874,-36.526 12.0573,-45.62787 25.328,-91.100202 36.6258,-136.825885 2.2652,-13.754399 -13.2557,-19.5645838 -24.5545,-17.230204 -79.6581,0.135193 -159.3161,0.270386 -238.9742,0.405579 z"
   id="path1289" /><path
   style="fill:#ffffff;stroke:#000000;stroke-width:0.503262;stroke-linejoin:round"
   d="m 3937.8252,11.897936 c -14.6672,1.586499 -32.6082,-3.6922623 -44.5663,7.188524 -8.3398,15.912431 -9.9844,34.768747 -15.7082,51.814627 -47.9117,178.704793 -96.1597,357.324493 -143.6581,536.137163 -2.6733,14.21705 12.6627,21.10151 24.6454,18.52176 99.247,-0.7453 198.5772,1.83209 297.7647,-2.35151 98.5336,-6.17686 198.4812,-42.44319 267.4715,-115.14515 62.2354,-64.78015 98.128,-154.78144 93.8718,-244.86412 -0.6723,-57.07503 -16.844,-115.92589 -55.8585,-158.94482 -42.264,-50.146886 -106.0241,-76.283099 -169.5469,-86.191058 -41.8985,-7.089121 -84.6674,-4.043094 -126.964,-5.516317 -42.4829,-0.320844 -84.9671,-0.658856 -127.4514,-0.649099 z m 149.1962,201.829114 c 27.595,-1.17167 57.8341,1.74365 79.8732,20.83492 23.9037,20.43417 25.2715,54.95994 20.2518,83.73615 -9.3136,39.50654 -36.3787,75.13393 -74.5709,90.44669 -32.1012,14.55543 -68.404,16.57992 -103.6875,17.26321 18.229,-70.72122 37.5149,-141.51763 56.3647,-212.28425 7.2563,0.001 14.5125,0.002 21.7687,0.003 z"
   id="path1250" /><path
   style="display:inline;fill:#ffffff;stroke:#000000;stroke-width:0.503262;stroke-linejoin:round"
   d="m 3548.3113,8.8279058 c -33.4647,0.7456532 -67.27,-0.9002519 -100.5199,1.3547392 -13.2226,4.433383 -17.3348,20.651427 -26.1684,30.475717 -128.0988,186.936278 -257.0226,373.340318 -384.4406,560.721458 -6.3317,13.12452 7.5717,25.21676 20.3343,23.46465 67.9817,1.45285 136.0013,0.31123 203.9974,0.64673 16.3703,-2.85041 20.2373,-22.37841 29.9063,-33.60569 9.5718,-14.78923 19.1439,-29.57815 28.7159,-44.36719 60.9398,-0.25734 121.8795,-0.51601 182.8192,-0.77652 3.5828,22.39381 4.8371,45.44438 9.1771,67.52745 6.5413,14.51521 25.2545,9.35499 37.879,10.89155 61.8878,0.42399 123.9459,0.87102 185.7319,-0.0545 14.5411,-1.57588 14.4684,-18.27295 11.167,-29.13329 -28.9625,-191.57673 -57.6217,-383.19958 -86.4103,-574.80273 -4.0483,-16.9740895 -23.7395,-12.2178371 -36.7059,-12.6753798 -25.161,0.1110018 -50.322,0.2220037 -75.483,0.3330056 z M 3480.6167,308.5212 c 2.6118,23.53446 5.1474,47.10203 7.9257,70.6369 -20.6273,-0.13467 -42.0126,0.28988 -62.1902,-0.29487 17.4848,-27.52717 35.1563,-54.93552 52.908,-82.29124 0.4522,3.98307 0.9043,7.96614 1.3565,11.94921 z"
   id="path1172" /><path
   style="fill:#ffffff;stroke:#000000;stroke-width:0.503262;stroke-linejoin:round"
   d="M 2919.9741,0.35501495 C 2830.0861,-1.1661853 2738.7792,26.58636 2668.3882,83.267128 c -36.028,30.379762 -67.8564,66.155452 -89.8985,108.042472 -44.8638,80.55725 -61.416,179.93783 -32.4488,268.69681 22.9411,72.0995 81.2878,130.57912 152.139,156.2621 73.9136,27.71774 156.4286,27.88538 232.2282,7.81469 69.0486,-18.46623 129.2398,-62.70783 172.585,-118.92279 8.0798,-10.99406 -1.3974,-22.208 -11.038,-27.83818 -42.7472,-33.19709 -84.7285,-67.62797 -127.7706,-100.28378 -15.6007,-8.55663 -25.3964,10.72888 -35.5672,19.3374 -28.7258,30.23585 -74.287,47.23541 -114.9017,33.39025 -28.3303,-10.39792 -45.9771,-39.49494 -47.0235,-68.99213 -3.8975,-46.98104 15.1209,-95.17774 50.4496,-126.5201 27.4761,-24.31109 67.8276,-35.50441 103.5597,-25.73638 25.7727,6.99716 43.4933,29.87481 50.7817,54.63475 4.6411,12.24375 19.9182,14.11644 29.8517,7.15577 55.3395,-23.98182 111.1033,-47.40079 165.9292,-72.30549 13.9495,-9.25298 4.4296,-27.12995 0.8563,-39.66062 -20,-59.567192 -65.9948,-109.371061 -123.8388,-133.927922 C 3005.3298,7.3952871 2962.45,-0.77688115 2919.9741,0.35501495 Z"
   id="path1133" /><path
   style="fill:#ffffff;stroke:#000000;stroke-width:0.503262;stroke-linejoin:round"
   d="m 2181.6793,12.051929 c -47.0907,0.46361 -94.3512,-0.219987 -141.3339,1.024047 -16.6816,3.109363 -14.5859,24.030949 -19.7737,36.568186 -49.8881,185.671408 -99.744,371.351588 -149.6896,557.007458 -2.9362,13.31953 11.0672,21.54303 22.8696,18.90839 62.8286,-0.3051 125.8248,0.60646 188.5494,-0.45371 16.7262,-3.04502 14.6573,-24.0174 19.8522,-36.56024 11.5772,-42.96535 23.1696,-85.95609 34.773,-128.92826 8.8462,2.0791 23.0235,-3.48438 28.354,3.63713 20.2092,51.01104 39.3512,102.61774 60.2315,153.25538 8.8699,13.76152 27.7563,6.34788 41.4204,8.32804 60.4709,-0.40401 121.0378,1.91372 181.4531,-0.73309 13.5991,-0.65739 18.7267,-17.48435 11.1162,-27.60021 -23.787,-56.96644 -47.5824,-113.92817 -71.3799,-170.89021 48.3363,-18.25687 94.8961,-47.34348 123.0666,-91.77981 37.5107,-58.12208 44.6275,-134.57194 20.4287,-199.14898 C 2512.655,83.218827 2465.1218,47.812336 2414.1013,31.819589 2339.3277,6.9266077 2259.1665,13.348082 2181.6793,12.051929 Z m 59.6903,194.480041 c 20.0786,1.64896 40.29,-2.90167 59.3168,5.86157 22.9949,10.19308 19.3297,43.69857 1.4612,57.09207 -24.2881,21.142 -58.6395,19.39828 -88.3215,20.52825 -10.1335,-0.32049 -23.4251,1.61358 -31.4915,-0.78111 7.1508,-27.80193 14.6599,-55.40189 22.057,-83.14311 12.326,0.14746 24.652,0.29489 36.978,0.44233 z"
   id="path1094" /><path
   style="display:inline;fill:#ffffff;stroke:#000000;stroke-width:0.503262;stroke-linejoin:round"
   d="m 1581.1295,10.616846 c -18.3422,21.439507 -32.4865,46.464033 -49.173,69.317468 -119.2061,173.942306 -239.0189,347.475046 -357.5519,521.874716 -6.9433,12.50164 5.9188,25.77664 18.8914,23.10279 68.9514,0.78618 138.0783,1.08856 206.9308,0.19448 14.7172,-3.40878 18.3905,-21.26301 27.3788,-31.69872 9.977,-15.35443 19.9999,-30.67972 30.2018,-45.88598 60.6968,0.0252 121.7966,-1.23973 182.2523,0.16382 3.8624,22.39585 5.1147,45.26263 9.9604,67.45875 7.8065,15.26573 26.8011,8.41561 40.4345,10.07464 60.7155,-0.10962 121.5975,0.2847 182.2044,-0.95807 14.8478,-1.71599 14.3304,-19.00632 11.1605,-30.0413 -28.7158,-190.87049 -57.4347,-381.74048 -86.1562,-572.610116 -3.7786,-16.2440004 -22.2509,-12.7265633 -34.7565,-13.0185348 -58.5056,0.025702 -117.1763,-0.7350359 -175.578,0.2845338 -2.0664,0.5805075 -4.1328,1.161015 -6.1993,1.741523 z m 35.6576,286.692354 c 3.1212,27.2704 6.2175,54.54467 9.0299,81.8489 -20.8426,0 -41.6852,0 -62.5277,0 17.7925,-27.71132 35.4506,-55.44565 53.3536,-83.07102 z"
   id="path1016" /><path
   style="fill:#ffffff;stroke:#000000;stroke-width:0.503262;stroke-linejoin:round"
   d="M 991.68368,0.98081635 C 886.50004,-0.49599005 781.38002,43.540023 710.04981,121.10566 c -50.71628,54.95483 -84.24498,125.959 -93.82725,200.14126 -2.08134,33.03688 -3.24249,66.507 0.83222,99.42049 8.6474,52.55531 34.43394,101.74359 72.71071,138.78413 50.19561,50.26827 122.06711,74.50864 192.07083,77.13994 69.57362,3.73634 142.08398,-7.17263 202.14388,-44.33319 37.486,-22.94916 72.2836,-51.79448 98.2813,-87.40913 7.3694,-12.31429 -3.7596,-23.99732 -13.7497,-30.0984 -40.837,-32.30344 -81.5899,-64.73225 -122.9076,-96.41504 -14.9932,-8.38523 -25.0718,8.46184 -34.4717,17.1621 -23.39676,23.83923 -55.17998,41.69386 -89.54838,39.39798 -34.45615,1.83929 -68.16733,-25.07574 -72.76007,-59.53181 C 836.32,310.46328 870.897,236.47404 933.86751,211.8988 c 22.73987,-8.28293 48.8133,-10.07238 72.01299,-2.64738 24.8191,8.05697 40.8385,31.16553 47.3381,55.49645 5.9295,13.95541 22.2078,9.44975 32.4059,3.32255 53.636,-23.75438 107.9638,-46.08061 160.9634,-71.19742 13.6417,-10.66972 4.1007,-29.19712 0.1901,-42.35134 C 1223.6902,88.566786 1167.0916,37.532867 1101.1505,16.210731 1065.9599,3.5746452 1028.8358,0.31663615 991.68368,0.98081635 Z"
   id="path977" /><path
   style="fill:#ffffff;stroke:#000000;stroke-width:0.503262;stroke-linejoin:round"
   d="M 163.73218,15.429946 C 152.28661,26.393259 153.41926,44.266141 147.86194,58.409015 98.795836,241.16285 49.817793,423.97545 0.64376986,606.65818 -2.2869626,619.97833 11.716044,628.19287 23.516643,625.56001 c 61.173981,-0.5964 122.426517,1.26141 183.553087,-1.16314 13.89806,0.007 19.1402,-14.29485 20.74766,-25.83248 11.84479,-44.11478 23.62346,-88.24716 35.42375,-132.37403 62.59204,-0.59793 126.60054,3.67188 187.44091,-14.24284 C 520.72629,433.51535 586.8281,389.19101 618.86337,322.65907 643.92252,270.85816 650.08069,209.90796 636.3596,154.07933 623.41915,104.757 585.57514,64.744269 539.71425,43.810526 491.78665,19.921968 437.47645,13.929135 384.57865,14.556157 313.05395,14.093989 241.36546,13.108972 169.93906,13.719673 c -2.06896,0.570091 -4.13792,1.140182 -6.20688,1.710273 z M 353.60554,198.17703 c 21.02673,0.15006 47.76296,0.15605 60.45699,20.46796 12.53029,24.60652 -3.2347,55.55834 -26.48585,67.43492 -24.29906,14.07584 -52.34494,11.34598 -79.09764,12.41209 8.5921,-33.68755 17.239,-67.29969 26.29347,-100.75401 6.27768,0.14635 12.55536,0.29269 18.83303,0.43904 z"
   id="path938" /><g
   id="g114781"
   transform="translate(9.5982984,6.6457924)"><path
     class="st2"
     d="m 1579.7631,16.299929 -403.6,587.900101 h 212.6 l 50.9,-78.4 h 204.3 l 10,78.4 h 207.6 l -88.3,-587.900101 z m -53.4,371.100001 90.9,-141.8 15.8,141.8 z m 733.8,-366.900001 h -227.6 l -156.8,583.700101 h 195.2 l 45,-166.8001 h 48.4 l 65,166.8001 h 210.1 l -80.9,-194.3001 c 115.1,-35.9 162.6,-114.2 162.6,-205.1 0,-45.9 -13.3,-89.2 -45.9,-121.700001 -39.1,-39.2 -107.5,-62.6 -215.1,-62.6 z m -36.6,277.700001 h -70.9 l 30.9,-114.2 h 69.2 c 27.5,0 46.7,5.8 57.5,16.7 8.3,8.3 12.5,19.2 12.5,30.9 0,36.6 -34.2,66.6 -99.2,66.6 z m 857.8,191 -135.1,-106.7 c -31.7,39.2 -68.4,60.9 -113.4,60.9 -51.7,0 -91.7,-35.9 -91.7,-100.1 0,-80.1 56.7,-160.1 144.3,-160.1 44.2,0 78.4,23.3 90.9,70.9 l 174.3,-75.9 c -24.2,-103.500001 -113.5,-170.2000014 -239.4,-170.2000014 -251.8,0 -374.4,193.5000014 -374.4,352.7000014 0,156.8 113.4,256.0001 276.9,256.0001 124.2,0 209.3,-50.8 267.6,-127.5001 z m 361.1,-472.900001 -403.6,587.900101 h 212.6 l 50.9,-78.4 h 204.3 l 10,78.4 h 207.6 l -88.3,-587.900101 z m -53.4,371.100001 90.9,-141.8 15.8,141.8 z m 941.5,-291.800001 c -44.2,-44.2 -115.1,-75 -228.5,-75 h -206.8 l -156.8,583.700101 h 253.5 c 135.1,0 236,-37.5 306,-107.6001 62.5,-62.5 95.9,-142.6 95.9,-230.2 0.1,-70.9 -20,-127.6 -63.3,-170.900001 z m -176.8,291.000001 c -30,30 -80.9,47.5 -140.1,47.5 h -34.2 l 65,-243.5 h 32.5 c 46.7,0 75.9,10.8 94.2,29.2 15,15 24.2,35.9 24.2,67.5 0.1,35.9 -17.4,75.1 -41.6,99.3 z m 818,-206 43.4,-160.100001 h -497.8 l -156.8,583.700101 h 502 l 42.5,-160.1001 h -310.2 l 17.5,-63.4 h 285.2 l 37.5,-140.9 h -285.1 l 15.8,-59.2 z"
     id="path9-5"
     style="fill:url(#linearGradient6574);fill-opacity:1;stroke:#000000;stroke-opacity:1" /><g
     id="g141"
     transform="translate(1160.9631,-2.2896484e-5)"
     style="fill:#000000;fill-opacity:1">
		<g
   id="g34"
   style="fill:#000000;fill-opacity:1">
			
				<linearGradient
   id="SVGID_00000128444796063564815230000007252927678799283094_"
   gradientUnits="userSpaceOnUse"
   x1="357.92542"
   y1="604.23328"
   x2="357.92542"
   y2="16.339899">
				<stop
   offset="0"
   style="stop-color:#FF0000"
   id="stop15" />
				<stop
   offset="0.2634"
   style="stop-color:#E42372"
   id="stop17" />
				<stop
   offset="0.3192"
   style="stop-color:#FFA1FF"
   id="stop19" />
				<stop
   offset="0.4267"
   style="stop-color:#DA2F9A"
   id="stop21" />
				<stop
   offset="0.7554"
   style="stop-color:#CC41D4"
   id="stop23" />
				<stop
   offset="0.7881"
   style="stop-color:#FFA1FF"
   id="stop25" />
				<stop
   offset="0.8413"
   style="stop-color:#C846E3"
   id="stop27" />
				<stop
   offset="1"
   style="stop-color:#C24FFF"
   id="stop29" />
			</linearGradient>
			<path
   style="fill:#000000;fill-opacity:1"
   d="m 598.5,32.3 83.6,555.9 h -175 l -8.2,-64.4 -1.8,-14 H 483 278.7 270 l -4.7,7.3 -46.1,71.1 H 45.6 L 427.2,32.3 H 598.5 M 336.2,403.4 h 29.3 106.7 17.9 l -2,-17.8 -15.8,-141.8 -5,-44.8 -24.4,38 -90.9,141.8 -15.8,24.6 M 612.3,16.3 H 418.8 L 15.2,604.2 h 212.6 l 50.9,-78.4 H 483 l 10,78.4 h 207.6 z m -246.9,371.1 90.9,-141.8 15.8,141.8 z"
   id="path32" />
		</g>
		<g
   id="g55"
   style="fill:#000000;fill-opacity:1">
			
				<linearGradient
   id="SVGID_00000135673619673579814740000002913345356260872074_"
   gradientUnits="userSpaceOnUse"
   x1="1037.5408"
   y1="604.23328"
   x2="1037.5408"
   y2="20.5096">
				<stop
   offset="0"
   style="stop-color:#FF0000"
   id="stop36" />
				<stop
   offset="0.2634"
   style="stop-color:#E42372"
   id="stop38" />
				<stop
   offset="0.3192"
   style="stop-color:#FFA1FF"
   id="stop40" />
				<stop
   offset="0.4267"
   style="stop-color:#DA2F9A"
   id="stop42" />
				<stop
   offset="0.7554"
   style="stop-color:#CC41D4"
   id="stop44" />
				<stop
   offset="0.7881"
   style="stop-color:#FFA1FF"
   id="stop46" />
				<stop
   offset="0.8413"
   style="stop-color:#C846E3"
   id="stop48" />
				<stop
   offset="1"
   style="stop-color:#C24FFF"
   id="stop50" />
			</linearGradient>
			<path
   style="fill:#000000;fill-opacity:1"
   d="m 1099.2,36.5 c 96.9,0 165.4,19.5 203.8,57.9 13.9,13.9 24.5,30.7 31.4,50 6.5,18.1 9.8,38.5 9.8,60.5 0,44.1 -11.8,82.3 -35,113.7 -25.5,34.4 -64.7,60.1 -116.4,76.2 l -16.8,5.2 6.7,16.2 71.7,172.1 h -175.2 l -61.1,-156.6 -4,-10.2 H 1003.2 955 942.7 l -3.2,11.8 -41.8,154.9 h -162 L 883.9,36.5 h 215.3 M 970.8,314.2 h 20.9 70.9 c 34.1,0 63,-7.8 83.4,-22.6 20.5,-14.9 31.8,-36.2 31.8,-60.1 0,-16.1 -6.1,-31.1 -17.2,-42.2 -14.2,-14.2 -37.3,-21.4 -68.9,-21.4 h -69.2 -12.3 l -3.2,11.8 -30.8,114.3 -5.4,20.2 M 1099.2,20.5 H 871.6 L 714.8,604.2 H 910 l 45,-166.8 h 48.4 l 65,166.8 h 210.1 l -80.9,-194.3 c 115.1,-35.9 162.6,-114.2 162.6,-205.1 0,-45.9 -13.3,-89.2 -45.9,-121.7 C 1275.2,43.9 1206.8,20.5 1099.2,20.5 Z M 991.7,298.2 1022.6,184 h 69.2 c 27.5,0 46.7,5.8 57.5,16.7 8.3,8.3 12.5,19.2 12.5,30.9 0,36.7 -34.2,66.7 -99.2,66.7 h -70.9 z"
   id="path53" />
		</g>
		<g
   id="g76"
   style="fill:#000000;fill-opacity:1">
			
				<linearGradient
   id="SVGID_00000093171400342485411010000004786870807831186310_"
   gradientUnits="userSpaceOnUse"
   x1="1682.7727"
   y1="616.74109"
   x2="1682.7727"
   y2="8.0001001">
				<stop
   offset="0"
   style="stop-color:#FF0000"
   id="stop57" />
				<stop
   offset="0.2634"
   style="stop-color:#E42372"
   id="stop59" />
				<stop
   offset="0.3192"
   style="stop-color:#FFA1FF"
   id="stop61" />
				<stop
   offset="0.4267"
   style="stop-color:#DA2F9A"
   id="stop63" />
				<stop
   offset="0.7554"
   style="stop-color:#CC41D4"
   id="stop65" />
				<stop
   offset="0.7881"
   style="stop-color:#FFA1FF"
   id="stop67" />
				<stop
   offset="0.8413"
   style="stop-color:#C846E3"
   id="stop69" />
				<stop
   offset="1"
   style="stop-color:#C24FFF"
   id="stop71" />
			</linearGradient>
			<path
   style="fill:#000000;fill-opacity:1"
   d="m 1750.3,24 c 57.9,0 109.2,15 148.5,43.3 34.7,25 59.3,60 71.9,101.7 L 1825,232.4 c -7.6,-18.4 -18.8,-33.3 -33.5,-44.4 -18.1,-13.6 -41.2,-20.8 -67,-20.8 -45.5,0 -87.1,19.8 -117.2,55.8 -27.3,32.7 -43,76.5 -43,120.3 0,34.9 10.7,64.3 31,85.2 19.3,19.9 46.5,30.8 76.7,30.8 24.7,0 48,-6 69.4,-17.7 16.4,-9 31.6,-21.2 46.1,-37.1 l 110.4,87.3 c -27.1,32.4 -58.6,57.9 -93.8,75.7 -43.7,22.1 -94.6,33.3 -151.3,33.3 -38.6,0 -74.6,-5.7 -106.9,-17.1 -31.6,-11 -59.2,-27.2 -82,-48 -47,-42.8 -71.9,-103.3 -71.9,-175 0,-38.4 7.6,-78.7 22,-116.6 15.4,-40.6 37.8,-77.1 66.6,-108.7 C 1526.8,84.6 1611.1,24 1750.3,24 m 0,-16 c -251.8,0 -374.4,193.5 -374.4,352.7 0,156.8 113.4,256 276.9,256 124.2,0 209.3,-50.9 267.7,-127.6 L 1785.4,382.4 c -31.7,39.2 -68.4,60.9 -113.4,60.9 -51.7,0 -91.7,-35.9 -91.7,-100.1 0,-80.1 56.7,-160.1 144.3,-160.1 44.2,0 78.4,23.3 90.9,70.9 l 174.3,-75.9 C 1965.5,74.7 1876.2,8 1750.3,8 Z"
   id="path74" />
		</g>
		<g
   id="g97"
   style="fill:#000000;fill-opacity:1">
			
				<linearGradient
   id="SVGID_00000145054330599880703690000004533480753458681732_"
   gradientUnits="userSpaceOnUse"
   x1="2220.6216"
   y1="604.23328"
   x2="2220.6216"
   y2="16.339899">
				<stop
   offset="0"
   style="stop-color:#FF0000"
   id="stop78" />
				<stop
   offset="0.2634"
   style="stop-color:#E42372"
   id="stop80" />
				<stop
   offset="0.3192"
   style="stop-color:#FFA1FF"
   id="stop82" />
				<stop
   offset="0.4267"
   style="stop-color:#DA2F9A"
   id="stop84" />
				<stop
   offset="0.7554"
   style="stop-color:#CC41D4"
   id="stop86" />
				<stop
   offset="0.7881"
   style="stop-color:#FFA1FF"
   id="stop88" />
				<stop
   offset="0.8413"
   style="stop-color:#C846E3"
   id="stop90" />
				<stop
   offset="1"
   style="stop-color:#C24FFF"
   id="stop92" />
			</linearGradient>
			<path
   style="fill:#000000;fill-opacity:1"
   d="m 2461.2,32.3 83.6,555.9 h -175 l -8.2,-64.4 -1.8,-14 h -14.1 -204.3 -8.7 l -4.7,7.3 -46.1,71.1 H 1908.3 L 2289.9,32.3 h 171.3 m -262.3,371.1 h 29.3 106.7 17.9 l -2,-17.8 -15.8,-141.8 -5,-44.8 -24.4,38 -90.9,141.8 -15.8,24.6 M 2475,16.3 h -193.5 l -403.6,587.9 h 212.6 l 50.9,-78.4 h 204.3 l 10,78.4 h 207.6 z m -246.9,371.1 90.9,-141.8 15.8,141.8 z"
   id="path95" />
		</g>
		<g
   id="g118"
   style="fill:#000000;fill-opacity:1">
			
				<linearGradient
   id="SVGID_00000106148091704042031110000017185161894946614463_"
   gradientUnits="userSpaceOnUse"
   x1="2905.2402"
   y1="604.23328"
   x2="2905.2402"
   y2="20.5096">
				<stop
   offset="0"
   style="stop-color:#FF0000"
   id="stop99" />
				<stop
   offset="0.2634"
   style="stop-color:#E42372"
   id="stop101" />
				<stop
   offset="0.3192"
   style="stop-color:#FFA1FF"
   id="stop103" />
				<stop
   offset="0.4267"
   style="stop-color:#DA2F9A"
   id="stop105" />
				<stop
   offset="0.7554"
   style="stop-color:#CC41D4"
   id="stop107" />
				<stop
   offset="0.7881"
   style="stop-color:#FFA1FF"
   id="stop109" />
				<stop
   offset="0.8413"
   style="stop-color:#C846E3"
   id="stop111" />
				<stop
   offset="1"
   style="stop-color:#C24FFF"
   id="stop113" />
			</linearGradient>
			<path
   style="fill:#000000;fill-opacity:1"
   d="m 2941.1,36.5 c 51.9,0 97.3,6.7 134.9,20 32.8,11.6 60.5,28.5 82.3,50.3 39.5,39.5 58.7,91.7 58.7,159.6 0,41.5 -7.8,81.3 -23.3,118.3 -15.4,37.1 -38.3,70.9 -67.9,100.5 -33.6,33.6 -74.8,59.2 -122.7,76.3 -49.5,17.6 -107.4,26.6 -172,26.6 H 2598.5 L 2746.7,36.4 h 194.4 m -143.4,413.7 h 20.8 34.2 c 63,0 118.2,-19 151.4,-52.2 28.2,-28.2 46.4,-71.6 46.4,-110.5 0,-33.6 -9.4,-59.4 -28.9,-78.9 -22.8,-22.8 -57.3,-33.9 -105.5,-33.9 h -32.5 -12.3 l -3.2,11.9 -65,243.5 -5.4,20.1 M 2941.1,20.5 H 2734.3 L 2577.5,604.2 H 2831 c 135.1,0 236,-37.5 306,-107.6 62.5,-62.5 95.9,-142.6 95.9,-230.2 0,-70.9 -20,-127.6 -63.4,-170.9 -44.1,-44.1 -115,-75 -228.4,-75 z m -122.6,413.6 65,-243.5 h 32.5 c 46.7,0 75.9,10.8 94.2,29.2 15,15 24.2,35.9 24.2,67.5 0,35.9 -17.5,75 -41.7,99.2 -30,30 -80.9,47.5 -140.1,47.5 h -34.1 z"
   id="path116" />
		</g>
		<g
   id="g139"
   style="fill:#000000;fill-opacity:1">
			
				<linearGradient
   id="SVGID_00000021080724737336074490000000910687952145319586_"
   gradientUnits="userSpaceOnUse"
   x1="3526.8933"
   y1="604.23328"
   x2="3526.8933"
   y2="20.5096">
				<stop
   offset="0"
   style="stop-color:#FF0000"
   id="stop120" />
				<stop
   offset="0.2634"
   style="stop-color:#E42372"
   id="stop122" />
				<stop
   offset="0.3192"
   style="stop-color:#FFA1FF"
   id="stop124" />
				<stop
   offset="0.4267"
   style="stop-color:#DA2F9A"
   id="stop126" />
				<stop
   offset="0.7554"
   style="stop-color:#CC41D4"
   id="stop128" />
				<stop
   offset="0.7881"
   style="stop-color:#FFA1FF"
   id="stop130" />
				<stop
   offset="0.8413"
   style="stop-color:#C846E3"
   id="stop132" />
				<stop
   offset="1"
   style="stop-color:#C24FFF"
   id="stop134" />
			</linearGradient>
			<path
   style="fill:#000000;fill-opacity:1"
   d="m 3833.3,36.5 -34.7,128.1 h -293.8 -12.3 l -3.2,11.9 -15.8,59.2 -5.4,20.1 h 20.8 264.4 l -29,108.9 h -272.9 -12.2 l -3.2,11.7 -17.5,63.4 -5.6,20.3 h 21 289.4 l -34,128.1 H 3220.5 L 3368.7,36.5 h 464.6 m 20.9,-16 h -497.8 l -156.8,583.7 h 502 l 42.5,-160.1 h -310.2 l 17.5,-63.4 h 285.2 l 37.5,-140.9 H 3489 l 15.8,-59.2 h 306 z"
   id="path137" />
		</g>
	</g><g
     aria-label="PC"
     id="text2067"
     style="font-size:833.836px;line-height:1.25;font-family:Digitalt;-inkscape-font-specification:Digitalt;text-align:center;letter-spacing:0px;word-spacing:0px;text-anchor:middle;stroke-width:4.34289"
     transform="translate(-12.479633,-2.2896484e-5)"><path
       d="m 327.50356,306.51318 q 55.86702,0 81.71593,-21.67974 26.68275,-22.51357 26.68275,-55.86701 0,-20.01207 -14.17521,-34.18728 -10.00603,-10.00603 -25.84891,-14.17521 -15.84289,-4.16918 -32.51961,-4.16918 H 326.66973 L 292.48245,306.51318 Z M 174.07774,20.507428 H 370.0292 q 80.88209,0 132.57992,15.842884 51.69784,15.842884 84.21744,48.362488 23.34741,23.34741 34.18728,53.3655 11.6737,29.18426 11.6737,64.20538 0,55.03317 -20.01206,100.06032 -20.01207,44.1933 -58.36852,76.71291 -37.52262,31.68577 -92.5558,49.19632 -55.03318,17.51056 -124.24156,17.51056 H 254.95983 L 212.4342,604.19263 H 17.316573 Z"
       style="font-family:'Gotham Ultra';-inkscape-font-specification:'Gotham Ultra'"
       id="path8135" /><path
       d="m 907.01877,616.70017 q -61.70387,0 -112.56786,-17.51056 -50.864,-18.34439 -87.55278,-51.69783 -35.85495,-33.35344 -56.70085,-80.04826 -20.01206,-47.52865 -20.01206,-106.731 0,-60.0362 22.51357,-122.5739 23.34741,-62.5377 70.04222,-113.40169 46.69482,-51.697834 116.73704,-84.217438 70.87606,-32.519604 165.09955,-32.519604 47.5286,0 86.7189,12.50754 40.0242,11.673704 70.8761,34.187276 30.8519,21.679736 51.6978,53.365506 20.8459,31.68577 30.0181,70.04222 l -174.2717,75.87908 q -9.1722,-35.85495 -33.3535,-53.36551 -24.1812,-17.51055 -57.53464,-17.51055 -32.5196,0 -59.20235,14.17521 -26.68276,13.34138 -45.86098,35.85495 -18.3444,22.51357 -29.18426,51.69783 -10.00604,28.35042 -10.00604,58.36852 0,48.36249 25.84892,74.2114 26.68275,25.84892 65.87304,25.84892 34.18728,0 61.70387,-15.84288 27.51654,-15.84289 51.69784,-45.02715 l 135.0814,106.73101 q -44.1933,57.53468 -109.2325,92.55579 -65.0392,35.02112 -158.42883,35.02112 z"
       style="font-family:'Gotham Ultra';-inkscape-font-specification:'Gotham Ultra'"
       id="path8137" /></g></g></svg>
