<?xml version="1.0" encoding="UTF-8" standalone="no"?>
<svg
   width="317.78461"
   height="97.476921"
   id="svg2"
   version="1.1"
   xml:space="preserve"
   xmlns="http://www.w3.org/2000/svg"
   xmlns:svg="http://www.w3.org/2000/svg"
   xmlns:rdf="http://www.w3.org/1999/02/22-rdf-syntax-ns#"
   xmlns:cc="http://creativecommons.org/ns#"
   xmlns:dc="http://purl.org/dc/elements/1.1/"><defs
     id="defs4" /><metadata
     id="metadata7"><rdf:RDF><cc:Work
         rdf:about=""><dc:format>image/svg+xml</dc:format><dc:type
           rdf:resource="http://purl.org/dc/dcmitype/StillImage" /></cc:Work></rdf:RDF></metadata><g
     id="layer1"
     transform="translate(-190.75055,-192.90439)"><path
       d="m 229.98932,263.61929 h -13.19479 l -10.7771,-60.07315 h 12.33426 l 7.62182,45.44415 24.87341,-45.44415 h 12.2523 z"
       style="font-style:oblique;font-weight:bold;font-size:80px;line-height:0.01%;font-family:sans-serif;-inkscape-font-specification:'Arial Bold Oblique';letter-spacing:0px;word-spacing:0px;fill:#5fd38d;fill-opacity:1;stroke:none;stroke-width:1.04903"
       id="path839" /><path
       d="m 264.41051,218.56442 h 8.82042 l -1.65959,7.99064 h -8.82043 z m -2.5816,12.41622 h 8.82043 l -6.82276,32.63865 h -8.82043 z"
       style="font-style:normal;font-weight:bold;line-height:0.01%;font-family:sans-serif;-inkscape-font-specification:'Arial Bold Oblique';letter-spacing:0px;word-spacing:0px;fill:#00ffff;fill-opacity:1;stroke:none;stroke-width:1.04903"
       id="path841" /><path
       d="m 278.82437,230.98064 h 8.23651 l -1.32154,6.33104 q 4.60998,-7.09937 9.98829,-7.09937 1.90546,0 4.08752,0.95273 l -3.38066,7.2223 q -1.19859,-0.43027 -2.55085,-0.43027 -2.27426,0 -4.64072,1.72107 -2.33572,1.72105 -3.65724,4.60998 -1.32153,2.85818 -2.61233,9.09702 l -2.15132,10.23415 h -8.82042 z"
       style="font-style:normal;font-weight:bold;line-height:0.01%;font-family:sans-serif;-inkscape-font-specification:'Arial Bold Oblique';letter-spacing:0px;word-spacing:0px;fill:#00ffff;fill-opacity:1;stroke:none;stroke-width:1.04903"
       id="path843" /><path
       d="m 319.1156,251.32601 8.57455,1.383 q -2.12058,5.71637 -6.26957,8.6975 -4.14898,2.98111 -9.61948,2.98111 -6.23885,0 -9.89609,-3.71871 -3.65725,-3.71872 -3.65725,-10.23416 0,-5.31684 2.21278,-10.04976 2.2128,-4.7329 6.6691,-7.43743 4.45632,-2.73525 9.77317,-2.73525 5.77783,0 9.21995,3.01185 3.44212,3.01186 3.87239,7.92917 l -8.39017,0.89126 q -0.30733,-2.73526 -1.69033,-4.02605 -1.35225,-1.29079 -3.56504,-1.29079 -2.55085,0 -4.76365,1.90545 -2.21278,1.90546 -3.41138,5.71638 -1.16786,3.78019 -1.16786,7.09937 0,2.88892 1.41372,4.45632 1.41373,1.56739 3.53432,1.56739 2.12059,0 4.08752,-1.53667 1.96692,-1.53665 3.07332,-4.60998 z"
       style="font-style:normal;font-weight:bold;line-height:0.01%;font-family:sans-serif;-inkscape-font-specification:'Arial Bold Oblique';letter-spacing:0px;word-spacing:0px;fill:#00ffff;fill-opacity:1;stroke:none;stroke-width:1.04903"
       id="path845" /><path
       d="m 333.28361,250.06595 q 0,-9.06629 5.10171,-14.4446 5.13243,-5.40904 13.46114,-5.40904 7.22229,0 11.27908,3.99531 4.05678,3.96459 4.05678,10.69515 0,7.92917 -5.07098,13.70701 -5.07098,5.77784 -13.58407,5.77784 -4.60999,0 -8.17503,-1.84399 -3.56505,-1.84399 -5.31684,-5.22464 -1.75179,-3.38065 -1.75179,-7.25304 z m 25.13975,-6.3003 q 0,-3.13479 -1.84399,-5.00951 -1.81326,-1.90546 -4.70219,-1.90546 -2.85818,0 -5.07097,1.78252 -2.21279,1.75179 -3.44212,5.13245 -1.22932,3.34992 -1.22932,6.17737 0,3.50359 1.90545,5.56271 1.90546,2.05913 4.79438,2.05913 3.62652,0 6.08518,-3.10406 3.50358,-4.39485 3.50358,-10.69515 z"
       style="font-style:normal;font-weight:bold;line-height:0.01%;font-family:sans-serif;-inkscape-font-specification:'Arial Bold Oblique';letter-spacing:0px;word-spacing:0px;fill:#00ffff;fill-opacity:1;stroke:none;stroke-width:1.04903"
       id="path847" /><path
       d="m 377.38574,230.98064 h 8.35943 l -0.86053,4.24118 q 3.13479,-2.70453 5.8393,-3.84165 2.73527,-1.16786 5.74712,-1.16786 4.02604,0 6.33104,2.30498 2.33572,2.305 2.33572,6.11591 0,1.72107 -1.0142,6.51544 l -3.84165,18.47065 h -8.82042 l 3.87238,-18.53211 q 0.86053,-4.14898 0.86053,-4.94805 0,-1.69033 -1.0142,-2.64305 -0.98346,-0.98346 -2.76599,-0.98346 -1.93619,0 -4.30264,1.62885 -2.36646,1.62887 -3.71872,4.30265 -0.98346,1.90546 -2.21279,7.7755 l -2.79672,13.39967 h -8.82043 z"
       style="font-style:normal;font-weight:bold;line-height:0.01%;font-family:sans-serif;-inkscape-font-specification:'Arial Bold Oblique';letter-spacing:0px;word-spacing:0px;fill:#00ffff;fill-opacity:1;stroke:none;stroke-width:1.04903"
       id="path849" /><path
       d="m 410.62881,247.92487 11.26884,-1.35226 q 0.69662,4.79438 2.49964,6.63838 1.84399,1.84399 4.87633,1.84399 4.01581,0 6.63838,-2.70453 2.66354,-2.70452 2.66354,-6.92521 0,-3.68798 -2.13084,-5.81881 -2.13083,-2.17182 -5.73686,-2.17182 -0.90151,0 -1.88497,0.16391 l 2.04888,-9.79364 q 0.61467,0.0819 1.18835,0.0819 4.71242,0 7.17108,-2.3767 2.45866,-2.41768 2.45866,-6.51544 0,-2.90941 -1.68008,-4.58949 -1.63911,-1.68008 -4.34363,-1.68008 -2.54061,0 -4.54852,1.88497 -2.0079,1.84398 -3.19625,6.35153 l -10.73613,-2.13084 q 2.04888,-6.63838 5.69589,-10.20342 5.53197,-5.32709 13.60456,-5.32709 8.27748,0 12.58012,4.63046 4.30265,4.58949 4.30265,11.02299 0,4.67144 -2.7455,8.44138 -2.74549,3.76993 -7.53988,5.53197 3.81092,2.0079 5.61394,5.20416 1.80301,3.19625 1.80301,6.67934 0,6.63838 -4.71242,12.21133 -6.43348,7.62183 -16.59593,7.62183 -7.62184,0 -12.58012,-4.34362 -4.91731,-4.38461 -5.98274,-12.37524 z"
       style="font-style:oblique;font-weight:bold;font-size:80px;line-height:0.01%;font-family:sans-serif;-inkscape-font-specification:'Arial Bold Oblique';letter-spacing:0px;word-spacing:0px;fill:#80b3ff;fill-opacity:1;stroke:none;stroke-width:1.04903"
       id="path851" /><path
       d="m 471.0134,222.2729 -11.5147,-1.72106 q 1.39324,-8.35943 6.47446,-12.78502 5.1222,-4.46655 12.78501,-4.46655 8.40041,0 13.19479,4.54852 4.79437,4.54851 4.79437,11.55567 0,3.56506 -1.47519,7.17108 -1.4752,3.56506 -4.83535,7.49891 -2.41768,2.78647 -7.90868,7.90867 -5.491,5.08122 -7.29401,6.9662 -1.76204,1.84399 -3.40115,3.93385 h 20.81662 l -2.21278,10.73612 h -36.51105 q 0.5737,-4.42558 2.5816,-8.4004 2.04887,-4.01581 5.08122,-7.45793 3.03234,-3.44212 11.10493,-11.10492 6.06468,-5.81883 7.6628,-7.58086 2.86844,-3.19625 3.93385,-5.53197 1.06542,-2.33573 1.06542,-4.2207 0,-3.03235 -1.80301,-4.91731 -1.76204,-1.88497 -4.50754,-1.88497 -2.78648,0 -4.87633,2.13083 -2.08986,2.08986 -3.15528,7.62184 z"
       style="font-style:oblique;font-weight:bold;font-size:80px;line-height:0.01%;font-family:sans-serif;-inkscape-font-specification:'Arial Bold Oblique';letter-spacing:0px;word-spacing:0px;fill:#80b3ff;fill-opacity:1;stroke:none;stroke-width:1.04903"
       id="path853" /><rect
       style="fill:#66ff00;fill-opacity:1;fill-rule:nonzero;stroke:none;stroke-width:1.04903"
       id="rect2999"
       width="308.77518"
       height="10.149264"
       x="236.1963"
       y="275.28198"
       ry="0"
       rx="0"
       transform="matrix(1,0,-0.14613825,0.98926418,0,0)" /></g></svg>
