<?xml version="1.0" encoding="UTF-8" standalone="no"?>
<svg
   width="1067.5847"
   height="189.43283"
   version="1.1"
   id="svg46"
   sodipodi:docname="windows9x.svg"
   inkscape:version="1.1 (c68e22c387, 2021-05-23)"
   xmlns:inkscape="http://www.inkscape.org/namespaces/inkscape"
   xmlns:sodipodi="http://sodipodi.sourceforge.net/DTD/sodipodi-0.dtd"
   xmlns="http://www.w3.org/2000/svg"
   xmlns:svg="http://www.w3.org/2000/svg">
  <sodipodi:namedview
     id="namedview27"
     pagecolor="#ffffff"
     bordercolor="#666666"
     borderopacity="1.0"
     inkscape:pageshadow="2"
     inkscape:pageopacity="0"
     inkscape:pagecheckerboard="false"
     showgrid="false"
     inkscape:zoom="0.99342723"
     inkscape:cx="591.38705"
     inkscape:cy="22.648866"
     inkscape:window-width="2560"
     inkscape:window-height="1377"
     inkscape:window-x="2552"
     inkscape:window-y="-8"
     inkscape:window-maximized="1"
     inkscape:current-layer="svg46"
     fit-margin-top="0"
     fit-margin-left="0"
     fit-margin-right="0"
     fit-margin-bottom="0" />
  <defs
     id="defs50" />
  <g
     id="g38648"
     style="display:inline"
     transform="translate(1.8095243,1.3600419)">
    <path
       style="fill:#ffffff;fill-opacity:1;stroke:#ffffff;stroke-width:0;stroke-linejoin:round;stroke-miterlimit:4;stroke-dasharray:none"
       d="m 787.20734,79.324114 c -17.91484,0.06359 -39.58913,5.60038 -47.17334,23.757716 -6.30708,13.88424 0.16007,31.58174 14.02381,38.01746 15.17771,8.29861 33.18545,7.37278 49.25539,12.44115 3.16318,3.2821 -2.66965,6.0794 -5.54033,5.83129 -9.58491,1.15403 -21.46345,1.6104 -27.72716,-7.19966 -0.91511,-5.51306 -7.94741,-1.7945 -11.43453,-2.05256 -8.05137,1.34914 -16.68716,0.82097 -24.38489,3.59001 -3.04806,4.96242 2.48897,10.47714 5.00245,14.55437 13.20631,17.05797 36.79267,19.76437 56.84602,18.34325 18.7248,-0.079 40.05591,-8.2352 47.63481,-26.6102 6.3787,-15.61555 -4.19056,-34.28515 -20.16181,-38.5306 -14.68861,-4.92768 -30.6209,-4.5335 -45.2073,-9.27385 -3.03601,-4.08716 4.04006,-7.59837 7.44936,-7.03648 7.68611,-0.36818 16.37711,2.09476 20.53531,8.90475 10.76784,-0.68937 21.99674,-3.09959 32.81731,-5.1437 3.77419,-3.48529 -1.99915,-8.26179 -3.84559,-11.46599 C 824.13947,82.703614 804.69806,78.795118 787.20734,79.324114 Z"
       id="path6713" />
    <path
       style="display:inline;fill:#ffffff;fill-opacity:1;stroke:#ffffff;stroke-width:0;stroke-linejoin:round;stroke-miterlimit:4;stroke-dasharray:none"
       d="m 609.80498,81.561475 c -4.83884,0.933735 -11.67815,-1.681095 -15.41381,2.278649 1.27045,8.632916 5.5445,17.023326 7.82951,25.579766 8.50551,24.97313 15.99403,50.52541 25.09559,75.14795 9.45479,1.48228 19.89481,0.20448 29.723,0.63579 4.45269,-3.76605 3.70936,-11.65143 6.07056,-17.05156 3.00543,-11.16942 5.87016,-22.37786 8.95594,-33.52501 4.56327,16.33626 7.71291,33.25772 12.67835,49.3406 9.58937,1.82549 20.37365,0.61493 30.41938,1.27529 4.55285,-3.63583 4.3273,-11.40581 6.97113,-16.67302 9.03797,-28.16305 18.94472,-56.19923 27.48581,-84.429 -2.63032,-4.413357 -9.48281,-1.575678 -13.67359,-2.397018 -5.64347,0.877717 -12.77228,-1.437491 -17.41552,1.750188 -4.23184,14.377625 -8.24543,28.82159 -12.74981,43.11739 -4.3459,-14.55822 -7.15485,-29.999092 -12.03111,-44.356518 -9.89621,-1.641167 -20.92354,-0.237126 -31.25339,-0.705293 -4.32902,3.5047 -3.75785,10.966657 -5.9296,16.084234 -2.4171,9.192717 -4.54096,18.557877 -7.19967,27.589547 -4.70365,-14.2085 -8.11706,-28.980675 -13.00683,-42.980811 -8.24924,-1.583037 -17.87382,-0.2827 -26.55594,-0.681174 z"
       id="path6635" />
    <path
       style="display:inline;fill:#ffffff;fill-opacity:1;stroke:#ffffff;stroke-width:0;stroke-linejoin:round;stroke-miterlimit:4;stroke-dasharray:none"
       d="m 350.75072,79.072459 c -10.24705,-1.032712 -19.38562,5.112115 -25.62743,12.70853 -0.0619,-4.873866 1.86854,-14.010907 -6.14031,-11.29467 -10.84451,1.125993 -21.94697,0.398432 -32.59869,1.749511 -1.14714,22.23759 -0.16566,44.86045 -0.49151,67.24668 0.4634,11.69232 -0.92347,23.78581 0.68615,35.22961 13.00944,1.15172 26.40679,0.16029 39.56474,0.49151 4.41706,-3.6253 0.84984,-11.71612 1.99947,-17.09872 0.35405,-17.56787 -0.7927,-35.34547 1.11868,-52.76084 1.81827,-6.49132 11.63773,-8.87712 14.82793,-2.3337 3.66249,10.51104 1.46598,22.15603 2.1936,33.11806 0.4548,12.81538 -0.90527,26.01843 0.69255,38.58369 13.00945,1.15172 26.40679,0.16029 39.56474,0.49151 4.41707,-3.6253 0.84984,-11.71612 1.99947,-17.09872 -0.49513,-21.85232 1.07815,-43.84419 -1.13834,-65.61093 C 385.7953,91.352219 377.2729,82.018947 366.23334,79.666206 361.1346,78.7478 355.9018,79.147112 350.75072,79.072459 Z"
       id="path6674" />
    <path
       style="display:inline;fill:#ffffff;fill-opacity:1;stroke:#ffffff;stroke-width:0;stroke-linejoin:round;stroke-miterlimit:4;stroke-dasharray:none"
       d="m 151.48395,47.562618 c -6.48812,0.518572 -13.37293,-0.672412 -19.59953,0.973194 -6.3447,23.507875 -11.48448,47.357927 -17.93625,70.836688 -6.55892,-23.482448 -11.63204,-47.583198 -18.549055,-70.820809 -9.966189,-1.717407 -21.064091,-0.617328 -31.488813,-1.04019 -4.566556,0.817558 -10.631158,-1.364468 -14.375738,1.853983 2.40049,13.712903 7.380976,27.180999 10.765297,40.790412 8.750511,31.230854 17.478032,62.469484 26.428387,93.643974 4.844617,3.24572 12.216416,0.41559 18.054652,1.22505 8.29938,-0.55839 17.01229,0.66888 25.047,-1.03238 6.09902,-22.89578 11.11713,-46.16302 17.17343,-69.11049 6.48062,23.07174 11.45258,46.76883 18.28241,69.59734 9.82831,1.64143 20.79763,0.32165 31.07914,0.67312 4.5989,-0.0656 12.21853,0.71906 12.1461,-6.05946 12.1263,-42.76421 24.44846,-85.479343 36.25602,-128.331673 -2.31095,-5.347572 -11.14047,-1.003766 -16.06454,-2.244037 -6.73307,0.560947 -13.88921,-0.681697 -20.35255,1.02902 -6.56929,23.17405 -12.0692,46.80181 -18.80328,69.89888 -6.54081,-23.69366 -11.6778,-47.988856 -18.6218,-71.426348 -5.78357,-1.626024 -13.18407,-0.06896 -19.44088,-0.456274 z"
       id="path6596" />
    <path
       style="display:inline;fill:#ffffff;fill-opacity:1;stroke:#ffffff;stroke-width:0;stroke-linejoin:round;stroke-miterlimit:4;stroke-dasharray:none"
       d="m 239.07333,49.017493 c -0.881,8.587936 -0.70925,17.802331 -0.0746,26.388336 5.60573,2.525362 13.30609,0.364529 19.70166,1.083244 7.17009,-0.428575 14.71588,0.875639 21.64028,-0.68615 0.881,-8.587936 0.70925,-17.802332 0.0746,-26.388336 -5.60573,-2.525362 -13.30609,-0.36453 -19.70166,-1.083244 -7.14405,0.429494 -14.7544,-0.876788 -21.64028,0.68615 z"
       id="path6518" />
    <path
       style="display:inline;fill:#ffffff;fill-opacity:1;stroke:#ffffff;stroke-width:0;stroke-linejoin:round;stroke-miterlimit:4;stroke-dasharray:none"
       d="m 239.07333,81.229213 c -1.1491,22.405007 -0.16219,45.196617 -0.49151,67.749997 0.44637,11.86377 -0.89996,24.11624 0.68615,35.73291 13.00944,1.15172 26.40678,0.16029 39.56473,0.49151 4.41706,-3.6253 0.84984,-11.71612 1.99947,-17.09872 -0.27765,-28.79613 0.5555,-57.8331 -0.4169,-86.478603 -5.60573,-2.525362 -13.30609,-0.364529 -19.70166,-1.083244 -7.14405,0.429495 -14.7544,-0.876788 -21.64028,0.68615 z"
       id="path6557" />
    <path
       style="display:inline;fill:#ffffff;fill-opacity:1;stroke:#ffffff;stroke-width:0;stroke-linejoin:round;stroke-miterlimit:4;stroke-dasharray:none"
       d="m 454.48921,48.010877 c -1.15167,12.75911 -0.15825,25.906471 -0.49152,38.813707 -17.92883,-14.277281 -48.06625,-9.704149 -59.63414,10.555708 -10.2752,17.780808 -11.1599,40.192168 -5.17071,59.561408 5.11255,16.88029 21.04442,31.23835 39.40745,29.82493 10.31475,0.23124 21.57364,-3.28372 27.35755,-12.39788 0.42964,4.24392 -1.98398,12.48374 5.07241,10.83488 11.85948,-0.46619 24.12133,0.92345 35.73291,-0.68615 1.14909,-22.405 0.16219,-45.19662 0.49151,-67.74999 -0.28028,-22.755869 0.55905,-45.754483 -0.4169,-68.359519 -5.60573,-2.525363 -13.3061,-0.36453 -19.70166,-1.083245 -7.47153,0.45535 -15.43794,-0.916642 -22.6469,0.686151 z m -10.8172,58.694383 c 7.15506,-0.72597 9.82993,6.60845 9.1934,12.46418 -0.45196,10.90784 1.63258,22.40198 -1.69096,32.95151 -3.97465,7.62882 -16.24615,5.63574 -18.39434,-2.46739 -3.48488,-11.46437 -3.0822,-24.35963 0.8454,-35.66803 1.58095,-4.18519 5.29638,-7.84827 10.0465,-7.28027 z"
       id="path6440" />
    <path
       style="display:inline;fill:#ffffff;fill-opacity:1;stroke:#ffffff;stroke-width:0;stroke-linejoin:round;stroke-miterlimit:4;stroke-dasharray:none"
       d="m 550.83929,78.575049 c -21.25295,-0.275085 -43.45618,10.844076 -52.0806,31.000631 -5.93679,13.1061 -5.57702,28.51385 -2.05845,42.21301 7.87023,24.91308 35.7745,39.43251 60.95639,35.70408 22.9935,-0.2058 45.90218,-16.15087 50.67578,-39.26459 4.87012,-20.57183 -0.22448,-44.84357 -17.98657,-57.851586 -11.14476,-8.677129 -25.58257,-12.053897 -39.50655,-11.801545 z m 1.0597,28.491961 c 10.93181,0.45165 14.5809,13.23085 14.37377,22.41884 0.0466,9.78715 0.35192,21.88264 -8.38322,28.40152 -6.23453,3.27244 -14.66839,0.51659 -16.7409,-6.50762 -4.5841,-12.04048 -5.43113,-27.47301 1.48044,-39.18332 2.14021,-2.93343 5.55942,-5.12091 9.26991,-5.12942 z"
       id="path6362" />
    <path
       style="display:inline;fill:#ffffff;fill-opacity:1;stroke:#ffffff;stroke-width:0;stroke-linejoin:round;stroke-miterlimit:4;stroke-dasharray:none"
       d="m 835.05731,80.296181 c -0.92214,0.184044 -1.62509,1.063923 -1.59944,2.003981 0.006,2.83201 -0.0119,5.665228 0.009,8.496482 0.0196,1.018507 0.92863,1.901036 1.94422,1.907788 0.81554,-0.02439 1.71819,0.148354 2.43134,-0.352303 0.30605,-0.229063 0.56036,-0.526728 0.70475,-0.883215 0.33789,0.710057 1.05277,1.231994 1.85183,1.237109 0.77204,-0.04569 1.59716,0.138058 2.32128,-0.200736 0.94228,-0.422358 1.40103,-1.636487 0.97272,-2.5762 -0.37151,-0.74728 -0.92134,-1.438212 -1.3073,-2.154209 0.94711,-0.798589 1.33946,-2.078823 1.27299,-3.287749 0.0304,-1.438914 -0.71181,-2.900463 -1.99738,-3.593508 -1.03689,-0.603209 -2.26464,-0.657135 -3.43302,-0.635901 -1.05601,0.01868 -2.11857,-0.04811 -3.17097,0.03846 z"
       id="path6187" />
    <path
       style="display:inline;fill:#ffffff;fill-opacity:1;stroke:#ffffff;stroke-width:0;stroke-linejoin:round;stroke-miterlimit:4;stroke-dasharray:none"
       d="m 838.15738,77.071773 c -1.96596,-0.04888 -3.95716,0.55382 -5.52946,1.743231 -2.04914,1.56789 -3.30884,4.054364 -3.5624,6.60252 -0.0703,1.317781 -0.0608,2.665892 0.35555,3.932717 0.86176,2.932886 3.33119,5.339445 6.30836,6.067084 1.82604,0.450869 3.77841,0.417119 5.58632,-0.102234 2.04581,-0.616089 3.75391,-2.098278 4.90386,-3.871027 0.93108,-1.494949 1.3785,-3.273247 1.31387,-5.030368 0.0357,-2.010333 -0.60425,-4.00833 -1.749,-5.656141 -1.32782,-2.018363 -3.59829,-3.345889 -5.98397,-3.631651 -0.54631,-0.04635 -1.09512,-0.05462 -1.64313,-0.05413 z m 0.30628,5.058958 c 0.81846,-0.01642 1.64512,0.285765 2.19357,0.907543 0.62501,0.607459 1.13746,1.354181 1.31409,2.220071 0.13321,0.831444 0.17986,1.704958 -0.0246,2.528958 -0.38368,1.266516 -1.33656,2.478676 -2.69002,2.749962 -1.20636,0.222953 -2.56112,0.01139 -3.49164,-0.837555 -0.92472,-0.806205 -1.57009,-2.006226 -1.46994,-3.258213 0.01,-0.949559 0.22541,-1.954933 0.91345,-2.653555 0.58472,-0.643087 1.21428,-1.339578 2.1031,-1.52911 0.37582,-0.0945 0.76493,-0.132403 1.15198,-0.128101 z"
       id="path6148" />
    <path
       style="display:inline;fill:#ffffff;fill-opacity:1;stroke:#ffffff;stroke-width:0;stroke-linejoin:round;stroke-miterlimit:4;stroke-dasharray:none"
       d="m 904.44864,42.305407 c -19.73571,-0.362436 -39.46984,11.577514 -47.14582,29.903581 -2.87827,10.302726 -2.63927,21.380506 -1.41555,31.914852 5.20213,17.99355 21.82445,31.42799 40.43373,33.10234 15.54397,1.90299 32.09927,-3.45373 42.86573,-14.99505 -0.40891,14.18615 -4.10266,29.5605 -14.28137,39.97564 -8.4315,7.8039 -21.72864,9.29566 -32.23138,5.57964 -8.19916,-3.18799 -11.68055,-11.73589 -14.15795,-19.32698 -5.80136,-0.98695 -12.42436,1.30638 -18.65735,0.53354 -4.78707,1.29097 -1.03762,7.74725 -0.53083,11.24579 6.4081,18.76572 27.49839,28.39957 46.3653,26.86407 19.74213,0.0794 39.25422,-11.15241 47.6039,-29.30787 10.00521,-20.62599 9.13442,-44.47792 7.43363,-66.761068 -2.12586,-21.058333 -16.60684,-41.281908 -37.71076,-46.512749 -6.03071,-1.684812 -12.31981,-2.340255 -18.57128,-2.215736 z m 3.63129,17.246168 c 15.89913,-0.488038 29.8579,14.022078 28.91466,29.899648 0.52649,11.690767 -5.88997,23.750097 -17.41722,27.552187 -15.47073,6.38664 -36.32964,-0.84257 -40.88199,-17.887097 -1.10889,-9.713404 -1.26687,-20.435745 5.88242,-28.027972 5.67319,-7.006808 14.42744,-11.534658 23.50213,-11.536766 z"
       id="path6031" />
    <path
       style="display:inline;fill:#ffffff;fill-opacity:1;stroke:#ffffff;stroke-width:0;stroke-linejoin:round;stroke-miterlimit:4;stroke-dasharray:none"
       d="m 1037.8292,81.113217 c -9.6784,10.685271 -18.0705,22.469103 -27.6741,33.206543 -8.3271,-11.1322 -16.1456,-22.996212 -25.13051,-33.419494 -8.0201,-0.426099 -16.59079,-0.86427 -24.6478,0.334846 -2.84507,4.072085 4.05013,7.550683 5.6138,11.123852 10.25011,12.938766 20.64536,25.761386 30.9822,38.630906 -13.46455,16.89622 -27.39937,33.44117 -40.42193,50.67684 -0.37367,5.35315 7.30555,2.68161 10.54588,3.52512 6.25808,-0.64508 14.77828,2.62819 17.88267,-4.7861 8.55279,-11.16802 16.89319,-22.50467 25.77739,-33.4142 10.5149,12.08471 19.2103,25.91416 29.6326,37.86317 8.2367,0.34172 17.228,1.03845 25.3538,-0.33722 0.5524,-5.189 -6.2078,-8.62999 -8.4615,-13.13006 -11.0625,-13.79845 -22.0888,-27.61406 -33.1303,-41.42972 12.7163,-15.60009 26.4494,-30.664774 38.5371,-46.59582 -2.0627,-4.946665 -10.7958,-1.375 -15.541,-2.706147 -3.0568,0.255916 -6.5044,-0.957234 -9.3183,0.457484 z"
       id="path5992" />
    <path
       style="display:inline;fill:#ffffff;fill-opacity:1;stroke:#ffffff;stroke-width:0;stroke-linejoin:round;stroke-miterlimit:4;stroke-dasharray:none"
       d="m 129.03218,10.585691 c -3.63587,-0.0373 -7.29265,1.424504 -9.76142,4.121326 0.37173,-1.70612 -0.91248,-3.500381 -2.75493,-3.117659 -1.90166,0.208785 -4.10074,-0.494483 -5.78401,0.515565 -1.41747,1.5264 -0.46996,3.873218 -0.74572,5.762516 0.048,10.310848 -0.0957,20.649532 0.0716,30.943044 0.41779,2.414776 3.3188,1.647131 5.07402,1.758714 1.70665,0.04559 4.46587,0.357749 4.64233,-1.998979 0.12453,-6.924971 -0.2639,-13.993282 0.29049,-20.792918 0.61497,-4.783718 5.34903,-8.338695 10.09958,-7.9099 1.9074,0.340584 3.09777,-1.537316 2.69595,-3.258232 -0.25614,-1.943673 0.77516,-4.593635 -1.19094,-5.85538 -0.86116,-0.271866 -1.75049,-0.141524 -2.63696,-0.168097 z"
       id="path5797" />
    <path
       style="display:inline;fill:#ffffff;fill-opacity:1;stroke:#ffffff;stroke-width:0;stroke-linejoin:round;stroke-miterlimit:4;stroke-dasharray:none"
       d="m 149.18515,10.605843 c -5.80729,0.09963 -11.71347,2.609157 -15.12873,7.440014 -4.25209,5.817321 -4.79081,13.735245 -2.80654,20.499976 1.94886,6.658928 8.01222,11.658098 14.82793,12.66331 6.57118,0.969664 13.85377,-0.889295 18.26255,-6.095637 3.18927,-3.663049 4.88467,-8.541419 4.62323,-13.396738 0.11819,-3.261702 -0.003,-6.602097 -1.46155,-9.595494 -2.75259,-7.405189 -10.6067,-11.808706 -18.31689,-11.515431 z m 1.27105,8.393056 c 4.03585,-0.05896 7.14309,3.631956 7.90842,7.356949 1.05557,4.915185 0.78104,10.796097 -2.84732,14.62346 -2.77896,2.69797 -7.54752,2.990196 -10.75772,0.915688 -4.1027,-2.891613 -4.59408,-8.43008 -4.25944,-13.031946 0.14426,-3.989263 2.23241,-8.427568 6.30511,-9.626259 1.19732,-0.261396 2.43306,-0.234372 3.65095,-0.237892 z"
       id="path5836" />
    <path
       style="display:inline;fill:#ffffff;fill-opacity:1;stroke:#ffffff;stroke-width:0;stroke-linejoin:round;stroke-miterlimit:4;stroke-dasharray:none"
       d="m 186.35082,10.631401 c -5.74962,0.106834 -12.28287,2.559965 -14.59201,8.252484 -1.61092,4.175476 -0.69264,9.652765 3.31623,12.143292 5.57814,3.648777 12.56212,3.390459 18.52115,6.003817 2.05997,1.075038 0.87953,4.066689 -0.91568,4.773563 -3.27857,1.475493 -7.29315,1.263668 -10.53703,-0.211349 -1.83868,-1.003838 -3.02095,-2.742546 -4.04171,-4.488979 -1.66226,-1.633928 -4.06251,-0.217304 -6.01905,-0.09978 -1.8602,0.154443 -3.09363,2.22779 -2.11252,3.883435 1.67101,4.11399 5.20247,7.247357 9.37608,8.674201 5.48218,1.968551 11.72406,1.836501 17.15327,-0.238382 4.65726,-1.745234 8.33775,-6.326858 8.05286,-11.442393 0.0856,-4.542959 -3.55313,-8.289961 -7.69987,-9.597705 -4.75948,-1.922473 -9.9629,-2.243945 -14.75084,-4.012753 -2.21144,-0.583319 -1.57535,-3.698964 0.13271,-4.498808 2.45193,-1.31493 5.52776,-1.106208 8.13501,-0.357821 1.86648,0.655562 2.9795,2.357476 3.90198,3.965994 1.34772,1.490338 3.54037,0.24933 5.22588,0.164672 1.74016,-0.03472 3.80346,-1.382941 3.13683,-3.358009 -1.79835,-5.450771 -7.36022,-8.847417 -12.89228,-9.386924 -1.12381,-0.142803 -2.25865,-0.195743 -3.39101,-0.168558 z"
       id="path5875" />
    <path
       style="display:inline;fill:#ffffff;fill-opacity:1;stroke:#ffffff;stroke-width:0;stroke-linejoin:round;stroke-miterlimit:4;stroke-dasharray:none"
       d="m 224.08123,10.735602 c -5.00945,-0.146277 -10.04812,1.765289 -13.42643,5.52383 -4.51161,4.262243 -5.86132,10.752882 -5.45473,16.737246 0.19367,7.290075 4.75802,14.359415 11.61809,17.03972 5.1951,2.109349 11.25472,1.804171 16.37448,-0.361846 6.77511,-2.996062 11.14269,-10.384299 10.76533,-17.746434 0.17892,-3.918457 -0.25307,-7.952814 -2.23244,-11.41782 -3.0624,-6.019343 -9.66606,-9.972459 -16.42633,-9.769781 -0.40599,-0.0049 -0.81195,-0.0095 -1.21797,-0.0049 z m 0.69451,8.161062 c 4.19462,-0.161391 7.65141,3.26686 8.53363,7.190327 0.99644,4.757372 0.88217,10.258365 -2.2064,14.263181 -3.42253,4.213147 -10.82451,3.799675 -13.68615,-0.850807 -2.54678,-3.993423 -2.3962,-9.089957 -1.49073,-13.564609 0.86467,-3.855216 4.31652,-7.226748 8.43432,-7.034159 l 0.19759,-0.0039 z"
       id="path5914" />
    <path
       style="display:inline;fill:#ffffff;fill-opacity:1;stroke:#ffffff;stroke-width:0;stroke-linejoin:round;stroke-miterlimit:4;stroke-dasharray:none"
       d="m 262.99324,-1.3496915 c -5.04591,-0.2084724 -10.35418,2.7446983 -11.87606,7.745659 -0.58643,1.6672215 -0.829,3.4342863 -0.91357,5.1933905 -2.08839,0.21956 -4.47855,-0.514593 -6.34679,0.515565 -1.36455,1.370807 -0.50187,3.529983 -0.74572,5.259207 0.15793,2.198219 2.62308,2.120123 4.26485,1.999962 1.54154,-0.02719 3.51511,-0.486419 2.78146,1.761579 0.0479,9.392551 -0.0954,18.812883 0.0716,28.18812 0.44115,2.460771 3.41451,1.62335 5.19985,1.758714 1.62414,0.107781 4.13592,0.178808 4.26484,-1.999962 0,-9.902817 0,-19.805633 0,-29.708451 3.61638,0 7.23276,0 10.84914,0 0.14865,7.710007 -0.34776,15.467088 0.53428,23.143327 0.59437,4.985438 5.53279,8.286395 10.23131,8.78774 2.91895,0.268112 5.98884,0.232435 8.78925,-0.610349 1.80677,-1.156582 0.78648,-3.679721 1.05321,-5.482433 0.12394,-1.918187 -1.92977,-2.58463 -3.50982,-2.282089 -1.96154,-0.170209 -4.17808,0.377954 -5.98711,-0.547544 -1.63658,-1.908492 -0.91643,-4.687286 -1.1884,-6.986272 -0.0779,-5.30289 -0.10097,-10.68697 -0.15146,-16.02238 1.77619,0.120564 3.75174,-0.240164 5.40468,0.177946 2.18912,2.690118 6.38864,3.302983 9.16373,1.151102 3.99231,-2.629145 3.50826,-9.407625 -0.84491,-11.4074981 -2.97071,-1.5303489 -7.0105,-0.5480641 -8.81035,2.3037161 -1.63263,0 -3.26527,0 -4.89791,0 -0.16989,-2.643857 0.36936,-5.3907452 -0.32391,-7.9585601 -1.58093,-1.6790215 -4.09562,-0.4913382 -6.11231,-0.5437454 -1.05556,-0.2808779 -2.97626,1.5092494 -2.62333,-0.1728788 0.2303,-1.6176238 -0.127,-3.90535191 -2.17937,-3.9308877 -2.00833,-0.351442 -4.06534,-0.3237905 -6.0972,-0.3329775 z m 7.54815,10.8068709 c 0.5861,2.1356736 -0.66711,2.4320366 -2.51654,2.1321786 -2.71213,-0.07331 -5.81808,0.145433 -8.28935,-0.106658 -0.18551,-2.0694697 1.10685,-4.1991844 3.25086,-4.5106045 2.31013,-0.207248 4.6305,0.098594 6.90918,0.2221635 1.2914,-1.5180224 0.36695,1.7976807 0.64585,2.2629204 z M 291.03105,13.0693 c 1.95048,0.02814 2.815,2.595456 1.37033,3.85247 -0.70224,0.668612 -2.20724,0.786405 -2.79867,0.05456 0.0617,-1.152623 -0.0522,-2.474643 0.005,-3.534462 0.40251,-0.299519 0.93021,-0.405088 1.42342,-0.372566 z"
       id="path5953" />
    <path
       style="display:inline;fill:#ffffff;fill-opacity:1;stroke:#ffffff;stroke-width:0;stroke-linejoin:round;stroke-miterlimit:4;stroke-dasharray:none"
       d="m 90.297607,10.704636 c -7.833462,-0.249014 -15.347301,5.147235 -17.733256,12.591551 -1.278644,3.99039 -1.20192,8.311885 -0.766267,12.438199 0.916823,5.754838 4.290225,11.269052 9.659191,13.831142 7.344675,3.674647 17.585916,2.183693 22.476835,-4.770614 1.32484,-2.124446 2.57878,-4.502949 2.74755,-7.03206 -0.21284,-2.509516 -3.16654,-2.657359 -5.07908,-2.922623 -1.55623,-0.612442 -3.46905,0.0086 -3.912143,1.737589 -0.837247,3.194668 -3.29659,6.512057 -6.912131,6.425043 -2.981617,0.311178 -5.928649,-1.241591 -7.346136,-3.889334 -2.246933,-4.230108 -2.376656,-9.449998 -0.964347,-13.969749 1.111706,-3.750179 4.789617,-6.91116 8.86245,-6.164542 3.529756,0.368047 5.808267,3.756421 6.243184,7.043857 0.91494,2.300834 3.767523,1.504093 5.626393,1.249613 1.62565,-0.0014 3.95152,-0.657013 3.57062,-2.729278 -0.83538,-5.41686 -4.21509,-10.79912 -9.527076,-12.757822 -2.181023,-0.944328 -4.601312,-1.073956 -6.945787,-1.080972 z"
       id="path5758" />
    <path
       style="display:inline;fill:#ffffff;fill-opacity:1;stroke:#ffffff;stroke-width:0;stroke-linejoin:round;stroke-miterlimit:4;stroke-dasharray:none"
       d="M 59.054165,-0.41778506 C 57.385668,1.1757743 58.442686,3.743777 58.14536,5.7880435 c -0.266403,2.005746 1.835622,2.8575616 3.509886,2.5032699 1.938799,-0.2606223 4.598647,0.7756456 5.85538,-1.1909332 0.263238,-2.1482077 0.324245,-4.4393607 -0.0438,-6.56585758 -0.969473,-2.08337962 -3.732592,-1.01313757 -5.55993,-1.27621399 -0.9784,-0.008385 -1.932484,-0.0772731 -2.852735,0.32390631 z"
       id="path5718" />
    <path
       style="display:inline;fill:#ffffff;fill-opacity:1;stroke:#ffffff;stroke-width:0;stroke-linejoin:round;stroke-miterlimit:4;stroke-dasharray:none"
       d="m 59.054165,11.913264 c -1.668497,1.593559 -0.611479,4.161562 -0.908805,6.205829 0.04796,10.226963 -0.09568,20.481764 0.07161,30.69139 0.441154,2.460771 3.41452,1.62335 5.19985,1.758714 1.624146,0.107781 4.135927,0.178808 4.264849,-1.999963 -0.04793,-11.736892 0.09556,-23.501596 -0.07162,-35.221164 -0.441153,-2.460771 -3.414519,-1.623349 -5.19985,-1.758712 -1.137033,0.02964 -2.282069,-0.147612 -3.356043,0.323906 z"
       id="path5678" />
    <path
       style="display:inline;fill:#ffffff;fill-opacity:1;stroke:#ffffff;stroke-width:0;stroke-linejoin:round;stroke-miterlimit:4;stroke-dasharray:none"
       d="M -0.83950223,-0.41778506 C -2.5079997,1.1757743 -1.4509809,3.743777 -1.7483076,5.7880435 c 0.04773,14.3373465 -0.095469,28.7024345 0.071614,43.0224395 0.4195734,2.414419 3.3161459,1.647679 5.0740234,1.758714 1.5939559,0.133007 4.0239751,0.115593 4.1390213,-1.999963 0.016744,-10.85285 -0.038478,-21.844602 0.040304,-32.612302 4.6206119,11.161969 9.0335129,22.416709 13.6762409,33.55325 1.321208,1.858895 3.969432,0.76272 5.903134,1.059015 2.494091,-0.158013 2.562319,-3.231449 3.560015,-4.960227 3.994527,-9.690448 7.98909,-19.380884 11.983064,-29.071562 0.08104,10.756033 -0.02946,21.540434 0.170644,32.278757 0.44695,2.455552 3.413675,1.61686 5.197648,1.753032 1.738059,0.01892 4.574402,0.413108 4.766683,-1.999963 0,-15.770322 0,-31.540642 0,-47.3109637 -0.157933,-2.19821856 -2.623089,-2.12012251 -4.26485,-1.99996167 -2.600429,0.16544675 -5.301538,-0.36205003 -7.826343,0.32390631 C 39.076169,1.6203605 38.604103,4.3843425 37.449703,6.7325316 33.51434,16.409193 29.684218,26.11615 25.680512,35.75208 20.777831,23.963922 16.107968,12.051188 11.14107,0.30786717 9.8641797,-1.50816 7.2966776,-0.46406562 5.4194095,-0.74169137 3.3475658,-0.59550238 1.1515194,-1.0790161 -0.83950223,-0.41778506 Z"
       id="path1827" />
    <path
       d="m 0.2323563,48.630678 h 5.488 V 6.1856778 L 22.900356,48.630678 h 4.49 l 17.406,-42.1950002 V 48.630678 h 6.162 V 1.1976778 h -9.21 L 25.717356,40.964678 9.5113563,1.1976778 h -9.279 V 48.630678"
       id="path10"
       style="display:inline" />
    <path
       d="m 60.078356,6.3896778 h 5.78 v -5.192 h -5.78 z m 0,42.2400002 h 5.78 v -35.143 h -5.78 z"
       id="path12"
       style="display:inline" />
    <path
       d="m 99.470356,25.812678 5.488004,-0.738 c -1.268,-8.027 -6.617004,-12.552 -14.101004,-12.552 -10.39,0 -17.571,7.241 -17.571,18.537 0,11.395 6.807,18.523 16.656,18.523 7.95,0 13.519004,-4.364 15.018004,-12.266 l -5.256004,-0.876 c -1.243,5.523 -4.795,8.613 -9.517,8.613 -6.2,0 -10.571,-5.172 -10.571,-13.992 0,-8.95 4.588,-14.137 10.682,-14.137 4.609,-0.005 8.404,3.255 9.172,8.888"
       id="path14"
       style="display:inline" />
    <path
       d="m 111.89936,48.630678 h 5.864 v -17.653 c 0,-8.13 4.827,-13.115 12.307,-13.115 h 0.98 v -5.256 a 18.862,18.862 0 0 0 -2.139,-0.13 c -5.421,0 -9.07,2.92 -11.434,8.854 v -7.845 h -5.578 v 35.145"
       id="path16"
       style="display:inline" />
    <path
       d="m 149.57636,49.579678 c 10.467,0 17.714,-7.252 17.714,-18.523 0,-11.36 -7.245,-18.536 -17.714,-18.536 -10.369,0 -17.562,7.175 -17.562,18.536 0,11.27 7.193,18.523 17.562,18.523 z m 0,-4.363 c -6.694,0 -11.2,-5.215 -11.2,-14.157 0,-9.006 4.425,-14.137 11.2,-14.137 6.803,0 11.291,5.188 11.291,14.137 0,8.894 -4.556,14.157 -11.29,14.157"
       id="path18"
       style="display:inline" />
    <path
       d="m 224.52936,49.579678 c 10.493,0 17.741,-7.252 17.741,-18.523 0,-11.36 -7.245,-18.536 -17.741,-18.536 -10.344,0 -17.547,7.175 -17.547,18.536 0.002,11.27 7.205,18.523 17.547,18.523 z m 0,-4.363 c -6.669,0 -11.187,-5.215 -11.187,-14.157 0,-9.006 4.413,-14.137 11.187,-14.137 6.825,0 11.325,5.188 11.325,14.137 0.002,8.894 -4.582,14.157 -11.325,14.157"
       id="path20"
       style="display:inline" />
    <path
       d="m 257.78636,13.485678 c 0,-0.409 -0.075,-0.881 -0.075,-1.292 0,-4.9720002 2.219,-7.3030002 6.975,-7.3030002 1.095,0 2.696,0.125 4.738,0.466 v -4.366 a 32.256,32.256 0 0 0 -5.794,-0.497 c -7.922,0 -11.661,4.2 -11.661,12.7310002 v 0.259 h -6.953 v 3.854 h 6.953 v 31.874 h 5.817 v -31.874 h 14.768 v 18.208 c 0,4.529 0,7.822 1.61,9.866 2.231,2.905 5.434,4.164 10.072,4.164 1.61,0 3.28,-0.218 4.92,-0.53 v -4.401 c -1.463,0.363 -2.874,0.4 -4.05,0.4 -5.997,0 -6.66,-2.785 -6.66,-9.343 v -18.366 h 9.3 v -3.854 h -9.3 V 4.6036778 l -5.892,0.543 v 8.3340002 h -14.768"
       id="path22"
       style="display:inline" />
    <path
       d="m 171.38636,39.090678 c 1.817,6.27 7.79,9.978 16.388,9.978 8.99,0 14.943,-4.565 14.943,-10.789 0,-5.33 -3.925,-8.088 -12.043,-9.896 -7.509,-1.672 -11.96,-1.776 -11.96,-6.078 0,-3.282 2.972,-5.451 7.94,-5.451 4.695,0 7.75,1.898 8.988,5.45 l 5.408,-1.017 c -1.901,-5.649 -6.962,-8.765 -14.18,-8.765 -8.543,0 -14.012,4.525 -14.012,10.4 0,5.772 3.938,7.996 12.476,9.822 7.166,1.57 11.298,1.962 11.298,6.2 0,3.365 -3.382,5.85 -8.856,5.85 -5.395,0 -9.535,-2.413 -11.116,-6.678 l -5.274,0.974"
       id="path24"
       style="display:inline" />
    <path
       d="m 290.85536,11.075678 c 2.344,0 4.238,1.851 4.238,4.139 0,2.344 -1.849,4.21 -4.184,4.21 a 4.172,4.172 0 0 1 -4.168,-4.185 c 0,-2.272 1.865,-4.164 4.114,-4.164 z m 0.14,-0.69 c -2.743,0 -4.947,2.146 -4.947,4.829 0,2.725 2.16,4.901 4.875,4.901 a 4.86,4.86 0 0 0 4.858,-4.874 c 0.002,-2.642 -2.171,-4.856 -4.786,-4.856 z m 2.215,7.697 -1.17,-2.582 c 0.695,-0.245 1.086,-0.777 1.086,-1.463 0,-0.94 -0.79,-1.608 -1.922,-1.608 h -2.39 v 5.653 h 0.834 v -2.398 h 1.556 l 1.075,2.398 z m -3.562,-3.061 v -1.883 h 1.556 c 0.64,0 1.034,0.336 1.034,0.89 0,0.611 -0.427,0.993 -1.131,0.993 h -1.459"
       id="path26"
       style="display:inline" />
    <path
       d="m 733.71536,154.55768 c 5.865,19.997 25.158,31.12 55.853,31.12 33.75,0 54.324,-15.384 54.324,-35.806 0,-8.368 -3.36,-15.559 -9.851,-20.996 -7.993,-6.64 -17.442,-7.968 -28.987,-9.924 -19.895,-3.305 -29.869,-2.503 -29.766,-8.742 0.025,-3.385 3.984,-6.964 11.924,-6.964 9.899,0 16.188,3.28 19.968,9.471 l 32.299,-5.237 c -7.087,-17.317002 -24.556,-26.887002 -50.136,-26.887002 -31.87,0 -50.39,14.807 -50.39,34.652002 0,8.568 4.436,16.713 11.977,22.2 9.421,6.767 19.92,8.346 31.921,10.301 14.86,2.528 22.852,1.801 23.48,7.366 0.479,3.834 -5.236,6.814 -15.11,6.814 -13.878,0 -21.596,-3.859 -23.501,-11.277 l -34.005,3.909"
       id="path28"
       style="display:inline" />
    <path
       d="m 287.59736,82.768678 36.122,-0.1 v 14.31 c 5.692,-11.152 16.067,-17.037 29.868,-17.037 24.21,0 33.764,11.75 33.764,37.234002 v 66.326 h -39.408 v -60.838 c 0,-9.397 -3.478,-15.46 -10.212,-15.46 -6.905,0 -11.175,4.886 -11.175,14.283 v 62.017 h -38.96 V 82.768678"
       id="path30"
       style="display:inline" />
    <path
       d="m 628.30436,183.49968 h 29.066 l 14.907,-56.303 13.585,56.303 h 29.464 l 33.426,-100.778002 h -28.24 l -14.806,50.765002 -13.106,-50.765002 h -30.468 l -12.604,49.388002 -14.41,-49.388002 h -39.916 l 33.103,100.778002"
       id="path32"
       style="display:inline" />
    <path
       d="m 88.290356,183.42168 h 40.151004 l 18.589,-76.347 19.193,76.347 h 39.344 l 37.982,-133.676002 h -33.682 l -20.23,77.024002 -19.807,-77.524002 h -36.6 l -19.282,78.301002 -19.632004,-78.300002 h -43.848 l 37.822,134.175002"
       id="path34"
       style="display:inline" />
    <path
       d="m 240.23236,74.653678 h 39.452 v -24.883 h -39.451 z m 0,8.015 h 39.452 V 183.42168 h -39.451 z"
       id="path36"
       style="display:inline" />
    <path
       d="m 454.81536,120.45768 c 0,-4.009 0.198,-8.77 -2.508,-11.927 -1.853,-2.607 -5.617,-3.984 -8.944,-3.984 -9.472,0.023 -14.812,10.898 -14.835,29.591 0,8.945 1.734,24.806 14.658,24.806 4.11,0 6.866,-1.754 9.124,-5.136 2.905,-4.36 2.507,-7.945 2.507,-12.905 v -20.445 z m 2.55,62.964 v -13.578 h -0.374 c -6.062,11.198 -14.96,15.507 -28.288,15.507 -30.554,0 -41.668,-27.211 -41.668,-52.219 0,-25.98 10.905,-53.193002 42.92,-53.193002 10.173,0 18.945,4.184 25.357,10.299 v -41.194 h 40.042 V 183.42368 h -37.988"
       id="path38"
       style="display:inline" />
    <path
       d="m 568.24436,133.23668 c 0,-18.818 -6.34,-27.888 -16.11,-27.888 -9.826,0 -16.113,9.07 -16.113,27.888 0,18.913 6.362,27.962 16.113,27.962 9.848,0 16.11,-9.049 16.11,-27.962 z m -72.84,0 c 0,-32.026 22.775,-53.245002 56.677,-53.245002 34.005,0 56.65,21.220002 56.65,53.245002 0,31.87 -22.647,53.27 -56.65,53.27 -33.9,0 -56.677,-21.4 -56.677,-53.27"
       id="path40"
       style="display:inline" />
    <path
       d="m 843.53736,81.094678 c -1.467,-1.517 -3.134,-2.078 -5.165,-2.078 -2.035,0 -3.88,0.561 -5.337,2.074 a 7.899,7.899 0 0 0 -2.035,5.474 c 0,2.071 0.735,3.777 2.035,5.101 1.462,1.51 3.302,2.08 5.337,2.08 2.033,0 3.682,-0.567 5.165,-2.08 1.302,-1.315 2.036,-3.018 2.036,-5.101 0,-2.272 -0.732,-3.955 -2.036,-5.474 v 0.005 z m -1.103,0.938 c 1.101,1.14 1.658,2.653 1.658,4.53 0,1.69 -0.552,3.025 -1.658,4.347 -1.102,1.136 -2.388,1.703 -4.043,1.703 -1.668,0 -3.135,-0.567 -4.243,-1.703 -1.293,-1.322 -1.856,-2.653 -1.856,-4.347 0,-1.879 0.563,-3.396 1.856,-4.53 1.108,-1.333 2.575,-1.894 4.243,-1.894 1.65,0 2.932,0.561 4.043,1.895 z"
       id="path42"
       style="display:inline" />
    <path
       d="m 841.69536,84.685678 c 0,-1.714 -0.922,-2.464 -2.946,-2.464 h -3.313 v 8.495 h 1.285 v -3.77 h 1.481 l 2.21,3.77 h 1.467 l -2.387,-3.77 c 1.479,-0.194 2.203,-0.95 2.203,-2.26 z m -1.471,-0.2 c 0,0.943 -0.56,1.513 -1.843,1.513 h -1.662 v -2.639 h 1.662 c 1.284,-0.002 1.843,0.372 1.843,1.127 z"
       id="path44"
       style="display:inline" />
    <g
       aria-label="9"
       transform="scale(1.0688626,0.93557394)"
       id="text2551-7"
       style="font-size:207.731px;line-height:1.25;font-family:Arial;-inkscape-font-specification:Arial;text-align:center;letter-spacing:0px;word-spacing:0px;text-anchor:middle;display:inline;stroke-width:1.08192">
      <path
         d="m 803.50705,161.54299 17.54759,-1.6229 q 2.23149,12.3746 8.52022,17.95331 6.28873,5.57871 16.12755,5.57871 8.41879,0 14.70752,-3.85438 6.39016,-3.85438 10.44741,-10.24455 4.05724,-6.49159 6.79588,-17.44615 2.73865,-10.95457 2.73865,-22.31486 0,-1.21717 -0.10144,-3.65152 -5.47728,8.72308 -15.01181,14.20036 -9.43309,5.37585 -20.48909,5.37585 -18.46047,0 -31.24079,-13.38891 -12.78033,-13.38891 -12.78033,-35.298041 0,-22.619147 13.28748,-36.413784 13.38891,-13.794637 33.47228,-13.794637 14.50466,0 26.47353,7.810199 12.07031,7.810199 18.25761,22.314854 6.28873,14.403224 6.28873,41.789639 0,28.50215 -6.1873,45.44115 -6.1873,16.83757 -18.46047,25.66208 -12.17174,8.82452 -28.60358,8.82452 -17.44616,0 -28.50216,-9.63596 -11.05599,-9.7374 -13.28748,-27.28498 z m 74.75476,-65.625961 q 0,-15.721829 -8.41878,-24.952064 -8.31736,-9.230235 -20.08337,-9.230235 -12.17174,0 -21.19911,9.940253 -9.02738,9.940253 -9.02738,25.763513 0,14.200364 8.52022,23.126304 8.62165,8.82451 21.19911,8.82451 12.6789,0 20.79339,-8.82451 8.21592,-8.92594 8.21592,-24.647771 z"
         id="path38584" />
    </g>
    <g
       aria-label="x"
       transform="scale(1.0688626,0.93557394)"
       id="text2551-7-3"
       style="font-size:207.731px;line-height:1.25;font-family:Arial;-inkscape-font-specification:Arial;text-align:center;letter-spacing:0px;word-spacing:0px;text-anchor:middle;display:inline;stroke-width:1.08192">
      <path
         d="m 895.34628,195.92815 39.35529,-55.99 -36.41378,-51.729889 h 22.82201 l 16.53328,25.256359 q 4.66583,7.20161 7.5059,12.07031 4.46297,-6.69446 8.21592,-11.86745 l 18.15618,-25.459219 h 21.8077 l -37.22523,50.715579 40.0653,57.00431 h -22.41628 l -22.11199,-33.47228 -5.88301,-9.02738 -28.29929,42.49966 z"
         id="path38605"
         style="display:inline" />
    </g>
  </g>
</svg>
